<svg width="16" height="16" viewBox="0 0 16 16" fill="none" xmlns="http://www.w3.org/2000/svg">
<path d="M8 1C8 1 3.0512 5.272 0.2856 7.5856C0.197559 7.66225 0.126631 7.75656 0.077426 7.86241C0.0282212 7.96826 0.00184104 8.08328 0 8.2C0 8.41217 0.0842854 8.61566 0.234315 8.76568C0.384344 8.91571 0.587827 9 0.8 9H2.4V14.6C2.4 14.8122 2.48429 15.0157 2.63431 15.1657C2.78434 15.3157 2.98783 15.4 3.2 15.4H5.6C5.81217 15.4 6.01566 15.3157 6.16569 15.1657C6.31571 15.0157 6.4 14.8122 6.4 14.6V11.4H9.6V14.6C9.6 14.8122 9.68429 15.0157 9.83432 15.1657C9.98434 15.3157 10.1878 15.4 10.4 15.4H12.8C13.0122 15.4 13.2157 15.3157 13.3657 15.1657C13.5157 15.0157 13.6 14.8122 13.6 14.6V9H15.2C15.4122 9 15.6157 8.91571 15.7657 8.76568C15.9157 8.61566 16 8.41217 16 8.2C15.9989 8.08106 15.9707 7.96392 15.9176 7.85748C15.8645 7.75103 15.7879 7.65806 15.6936 7.5856C12.9472 5.272 8 1 8 1Z" fill="#022213"/>
</svg>
