<svg
  width="98"
  height="98"
  viewBox="0 0 98 98"
  fill="none"
  xmlns="http://www.w3.org/2000/svg"
>
  <g clip-path="url(#clip0_12573_12678)">
    <path
      d="M97.9848 44.0799L97.973 43.6778L98 43.4027L97.9658 43.4323L97.9085 41.4818L97.8135 38.2489L97.8908 38.3763L97.8104 37.8847L97.8012 37.8274L97.8005 37.8015L97.7936 37.5704L97.7642 37.6012L96.9744 32.7674L97.1435 33.0461L96.8996 32.257L96.8813 32.1978L96.8432 31.9642L96.8187 31.9949L95.2586 26.9463L95.2654 26.9362L95.2369 26.876L95.1732 26.67L95.1534 26.6995L92.9371 22.0121L92.9433 22.0011L92.904 21.942L92.8202 21.7649L92.8087 21.7854L92.3208 20.9796L92.3204 20.9788L91.7379 20.0161L91.2636 19.2334L91.2743 19.233L91.1555 19.0544L91.1276 18.9953L91.1165 18.9957L88.4791 15.0302L88.2952 14.7538L88.3338 14.7494L88.1758 14.5743L88.1442 14.5268L88.134 14.5279L84.766 10.7924L84.8094 10.7841L84.6101 10.6196L84.5765 10.5822L84.5671 10.584L80.7154 7.40218L80.7634 7.38919L80.5383 7.25233L80.5219 7.24232L80.4874 7.21385L80.4866 7.21408L80.0141 6.82297L80.1216 6.99903L76.2107 4.62195L76.263 4.60345L75.9798 4.48164L75.588 4.2435L75.6465 4.33831L71.3262 2.48055L71.3823 2.45566L71.0931 2.37535L71.0604 2.36628L71.0271 2.35195L70.7377 2.22754L70.7746 2.28691L68.0435 1.52875L66.1358 0.999189L66.1942 0.967455L65.8392 0.91686L65.8074 0.907992L65.5637 0.840374L65.5894 0.881241L60.7177 0.186814L60.7763 0.14817L60.3977 0.141231L60.3666 0.136782L60.1577 0.107035L60.1769 0.137166L57.4535 0.0872225L55.1462 0.0448709L55.2021 0L54.8124 0.0387631L54.6022 0.0349074L54.6172 0.058158L49.496 0.567314L49.5452 0.518527L49.2247 0.587243L49.1633 0.600412L48.9772 0.618888L48.9895 0.637661L46.4719 1.17757L43.8426 1.74139L43.8807 1.6926L43.5953 1.7867L43.528 1.80886L43.497 1.81553L43.3638 1.84412L43.3741 1.8596L38.2555 3.54704L38.2795 3.50339L38.052 3.60553L37.9798 3.63791L37.8349 3.68569L37.8438 3.69901L36.3029 4.39115L32.8084 5.96068L32.8178 5.92794L32.6666 6.01495L32.591 6.05834L32.5484 6.07753L32.463 6.11596L32.4709 6.1275L27.5789 8.94386L27.5776 8.92414L27.5079 8.97398L27.4302 9.02948L27.3173 9.09448L27.3246 9.10496L22.6487 12.4474L22.6429 12.4383L22.5584 12.5119L22.4613 12.5814L22.4679 12.5908L20.6304 14.1928L18.1251 16.3768L18.1185 16.3675L18.0377 16.453L17.9543 16.5257L17.8965 16.5762L17.9135 16.5844L14.0101 20.7125L14.0026 20.7023L13.9225 20.8052L13.8524 20.8794L13.7372 21.0012L13.769 21.0024L10.3498 25.3981L10.3411 25.3863L10.2846 25.4756L10.2633 25.5094L10.2058 25.5832L10.0557 25.7764L10.1012 25.7659L7.18925 30.3746L7.1788 30.3607L7.12177 30.4747L7.10547 30.5071L6.90126 30.8303L6.9555 30.8069L4.5675 35.5796L4.55471 35.5628L4.48905 35.7364L4.3094 36.0955L4.36623 36.0611L2.80311 40.193L2.51786 40.9471L2.50172 40.9263L2.44785 41.1321L2.30621 41.5065L2.36082 41.4647L1.15657 46.0663L1.06728 46.4075L1.04612 46.3806L1.01576 46.5877L1.01022 46.6256L0.912666 46.9983L0.962314 46.9523L0.562261 49.6822L0.23858 51.891L0.209773 51.8548L0.200724 52.1492L0.193496 52.1987L0.148386 52.5065L0.191227 52.4595L0.0995832 55.4454L0.0419697 57.3226L0 57.2704L0.032474 57.6308L0.0222912 57.963L0.0582726 57.9168L0.482514 62.6224L0.416036 62.5403L0.505834 62.9496L0.516306 62.9974L0.543451 63.2983L0.572734 63.2544L1.55056 67.7104L1.42955 67.5607L1.65347 68.1794L1.71192 68.4458L1.73511 68.405L2.59362 70.777L3.20862 72.4763L2.9215 72.1253L3.409 73.0531L3.43594 73.1044L3.51935 73.3349L3.53734 73.2973L4.77868 75.6595L5.81836 77.638L5.81412 77.6487L5.85084 77.6997L5.95314 77.8944L5.9666 77.8606L7.03187 79.3408L8.8289 81.8379L8.82529 81.8492L8.87198 81.8977L8.98784 82.0587L8.99259 82.0438L9.16907 82.2583L9.5592 82.7327L9.84935 83.0859L10.2442 83.567L10.54 83.9266L10.7955 84.2375L10.7766 84.2417L10.9268 84.3979L10.9631 84.4483L10.9732 84.446L12.2678 85.7907L14.3725 87.9768L14.3371 87.9878L14.5205 88.1307L14.5592 88.1709L14.5684 88.168L18.4662 91.204L18.4288 91.2193L18.6442 91.3426L18.6839 91.3735L18.6843 91.3733L19.4369 91.96L19.185 91.6521L23.0428 93.8596L23.0043 93.8795L23.2475 93.9768L23.2883 94.0001L23.289 93.9997L23.7724 94.2771L23.6631 94.1429L28.0434 95.8935L28.0052 95.9182L28.271 95.9845L28.3116 96.0007L28.6706 96.1442L28.6099 96.0691L30.4013 96.516L33.4048 97.2654L33.3688 97.2943L33.6131 97.3221L33.648 97.3261L33.9716 97.4069L33.9329 97.3585L39.0502 97.9409L39.0181 97.9731L39.3003 97.9693L39.5698 98L39.543 97.9661L44.9005 97.8953L44.8749 97.9287L45.1456 97.892L45.1891 97.8915L45.375 97.889L45.3553 97.8636L49.746 97.269L50.8667 97.1172L50.8489 97.1497L51.0375 97.1011L51.0953 97.0863L51.2912 97.0597L51.2759 97.0398L56.8559 95.6039L56.8465 95.6324L57.0553 95.5526L57.2235 95.5093L57.2112 95.493L62.7681 93.3683L62.7663 93.3907L62.8604 93.3423L62.9308 93.3061L62.9919 93.2827L63.0741 93.2513L63.0639 93.2375L68.5017 90.4397L68.5052 90.4552L68.5493 90.4261L68.6245 90.3765L68.7466 90.3137L68.7379 90.3017L72.9676 87.511L73.951 86.8623L73.9573 86.8716L73.9601 86.8693L74.0398 86.8037L74.1386 86.7385L74.1422 86.7361L74.1346 86.7255L77.2845 84.1279L78.9953 82.7171L79.0024 82.7272L79.0282 82.7008L79.0844 82.6436L79.209 82.5408L79.1948 82.531L83.581 78.0553L83.5891 78.0672L83.6719 77.9625L83.8174 77.814L83.7944 77.8076L85.7816 75.2936L87.6342 72.95L87.6438 72.9645L87.6967 72.8804L87.7257 72.8342L87.8796 72.6396L87.8483 72.6392L91.0855 67.4874L91.0973 67.5054L91.1751 67.3447L91.3229 67.1094L91.2854 67.1168L92.8993 63.7823L93.8773 61.7616L93.8924 61.7851L93.9462 61.6319L93.9624 61.5859L94.0901 61.3219L94.0497 61.337L95.9678 55.8711L95.9881 55.903L96.0434 55.6559L96.1417 55.3757L96.1012 55.3975L97.3273 49.9185L97.356 49.9643L97.3816 49.704L97.3865 49.654L97.3969 49.6076L97.4499 49.3702L97.4117 49.3969L97.9406 44.0084L97.9848 44.0799ZM95.8925 55.3342L95.5042 54.7227L95.4728 54.6732L95.4678 54.6651L96.1333 51.6954L96.7412 48.9833L97.163 49.6564L95.8925 55.3342ZM73.9994 86.5356L73.5101 85.848L78.3779 81.8317L78.8619 82.5258L73.9994 86.5356ZM73.8174 86.6688L68.5995 90.1113L68.1065 89.432L73.3295 85.983L73.3358 85.9919L73.8174 86.6688ZM62.7071 93.135L57.0613 95.2937L56.567 94.6377L62.2179 92.4734L62.7071 93.135ZM27.9313 95.5909L23.3521 93.7608L22.9862 93.3111L27.5671 95.1402L27.9313 95.5909ZM22.8088 93.4531L18.7659 91.1396L18.5054 90.821L22.5472 93.1316L22.5522 93.1379L22.8088 93.4531ZM17.9621 90.5158L14.6597 87.9435L14.6521 87.9342L17.949 90.4997L17.9621 90.5158ZM14.2631 20.7786L18.1302 16.6887L18.4292 16.8326L19.7365 17.4619L17.4964 19.829L16.5464 20.8328L16.539 20.8268L16.5085 20.8661L14.2631 20.7786ZM27.5962 9.20695L32.4539 6.41026L31.7679 8.82776L31.7168 8.85058L31.7202 8.86055L28.2986 10.8253L27.7245 11.155L27.5962 9.20695ZM37.7516 4.00212L37.2971 4.83006L36.1909 6.84477L36.1344 6.86331L36.1364 6.87345L32.0277 8.7115L32.7233 6.26068L37.7516 4.00212ZM43.2266 2.16144L40.7325 5.3517L40.6752 5.36386L40.6758 5.37389L39.6837 5.69929L36.5008 6.74317L38.0857 3.85618L43.2266 2.16144ZM84.2706 10.6406L74.017 12.5977L73.9864 12.5631L73.9759 12.573L72.378 11.2284L70.9633 10.0379L80.4403 7.47652L84.2706 10.6406ZM97.4961 37.3058L97.4003 37.1497L97.2143 36.8466L96.3943 31.8166L96.6745 32.2764L97.4961 37.3058ZM97.7447 43.2661L97.3941 42.6994L97.3892 42.6915L97.3831 42.48L97.2322 37.3036L97.5865 37.8807L97.7447 43.2661ZM3.65719 73.0477L8.05009 63.8933L8.10662 63.9987L9.88487 67.3166L9.87136 67.327L9.90391 67.3713L5.9265 77.3662L3.65719 73.0477ZM60.4124 0.388314L65.4443 1.10549L58.8948 4.66798L58.8475 4.65455L58.8431 4.66469L55.5835 4.18386L54.8292 4.07255L60.4124 0.388314ZM44.2461 96.809L38.6903 96.8861L38.215 96.2855L43.7743 96.2046L43.7791 96.2107L43.871 96.3284L44.2461 96.809ZM6.06558 77.6118L10.0575 67.5803L12.355 70.705L12.3421 70.7172L12.3804 70.756L10.5649 76.421L8.91456 81.5706L6.06558 77.6118ZM93.1438 60.6242L90.471 66.1429L90.0169 65.4515L90.0115 65.443L92.6879 59.9188L92.703 59.9422L93.1438 60.6242ZM87.0338 71.6485L86.5633 70.9462L89.8855 65.6605L90.3515 66.37L87.0338 71.6485ZM73.1931 85.7913L67.9682 89.2415L67.4739 88.5599L67.721 88.3965L72.7038 85.103L72.8833 85.3554L73.1931 85.7913ZM27.26 94.7598L22.6753 92.9291L22.3078 92.4776L26.8926 94.3046L26.8975 94.3106L27.26 94.7598ZM73.8059 12.7335L73.7324 12.8027L66.2065 19.9039L63.9476 17.9574L70.7256 10.1414L73.8059 12.7335ZM17.2806 89.6841L13.9782 87.1144L13.9659 87.0994L17.2674 89.668L17.2797 89.683L17.2806 89.6841ZM20.0964 17.4327L23.6187 14.3651L27.897 20.5435L28.1343 20.8862L28.1337 20.8866L28.1404 20.8962L25.4864 23.1964L25.4797 23.1884L25.4754 23.1929L20.0964 17.4327ZM45.4825 4.60238L49.8382 4.18243L49.5113 5.94176L48.1577 13.2271L48.1214 13.226L48.123 13.2403L44.8962 13.5256L45.4825 4.60238ZM43.587 95.9643L38.0251 96.0452L37.5483 95.4419L38.4028 95.4287L43.0751 95.3566L43.0774 95.3676L43.1176 95.3621L43.213 95.4846L43.587 95.9643ZM18.0777 61.3025L19.7893 63.5792L19.7542 63.5866L19.8258 63.6577L16.9473 66.373L12.5206 70.5487L10.1887 67.377L18.0777 61.3025ZM28.452 20.9483L31.294 18.9348L35.8083 26.7222L38.1103 30.6933L38.0997 30.6992L38.1072 30.71L36.2105 32.0383L28.452 20.9483ZM31.9938 8.98819L36.182 7.11445L37.7501 15.3836L37.73 15.39L37.7343 15.4015L35.5337 16.3725L34.5972 16.7857L31.9938 8.98819ZM38.0238 15.5483L41.2354 14.5169L44.9694 27.6984L44.9143 27.7091L44.9257 27.7256L42.8232 28.3772L38.0238 15.5483ZM41.4468 14.4625L44.6962 13.7983L46.3592 22.2073L47.3513 27.2244L47.2751 27.2302L47.2891 27.2505L45.1845 27.6569L41.4468 14.4625ZM94.7113 53.476L94.2881 52.8095L94.3052 52.7607L94.2934 52.7551L95.5634 47.1037L95.9887 47.7822L94.7113 53.476ZM89.7503 65.4547L86.4268 70.7422L85.9551 70.0372L89.2822 64.7434L89.7503 65.4547ZM49.5591 95.1734L43.8663 95.954L43.377 95.3264L45.9965 94.9652L49.042 94.5454L49.045 94.5561L49.0783 94.5474L49.5591 95.1734ZM44.9116 13.7679L48.1511 13.4815L48.7436 18.5771L49.7282 27.0443L47.5695 27.2079L44.9116 13.7679ZM65.1215 22.8074L61.9781 31.6951L60.518 30.4051L63.8431 18.1734L66.079 20.1001L65.1215 22.8074ZM96.3316 35.4081L96.0507 34.9502L96.049 34.8875L96.0366 34.885L95.4977 31.5695L95.2265 29.9004L95.5118 30.3682L96.3316 35.4081ZM89.5477 64.7384L89.4135 64.5344L89.4342 64.5015L89.4237 64.494L92.0903 58.9929L92.5473 59.7009L89.8697 65.2276L89.5477 64.7384ZM82.3781 75.8944L81.8972 75.1907L84.215 72.2562L85.8145 70.2312L86.2901 70.942L82.3781 75.8944ZM82.2257 76.0702L77.7921 80.5983L77.3047 79.8983L78.9136 78.2545L81.7428 75.3638L82.0417 75.8009L82.2257 76.0702ZM25.6351 23.3744L28.274 21.0871L33.563 28.6471L36.0259 32.1675L36.0252 32.168L36.0322 32.1777L34.2623 33.6978L25.6351 23.3744ZM54.8508 14.085L54.32 27.506L52.2786 27.1552L51.7693 13.5993L54.8508 14.085ZM57.609 28.9344L58.4953 29.3503L58.7761 29.7704L58.7745 29.7693L58.8574 29.8931L57.2545 29.1396L56.8897 28.597L57.609 28.9344ZM55.147 92.7102L50.1075 79.2763L54.6504 77.4809L60.817 90.5312L55.147 92.7102ZM16.6021 88.855L16.56 88.8223L16.5888 88.8387L16.5955 88.8469L16.6021 88.855ZM18.31 61.2351L29.2864 59.8275L30.4403 61.3295L27.8796 61.8704L20.0334 63.5275L18.31 61.2351ZM27.174 54.1061L27.5018 54.5423L27.8927 56.147L27.5648 55.7112L27.174 54.1061ZM27.1577 46.6698L27.6735 44.6174L28.1607 45.2783L27.6468 47.3279L27.5622 47.2141L27.1577 46.6698ZM29.6007 40.0508L30.1046 40.7419L29.1142 42.7396L28.827 42.3487L28.6085 42.0514L28.7909 41.6837L29.6007 40.0508ZM92.0208 58.5957L79.8888 51.4977L81.5135 46.9307L94.0267 52.8919L92.0208 58.5957ZM27.366 53.9852L27.0437 53.5561L26.8443 51.7437L27.2471 52.2824L27.4475 54.0937L27.3762 53.9987L27.3659 53.9849L27.366 53.9852ZM40.6054 29.9005L40.9402 30.3793L38.9381 31.4976L38.4346 30.7834L40.4394 29.663L40.6054 29.9005ZM44.2789 29.2899L45.7016 28.8499L46.1894 29.5564L44.0698 30.2098L43.5812 29.5056L44.2789 29.2899ZM56.4985 28.4179L56.9072 29.026L55.1111 28.4651L54.7022 27.8596L56.4985 28.4179ZM61.2254 31.3391L61.9471 31.9768L62.0639 32.1521L61.0906 31.2909L60.9751 31.118L61.2254 31.3391ZM95.8095 34.8395L83.0773 32.2908L82.4178 27.9885L94.9374 29.4735L95.8095 34.8395ZM89.2403 64.3645L77.6311 56.1621L79.7962 51.7173L91.9297 58.8163L89.2403 64.3645ZM31.1706 80.8036L34.0774 71.2981L37.3126 71.5839L36.1262 77.969L35.5202 81.2299L31.1706 80.8036ZM52.7809 28.3559L53.1989 28.9722L51.1599 28.879L50.7041 28.2105L52.7447 28.3026L52.7809 28.3559ZM82.2017 28.0092L82.4662 29.7348L82.8596 32.301L72.9326 34.689L72.8962 34.6978L72.4356 31.5284L82.2017 28.0092ZM54.5623 77.2583L50.0433 79.0441L48.3004 69.8562L51.6422 68.5137L54.2565 76.3425L54.5623 77.2583ZM27.7664 47.8678L28.2358 48.4998L27.9675 50.5143L27.4972 49.884L27.7664 47.8678ZM45.3441 30.0689L46.3328 29.7641L46.8186 30.469L44.7013 31.12L44.2139 30.4173L45.3441 30.0689ZM62.5657 32.9054L62.6789 33.0752L61.7081 32.2155L61.5953 32.0466L62.5657 32.9054ZM61.5426 61.815L64.1423 59.1337L71.251 64.8086L67.7232 68.4339L61.5426 61.815ZM45.0394 66.6699L47.1883 66.3238L45.7183 68.7166L44.5228 70.6625L41.2772 71.1744L45.0394 66.6699ZM47.4835 66.2708L49.6541 65.6607L48.0972 69.6739L44.8357 70.5805L47.4835 66.2708ZM54.4381 63.4693L54.996 66.4712L53.6554 67.1857L51.8431 68.1516L52.318 64.6038L54.4381 63.4693ZM52.0858 64.705L51.6087 68.2692L50.0358 68.901L48.3739 69.5686L49.9214 65.5796L52.0858 64.705ZM35.9036 65.3457L37.733 66.007L34.0309 68.2733L30.7041 70.3097L27.9317 69.2857L35.9036 65.3457ZM31.0292 70.3873L38.0239 66.1057L39.9678 66.5239L33.9793 71.0407L31.3507 70.4585L31.0292 70.3873ZM34.3206 71.0759L40.2756 66.5843L42.31 66.753L40.0127 68.9067L37.4081 71.3485L35.5293 71.1826L34.3206 71.0759ZM72.3063 49.5057L70.4846 49.0348L71.6835 45.6923L81.3009 46.8737L79.6861 51.4129L72.3063 49.5057ZM67.5542 68.5885L63.6764 71.8226L58.5167 64.3709L61.376 61.9721L62.6676 63.3554L67.5542 68.5885ZM56.8463 61.8409L58.7316 60.257L61.1872 61.8271L58.3859 64.1774L56.8463 61.8409ZM60.602 58.3374L63.9023 59.0515L61.3694 61.664L58.9059 60.0888L60.602 58.3374ZM68.5752 52.4743L67.6954 52.7059L63.8107 53.7289L64.8129 51.6831L70.0987 49.3567L69.1105 51.3788L68.5752 52.4743ZM65.6836 49.2783L71.4019 45.8274L70.8714 47.3066L70.2542 49.0272L67.7609 50.1247L64.9313 51.3701L65.6836 49.2783ZM66.2652 46.8415L72.2803 42.2406L71.5213 45.4795L65.7664 48.9525L66.2652 46.8415ZM63.6635 54.0172L68.3938 52.7715L66.5093 55.7648L62.4199 55.9942L63.6635 54.0172ZM62.2541 56.2468L66.3163 56.0189L64.0935 58.8455L60.7754 58.1275L62.2541 56.2468ZM75.6328 45.9331L71.7502 45.4562L72.5417 42.0786L82.4281 42.053L81.3728 46.6382L75.6328 45.9331ZM72.3572 41.8879L66.3088 46.5142L66.549 44.4065L72.7157 38.6556L72.5968 39.7281L72.3572 41.8879ZM72.7478 38.3099L70.4616 40.4421L66.5528 44.0874L66.5325 42.014L72.7038 35.1305L72.721 36.3755L72.7478 38.3099ZM71.4062 64.6346L64.2942 58.9571L66.5922 56.0348L74.5225 60.6784L74.3678 60.8748L71.4062 64.6346ZM74.6613 60.4858L66.727 55.8398L68.6872 52.7261L77.3176 56.2637L76.6955 57.2525L74.6613 60.4858ZM77.4373 56.0542L68.802 52.5146L70.3924 49.2602L79.5888 51.6371L78.5299 53.811L77.4373 56.0542ZM82.9689 37.0041L76.5889 37.7864L72.9629 38.231L72.9173 34.9411L82.8786 32.5449L82.9572 36.426L82.9689 37.0041ZM72.6922 34.8011L66.4978 41.7104L66.2157 39.699L72.2449 31.7234L72.6922 34.8011ZM65.9957 39.6907L66.3159 41.9741L66.3351 43.9274L66.3391 44.3363L66.1498 45.9971L66.0648 46.743L65.8536 47.6369L65.4953 49.1534L64.6821 51.4149L64.6393 51.534L63.507 53.8452L62.9163 54.7842L62.1186 56.0524L61.6975 56.5879L60.4914 58.1217L59.0398 59.6207L58.6547 60.0183L56.635 61.715L54.8284 62.9395L54.4642 63.1863L54.2531 63.2993L52.1777 64.4097L50.8161 64.9599L49.8099 65.3665L48.1596 65.8303L47.3969 66.0447L44.9768 66.4345L42.586 66.5322L40.2611 66.3395L38.0327 65.8602L37.0876 65.5185L35.9373 65.1026L34.0037 64.0828L32.2554 62.8157L31.0606 61.6537L30.3372 60.3687L30.1583 59.9142L29.5424 58.3488L29.108 56.5725L29.0189 56.2081L28.7703 53.9767L28.7922 52.3694L28.8016 51.6865L29.1082 49.3686L29.687 47.0557L30.0119 46.1785L30.5304 44.7789L31.6242 42.5709L32.9548 40.4613L34.5042 38.4796L36.2488 36.6535L37.6425 35.4588L38.1687 35.0078L39.3199 34.204L40.2353 33.5648L42.4207 32.3482L44.6936 31.3744L47.0267 30.657L48.1515 30.4422L49.3816 30.2073L51.7309 30.0352L54.0358 30.1447L54.525 30.2298L56.2672 30.5328L57.2738 30.8491L58.3885 31.1994L59.6516 31.7942L60.3728 32.1339L62.1853 33.3249L63.802 34.7564L64.5843 35.6846L65.3866 37.518L65.9957 39.6907ZM34.8844 34.9412L35.0527 35.1767L35.3917 35.6511L33.7933 37.3241L33.2842 36.6165L34.8844 34.9412ZM43.9929 30.4939L44.2803 30.9082L44.4852 31.2037L42.4129 32.0916L41.9189 31.3852L43.9477 30.5133L43.9929 30.4939ZM40.0223 33.4275L38.1321 34.7472L37.6284 34.0387L39.5214 32.7169L39.8692 33.2103L40.0223 33.4275ZM37.9541 34.8862L36.1978 36.3917L35.6924 35.6841L37.4496 34.1763L37.9541 34.8862ZM36.8088 33.2728L37.3147 33.9864L35.5571 35.4946L35.0493 34.7843L36.8088 33.2728ZM34.4374 38.2175L33.9296 37.5135L34.2215 37.2079L35.5273 35.8411L36.0324 36.5482L34.4374 38.2175ZM40.2127 33.3064L39.7138 32.5986L39.8535 32.5207L41.7127 31.4834L42.21 32.1945L40.2127 33.3064ZM39.5766 32.404L39.0753 31.6923L41.0767 30.5744L41.5762 31.2883L39.5766 32.404ZM33.7788 37.6901L34.2849 38.3919L32.8732 40.1977L32.366 39.4982L33.3832 38.1963L33.7788 37.6901ZM32.7342 40.3908L31.5264 42.3059L31.0207 41.6128L32.2305 39.6957L32.4205 39.9578L32.7342 40.3908ZM30.3081 44.7469L29.5538 46.7831L29.3171 46.4628L29.0584 46.1127L29.8136 44.0746L30.3081 44.7469ZM28.8884 49.3788L28.6221 51.3915L28.3933 51.0849L28.1529 50.7628L28.3718 49.1203L28.4212 48.7494L28.8884 49.3788ZM28.5849 51.7199L28.5586 53.6561L28.1161 53.0658L28.1425 51.1269L28.5849 51.7199ZM28.7602 55.8406L28.36 55.3084L28.3533 55.2472L28.1597 53.5011L28.559 54.0336L28.7602 55.8406ZM29.2063 57.8911L28.8824 57.461L28.4909 55.8589L28.8146 56.2895L29.2063 57.8911ZM29.3478 58.455L29.841 59.7081L29.6773 59.4915L29.3946 58.7718L29.1857 58.2397L29.3478 58.455ZM56.0055 29.7258L57.7414 30.2685L58.0441 30.7196L58.1455 30.8708L56.3541 30.3078L55.9491 29.7081L56.0055 29.7258ZM58.493 30.9851L58.1327 30.4481L59.7349 31.2022L60.0946 31.7394L58.493 30.9851ZM60.4942 31.9323L60.2127 31.5119L61.5568 32.3936L61.8384 32.8156L60.4942 31.9323ZM63.2931 33.9964L62.3244 33.1387L62.2128 32.9717L63.1819 33.83L63.2931 33.9964ZM60.9394 31.4691L61.2225 31.893L59.8767 31.0101L59.5931 30.5869L60.9394 31.4691ZM53.8211 29.8913L51.7842 29.7946L51.331 29.1301L53.3691 29.2233L53.8211 29.8913ZM54.106 29.911L53.6724 29.2703L54.8838 29.4809L55.6095 29.6071L56.0422 30.2477L54.106 29.911ZM51.0543 29.1236L51.1415 29.2514L51.5205 29.8072L49.4196 29.961L48.9526 29.2786L49.9076 29.2082L51.0543 29.1236ZM48.6975 29.3043L48.8078 29.4655L49.1739 30.0004L47.0489 30.4064L46.5698 29.7112L47.5044 29.5325L48.6975 29.3043ZM30.9019 41.8332L31.4024 42.5193L30.4154 44.5116L29.9131 43.8285L30.6785 42.284L30.9019 41.8332ZM28.9818 46.3894L29.4655 47.0439L28.9539 49.0879L28.4694 48.4352L28.5742 48.0167L28.9818 46.3894ZM27.5027 52.6239L27.9041 53.16L28.1045 54.9683L27.703 54.4337L27.5027 52.6239ZM57.5272 29.9493L55.7333 29.3884L55.3263 28.7845L57.1216 29.3451L57.5272 29.9493ZM54.9874 28.6838L55.198 28.9964L55.3897 29.281L55.3892 29.2808L55.4214 29.3284L53.4838 28.9916L53.0481 28.3492L54.3963 28.5818L54.9874 28.6838ZM50.4275 28.2043L50.8787 28.8662L50.8962 28.8918L48.7939 29.0468L48.3237 28.3616L50.4275 28.2043ZM38.883 31.8107L39.1588 32.2022L39.3863 32.5252L37.4926 33.8474L36.9875 33.1351L37.1598 33.0147L38.883 31.8107ZM33.1333 36.7932L33.3574 37.1046L33.6408 37.4986L32.2276 39.3071L31.7183 38.605L33.1333 36.7932ZM27.9302 50.8424L27.9038 52.7822L27.4591 52.1882L27.477 50.918L27.4865 50.2479L27.9302 50.8424ZM28.1588 55.4172L28.5506 57.0207L28.428 56.858L28.3834 56.7984L28.3836 56.7991L28.2242 56.5875L27.8335 54.9842L28.1588 55.4172ZM25.0722 67.7915L33.945 64.3201L35.6364 65.2123L30.3151 67.8422L27.6319 69.1684L26.9465 68.7998L25.0722 67.7915ZM27.6764 69.447L30.5637 70.5136L29.37 73.2937L26.6003 79.7438L22.7327 78.2669L27.6764 69.447ZM37.7542 71.3405L42.6253 66.7738L44.7278 66.6878L42.4539 69.4105L40.9403 71.2228L39.5388 71.2746L37.7542 71.3405ZM55.1939 66.3478L54.6373 63.3528L56.667 61.9771L57.9581 63.9362L58.206 64.3124L57.3694 64.8778L55.1939 66.3478ZM82.4718 41.81L72.5808 41.8356L72.9534 38.4766L82.9557 37.2502L82.5457 41.1141L82.4718 41.81ZM72.1926 31.4176L67.9652 37.0096L66.1456 39.4166L65.6067 37.4944L71.3486 28.4865L72.1926 31.4176ZM60.3198 30.5419L60.374 30.623L60.6051 30.9689L59.257 30.0855L58.9718 29.6587L60.3198 30.5419ZM59.3352 30.6059L59.4769 30.8173L57.8744 30.0631L57.5128 29.5244L59.1151 30.2775L59.3352 30.6059ZM48.5481 29.0864L46.4197 29.4935L45.9387 28.7969L48.0686 28.3876L48.5481 29.0864ZM43.8442 30.2794L43.8539 30.2936L41.7791 31.1852L41.2829 30.4762L43.3604 29.5824L43.8085 30.228L43.8442 30.2794ZM30.252 40.9437L30.7546 41.6313L29.7655 43.6274L29.4029 43.1329L29.2619 42.9407L29.8625 41.7295L30.252 40.9437ZM29.1623 43.1869L29.6581 43.8629L28.9025 45.9018L28.5686 45.4501L28.405 45.2287L28.7847 44.2048L29.1623 43.1869ZM28.3283 45.5051L28.8141 46.1625L28.3015 48.2091L27.8147 47.5537L27.8205 47.5308L28.3283 45.5051ZM27.247 51.9047L26.8009 51.3082L26.8283 49.3662L27.2744 49.9636L27.247 51.9047ZM28.5264 57.3643L28.6919 57.5841L29.1854 58.8407L29.0192 58.6208L28.8184 58.1089L28.5264 57.3643ZM30.7757 70.5789L33.8598 71.2619L30.9527 80.7691L30.9523 80.7704L26.8137 79.8061L30.7757 70.5789ZM40.4572 81.0878L41.0898 71.4493L44.4844 70.9139L45.0352 80.4022L42.7308 80.7473L40.4572 81.0878ZM45.2492 80.3558L44.6984 70.8689L48.0926 69.9256L49.8356 79.1141L45.2492 80.3558ZM51.8421 68.421L55.0743 66.6984L55.787 68.1289L59.141 74.8608L54.7623 77.1659L51.8421 68.421ZM63.8097 72.014L67.7088 68.762L68.4329 69.6279L76.9954 79.8675L72.1221 83.8946L63.8097 72.014ZM81.7483 75.0134L71.5749 64.7868L74.7099 60.8069L81.5084 66.5487L85.6627 70.0574L81.7483 75.0134ZM74.844 60.6163L77.5166 56.3681L89.1261 64.5708L85.7974 69.8672L74.844 60.6163ZM52.4223 27.4257L54.363 27.7593L54.7995 28.4056L52.8594 28.0709L52.4223 27.4257ZM36.167 32.3678L36.6741 33.0828L34.9139 34.5948L34.404 33.8819L35.0025 33.3679L36.167 32.3678ZM34.239 34.039L34.3729 34.2262L34.7485 34.7514L33.1479 36.427L32.6375 35.7179L34.239 34.039ZM32.9954 36.6016L31.5799 38.414L31.0684 37.7091L32.4868 35.8946L32.9954 36.6016ZM31.5829 38.8025L32.0888 39.5002L30.8785 41.4181L30.3708 40.7235L30.9768 39.763L31.5829 38.8025ZM30.6137 61.5403L31.9654 62.855L22.2598 65.7485L20.2288 63.7335L30.6137 61.5403ZM22.493 65.9304L32.1723 63.0447L33.7062 64.1563L29.9185 65.6382L24.8036 67.6393L23.4062 66.6058L22.493 65.9304ZM24.8199 67.9253L27.4738 69.3527L23.9958 75.5578L22.5287 78.1751L18.9826 76.2152L24.8199 67.9253ZM18.894 76.4369L22.4128 78.3818L22.4039 78.3978L22.4511 78.4158L21.1655 91.1775L16.7767 88.6735L18.894 76.4369ZM21.3724 91.2826L22.6605 78.4958L26.5057 79.9643L26.4986 79.9807L26.5453 79.9916L26.259 90.1764L26.1742 93.1922L21.3724 91.2826ZM35.7401 81.235L37.5319 71.5918L40.8719 71.4685L40.2391 81.1092L38.7169 81.1518L35.7401 81.235ZM59.3321 74.7471L55.2648 66.5834L58.3373 64.5072L63.4956 71.957L61.6822 73.1722L59.3321 74.7471ZM77.1636 79.714L67.8755 68.6067L71.4235 64.9605L81.5956 75.1859L77.1636 79.714ZM94.0921 52.6592L89.945 50.6836L81.5821 46.6995L82.6433 42.0879L95.3869 46.8969L94.0921 52.6592ZM95.4236 46.6544L89.1239 44.2771L82.6854 41.8474L83.1719 37.2647L95.9913 40.9306L95.4236 46.6544ZM95.9965 40.6813L92.4389 39.664L83.1853 37.0178L83.0947 32.541L95.8385 35.0922L95.9965 40.6813ZM94.8714 29.2213L86.386 28.2149L82.3796 27.7397L82.3724 27.6925L82.3556 27.6985L81.1599 23.6788L93.3123 24.1646L94.8714 29.2213ZM50.2522 27.947L50.2695 27.9726L48.1648 28.13L47.6932 27.4421L49.7997 27.2824L49.8886 27.413L50.2522 27.947ZM42.7245 28.6682L42.8227 28.8094L43.2212 29.3821L41.1431 30.2762L40.6455 29.5647L42.0149 28.9742L42.7245 28.6682ZM28.5089 42.2973L29.0068 42.9749L28.2492 45.0176L27.7502 44.341L28.5089 42.2973ZM27.8673 56.4893L28.0337 56.7104L28.5266 57.9674L28.4956 57.9262L28.3598 57.7459L28.3354 57.6839L27.8673 56.4893ZM26.76 80.0417L27.9612 80.3216L30.8814 81.0021L30.8764 81.0186L30.9204 81.0229L30.9885 82.5092L31.5397 94.5398L26.3883 93.2653L26.76 80.0417ZM43.2449 95.0998L40.4711 81.3308L45.0493 80.6452L45.0501 80.6595L45.0773 80.6521L48.9747 94.3098L43.2449 95.0998ZM80.9427 23.7151L82.1499 27.7727L72.3836 31.2919L71.5185 28.2879L80.9427 23.7151ZM71.2595 28.2091L65.5046 37.2373L64.7156 35.4345L70.034 25.4713L70.4547 26.4111L71.2595 28.2091ZM52.1192 27.3793L52.3605 27.7355L52.5517 28.0178L52.5746 28.0518L50.5331 27.9596L50.076 27.2884L51.5815 27.3554L52.1192 27.3793ZM46.2699 27.6938L47.4383 27.4683L47.9053 28.1494L47.9191 28.1697L45.7884 28.5792L45.3058 27.88L46.2699 27.6938ZM45.069 27.9332L45.5467 28.6256L45.5583 28.6423L43.4372 29.2982L42.9453 28.5913L43.9478 28.2807L45.069 27.9332ZM38.2423 30.9018L38.7479 31.6189L36.8519 32.9438L36.3456 32.2299L37.3796 31.5058L38.2423 30.9018ZM30.9329 37.9066L31.4411 38.6072L30.2286 40.5287L29.8116 39.9567L29.7195 39.8304L30.7507 38.1953L30.9329 37.9066ZM27.1093 46.9835L27.5812 47.6184L27.3117 49.6357L26.8389 49.0026L26.951 48.1653L27.1093 46.9835ZM28.2094 57.9353L29.1473 59.6007L18.1531 61.0107L16.7602 58.4764L28.2094 57.9353ZM22.2468 66.0392L24.6308 67.8023L21.5676 72.1526L18.7922 76.0941L15.6148 73.6859L22.2468 66.0392ZM16.5355 88.795L16.5343 88.8022L13.2944 86.2815L13.2815 86.2658L14.1117 86.9111L16.5355 88.795ZM17.4051 89.4776L17.1395 89.1529L17.5822 89.4054L21.1396 91.4352L21.1384 91.4473L21.1938 91.4693L21.4546 91.7895L17.4051 89.4776ZM23.0291 92.1992L26.1671 93.4472L26.1667 93.4591L26.2206 93.4724L26.5857 93.9245L21.9972 92.0961L21.6272 91.6417L23.0291 92.1992ZM31.758 94.5822L31.1378 81.0442L35.4757 81.4694L35.4727 81.4855L35.5125 81.4844L36.5828 90.2534L37.185 95.188L31.758 94.5822ZM37.4047 95.2012L35.7299 81.4783L40.2231 81.3528L40.2221 81.3681L40.2561 81.363L43.0262 95.1142L37.4047 95.2012ZM45.2881 80.5951L49.8807 79.3518L49.8831 79.3649L49.9031 79.357L50.765 81.6545L54.9371 92.7759L49.19 94.269L45.2881 80.5951ZM66.7098 87.4884L59.4441 74.955L63.6298 72.1499L69.0124 79.8431L71.9405 84.028L66.7098 87.4884ZM72.7494 84.778L72.2565 84.085L77.1373 80.052L77.625 80.7524L72.7494 84.778ZM92.2049 58.7565L92.2249 58.7151L92.2136 58.7085L94.1934 53.0787L94.6369 53.777L92.6467 59.4411L92.2049 58.7565ZM96.2209 40.8068L96.2268 40.7471L96.2145 40.7436L96.0634 35.399L96.4215 35.9829L96.5765 41.3811L96.2209 40.8068ZM60.3296 30.267L58.6864 29.1904L61.149 16.4341L63.6566 18.0283L60.3296 30.267ZM56.4716 28.1575L54.5344 27.5552L55.0652 14.1358L57.9984 15.0028L56.4716 28.1575ZM40.4695 22.7126L42.613 28.4423L42.5754 28.454L42.5852 28.4681L40.5206 29.3583L34.6869 17.0072L37.8181 15.6256L40.4695 22.7126ZM33.1504 32.7221L34.0974 33.8553L32.4887 35.5417L23.0685 26.0598L25.47 23.5314L33.1504 32.7221ZM32.3383 35.7165L30.9118 37.5413L20.7866 28.9693L22.9178 26.2342L32.3383 35.7165ZM27.4954 44.4318L26.9898 46.444L26.9671 46.4134L26.9505 46.537L26.2372 46.267L15.046 42.0312L15.8583 38.867L27.4954 44.4318ZM26.6154 49.1328L26.5887 51.0245L26.5402 50.9596L26.567 51.2035L14.4704 48.8037L14.5393 45.6802L26.6154 49.1328ZM26.5948 51.4557L26.7888 53.2183L26.7068 53.1077L26.7945 53.4681L21.2322 52.8298L14.7908 52.0907L14.4838 49.0531L26.5948 51.4557ZM27.3956 55.8883L28.1045 57.6971L16.6412 58.2388L15.5988 55.4968L27.3956 55.8883ZM15.5111 73.9004L18.6577 76.2852L18.647 76.3003L18.6929 76.3257L16.5805 88.5347L12.6616 85.4887L15.5111 73.9004ZM30.4376 94.5159L31.5513 94.7915L31.5518 94.8033L31.6025 94.809L32.0218 95.3335L27.0112 94.09L26.5854 93.5628L30.4376 94.5159ZM58.5037 91.677L60.9197 90.7485L60.9243 90.7583L60.9418 90.7492L61.0341 90.8739L61.4304 91.4091L55.7703 93.5806L55.2715 92.9192L58.5037 91.677ZM61.0195 90.4418L54.851 77.3876L59.2529 75.0702L60.9343 77.9706L66.5167 87.6004L61.0195 90.4418ZM96.0297 47.426L95.7656 47.0047L95.6331 46.7932L95.6454 46.7382L95.6332 46.7336L96.1846 41.1734L96.5845 41.819L96.0297 47.426ZM95.1314 29.315L95.121 29.2509L95.1088 29.2494L93.7573 24.8659L93.8775 25.064L95.2485 29.5068L95.1314 29.315ZM93.207 23.9173L81.0867 23.4327L81.0731 23.3872L81.0576 23.3947L79.3466 19.6756L90.9999 19.2432L93.207 23.9173ZM80.8587 23.4912L77.2601 25.2374L71.4362 28.0632L70.1856 25.2696L79.1269 19.7272L80.8587 23.4912ZM69.9132 25.2255L64.5858 35.2054L63.5576 33.5492L68.3234 22.722L68.4042 22.8493L69.9132 25.2255ZM68.1758 22.5095L63.4041 33.3498L62.151 31.8638L66.2483 20.2787L66.4598 20.5234L68.1758 22.5095ZM58.4859 29.0827L56.6805 28.2354L58.2069 15.0837L60.9495 16.3216L58.4859 29.0827ZM51.5522 13.577L51.7892 19.889L52.0614 27.1336L49.9455 27.0394L48.3685 13.4768L49.0499 13.4982L51.5522 13.577ZM34.4889 17.106L40.3173 29.446L40.2946 29.4558L40.303 29.4679L38.3051 30.5843L31.4828 18.8155L34.4889 17.106ZM20.6523 29.1599L24.7559 32.634L30.7779 37.7321L29.5775 39.6356L29.5666 39.6206L29.5448 39.6645L18.8199 32.0625L20.6523 29.1599ZM29.4394 39.8771L28.4607 41.8504L28.4474 41.8323L28.4238 41.8958L17.1928 35.3002L18.7044 32.2678L29.4394 39.8771ZM15.0003 42.2702L26.9179 46.7811L26.6536 48.7545L26.6214 48.7113L26.619 48.8831L14.5568 45.4345L15.0003 42.2702ZM14.8374 52.3403L26.8558 53.7193L27.234 55.2727L27.0666 55.0491L27.299 55.6421L24.2021 55.5393L15.517 55.251L14.8374 52.3403ZM12.6712 70.7238L19.9897 63.8203L22.0086 65.8234L21.9704 65.8348L22.0629 65.9032L20.874 67.2739L15.4421 73.5367L12.6712 70.7238ZM32.3794 95.4173L31.9216 94.8446L34.1742 95.096L37.2152 95.4355L37.2166 95.447L37.2627 95.4463L37.7126 96.0157L32.3794 95.4173ZM49.8126 95.1317L49.3163 94.4856L50.1077 94.28L55.0224 93.0032L55.0263 93.0134L55.0519 93.0036L55.1191 93.0927L55.5383 93.6488L49.8126 95.1317ZM67.3356 88.3693L66.8389 87.6849L68.0628 86.8752L72.0753 84.2207L72.0816 84.2296L72.0822 84.2291L72.5675 84.9112L67.3356 88.3693ZM58.7442 4.89516L54.9045 13.8371L54.8612 13.8242L54.8605 13.8411L51.8007 13.3589L54.5765 4.28027L58.7442 4.89516ZM22.7484 26.083L20.6135 28.8227L20.6049 28.8154L20.5951 28.831L13.727 24.8102L16.573 21.1521L22.7484 26.083ZM28.3402 42.1209L27.5944 44.1297L27.5772 44.1064L27.5547 44.1961L16.3015 38.8149L15.9297 38.6371L17.0982 35.5188L28.3402 42.1209ZM17.8248 89.9897L21.8692 92.2988L22.1323 92.6219L18.0867 90.3092L17.8248 89.9897ZM61.644 91.3179L61.1452 90.6442L63.247 89.5578L66.636 87.8062L66.6414 87.8156L66.6505 87.8096L67.0953 88.4225L67.1385 88.482L61.644 91.3179ZM72.8845 84.9679L77.7582 80.9438L77.7653 80.9539L78.2445 81.6404L73.3751 85.6581L72.8845 84.9679ZM82.5184 76.0997L82.5122 76.0905L84.7146 73.3024L86.4226 71.1402L86.4323 71.1546L86.5681 71.3572L86.8969 71.8482L82.9909 76.7915L82.5184 76.0997ZM97.0665 42.1713L96.8033 41.7471L96.6484 36.3524L97.0052 36.9338L97.1623 42.3257L97.0665 42.1713ZM96.9151 36.3591L96.8684 36.2831L96.6307 35.8957L96.1298 32.8169L95.8115 30.8601L96.0943 31.3243L96.9151 36.3591ZM95.7113 30.2658L95.1174 28.3409L94.3424 25.8289L94.46 26.0226L95.83 30.4604L95.7113 30.2658ZM79.0123 19.5208L78.767 19.6729L70.0744 25.061L68.4585 22.5167L76.7899 16.1035L78.8008 19.1955L79.0123 19.5208ZM76.6472 15.9189L69.7611 21.2196L68.3205 22.3284L66.3681 20.0685L73.9731 12.8929L76.6472 15.9189ZM70.538 10.0097L63.766 17.8187L61.2375 16.2113L67.1019 7.88235L70.538 10.0097ZM62.947 6.06908L58.0745 14.762L58.0288 14.7414L58.0266 14.76L55.1176 13.9L58.9655 4.93858L62.947 6.06908ZM54.3527 4.26509L51.5826 13.3245L51.5425 13.3182L51.543 13.3336L48.3772 13.2341L50.0612 4.17078L54.3527 4.26509ZM13.5887 25.003L20.4687 29.0311L18.661 31.8945L18.6368 31.9328L18.6271 31.9259L18.6165 31.9473L11.791 29.1503L11.1368 28.8822L13.5887 25.003ZM7.23785 37.7737L15.6489 38.8066L15.2035 40.5416L14.8409 41.9537L14.8267 41.9483L14.8211 41.988L6.13543 42.011L7.23785 37.7737ZM14.2662 49.052L14.5707 52.0654L14.5492 52.063L14.5628 52.1211L5.7211 55.3067L5.33411 51.2001L14.2662 49.052ZM5.75727 55.5489L14.6177 52.3564L15.0303 54.1234L15.2918 55.2435L15.2673 55.2427L15.2914 55.3062L6.64604 59.5001L5.75727 55.5489ZM6.71312 59.7322L15.3763 55.5296L16.4103 58.2497L16.3823 58.251L16.4196 58.3189L13.5438 60.1014L8.09834 63.4763L6.71312 59.7322ZM8.19544 63.6936L16.5333 58.5259L17.9157 61.0412L17.8843 61.0452L17.9375 61.1159L10.0635 67.1791L8.19544 63.6936ZM12.5537 70.932L13.3842 71.775L15.2912 73.7107L15.2792 73.7246L15.3221 73.7571L12.48 85.315L9.07714 81.7802L12.5537 70.932ZM33.0493 96.2544L32.5942 95.6857L33.8885 95.8309L37.9242 96.2836L37.929 96.2896L38.3277 96.7935L38.3774 96.8563L33.0493 96.2544ZM44.0388 96.1751L49.7291 95.3949L50.2116 96.0245L44.5257 96.7988L44.0388 96.1751ZM56.417 94.4385L55.9204 93.7798L61.5785 91.6091L62.0699 92.2734L56.417 94.4385ZM78.4117 81.4865L77.9258 80.79L82.3579 76.2636L82.8386 76.9673L78.4117 81.4865ZM93.2431 60.3645L92.8374 59.7365L92.7971 59.6743L94.7865 54.0123L95.2286 54.707L93.2431 60.3645ZM96.2176 47.7256L96.772 42.1212L97.1704 42.7634L96.6179 48.3647L96.2176 47.7256ZM66.8985 7.77983L65.7329 9.43528L61.0398 16.1006L58.2783 14.8541L63.1617 6.14192L66.8985 7.77983ZM45.2634 4.6388L44.8079 11.5706L44.6782 13.5449L44.6467 13.5477L44.6493 13.5608L41.4064 14.2238L40.9033 5.56265L45.2634 4.6388ZM40.6902 5.62232L41.1923 14.2676L41.1663 14.2729L41.1698 14.2852L37.9585 15.3166L36.3877 7.03342L40.6902 5.62232ZM31.7966 9.0895L32.1597 10.1769L34.3961 16.8744L34.3824 16.8805L34.3875 16.8914L32.077 18.2053L31.3701 18.6072L27.7779 11.3971L31.7966 9.0895ZM27.5903 11.5176L31.177 18.7171L31.1701 18.721L31.1759 18.7312L28.318 20.756L23.796 14.2257L27.5903 11.5176ZM19.9303 17.5905L25.3175 23.3592L22.9068 25.8971L22.8992 25.8894L22.8915 25.8993L16.7262 20.9763L19.9303 17.5905ZM11.0158 29.0912L18.5093 32.1621L17.6683 33.8494L17.0011 35.1877L16.9901 35.1812L16.9798 35.2087L8.99035 33.1437L11.0158 29.0912ZM8.88955 33.3669L16.8946 35.436L16.4903 36.5152L15.7308 38.542L15.7184 38.536L15.7097 38.5696L14.5466 38.4268L7.31577 37.5389L8.88955 33.3669ZM14.787 42.2311L14.5484 43.9333L14.3463 45.3743L14.33 45.3697L14.3289 45.4157L5.46933 46.5014L6.08309 42.2541L14.787 42.2311ZM5.44501 46.7489L14.3236 45.6608L14.2552 48.761L14.2365 48.7572L14.2417 48.8094L5.32865 50.9528L5.44501 46.7489ZM27.6857 94.9257L27.2624 94.4012L32.2699 95.6438L32.2748 95.6498L32.5121 95.9463L32.6911 96.17L27.6857 94.9257ZM50.4651 95.983L49.972 95.3396L55.6956 93.8574L55.7007 93.8641L56.1214 94.4221L56.1849 94.5064L50.4651 95.983ZM62.2837 92.1822L61.7872 91.5114L65.561 89.5635L67.2795 88.6765L67.771 89.3541L62.2837 92.1822ZM95.3029 54.4061L94.9865 53.9089L94.876 53.7353L96.1528 48.0443L96.577 48.7213L95.3029 54.4061ZM88.0444 14.7823L90.8532 19.0055L79.2365 19.4366L79.2169 19.394L79.2031 19.4026L77.0139 16.0362L88.0444 14.7823ZM96.4097 31.4121L96.2939 31.2221L95.3563 28.1848L94.9263 26.792L95.0402 26.9799L96.4097 31.4121ZM87.8549 14.5596L76.8661 15.8088L76.8408 15.7699L76.8286 15.7792L74.2033 12.8085L84.5035 10.8425L87.8549 14.5596ZM78.2002 7.83206L70.7385 9.84887L70.7033 9.8192L70.6945 9.82928L67.3474 7.75693L75.9234 4.72358L80.1643 7.30118L78.2002 7.83206ZM75.606 4.58111L70.7291 6.30612L67.0855 7.59484L67.046 7.57033L67.0388 7.58053L66.1019 7.16993L63.4137 5.99164L71.0284 2.6127L75.606 4.58111ZM67.0443 4.11932L63.1174 5.86186L63.0739 5.84276L63.0682 5.85291L59.2208 4.76051L65.8312 1.16497L70.6732 2.50901L67.0443 4.11932ZM60.0026 0.37689L57.1464 2.26176L54.4803 4.02109L54.4296 4.01362L54.4265 4.02382L50.3021 3.93316L54.8503 0.282343L60.0026 0.37689ZM53.4184 1.13315L49.9399 3.92521L49.8862 3.92402L49.8843 3.93408L45.6983 4.33765L49.223 0.838357L54.4308 0.320569L53.4184 1.13315ZM48.2192 1.51084L45.3367 4.37247L45.2805 4.37793L45.2798 4.38807L44.7221 4.50623L41.0775 5.27853L43.6103 2.03856L48.811 0.923296L48.2192 1.51084ZM27.5149 11.2619L27.5158 11.2748L27.4797 11.2955L27.4846 11.3054L24.2522 13.6125L23.6658 14.031L22.7754 12.6447L27.3888 9.34693L27.5149 11.2619ZM22.5986 12.7844L23.0444 13.4786L23.483 14.1615L23.4795 14.164L23.4859 14.1733L19.9381 17.2632L19.9314 17.2559L19.9083 17.2803L18.319 16.5152L22.5986 12.7844ZM14.0477 21.0133L16.3249 21.102L13.5296 24.6946L13.5216 24.6899L13.4917 24.737L10.6404 25.3937L14.0477 21.0133ZM10.4114 25.6944L11.6649 25.4058L13.3082 25.0273L10.9262 28.7959L10.9174 28.7923L10.8915 28.8441L7.49241 30.3143L10.4114 25.6944ZM7.27198 30.6699L10.7255 29.1762L9.81105 31.0057L8.77081 33.087L8.76134 33.0845L8.74082 33.139L4.86296 35.4848L7.27198 30.6699ZM4.67076 35.8768L8.60596 33.4964L8.20541 34.5582L7.09141 37.5114L7.08125 37.5101L7.06669 37.566L2.79348 40.8393L4.67076 35.8768ZM2.64261 41.2488L6.97117 37.9331L6.70138 38.97L5.91004 42.0116L5.89914 42.0116L5.89096 42.0682L1.31908 46.3065L2.64261 41.2488ZM1.21583 46.7173L5.83842 42.4318L5.60936 44.017L5.24642 46.5287L5.23482 46.5301L5.23323 46.5868L5.03852 46.8005L0.468642 51.8156L1.21583 46.7173ZM0.414986 52.214L5.22355 46.9369L5.12529 50.4902L5.11104 51.0051L5.09867 51.0081L5.10394 51.0641L3.17939 53.5372L0.259159 57.2896L0.414986 52.214ZM0.252933 57.6665L5.13497 51.3932L5.51096 55.3824L5.49801 55.3871L5.51027 55.4415L0.702578 62.6544L0.252933 57.6665ZM0.740197 63.0032L5.57839 55.7445L6.44507 59.5976L6.43173 59.6041L6.45098 59.6562L3.03153 65.6727L1.80109 67.8377L0.740197 63.0032ZM1.87765 68.1542L6.5521 59.9295L7.54214 62.6056L7.90795 63.5943L7.89439 63.6027L7.92051 63.6515L3.54682 72.7659L1.87765 68.1542ZM28.3579 95.7573L27.9374 95.237L30.2273 95.8064L32.9397 96.4807L33.1592 96.7549L33.3595 97.0051L28.3579 95.7573ZM33.7181 97.0899L33.2641 96.5228L38.5894 97.1244L38.9492 97.5801L39.0405 97.6956L33.7181 97.0899ZM39.3531 97.7257L38.8801 97.1265L41.2704 97.0932L44.4337 97.0493L44.9034 97.6522L39.3531 97.7257ZM45.1829 97.6423L44.6982 97.0201L50.3815 96.2461L50.3864 96.2525L50.5094 96.4128L50.8625 96.873L45.1829 97.6423ZM51.1163 96.8316L50.6247 96.191L53.5758 95.4292L56.3421 94.7152L56.7187 95.2149L56.8291 95.3615L51.1163 96.8316ZM62.4267 92.3758L64.6122 91.2494L67.912 89.5486L67.9178 89.5566L68.4022 90.2237L62.9209 93.044L62.4267 92.3758ZM78.5455 81.6782L82.9706 77.1606L83.0506 77.2779L83.449 77.8618L79.0292 82.3718L78.5455 81.6782ZM83.6014 77.6859L83.1311 76.9967L83.1249 76.9876L87.0295 72.0463L87.1442 72.2178L87.5016 72.7519L83.6014 77.6859ZM87.6384 72.5521L87.176 71.861L87.1702 71.8523L90.4867 66.5759L90.9502 67.2814L87.6384 72.5521ZM91.0697 67.0544L90.8905 66.7817L90.6126 66.3586L93.2844 60.8422L93.7368 61.5437L91.0697 67.0544ZM93.3989 60.6057L93.3936 60.5976L95.3783 54.9425L95.8182 55.6355L93.8361 61.2838L93.3989 60.6057ZM97.2038 49.2997L97.0733 49.0914L96.8058 48.6646L97.3579 43.0665L97.7529 43.7049L97.2038 49.2997Z"
      fill="#0A2B21"></path>
  </g>
  <defs>
    <clipPath id="clip0_12573_12678">
      <rect width="98" height="98" fill="white"></rect>
    </clipPath>
  </defs>
</svg>
