<svg width="48" height="25" fill="none" xmlns="http://www.w3.org/2000/svg"><g clip-path="url(#a)"><mask id="b" style="mask-type:alpha" maskUnits="userSpaceOnUse" x="0" y="0" width="48" height="25"><path fill-rule="evenodd" clip-rule="evenodd" d="M48 .926H0v15.6h13.2v8.4H48v-24Z" fill="#fff"/></mask><g mask="url(#b)"><path d="M12.451.926h2.203v13.6h-2.203V.926ZM22.315 10.216c0 2.107-1.724 2.298-2.299 2.298-1.34 0-1.532-1.245-1.532-1.915V5.33h-2.203v5.172c0 1.245.383 2.394 1.15 3.065.67.67 1.532.957 2.585.957.767 0 1.724-.191 2.299-.766v.766h2.203V5.331h-2.203v4.885ZM28.827 1.98h-2.203v3.352h-1.628v2.107h1.628v7.087h2.203V7.439h1.628V5.332h-1.628V1.979ZM37.352 11.748c-.478.383-1.149.67-1.82.67-1.532 0-2.585-1.149-2.585-2.681 0-1.533 1.053-2.586 2.586-2.586.67 0 1.34.191 1.82.67l.287.288 1.532-1.437-.383-.287a4.91 4.91 0 0 0-3.256-1.245c-2.682 0-4.693 2.01-4.693 4.693 0 2.681 2.011 4.692 4.693 4.692a4.91 4.91 0 0 0 3.256-1.245l.383-.287-1.532-1.532-.288.287ZM46.929 6.098c-.67-.67-1.341-.958-2.395-.958-.766 0-1.532.191-2.107.766V.926h-2.202v13.6h2.202V9.45c0-2.107 1.437-2.299 2.012-2.299 1.34 0 1.245 1.245 1.245 1.916v5.363h2.203V9.162c0-1.245-.288-2.394-.958-3.064Z" fill="#F3F3EF"/><path d="M35.437 11.366a1.532 1.532 0 1 0 0-3.065 1.532 1.532 0 0 0 0 3.065Z" fill="#EF4335"/><path d="M9.386 11.174c-.766.766-1.916 1.245-3.16 1.245-2.395 0-4.119-1.916-4.119-4.502s1.724-4.501 4.214-4.501c1.15 0 2.299.479 3.16 1.34l.288.288 1.437-1.437-.288-.287a6.45 6.45 0 0 0-4.597-1.915C2.681 1.309 0 4.182 0 7.917c0 3.736 2.682 6.609 6.225 6.609 1.724 0 3.448-.67 4.598-1.916l.287-.287-1.437-1.437-.287.288Z" fill="#F3F3EF"/><path d="m16.5 18.726.65 2.003h2.108l-1.705 1.239.651 2.004-1.704-1.239-1.705 1.239.651-2.004-1.704-1.239h2.106l.652-2.003ZM23.6 18.726l.65 2.003h2.107l-1.704 1.239.65 2.004-1.704-1.239-1.704 1.239.65-2.004-1.704-1.239h2.107l.651-2.003ZM30.7 18.726l.652 2.003h2.107l-1.705 1.239.651 2.004-1.704-1.239-1.705 1.239.651-2.004-1.704-1.239h2.107l.65-2.003ZM37.8 18.726l.652 2.003h2.107l-1.705 1.239.651 2.004-1.705-1.239-1.704 1.239.65-2.004-1.704-1.239h2.107l.651-2.003ZM44.9 18.726l.651 2.003h2.107l-1.705 1.239.652 2.004-1.705-1.239-1.705 1.239.651-2.004-1.704-1.239h2.107l.651-2.003Z" fill="#EF4335"/></g><path d="m.766 22.025.738-.062c.055.36.18.63.379.812.2.18.441.27.722.27.339 0 .625-.128.86-.383.234-.255.351-.594.351-1.015 0-.402-.113-.718-.34-.95-.223-.232-.518-.347-.882-.347-.227 0-.431.052-.614.156a1.174 1.174 0 0 0-.43.398l-.66-.086.555-2.941h2.848v.672H2.008l-.309 1.539c.344-.24.705-.36 1.082-.36.5 0 .922.174 1.266.52.344.346.516.792.516 1.336 0 .518-.152.966-.454 1.344-.367.463-.868.695-1.504.695-.52 0-.946-.146-1.277-.438-.328-.291-.516-.678-.562-1.16Zm4.832 1.5v-.8h.8v.8c0 .295-.052.532-.156.711-.104.183-.27.323-.496.422l-.195-.3a.665.665 0 0 0 .328-.29c.07-.125.11-.306.117-.543h-.398Zm1.847-2.824c0-.677.07-1.221.207-1.633.141-.414.348-.733.621-.957.276-.224.623-.336 1.04-.336.307 0 .576.063.808.188.232.122.423.3.574.535.151.232.27.516.356.852.086.333.129.784.129 1.351 0 .672-.07 1.215-.207 1.63-.138.41-.345.73-.621.956-.274.224-.62.336-1.04.336-.552 0-.985-.198-1.3-.594-.378-.476-.567-1.252-.567-2.328Zm.723 0c0 .94.11 1.567.328 1.88.221.309.494.464.816.464.323 0 .594-.156.813-.469.221-.312.332-.937.332-1.875 0-.942-.11-1.569-.332-1.879-.219-.31-.492-.465-.82-.465a.9.9 0 0 0-.774.41c-.242.35-.363.994-.363 1.934Z" fill="#F3F3EF"/></g><defs><clipPath id="a"><path fill="#fff" transform="translate(0 .926)" d="M0 0h48v24H0z"/></clipPath></defs></svg>