<svg width="36" height="36" viewBox="0 0 36 36" fill="none" xmlns="http://www.w3.org/2000/svg">
<rect x="0.5" y="0.5" width="35" height="35" rx="17.5" stroke="#0A2B21"/>
<path fill-rule="evenodd" clip-rule="evenodd" d="M15.172 19.334L18.002 21.269L20.73 19.387L26.845 25.42C26.6837 25.4727 26.513 25.4993 26.333 25.5H9.667C9.447 25.5 9.237 25.457 9.044 25.38L15.172 19.334ZM28 14.376V23.833C28 24.08 27.946 24.314 27.85 24.525L21.856 18.611L28 14.376ZM8 14.429L14.042 18.561L8.106 24.419C8.03646 24.2314 8.00058 24.033 8 23.833V14.429ZM26.333 10.5C27.253 10.5 28 11.246 28 12.167V12.753L17.998 19.648L8 12.81V12.167C8 11.247 8.746 10.5 9.667 10.5H26.333Z" fill="#0A2B21"/>
</svg>
