<svg width="36" height="36" viewBox="0 0 36 36" fill="none" xmlns="http://www.w3.org/2000/svg">
<rect x="0.5" y="0.5" width="35" height="35" stroke="#0A2B21"/>
<circle cx="18" cy="18" r="17.5" stroke="#0A2B21"/>
<path d="M13.1972 26.7028H9.24508V13.9348H13.1972V26.7028ZM11.2023 12.2627C9.91158 12.2627 8.86523 11.2078 8.86523 9.90677C8.86523 8.60558 9.91172 7.55078 11.2023 7.55078C12.4928 7.55078 13.5392 8.60558 13.5392 9.90677C13.5393 11.2079 12.4929 12.2627 11.2023 12.2627ZM28.0076 26.7028H24.0746V20.0006C24.0746 18.1624 23.3764 17.1363 21.9229 17.1363C20.341 17.1363 19.5145 18.205 19.5145 20.0006V26.7028H15.7241V13.9348H19.5145V15.6544C19.5145 15.6544 20.6547 13.5453 23.3621 13.5453C26.0695 13.5453 28.0076 15.1984 28.0076 18.6183L28.0076 26.7028Z" fill="#0A2B21"/>
</svg>
