<svg width="136" height="136" viewBox="0 0 136 136" fill="none" xmlns="http://www.w3.org/2000/svg">
<path d="M125.81 53.3548C125.829 53.2908 125.848 53.2265 125.864 53.1613C125.877 53.1109 125.889 53.0605 125.9 53.0101C125.909 52.9712 125.916 52.9319 125.924 52.8925C125.965 52.6796 125.989 52.4668 125.997 52.2542C125.997 52.2382 125.999 52.2223 125.999 52.2061C126.001 52.1328 126 52.0597 125.998 51.9866C125.998 51.9671 125.997 51.9476 125.996 51.9281C125.993 51.8532 125.988 51.7781 125.981 51.7031C125.98 51.6934 125.978 51.6835 125.977 51.6736C125.953 51.4461 125.91 51.2191 125.848 50.9923C125.834 50.9424 125.821 50.8927 125.805 50.8424C125.792 50.7993 125.777 50.7561 125.762 50.7129C125.74 50.6474 125.716 50.5816 125.691 50.5153C125.678 50.484 125.666 50.4528 125.652 50.4215C125.618 50.3387 125.581 50.2553 125.541 50.1714C125.534 50.1558 125.527 50.1402 125.519 50.1247C125.249 49.5705 124.852 48.995 124.297 48.4032L99.4105 20.861C99.0978 20.5153 98.6997 20.1739 98.226 19.8398C98.2092 19.8279 98.1922 19.816 98.1751 19.8041C98.0776 19.7362 97.9764 19.6686 97.8724 19.6012C97.8427 19.582 97.8137 19.5628 97.7835 19.5437C97.685 19.4813 97.5829 19.4192 97.4789 19.3574C97.445 19.3373 97.4125 19.3169 97.3779 19.297C97.2409 19.2171 97.1002 19.1377 96.9539 19.0591C96.809 18.9811 96.6588 18.9042 96.5061 18.8279C96.4574 18.8036 96.4075 18.7795 96.358 18.7554C96.2495 18.7025 96.1391 18.6498 96.0268 18.5976C95.9692 18.5708 95.9118 18.5441 95.8532 18.5175C95.7303 18.4618 95.6049 18.4067 95.4777 18.3519C95.3922 18.3151 95.3054 18.2784 95.2178 18.242C95.1042 18.1947 94.9898 18.1475 94.8731 18.101C94.7744 18.0615 94.6734 18.0225 94.5724 17.9836C94.5049 17.9577 94.4371 17.9318 94.3687 17.9062C94.2471 17.8603 94.1245 17.8147 93.9995 17.7696C93.9933 17.7674 93.987 17.7651 93.9807 17.7629C93.3944 17.5516 92.7746 17.347 92.1178 17.1511C92.1143 17.1502 92.1106 17.1488 92.1071 17.1478L81.1527 13.8805L68.2059 10.0188L68.1941 10.0154L68.191 10.0145C68.1907 10.0144 68.1913 10.0146 68.191 10.0145L68.1886 10.0138C68.1793 10.0111 68.1664 10.0102 68.1557 10.0084C68.141 10.0057 68.1274 10.0021 68.1113 10.001C68.0829 9.99917 68.0537 9.99978 68.0266 10.0035C68.0064 10.0058 67.9889 10.0095 67.976 10.0135L67.9183 10.0304L44.0155 17.0675C43.0536 17.3506 42.17 17.6502 41.3672 17.9638C41.3298 17.9784 41.2938 17.9932 41.2568 18.0078C41.1539 18.0485 41.0518 18.0893 40.9516 18.1305C40.8744 18.1622 40.7986 18.1941 40.723 18.2261C40.6705 18.2483 40.6185 18.2705 40.5669 18.2928C40.4714 18.334 40.3768 18.3755 40.2838 18.4172C40.2719 18.4226 40.2601 18.428 40.248 18.4334C38.6693 19.1452 37.4721 19.9233 36.7207 20.7488L11.6242 48.3205C11.6234 48.3215 11.6229 48.322 11.6221 48.3231C11.5013 48.4558 11.3894 48.5892 11.2819 48.7227C11.2667 48.7415 11.2512 48.7605 11.2363 48.7794C11.1275 48.917 11.0256 49.0551 10.9312 49.1935C10.9178 49.2131 10.9052 49.2328 10.8921 49.2525C10.6756 49.5769 10.4965 49.903 10.3588 50.2303C10.3579 50.2327 10.357 50.235 10.3561 50.2375C10.3192 50.3255 10.2849 50.4136 10.2538 50.5019C10.2452 50.5266 10.2383 50.5511 10.23 50.5757C10.2079 50.6414 10.1858 50.7071 10.167 50.773C10.1506 50.8304 10.1374 50.8877 10.1234 50.9451C10.1154 50.9781 10.1056 51.011 10.0985 51.0441C9.95084 51.7141 9.96967 52.3858 10.1518 53.0549C10.1593 53.0824 10.1673 53.1096 10.1753 53.1371C10.2032 53.2323 10.2343 53.3275 10.2687 53.4228C10.2788 53.4506 10.2878 53.4787 10.2985 53.5067C10.3394 53.6134 10.3849 53.72 10.4342 53.8265C10.4569 53.8757 10.4819 53.9247 10.5063 53.9737C10.5224 54.0059 10.5368 54.038 10.5536 54.0701C10.565 64.2807 16.4253 71.8556 22.093 79.1816C24.9063 82.8183 27.814 86.5783 29.9649 90.6101C30.1089 90.8919 30.2982 91.172 30.5309 91.4502C30.541 91.4622 30.5512 91.4741 30.5613 91.4861C30.6663 91.6094 30.7786 91.7324 30.901 91.8549C30.9072 91.8612 30.914 91.8673 30.9203 91.8736C30.9824 91.9351 31.045 91.9968 31.1114 92.0582L67.7605 125.912L67.77 125.92L67.8542 126L67.8553 125.999L67.9273 125.933L67.9358 125.941L67.9317 125.929L67.9436 125.918L104.717 92.1948C104.75 92.1651 104.776 92.1351 104.808 92.1053C104.88 92.0368 104.949 91.9681 105.016 91.8992C105.062 91.8515 105.11 91.8039 105.153 91.7561C105.252 91.6478 105.345 91.5389 105.431 91.4293C105.457 91.3965 105.479 91.3636 105.503 91.3307C105.571 91.2395 105.636 91.148 105.694 91.056C105.725 91.008 105.752 90.9599 105.78 90.912C105.803 90.8726 105.829 90.8335 105.85 90.794L125.42 54.2879C125.424 54.2808 125.427 54.2734 125.431 54.2662C125.439 54.2514 125.446 54.2363 125.454 54.2212C125.527 54.0807 125.595 53.9352 125.656 53.7853C125.66 53.7755 125.666 53.7659 125.67 53.7561C125.676 53.7419 125.68 53.7277 125.685 53.7135C125.716 53.6345 125.745 53.5546 125.772 53.4733C125.786 53.4338 125.798 53.3943 125.81 53.3548ZM105.33 90.8379C105.268 90.9337 105.202 91.0295 105.13 91.1251C105.119 91.1401 105.109 91.1553 105.098 91.1702C104.908 91.4155 104.682 91.6594 104.419 91.9018L104.409 91.9113C103.986 92.3003 103.471 92.6794 102.876 93.0479L105.442 90.6442C105.43 90.6652 105.42 90.6862 105.408 90.7072C105.382 90.7507 105.357 90.7944 105.33 90.8379ZM10.8687 53.7402C10.8254 53.6465 10.7854 53.5527 10.7489 53.4586C10.7322 53.4158 10.7179 53.373 10.7026 53.3301C10.6774 53.2587 10.6537 53.1873 10.6324 53.1158C10.6207 53.0766 10.6087 53.0375 10.598 52.9984C10.5702 52.8944 10.5455 52.7903 10.5259 52.6859C10.5116 52.6097 10.5 52.5335 10.4903 52.4573C10.4891 52.4485 10.4875 52.4398 10.4864 52.431C10.4768 52.3518 10.4701 52.2727 10.4655 52.1934C10.4651 52.1858 10.464 52.1782 10.4637 52.1705C10.4595 52.0931 10.4583 52.0157 10.4588 51.9382C10.459 51.9284 10.4583 51.9187 10.4584 51.909C10.4595 51.8352 10.4636 51.7614 10.469 51.6877C10.4699 51.6741 10.47 51.6605 10.471 51.6469C10.4766 51.5791 10.4853 51.5112 10.4943 51.4434C10.497 51.4237 10.4986 51.4038 10.5017 51.384C10.5049 51.3622 10.5099 51.3405 10.5135 51.3187L13.2208 56.5312C12.3265 55.8064 11.6446 55.0673 11.1821 54.3184C11.1736 54.3045 11.1646 54.2907 11.1562 54.2767C11.1077 54.1968 11.0625 54.1167 11.019 54.0366C10.9982 53.9979 10.978 53.9591 10.9581 53.9205C10.9274 53.8604 10.8965 53.8004 10.8687 53.7402ZM11.0557 49.82C11.1308 49.6857 11.2147 49.552 11.3034 49.4188C11.3213 49.3919 11.3386 49.365 11.357 49.3381C11.4416 49.215 11.5329 49.0922 11.6288 48.97C11.6598 48.9308 11.6914 48.8915 11.7235 48.8524C11.8153 48.7398 11.9114 48.6277 12.013 48.5161C12.1131 48.4062 12.2206 48.297 12.3298 48.188C12.3599 48.1579 12.3879 48.1278 12.4187 48.0978C12.5254 47.9938 12.6386 47.8905 12.7533 47.7875C12.7939 47.7512 12.833 47.7146 12.8744 47.6785C12.984 47.5827 13.0992 47.4876 13.2156 47.3927C13.2712 47.3474 13.3264 47.3022 13.3835 47.257C13.4546 47.201 13.5296 47.1454 13.603 47.0896L10.9216 50.0746C10.9383 50.0408 10.9571 50.0069 10.9747 49.9731C11.0012 49.922 11.0271 49.871 11.0557 49.82ZM92.5083 17.6992C92.7066 17.7615 92.9017 17.8246 93.0937 17.8885C93.1955 17.9225 93.2976 17.9565 93.3975 17.9908C93.482 18.0199 93.5652 18.0493 93.6485 18.0788C93.7591 18.118 93.8687 18.1574 93.9769 18.197C94.0475 18.2229 94.118 18.2488 94.1877 18.2749C94.2535 18.2997 94.3171 18.3249 94.382 18.3498L90.4207 17.1047C90.4863 17.1216 90.5519 17.1385 90.6169 17.1556C90.7489 17.1904 90.8798 17.2256 91.0098 17.2612C91.1798 17.3074 91.3477 17.3542 91.5139 17.4017C91.6824 17.4499 91.8495 17.4985 92.0144 17.5478C92.1152 17.578 92.2165 17.6079 92.3157 17.6386C92.3807 17.6586 92.444 17.6789 92.5083 17.6992ZM97.9087 20.1216C97.93 20.1364 97.9507 20.1511 97.9718 20.1658C98.0704 20.2352 98.1661 20.3048 98.2575 20.3747C98.267 20.3821 98.2765 20.3892 98.286 20.3965C98.6961 20.7131 99.0311 21.0348 99.2916 21.3593C99.3023 21.3728 99.314 21.3862 99.3245 21.3996C99.3812 21.4722 99.4333 21.5448 99.4825 21.6176C99.4964 21.6384 99.5097 21.6591 99.523 21.6798C99.5701 21.7528 99.6152 21.8259 99.6548 21.8991C99.6551 21.9 99.6554 21.9007 99.6559 21.9016C99.7313 22.0419 99.7893 22.1825 99.8363 22.3232C99.849 22.3613 99.863 22.3994 99.8737 22.4376C99.884 22.4747 99.8909 22.512 99.8994 22.5493L98.085 20.4843L97.5682 19.8962C97.5888 19.9094 97.6087 19.9225 97.6291 19.9356C97.7248 19.9974 97.8188 20.0594 97.9087 20.1216ZM124.247 48.984C124.303 49.0515 124.355 49.119 124.408 49.1866C124.429 49.2132 124.45 49.2398 124.47 49.2665C124.521 49.3343 124.57 49.4022 124.617 49.4703C124.635 49.4957 124.653 49.5211 124.67 49.5466C124.718 49.6166 124.763 49.6869 124.807 49.7572C124.821 49.779 124.834 49.8008 124.847 49.8227C124.892 49.8968 124.935 49.971 124.976 50.0453C124.984 50.0602 124.991 50.0751 124.999 50.0901C125.279 50.616 125.452 51.1454 125.514 51.6762C125.516 51.6902 125.518 51.7041 125.519 51.718C125.527 51.7934 125.533 51.8688 125.536 51.9441C125.537 51.966 125.538 51.9879 125.539 52.0098C125.541 52.0806 125.541 52.1515 125.54 52.2223C125.539 52.249 125.538 52.2757 125.537 52.3023C125.534 52.37 125.529 52.4376 125.523 52.5052C125.52 52.5357 125.516 52.5663 125.512 52.5968C125.504 52.6615 125.496 52.7261 125.485 52.7908C125.479 52.8257 125.471 52.8605 125.464 52.8955C125.464 52.8967 125.463 52.8977 125.463 52.8989L119.648 46.1529L119.872 45.6547C120.025 45.7384 120.176 45.822 120.323 45.9063C120.37 45.933 120.416 45.9597 120.462 45.9866C120.861 46.2187 121.238 46.4531 121.591 46.6895C121.625 46.712 121.658 46.7345 121.691 46.757C122.042 46.9944 122.368 47.234 122.672 47.475C122.705 47.5012 122.738 47.5275 122.77 47.5539C122.916 47.6718 123.058 47.7902 123.193 47.9089C123.206 47.9206 123.218 47.9322 123.231 47.9439C123.349 48.0485 123.461 48.1536 123.569 48.2587C123.609 48.2969 123.648 48.3349 123.686 48.3729C123.791 48.4779 123.892 48.583 123.989 48.6884C124.059 48.7653 124.126 48.8423 124.191 48.9195C124.209 48.9411 124.229 48.9625 124.247 48.984ZM125.425 53.0784C125.425 53.0799 125.424 53.0812 125.424 53.0826L119.581 46.3014L119.618 46.2196L125.446 52.9805C125.439 53.0131 125.433 53.0459 125.425 53.0784ZM31.1356 91.4938C31.043 91.3973 30.9564 91.3005 30.8753 91.2034C30.8622 91.1877 30.8483 91.172 30.8354 91.1563C30.7496 91.0509 30.6705 90.9453 30.5981 90.8394C30.5875 90.824 30.5777 90.8087 30.5674 90.7934C30.4948 90.6842 30.4275 90.5747 30.3692 90.4649C30.3137 90.3603 30.2661 90.2554 30.2238 90.1504C30.2181 90.1362 30.2124 90.1221 30.2068 90.1078C30.1251 89.8957 30.0703 89.6827 30.0427 89.4698C30.0415 89.4591 30.0398 89.4484 30.0385 89.4377C30.0259 89.3301 30.0196 89.2223 30.0209 89.1146C30.0209 89.1116 30.0213 89.1085 30.0213 89.1054C30.023 89.0023 30.0319 88.8992 30.0463 88.7962C30.048 88.7838 30.0492 88.7716 30.0511 88.7593C30.0527 88.7501 30.0556 88.7408 30.0571 88.7316L31.9932 90.6337L33.2249 93.0831C33.1407 93.033 33.0549 92.9832 32.9741 92.933C32.9376 92.9102 32.9005 92.8876 32.8645 92.8646C32.7165 92.7707 32.5739 92.6762 32.4371 92.5814C32.4022 92.5572 32.3688 92.5329 32.3346 92.5086C32.2138 92.4228 32.097 92.3367 31.9854 92.2502C31.9646 92.234 31.9424 92.218 31.9219 92.2018C31.7973 92.1035 31.6801 92.0048 31.5676 91.9058C31.5409 91.8824 31.5145 91.859 31.4884 91.8354C31.3774 91.7351 31.2712 91.6344 31.1725 91.5332C31.1598 91.5201 31.1482 91.507 31.1356 91.4938ZM10.8022 50.3356C10.8104 50.3162 10.8201 50.2969 10.8285 50.2776L13.8724 46.889C13.8987 46.8699 13.9241 46.8508 13.9507 46.8318C14.0267 46.7772 14.1055 46.7229 14.184 46.6687L10.7332 50.5119C10.7381 50.499 10.7432 50.4861 10.7481 50.4734C10.766 50.4274 10.7827 50.3815 10.8022 50.3356ZM37.5624 20.5139C37.6367 20.4511 37.7125 20.3884 37.7925 20.3261C37.8406 20.2886 37.8896 20.2513 37.9396 20.214C38.064 20.1215 38.1912 20.0293 38.3281 19.938C38.3323 19.9352 38.3369 19.9324 38.3412 19.9296C38.4954 19.8271 38.6581 19.7254 38.8279 19.6245C38.8416 19.6163 38.8553 19.6081 38.869 19.6C39.4396 19.264 40.0989 18.9377 40.8381 18.6227L38.7172 21.1279L36.3591 22.0149C36.371 21.9874 36.3812 21.9601 36.3942 21.9326C36.424 21.87 36.459 21.8074 36.4942 21.7448C36.5198 21.6995 36.5423 21.6541 36.5709 21.6088C36.6307 21.5135 36.6977 21.4188 36.7704 21.3243C36.8186 21.2618 36.8735 21.1996 36.9273 21.1373C36.9627 21.0963 36.9971 21.055 37.0349 21.0141C37.0819 20.9634 37.1309 20.9129 37.1813 20.8626C37.2316 20.8123 37.2849 20.7623 37.3389 20.7122C37.4104 20.6458 37.4849 20.5796 37.5624 20.5139ZM10.5905 50.9594C10.5992 50.9258 10.6067 50.8923 10.6163 50.8587C10.6298 50.8117 10.646 50.7649 10.6611 50.718C10.6655 50.7043 10.6698 50.6906 10.6745 50.6768L14.4125 46.5136C14.4694 46.4756 14.5254 46.4375 14.5835 46.3997C14.672 46.3418 14.7609 46.284 14.852 46.2266C14.998 46.1348 15.1478 46.0434 15.3005 45.9524C15.3617 45.9158 15.4218 45.8792 15.4841 45.8428C15.6991 45.7175 15.9193 45.5928 16.1472 45.4691C16.1514 45.4668 16.1554 45.4645 16.1596 45.4623C17.2465 44.8733 18.4821 44.3057 19.8474 43.761L22.2916 49.7696L16.0654 58.4028C15.9288 58.3278 15.7943 58.2525 15.6627 58.1769C15.5955 58.1384 15.529 58.0998 15.4631 58.0611C15.3504 57.9951 15.2407 57.929 15.1318 57.8628C15.0599 57.8189 14.987 57.7752 14.9167 57.7312C14.8206 57.6712 14.7282 57.611 14.6352 57.5507C14.4693 57.4432 14.3078 57.3353 14.1516 57.227C14.11 57.1981 14.0673 57.1693 14.0263 57.1405C13.919 57.0647 13.8148 56.9886 13.7122 56.9124C13.688 56.8944 13.6639 56.8765 13.6398 56.8586L10.5859 50.9782C10.5874 50.9719 10.5889 50.9657 10.5905 50.9594ZM95.2151 18.6854C95.2559 18.7028 95.2955 18.7206 95.3358 18.738C95.4606 18.7921 95.5833 18.8466 95.7035 18.9014C95.7368 18.9166 95.7694 18.9317 95.8023 18.947L89.0325 16.7821L88.8583 16.7265C89.0432 16.7683 89.2264 16.8108 89.408 16.8538L95.1511 18.659C95.1721 18.6679 95.1941 18.6766 95.2151 18.6854ZM96.3158 19.1933C96.4636 19.2671 96.6083 19.3415 96.7479 19.4165C96.8299 19.4607 96.9068 19.5053 96.9858 19.5499L99.9502 22.9252C99.9534 23.0019 99.9559 23.0786 99.9507 23.1551C99.9502 23.1634 99.9509 23.1718 99.9503 23.1801C99.9443 23.2548 99.9286 23.3294 99.9146 23.404L87.2113 18.0875L86.0506 16.1586C86.7803 16.29 87.4901 16.4297 88.1796 16.5773L96.2321 19.1522C96.2598 19.1659 96.2883 19.1796 96.3158 19.1933ZM112.657 61.5495L112.64 61.588C112.61 61.5976 112.582 61.6072 112.552 61.6168L114.262 57.8104L114.307 57.8786L112.657 61.5495ZM35.4605 94.2163C35.3908 94.1859 35.3198 94.1559 35.2511 94.1252C35.1568 94.083 35.0656 94.0402 34.9733 93.9975C34.9056 93.9662 34.8365 93.9352 34.7698 93.9036C34.6806 93.8613 34.5942 93.8183 34.5069 93.7754C34.4407 93.743 34.3731 93.7108 34.3079 93.678C34.2228 93.6351 34.1407 93.5916 34.0576 93.5483C33.9986 93.5175 33.9386 93.4871 33.8809 93.4562L32.9189 91.5431L35.7806 94.3545C35.7707 94.3503 35.7602 94.3462 35.7502 94.3421C35.652 94.3005 35.5567 94.2583 35.4605 94.2163ZM35.943 94.4214L32.827 91.36L32.7264 91.1601L36.0875 94.4807C36.0467 94.4641 36.0061 94.4474 35.9657 94.4307C35.9581 94.4276 35.9505 94.4245 35.943 94.4214ZM45.9529 97.198C45.7878 97.167 45.6245 97.1352 45.4611 97.1035C45.3773 97.0873 45.2925 97.0713 45.2091 97.0549C45.0499 97.0235 44.8928 96.9912 44.7353 96.9591C44.6497 96.9417 44.5629 96.9246 44.4776 96.907C44.3161 96.8735 44.1568 96.839 43.9971 96.8048C43.9187 96.788 43.8392 96.7717 43.7612 96.7547C43.6 96.7195 43.4409 96.6835 43.2817 96.6476C43.2064 96.6306 43.1303 96.6142 43.0557 96.597C42.9013 96.5617 42.7494 96.5255 42.5971 96.4896C42.5192 96.4711 42.4403 96.453 42.3629 96.4345C42.2125 96.3983 42.0646 96.3613 41.9163 96.3245C41.8393 96.3055 41.7615 96.2867 41.6852 96.2675C41.5379 96.2303 41.3932 96.1923 41.2481 96.1545C41.1726 96.1348 41.096 96.1155 41.0211 96.0956C40.8792 96.058 40.7398 96.0196 40.6001 95.9813C40.524 95.9604 40.4468 95.94 40.3714 95.919C40.2348 95.8809 40.1006 95.842 39.9661 95.8034C39.8899 95.7814 39.8125 95.7599 39.737 95.7377C39.6054 95.6992 39.4764 95.66 39.3469 95.6208C39.2707 95.5978 39.1933 95.5751 39.118 95.5519C38.9899 95.5125 38.8645 95.4723 38.7386 95.4323C38.6643 95.4088 38.5888 95.3855 38.5152 95.3617C38.3901 95.3212 38.2678 95.2799 38.1447 95.2388C38.0728 95.2148 37.9998 95.1911 37.9286 95.1668C37.8096 95.1263 37.6933 95.085 37.5765 95.0439C37.5038 95.0183 37.4297 94.993 37.3577 94.9672C37.2441 94.9265 37.1333 94.8849 37.0219 94.8436C36.9496 94.8169 36.876 94.7903 36.8046 94.7632C36.6958 94.7222 36.59 94.6803 36.4833 94.6386C36.4119 94.6107 36.3393 94.5832 36.2688 94.555C36.2618 94.5522 36.2552 94.5493 36.2482 94.5465L32.6335 90.9754L30.7547 87.2388C30.8078 87.17 30.8614 87.1012 30.9201 87.0329C30.9314 87.0195 30.9429 87.0062 30.9544 86.993C31.4879 86.3839 32.2415 85.7922 33.1967 85.2256C34.0437 84.7332 35.0428 84.2603 36.1798 83.8111L46.31 97.2633C46.274 97.2568 46.2378 97.2502 46.2018 97.2437C46.1191 97.2283 46.0353 97.2135 45.9529 97.198ZM17.0143 59.2789C17.0604 59.3016 17.1081 59.324 17.1546 59.3465C17.3206 59.427 17.489 59.5067 17.6597 59.5861C17.7258 59.6167 17.7918 59.6473 17.8585 59.6777C18.0419 59.7616 18.2278 59.8448 18.4164 59.9274C18.4535 59.9437 18.4895 59.96 18.5267 59.9762C18.7498 60.073 18.977 60.1689 19.207 60.264C19.2716 60.2907 19.3373 60.3172 19.4026 60.3437C19.5811 60.4165 19.7615 60.4888 19.9441 60.5605C20.0124 60.5874 20.0801 60.6143 20.1489 60.641C20.3896 60.7342 20.6327 60.8269 20.8802 60.9184C20.9063 60.9281 20.9334 60.9377 20.9597 60.9474C21.1843 61.03 21.4123 61.1119 21.6424 61.1931C21.7179 61.2198 21.7941 61.2463 21.8701 61.2728C22.0729 61.3434 22.2778 61.4135 22.4846 61.483C22.5464 61.5037 22.6074 61.5246 22.6694 61.5453C22.9316 61.6324 23.197 61.7186 23.4655 61.8041C23.528 61.8239 23.5915 61.8435 23.6543 61.8632C23.8698 61.931 24.0874 61.9983 24.3069 62.0649C24.3884 62.0898 24.4699 62.1144 24.5521 62.1391C24.8045 62.2148 25.0592 62.2898 25.3167 62.364C25.345 62.3722 25.3727 62.3806 25.4011 62.3887C25.6866 62.4706 25.9759 62.5513 26.2676 62.6314C26.347 62.6532 26.4273 62.6748 26.5072 62.6965C26.7347 62.7582 26.964 62.8194 27.195 62.88C27.2743 62.9007 27.353 62.9217 27.4327 62.9423C27.5135 62.9633 27.5944 62.9843 27.6758 63.0051L36.0329 83.5488C35.0345 83.949 34.1443 84.3686 33.3712 84.8054C32.1638 85.4742 31.2307 86.1834 30.5957 86.9226L16.5889 59.0661C16.7292 59.1374 16.8704 59.2084 17.0143 59.2789ZM51.2089 80.3623L52.2678 83.2605L51.204 80.3629C51.2056 80.3626 51.2072 80.3625 51.2089 80.3623ZM64.8191 99.0346C64.7398 99.0328 64.6603 99.0313 64.581 99.0294C64.3592 99.0237 64.1378 99.0171 63.9164 99.0105C63.8347 99.008 63.7527 99.0061 63.6709 99.0035C63.4486 98.9965 63.2267 98.9884 63.0048 98.9803C62.9247 98.9773 62.8442 98.9749 62.7642 98.9718C62.543 98.9635 62.3224 98.954 62.1019 98.9446C62.0216 98.9412 61.9411 98.9381 61.8609 98.9345C61.6442 98.925 61.4282 98.9143 61.2123 98.9036C61.1287 98.8996 61.0449 98.8959 60.9615 98.8918C60.7521 98.8811 60.5433 98.8693 60.3347 98.8578C60.2453 98.8529 60.1555 98.8483 60.0664 98.8432C59.8658 98.8316 59.6661 98.8191 59.4662 98.8067C59.3696 98.8007 59.2726 98.7952 59.1761 98.789C58.9741 98.7761 58.7729 98.7621 58.5717 98.7484C58.4789 98.742 58.3856 98.7361 58.293 98.7295C58.1896 98.7222 58.0872 98.7141 57.9841 98.7067L56.302 94.1035L51.2777 80.3542C51.8779 80.2785 52.4817 80.2067 53.0893 80.1401C53.1411 80.1345 53.193 80.1291 53.2449 80.1235C53.8549 80.0574 54.4682 79.9958 55.0845 79.9387C55.1491 79.9326 55.2137 79.9267 55.2784 79.9208C55.8996 79.8643 56.5234 79.812 57.1496 79.7645C57.1952 79.7609 57.2407 79.7573 57.2865 79.7538C58.627 79.6533 59.9776 79.5731 61.3324 79.5129L61.4552 79.5078C62.0988 79.4797 62.7433 79.4561 63.3882 79.437C63.4401 79.4354 63.4919 79.4339 63.5437 79.4324C63.7829 79.4256 64.0222 79.4224 64.2616 79.4168L65.0956 99.0406C65.0035 99.0388 64.9113 99.0368 64.8191 99.0346ZM47.1217 37.6751L50.2468 30.0661C50.2518 30.0669 50.2566 30.0677 50.2614 30.0685L47.1391 37.6734C47.1333 37.674 47.1275 37.6745 47.1217 37.6751ZM47.7454 29.5767C47.7529 29.5784 47.7608 29.5799 47.7683 29.5816C48.0213 29.6362 48.2779 29.6893 48.5364 29.7417C48.6012 29.7548 48.6663 29.7679 48.7314 29.7809C48.9809 29.8307 49.2325 29.8797 49.4867 29.9274C49.5062 29.931 49.525 29.9348 49.5444 29.9384C49.7545 29.9777 49.9661 30.0163 50.1793 30.0541L47.0461 37.6827C46.5965 37.7278 46.1482 37.7748 45.7011 37.8232C45.6229 37.8317 45.5445 37.8398 45.4664 37.8484C44.5582 37.948 43.655 38.0543 42.7578 38.1673L47.0678 29.426C47.2915 29.477 47.517 29.5274 47.7454 29.5767ZM47.0426 60.5028L48.1947 66.1221C48.1787 66.1206 48.1624 66.1191 48.1464 66.1175C47.9051 66.0939 47.6652 66.069 47.4251 66.0444C47.2354 66.0251 47.0449 66.0063 46.8561 65.9863C46.6178 65.9613 46.3812 65.935 46.144 65.909C45.9551 65.8884 45.7653 65.8683 45.5771 65.8471C45.341 65.8205 45.1068 65.7928 44.8721 65.7654C44.6854 65.7436 44.4977 65.7224 44.3119 65.7C44.0767 65.6717 43.8433 65.6424 43.6095 65.6133C43.426 65.5905 43.2417 65.5682 43.0591 65.5449C42.8237 65.5148 42.5904 65.4837 42.3564 65.4528C42.1781 65.4292 41.9988 65.4062 41.8213 65.3821C41.5813 65.3496 41.3436 65.316 41.1052 65.2826C40.9366 65.2591 40.767 65.2359 40.5993 65.2119C40.3586 65.1774 40.1201 65.1417 39.8813 65.1063C39.7171 65.0819 39.552 65.0581 39.3886 65.0333C39.1529 64.9976 38.9194 64.9607 38.6856 64.924C38.5214 64.8984 38.3564 64.8731 38.1932 64.847C37.9587 64.8095 37.7267 64.7708 37.4942 64.7324C37.3348 64.706 37.1744 64.6802 37.016 64.6534C36.7841 64.6143 36.5547 64.5741 36.3246 64.534C36.2808 64.5264 36.2368 64.5188 36.193 64.5111L43.9774 45.5511L47.0426 60.5028ZM37.1386 64.9715C37.1991 64.9815 37.2601 64.9912 37.3206 65.0013C37.6129 65.0496 37.9069 65.0973 38.2023 65.1443C38.3092 65.1614 38.4164 65.1781 38.5237 65.1949C38.814 65.2405 39.1056 65.2854 39.3988 65.3295C39.4675 65.3398 39.5357 65.3505 39.6048 65.3608C39.9612 65.4139 40.3197 65.466 40.6801 65.5171C40.7748 65.5305 40.8698 65.5436 40.9645 65.557C41.2429 65.596 41.5222 65.6344 41.8026 65.6722C41.9128 65.687 42.0228 65.7019 42.1333 65.7166C42.4944 65.7645 42.8568 65.8118 43.2215 65.8577C43.2465 65.8608 43.2716 65.8639 43.2966 65.867C43.6448 65.9106 43.9947 65.9532 44.3459 65.995C44.463 66.009 44.5806 66.0227 44.6981 66.0365C44.9781 66.0693 45.2591 66.1015 45.5408 66.1331C45.6466 66.145 45.752 66.157 45.8579 66.1688C46.2275 66.2095 46.5983 66.2494 46.9707 66.2883C47.0654 66.2981 47.1607 66.3075 47.2556 66.3172C47.5463 66.347 47.8377 66.3764 48.1301 66.4048C48.1719 66.409 48.2132 66.4134 48.2552 66.4174L51.0555 80.0779C50.7322 80.1194 50.4109 80.1617 50.0935 80.2055C49.823 80.2427 49.557 80.2814 49.291 80.3201C49.2182 80.3307 49.1442 80.3408 49.0717 80.3516C46.395 80.7473 43.9487 81.2207 41.7614 81.7588L36.2008 64.8118C36.5117 64.8659 36.8243 64.919 37.1386 64.9715ZM63.5743 79.127L63.345 79.1337C62.7241 79.1523 62.1033 79.175 61.4836 79.2019C61.4259 79.2044 61.3683 79.2066 61.3108 79.2092C60.6411 79.2391 59.9724 79.2734 59.3056 79.3131C59.3013 79.3134 59.2971 79.3136 59.2928 79.314C58.6272 79.3536 57.9635 79.3986 57.302 79.4482C57.2489 79.4521 57.1959 79.4564 57.1428 79.4604C56.5236 79.5075 55.9067 79.5591 55.2925 79.6151C55.2263 79.6211 55.1602 79.6271 55.094 79.6332C54.4803 79.6901 53.8695 79.7516 53.2621 79.8173C53.21 79.823 53.1576 79.8284 53.1056 79.8341C52.4631 79.9047 51.8242 79.9797 51.1901 80.0603L48.396 66.4311C48.4364 66.4349 48.477 66.4385 48.5174 66.4423C48.8196 66.4713 49.1227 66.4995 49.4267 66.5271C49.5133 66.535 49.5993 66.5431 49.6859 66.5509C50.0601 66.5842 50.4355 66.6166 50.812 66.648C50.9405 66.6588 51.0693 66.6691 51.1982 66.6797C51.4701 66.7017 51.7426 66.7235 52.0156 66.7447C52.1515 66.7551 52.2873 66.7658 52.4235 66.7759C52.7972 66.804 53.1715 66.8316 53.5472 66.8578C53.6325 66.8638 53.7184 66.8692 53.8038 66.8751C54.116 66.8964 54.4287 66.9171 54.7422 66.9371C54.8892 66.9466 55.0362 66.9556 55.1835 66.9647C55.4549 66.9814 55.7269 66.9976 55.9991 67.0133C56.1318 67.021 56.2641 67.0289 56.397 67.0363C56.775 67.0574 57.1538 67.0775 57.5333 67.0967C57.666 67.1033 57.7991 67.1094 57.932 67.1159C58.2035 67.129 58.4754 67.1418 58.7478 67.1539C58.9037 67.1609 59.0595 67.1678 59.2157 67.1744C59.506 67.1867 59.7968 67.1984 60.0879 67.2095C60.2036 67.2141 60.3191 67.2188 60.435 67.223C60.8119 67.237 61.1896 67.2495 61.5675 67.2615C61.7276 67.2666 61.8878 67.2711 62.0482 67.2757C62.3 67.2831 62.552 67.2901 62.8043 67.2966C62.9685 67.3009 63.1325 67.3052 63.2968 67.3091C63.4469 67.3125 63.5971 67.3158 63.7472 67.3189L64.2484 79.1095C64.0236 79.1148 63.799 79.1207 63.5743 79.127ZM64.4447 36.7077C64.3875 36.7084 64.3306 36.7097 64.2735 36.7104C63.2937 36.7251 62.3135 36.7466 61.3336 36.7746C61.2512 36.7769 61.1691 36.7792 61.0869 36.7817C60.1096 36.8107 59.133 36.8464 58.1576 36.889C58.096 36.8917 58.0345 36.894 57.9728 36.8968C55.9177 36.9882 53.8695 37.1098 51.8362 37.2622C51.7644 37.2676 51.6929 37.2734 51.621 37.2789C50.6722 37.351 49.7271 37.4301 48.786 37.5159C48.6886 37.5247 48.5915 37.5337 48.4942 37.5426C48.0668 37.5823 47.6403 37.6233 47.2148 37.6657L50.3292 30.0803C50.345 30.083 50.3611 30.0857 50.3771 30.0885C50.4412 30.0998 50.5056 30.1107 50.57 30.1219C50.8112 30.1633 51.0542 30.2041 51.2991 30.2438C51.3454 30.2513 51.3912 30.259 51.4376 30.2665C51.7233 30.3124 52.0118 30.3569 52.3024 30.4003C52.359 30.4088 52.4163 30.4171 52.473 30.4255C52.722 30.4621 52.9724 30.4979 53.2246 30.5329C53.2837 30.5411 53.3425 30.5493 53.4018 30.5574C53.7005 30.5983 54.0011 30.6379 54.3042 30.6761C54.3414 30.6808 54.3791 30.6853 54.4164 30.69C54.6864 30.7237 54.9583 30.7564 55.2317 30.7881C55.2979 30.7959 55.3641 30.8036 55.4306 30.8112C56.0479 30.8817 56.6731 30.9471 57.3053 31.0073C57.3752 31.0139 57.4451 31.0206 57.515 31.0271C57.8198 31.0554 58.1257 31.083 58.4335 31.1091C58.4442 31.11 58.4547 31.111 58.4652 31.1118C58.7886 31.139 59.1139 31.1647 59.4403 31.1892C59.506 31.1941 59.5717 31.1989 59.6373 31.2038C59.925 31.2249 60.2137 31.2451 60.5034 31.2641C60.5458 31.2668 60.5879 31.2698 60.6303 31.2726C60.9596 31.2938 61.2903 31.3137 61.6222 31.3322C61.6769 31.3353 61.732 31.3381 61.7869 31.3412C62.0752 31.3569 62.3643 31.3715 62.6542 31.3851C62.7135 31.3879 62.7729 31.3908 62.8322 31.3935C63.1667 31.4087 63.5022 31.4227 63.8387 31.4353C63.875 31.4366 63.9114 31.4377 63.9476 31.4391C64.2505 31.45 64.5541 31.4597 64.8582 31.4684C64.925 31.4702 64.9918 31.4722 65.0586 31.4739C65.261 31.4794 65.4639 31.4842 65.6667 31.4886L65.386 36.6968C65.0723 36.6999 64.7585 36.7033 64.4447 36.7077ZM43.9532 45.4331L36.1253 64.4993C36.1188 64.4982 36.1123 64.4971 36.106 64.496L43.9473 45.4043L43.9532 45.4331ZM36.1003 64.794C36.1087 64.7955 36.1171 64.7971 36.1256 64.7984L41.6957 81.7752C41.6838 81.7782 41.672 81.7813 41.6601 81.7842L36.0844 64.7913C36.0897 64.7923 36.0949 64.7931 36.1003 64.794ZM42.6718 38.509C44.0694 38.3314 45.4818 38.1707 46.9053 38.0255L44.0153 45.062L42.6718 38.509ZM65.2851 31.121C65.1705 31.1182 65.0561 31.1149 64.9418 31.1117C64.8002 31.1078 64.6585 31.104 64.5172 31.0995C64.4041 31.0961 64.2914 31.0919 64.1785 31.0881C64.0372 31.0834 63.8957 31.0787 63.7545 31.0733C63.641 31.069 63.5277 31.0644 63.4144 31.0597C63.2744 31.0541 63.1343 31.0485 62.9946 31.0424C62.8829 31.0374 62.7714 31.0321 62.6599 31.0268C62.5181 31.0202 62.3763 31.0136 62.2348 31.0064C62.1272 31.0011 62.02 30.9952 61.9124 30.9894C61.7684 30.9818 61.6243 30.9741 61.4805 30.966C61.3757 30.96 61.2712 30.9536 61.1666 30.9473C61.0209 30.9386 60.8751 30.9299 60.7299 30.9207C60.6271 30.9142 60.5249 30.9072 60.4224 30.9005C60.2766 30.8908 60.1306 30.8811 59.9852 30.8709C59.8849 30.8638 59.785 30.8565 59.6849 30.8492C59.5373 30.8383 59.3893 30.8276 59.2422 30.8162C59.1454 30.8089 59.049 30.801 58.9525 30.7933C58.8041 30.7815 58.6556 30.7696 58.5079 30.7572C58.4121 30.7492 58.3171 30.7409 58.2217 30.7327C58.0735 30.7198 57.9253 30.7071 57.7778 30.6937C57.6845 30.6852 57.5918 30.6764 57.4989 30.6677C57.3497 30.6538 57.2005 30.6398 57.0521 30.6254C56.9623 30.6165 56.8732 30.6075 56.7838 30.5985C56.6337 30.5834 56.4836 30.5683 56.3345 30.5526C56.2451 30.5433 56.1564 30.5336 56.0674 30.5241C55.9199 30.5082 55.7725 30.4923 55.6258 30.4759C55.5365 30.4658 55.4478 30.4556 55.3589 30.4453C55.2124 30.4285 55.0661 30.4117 54.9205 30.3942C54.8338 30.3839 54.7477 30.3732 54.6614 30.3626C54.5147 30.3447 54.3682 30.3267 54.2224 30.3082C54.1379 30.2974 54.0537 30.2864 53.9694 30.2754C53.8245 30.2566 53.6795 30.2375 53.5356 30.2182C53.4499 30.2066 53.3648 30.1949 53.2796 30.1831C53.1373 30.1635 52.9954 30.1437 52.8543 30.1236C52.7704 30.1116 52.6868 30.0993 52.603 30.0872C52.4619 30.0666 52.3209 30.0458 52.1809 30.0247C52.0987 30.0122 52.0168 29.9995 51.935 29.987C51.795 29.9654 51.6553 29.9437 51.5165 29.9215C51.4356 29.9086 51.3553 29.8955 51.2749 29.8825C51.1356 29.8598 50.9968 29.837 50.8589 29.8138C50.7807 29.8005 50.7028 29.7872 50.625 29.7738C50.6039 29.7702 50.5831 29.7664 50.5621 29.7629L63.9996 14.733C64.8735 14.7052 65.7492 14.6868 66.6248 14.6779C66.6716 14.6775 66.7187 14.677 66.7657 14.6765C67.0232 14.6742 67.2804 14.6741 67.5378 14.6733L65.6937 31.1302C65.5575 31.1273 65.4211 31.1244 65.2851 31.121ZM50.4848 29.7495C50.4704 29.7469 50.4561 29.7445 50.4416 29.7419L56.7786 22.7099L50.4848 29.7495ZM34.9758 39.6893C35.0238 39.6806 35.0719 39.6719 35.1201 39.6631C35.5224 39.5904 35.9293 39.519 36.3395 39.4489C36.4322 39.433 36.5249 39.4171 36.6182 39.4013C36.987 39.339 37.36 39.278 37.7351 39.2178C37.8601 39.1977 37.984 39.1774 38.1097 39.1577C38.4606 39.1022 38.8156 39.0483 39.1718 38.9948C39.3169 38.973 39.4606 38.9508 39.6066 38.9293C39.9612 38.8771 40.3203 38.8264 40.68 38.7761C40.8249 38.7558 40.9678 38.7349 41.1135 38.7149C41.5838 38.6504 42.0587 38.5877 42.5372 38.5265L43.9232 45.2863L36.0382 64.4842C35.9767 64.4733 35.9144 64.4628 35.8531 64.4519C35.6261 64.4116 35.4017 64.3701 35.1768 64.3288C35.0206 64.3002 34.8632 64.272 34.7079 64.2429C34.483 64.2009 34.2609 64.1577 34.0383 64.1146C33.8862 64.0853 33.733 64.0565 33.5818 64.0267C33.3588 63.9828 33.1386 63.9378 32.9177 63.893C32.7698 63.8629 32.6209 63.8334 32.474 63.803C32.255 63.7577 32.0387 63.7112 31.8219 63.6651C31.6759 63.634 31.5286 63.6032 31.3835 63.5717C31.1697 63.5251 30.9587 63.4774 30.747 63.4301C30.6026 63.3978 30.4572 63.3658 30.3138 63.3331C30.1041 63.2852 29.8974 63.2363 29.6902 63.1875C29.5481 63.1541 29.4049 63.1212 29.2641 63.0873C29.059 63.038 28.8568 62.9878 28.6541 62.9378C28.5144 62.9032 28.3737 62.8691 28.2352 62.8343C28.0772 62.7944 27.9219 62.7537 27.7653 62.7132L22.6019 50.0199L29.1756 40.9011C31.0001 40.4668 32.9342 40.0611 34.9758 39.6893ZM27.6844 62.6925C27.6706 62.6889 27.6569 62.6854 27.6433 62.6818C27.6333 62.6794 27.6236 62.6768 27.6138 62.6742L22.515 50.1403L22.5556 50.0843L27.6844 62.6925ZM27.5327 62.6532C27.431 62.6266 27.3279 62.6006 27.227 62.5739C27.034 62.5229 26.8443 62.4707 26.6539 62.4188C26.5163 62.3814 26.3776 62.3444 26.2413 62.3064C26.0526 62.254 25.8671 62.2005 25.6811 62.1473C25.5473 62.109 25.4122 62.071 25.2796 62.0324C25.0966 61.9789 24.9168 61.9245 24.7364 61.8702C24.6039 61.8305 24.4702 61.791 24.3392 61.7506C24.1626 61.6965 23.9896 61.6413 23.8157 61.5864C23.6849 61.545 23.5529 61.5041 23.4236 61.4624C23.2534 61.4075 23.0866 61.3515 22.9192 61.2958C22.7899 61.2529 22.6596 61.2102 22.532 61.1669C22.3683 61.1112 22.2079 61.0547 22.0468 60.9983C21.9199 60.9539 21.7917 60.9097 21.6663 60.8648C21.5079 60.8082 21.3529 60.7505 21.197 60.6931C21.0733 60.6475 20.9484 60.6022 20.8264 60.5561C20.674 60.4986 20.5251 60.4402 20.3753 60.3819C20.2542 60.3348 20.1318 60.288 20.0126 60.2405C19.8666 60.1824 19.7241 60.1233 19.5808 60.0645C19.4621 60.0157 19.3422 59.9672 19.2254 59.9181C19.0866 59.8597 18.9514 59.8003 18.8151 59.7412C18.6984 59.6905 18.5803 59.6402 18.4654 59.5889C18.3339 59.5303 18.2058 59.4708 18.0769 59.4115C17.9623 59.3589 17.8465 59.3064 17.734 59.2533C17.6089 59.1942 17.4874 59.1342 17.3648 59.0745C17.2535 59.0202 17.1412 58.9662 17.0322 58.9115C16.9133 58.8517 16.798 58.7913 16.6817 58.7309C16.5942 58.6857 16.5063 58.6404 16.4205 58.5948L22.4687 50.2048L27.5327 62.6532ZM28.3374 63.1723C28.3774 63.1821 28.4181 63.1918 28.4582 63.2017C28.7266 63.268 28.9973 63.3334 29.27 63.3982C29.3594 63.4194 29.4491 63.4407 29.539 63.4618C29.7938 63.5215 30.0504 63.5806 30.3088 63.6392C30.3724 63.6536 30.4354 63.6683 30.4993 63.6825C30.8168 63.7539 31.1368 63.8241 31.4594 63.8935C31.5343 63.9096 31.6099 63.9254 31.6852 63.9413C31.9426 63.9961 32.2015 64.0503 32.4621 64.1037C32.5549 64.1229 32.6475 64.142 32.7407 64.1609C33.0553 64.2247 33.3716 64.2878 33.6907 64.3499C33.7075 64.3531 33.7238 64.3564 33.7405 64.3597C34.0745 64.4244 34.4116 64.488 34.7504 64.5509C34.8465 64.5687 34.943 64.5862 35.0393 64.6039C35.3036 64.6522 35.5691 64.7001 35.8359 64.7473C35.8939 64.7575 35.951 64.7682 36.0092 64.7784L41.5944 81.8005C39.5632 82.3064 37.7605 82.8688 36.212 83.4779L27.9079 63.0638C28.0507 63.1001 28.1932 63.1365 28.3374 63.1723ZM49.937 80.5313C49.9774 80.5258 50.0168 80.5198 50.0574 80.5143C50.413 80.4651 50.7722 80.4174 51.135 80.3711L57.8629 98.6977C57.7983 98.6929 57.7336 98.6881 57.6691 98.6833C57.5848 98.677 57.5 98.671 57.4158 98.6645C57.2051 98.6483 56.9956 98.6309 56.786 98.6137C56.7055 98.6071 56.6243 98.6008 56.5439 98.5941C56.3356 98.5764 56.1284 98.5579 55.9213 98.5395C55.8404 98.5323 55.759 98.5255 55.6783 98.5181C55.4764 98.4996 55.2755 98.4803 55.0746 98.461C54.9896 98.4527 54.904 98.4451 54.8192 98.4367C54.6136 98.4165 54.4094 98.3954 54.2051 98.3743C54.1268 98.3662 54.0477 98.3585 53.9696 98.3502C53.7696 98.3291 53.5712 98.3072 53.3725 98.2852C53.2903 98.2762 53.2073 98.2674 53.1252 98.2581C52.928 98.2359 52.7325 98.2129 52.5368 98.1897C52.4549 98.18 52.3722 98.1708 52.2905 98.161C52.097 98.1378 51.9049 98.1136 51.7128 98.0895C51.6299 98.079 51.5464 98.0691 51.4637 98.0585C51.2755 98.0345 51.0889 98.0095 50.902 97.9846C50.8167 97.9733 50.7309 97.9624 50.6459 97.9509C50.4571 97.9252 50.2699 97.8988 50.0826 97.8723C50.0014 97.8607 49.9196 97.8498 49.8388 97.8382C49.6484 97.8108 49.4598 97.7826 49.2711 97.7544C49.1947 97.743 49.1173 97.7319 49.0411 97.7204C48.8525 97.6917 48.6658 97.6621 48.479 97.6327C48.4039 97.6208 48.3279 97.6093 48.2531 97.5974C48.0707 97.5682 47.8903 97.538 47.7097 97.508C47.6315 97.495 47.5527 97.4823 47.4749 97.4692C47.3022 97.44 47.1312 97.4099 46.9601 97.3799C46.9342 97.3754 46.9081 97.371 46.8823 97.3664L41.8567 82.0492C44.2625 81.4573 46.9724 80.9445 49.937 80.5313ZM69.3952 99.0698C69.3202 99.0704 69.2449 99.0714 69.1699 99.0719C68.9298 99.0735 68.6899 99.0741 68.45 99.0745C68.3833 99.0746 68.3164 99.0751 68.2497 99.0752C68.0203 99.0752 67.7911 99.0742 67.5619 99.0731C67.4842 99.0729 67.4063 99.0729 67.3286 99.0725C67.1188 99.0712 66.9095 99.0688 66.7 99.0666C66.603 99.0655 66.5059 99.065 66.4089 99.0638C66.1761 99.061 65.9438 99.0571 65.7116 99.0529C65.6398 99.0517 65.5678 99.0508 65.4961 99.0496C65.3901 99.0475 65.2845 99.0448 65.1785 99.0426L64.3443 79.4149C64.7297 79.4061 65.1152 79.3955 65.5004 79.3898C65.5299 79.3893 65.5593 79.3888 65.5887 79.3883C66.2734 79.3786 66.9577 79.3735 67.6409 79.3735C68.0491 79.3735 68.457 79.3757 68.8642 79.3791C68.9377 79.3798 69.0112 79.3804 69.0846 79.3812C69.4793 79.3851 69.8737 79.3904 70.2672 79.3975C70.2772 79.3977 70.2873 79.3977 70.2974 79.398C70.4184 79.4001 70.5387 79.4037 70.6594 79.4063L69.4572 99.0691C69.4366 99.0693 69.4159 99.0696 69.3952 99.0698ZM44.0393 45.18L46.9809 38.0179C46.9868 38.0174 46.9926 38.0167 46.9983 38.0162L44.0453 45.2089L44.0393 45.18ZM63.8738 14.7377L50.3646 29.7285C50.315 29.7199 50.2649 29.7114 50.2153 29.7027C50.1359 29.6886 50.0568 29.6742 49.9778 29.66C49.8444 29.6359 49.7114 29.6116 49.5793 29.587C49.5007 29.5723 49.4226 29.5574 49.3445 29.5426C49.2136 29.5177 49.0831 29.4927 48.9534 29.4672C48.8757 29.452 48.7985 29.4365 48.7213 29.4212C48.5924 29.3953 48.4641 29.3694 48.3366 29.3432C48.26 29.3273 48.1839 29.3114 48.1078 29.2953C47.9823 29.269 47.857 29.2423 47.7328 29.2155C47.6563 29.1989 47.5802 29.1821 47.5042 29.1653C47.4113 29.1448 47.3191 29.1241 47.227 29.1033L48.324 26.8785L51.9521 19.5205L59.9467 14.9341C61.246 14.8466 62.5573 14.7811 63.8738 14.7377ZM48.2441 26.8885L47.1595 29.0882C47.1525 29.0866 47.1454 29.085 47.1384 29.0835C47.135 29.0828 47.1318 29.0819 47.1284 29.0812L51.8032 19.606L51.8476 19.5805L48.2441 26.8885ZM46.9697 29.4031C46.9707 29.4033 46.9717 29.4035 46.9726 29.4037C46.9819 29.406 46.9913 29.4082 47.0008 29.4104L42.678 38.1771C42.665 38.1787 42.6517 38.1803 42.6385 38.1819L46.5989 30.1549L46.9697 29.4031ZM27.8271 63.0433L36.1497 83.5027C36.1315 83.5099 36.1134 83.5169 36.0954 83.5241L27.7566 63.0256C27.7801 63.0315 27.8036 63.0374 27.8271 63.0433ZM41.791 82.0655L46.807 97.3533C46.7935 97.3509 46.7797 97.3485 46.7661 97.3462L41.7553 82.0745C41.7672 82.0716 41.7791 82.0686 41.791 82.0655ZM70.3425 79.095C70.2496 79.0932 70.1565 79.0921 70.0635 79.0905C69.7611 79.0853 69.4581 79.0813 69.1549 79.078C69.0311 79.0766 68.9073 79.0754 68.7835 79.0744C68.4186 79.0715 68.0536 79.0695 67.688 79.0694C67.666 79.0693 67.6441 79.069 67.6221 79.069C67.6089 79.069 67.5955 79.0693 67.5824 79.0693C66.9295 79.0695 66.2755 79.0744 65.6212 79.0835C65.554 79.0845 65.4867 79.0858 65.4196 79.0868C65.0568 79.0923 64.6941 79.0993 64.3311 79.1077L63.8302 67.3206C64.0129 67.3246 64.1955 67.3285 64.3784 67.332C64.5319 67.3349 64.6858 67.3371 64.8395 67.3396C65.1073 67.3441 65.3753 67.3481 65.6434 67.3515C65.8194 67.3539 65.9954 67.3558 66.1717 67.3577C66.4218 67.3603 66.672 67.3623 66.9224 67.364C67.0826 67.3652 67.2426 67.3666 67.4028 67.3674C67.7546 67.3691 68.1066 67.37 68.4589 67.37C68.4693 67.37 68.4798 67.3697 68.4901 67.3697C69.3569 67.3696 70.2249 67.3641 71.0933 67.3535L70.675 79.1021C70.5642 79.0998 70.4535 79.0971 70.3425 79.095ZM63.7332 67.0319C63.466 67.0263 63.1986 67.0209 62.9318 67.0143C62.7317 67.0091 62.5322 67.0029 62.3324 66.9972C62.0724 66.99 61.8123 66.9832 61.5529 66.975C61.3449 66.9684 61.1374 66.9605 60.9296 66.9534C60.6795 66.9447 60.4291 66.9366 60.1796 66.9272C59.9688 66.9191 59.7587 66.91 59.5484 66.9013C59.302 66.8912 59.0552 66.8816 58.8095 66.8706C58.5971 66.8612 58.3856 66.8505 58.1737 66.8405C57.9319 66.8291 57.6895 66.818 57.4484 66.8057C57.2284 66.7946 57.0096 66.7821 56.7902 66.7703C56.5582 66.7578 56.3258 66.7457 56.0945 66.7324C55.8714 66.7195 55.6497 66.7055 55.4273 66.6921C55.2 66.6783 54.9721 66.6649 54.7455 66.6505C54.5218 66.6361 54.2994 66.6207 54.0765 66.6057C53.8532 66.5906 53.6295 66.576 53.4072 66.5603C53.178 66.5441 52.9503 66.5268 52.7221 66.5099C52.507 66.494 52.2914 66.4785 52.077 66.462C51.8449 66.4441 51.6142 66.4248 51.383 66.406C51.174 66.3892 50.9645 66.3728 50.7562 66.3553C50.5218 66.3355 50.2889 66.3147 50.0555 66.2941C49.852 66.2763 49.648 66.2588 49.4451 66.2403C49.2059 66.2186 48.9681 66.1955 48.7299 66.173C48.5984 66.1605 48.4666 66.1482 48.3354 66.1355L44.0695 45.3267L47.0741 38.0086C53.0518 37.4043 59.2266 37.0818 65.3687 37.02L63.751 67.0323C63.7451 67.0322 63.7392 67.0322 63.7332 67.0319ZM72.1392 36.7341C71.9635 36.7304 71.7879 36.7263 71.6121 36.7232C71.2454 36.7163 70.8785 36.7105 70.5113 36.7055C70.3346 36.7032 70.1579 36.7013 69.9811 36.6995C69.7454 36.6968 69.5097 36.6945 69.2738 36.6926C69.0886 36.6911 68.9032 36.6898 68.7179 36.6888C68.444 36.6873 68.1698 36.6866 67.8956 36.6861C67.0865 36.6848 66.2763 36.6883 65.4655 36.6959L65.746 31.4903C66.1943 31.4999 66.6434 31.5069 67.0936 31.5114C67.1644 31.512 67.2349 31.5128 67.3057 31.5134C67.6354 31.5161 67.9656 31.5179 68.2961 31.5179C68.3026 31.5179 68.3092 31.518 68.3157 31.518H68.3193C68.8914 31.5179 69.4646 31.5137 70.0379 31.5055C70.0656 31.5052 70.0933 31.5045 70.121 31.5042C70.6586 31.4961 71.1963 31.4844 71.7339 31.4691L72.1614 36.7344L72.1392 36.7341ZM41.6896 82.0908L46.6908 97.333C46.6368 97.3233 46.5837 97.3132 46.5298 97.3035L36.3654 83.7385C37.9045 83.1419 39.6895 82.5889 41.6896 82.0908ZM71.484 31.1165C71.347 31.1202 71.2099 31.123 71.0729 31.1262C70.9506 31.129 70.8283 31.132 70.7061 31.1345C70.5725 31.1371 70.4389 31.1392 70.3053 31.1414C70.1798 31.1435 70.0543 31.1458 69.9288 31.1474C69.7976 31.1492 69.6664 31.1503 69.5352 31.1517C69.4077 31.1529 69.2802 31.1545 69.1527 31.1553C69.0238 31.1563 68.8952 31.1566 68.7664 31.1571C68.6361 31.1576 68.5058 31.1583 68.3757 31.1584C68.2489 31.1585 68.1222 31.1579 67.9955 31.1576C67.8644 31.1573 67.7332 31.1572 67.6023 31.1565C67.4769 31.1557 67.3514 31.1544 67.2261 31.1533C67.0934 31.1522 66.9605 31.1512 66.828 31.1495C66.7063 31.1481 66.5847 31.146 66.4631 31.1442C66.3272 31.1421 66.1912 31.1403 66.0555 31.1377C65.9631 31.136 65.8709 31.1338 65.7787 31.1319L67.6095 14.6731C67.712 14.6728 67.8144 14.6717 67.9167 14.6717C67.9983 14.6718 68.0797 14.6723 68.1613 14.6725C68.4607 14.6732 68.7601 14.6754 69.0592 14.6783C69.2132 14.6799 69.367 14.6817 69.5208 14.6839C69.7726 14.6873 70.024 14.6917 70.2753 14.6966C70.3077 14.6974 70.3402 14.6982 70.3727 14.6988L71.7048 31.11C71.6313 31.1121 71.5577 31.1145 71.484 31.1165ZM49.8532 23.4068L47.0612 29.0657C47.0114 29.0543 46.9616 29.0428 46.9119 29.0313C46.7927 29.0037 46.674 28.9758 46.5561 28.9476C46.4808 28.9297 46.406 28.9114 46.3312 28.8933C46.2152 28.8649 46.0996 28.8366 45.985 28.8078C45.9101 28.789 45.8358 28.77 45.7616 28.7511C45.6493 28.7223 45.5375 28.6935 45.4266 28.6642C45.3521 28.6445 45.278 28.6248 45.2042 28.6049C45.0956 28.5757 44.9877 28.5464 44.8806 28.5167C44.8064 28.4963 44.7326 28.4755 44.6591 28.4548C44.5539 28.4251 44.4494 28.3952 44.3458 28.365C44.2726 28.3438 44.2 28.3225 44.1277 28.301C44.0261 28.2708 43.9251 28.2404 43.825 28.2099C43.7527 28.1878 43.6808 28.1656 43.6093 28.1433C43.5111 28.1126 43.4136 28.0818 43.317 28.0508C43.2452 28.0277 43.1739 28.0045 43.1029 27.9812C43.0092 27.9504 42.9164 27.9195 42.8243 27.8885C42.7525 27.8642 42.6813 27.8398 42.6104 27.8154C42.5211 27.7845 42.4322 27.7533 42.3441 27.7219C42.2731 27.6968 42.2028 27.6714 42.1329 27.646C42.0474 27.6149 41.9626 27.5836 41.8787 27.5521C41.8084 27.5257 41.7386 27.4992 41.6691 27.4726C41.5881 27.4414 41.5076 27.41 41.4281 27.3786C41.3583 27.351 41.2892 27.3233 41.2207 27.2956C41.1437 27.2643 41.0676 27.2331 40.9921 27.2015C40.9233 27.1728 40.855 27.1439 40.7874 27.1149C40.7142 27.0835 40.6419 27.052 40.5701 27.0202C40.5031 26.9907 40.4366 26.9609 40.3708 26.9311C40.3014 26.8996 40.2329 26.8678 40.1649 26.836C40.0986 26.805 40.0329 26.774 39.968 26.7427C39.9034 26.7115 39.8395 26.6801 39.7762 26.6486C39.7316 26.6264 39.6876 26.6042 39.6437 26.5819L51.6988 19.6659L49.8532 23.4068ZM39.7585 27.0108C39.7816 27.0222 39.8058 27.0335 39.8291 27.0449C39.977 27.117 40.1288 27.1884 40.2835 27.2589C40.3251 27.2779 40.3666 27.2969 40.4086 27.3158C40.588 27.3962 40.7705 27.4759 40.9586 27.5542C40.9635 27.5562 40.9686 27.5582 40.9734 27.5603C41.156 27.6361 41.3438 27.7107 41.5343 27.7846C41.5819 27.8031 41.6299 27.8214 41.678 27.8398C41.8609 27.9096 42.0466 27.9786 42.2364 28.0467C42.2525 28.0524 42.2678 28.0582 42.2839 28.064C42.4897 28.1374 42.7003 28.2092 42.9142 28.2805C42.9647 28.2973 43.0157 28.314 43.0667 28.3308C43.25 28.3909 43.4357 28.4501 43.6243 28.5086C43.6624 28.5205 43.6998 28.5326 43.738 28.5442C43.9601 28.6124 44.1862 28.6795 44.4156 28.7455C44.4634 28.7592 44.512 28.7727 44.5601 28.7864C44.7539 28.8414 44.9502 28.8957 45.149 28.9493C45.2007 28.9632 45.2519 28.9773 45.304 28.9911C45.5423 29.0544 45.7837 29.1169 46.0288 29.1779C46.0657 29.1871 46.1036 29.1961 46.1407 29.2052C46.3544 29.258 46.5707 29.3099 46.7892 29.3611C46.8273 29.3699 46.8641 29.3792 46.9023 29.3879L42.5587 38.1917C42.5435 38.1936 42.5279 38.1955 42.5127 38.1974C42.0193 38.2602 41.5317 38.3252 41.0473 38.3915C40.9128 38.4098 40.7796 38.4288 40.6458 38.4474C40.2783 38.4986 39.9132 38.5507 39.5509 38.6038C39.4283 38.6218 39.3057 38.6399 39.1836 38.6581C38.7517 38.7225 38.3236 38.7883 37.8994 38.8552C37.8655 38.8606 37.8312 38.8658 37.7974 38.8712C34.827 39.3434 32.0468 39.8816 29.4806 40.478L39.3418 26.7987C39.4771 26.8702 39.6165 26.9408 39.7585 27.0108ZM36.3011 83.7637L46.4335 97.286C46.4245 97.2843 46.4154 97.2826 46.4064 97.2809L36.2441 83.786C36.2631 83.7785 36.2821 83.771 36.3011 83.7637ZM80.4161 98.5401C80.3398 98.5471 80.2639 98.5545 80.1874 98.5612C79.9284 98.584 79.6688 98.6058 79.409 98.627C79.3664 98.6305 79.3241 98.6344 79.2815 98.6379C79.0647 98.6554 78.8472 98.6718 78.6296 98.6882C78.5431 98.6947 78.4567 98.7019 78.3699 98.7084C78.1391 98.7253 77.9076 98.7411 77.6763 98.7569C77.6033 98.762 77.5308 98.7675 77.4579 98.7723C77.192 98.7901 76.9255 98.8066 76.659 98.8228C76.6204 98.8251 76.5819 98.8277 76.5433 98.83C76.2997 98.8446 76.0558 98.858 75.8117 98.8712C75.7492 98.8745 75.6869 98.8785 75.6242 98.8818C75.4064 98.8932 75.1882 98.9036 74.97 98.9141C74.8811 98.9184 74.7924 98.9231 74.7034 98.9272C74.5066 98.9363 74.3097 98.9442 74.1128 98.9525C74.0022 98.9571 73.8917 98.9622 73.7811 98.9665C73.5711 98.9748 73.3609 98.9819 73.1508 98.9893C73.0539 98.9926 72.9572 98.9965 72.8605 98.9997C72.6531 99.0064 72.4456 99.0122 72.2382 99.0179C72.1377 99.0208 72.0371 99.0241 71.9365 99.0268C71.7184 99.0324 71.5004 99.0371 71.2824 99.0417C71.1932 99.0437 71.104 99.0462 71.0148 99.0478C70.7722 99.0525 70.5298 99.0562 70.2873 99.0598C70.2227 99.0606 70.1579 99.062 70.0933 99.0629C69.9063 99.0653 69.7195 99.0666 69.5326 99.0684L70.74 79.4081C71.0048 79.4138 71.2697 79.4192 71.5338 79.4263C71.5986 79.428 71.6631 79.43 71.7278 79.4318C72.0922 79.4423 72.4559 79.4538 72.8187 79.4669C72.8673 79.4686 72.9162 79.4701 72.9647 79.4719C73.3734 79.4871 73.781 79.5039 74.1872 79.5225C74.2272 79.5243 74.267 79.5264 74.3069 79.5282C74.6723 79.5453 75.0364 79.5638 75.3995 79.5835C75.4648 79.5871 75.5301 79.5905 75.5952 79.5941C76.3911 79.6386 77.181 79.6899 77.9639 79.7474C78.0358 79.7528 78.1077 79.7581 78.1794 79.7635C78.96 79.8221 79.7334 79.8872 80.4982 79.9587C80.5638 79.9649 80.6291 79.9711 80.6947 79.9774C81.0442 80.0106 81.3922 80.0451 81.7381 80.0809C81.7727 80.0845 81.8074 80.0879 81.842 80.0914C82.2225 80.1313 82.6008 80.1729 82.9765 80.2158C83.0292 80.2218 83.0816 80.2281 83.1341 80.2342C83.4634 80.2724 83.7905 80.3117 84.1158 80.3523C84.1743 80.3596 84.233 80.3667 84.2912 80.374C84.6594 80.4207 85.0252 80.4685 85.3878 80.518C85.4156 80.5218 85.4431 80.5259 85.4708 80.5297C85.8015 80.5752 86.1294 80.6222 86.4552 80.6703C86.5236 80.6803 86.5921 80.6904 86.6603 80.7006C87.3623 80.8055 88.0525 80.9165 88.7298 81.0333C88.7709 81.0403 88.8118 81.0475 88.8528 81.0546L80.6465 98.519C80.5697 98.526 80.4929 98.5332 80.4161 98.5401ZM58.1245 99.0912C58.4101 99.1118 58.6963 99.1313 58.9836 99.1501C59.0534 99.1546 59.1236 99.1587 59.1935 99.1632C59.5116 99.1835 59.8307 99.2025 60.1506 99.2207C60.2523 99.2265 60.354 99.2324 60.4558 99.2379C60.8335 99.2585 61.2119 99.278 61.592 99.2955C61.642 99.2978 61.6921 99.2998 61.7421 99.302C62.0838 99.3174 62.4265 99.3316 62.7699 99.3446C62.8697 99.3484 62.9695 99.3522 63.0695 99.3557C63.4565 99.3696 63.8441 99.3823 64.2329 99.3931C64.2621 99.394 64.2914 99.3945 64.3204 99.3953C64.5863 99.4026 64.8524 99.4092 65.1191 99.415L67.7942 125.553L58.1245 99.0912ZM88.9215 81.0665C88.9264 81.0675 88.9312 81.0683 88.936 81.0691C88.9385 81.0695 88.9408 81.07 88.9431 81.0704L83.8879 91.7788L88.9215 81.0665ZM88.6814 80.7251C88.3801 80.6732 88.0772 80.6223 87.771 80.5728C87.7203 80.5647 87.6693 80.5565 87.6185 80.5483C87.3191 80.5004 87.0169 80.4539 86.7129 80.4081C86.6043 80.3918 86.4953 80.3758 86.3862 80.3597C86.1193 80.3205 85.8509 80.2821 85.581 80.2446C85.5027 80.2337 85.4254 80.2225 85.3469 80.2118C85.0147 80.1664 84.6796 80.1225 84.3426 80.0797C84.2338 80.0658 84.1242 80.0525 84.0149 80.0389C83.7552 80.0067 83.4942 79.9753 83.232 79.9446C83.1281 79.9325 83.0247 79.9201 82.9203 79.9081C82.579 79.8692 82.2356 79.8315 81.8903 79.7951C81.7906 79.7846 81.69 79.7746 81.59 79.7643C81.32 79.7366 81.0489 79.7096 80.7766 79.6835C80.6609 79.6724 80.5452 79.6612 80.429 79.6504C80.0761 79.6175 79.7218 79.5856 79.3653 79.5555C79.2957 79.5496 79.2253 79.5442 79.1555 79.5384C78.8535 79.5134 78.5503 79.4892 78.2459 79.4662C78.1244 79.457 78.0028 79.4479 77.8809 79.439C77.5718 79.4164 77.2616 79.3947 76.9504 79.3742C76.8833 79.3698 76.8167 79.3649 76.7497 79.3606C76.3865 79.337 76.0215 79.3154 75.6557 79.2947C75.5342 79.2879 75.4126 79.2813 75.2909 79.2748C75.004 79.2594 74.7164 79.2448 74.4282 79.2311C74.3265 79.2262 74.225 79.221 74.1231 79.2163C73.7547 79.1996 73.385 79.1844 73.0145 79.1705C72.9032 79.1663 72.7915 79.1626 72.6799 79.1587C72.3921 79.1485 72.1038 79.1393 71.8148 79.1309C71.6982 79.1274 71.5817 79.1239 71.4649 79.1208C71.2283 79.1144 70.9913 79.109 70.7543 79.1039L71.1726 67.3528C71.3158 67.3509 71.4586 67.3493 71.6017 67.3472L71.667 67.3462C72.6741 67.3314 73.6818 67.3092 74.6891 67.2803C74.7649 67.2781 74.8405 67.2758 74.9161 67.2734C75.8868 67.2446 76.8567 67.2092 77.8254 67.167C77.9022 67.1637 77.9788 67.1605 78.0556 67.157C79.065 67.112 80.0728 67.0603 81.0781 67.0005C81.0943 66.9995 81.1106 66.9988 81.1268 66.9978C82.1496 66.9369 83.1696 66.868 84.186 66.7917C84.2432 66.7874 84.3003 66.7827 84.3575 66.7784C85.3173 66.7054 86.2734 66.6253 87.2252 66.5386C87.319 66.53 87.4127 66.5213 87.5064 66.5126C88.442 66.4259 89.3732 66.3324 90.2994 66.2321C90.3788 66.2235 90.4584 66.2152 90.538 66.2065C91.3213 66.1205 92.1004 66.0293 92.8759 65.9333L88.9614 80.7738C88.8684 80.7573 88.775 80.7411 88.6814 80.7251ZM70.8012 67.0698C70.4956 67.0731 70.1898 67.0767 69.8844 67.0788C69.7169 67.0799 69.5497 67.0799 69.3824 67.0806C69.0843 67.0818 68.7864 67.0835 68.4886 67.0835C68.3098 67.0837 68.1311 67.0826 67.9523 67.0821C67.6668 67.0815 67.3811 67.0812 67.0958 67.0795C66.9082 67.0783 66.7209 67.076 66.5335 67.0744C66.2568 67.0719 65.9801 67.07 65.7038 67.0664C65.5138 67.0641 65.3245 67.0605 65.1346 67.0577C64.8615 67.0536 64.5883 67.0498 64.3156 67.0447C64.1539 67.0416 63.9926 67.0374 63.831 67.0341L65.448 37.0192C67.698 36.9974 69.9431 37.0104 72.1723 37.0575L71.1035 67.0669C71.0026 67.0681 70.902 67.0687 70.8012 67.0698ZM84.2892 37.3342C84.2802 37.3335 84.271 37.3327 84.262 37.3321C84.0955 37.319 83.9285 37.3064 83.7614 37.2936C83.5306 37.276 83.2993 37.2588 83.0676 37.242C82.8976 37.2296 82.7278 37.2171 82.5575 37.2052C82.2342 37.1825 81.9101 37.1605 81.5854 37.1392C81.402 37.1272 81.218 37.1158 81.0341 37.1042C80.7876 37.0888 80.541 37.0736 80.2937 37.059C80.1153 37.0484 79.9367 37.0381 79.7581 37.0281C79.5207 37.0146 79.283 37.0017 79.0449 36.9891C78.8817 36.9804 78.7188 36.9714 78.5552 36.9631C78.1947 36.9448 77.8336 36.9275 77.4717 36.9109C77.2959 36.903 77.1197 36.8955 76.9436 36.8879C76.7132 36.878 76.4826 36.8682 76.2516 36.8591C76.069 36.8518 75.8864 36.8445 75.7034 36.8376C75.4226 36.8272 75.1412 36.8175 74.8596 36.8079C74.6279 36.8002 74.396 36.7928 74.1638 36.7858C73.9091 36.7781 73.6543 36.7708 73.3991 36.7639C73.2121 36.7589 73.0249 36.7542 72.8376 36.7497C72.6415 36.745 72.4452 36.7404 72.2488 36.7363L71.8207 31.4671C71.8465 31.4664 71.8724 31.4652 71.898 31.4643C72.4325 31.4484 72.9664 31.4289 73.4996 31.4057C73.5422 31.4038 73.5848 31.4021 73.6275 31.4002C74.1924 31.375 74.7564 31.3461 75.3189 31.3126C75.3207 31.3125 75.3224 31.3123 75.3242 31.3123C75.89 31.2786 76.4542 31.2405 77.0165 31.1983C77.0546 31.1955 77.0924 31.1923 77.1305 31.1894C77.6569 31.1493 78.1811 31.1056 78.7033 31.058C78.7574 31.0531 78.8116 31.048 78.8656 31.043C79.383 30.995 79.898 30.9433 80.4101 30.8878C80.454 30.8831 80.4979 30.8785 80.5417 30.8737C81.0858 30.814 81.627 30.7504 82.164 30.682L82.6283 32.1354L84.2892 37.3342ZM84.6548 98.0815C83.5536 98.2218 82.4383 98.3461 81.3134 98.4559C81.2387 98.4632 81.1644 98.471 81.0897 98.4781C80.9889 98.4878 80.8875 98.4967 80.7866 98.506L89.0117 81.0827C89.0816 81.095 89.1502 81.1077 89.2198 81.1203L84.6726 98.0792C84.6667 98.08 84.6608 98.0808 84.6548 98.0815ZM89.0283 80.7856L92.948 65.9245C92.9539 65.9236 92.9598 65.923 92.9657 65.9223L89.0445 80.7884C89.039 80.7874 89.0336 80.7864 89.0283 80.7856ZM81.4346 30.4113C81.2946 30.4281 81.1539 30.4438 81.0133 30.4599C80.9045 30.4724 80.7962 30.4854 80.6871 30.4974C80.5298 30.515 80.3717 30.5316 80.2138 30.5484C80.1216 30.5582 80.0297 30.5683 79.9375 30.578C79.7796 30.5943 79.6209 30.6097 79.4627 30.6254C79.3689 30.6346 79.2755 30.6443 79.1815 30.6533C79.0325 30.6676 78.883 30.6809 78.7335 30.6947C78.6295 30.7041 78.5258 30.7141 78.4217 30.7232C78.2814 30.7356 78.1406 30.7473 78.0001 30.7591C77.886 30.7688 77.7722 30.7788 77.658 30.788C77.5202 30.7992 77.382 30.8095 77.2441 30.8201C77.1271 30.8292 77.0104 30.8385 76.8933 30.8473C76.7544 30.8576 76.6152 30.8669 76.4762 30.8767C76.3592 30.8849 76.2424 30.8934 76.1252 30.9012C75.9779 30.9111 75.8303 30.9202 75.6826 30.9294C75.5746 30.9363 75.4669 30.9434 75.3588 30.9499C75.2094 30.9587 75.0596 30.9668 74.91 30.9753C74.8018 30.9813 74.6935 30.9878 74.5851 30.9936C74.4419 31.0012 74.2985 31.0079 74.1554 31.015C74.0405 31.0207 73.9258 31.0267 73.8108 31.032C73.6687 31.0386 73.5262 31.0444 73.384 31.0505C73.2682 31.0554 73.1524 31.0607 73.0364 31.0652C72.8955 31.0708 72.7546 31.0756 72.6137 31.0808C72.4958 31.085 72.378 31.0895 72.2601 31.0934C72.1206 31.098 71.9811 31.1019 71.8414 31.1061C71.8247 31.1065 71.8082 31.107 71.7916 31.1074L70.4587 14.7008C70.5913 14.7036 70.7242 14.7062 70.8566 14.7096C70.9462 14.7118 71.0356 14.7147 71.1252 14.717C71.1542 14.7179 71.1831 14.7187 71.2121 14.7196L81.9744 30.3449C81.7948 30.3674 81.615 30.3899 81.4346 30.4113ZM65.2088 99.4166C65.2784 99.418 65.348 99.4192 65.4176 99.4205C65.5172 99.4225 65.6171 99.4243 65.7168 99.426C66.5047 99.4397 67.2952 99.447 68.0874 99.4479C68.1359 99.4479 68.1843 99.4485 68.2329 99.4485C68.2646 99.4485 68.2967 99.4479 68.3284 99.4479C68.6968 99.4476 69.0654 99.4461 69.4343 99.4431L67.847 125.401L65.2088 99.4166ZM89.1113 80.8L93.0379 65.9135C93.1272 65.9022 93.2169 65.8915 93.3062 65.8803L89.2969 80.8326C89.2354 80.8216 89.173 80.8109 89.1113 80.8ZM93.1183 65.6083L93.2104 65.2592L93.3143 65.5843C93.2492 65.5925 93.1835 65.6002 93.1183 65.6083ZM93.1722 65.1394L93.0461 65.6172C93.0402 65.618 93.0344 65.6187 93.0284 65.6194L93.1628 65.1101L93.1722 65.1394ZM92.9563 65.6283C92.6476 65.6668 92.3391 65.7057 92.029 65.7426C92.0174 65.7439 92.0057 65.7452 91.9941 65.7466C91.5576 65.7985 91.12 65.8489 90.6811 65.8977C90.6061 65.9061 90.5307 65.9137 90.4557 65.9219C90.0795 65.9633 89.7028 66.0041 89.3249 66.0432C89.2263 66.0534 89.1272 66.0626 89.0285 66.0727C88.6739 66.1087 88.3191 66.1446 87.9631 66.1787C87.8485 66.1897 87.7333 66.1997 87.6185 66.2104C87.2762 66.2425 86.9338 66.2747 86.5902 66.305C86.5148 66.3116 86.4391 66.3176 86.3637 66.3241C85.982 66.3573 85.5999 66.3901 85.2169 66.421C85.1064 66.4301 84.9955 66.438 84.8851 66.4467C84.5356 66.4745 84.1861 66.5019 83.8358 66.5278C83.7257 66.5359 83.6152 66.5432 83.5051 66.551C83.1542 66.5763 82.8032 66.6014 82.4514 66.6248C82.3306 66.6329 82.2095 66.64 82.0885 66.6479C81.7465 66.67 81.4046 66.6922 81.062 66.7125C80.9399 66.7198 80.8174 66.7262 80.6953 66.7333C80.3537 66.753 80.0123 66.7726 79.6703 66.7908C79.5396 66.7977 79.4085 66.8035 79.2777 66.8102C78.9436 66.8271 78.6096 66.8443 78.2752 66.8596C78.1406 66.8657 78.0059 66.8709 77.8713 66.8769C77.5405 66.8914 77.2098 66.9061 76.8788 66.9191C76.7385 66.9245 76.5981 66.929 76.4579 66.9343C76.1319 66.9464 75.8057 66.9587 75.4796 66.9694C75.3386 66.9739 75.1975 66.9776 75.0566 66.9818C74.7312 66.9918 74.4059 67.0019 74.0804 67.0103C73.9312 67.0143 73.782 67.0171 73.6328 67.0206C73.3158 67.0282 72.9989 67.0361 72.682 67.0422C72.5239 67.0453 72.3661 67.0474 72.2082 67.0501C71.8997 67.0554 71.5908 67.061 71.2823 67.0651C71.2491 67.0654 71.216 67.0657 71.1828 67.066L72.2513 37.0592C76.3792 37.1479 80.4511 37.3529 84.3957 37.6676L93.1246 64.9902L92.9563 65.6283ZM82.0491 30.3358L78.6285 25.3695L82.0736 30.3327C82.0655 30.3337 82.0573 30.3347 82.0491 30.3358ZM70.3727 14.2973L68.4027 10.6405L70.93 14.3099C70.7445 14.3051 70.5585 14.3012 70.3727 14.2973ZM47.8908 97.9189C47.9811 97.9336 48.0707 97.9487 48.1615 97.9631C48.4778 98.0138 48.797 98.0631 49.1183 98.1113C49.22 98.1265 49.3225 98.1414 49.4245 98.1563C49.6796 98.1937 49.936 98.2304 50.194 98.2663C50.2913 98.2798 50.3881 98.2936 50.4858 98.3069C50.8147 98.3518 51.146 98.3953 51.4795 98.4376C51.579 98.4502 51.6793 98.4623 51.779 98.4749C52.0449 98.5077 52.3121 98.54 52.5806 98.5712C52.6832 98.5833 52.7853 98.5955 52.8882 98.6072C53.2292 98.646 53.5719 98.6837 53.9168 98.72C54.011 98.73 54.1058 98.7394 54.2002 98.7491C54.4804 98.7779 54.7616 98.8059 55.0441 98.833C55.1482 98.843 55.2522 98.8531 55.3567 98.8629C55.7099 98.8958 56.0646 98.9277 56.4213 98.958C56.506 98.9651 56.5913 98.9718 56.6762 98.9788C56.9738 99.0035 57.2725 99.0272 57.5722 99.05C57.6753 99.0578 57.7783 99.0657 57.8817 99.0733C57.9226 99.0763 57.9633 99.0795 58.0042 99.0825L67.6979 125.488L67.5438 125.342L47.1495 97.7949C47.395 97.837 47.6422 97.8783 47.8908 97.9189ZM84.7454 98.0696L89.2868 81.1323C89.2926 81.1333 89.2984 81.1344 89.3042 81.1355L84.764 98.0672C84.7577 98.0679 84.7517 98.0687 84.7454 98.0696ZM70.2956 14.2956C70.2946 14.2956 70.2935 14.2954 70.2926 14.2954L70.2106 14.1378L70.2956 14.2956ZM67.583 14.2703C66.5135 14.2721 65.4414 14.2884 64.3699 14.3189L67.8983 10.3723L68.0241 10.3001C68.0255 10.3003 68.0265 10.3002 68.0279 10.3003L67.583 14.2703ZM47.055 97.779L56.6633 110.758L46.9732 97.7654C47.0002 97.7701 47.0279 97.7744 47.055 97.779ZM67.9033 125.596L69.5096 99.4427C69.7537 99.4405 69.9978 99.4374 70.2421 99.4339C70.2838 99.4334 70.3254 99.433 70.3671 99.4324C71.041 99.4225 71.7153 99.4079 72.3894 99.3882C72.4115 99.3876 72.4335 99.3869 72.4555 99.3861C73.1108 99.3669 73.7657 99.3427 74.4195 99.3143C74.4765 99.3117 74.5332 99.3092 74.5902 99.3067C75.228 99.2781 75.8648 99.2451 76.5001 99.2077C76.545 99.2051 76.5898 99.2025 76.6348 99.2C77.3064 99.1596 77.9763 99.1149 78.6437 99.0646C78.6531 99.0638 78.6626 99.063 78.6722 99.0624C79.2706 99.0171 79.8669 98.9678 80.4607 98.9143L67.9388 125.563L67.9033 125.596ZM89.3638 80.845L93.3787 65.8714C93.385 65.8705 93.3915 65.8698 93.3977 65.8691L89.3812 80.8482C89.3754 80.8471 89.3697 80.846 89.3638 80.845ZM93.3826 65.5757L93.2425 65.1373L93.2436 65.1334L93.3849 65.5754C93.3841 65.5756 93.3834 65.5755 93.3826 65.5757ZM93.2043 65.0176L93.195 64.9883L93.196 64.9844L93.2054 65.0136L93.2043 65.0176ZM93.1567 64.8684L92.9184 64.1225L86.8614 45.1637L93.1577 64.8645L93.1567 64.8684ZM99.4669 39.1866C99.3439 39.1657 99.2208 39.1446 99.0973 39.1237C98.8021 39.0739 98.5055 39.0249 98.2071 38.9765C98.1181 38.9621 98.029 38.9477 97.9397 38.9334C97.6383 38.8853 97.3354 38.8378 97.0312 38.7911C96.8993 38.7708 96.7669 38.7509 96.6347 38.7309C96.3926 38.6944 96.1495 38.6584 95.9056 38.6228C95.7828 38.6049 95.6605 38.5867 95.5372 38.5691C95.1968 38.5203 94.855 38.4723 94.5113 38.4252C94.389 38.4085 94.2658 38.3923 94.143 38.3758C93.8964 38.3427 93.649 38.3099 93.4006 38.2776C93.257 38.259 93.1136 38.2405 92.9695 38.2222C92.7018 38.1881 92.433 38.1548 92.1633 38.1218C92.033 38.1058 91.903 38.0899 91.7722 38.0742C91.4512 38.0357 91.1287 37.998 90.8052 37.9611C90.6556 37.944 90.5053 37.9272 90.3552 37.9105C90.1182 37.8841 89.8807 37.8581 89.6423 37.8324C89.4938 37.8165 89.3453 37.8003 89.1961 37.7847C88.8458 37.7479 88.4946 37.7119 88.1418 37.6768C88.0041 37.6632 87.8655 37.65 87.7274 37.6367C87.4807 37.6128 87.2337 37.5891 86.9858 37.566C86.8228 37.5509 86.6598 37.536 86.4962 37.5211C86.2476 37.4987 85.9983 37.4769 85.7483 37.4553C85.6068 37.443 85.4655 37.4304 85.3236 37.4184C85.0279 37.3936 84.7311 37.3693 84.4339 37.3456L82.2986 30.6644C82.5814 30.6279 82.8621 30.5909 83.1394 30.5524C83.1652 30.549 83.1902 30.545 83.216 30.5415C87.1326 29.996 90.5035 29.2551 93.1869 28.371L99.7167 39.2292C99.6338 39.2148 99.5499 39.2009 99.4669 39.1866ZM74.3635 14.4481C74.3089 14.4451 74.2547 14.442 74.2001 14.4392C73.1551 14.3835 72.0991 14.3412 71.0355 14.3129L68.2523 10.3033L68.3544 10.3345L74.6253 14.4625C74.5381 14.4575 74.4508 14.4528 74.3635 14.4481ZM70.2158 14.2938C69.3654 14.2769 68.5109 14.2691 67.6544 14.2702L68.0957 10.3035C68.0954 10.3036 68.096 10.3035 68.0957 10.3035C68.1164 10.3028 68.1329 10.3011 68.1398 10.3004C68.1396 10.3004 68.1399 10.3004 68.1398 10.3004L70.2158 14.2938ZM64.2481 14.3224C63.0765 14.3569 61.9059 14.4083 60.742 14.4779L67.7108 10.48L64.2481 14.3224ZM54.0491 15.4985C54.394 15.455 54.741 15.4133 55.0895 15.3733C55.1534 15.3659 55.2171 15.3585 55.2809 15.3512C55.6504 15.3094 56.0217 15.2695 56.3947 15.2316C56.4384 15.2272 56.4821 15.2231 56.5258 15.2186C57.3264 15.1385 58.1342 15.067 58.948 15.0047C58.9587 15.0039 58.9691 15.003 58.9795 15.0023C59.0712 14.9953 59.1637 14.9895 59.2554 14.9829L53.1333 18.4617L52.2177 18.9821L53.9089 15.552L54.0491 15.4985ZM46.8769 97.7483L49.8777 101.772L46.8608 97.7453C46.8663 97.7463 46.8714 97.7473 46.8769 97.7483ZM84.5405 37.6794C89.9393 38.1142 95.0959 38.7545 99.8258 39.5838L93.1899 64.7427L84.5405 37.6794ZM99.8037 39.2443L93.2518 28.3494C93.2677 28.3442 93.2827 28.3388 93.2985 28.3335L99.8708 39.2562C99.8484 39.2523 99.8261 39.2482 99.8037 39.2443ZM93.1805 28.0078L91.8539 25.8034L94.4953 27.542C94.0781 27.7012 93.6396 27.8566 93.1805 28.0078ZM93.1155 28.0294C93.0998 28.0346 93.0844 28.0397 93.0686 28.0449L91.6334 25.6581L91.7249 25.7184L93.1155 28.0294ZM93.0037 28.0665C90.3584 28.9227 87.0509 29.6462 83.2225 30.18C83.1911 30.1844 83.1606 30.1891 83.1292 30.1934C82.8148 30.2369 82.497 30.2791 82.1758 30.3201C82.1667 30.3212 82.1576 30.3223 82.1486 30.3235L71.3198 14.7226C71.6845 14.7332 72.0484 14.7448 72.4111 14.7586C72.4182 14.7588 72.4255 14.7592 72.4326 14.7594C73.3961 14.7962 74.3516 14.8449 75.2968 14.9044L91.5043 25.5732L93.0037 28.0665ZM46.7654 97.7288L51.1391 103.566L46.7404 97.7244C46.7487 97.7259 46.7571 97.7273 46.7654 97.7288ZM88.989 97.433C88.986 97.4335 88.9829 97.434 88.9799 97.4346C88.7522 97.4741 88.5217 97.5126 88.2905 97.5509C88.2049 97.565 88.1192 97.5792 88.0331 97.5932C87.8423 97.6242 87.65 97.6547 87.4569 97.6848C87.3215 97.7059 87.1854 97.7268 87.0489 97.7474C86.8877 97.7718 86.7265 97.7962 86.5638 97.82C86.3777 97.8472 86.1899 97.8737 86.0015 97.9002C85.8759 97.9179 85.7512 97.9359 85.6248 97.9532C85.3644 97.9888 85.1011 98.0234 84.8368 98.0575L89.3711 81.1475C89.5355 81.1771 89.7013 81.2059 89.864 81.2362C89.8884 81.2408 89.9133 81.2451 89.9376 81.2497C90.2687 81.3116 90.5956 81.3751 90.9196 81.44C90.982 81.4524 91.0438 81.465 91.1058 81.4777C91.3812 81.5334 91.654 81.5903 91.9239 81.648C91.9779 81.6597 92.0323 81.671 92.0859 81.6825C92.3984 81.7502 92.7071 81.8191 93.0118 81.8895C93.0583 81.9002 93.1038 81.9114 93.1502 81.9222C93.4109 81.9829 93.6686 82.0448 93.9235 82.1076C93.9894 82.1239 94.0556 82.14 94.121 82.1564C94.4147 82.2298 94.7054 82.3044 94.9909 82.3804C95.0088 82.3852 95.0261 82.3901 95.044 82.3949C95.3087 82.4657 95.5691 82.538 95.8264 82.6111C95.8948 82.6305 95.963 82.6498 96.0307 82.6695C96.286 82.7432 96.5383 82.8176 96.7859 82.8936C96.8035 82.899 96.8217 82.9042 96.8392 82.9096C97.1027 82.9908 97.3603 83.0734 97.6147 83.157C97.6775 83.1777 97.7395 83.1985 97.8017 83.2193C98.0126 83.2897 98.2203 83.361 98.4246 83.4331C98.4706 83.4493 98.5174 83.4654 98.5629 83.4817C98.803 83.5675 99.0381 83.6546 99.2687 83.7428C99.321 83.7629 99.3723 83.7833 99.4241 83.8035C99.6111 83.8762 99.7948 83.9496 99.9752 84.0239C100.03 84.0463 100.085 84.0687 100.139 84.0912C100.356 84.1824 100.57 84.2744 100.777 84.368C100.811 84.3832 100.844 84.3989 100.878 84.4142C101.054 84.4948 101.227 84.5763 101.396 84.6587C101.45 84.6846 101.503 84.7104 101.555 84.7365C101.693 84.8047 101.825 84.8739 101.958 84.9432L92.0131 96.8481C91.0449 97.0555 90.0368 97.251 88.989 97.433ZM93.2282 64.8626L99.8927 39.5956C99.8982 39.5964 99.9037 39.5974 99.9092 39.5984L93.2374 64.8918L93.2282 64.8626ZM102.525 39.7479C102.281 39.7001 102.035 39.6527 101.788 39.6059C101.691 39.5873 101.595 39.5687 101.498 39.5504C101.173 39.4896 100.846 39.4296 100.518 39.3706C100.411 39.3515 100.304 39.3327 100.197 39.3138C100.117 39.2997 100.038 39.2855 99.958 39.2716L93.3632 28.3114C93.8633 28.1435 94.3382 27.9706 94.7884 27.793L102.547 39.7523C102.54 39.7507 102.532 39.7494 102.525 39.7479ZM94.5707 27.5134L91.7761 25.6739L91.7157 25.5737L94.6456 27.485C94.621 27.4945 94.5955 27.5039 94.5707 27.5134ZM91.6471 25.5889L91.5554 25.5285L91.4964 25.4305L91.5875 25.49L91.6471 25.5889ZM91.4265 25.4437L81.434 18.8661L91.3684 25.3469L91.4265 25.4437ZM37.1169 95.2949C37.1805 95.3178 37.2444 95.3407 37.3086 95.3634C37.5497 95.4486 37.7937 95.533 38.0437 95.6158C38.0551 95.6196 38.067 95.6234 38.0784 95.6271C38.3189 95.7065 38.5646 95.7845 38.8132 95.8616C38.886 95.8842 38.9593 95.9068 39.0327 95.9292C39.2717 96.0021 39.5133 96.0742 39.7592 96.145C39.7848 96.1523 39.8097 96.1599 39.8355 96.1673C40.1002 96.2431 40.3702 96.3171 40.6428 96.3905C40.7247 96.4126 40.8071 96.4344 40.8896 96.4562C41.1261 96.5188 41.3649 96.5805 41.6068 96.6411C41.6552 96.6533 41.7025 96.6657 41.7511 96.6777C42.0293 96.7468 42.312 96.8142 42.5971 96.8808C42.6872 96.9019 42.778 96.9228 42.8688 96.9436C43.1053 96.9979 43.3441 97.0513 43.5851 97.104C43.6518 97.1186 43.7176 97.1335 43.7846 97.1479C44.0754 97.2104 44.3701 97.2716 44.6671 97.3317C44.7638 97.3513 44.861 97.3707 44.9583 97.3901C45.1995 97.438 45.4424 97.4852 45.6875 97.5315C45.7661 97.5464 45.8439 97.5616 45.9231 97.5763C46.1617 97.6207 46.4022 97.6644 46.6443 97.7073L67.2332 125.048L64.5532 122.51L36.9427 95.2328C37.0001 95.2536 37.0591 95.2741 37.1169 95.2949ZM68.156 125.261L80.6 98.9014C80.6107 98.9004 80.6214 98.8995 80.632 98.8984C80.6875 98.8933 80.7429 98.8881 80.7985 98.8829C81.4171 98.8256 82.0327 98.7638 82.645 98.6974C82.6992 98.6916 82.7535 98.6858 82.8077 98.6799C83.3633 98.619 83.9158 98.5541 84.4651 98.4855L72.0991 118.788L68.156 125.261ZM102.101 84.7168C101.929 84.6248 101.752 84.5342 101.571 84.4443C101.518 84.4182 101.465 84.3921 101.411 84.3661C101.242 84.2838 101.069 84.2023 100.892 84.1217C100.858 84.1061 100.825 84.0903 100.791 84.0747C100.583 83.9814 100.37 83.8893 100.153 83.7983C100.098 83.7751 100.041 83.7523 99.9856 83.7293C99.8066 83.6556 99.6244 83.5826 99.439 83.5105C99.3853 83.4896 99.3323 83.4686 99.2781 83.4478C99.0493 83.3603 98.8161 83.2738 98.578 83.1886C98.5265 83.1702 98.4736 83.152 98.4218 83.1337C98.2244 83.0641 98.024 82.9953 97.8207 82.9272C97.7527 82.9045 97.685 82.8817 97.6163 82.8591C97.3666 82.777 97.1137 82.6958 96.8553 82.6162C96.8227 82.6062 96.7892 82.5964 96.7565 82.5864C96.5252 82.5157 96.2902 82.4461 96.0522 82.3772C95.9744 82.3548 95.8963 82.3323 95.8177 82.3101C95.5786 82.2421 95.3368 82.1751 95.0914 82.1092C95.0558 82.0996 95.0209 82.0898 94.9851 82.0803C94.7099 82.0069 94.4301 81.9352 94.1473 81.8643C94.0639 81.8434 93.9796 81.8228 93.8955 81.8021C93.6676 81.7459 93.4371 81.6906 93.2045 81.6361C93.1342 81.6196 93.0647 81.6029 92.994 81.5866C92.7048 81.5198 92.4118 81.4543 92.1157 81.39C92.0333 81.3721 91.9499 81.3545 91.867 81.3369C91.6334 81.2869 91.3976 81.2379 91.16 81.1896C91.0698 81.1712 90.98 81.1526 90.8892 81.1345C90.5859 81.0739 90.28 81.0143 89.9704 80.9563C89.8989 80.9429 89.8263 80.9299 89.7544 80.9167C89.6526 80.8978 89.5506 80.879 89.4482 80.8605L93.4704 65.8601C93.4762 65.8594 93.4822 65.8586 93.4881 65.8579C94.0097 65.7914 94.5256 65.7227 95.0375 65.6525C95.2536 65.6229 95.4662 65.592 95.6806 65.5617C95.9626 65.5217 96.2447 65.482 96.5234 65.4409C96.81 65.3988 97.0932 65.3555 97.3763 65.3122C97.562 65.2838 97.7478 65.2554 97.9318 65.2265C98.2799 65.1719 98.6247 65.1163 98.9673 65.06C99.0537 65.0458 99.1396 65.0315 99.2256 65.0172C104.183 64.1928 108.575 63.1864 112.291 62.0345L104.427 79.5392L102.101 84.7168ZM96.5262 65.1433C96.4868 65.1491 96.4462 65.1546 96.4067 65.1604C95.9348 65.2298 95.4594 65.298 94.9786 65.3642C94.4751 65.4334 93.9665 65.5007 93.453 65.5663L93.2757 65.0116L99.976 39.6099C100.935 39.7794 101.877 39.9565 102.799 40.1414L114.219 57.7432L112.466 61.6444C108.066 63.0407 102.686 64.2313 96.5262 65.1433ZM119.693 45.5559L119.501 45.983L118.693 45.0455C119.036 45.2135 119.372 45.3832 119.693 45.5559ZM102.638 39.7698L94.8519 27.7682C94.8677 27.7619 94.8843 27.7558 94.9001 27.7494L102.71 39.7838C102.687 39.7791 102.662 39.7745 102.638 39.7698ZM99.8024 23.8083C99.7899 23.8416 99.7766 23.8748 99.7624 23.9081C99.7381 23.965 99.712 24.0217 99.6834 24.0781C99.668 24.1086 99.6514 24.139 99.6347 24.1694C99.6063 24.2208 99.576 24.2721 99.5443 24.3232C99.5433 24.3247 99.5422 24.3263 99.5412 24.3278C99.5071 24.3777 99.472 24.4275 99.4346 24.4772C99.3978 24.5257 99.3587 24.5742 99.3185 24.6225C99.2902 24.657 99.2619 24.6915 99.2319 24.7257C99.1676 24.7987 99.1002 24.8713 99.0284 24.9435C99.0201 24.952 99.0122 24.9605 99.0038 24.9689C98.1088 25.859 96.6539 26.6988 94.7212 27.4563L91.6384 25.4453L87.3437 18.3074L99.8663 23.6099C99.8474 23.676 99.8277 23.7422 99.8024 23.8083ZM91.5102 25.3615L91.4193 25.3023L87.1682 18.2332L87.239 18.2631L91.5102 25.3615ZM91.291 25.2186L75.5007 14.9173C77.1504 15.024 78.766 15.1652 80.3321 15.3386L87.0637 18.1889L91.291 25.2186ZM82.5026 16.1872L86.989 18.0648L87.0067 18.0943L82.5026 16.1872ZM80.7581 15.3868C82.5184 15.5895 84.2129 15.8336 85.8177 16.1172L86.9326 17.9708L80.7581 15.3868ZM76.4206 14.5788C76.2232 14.5644 76.0251 14.5508 75.8267 14.5374C75.6709 14.527 75.5153 14.5165 75.3589 14.5065C75.1798 14.4952 75.0005 14.4841 74.8206 14.4735L68.5826 10.404L68.9235 10.5079L79.0634 14.8014C78.1942 14.7171 77.3121 14.6432 76.4206 14.5788ZM53.8167 15.5871L52.1136 19.0412L52.0697 19.0661L53.779 15.6016L53.8167 15.5871ZM36.7915 95.1762L51.0515 109.264L36.6618 95.1274C36.705 95.1437 36.7479 95.1601 36.7915 95.1762ZM84.5499 98.4751C84.5673 98.4729 84.5847 98.4708 84.6019 98.4686L78.2327 108.847L84.5499 98.4751ZM92.1179 96.826L92.5228 96.3414L102.018 84.9745C102.038 84.985 102.06 84.9953 102.08 85.006L92.1633 96.8165C92.1483 96.8196 92.1329 96.8228 92.1179 96.826ZM114.251 57.6706L102.891 40.1599C102.916 40.1648 102.94 40.1698 102.964 40.1747L114.279 57.6087L114.251 57.6706ZM118.542 44.9712L119.471 46.0498L119.435 46.1316L118.357 44.8806C118.42 44.9106 118.48 44.9411 118.542 44.9712ZM117.245 43.9816C117.178 43.9529 117.111 43.9241 117.043 43.8956C116.833 43.8074 116.621 43.7197 116.406 43.633C116.382 43.6235 116.359 43.6137 116.335 43.6041C116.097 43.509 115.855 43.4151 115.611 43.3216C115.541 43.2951 115.471 43.2688 115.401 43.2424C115.209 43.1703 115.015 43.0985 114.819 43.0272C114.753 43.0032 114.687 42.979 114.62 42.9551C114.368 42.8646 114.112 42.7748 113.853 42.6861C113.801 42.6684 113.749 42.6509 113.696 42.6332C113.482 42.5603 113.265 42.4881 113.046 42.4164C112.965 42.3901 112.884 42.3638 112.803 42.3376C112.574 42.2637 112.343 42.1904 112.109 42.1179C112.064 42.1039 112.02 42.0896 111.975 42.0757C111.701 41.9914 111.424 41.9082 111.145 41.8257C111.064 41.802 110.983 41.7784 110.902 41.7549C110.686 41.6922 110.469 41.6299 110.251 41.5682C110.167 41.5446 110.083 41.5208 109.999 41.4974C109.713 41.4177 109.424 41.3387 109.132 41.2608C109.081 41.2473 109.029 41.2339 108.977 41.2205C108.729 41.1547 108.479 41.0898 108.227 41.0254C108.13 41.0009 108.033 40.9764 107.936 40.9519C107.697 40.8919 107.457 40.8325 107.215 40.7735C107.144 40.7565 107.074 40.7389 107.003 40.722C106.701 40.6491 106.396 40.5773 106.088 40.5064C105.995 40.4849 105.902 40.4639 105.808 40.4427C105.576 40.3899 105.342 40.3374 105.107 40.2856C105.005 40.263 104.903 40.2405 104.801 40.2181C104.487 40.1498 104.171 40.0822 103.852 40.0159C103.801 40.0051 103.749 39.9947 103.697 39.984C103.42 39.9267 103.141 39.8702 102.86 39.8141C102.841 39.8103 102.822 39.8063 102.802 39.8025L94.9635 27.7246C97.3873 26.7477 99.0451 25.6321 99.7878 24.436C99.8299 24.3738 99.8685 24.3112 99.9055 24.2485C99.9137 24.2348 99.9216 24.2212 99.9295 24.2075C99.9707 24.1356 100.009 24.0633 100.043 23.991C100.058 23.9607 100.072 23.9305 100.085 23.9001C100.097 23.874 100.111 23.848 100.122 23.8217C100.122 23.8211 100.122 23.8205 100.122 23.8198L117.643 44.1539C117.512 44.0962 117.379 44.0388 117.245 43.9816ZM99.9018 23.4839C99.897 23.505 99.8901 23.5261 99.8847 23.5472L87.2867 18.2129L87.2678 18.1814L99.9041 23.47C99.9031 23.4746 99.903 23.4793 99.9018 23.4839ZM87.1822 18.1687L87.1114 18.1386L87.0931 18.1083L87.1636 18.1379L87.1822 18.1687ZM87.0367 18.0144L85.9048 16.1323C85.9242 16.1358 85.9437 16.1391 85.9631 16.1426L87.1071 18.0439L87.0367 18.0144ZM34.9107 94.408C34.9329 94.418 34.956 94.4277 34.9783 94.4377C35.1692 94.5235 35.3651 94.608 35.5643 94.6917C35.6184 94.7144 35.6722 94.737 35.7267 94.7596C35.948 94.8509 36.1724 94.9413 36.4034 95.0303C36.4221 95.0376 36.4417 95.0446 36.4606 95.052C36.4765 95.058 36.493 95.064 36.5089 95.07L61.4236 119.547L34.8443 94.3776C34.8665 94.3877 34.8884 94.3979 34.9107 94.408ZM102.22 84.7816C102.2 84.7705 102.181 84.7594 102.161 84.7484L112.377 62.007C112.407 61.9977 112.435 61.9883 112.464 61.9791L105.198 78.1543L102.22 84.7816ZM114.312 57.5361L103.056 40.1934C109.095 41.4172 114.294 42.9701 118.211 44.8127L119.405 46.1983L114.402 57.3343L114.312 57.5361ZM117.936 44.2837C117.888 44.2619 117.838 44.2404 117.789 44.2187C117.788 44.218 117.786 44.2172 117.785 44.2166L100.148 23.7479C100.155 23.7281 100.162 23.7084 100.169 23.6886C100.172 23.6817 100.175 23.6748 100.177 23.6678L117.957 44.2926C117.95 44.2897 117.943 44.2868 117.936 44.2837ZM67.0153 10.5733L60.0694 14.5203C58.5716 14.619 57.0864 14.7478 55.6243 14.907C55.6141 14.9081 55.6038 14.9089 55.5936 14.91L66.8234 10.6309L67.0153 10.5733ZM28.5849 41.0432L22.4249 49.5847L20.027 43.6901C22.4746 42.7258 25.3434 41.837 28.5849 41.0432ZM68.2003 125.322L83.2463 100.806L84.687 98.4582C84.7074 98.4556 84.7281 98.4531 84.7485 98.4506C85.0637 98.4105 85.3754 98.3688 85.6853 98.3264C85.7813 98.3134 85.8768 98.3 85.9721 98.2868C86.1988 98.2552 86.4239 98.2229 86.6476 98.1903C86.7411 98.1766 86.8351 98.1632 86.928 98.1493C87.2041 98.1081 87.4781 98.066 87.7498 98.023C87.8835 98.0019 88.0155 97.9802 88.148 97.9586C88.2965 97.9344 88.4446 97.9101 88.5919 97.8854C88.7477 97.8594 88.9032 97.8331 89.0574 97.8064C89.1564 97.7892 89.254 97.7717 89.3522 97.7544C89.7036 97.6923 90.0506 97.6288 90.3929 97.5639C90.4314 97.5565 90.4702 97.5494 90.5087 97.5421C90.7162 97.5025 90.9216 97.4621 91.1257 97.4214C91.1484 97.4168 91.1711 97.4123 91.1936 97.4076C91.335 97.3794 91.4771 97.3513 91.6168 97.3226L68.3214 125.21L68.2003 125.322ZM92.2701 96.7928L97.62 90.4207L102.14 85.0376C102.301 85.1241 102.453 85.2114 102.604 85.2989C102.623 85.3105 102.643 85.322 102.662 85.3335C102.826 85.4316 102.986 85.5301 103.137 85.6291C103.141 85.6314 103.145 85.6337 103.148 85.6361C103.368 85.7801 103.57 85.9253 103.763 86.0711L99.6625 94.6234C97.6217 95.437 95.1315 96.1687 92.2701 96.7928ZM112.727 61.5597L114.35 57.9457L115.951 60.4131C114.946 60.8084 113.871 61.1912 112.727 61.5597ZM114.339 57.806L114.295 57.7378L114.323 57.6758L114.367 57.7439L114.339 57.806ZM114.355 57.6032L117.537 50.5194L119.453 46.2547L119.502 46.3119L114.399 57.6714L114.355 57.6032ZM119.483 46.1879L119.52 46.1062L119.569 46.1633L119.533 46.245L119.483 46.1879ZM119.55 46.0393L119.753 45.5884C119.773 45.5995 119.792 45.6107 119.813 45.6217L119.599 46.0965L119.55 46.0393ZM119.257 44.9113C119.249 44.9073 119.241 44.9033 119.233 44.8993C119.07 44.8179 118.905 44.7368 118.737 44.6564C118.686 44.632 118.636 44.6075 118.585 44.5832C118.426 44.5079 118.264 44.4331 118.101 44.3586L100.202 23.5943C100.225 23.5193 100.244 23.4441 100.259 23.369C100.26 23.3677 100.26 23.3662 100.26 23.3648C100.261 23.3602 100.261 23.3556 100.262 23.3511C100.266 23.3315 100.269 23.3121 100.272 23.2925L117.898 43.3632L119.257 44.9113ZM79.4515 14.8399L69.5749 10.7065L71.906 11.4169L83.9163 15.3951C82.4789 15.1795 80.985 14.9945 79.4515 14.8399ZM43.9301 17.5191L43.9455 17.5144C44.9892 17.2009 46.1138 16.9104 47.3138 16.6436C47.3195 16.6425 47.3248 16.6412 47.3305 16.6399C47.6892 16.5603 48.057 16.4835 48.429 16.4082C48.4962 16.3946 48.5623 16.3809 48.6299 16.3674C48.9787 16.298 49.3343 16.2309 49.6943 16.1654C49.7831 16.1492 49.8716 16.1329 49.9611 16.1169C50.322 16.0527 50.6883 15.9902 51.0602 15.9296C51.1432 15.9162 51.227 15.9029 51.3105 15.8895C51.7 15.8274 52.0938 15.7669 52.4949 15.709C52.5491 15.7011 52.6044 15.6937 52.6589 15.6858C52.9293 15.6473 53.2059 15.611 53.4817 15.5743L39.1134 20.9789L41.2513 18.4525C42.0575 18.1271 42.9486 17.8144 43.9301 17.5191ZM53.7292 15.5504L38.937 21.1874L39.0277 21.0803L53.7292 15.5504ZM53.6868 15.6366L51.9655 19.1252L39.2274 26.3637C39.1973 26.3473 39.1684 26.3309 39.1388 26.3145C39.0467 26.2635 38.9556 26.2125 38.8677 26.1611C38.8363 26.1429 38.806 26.1246 38.7753 26.1064C38.6709 26.0442 38.5684 25.9819 38.4699 25.9192C38.4613 25.9137 38.4526 25.9083 38.444 25.9028C37.6109 25.3695 36.9915 24.8173 36.5961 24.2576C36.5734 24.2227 36.5487 24.1877 36.5277 24.1525C36.525 24.1484 36.5224 24.1442 36.5196 24.14C36.5081 24.1204 36.4994 24.1009 36.4883 24.0813L38.8502 21.2899L53.6868 15.6366ZM36.4548 24.0181C36.4423 23.9945 36.4289 23.9711 36.4171 23.9476L38.5799 21.393L38.7217 21.339L36.4548 24.0181ZM36.3846 23.883C36.3127 23.7289 36.2572 23.5745 36.2195 23.4199C36.2186 23.4164 36.2177 23.4128 36.2169 23.4092C36.2024 23.3483 36.1926 23.2873 36.1834 23.2264C36.1771 23.1837 36.1723 23.1409 36.1686 23.0981C36.165 23.0575 36.1618 23.0166 36.1605 22.9759C36.1591 22.9186 36.1611 22.8613 36.1643 22.8041C36.1658 22.7751 36.1658 22.7461 36.1686 22.7171C36.172 22.6834 36.1795 22.6498 36.1845 22.6159C36.1955 22.5404 36.2095 22.4647 36.2286 22.3893C36.2384 22.3516 36.25 22.314 36.2617 22.2764L38.4514 21.4419L36.3846 23.883ZM19.9646 43.7147L22.3785 49.6491L22.338 49.7052L19.9099 43.7363C19.9281 43.7291 19.9463 43.722 19.9646 43.7147ZM30.1182 88.4487C30.1225 88.4338 30.1275 88.4189 30.1319 88.4041C30.1547 88.3272 30.1833 88.2504 30.2132 88.1736C30.2321 88.1248 30.2521 88.0761 30.2738 88.0275C30.3004 87.9681 30.33 87.9087 30.3609 87.8492C30.3887 87.7959 30.4167 87.7425 30.4479 87.6893C30.4592 87.6699 30.4718 87.6508 30.4836 87.6314L31.7026 90.0557L30.1108 88.4831C30.1139 88.4717 30.1151 88.4602 30.1182 88.4487ZM87.3777 102.501L91.7208 97.3016C91.7353 97.2985 91.7493 97.2954 91.7638 97.2923L84.8309 105.549L87.3777 102.501ZM99.755 94.5864L103.818 86.1135C103.838 86.1292 103.858 86.1448 103.879 86.1607L99.8584 94.5452C99.8245 94.5589 99.7893 94.5726 99.755 94.5864ZM103.856 85.79C103.814 85.7595 103.767 85.7287 103.723 85.698C103.627 85.6308 103.528 85.5637 103.426 85.4971C103.373 85.462 103.317 85.4269 103.262 85.3919C103.157 85.325 103.049 85.2587 102.938 85.1924C102.885 85.161 102.834 85.1296 102.78 85.0981C102.737 85.073 102.694 85.0478 102.65 85.0228C102.53 84.953 102.406 84.8837 102.28 84.8144L112.551 61.9517C113.732 61.5799 114.843 61.1936 115.883 60.7937L103.887 85.8121C103.877 85.8047 103.867 85.7974 103.856 85.79ZM116.014 60.388L114.383 57.8732L114.411 57.8112L116.069 60.3663C116.051 60.3735 116.032 60.3807 116.014 60.388ZM99.9365 22.7567C99.939 22.7766 99.9409 22.7965 99.9428 22.8165L97.1604 19.6479C97.1902 19.6652 97.2183 19.6827 97.2477 19.7001C97.2917 19.7261 97.3337 19.7525 97.3767 19.7786L99.9234 22.6771C99.9275 22.7037 99.9331 22.7301 99.9365 22.7567ZM84.3059 15.456L75.8046 12.6401L84.7634 15.5282C84.6116 15.5037 84.459 15.4798 84.3059 15.456ZM41.1176 18.5077L38.9857 21.027L38.8451 21.0798L40.972 18.5677C41.0199 18.5475 41.0688 18.5275 41.1176 18.5077ZM38.8999 21.1284L38.8085 21.2365L38.6668 21.2904L38.759 21.1814L38.8999 21.1284ZM38.5383 21.3394L36.2899 22.1961C36.3013 22.1628 36.3131 22.1297 36.326 22.0965L38.6313 21.2295L38.5383 21.3394ZM30.0943 88.5598L31.7954 90.2404L31.9011 90.4506L30.0737 88.6552C30.0799 88.6234 30.0869 88.5917 30.0943 88.5598ZM99.951 94.5081L103.933 86.203C104.996 87.0432 105.622 87.9092 105.787 88.782C105.788 88.7879 105.789 88.794 105.791 88.8C105.807 88.889 105.815 88.9781 105.821 89.0672C105.825 89.1113 105.828 89.1553 105.829 89.1994C105.831 89.2742 105.828 89.349 105.823 89.4237C105.82 89.473 105.816 89.5224 105.81 89.5716C105.801 89.6415 105.788 89.7114 105.774 89.7812C105.762 89.8358 105.75 89.8904 105.734 89.945C105.718 90.0051 105.699 90.065 105.678 90.1251L102.1 93.4971C101.457 93.8456 100.741 94.1834 99.951 94.5081ZM103.942 85.8534L115.974 60.7579C116.009 60.7445 116.043 60.7311 116.078 60.7178L104.004 85.8995C103.983 85.8841 103.963 85.8688 103.942 85.8534ZM125.374 53.2605C125.354 53.3297 125.331 53.3989 125.307 53.468C125.286 53.5296 125.265 53.5913 125.24 53.6528C125.231 53.6752 125.221 53.6975 125.212 53.7198C125.175 53.8083 125.131 53.8962 125.089 53.9843L124.884 54.3665C123.618 56.5341 120.593 58.5644 116.132 60.3411L114.443 57.7387L116.864 52.3492L119.551 46.3683L125.403 53.1592C125.393 53.193 125.384 53.2268 125.374 53.2605ZM119.416 44.9914L100.287 23.2081C100.292 23.1734 100.295 23.1385 100.298 23.1038L119.621 45.0966C119.553 45.0614 119.485 45.0265 119.416 44.9914ZM10.5351 51.2006C10.5403 51.1742 10.5444 51.1478 10.5501 51.1214C10.5533 51.1065 10.5579 51.0915 10.5613 51.0764L13.5141 56.7617C13.4592 56.7197 13.404 56.6776 13.3506 56.6353L10.5332 51.211C10.5339 51.2074 10.5343 51.204 10.5351 51.2006ZM14.085 57.6159C14.224 57.7085 14.3685 57.8008 14.5145 57.893C14.5698 57.9279 14.623 57.9631 14.6793 57.998C14.8178 58.0836 14.962 58.1688 15.1066 58.2539C15.1743 58.2939 15.2394 58.3342 15.3085 58.3739C15.4587 58.4604 15.6149 58.5463 15.7714 58.6323C15.8024 58.6494 15.8319 58.6665 15.8631 58.6836L15.8622 58.6848L15.953 58.7339L22.4237 71.6022L30.3088 87.2838C30.2855 87.3163 30.2666 87.3492 30.2445 87.3818C30.2269 87.4074 30.2108 87.4332 30.194 87.4588C30.1462 87.5322 30.0998 87.6056 30.058 87.6795C30.0509 87.6917 30.0422 87.704 30.0352 87.7163C29.9973 87.7846 29.962 87.853 29.9291 87.9215C29.9207 87.9391 29.9133 87.9568 29.9053 87.9745C29.8884 88.0109 29.8726 88.0475 29.8574 88.0841L14.0049 57.5616C14.0317 57.5797 14.0579 57.5977 14.085 57.6159ZM88.9564 100.739L91.8695 97.2697C94.4515 96.7273 96.7416 96.1 98.6941 95.4057C98.6947 95.4054 98.6953 95.4052 98.6959 95.4051C98.8266 95.3586 98.9558 95.312 99.0834 95.2649L70.3151 123.37L68.7175 124.844L88.9564 100.739ZM102.327 93.3736L105.623 90.2669C105.617 90.2834 105.611 90.2999 105.604 90.3164C105.583 90.3664 105.559 90.4163 105.535 90.4662L102.604 93.2126C102.513 93.2663 102.422 93.3202 102.327 93.3736ZM106.232 89.1821C106.202 88.6259 106 88.0197 105.533 87.3797C105.526 87.3709 105.521 87.3621 105.514 87.3532C105.468 87.2907 105.417 87.2275 105.365 87.1642C105.339 87.1327 105.314 87.1009 105.287 87.0694C105.24 87.0143 105.19 86.959 105.139 86.9035C105.102 86.8631 105.064 86.8229 105.025 86.7825C104.976 86.7316 104.925 86.6806 104.872 86.6294C104.824 86.5831 104.774 86.5368 104.724 86.4906C104.672 86.4435 104.621 86.3965 104.566 86.3492C104.502 86.2929 104.433 86.2369 104.365 86.181C104.318 86.1426 104.274 86.1045 104.225 86.0658C104.171 86.024 104.114 85.9824 104.059 85.9409L116.17 60.6819C119.598 59.3369 122.211 57.8433 123.878 56.2476L119.83 63.8165L115.278 72.3071L106.232 89.1821ZM36.3548 24.3948C36.6281 24.8178 37.0212 25.2339 37.5334 25.642C37.5534 25.6579 37.5732 25.674 37.5935 25.69C37.6588 25.7409 37.7261 25.7919 37.795 25.8425C37.8317 25.8697 37.8696 25.8966 37.9074 25.9236C37.9689 25.9677 38.0306 26.0114 38.095 26.0551C38.1533 26.0948 38.2142 26.1343 38.2748 26.1737C38.3252 26.2064 38.3738 26.2393 38.4257 26.2719C38.54 26.3438 38.6587 26.4154 38.7805 26.4867C38.8181 26.5085 38.8576 26.5304 38.8958 26.5522C38.9287 26.571 38.9616 26.5897 38.9949 26.6085L32.7605 35.2533L28.8924 40.6168C25.6675 41.3874 22.7925 42.2512 20.3169 43.1925L36.2973 24.3071C36.3166 24.3362 36.3344 24.3656 36.3548 24.3948ZM13.8872 57.4802L29.8235 88.1648C29.8147 88.1876 29.8074 88.2105 29.7991 88.2335C29.7943 88.2464 29.7878 88.259 29.7833 88.2719C29.7832 88.2724 29.783 88.2729 29.7829 88.2732L13.7354 57.3762C13.785 57.4109 13.8366 57.4455 13.8872 57.4802ZM99.2366 95.2076C99.2452 95.2044 99.2535 95.2011 99.2622 95.1979C99.3173 95.1772 99.3732 95.1566 99.4279 95.1359L81.906 112.139L99.2366 95.2076ZM85.4872 15.6484L80.5743 14.0772L85.6764 15.681C85.6134 15.6701 85.5506 15.6592 85.4872 15.6484ZM61.8569 12.4018L54.9211 14.9862C54.8171 14.9984 54.713 15.0101 54.6093 15.0225L61.0711 12.6859L61.8569 12.4018ZM36.26 24.2482L20.1875 43.2424C20.1349 43.2625 20.0827 43.2828 20.0305 43.303L36.2183 24.1826C36.2315 24.2044 36.246 24.2263 36.26 24.2482ZM12.099 56.0484C12.2219 56.1659 12.3503 56.283 12.4838 56.3999C12.5003 56.4143 12.5162 56.4287 12.5328 56.4431C12.6649 56.5574 12.8025 56.6712 12.9448 56.7847C12.9666 56.8021 12.9875 56.8196 13.0095 56.8369C13.147 56.9454 13.2901 57.0534 13.4368 57.1611C13.4674 57.1836 13.4968 57.206 13.5277 57.2284C13.5584 57.2505 13.5866 57.273 13.6176 57.295L29.7532 88.3619C29.7437 88.3921 29.7365 88.4224 29.7279 88.4526C29.7197 88.4818 29.711 88.5109 29.7036 88.5401C29.6918 88.587 29.6822 88.6338 29.6728 88.6805C29.6665 88.7117 29.6595 88.7428 29.6543 88.7739C29.6479 88.8117 29.6439 88.8496 29.6392 88.8875C29.632 88.9446 29.6259 89.0018 29.6223 89.0589L12.0731 56.0239C12.0816 56.032 12.0906 56.0402 12.099 56.0484ZM99.5827 95.0776C99.7048 95.0304 99.8219 94.9822 99.941 94.9344C100.001 94.9102 100.062 94.8863 100.122 94.862C100.213 94.8247 100.302 94.787 100.391 94.7495C100.49 94.7077 100.588 94.6657 100.685 94.6236C100.758 94.5919 100.831 94.5602 100.902 94.5284C100.969 94.4982 101.036 94.468 101.102 94.4377L74.6279 119.391L72.5886 121.272L99.5827 95.0776ZM121.991 46.4908C121.82 46.3752 121.641 46.259 121.456 46.1427C121.414 46.1165 121.373 46.0904 121.331 46.0643C121.169 45.964 121.002 45.8636 120.829 45.7629C120.779 45.7333 120.73 45.7036 120.679 45.6742C120.463 45.5502 120.242 45.426 120.01 45.3013C119.937 45.2616 119.86 45.2224 119.785 45.1829L100.306 23.0117C100.317 22.8121 100.301 22.6127 100.261 22.4139L122.027 46.5146C122.015 46.5066 122.003 46.4988 121.991 46.4908ZM35.8119 22.6849C35.8088 22.7475 35.8075 22.8101 35.8093 22.8726C35.8104 22.9021 35.8121 22.9314 35.8142 22.9608C35.8195 23.0402 35.8288 23.1194 35.842 23.1984C35.8434 23.2062 35.8434 23.2141 35.8448 23.2219C35.846 23.2283 35.8481 23.2347 35.8493 23.2412C35.8614 23.3066 35.8766 23.3717 35.8941 23.4368C35.8947 23.4392 35.8955 23.4416 35.8961 23.4439C35.9587 23.6723 36.0513 23.8991 36.181 24.1237L19.9012 43.3529C18.161 44.0331 16.6279 44.7524 15.3186 45.5046L35.8121 22.6802C35.812 22.6817 35.8121 22.6833 35.8119 22.6849ZM101.291 94.3506C101.326 94.3343 101.362 94.3182 101.396 94.3017C101.4 94.2999 101.404 94.2979 101.408 94.296C101.436 94.2827 101.463 94.2691 101.491 94.2558L84.3747 110.295L101.291 94.3506ZM86.1542 15.7637L85.7201 15.6272L86.1857 15.7691C86.1755 15.7672 86.1647 15.7654 86.1542 15.7637ZM65.2846 11.094L54.3202 15.0581C54.1813 15.0752 54.0418 15.0918 53.9033 15.1095C53.5138 15.1591 53.1311 15.2113 52.7515 15.2646C52.6583 15.2778 52.5651 15.2907 52.4725 15.304C52.1257 15.3539 51.7828 15.4053 51.4446 15.4584C51.3218 15.4775 51.2009 15.4974 51.0793 15.5171C50.8424 15.5553 50.608 15.5944 50.3756 15.6342C50.2343 15.6583 50.0921 15.6821 49.9524 15.7069L50.7805 15.4578L65.2846 11.094ZM35.821 22.5302C35.8195 22.5434 35.82 22.5567 35.8187 22.5701C35.8185 22.5713 35.8182 22.5725 35.8182 22.5737L15.1335 45.611C15.0515 45.6591 14.9705 45.7074 14.8903 45.7558L35.835 22.4398C35.8304 22.4698 35.8244 22.5 35.821 22.5302ZM33.5541 93.7376L33.5546 93.7389L33.576 93.7503L36.0625 96.0895L33.4975 93.7056C33.517 93.7163 33.5346 93.7271 33.5541 93.7376ZM101.692 94.1583C101.765 94.1223 101.837 94.0861 101.908 94.0498C101.935 94.0362 101.962 94.0225 101.988 94.0087C102.105 93.9491 102.219 93.889 102.331 93.8285L83.5358 111.171L101.692 94.1583ZM35.8569 22.307C35.8562 22.3106 35.8561 22.3142 35.8553 22.3177L14.6914 45.8779C14.4602 46.0207 14.2354 46.1645 14.0201 46.3096L22.2362 37.2786L35.8569 22.307ZM27.7048 86.3545C26.022 83.8318 24.1486 81.4036 22.3121 79.0296C16.7698 71.8654 11.0461 64.4599 10.8354 54.6002L27.7048 86.3545Z" fill="#F3F3EF"/>
</svg>
