<svg width="24" height="25" fill="none" xmlns="http://www.w3.org/2000/svg"><circle cx="12" cy="12.267" r="11.5" stroke="#939290"/><path fill-rule="evenodd" clip-rule="evenodd" d="M18.405 8.23c-.38-.702-.792-.83-1.631-.88-.838-.059-2.946-.083-4.772-.083-1.83 0-3.939.024-4.776.082-.837.05-1.25.179-1.634.881-.39.701-.592 1.908-.592 4.034v.007c0 2.116.201 3.333.592 4.026.384.702.796.83 1.633.889.838.05 2.947.08 4.777.08 1.826 0 3.934-.03 4.773-.08.839-.058 1.251-.186 1.63-.888.395-.693.595-1.91.595-4.026v-.007c0-2.127-.2-3.334-.595-4.035Zm-8.155 6.764V9.539l4.375 2.728-4.375 2.727Z" fill="#939290"/></svg>