<svg xmlns="http://www.w3.org/2000/svg" version="1.1" xmlns:xlink="http://www.w3.org/1999/xlink" xmlns:svgjs="http://svgjs.dev/svgjs" width="1000" height="1000">
  <g clip-path="url(#SvgjsClipPath1101)">
    <g transform="matrix(0.87890625,0,0,0.87890625,50,50)">
      <svg xmlns="http://www.w3.org/2000/svg" version="1.1" width="1024" height="1024">
        <svg width="1024" height="1024" viewBox="0 0 64 64" fill="white" xmlns="http://www.w3.org/2000/svg">
          <path d="M47.72 8C47.72 27.8417 31.6471 43.9282 11.8184 43.9282V55.9998C38.3076 55.9998 59.7828 34.5105 59.7828 8H47.72Z"></path>
          <path d="M37.3544 30.7476C37.8546 30.1843 38.3395 29.6073 38.8024 29.0117C32.3895 22.5907 23.7113 18.4368 14.0852 17.8683V10.324C25.1509 10.867 35.1924 15.3688 42.8262 22.4397C43.167 21.7101 43.4824 20.9651 43.7723 20.2083C35.2891 12.6182 24.0928 8.00098 11.8164 8.00098V20.0726C21.8071 20.0726 30.8448 24.1586 37.3527 30.7493L37.3544 30.7476Z"></path>
          <path d="M52.8853 35.9534C55.5356 41.3681 57.1482 47.3802 57.4602 53.7299H49.9214C49.6908 49.8084 48.865 46.043 47.5356 42.5237C47.3372 42.7307 47.1371 42.936 46.9354 43.1397C46.5505 43.5249 46.1588 43.8999 45.7637 44.2715C47.032 47.9469 47.7221 51.8922 47.7221 55.9986H59.7849C59.7849 47.9605 57.8078 40.3873 54.3182 33.7305C53.862 34.4839 53.3839 35.2254 52.887 35.9534H52.8853Z"></path>
          <path d="M11.8183 39.8187C16.0165 39.8187 19.4199 36.4129 19.4199 32.2116C19.4199 28.0103 16.0165 24.6045 11.8183 24.6045C7.62011 24.6045 4.2168 28.0103 4.2168 32.2116C4.2168 36.4129 7.62011 39.8187 11.8183 39.8187Z"></path>
        </svg>
      </svg>
    </g>
  </g>
  <defs>
    <clipPath id="SvgjsClipPath1101">
      <rect width="1000" height="1000" x="0" y="0" rx="0" ry="0"></rect>
    </clipPath>
  </defs>
</svg>
