<svg width="200" height="80" viewBox="0 0 200 80" fill="none" xmlns="http://www.w3.org/2000/svg">
<path d="M78.719 36.2899C77.3992 34.7736 75.7893 33.8938 73.8425 33.6972C71.8862 33.5006 70.1453 34.0622 68.5915 35.251C68.1516 34.7736 67.6087 34.5302 67.0284 34.3711C66.7289 34.2869 66.42 34.2494 66.1111 34.2026C65.7461 34.1371 65.7461 34.1371 65.7461 34.5115C65.7461 37.7594 65.7461 40.998 65.7461 44.2459C65.7461 46.4642 65.7648 48.6731 65.7742 50.8915C65.7742 51.3969 65.9614 51.5935 66.4575 51.5935C67.2718 51.5935 68.0954 51.5935 68.9098 51.5935C69.0034 51.5935 69.0876 51.5747 69.2093 51.5654C69.2093 51.4437 69.2093 51.3501 69.2093 51.2471C69.2093 47.7933 69.2093 44.3395 69.2093 40.8857C69.2093 40.3147 69.331 39.7905 69.593 39.2945C70.3325 37.8811 71.5399 37.2166 73.103 37.1136C73.3089 37.1042 73.4961 37.151 73.7021 37.1791C73.9641 37.2259 74.2169 37.2821 74.4602 37.3757C75.2371 37.6658 75.8361 38.1619 76.2761 38.8545C76.482 39.1728 76.6411 39.5191 76.7347 39.8935C76.8283 40.2398 76.8938 40.5861 76.8938 40.9512C76.8938 44.2927 76.8938 47.6435 76.8938 50.9851C76.8938 51.0506 76.8938 51.1067 76.8938 51.1723C76.9032 51.4718 77.0529 51.6122 77.3431 51.6122C78.0919 51.6122 78.8407 51.6122 79.5895 51.6122C79.6924 51.6122 79.786 51.6309 79.889 51.6496C80.0762 51.6871 80.254 51.7058 80.4506 51.6122C80.4506 51.5092 80.4506 51.4156 80.4506 51.3127C80.4506 47.7839 80.4506 44.2646 80.4506 40.7359C80.4506 40.5393 80.46 40.3428 80.5161 40.1369C80.6284 39.6689 80.825 39.2383 81.0964 38.8452C81.7704 37.853 82.7531 37.357 83.9138 37.1978C84.4847 37.1136 85.0463 37.2072 85.5892 37.4225C86.6937 37.853 87.4331 38.6393 87.8356 39.7531C87.9292 40.0152 88.0322 40.3053 88.0322 40.5768C88.0602 42.9355 88.0602 45.3036 88.0696 47.6623C88.0696 48.7199 88.0696 49.787 88.0696 50.8447C88.0696 50.9944 88.107 51.1535 88.1538 51.3033C88.1726 51.3688 88.2381 51.4531 88.3036 51.4718C88.444 51.5279 88.6031 51.5747 88.7529 51.5747C89.5672 51.5841 90.3909 51.5841 91.2052 51.5747C91.2988 51.5747 91.383 51.556 91.486 51.5467C91.4954 51.4624 91.4954 51.4063 91.5047 51.3407C91.5422 49.8431 91.486 48.3549 91.5515 46.8573C91.617 45.0883 91.589 43.3192 91.6077 41.5502C91.617 40.8763 91.5515 40.2211 91.4298 39.5565C91.3362 39.0885 91.2052 38.6299 91.018 38.1993C90.5313 37.0668 89.8199 36.1121 88.8652 35.3352C88.0322 34.6613 87.0774 34.212 86.0479 33.9218C85.7203 33.8282 85.3646 33.7814 85.0276 33.7534C84.5971 33.7253 84.1571 33.7253 83.7172 33.7253C83.633 33.7253 83.5394 33.7253 83.4645 33.7627C83.2305 33.8657 82.9684 33.7908 82.7157 33.8938C82.4255 34.0248 82.0886 34.0622 81.7797 34.1652C80.7033 34.5583 79.786 35.1761 78.9998 36.0091C78.8781 36.1027 78.8032 36.1963 78.719 36.2899ZM132.848 51.4718C132.848 51.3407 132.848 51.2378 132.848 51.1348C132.848 47.7465 132.848 44.3488 132.848 40.9605C132.848 40.6797 132.894 40.4177 132.969 40.1556C133.203 39.36 133.662 38.7141 134.317 38.2087C134.795 37.8343 135.337 37.591 135.918 37.4974C136.507 37.4038 137.125 37.3944 137.715 37.591C138.305 37.7875 138.829 38.087 139.259 38.5269C140.008 39.3038 140.298 40.2585 140.345 41.3069C140.364 41.7093 140.289 42.1118 140.289 42.5143C140.27 45.2942 140.279 48.0647 140.279 50.8447C140.279 50.8915 140.279 50.9383 140.279 50.9851C140.317 51.3969 140.448 51.5186 140.85 51.5186C141.384 51.5186 141.908 51.5186 142.442 51.5186C142.507 51.5186 142.582 51.5186 142.648 51.5279C142.76 51.5467 142.872 51.5747 142.985 51.5841C143.144 51.5935 143.293 51.5841 143.453 51.5841C143.771 51.5841 143.771 51.5841 143.771 51.2565C143.771 47.8308 143.771 44.405 143.771 40.9886C143.771 40.8014 143.771 40.6049 143.818 40.427C143.977 39.8186 144.22 39.2477 144.66 38.7797C145.315 38.087 146.101 37.6284 147.075 37.5442C147.15 37.5348 147.225 37.5161 147.299 37.4974C147.459 37.4599 147.618 37.4412 147.777 37.5161C147.824 37.5348 147.88 37.5442 147.936 37.5442C148.348 37.5442 148.713 37.6846 149.068 37.8624C149.724 38.1806 150.238 38.658 150.613 39.2851C150.922 39.8093 151.146 40.3709 151.137 40.998C151.128 42.168 151.231 43.3286 151.212 44.4986C151.193 46.614 151.203 48.7293 151.203 50.8353C151.203 50.9008 151.203 50.957 151.203 51.0225C151.193 51.2191 151.306 51.3501 151.474 51.4156C151.568 51.4531 151.68 51.4718 151.792 51.4811C151.905 51.4905 152.026 51.4811 152.139 51.4811C152.859 51.4811 153.571 51.4811 154.291 51.4811C154.516 51.4811 154.535 51.4624 154.535 51.2659C154.544 50.5451 154.563 49.8151 154.563 49.0943C154.563 46.5484 154.563 43.9932 154.563 41.4473C154.563 41.0261 154.553 40.6142 154.488 40.193C154.404 39.6876 154.291 39.1915 154.114 38.7141C153.477 37.0387 152.354 35.7938 150.781 34.9421C150.182 34.6145 149.536 34.3805 148.853 34.2775C148.469 34.2214 148.086 34.1558 147.702 34.1371C147.374 34.1184 147.037 34.1839 146.7 34.1933C146.176 34.212 145.671 34.3524 145.184 34.5209C144.052 34.914 143.069 35.5505 142.273 36.449C142.226 36.4958 142.17 36.5426 142.105 36.6082C140.841 35.1761 139.297 34.2962 137.387 34.109C135.487 33.9312 133.784 34.4273 132.277 35.6066C131.49 34.8485 130.536 34.6145 129.487 34.549C129.487 34.6706 129.487 34.7642 129.487 34.8578C129.497 38.5737 129.506 42.2803 129.516 45.9962C129.516 47.55 129.516 49.1037 129.516 50.6481C129.516 50.7417 129.506 50.8353 129.516 50.9289C129.544 51.3314 129.712 51.4811 130.115 51.4905C130.929 51.4905 131.734 51.4905 132.548 51.4905C132.632 51.4905 132.726 51.4811 132.848 51.4718ZM108.914 37.8437C108.914 37.9373 108.914 37.9934 108.914 38.0589C108.914 41.2226 108.914 44.3956 108.914 47.5593C108.914 48.1303 108.952 48.7012 109.064 49.2722C109.139 49.6185 109.242 49.9461 109.401 50.2643C109.607 50.6762 109.888 51.0319 110.253 51.3033C110.899 51.7713 111.638 51.9959 112.434 51.9959C112.686 51.9959 112.948 51.9866 113.201 51.9959C113.491 52.0147 113.772 51.9679 114.053 51.8743C115.12 51.5279 115.513 50.7511 115.616 49.8712C115.635 49.6747 115.625 49.4687 115.616 49.2628C115.607 49.0663 115.55 48.8791 115.419 48.7106C115.363 48.7574 115.307 48.8042 115.251 48.8416C115.111 48.9259 114.979 49.0288 114.82 49.0756C114.465 49.1786 114.1 49.216 113.735 49.1786C113.538 49.1599 113.332 49.1037 113.145 49.0288C112.63 48.8135 112.452 48.383 112.434 47.8682C112.415 47.2411 112.424 46.6233 112.424 45.9962C112.424 43.366 112.424 40.7359 112.424 38.1151C112.424 38.0215 112.424 37.9373 112.434 37.853C113.173 37.7969 113.875 37.9185 114.577 37.7688C114.708 37.7407 114.848 37.722 114.979 37.6752C115.522 37.5067 115.925 37.1698 116.187 36.6737C116.402 36.2712 116.468 35.8406 116.496 35.3914C116.505 35.251 116.496 35.1199 116.486 34.9608C116.187 34.9608 115.915 34.9608 115.644 34.9608C115.382 34.9608 115.111 34.9608 114.848 34.9608C114.577 34.9608 114.306 34.9608 114.034 34.9608C113.772 34.9608 113.501 34.9608 113.239 34.9608C112.967 34.9608 112.696 34.9795 112.406 34.9514C112.406 33.2011 112.406 31.4695 112.406 29.7379C112.312 29.7379 112.246 29.7286 112.181 29.7286C111.264 29.7286 110.337 29.7286 109.42 29.7286C109.139 29.7286 108.97 29.8596 108.914 30.1404C108.896 30.2527 108.896 30.3744 108.896 30.4867C108.896 31.9095 108.896 33.3415 108.896 34.7642C108.896 34.8204 108.886 34.8859 108.877 34.9608C107.969 34.9608 107.08 34.9608 106.172 34.9608C106.162 35.0357 106.153 35.0825 106.153 35.1386C106.153 35.8874 106.153 36.6362 106.153 37.385C106.153 37.4412 106.144 37.4974 106.172 37.5442C106.209 37.619 106.256 37.7126 106.322 37.7407C106.471 37.7969 106.63 37.8343 106.79 37.8343C107.417 37.8437 108.034 37.8343 108.662 37.8343C108.746 37.8249 108.821 37.8343 108.914 37.8437ZM97.3734 51.5747C97.4764 51.5841 97.5513 51.5841 97.6355 51.5841C98.5153 51.5841 99.3952 51.5841 100.275 51.5841C100.715 51.5841 100.902 51.3595 100.93 50.9383C100.93 50.8727 100.93 50.7979 100.93 50.7323C100.93 46.2208 100.93 41.7 100.93 37.1885C100.93 36.8515 100.855 36.5239 100.762 36.2057C100.621 35.6909 100.322 35.2697 99.91 34.9234C99.5075 34.577 99.0114 34.4366 98.5153 34.3056C98.272 34.2401 98.0099 34.2494 97.7572 34.2401C97.4202 34.2307 97.364 34.2869 97.364 34.6145C97.364 40.1743 97.364 45.7341 97.364 51.2939C97.3734 51.3782 97.3734 51.4624 97.3734 51.5747ZM122.093 51.9959C122.346 51.9772 122.533 51.9959 122.711 51.9585C123.235 51.8275 123.684 51.5747 124.059 51.1723C124.62 50.5639 124.789 49.8431 124.676 49.0569C124.611 48.5795 124.396 48.1583 124.068 47.7933C123.628 47.3066 123.076 47.0258 122.43 46.9509C122.018 46.8948 121.606 46.979 121.223 47.1475C120.343 47.5125 119.837 48.1958 119.659 49.1037C119.566 49.5904 119.641 50.0959 119.865 50.5545C120.343 51.4624 121.092 51.9772 122.093 51.9959ZM99.1705 32.1435C100.256 32.2183 101.286 31.3011 101.286 30.0936C101.286 28.8768 100.275 28.0719 99.3764 28.0063C97.9444 27.9034 97.1113 29.0734 97.0926 30.0375C97.0645 31.1419 98.0192 32.2277 99.1705 32.1435Z" fill="white"/>
<path d="M78.7189 36.2883C78.8032 36.1947 78.878 36.1104 78.9529 36.0262C79.7392 35.2025 80.6658 34.5754 81.7328 34.1823C82.0417 34.07 82.3693 34.0419 82.6688 33.9109C82.9122 33.7985 83.1743 33.8828 83.4176 33.7798C83.4925 33.7424 83.5861 33.7424 83.6703 33.7424C84.1103 33.7424 84.5408 33.7424 84.9807 33.7705C85.3271 33.7985 85.6734 33.8453 86.001 33.9389C87.0306 34.2291 87.9759 34.6784 88.8183 35.3523C89.773 36.1292 90.4938 37.0932 90.9711 38.2164C91.1583 38.647 91.2894 39.1056 91.383 39.5736C91.514 40.2288 91.5702 40.8934 91.5608 41.5673C91.5421 43.3363 91.5795 45.1054 91.5046 46.8744C91.4485 48.372 91.4953 49.8602 91.4578 51.3578C91.4578 51.4233 91.4485 51.4795 91.4391 51.5637C91.3362 51.5731 91.2519 51.5918 91.1583 51.5918C90.344 51.5918 89.5203 51.6012 88.706 51.5918C88.5562 51.5918 88.3971 51.545 88.2567 51.4889C88.1912 51.4701 88.1257 51.3859 88.107 51.3204C88.0602 51.1706 88.0227 51.0209 88.0227 50.8617C88.0134 49.8041 88.0227 48.737 88.0227 47.6794C88.0134 45.3206 88.0134 42.9526 87.9853 40.5939C87.9853 40.3131 87.8823 40.0323 87.7887 39.7702C87.3863 38.6657 86.6468 37.8701 85.5423 37.4396C85.0088 37.2336 84.4379 37.14 83.8669 37.2149C82.7156 37.3834 81.7235 37.8701 81.0496 38.8623C80.7875 39.2554 80.5909 39.686 80.4692 40.1539C80.4224 40.3505 80.4037 40.5471 80.4037 40.753C80.4037 44.2817 80.4037 47.801 80.4037 51.3297C80.4037 51.4327 80.4037 51.5263 80.4037 51.6293C80.2072 51.7229 80.02 51.7041 79.8421 51.6667C79.7485 51.648 79.6456 51.6293 79.5426 51.6293C78.7938 51.6293 78.045 51.6293 77.2962 51.6293C77.0061 51.6293 76.8563 51.4795 76.8469 51.1893C76.8469 51.1238 76.8469 51.0677 76.8469 51.0021C76.8469 47.6606 76.8469 44.3098 76.8469 40.9683C76.8469 40.6032 76.7721 40.2569 76.6878 39.9106C76.5942 39.5362 76.4351 39.1899 76.2292 38.8716C75.7799 38.179 75.1809 37.6829 74.4133 37.3928C74.17 37.2992 73.9173 37.2336 73.6552 37.1962C73.4586 37.1588 73.2621 37.112 73.0561 37.1307C71.493 37.2336 70.2856 37.8888 69.5462 39.3116C69.2934 39.8076 69.1624 40.3411 69.1624 40.9027C69.1718 44.3566 69.1624 47.8104 69.1624 51.2642C69.1624 51.3672 69.1624 51.4608 69.1624 51.5825C69.0501 51.5918 68.9565 51.6105 68.8629 51.6105C68.0486 51.6105 67.2249 51.6105 66.4106 51.6105C65.9145 51.6105 65.7273 51.414 65.7273 50.9085C65.7179 48.6902 65.7086 46.4813 65.6992 44.263C65.6992 41.0151 65.6992 37.7765 65.6992 34.5286C65.6992 34.1542 65.6992 34.1542 66.0643 34.2197C66.3731 34.2759 66.682 34.3133 66.9815 34.3882C67.5712 34.5473 68.1141 34.7907 68.5446 35.268C70.0984 34.0793 71.8487 33.5177 73.7956 33.7143C75.7893 33.8921 77.3992 34.772 78.7189 36.2883Z" fill="white"/>
<path d="M132.85 51.4734C132.728 51.4828 132.635 51.5015 132.541 51.5015C131.727 51.5015 130.922 51.5015 130.108 51.5015C129.705 51.5015 129.537 51.3424 129.509 50.9399C129.499 50.8463 129.509 50.7527 129.509 50.6591C129.509 49.1053 129.509 47.5516 129.509 46.0072C129.499 42.2913 129.49 38.5847 129.48 34.8688C129.48 34.7752 129.48 34.6816 129.48 34.5599C130.519 34.6255 131.484 34.8595 132.27 35.6176C133.777 34.4383 135.48 33.9328 137.38 34.12C139.29 34.2979 140.834 35.1777 142.098 36.6191C142.163 36.5536 142.219 36.5068 142.266 36.46C143.071 35.5615 144.045 34.925 145.177 34.5319C145.664 34.3634 146.169 34.223 146.693 34.2043C147.03 34.1949 147.358 34.1387 147.695 34.1481C148.079 34.1668 148.462 34.2323 148.846 34.2885C149.53 34.3915 150.166 34.6255 150.774 34.9531C152.347 35.8048 153.47 37.0497 154.107 38.7251C154.284 39.2025 154.397 39.6986 154.481 40.204C154.556 40.6252 154.556 41.037 154.556 41.4582C154.556 44.0041 154.556 46.5594 154.556 49.1053C154.556 49.826 154.537 50.5561 154.528 51.2768C154.528 51.4734 154.5 51.4921 154.284 51.4921C153.564 51.4921 152.852 51.4921 152.132 51.4921C152.019 51.4921 151.898 51.5015 151.785 51.4921C151.682 51.4828 151.57 51.464 151.467 51.4266C151.299 51.3517 151.186 51.23 151.196 51.0335C151.196 50.968 151.196 50.9118 151.196 50.8463C151.196 48.7309 151.177 46.6156 151.205 44.5096C151.214 43.3396 151.111 42.179 151.13 41.009C151.139 40.3818 150.915 39.8202 150.606 39.2961C150.241 38.669 149.726 38.1916 149.062 37.8734C148.706 37.7049 148.341 37.5551 147.929 37.5551C147.873 37.5551 147.817 37.5458 147.77 37.527C147.611 37.4522 147.452 37.4709 147.292 37.5083C147.218 37.527 147.143 37.5458 147.068 37.5551C146.094 37.6394 145.318 38.0886 144.653 38.7906C144.213 39.2586 143.96 39.8296 143.811 40.438C143.764 40.6158 143.764 40.8124 143.764 40.9996C143.764 44.4253 143.764 47.8511 143.764 51.2675C143.764 51.5951 143.764 51.5951 143.446 51.5951C143.286 51.5951 143.137 51.6044 142.978 51.5951C142.865 51.5857 142.753 51.5576 142.641 51.5389C142.575 51.5296 142.5 51.5296 142.435 51.5296C141.901 51.5296 141.377 51.5296 140.843 51.5296C140.432 51.5296 140.31 51.4079 140.273 50.996C140.273 50.9492 140.273 50.9024 140.273 50.8556C140.273 48.0757 140.263 45.3052 140.282 42.5253C140.282 42.1228 140.357 41.7203 140.338 41.3178C140.301 40.2695 140.001 39.3054 139.252 38.5379C138.822 38.098 138.298 37.7985 137.708 37.6019C137.118 37.4054 136.5 37.4147 135.911 37.5083C135.33 37.6019 134.788 37.8453 134.31 38.2197C133.655 38.7251 133.196 39.371 132.962 40.1666C132.887 40.4286 132.841 40.6907 132.841 40.9715C132.85 44.3598 132.841 47.7575 132.841 51.1458C132.85 51.2394 132.85 51.3424 132.85 51.4734Z" fill="white"/>
<path d="M57.0511 51.5892C56.9762 51.1867 57.1166 50.7748 56.9481 50.363C56.8639 50.4098 56.8077 50.4472 56.7515 50.4847C56.0495 50.934 55.3195 51.3084 54.5145 51.5236C54.0184 51.6547 53.5317 51.767 53.0169 51.8044C52.6893 51.8232 52.3711 51.898 52.0435 51.8606C51.6316 51.8232 51.2104 51.7764 50.7986 51.7108C50.0872 51.5892 49.404 51.3739 48.7675 51.0556C46.9236 50.1477 45.5945 48.7437 44.7802 46.853C44.6023 46.4412 44.4806 46.0106 44.3777 45.5707C44.2654 45.0933 44.1811 44.616 44.1998 44.1199C44.1998 44.045 44.1718 43.9701 44.1624 43.8953C44.153 43.811 44.1156 43.7081 44.153 43.6425C44.2373 43.4553 44.2092 43.2588 44.2092 43.0716C44.2092 42.8469 44.2279 42.6223 44.2934 42.407C44.359 42.1918 44.359 41.9671 44.4151 41.7518C44.4994 41.4523 44.5836 41.1528 44.6959 40.8626C45.323 39.2621 46.3526 37.9798 47.7753 37.0157C48.3089 36.66 48.8798 36.3792 49.4882 36.1546C49.9656 35.9861 50.4523 35.8831 50.939 35.7708C51.4257 35.6585 51.9124 35.7147 52.3992 35.6866C52.577 35.6772 52.7548 35.6679 52.9327 35.6866C53.2603 35.724 53.5972 35.7708 53.9248 35.827C54.0933 35.8551 54.2524 35.9206 54.4209 35.958C54.8702 36.061 55.2914 36.2388 55.7032 36.4354C56.1619 36.6506 56.6111 36.894 57.0043 37.2122C57.023 37.231 57.0604 37.2403 57.1072 37.259C57.1166 37.2122 57.1166 37.1842 57.1166 37.1561C57.1166 36.6507 57.1634 36.1359 57.1072 35.6398C56.9949 34.6008 57.0698 33.5712 57.0511 32.5323C57.0323 31.5027 57.0511 30.4731 57.0511 29.4435C57.0511 29.3218 57.0698 29.2001 57.0791 29.041C57.2944 29.041 57.4816 29.0504 57.6782 29.041C58.1087 29.0129 58.5112 29.0878 58.9137 29.2282C59.6063 29.4809 60.0931 29.9489 60.3458 30.6322C60.5049 31.0628 60.5798 31.5214 60.5798 31.98C60.5798 38.298 60.5798 44.616 60.5798 50.934C60.5798 51.0182 60.5891 51.1024 60.5798 51.1867C60.561 51.3645 60.3926 51.5985 60.1773 51.5985C59.1571 51.5892 58.1368 51.5892 57.1166 51.5892C57.0979 51.5985 57.0885 51.5985 57.0511 51.5892ZM57.0323 43.7455C57.0323 43.446 57.023 43.1558 57.0323 42.8563C57.0417 42.6036 56.9855 42.3789 56.9013 42.1543C56.4146 40.8533 55.5535 39.8892 54.2992 39.2995C53.85 39.0842 53.382 38.9251 52.8952 38.897C52.3711 38.869 51.8469 38.8222 51.3134 38.9532C51.0888 39.0094 50.8641 39.0562 50.6488 39.131C49.6005 39.4961 48.7581 40.1513 48.1591 41.0873C47.663 41.8548 47.3635 42.6878 47.3916 43.6145C47.3916 43.7736 47.4009 43.9233 47.3916 44.0825C47.3729 44.513 47.4758 44.9155 47.6069 45.318C47.9251 46.254 48.4773 47.0309 49.2636 47.6392C49.9936 48.2102 50.8173 48.5472 51.7346 48.6408C52.0622 48.6688 52.3898 48.6501 52.7174 48.6501C53.2041 48.6408 53.6721 48.5004 54.112 48.3132C55.3756 47.7796 56.2835 46.8717 56.8171 45.6081C56.9575 45.2805 57.0698 44.9436 57.0417 44.5692C57.0136 44.2884 57.0323 44.0169 57.0323 43.7455Z" fill="white"/>
<path d="M35.5983 39.5318C35.5983 38.9328 35.6545 38.3431 35.5796 37.7628C35.4954 37.0982 35.1771 36.5273 34.653 36.0874C34.1756 35.6849 33.6047 35.4603 33.0056 35.3105C32.6031 35.2075 32.2007 35.2263 31.7982 35.1888C31.4519 35.1607 31.0868 35.1701 30.7499 35.2543C30.5252 35.3105 30.2819 35.3011 30.0572 35.4041C29.87 35.4883 29.636 35.479 29.4301 35.5164C29.2897 35.5445 29.1587 35.5913 29.0183 35.6007C28.438 35.6475 27.9232 35.4603 27.4832 35.1046C27.0808 34.777 26.7625 34.3745 26.5473 33.8971C26.4443 33.6819 26.463 33.6257 26.6689 33.504C27.2586 33.1577 27.8483 32.8301 28.4848 32.6055C28.7656 32.5025 29.0557 32.4463 29.3272 32.3434C29.5424 32.2591 29.7858 32.2966 29.9917 32.1749C30.0104 32.1655 30.0385 32.1655 30.0572 32.1655C30.7592 32.0813 31.4706 32.0532 32.1726 32.0719C32.4721 32.0813 32.781 32.0626 33.0805 32.0719C33.2677 32.0813 33.4455 32.1187 33.6327 32.1375C33.6608 32.1375 33.6889 32.1562 33.7263 32.1562C34.3535 32.2123 34.9525 32.3995 35.5328 32.6335C36.3752 32.9799 37.1334 33.4666 37.7698 34.1405C38.4999 34.9174 38.9866 35.8253 39.23 36.8642C39.3704 37.4633 39.4172 38.053 39.4172 38.6707C39.4078 42.5457 39.4172 46.4208 39.4172 50.2958C39.4172 50.6328 39.5014 50.9604 39.567 51.2786C39.5857 51.3441 39.595 51.4096 39.6138 51.4939C39.5482 51.5032 39.5014 51.522 39.4453 51.522C39.0428 51.522 38.631 51.5407 38.2285 51.522C37.8166 51.5032 37.4142 51.4003 37.0398 51.2224C36.4969 50.9604 36.2723 50.4924 36.2535 49.9214C36.2442 49.7342 36.2535 49.5564 36.2535 49.3317C36.2067 49.3785 36.188 49.4066 36.1693 49.4347C35.4486 50.5392 34.4283 51.2224 33.1647 51.55C32.8184 51.6436 32.4815 51.756 32.1164 51.7279C31.6016 51.887 31.0681 51.8121 30.544 51.8028C30.2632 51.8028 29.9824 51.7653 29.7109 51.7092C28.8872 51.522 28.0916 51.2599 27.4084 50.7451C26.5098 50.0712 25.8172 49.2381 25.3866 48.1898C25.2462 47.8528 25.1713 47.4972 25.0871 47.1415C24.9935 46.7484 25.0216 46.3646 25.0029 45.9809C25.0029 45.906 25.0029 45.8217 25.0029 45.7469C24.9841 45.2789 25.059 44.8202 25.1807 44.3709C25.2837 43.9872 25.4241 43.6128 25.6019 43.2571C26.0231 42.4334 26.6689 41.8063 27.4177 41.2728C27.998 40.861 28.6252 40.5614 29.2897 40.3274C29.5705 40.2338 29.8607 40.1683 30.1415 40.1122C30.4036 40.056 30.675 40.0092 30.9371 39.9624C31.04 39.9437 31.1524 39.9343 31.2647 39.925C31.7701 39.8875 32.2755 39.8594 32.7716 39.822C32.9775 39.8033 33.1835 39.7565 33.3987 39.7471C33.9229 39.7097 34.4564 39.6816 34.9806 39.6348C35.1865 39.6161 35.3831 39.5693 35.5983 39.5318ZM35.5983 42.7142C35.4486 42.7423 35.3363 42.7797 35.2239 42.7891C34.8027 42.8265 34.3909 42.8078 33.9697 42.8827C33.6234 42.9482 33.2583 42.9108 32.9027 42.9669C32.4815 43.0418 32.0415 43.0044 31.611 43.0699C31.3676 43.1073 31.1149 43.1448 30.8903 43.2197C29.7577 43.5941 29.0183 44.3335 28.7281 45.5222C28.6252 45.9621 28.6907 46.3646 28.8124 46.7765C28.9528 47.2538 29.2616 47.6282 29.636 47.9464C30.0947 48.3208 30.6188 48.5268 31.2179 48.5268C31.4706 48.5268 31.7233 48.4987 31.976 48.4519C32.2662 48.3957 32.547 48.3208 32.8184 48.1992C33.4549 47.9184 34.0071 47.5159 34.4845 47.0104C35.2239 46.2429 35.6171 45.3257 35.6171 44.2586C35.6171 43.8281 35.6171 43.3975 35.6171 42.9763C35.5983 42.8921 35.5983 42.8172 35.5983 42.7142Z" fill="white"/>
<path d="M172.796 45.5204C173.311 45.7544 173.788 46.0165 174.097 46.4938C174.237 46.7091 174.303 46.9337 174.321 47.1958C174.34 47.5983 174.237 47.9446 174.059 48.2909C173.732 48.9368 173.273 49.4703 172.73 49.9289C172.038 50.5186 171.223 50.9024 170.381 51.2112C169.997 51.361 169.595 51.4733 169.192 51.5856C168.94 51.6512 168.677 51.6699 168.415 51.7073C168.2 51.7354 167.985 51.7822 167.77 51.7916C167.386 51.8103 166.993 51.829 166.609 51.7167C166.534 51.698 166.45 51.7167 166.375 51.7073C166.225 51.698 166.075 51.726 165.944 51.6324C165.935 51.6231 165.916 51.6231 165.898 51.6231C164.559 51.4359 163.361 50.9117 162.266 50.1442C160.787 49.1053 159.729 47.7387 159.149 46.0165C159.009 45.614 158.896 45.2021 158.793 44.7903C158.728 44.5095 158.709 44.21 158.672 43.9198C158.653 43.7701 158.597 43.611 158.597 43.4612C158.587 42.7592 158.578 42.0572 158.597 41.3552C158.597 41.1118 158.644 40.8591 158.7 40.6251C158.84 39.9699 159.018 39.3147 159.317 38.7063C159.589 38.1635 159.917 37.6674 160.3 37.1994C160.712 36.6939 161.189 36.2634 161.704 35.8703C162.416 35.3274 163.202 34.9155 164.044 34.6254C164.325 34.5318 164.625 34.4663 164.915 34.4007C165.149 34.3446 165.383 34.2884 165.607 34.251C165.72 34.2323 165.841 34.2229 165.954 34.2229C166.253 34.2229 166.562 34.2136 166.862 34.2229C167.039 34.2323 167.208 34.2697 167.386 34.3071C167.564 34.3352 167.732 34.3633 167.91 34.4007C169.248 34.6909 170.409 35.3367 171.439 36.2353C172.375 37.059 173.067 38.0605 173.582 39.1837C173.694 39.4271 173.769 39.6891 173.853 39.9512C173.919 40.1478 173.844 40.3443 173.676 40.466C173.554 40.5502 173.423 40.6251 173.292 40.6813C172.637 40.9902 171.981 41.2897 171.317 41.5892C170.624 41.9074 169.932 42.2163 169.23 42.5346C168.49 42.8715 167.76 43.2085 167.021 43.5454C165.692 44.1632 164.362 44.7716 163.033 45.3893C162.884 45.4642 162.724 45.5297 162.547 45.6046C162.612 45.7076 162.659 45.7918 162.715 45.8761C163.052 46.4189 163.436 46.915 163.932 47.3175C164.522 47.7949 165.196 48.1131 165.916 48.3377C166.263 48.4407 166.618 48.5062 166.974 48.5717C167.32 48.6279 167.657 48.6279 167.994 48.6185C168.266 48.6092 168.528 48.5437 168.79 48.4781C169.052 48.4126 169.314 48.3377 169.567 48.2441C170.643 47.851 171.523 47.1865 172.215 46.2879C172.431 46.0445 172.599 45.7918 172.796 45.5204ZM170.007 39.1182C169.707 38.7344 169.379 38.4162 168.996 38.1447C168.677 37.9201 168.322 37.7703 167.947 37.6487C167.723 37.5738 167.479 37.5083 167.255 37.4895C166.637 37.4521 166.019 37.4615 165.411 37.6393C164.84 37.8078 164.306 38.0231 163.857 38.4068C163.614 38.6221 163.38 38.8561 163.164 39.0994C162.397 39.9325 162.032 40.9434 161.938 42.0572C161.92 42.3006 161.91 42.5439 161.891 42.8247C164.587 41.5892 167.283 40.363 170.007 39.1182Z" fill="white"/>
<path d="M108.914 37.8417C108.821 37.8323 108.746 37.8323 108.68 37.8323C108.053 37.8323 107.435 37.8416 106.808 37.8323C106.649 37.8323 106.49 37.7855 106.34 37.7387C106.275 37.7106 106.228 37.617 106.191 37.5421C106.172 37.4953 106.172 37.4392 106.172 37.383C106.172 36.6342 106.172 35.8854 106.172 35.1366C106.172 35.0805 106.181 35.0337 106.191 34.9588C107.099 34.9588 107.988 34.9588 108.896 34.9588C108.905 34.8745 108.914 34.8184 108.914 34.7622C108.914 33.3395 108.914 31.9074 108.914 30.4847C108.914 30.3724 108.914 30.2507 108.933 30.1384C108.989 29.8576 109.158 29.7266 109.439 29.7266C110.356 29.7266 111.282 29.7266 112.2 29.7266C112.265 29.7266 112.34 29.7359 112.424 29.7359C112.424 31.4769 112.424 33.1991 112.424 34.9494C112.714 34.9775 112.986 34.9588 113.257 34.9588C113.519 34.9588 113.791 34.9588 114.053 34.9588C114.324 34.9588 114.596 34.9588 114.867 34.9588C115.129 34.9588 115.401 34.9588 115.663 34.9588C115.934 34.9588 116.206 34.9588 116.505 34.9588C116.505 35.1179 116.524 35.2583 116.515 35.3893C116.477 35.8293 116.412 36.2692 116.206 36.6717C115.944 37.1677 115.532 37.5047 114.998 37.6732C114.867 37.7106 114.727 37.7387 114.596 37.7668C113.894 37.9165 113.182 37.7949 112.452 37.851C112.452 37.9352 112.443 38.0288 112.443 38.1131C112.443 40.7432 112.443 43.3734 112.443 45.9942C112.443 46.6213 112.424 47.2391 112.452 47.8662C112.471 48.381 112.649 48.8115 113.164 49.0268C113.351 49.1017 113.548 49.1485 113.753 49.1766C114.118 49.214 114.484 49.1766 114.839 49.0736C114.989 49.0268 115.129 48.9238 115.27 48.8396C115.326 48.8022 115.373 48.7554 115.438 48.7086C115.579 48.8864 115.635 49.0642 115.635 49.2608C115.644 49.4667 115.654 49.6726 115.635 49.8692C115.532 50.749 115.129 51.5353 114.072 51.8722C113.8 51.9565 113.519 52.0033 113.22 51.9939C112.967 51.9752 112.705 51.9939 112.452 51.9939C111.657 51.9846 110.917 51.7693 110.272 51.3013C109.897 51.0298 109.616 50.6742 109.42 50.2623C109.261 49.9534 109.158 49.6258 109.083 49.2702C108.961 48.6992 108.933 48.1376 108.933 47.5573C108.933 44.3936 108.933 41.2206 108.933 38.0569C108.914 37.9914 108.914 37.9259 108.914 37.8417Z" fill="white"/>
<path d="M97.373 51.5719C97.373 51.4596 97.373 51.3754 97.373 51.2911C97.373 45.7313 97.373 40.1715 97.373 34.6117C97.373 34.2841 97.4292 34.2186 97.7662 34.2373C98.0189 34.2466 98.2903 34.2373 98.5243 34.3028C99.0204 34.4338 99.5071 34.5836 99.919 34.9206C100.331 35.2669 100.63 35.6881 100.771 36.2029C100.855 36.5211 100.939 36.8487 100.939 37.1857C100.93 41.6972 100.939 46.218 100.939 50.7295C100.939 50.7951 100.939 50.8699 100.939 50.9355C100.92 51.3567 100.724 51.5813 100.284 51.5813C99.4042 51.5719 98.5243 51.5813 97.6445 51.5813C97.5602 51.5813 97.476 51.5813 97.373 51.5719Z" fill="white"/>
<path d="M122.095 51.9985C121.093 51.9798 120.344 51.465 119.876 50.5383C119.652 50.0797 119.577 49.5743 119.67 49.0875C119.848 48.1796 120.354 47.5057 121.233 47.1313C121.617 46.9722 122.029 46.888 122.441 46.9348C123.087 47.019 123.639 47.2904 124.079 47.7771C124.406 48.1422 124.622 48.5727 124.687 49.0407C124.8 49.827 124.631 50.5571 124.069 51.1561C123.695 51.5586 123.246 51.8207 122.722 51.9423C122.544 51.9985 122.347 51.9891 122.095 51.9985Z" fill="white"/>
<path d="M99.1703 32.1435C98.019 32.2277 97.0643 31.1513 97.0924 30.0375C97.1111 29.0734 97.9535 27.9034 99.3762 28.0063C100.265 28.0719 101.276 28.8675 101.286 30.0936C101.286 31.2917 100.256 32.2183 99.1703 32.1435Z" fill="white"/>
</svg>
