<svg width="200" height="80" fill="none" xmlns="http://www.w3.org/2000/svg"><path d="M78.719 36.29c-1.32-1.516-2.93-2.396-4.876-2.593-1.957-.196-3.698.365-5.252 1.554-.44-.477-.982-.72-1.563-.88-.3-.084-.608-.122-.917-.168-.365-.066-.365-.066-.365.308v9.735c0 2.218.019 4.427.028 6.645 0 .506.187.703.683.703h2.453c.093 0 .178-.02.3-.029V40.886c0-.571.121-1.096.383-1.592.74-1.413 1.947-2.077 3.51-2.18.206-.01.393.037.6.065.261.047.514.103.757.197.777.29 1.376.786 1.816 1.479.206.318.365.664.459 1.039.093.346.159.692.159 1.057v10.221c.01.3.159.44.45.44h2.246c.102 0 .196.019.299.038.187.037.365.056.562-.038V40.736c0-.197.009-.393.065-.6.112-.467.309-.898.58-1.29.674-.993 1.657-1.489 2.818-1.648.57-.084 1.132.01 1.675.224 1.105.431 1.844 1.217 2.247 2.331.093.262.196.552.196.824.028 2.358.028 4.727.038 7.085v3.183c0 .15.037.309.084.458.019.066.084.15.15.169.14.056.3.103.449.103.814.01 1.638.01 2.452 0 .094 0 .178-.019.281-.028.01-.085.01-.14.019-.206.037-1.498-.019-2.986.047-4.484.065-1.769.037-3.538.056-5.307.009-.674-.056-1.329-.178-1.993a6.695 6.695 0 0 0-.412-1.358 7.39 7.39 0 0 0-2.153-2.864c-.833-.674-1.788-1.123-2.817-1.413a5.392 5.392 0 0 0-1.02-.169c-.43-.028-.87-.028-1.31-.028-.085 0-.179 0-.254.038-.233.103-.496.028-.748.13-.29.132-.627.17-.936.272A7.137 7.137 0 0 0 79 36.01c-.122.094-.197.187-.281.28Zm54.129 15.182V40.96c0-.281.046-.543.121-.805a3.751 3.751 0 0 1 1.348-1.947 3.484 3.484 0 0 1 1.601-.712c.589-.093 1.207-.103 1.797.094.59.197 1.114.496 1.544.936.749.777 1.039 1.731 1.086 2.78.019.402-.056.805-.056 1.207-.019 2.78-.01 5.55-.01 8.33v.141c.038.412.169.534.571.534h1.592c.065 0 .14 0 .206.009.112.019.224.047.337.056.159.01.308 0 .468 0 .318 0 .318 0 .318-.328V40.99c0-.188 0-.384.047-.562.159-.608.402-1.18.842-1.647.655-.693 1.441-1.152 2.415-1.236.075-.01.15-.028.224-.047.16-.037.319-.056.478.02a.438.438 0 0 0 .159.027c.412 0 .777.14 1.132.318a3.6 3.6 0 0 1 1.545 1.423c.309.524.533 1.086.524 1.713-.009 1.17.094 2.33.075 3.5-.019 2.116-.009 4.231-.009 6.337v.188c-.01.196.103.327.271.393.094.037.206.056.318.065.113.01.234 0 .347 0h2.152c.225 0 .244-.019.244-.215.009-.72.028-1.45.028-2.172v-7.647c0-.42-.01-.833-.075-1.254a8.013 8.013 0 0 0-.374-1.479c-.637-1.675-1.76-2.92-3.333-3.772a5.828 5.828 0 0 0-1.928-.664c-.384-.057-.767-.122-1.151-.14-.328-.02-.665.046-1.002.055-.524.019-1.029.16-1.516.328a6.81 6.81 0 0 0-2.911 1.928c-.047.047-.103.094-.168.16-1.264-1.433-2.808-2.313-4.718-2.5-1.9-.178-3.603.318-5.11 1.498-.787-.758-1.741-.992-2.79-1.058v.309l.029 11.138v4.652c0 .094-.01.187 0 .28.028.403.196.553.599.563h2.433c.084 0 .178-.01.3-.02Zm-23.934-13.628v9.715c0 .571.038 1.142.15 1.713.075.346.178.674.337.992.206.412.487.768.852 1.04a3.644 3.644 0 0 0 2.181.692c.252 0 .514-.01.767 0 .29.019.571-.028.852-.122 1.067-.346 1.46-1.123 1.563-2.003.019-.196.009-.402 0-.608a.945.945 0 0 0-.197-.552c-.056.046-.112.093-.168.13-.14.085-.272.188-.431.235-.355.103-.72.14-1.085.103a2.18 2.18 0 0 1-.59-.15c-.515-.216-.693-.646-.711-1.16-.019-.628-.01-1.246-.01-1.873v-7.88c0-.094 0-.179.01-.263.739-.056 1.441.066 2.143-.084.131-.028.271-.047.402-.094a1.983 1.983 0 0 0 1.208-1.001c.215-.403.281-.833.309-1.283.009-.14 0-.271-.01-.43h-3.247c-.272 0-.543.019-.833-.01v-5.213c-.094 0-.16-.01-.225-.01h-2.761c-.281 0-.45.132-.506.412-.018.113-.018.234-.018.347v4.277c0 .056-.01.122-.019.197h-2.705c-.01.075-.019.122-.019.178v2.246c0 .056-.009.112.019.16.037.074.084.168.15.196.149.056.308.093.468.093.627.01 1.244 0 1.872 0 .084-.01.159 0 .252.01Zm-11.54 13.73c.102.01.177.01.261.01h2.64c.44 0 .627-.225.655-.646v-13.75c0-.337-.075-.664-.168-.982-.141-.515-.44-.936-.852-1.283-.403-.346-.899-.486-1.395-.617-.243-.066-.505-.057-.758-.066-.337-.01-.393.047-.393.374v16.68c.01.084.01.168.01.28Zm24.719.422c.253-.019.44 0 .618-.038a2.68 2.68 0 0 0 1.348-.786c.561-.608.73-1.329.617-2.115a2.347 2.347 0 0 0-.608-1.264 2.543 2.543 0 0 0-1.638-.842c-.412-.056-.824.028-1.207.197-.88.364-1.386 1.048-1.564 1.956-.093.486-.018.992.206 1.45.478.908 1.227 1.423 2.228 1.442ZM99.171 32.144c1.085.074 2.115-.843 2.115-2.05 0-1.217-1.011-2.022-1.91-2.088-1.432-.103-2.265 1.067-2.283 2.032-.029 1.104.926 2.19 2.078 2.106Z" fill="#fff"/><path d="m78.719 36.288.234-.262a7.313 7.313 0 0 1 2.78-1.844c.309-.112.636-.14.936-.271.243-.113.505-.028.749-.131.075-.038.168-.038.252-.038.44 0 .87 0 1.31.029.347.027.693.074 1.021.168 1.03.29 1.975.74 2.817 1.413a7.367 7.367 0 0 1 2.153 2.864c.187.431.318.89.412 1.358.131.655.187 1.32.178 1.993-.019 1.77.018 3.538-.056 5.307-.056 1.498-.01 2.986-.047 4.484 0 .065-.01.122-.019.206-.103.01-.187.028-.28.028-.815 0-1.639.01-2.453 0-.15 0-.309-.047-.45-.103-.065-.019-.13-.103-.149-.169-.047-.15-.084-.3-.084-.458-.01-1.058 0-2.125 0-3.183-.01-2.358-.01-4.726-.038-7.085 0-.28-.103-.562-.196-.824-.403-1.104-1.142-1.9-2.247-2.33a3.414 3.414 0 0 0-1.675-.225c-1.151.168-2.144.655-2.817 1.647a4.24 4.24 0 0 0-.58 1.292 2.556 2.556 0 0 0-.066.599V51.63c-.197.093-.384.074-.562.037a1.543 1.543 0 0 0-.3-.038h-2.246c-.29 0-.44-.15-.45-.44V40.968c0-.365-.074-.711-.158-1.057a3.452 3.452 0 0 0-.459-1.04 3.66 3.66 0 0 0-1.816-1.478 3.47 3.47 0 0 0-.758-.197c-.196-.037-.393-.084-.599-.065-1.563.103-2.77.758-3.51 2.18a3.469 3.469 0 0 0-.384 1.592c.01 3.454 0 6.907 0 10.361v.319c-.112.009-.206.028-.3.028h-2.451c-.496 0-.684-.197-.684-.703l-.028-6.645v-9.734c0-.375 0-.375.365-.31.31.057.618.094.918.17.59.158 1.132.402 1.563.879 1.553-1.189 3.304-1.75 5.25-1.554 1.994.178 3.604 1.058 4.924 2.574ZM132.85 51.473c-.122.01-.215.029-.309.029h-2.433c-.403 0-.571-.16-.599-.562-.01-.094 0-.187 0-.28v-4.653l-.029-11.138v-.31c1.039.067 2.004.3 2.79 1.059 1.507-1.18 3.21-1.685 5.11-1.498 1.91.178 3.454 1.058 4.718 2.5.065-.066.121-.113.168-.16a6.864 6.864 0 0 1 2.911-1.928c.487-.169.992-.309 1.516-.328.337-.01.665-.065 1.002-.056.384.019.767.084 1.151.14.684.104 1.32.338 1.928.665 1.573.852 2.696 2.097 3.333 3.772.177.477.29.974.374 1.479.075.421.075.833.075 1.254v7.647c0 .721-.019 1.451-.028 2.172 0 .196-.028.215-.244.215h-2.152c-.113 0-.234.01-.347 0a1.282 1.282 0 0 1-.318-.065c-.168-.075-.281-.197-.271-.394v-.187c0-2.115-.019-4.23.009-6.336.009-1.17-.094-2.331-.075-3.501.009-.627-.215-1.189-.524-1.713a3.5 3.5 0 0 0-1.544-1.423c-.356-.168-.721-.318-1.133-.318a.436.436 0 0 1-.159-.028c-.159-.075-.318-.056-.478-.019a1.858 1.858 0 0 1-.224.047c-.974.084-1.75.534-2.415 1.236-.44.468-.693 1.039-.842 1.647-.047.178-.047.374-.047.562v10.267c0 .328 0 .328-.318.328-.16 0-.309.01-.468 0-.113-.01-.225-.037-.337-.056-.066-.01-.141-.01-.206-.01h-1.592c-.411 0-.533-.121-.57-.533v-.14c0-2.78-.01-5.55.009-8.33 0-.403.075-.806.056-1.208-.037-1.048-.337-2.013-1.086-2.78-.43-.44-.954-.74-1.544-.936-.59-.197-1.208-.187-1.797-.094a3.484 3.484 0 0 0-1.601.712 3.751 3.751 0 0 0-1.348 1.947 2.884 2.884 0 0 0-.121.804c.009 3.389 0 6.787 0 10.175.009.093.009.196.009.327ZM57.051 51.59c-.075-.403.066-.815-.103-1.227-.084.047-.14.084-.197.122-.701.449-1.431.823-2.236 1.039-.497.13-.983.243-1.498.28-.328.02-.646.094-.974.057a18.715 18.715 0 0 1-1.244-.15 7.262 7.262 0 0 1-2.032-.655c-1.843-.908-3.173-2.312-3.987-4.203a7.544 7.544 0 0 1-.402-1.282c-.113-.478-.197-.955-.178-1.451 0-.075-.028-.15-.038-.225-.009-.084-.046-.187-.009-.253.084-.187.056-.383.056-.57 0-.225.019-.45.084-.665.066-.215.066-.44.122-.655.084-.3.169-.6.28-.89a8.135 8.135 0 0 1 3.08-3.846 8.157 8.157 0 0 1 1.713-.861c.478-.169.964-.272 1.451-.384.487-.113.973-.056 1.46-.084.178-.01.356-.02.534 0 .327.037.664.084.992.14.168.028.327.094.496.131.45.103.87.28 1.282.477.459.216.908.459 1.301.777.019.019.056.028.103.047.01-.047.01-.075.01-.103 0-.505.046-1.02-.01-1.516-.112-1.04-.037-2.069-.056-3.108-.019-1.03 0-2.059 0-3.088 0-.122.019-.244.028-.403.215 0 .403.01.6 0a3.08 3.08 0 0 1 1.235.187c.692.253 1.18.72 1.432 1.404.159.43.234.89.234 1.348v18.954c0 .084.01.168 0 .253-.019.178-.187.412-.403.412-1.02-.01-2.04-.01-3.06-.01-.02.01-.028.01-.066 0Zm-.019-7.845c0-.299-.009-.59 0-.889a1.767 1.767 0 0 0-.13-.702c-.487-1.3-1.349-2.265-2.603-2.855-.449-.215-.917-.374-1.404-.402-.524-.028-1.048-.075-1.582.056-.224.056-.449.103-.664.178a4.736 4.736 0 0 0-2.49 1.956c-.496.768-.795 1.6-.767 2.527 0 .16.009.31 0 .469-.02.43.084.833.215 1.235.318.936.87 1.713 1.657 2.321.73.571 1.553.908 2.47 1.002.328.028.656.01.983.01.487-.01.955-.15 1.395-.338 1.264-.533 2.171-1.441 2.705-2.705.14-.327.253-.664.225-1.039-.028-.28-.01-.552-.01-.824ZM35.598 39.532c0-.6.056-1.189-.018-1.77a2.567 2.567 0 0 0-.927-1.675c-.477-.402-1.048-.627-1.647-.777-.403-.102-.805-.084-1.208-.121a3.285 3.285 0 0 0-1.048.065c-.225.056-.468.047-.693.15-.187.084-.421.075-.627.112-.14.029-.271.075-.412.085-.58.047-1.095-.14-1.535-.496a3.29 3.29 0 0 1-.936-1.208c-.103-.215-.084-.271.122-.393.59-.346 1.18-.674 1.816-.898.28-.104.57-.16.842-.263.215-.084.459-.046.665-.168.018-.01.046-.01.065-.01a14.558 14.558 0 0 1 2.116-.093c.3.01.608-.01.907 0 .188.01.366.047.553.066.028 0 .056.018.093.018.627.056 1.227.244 1.807.477.842.347 1.6.834 2.237 1.508a5.863 5.863 0 0 1 1.46 2.723c.14.6.187 1.189.187 1.807-.01 3.875 0 7.75 0 11.625 0 .337.084.664.15.983.019.065.028.13.047.215-.066.01-.113.028-.169.028-.402 0-.814.019-1.217 0a3.096 3.096 0 0 1-1.188-.3c-.543-.262-.768-.73-.786-1.3-.01-.188 0-.366 0-.59-.047.047-.066.075-.085.103-.72 1.104-1.74 1.787-3.004 2.115-.347.094-.684.206-1.049.178-.514.159-1.048.084-1.572.075-.28 0-.562-.038-.833-.094-.824-.187-1.62-.45-2.303-.964-.898-.674-1.59-1.507-2.021-2.555-.14-.337-.216-.693-.3-1.048-.093-.394-.065-.777-.084-1.161v-.234a4.554 4.554 0 0 1 .178-1.376c.103-.384.243-.758.42-1.114.422-.824 1.068-1.45 1.817-1.984a7.491 7.491 0 0 1 1.872-.946c.28-.093.57-.159.852-.215.262-.056.533-.103.795-.15.103-.018.215-.028.328-.037.505-.037 1.01-.066 1.507-.103.206-.019.412-.066.627-.075.524-.037 1.057-.065 1.582-.112.206-.019.402-.066.617-.103Zm0 3.182c-.15.028-.262.066-.374.075-.421.038-.833.019-1.254.094-.347.065-.712.028-1.067.084-.422.075-.861.037-1.292.103-.243.037-.496.075-.72.15-1.133.374-1.873 1.114-2.163 2.302-.103.44-.037.843.084 1.255.14.477.45.851.824 1.17.459.374.983.58 1.582.58.253 0 .505-.028.758-.075.29-.056.571-.131.842-.253a5.123 5.123 0 0 0 1.666-1.189c.74-.767 1.133-1.684 1.133-2.751v-1.283c-.019-.084-.019-.159-.019-.262ZM172.796 45.52c.515.234.992.496 1.301.974.14.215.206.44.224.702.019.402-.084.749-.262 1.095-.327.646-.786 1.18-1.329 1.638-.692.59-1.507.973-2.349 1.282-.384.15-.786.262-1.189.375-.252.065-.515.084-.777.121-.215.028-.43.075-.645.085-.384.018-.777.037-1.161-.075-.075-.019-.159 0-.234-.01-.15-.009-.3.019-.431-.075-.009-.009-.028-.009-.046-.009-1.339-.187-2.537-.711-3.632-1.479-1.479-1.039-2.537-2.405-3.117-4.127a14.26 14.26 0 0 1-.356-1.227c-.065-.28-.084-.58-.121-.87-.019-.15-.075-.309-.075-.459a50.985 50.985 0 0 1 0-2.106c0-.243.047-.496.103-.73.14-.655.318-1.31.617-1.919.272-.543.6-1.039.983-1.507a8.202 8.202 0 0 1 1.404-1.329 8.292 8.292 0 0 1 2.34-1.245c.281-.093.581-.159.871-.224.234-.056.468-.113.692-.15a2.17 2.17 0 0 1 .347-.028c.299 0 .608-.01.908 0 .177.01.346.047.524.084.178.028.346.056.524.094 1.338.29 2.499.936 3.529 1.834.936.824 1.628 1.825 2.143 2.949.112.243.187.505.271.767a.448.448 0 0 1-.177.515c-.122.084-.253.16-.384.215-.655.31-1.311.609-1.975.908-.693.318-1.385.627-2.087.946-.74.337-1.47.674-2.209 1.01-1.329.618-2.659 1.227-3.988 1.844-.149.075-.309.14-.486.216.065.103.112.187.168.271.337.543.721 1.039 1.217 1.442.59.477 1.264.795 1.984 1.02.347.103.702.168 1.058.234.346.056.683.056 1.02.046.272-.009.534-.074.796-.14.262-.065.524-.14.777-.234a5.81 5.81 0 0 0 2.648-1.956c.216-.243.384-.496.581-.768Zm-2.789-6.402a4.768 4.768 0 0 0-1.011-.973 3.856 3.856 0 0 0-1.049-.496 3.084 3.084 0 0 0-.692-.16c-.618-.037-1.236-.027-1.844.15-.571.169-1.105.384-1.554.768-.243.215-.477.45-.693.692-.767.834-1.132 1.844-1.226 2.958-.018.244-.028.487-.047.768 2.696-1.236 5.392-2.462 8.116-3.707ZM108.914 37.842c-.093-.01-.168-.01-.234-.01-.627 0-1.245.01-1.872 0-.159 0-.318-.047-.468-.093-.065-.028-.112-.122-.149-.197-.019-.047-.019-.103-.019-.159v-2.246c0-.056.009-.103.019-.178h2.705c.009-.085.018-.14.018-.197v-4.277c0-.113 0-.234.019-.347.056-.28.225-.411.506-.411h2.761c.065 0 .14.009.224.009v5.213c.29.029.562.01.833.01H116.505c0 .159.019.3.01.43-.038.44-.103.88-.309 1.283a2.008 2.008 0 0 1-1.208 1.001c-.131.038-.271.066-.402.094-.702.15-1.414.028-2.144.084 0 .084-.009.178-.009.262v7.881c0 .627-.019 1.245.009 1.872.019.515.197.946.712 1.16.187.076.384.122.589.15.365.038.731 0 1.086-.102.15-.047.29-.15.431-.234.056-.038.103-.085.168-.131a.849.849 0 0 1 .197.552c.009.206.019.412 0 .608-.103.88-.506 1.666-1.563 2.003a2.574 2.574 0 0 1-.852.122c-.253-.019-.515 0-.768 0-.795-.01-1.535-.225-2.18-.693a2.689 2.689 0 0 1-.852-1.039 3.887 3.887 0 0 1-.337-.992c-.122-.57-.15-1.132-.15-1.713v-9.5c-.019-.066-.019-.131-.019-.215ZM97.373 51.572v-16.96c0-.328.056-.393.393-.375.253.01.524 0 .758.066.496.13.983.28 1.395.618.412.346.711.767.852 1.282.084.318.168.646.168.983-.009 4.511 0 9.032 0 13.544v.206c-.019.42-.215.645-.655.645-.88-.01-1.76 0-2.64 0-.084 0-.168 0-.271-.01ZM122.095 51.998c-1.002-.018-1.751-.533-2.219-1.46a2.312 2.312 0 0 1-.206-1.45c.178-.908.684-1.582 1.563-1.957.384-.159.796-.243 1.208-.196.646.084 1.198.355 1.638.842.327.365.543.796.608 1.264.113.786-.056 1.516-.618 2.115a2.608 2.608 0 0 1-1.347.786c-.178.056-.375.047-.627.056ZM99.17 32.144c-1.151.084-2.106-.993-2.078-2.106.02-.965.862-2.135 2.284-2.032.889.066 1.9.861 1.91 2.088 0 1.198-1.03 2.124-2.116 2.05Z" fill="#fff"/></svg>