<svg width="200" height="80" fill="none" xmlns="http://www.w3.org/2000/svg"><path fill-rule="evenodd" clip-rule="evenodd" d="M57.5 26.844 39.213 16.286a3 3 0 0 0-3 0L17.926 26.844a3 3 0 0 0-1.5 2.598V50.56a3 3 0 0 0 1.5 2.598l18.287 10.558a3 3 0 0 0 3 0L57.5 53.157a3 3 0 0 0 1.5-2.598V29.443a3 3 0 0 0-1.5-2.599ZM39.713 15.42a4 4 0 0 0-4 0L17.426 25.978a4 4 0 0 0-2 3.464V50.56a4 4 0 0 0 2 3.464L35.713 64.58a4 4 0 0 0 4 0L58 54.023a4 4 0 0 0 2-3.464V29.443a4 4 0 0 0-2-3.465L39.713 15.42Zm-2.5 5.564a1 1 0 0 1 1 0l6.661 3.846a1 1 0 0 1 .5.866v7.692a1 1 0 0 1-.5.866l-6.66 3.845a1 1 0 0 1-1 0l-6.662-3.845a1 1 0 0 1-.5-.866v-7.692a1 1 0 0 1 .5-.866l6.661-3.846Zm9.65 16.086a1 1 0 0 1 1 0l6.662 3.846a1 1 0 0 1 .5.866v7.692a1 1 0 0 1-.5.866l-6.661 3.845a1 1 0 0 1-1 0l-6.662-3.846a1 1 0 0 1-.5-.865v-7.692a1 1 0 0 1 .5-.866l6.662-3.846Zm-18.301 0a1 1 0 0 0-1 0L20.9 40.916a1 1 0 0 0-.5.866v7.692a1 1 0 0 0 .5.866l6.662 3.845a1 1 0 0 0 1 0l6.66-3.846a1 1 0 0 0 .5-.865v-7.692a1 1 0 0 0-.5-.866l-6.66-3.846ZM118.694 46v-7.248h-1.136v-1.104h1.136v-.176c0-.683.101-1.27.304-1.76.213-.501.512-.885.896-1.152.384-.267.837-.4 1.36-.4.331 0 .656.048.976.144.32.085.608.208.864.368l-.352 1.04a1.814 1.814 0 0 0-.56-.256 2.217 2.217 0 0 0-.64-.096c-.459 0-.816.181-1.072.544-.245.352-.368.859-.368 1.52v.224h2.224v1.104h-2.224V46h-1.408Zm-38.613-2.928c0 .587-.15 1.099-.448 1.536a3.015 3.015 0 0 1-1.216 1.024 3.734 3.734 0 0 1-1.664.368H71.36V34.64h5.648c.533 0 .992.144 1.376.432.394.277.693.64.896 1.088a3.1 3.1 0 0 1 .32 1.376c0 .555-.144 1.078-.432 1.568-.278.48-.678.837-1.2 1.072.65.192 1.162.55 1.536 1.072.384.512.576 1.12.576 1.824Zm-1.456-.256c0-.352-.08-.677-.24-.976a1.861 1.861 0 0 0-.624-.72 1.51 1.51 0 0 0-.896-.272H72.8v3.904h3.952c.352 0 .666-.09.944-.272a1.93 1.93 0 0 0 .672-.704c.17-.299.256-.619.256-.96ZM72.8 35.888v3.792h3.616c.341 0 .64-.085.896-.256.266-.17.474-.4.624-.688.16-.288.24-.602.24-.944 0-.363-.075-.683-.224-.96a1.69 1.69 0 0 0-.592-.688 1.449 1.449 0 0 0-.848-.256H72.8ZM85.567 46.16c-.63 0-1.205-.112-1.728-.336a4.433 4.433 0 0 1-1.344-.944 4.605 4.605 0 0 1-.88-1.392 4.563 4.563 0 0 1-.304-1.664c0-.79.181-1.51.544-2.16a4.242 4.242 0 0 1 1.504-1.568c.65-.394 1.392-.592 2.224-.592.843 0 1.573.203 2.192.608.63.395 1.115.917 1.456 1.568a4.247 4.247 0 0 1 .512 2.4c0 .096-.005.17-.016.224H82.8c.043.544.192 1.03.448 1.456.267.416.608.747 1.024.992a2.69 2.69 0 0 0 1.344.352c.512 0 .992-.128 1.44-.384.459-.256.773-.592.944-1.008l1.216.336a3.175 3.175 0 0 1-.816 1.088c-.352.32-.773.57-1.264.752a4.4 4.4 0 0 1-1.568.272Zm-2.816-4.832h5.696a3.066 3.066 0 0 0-.464-1.44 2.89 2.89 0 0 0-1.024-.976 2.753 2.753 0 0 0-1.376-.352c-.49 0-.944.117-1.36.352-.416.235-.757.56-1.024.976a3.18 3.18 0 0 0-.448 1.44Zm9.485 4.496a5.602 5.602 0 0 0 1.952.336c.982 0 1.77-.218 2.368-.656.598-.448.896-1.066.896-1.856 0-.512-.128-.912-.384-1.2-.256-.288-.618-.523-1.088-.704a18.236 18.236 0 0 0-1.632-.544 22.865 22.865 0 0 1-1.04-.352c-.277-.106-.49-.234-.64-.384-.138-.16-.208-.373-.208-.64 0-.32.09-.565.272-.736a1.39 1.39 0 0 1 .688-.368 3.25 3.25 0 0 1 .848-.112c.49 0 .934.086 1.328.256.395.16.758.41 1.088.752l.64-.976a3.556 3.556 0 0 0-1.296-.848 4.666 4.666 0 0 0-1.68-.288c-.618 0-1.173.096-1.664.288-.48.192-.858.475-1.136.848-.277.363-.416.81-.416 1.344 0 .438.102.8.304 1.088.203.288.502.528.896.72.395.192.88.373 1.456.544.47.128.875.245 1.216.352.342.096.603.219.784.368.192.15.288.379.288.688 0 .427-.181.752-.544.976-.362.214-.832.32-1.408.32a3.93 3.93 0 0 1-1.472-.288c-.48-.192-.96-.512-1.44-.96l-.544.992c.438.459.96.806 1.568 1.04Zm11.221-.24c-.118.053-.278.123-.48.208a4.6 4.6 0 0 1-.704.224 3.63 3.63 0 0 1-.848.096c-.342 0-.656-.059-.944-.176a1.58 1.58 0 0 1-.688-.576c-.17-.267-.256-.597-.256-.992v-5.616H98.4v-1.104h1.136v-2.784h1.408v2.784h1.872v1.104h-1.872v5.184c.021.299.122.523.304.672.181.139.394.208.64.208.277 0 .533-.048.768-.144a4.94 4.94 0 0 0 .464-.208l.336 1.12Zm7.288.24a4.225 4.225 0 0 0 1.712.336c.629 0 1.2-.112 1.712-.336.522-.234.97-.55 1.344-.944.373-.405.661-.87.864-1.392a4.532 4.532 0 0 0 .304-1.648c0-.587-.102-1.141-.304-1.664a4.058 4.058 0 0 0-.88-1.376 3.929 3.929 0 0 0-1.328-.944 4.063 4.063 0 0 0-1.712-.352 4.13 4.13 0 0 0-1.712.352 3.919 3.919 0 0 0-1.328.944 4.158 4.158 0 0 0-.864 1.376 4.555 4.555 0 0 0-.304 1.664c0 .576.101 1.125.304 1.648.202.523.49.987.864 1.392.373.395.816.71 1.328.944Zm-.688-2.4a3.325 3.325 0 0 1-.368-1.568c0-.587.122-1.114.368-1.584.256-.47.592-.843 1.008-1.12a2.39 2.39 0 0 1 1.392-.432c.512 0 .976.139 1.392.416.426.277.762.65 1.008 1.12.256.47.384.992.384 1.568 0 .576-.128 1.104-.384 1.584-.246.47-.582.843-1.008 1.12-.416.278-.88.416-1.392.416-.512 0-.976-.133-1.392-.4a3.104 3.104 0 0 1-1.008-1.12Zm27.409-6.096V46h1.44V34.64h-1.504l-4.128 7.376-4.112-7.376h-1.52V46h1.44v-8.672l3.76 6.672h.88l3.744-6.672Zm3.202 6.256c0-.533.15-.992.448-1.376.31-.395.731-.698 1.264-.912.534-.213 1.152-.32 1.856-.32.374 0 .768.032 1.184.096.416.053.784.139 1.104.256v-.608c0-.64-.192-1.141-.576-1.504-.384-.373-.928-.56-1.632-.56-.458 0-.901.086-1.328.256-.416.16-.858.395-1.328.704l-.512-.992a6.566 6.566 0 0 1 1.632-.832 5.061 5.061 0 0 1 1.696-.288c1.067 0 1.91.299 2.528.896.619.587.928 1.408.928 2.464V44.4c0 .17.032.299.096.384.075.075.192.117.352.128V46a6.825 6.825 0 0 1-.368.048c-.096.01-.176.016-.24.016-.33 0-.581-.09-.752-.272a1.033 1.033 0 0 1-.272-.576l-.032-.528c-.362.47-.837.832-1.424 1.088a4.332 4.332 0 0 1-1.744.384c-.554 0-1.05-.112-1.488-.336a2.707 2.707 0 0 1-1.024-.928 2.438 2.438 0 0 1-.368-1.312Zm5.44.592c.128-.15.23-.299.304-.448a.989.989 0 0 0 .112-.4v-1.04a5.52 5.52 0 0 0-1.04-.288 5.306 5.306 0 0 0-1.072-.112c-.714 0-1.296.144-1.744.432-.437.277-.656.661-.656 1.152 0 .267.07.528.208.784.15.245.363.448.64.608.288.16.64.24 1.056.24.438 0 .854-.085 1.248-.256.395-.181.71-.405.944-.672Zm4.988 1.648a5.6 5.6 0 0 0 1.952.336c.981 0 1.77-.218 2.368-.656.597-.448.896-1.066.896-1.856 0-.512-.128-.912-.384-1.2-.256-.288-.619-.523-1.088-.704a18.301 18.301 0 0 0-1.632-.544 22.615 22.615 0 0 1-1.04-.352c-.278-.106-.491-.234-.64-.384-.139-.16-.208-.373-.208-.64 0-.32.09-.565.272-.736.181-.181.41-.304.688-.368.277-.075.56-.112.848-.112.49 0 .933.086 1.328.256.394.16.757.41 1.088.752l.64-.976a3.56 3.56 0 0 0-1.296-.848 4.67 4.67 0 0 0-1.68-.288c-.619 0-1.174.096-1.664.288-.48.192-.859.475-1.136.848-.278.363-.416.81-.416 1.344 0 .438.101.8.304 1.088.202.288.501.528.896.72.394.192.88.373 1.456.544.469.128.874.245 1.216.352.341.096.602.219.784.368.192.15.288.379.288.688 0 .427-.182.752-.544.976-.363.214-.832.32-1.408.32-.502 0-.992-.096-1.472-.288-.48-.192-.96-.512-1.44-.96l-.544.992c.437.459.96.806 1.568 1.04Zm11.22-.24c-.117.053-.277.123-.48.208-.203.085-.437.16-.704.224a3.624 3.624 0 0 1-.848.096c-.341 0-.656-.059-.944-.176a1.581 1.581 0 0 1-.688-.576c-.171-.267-.256-.597-.256-.992v-5.616h-1.136v-1.104h1.136v-2.784h1.408v2.784h1.872v1.104h-1.872v5.184c.021.299.123.523.304.672.181.139.395.208.64.208.277 0 .533-.048.768-.144.235-.096.389-.165.464-.208l.336 1.12Zm3.164.24a4.337 4.337 0 0 0 1.728.336c.565 0 1.088-.09 1.568-.272.49-.181.912-.432 1.264-.752.362-.32.634-.683.816-1.088l-1.216-.336c-.171.416-.486.752-.944 1.008a2.855 2.855 0 0 1-1.44.384 2.69 2.69 0 0 1-1.344-.352 3.028 3.028 0 0 1-1.024-.992 3.279 3.279 0 0 1-.448-1.456h6.928c.01-.053.016-.128.016-.224a4.247 4.247 0 0 0-.512-2.4 4.042 4.042 0 0 0-1.456-1.568c-.619-.405-1.35-.608-2.192-.608-.832 0-1.574.198-2.224.592a4.236 4.236 0 0 0-1.504 1.568 4.358 4.358 0 0 0-.544 2.16c0 .587.101 1.142.304 1.664.213.523.506.987.88 1.392.384.395.832.71 1.344.944Zm4.608-4.496h-5.696a3.17 3.17 0 0 1 .448-1.44 2.886 2.886 0 0 1 1.024-.976 2.721 2.721 0 0 1 1.36-.352c.501 0 .96.117 1.376.352.416.235.757.56 1.024.976.266.416.421.896.464 1.44Zm7.293-2.448c-.704.01-1.328.192-1.872.544a2.789 2.789 0 0 0-1.136 1.424V46h-1.408v-8.352h1.312v1.936a3.868 3.868 0 0 1 1.136-1.392c.48-.362.981-.565 1.504-.608h.272c.075 0 .139.005.192.016v1.28Zm2.308 6.944a5.603 5.603 0 0 0 1.952.336c.982 0 1.771-.218 2.368-.656.598-.448.896-1.066.896-1.856 0-.512-.128-.912-.384-1.2-.256-.288-.618-.523-1.088-.704a18.086 18.086 0 0 0-1.632-.544 23.035 23.035 0 0 1-1.04-.352c-.277-.106-.49-.234-.64-.384-.138-.16-.208-.373-.208-.64 0-.32.091-.565.272-.736.182-.181.411-.304.688-.368.278-.075.56-.112.848-.112.491 0 .934.086 1.328.256.395.16.758.41 1.088.752l.64-.976a3.544 3.544 0 0 0-1.296-.848 4.663 4.663 0 0 0-1.68-.288c-.618 0-1.173.096-1.664.288-.48.192-.858.475-1.136.848-.277.363-.416.81-.416 1.344 0 .438.102.8.304 1.088.203.288.502.528.896.72.395.192.88.373 1.456.544.47.128.875.245 1.216.352.342.096.603.219.784.368.192.15.288.379.288.688 0 .427-.181.752-.544.976-.362.214-.832.32-1.408.32-.501 0-.992-.096-1.472-.288-.48-.192-.96-.512-1.44-.96l-.544.992c.438.459.96.806 1.568 1.04Z" fill="#fff"/></svg>