<svg width="200" height="80" viewBox="0 0 200 80" fill="none" xmlns="http://www.w3.org/2000/svg">
<path fill-rule="evenodd" clip-rule="evenodd" d="M57.5002 26.8444L39.213 16.2863C38.2848 15.7504 37.1412 15.7504 36.213 16.2863L17.9258 26.8444C16.9976 27.3803 16.4258 28.3707 16.4258 29.4425V50.5587C16.4258 51.6305 16.9976 52.6209 17.9258 53.1568L36.213 63.7149C37.1412 64.2508 38.2848 64.2508 39.213 63.7149L57.5002 53.1568C58.4284 52.6209 59.0002 51.6305 59.0002 50.5587V29.4425C59.0002 28.3707 58.4284 27.3803 57.5002 26.8444ZM39.713 15.4203C38.4754 14.7058 36.9506 14.7058 35.713 15.4203L17.4258 25.9784C16.1882 26.6929 15.4258 28.0134 15.4258 29.4425V50.5587C15.4258 51.9878 16.1882 53.3083 17.4258 54.0228L35.713 64.5809C36.9506 65.2955 38.4754 65.2955 39.713 64.5809L58.0002 54.0228C59.2378 53.3083 60.0002 51.9878 60.0002 50.5587V29.4425C60.0002 28.0134 59.2378 26.6929 58.0002 25.9784L39.713 15.4203ZM37.2131 20.984C37.5225 20.8053 37.9037 20.8053 38.2131 20.984L44.8743 24.8298C45.1837 25.0085 45.3743 25.3386 45.3743 25.6959V33.3876C45.3743 33.7448 45.1837 34.075 44.8743 34.2536L38.2131 38.0994C37.9037 38.2781 37.5225 38.2781 37.2131 38.0994L30.5519 34.2536C30.2425 34.075 30.0519 33.7448 30.0519 33.3876V25.6959C30.0519 25.3386 30.2425 25.0085 30.5519 24.8298L37.2131 20.984ZM46.8635 37.0699C47.1729 36.8913 47.5541 36.8913 47.8635 37.0699L54.5247 40.9158C54.8341 41.0944 55.0247 41.4245 55.0247 41.7818V49.4735C55.0247 49.8308 54.8341 50.1609 54.5247 50.3395L47.8635 54.1854C47.5541 54.364 47.1729 54.364 46.8635 54.1854L40.2022 50.3395C39.8928 50.1609 39.7022 49.8308 39.7022 49.4735V41.7818C39.7022 41.4245 39.8928 41.0944 40.2022 40.9158L46.8635 37.0699ZM28.5617 37.0699C28.2523 36.8913 27.8711 36.8913 27.5617 37.0699L20.9005 40.9158C20.5911 41.0944 20.4005 41.4245 20.4005 41.7818V49.4735C20.4005 49.8308 20.5911 50.1609 20.9005 50.3395L27.5617 54.1854C27.8711 54.364 28.2523 54.364 28.5617 54.1854L35.2229 50.3395C35.5323 50.1609 35.7229 49.8308 35.7229 49.4735V41.7818C35.7229 41.4245 35.5323 41.0944 35.2229 40.9158L28.5617 37.0699ZM118.694 46.0001V38.7521H117.558V37.6481H118.694V37.4721C118.694 36.7895 118.795 36.2028 118.998 35.7121C119.211 35.2108 119.51 34.8268 119.894 34.5601C120.278 34.2935 120.731 34.1601 121.254 34.1601C121.585 34.1601 121.91 34.2081 122.23 34.3041C122.55 34.3895 122.838 34.5121 123.094 34.6721L122.742 35.7121C122.593 35.6055 122.406 35.5201 122.182 35.4561C121.969 35.3921 121.755 35.3601 121.542 35.3601C121.083 35.3601 120.726 35.5415 120.47 35.9041C120.225 36.2561 120.102 36.7628 120.102 37.4241V37.6481H122.326V38.7521H120.102V46.0001H118.694ZM80.0808 43.0721C80.0808 43.6588 79.9314 44.1708 79.6328 44.6081C79.3341 45.0455 78.9288 45.3868 78.4168 45.6321C77.9154 45.8775 77.3608 46.0001 76.7528 46.0001H71.3608V34.6401H77.0088C77.5421 34.6401 78.0008 34.7841 78.3848 35.0721C78.7794 35.3495 79.0781 35.7121 79.2808 36.1601C79.4941 36.5975 79.6008 37.0561 79.6008 37.5361C79.6008 38.0908 79.4568 38.6135 79.1688 39.1041C78.8914 39.5841 78.4914 39.9415 77.9688 40.1761C78.6194 40.3681 79.1314 40.7255 79.5048 41.2481C79.8888 41.7601 80.0808 42.3681 80.0808 43.0721ZM78.6248 42.8161C78.6248 42.4641 78.5448 42.1388 78.3848 41.8401C78.2354 41.5415 78.0274 41.3015 77.7608 41.1201C77.5048 40.9388 77.2061 40.8481 76.8648 40.8481H72.8008V44.7521H76.7528C77.1048 44.7521 77.4194 44.6615 77.6968 44.4801C77.9848 44.2988 78.2088 44.0641 78.3688 43.7761C78.5394 43.4775 78.6248 43.1575 78.6248 42.8161ZM72.8008 35.8881V39.6801H76.4168C76.7581 39.6801 77.0568 39.5948 77.3128 39.4241C77.5794 39.2535 77.7874 39.0241 77.9368 38.7361C78.0968 38.4481 78.1768 38.1335 78.1768 37.7921C78.1768 37.4295 78.1021 37.1095 77.9528 36.8321C77.8141 36.5441 77.6168 36.3148 77.3608 36.1441C77.1154 35.9735 76.8328 35.8881 76.5128 35.8881H72.8008ZM85.5671 46.1601C84.9378 46.1601 84.3618 46.0481 83.8391 45.8241C83.3271 45.5895 82.8791 45.2748 82.4951 44.8801C82.1218 44.4748 81.8285 44.0108 81.6151 43.4881C81.4125 42.9655 81.3111 42.4108 81.3111 41.8241C81.3111 41.0348 81.4925 40.3148 81.8551 39.6641C82.2178 39.0135 82.7191 38.4908 83.3591 38.0961C84.0098 37.7015 84.7511 37.5041 85.5831 37.5041C86.4258 37.5041 87.1565 37.7068 87.7751 38.1121C88.4045 38.5068 88.8898 39.0295 89.2311 39.6801C89.5831 40.3201 89.7591 41.0135 89.7591 41.7601C89.7591 41.8668 89.7538 41.9735 89.7431 42.0801C89.7431 42.1761 89.7378 42.2508 89.7271 42.3041H82.7991C82.8418 42.8481 82.9911 43.3335 83.2471 43.7601C83.5138 44.1761 83.8551 44.5068 84.2711 44.7521C84.6871 44.9868 85.1351 45.1041 85.6151 45.1041C86.1271 45.1041 86.6071 44.9761 87.0551 44.7201C87.5138 44.4641 87.8285 44.1281 87.9991 43.7121L89.2151 44.0481C89.0338 44.4535 88.7618 44.8161 88.3991 45.1361C88.0471 45.4561 87.6258 45.7068 87.1351 45.8881C86.6551 46.0695 86.1325 46.1601 85.5671 46.1601ZM82.7511 41.3281H88.4471C88.4045 40.7841 88.2498 40.3041 87.9831 39.8881C87.7165 39.4721 87.3751 39.1468 86.9591 38.9121C86.5431 38.6775 86.0845 38.5601 85.5831 38.5601C85.0925 38.5601 84.6391 38.6775 84.2231 38.9121C83.8071 39.1468 83.4658 39.4721 83.1991 39.8881C82.9431 40.3041 82.7938 40.7841 82.7511 41.3281ZM92.2363 45.8241C92.8443 46.0481 93.4949 46.1601 94.1883 46.1601C95.1696 46.1601 95.9589 45.9415 96.5563 45.5041C97.1536 45.0561 97.4523 44.4375 97.4523 43.6481C97.4523 43.1361 97.3243 42.7361 97.0683 42.4481C96.8123 42.1601 96.4496 41.9255 95.9803 41.7441C95.5216 41.5628 94.9776 41.3815 94.3483 41.2001C93.9429 41.0721 93.5963 40.9548 93.3083 40.8481C93.0309 40.7415 92.8176 40.6135 92.6683 40.4641C92.5296 40.3041 92.4603 40.0908 92.4603 39.8241C92.4603 39.5041 92.5509 39.2588 92.7323 39.0881C92.9136 38.9068 93.1429 38.7841 93.4203 38.7201C93.6976 38.6455 93.9803 38.6081 94.2683 38.6081C94.7589 38.6081 95.2016 38.6935 95.5963 38.8641C95.9909 39.0241 96.3536 39.2748 96.6843 39.6161L97.3243 38.6401C96.9616 38.2668 96.5296 37.9841 96.0283 37.7921C95.5269 37.6001 94.9669 37.5041 94.3483 37.5041C93.7296 37.5041 93.1749 37.6001 92.6843 37.7921C92.2043 37.9841 91.8256 38.2668 91.5483 38.6401C91.2709 39.0028 91.1323 39.4508 91.1323 39.9841C91.1323 40.4215 91.2336 40.7841 91.4363 41.0721C91.6389 41.3601 91.9376 41.6001 92.3323 41.7921C92.7269 41.9841 93.2123 42.1655 93.7883 42.3361C94.2576 42.4641 94.6629 42.5815 95.0043 42.6881C95.3456 42.7841 95.6069 42.9068 95.7883 43.0561C95.9803 43.2055 96.0763 43.4348 96.0763 43.7441C96.0763 44.1708 95.8949 44.4961 95.5323 44.7201C95.1696 44.9335 94.7003 45.0401 94.1243 45.0401C93.6229 45.0401 93.1323 44.9441 92.6523 44.7521C92.1723 44.5601 91.6923 44.2401 91.2123 43.7921L90.6683 44.7841C91.1056 45.2428 91.6283 45.5895 92.2363 45.8241ZM103.457 45.5841C103.339 45.6375 103.179 45.7068 102.977 45.7921C102.774 45.8775 102.539 45.9521 102.273 46.0161C102.006 46.0801 101.723 46.1121 101.425 46.1121C101.083 46.1121 100.769 46.0535 100.481 45.9361C100.193 45.8081 99.9634 45.6161 99.7928 45.3601C99.6221 45.0935 99.5368 44.7628 99.5368 44.3681V38.7521H98.4008V37.6481H99.5368V34.8641H100.945V37.6481H102.817V38.7521H100.945V43.9361C100.966 44.2348 101.067 44.4588 101.249 44.6081C101.43 44.7468 101.643 44.8161 101.889 44.8161C102.166 44.8161 102.422 44.7681 102.657 44.6721C102.891 44.5761 103.046 44.5068 103.121 44.4641L103.457 45.5841ZM110.745 45.8241C111.257 46.0481 111.827 46.1601 112.457 46.1601C113.086 46.1601 113.657 46.0481 114.169 45.8241C114.691 45.5895 115.139 45.2748 115.513 44.8801C115.886 44.4748 116.174 44.0108 116.377 43.4881C116.579 42.9655 116.681 42.4161 116.681 41.8401C116.681 41.2535 116.579 40.6988 116.377 40.1761C116.174 39.6535 115.881 39.1948 115.497 38.8001C115.123 38.3948 114.681 38.0801 114.169 37.8561C113.657 37.6215 113.086 37.5041 112.457 37.5041C111.838 37.5041 111.267 37.6215 110.745 37.8561C110.233 38.0801 109.79 38.3948 109.417 38.8001C109.043 39.1948 108.755 39.6535 108.553 40.1761C108.35 40.6988 108.249 41.2535 108.249 41.8401C108.249 42.4161 108.35 42.9655 108.553 43.4881C108.755 44.0108 109.043 44.4748 109.417 44.8801C109.79 45.2748 110.233 45.5895 110.745 45.8241ZM110.057 43.4241C109.811 42.9548 109.689 42.4321 109.689 41.8561C109.689 41.2695 109.811 40.7415 110.057 40.2721C110.313 39.8028 110.649 39.4295 111.065 39.1521C111.481 38.8641 111.945 38.7201 112.457 38.7201C112.969 38.7201 113.433 38.8588 113.849 39.1361C114.275 39.4135 114.611 39.7868 114.857 40.2561C115.113 40.7255 115.241 41.2481 115.241 41.8241C115.241 42.4001 115.113 42.9281 114.857 43.4081C114.611 43.8775 114.275 44.2508 113.849 44.5281C113.433 44.8055 112.969 44.9441 112.457 44.9441C111.945 44.9441 111.481 44.8108 111.065 44.5441C110.649 44.2668 110.313 43.8935 110.057 43.4241ZM137.466 37.3281V46.0001H138.906V34.6401H137.402L133.274 42.0161L129.162 34.6401H127.642V46.0001H129.082V37.3281L132.842 44.0001H133.722L137.466 37.3281ZM140.668 43.5841C140.668 43.0508 140.818 42.5921 141.116 42.2081C141.426 41.8135 141.847 41.5095 142.38 41.2961C142.914 41.0828 143.532 40.9761 144.236 40.9761C144.61 40.9761 145.004 41.0081 145.42 41.0721C145.836 41.1255 146.204 41.2108 146.524 41.3281V40.7201C146.524 40.0801 146.332 39.5788 145.948 39.2161C145.564 38.8428 145.02 38.6561 144.316 38.6561C143.858 38.6561 143.415 38.7415 142.988 38.9121C142.572 39.0721 142.13 39.3068 141.66 39.6161L141.148 38.6241C141.692 38.2508 142.236 37.9735 142.78 37.7921C143.324 37.6001 143.89 37.5041 144.476 37.5041C145.543 37.5041 146.386 37.8028 147.004 38.4001C147.623 38.9868 147.932 39.8081 147.932 40.8641V44.4001C147.932 44.5708 147.964 44.6988 148.028 44.7841C148.103 44.8588 148.22 44.9015 148.38 44.9121V46.0001C148.242 46.0215 148.119 46.0375 148.012 46.0481C147.916 46.0588 147.836 46.0641 147.772 46.0641C147.442 46.0641 147.191 45.9735 147.02 45.7921C146.86 45.6108 146.77 45.4188 146.748 45.2161L146.716 44.6881C146.354 45.1575 145.879 45.5201 145.292 45.7761C144.706 46.0321 144.124 46.1601 143.548 46.1601C142.994 46.1601 142.498 46.0481 142.06 45.8241C141.623 45.5895 141.282 45.2801 141.036 44.8961C140.791 44.5015 140.668 44.0641 140.668 43.5841ZM146.108 44.1761C146.236 44.0268 146.338 43.8775 146.412 43.7281C146.487 43.5681 146.524 43.4348 146.524 43.3281V42.2881C146.194 42.1601 145.847 42.0641 145.484 42.0001C145.122 41.9255 144.764 41.8881 144.412 41.8881C143.698 41.8881 143.116 42.0321 142.668 42.3201C142.231 42.5975 142.012 42.9815 142.012 43.4721C142.012 43.7388 142.082 44.0001 142.22 44.2561C142.37 44.5015 142.583 44.7041 142.86 44.8641C143.148 45.0241 143.5 45.1041 143.916 45.1041C144.354 45.1041 144.77 45.0188 145.164 44.8481C145.559 44.6668 145.874 44.4428 146.108 44.1761ZM151.096 45.8241C151.704 46.0481 152.354 46.1601 153.048 46.1601C154.029 46.1601 154.818 45.9415 155.416 45.5041C156.013 45.0561 156.312 44.4375 156.312 43.6481C156.312 43.1361 156.184 42.7361 155.928 42.4481C155.672 42.1601 155.309 41.9255 154.84 41.7441C154.381 41.5628 153.837 41.3815 153.208 41.2001C152.802 41.0721 152.456 40.9548 152.168 40.8481C151.89 40.7415 151.677 40.6135 151.528 40.4641C151.389 40.3041 151.32 40.0908 151.32 39.8241C151.32 39.5041 151.41 39.2588 151.592 39.0881C151.773 38.9068 152.002 38.7841 152.28 38.7201C152.557 38.6455 152.84 38.6081 153.128 38.6081C153.618 38.6081 154.061 38.6935 154.456 38.8641C154.85 39.0241 155.213 39.2748 155.544 39.6161L156.184 38.6401C155.821 38.2668 155.389 37.9841 154.888 37.7921C154.386 37.6001 153.826 37.5041 153.208 37.5041C152.589 37.5041 152.034 37.6001 151.544 37.7921C151.064 37.9841 150.685 38.2668 150.408 38.6401C150.13 39.0028 149.992 39.4508 149.992 39.9841C149.992 40.4215 150.093 40.7841 150.296 41.0721C150.498 41.3601 150.797 41.6001 151.192 41.7921C151.586 41.9841 152.072 42.1655 152.648 42.3361C153.117 42.4641 153.522 42.5815 153.864 42.6881C154.205 42.7841 154.466 42.9068 154.648 43.0561C154.84 43.2055 154.936 43.4348 154.936 43.7441C154.936 44.1708 154.754 44.4961 154.392 44.7201C154.029 44.9335 153.56 45.0401 152.984 45.0401C152.482 45.0401 151.992 44.9441 151.512 44.7521C151.032 44.5601 150.552 44.2401 150.072 43.7921L149.528 44.7841C149.965 45.2428 150.488 45.5895 151.096 45.8241ZM162.316 45.5841C162.199 45.6375 162.039 45.7068 161.836 45.7921C161.633 45.8775 161.399 45.9521 161.132 46.0161C160.865 46.0801 160.583 46.1121 160.284 46.1121C159.943 46.1121 159.628 46.0535 159.34 45.9361C159.052 45.8081 158.823 45.6161 158.652 45.3601C158.481 45.0935 158.396 44.7628 158.396 44.3681V38.7521H157.26V37.6481H158.396V34.8641H159.804V37.6481H161.676V38.7521H159.804V43.9361C159.825 44.2348 159.927 44.4588 160.108 44.6081C160.289 44.7468 160.503 44.8161 160.748 44.8161C161.025 44.8161 161.281 44.7681 161.516 44.6721C161.751 44.5761 161.905 44.5068 161.98 44.4641L162.316 45.5841ZM165.48 45.8241C166.002 46.0481 166.578 46.1601 167.208 46.1601C167.773 46.1601 168.296 46.0695 168.776 45.8881C169.266 45.7068 169.688 45.4561 170.04 45.1361C170.402 44.8161 170.674 44.4535 170.856 44.0481L169.64 43.7121C169.469 44.1281 169.154 44.4641 168.696 44.7201C168.248 44.9761 167.768 45.1041 167.256 45.1041C166.776 45.1041 166.328 44.9868 165.912 44.7521C165.496 44.5068 165.154 44.1761 164.888 43.7601C164.632 43.3335 164.482 42.8481 164.44 42.3041H171.368C171.378 42.2508 171.384 42.1761 171.384 42.0801C171.394 41.9735 171.4 41.8668 171.4 41.7601C171.4 41.0135 171.224 40.3201 170.872 39.6801C170.53 39.0295 170.045 38.5068 169.416 38.1121C168.797 37.7068 168.066 37.5041 167.224 37.5041C166.392 37.5041 165.65 37.7015 165 38.0961C164.36 38.4908 163.858 39.0135 163.496 39.6641C163.133 40.3148 162.952 41.0348 162.952 41.8241C162.952 42.4108 163.053 42.9655 163.256 43.4881C163.469 44.0108 163.762 44.4748 164.136 44.8801C164.52 45.2748 164.968 45.5895 165.48 45.8241ZM170.088 41.3281H164.392C164.434 40.7841 164.584 40.3041 164.84 39.8881C165.106 39.4721 165.448 39.1468 165.864 38.9121C166.28 38.6775 166.733 38.5601 167.224 38.5601C167.725 38.5601 168.184 38.6775 168.6 38.9121C169.016 39.1468 169.357 39.4721 169.624 39.8881C169.89 40.3041 170.045 40.7841 170.088 41.3281ZM177.381 38.8801C176.677 38.8908 176.053 39.0721 175.509 39.4241C174.976 39.7655 174.597 40.2401 174.373 40.8481V46.0001H172.965V37.6481H174.277V39.5841C174.565 39.0081 174.944 38.5441 175.413 38.1921C175.893 37.8295 176.394 37.6268 176.917 37.5841H177.189C177.264 37.5841 177.328 37.5895 177.381 37.6001V38.8801ZM179.689 45.8241C180.297 46.0481 180.948 46.1601 181.641 46.1601C182.623 46.1601 183.412 45.9415 184.009 45.5041C184.607 45.0561 184.905 44.4375 184.905 43.6481C184.905 43.1361 184.777 42.7361 184.521 42.4481C184.265 42.1601 183.903 41.9255 183.433 41.7441C182.975 41.5628 182.431 41.3815 181.801 41.2001C181.396 41.0721 181.049 40.9548 180.761 40.8481C180.484 40.7415 180.271 40.6135 180.121 40.4641C179.983 40.3041 179.913 40.0908 179.913 39.8241C179.913 39.5041 180.004 39.2588 180.185 39.0881C180.367 38.9068 180.596 38.7841 180.873 38.7201C181.151 38.6455 181.433 38.6081 181.721 38.6081C182.212 38.6081 182.655 38.6935 183.049 38.8641C183.444 39.0241 183.807 39.2748 184.137 39.6161L184.777 38.6401C184.415 38.2668 183.983 37.9841 183.481 37.7921C182.98 37.6001 182.42 37.5041 181.801 37.5041C181.183 37.5041 180.628 37.6001 180.137 37.7921C179.657 37.9841 179.279 38.2668 179.001 38.6401C178.724 39.0028 178.585 39.4508 178.585 39.9841C178.585 40.4215 178.687 40.7841 178.889 41.0721C179.092 41.3601 179.391 41.6001 179.785 41.7921C180.18 41.9841 180.665 42.1655 181.241 42.3361C181.711 42.4641 182.116 42.5815 182.457 42.6881C182.799 42.7841 183.06 42.9068 183.241 43.0561C183.433 43.2055 183.529 43.4348 183.529 43.7441C183.529 44.1708 183.348 44.4961 182.985 44.7201C182.623 44.9335 182.153 45.0401 181.577 45.0401C181.076 45.0401 180.585 44.9441 180.105 44.7521C179.625 44.5601 179.145 44.2401 178.665 43.7921L178.121 44.7841C178.559 45.2428 179.081 45.5895 179.689 45.8241Z" fill="white"/>
</svg>
