<svg width="200" height="80" fill="none" xmlns="http://www.w3.org/2000/svg"><path fill-rule="evenodd" clip-rule="evenodd" d="M58.026 61C49.189 61 42 51.578 42 40s7.189-21 16.026-21 16.027 9.422 16.027 21-7.19 21-16.027 21Zm0-40.894c-8.228 0-14.921 8.925-14.921 19.894 0 10.969 6.692 19.894 14.92 19.894 8.229 0 14.922-8.925 14.922-19.894 0-10.969-6.693-19.894-14.921-19.894Zm90.514 27.152c-.753 1.05-1.687 1.803-2.8 2.262a8.757 8.757 0 0 1-3.363.689c-1.438 0-2.719-.277-3.85-.83a8.751 8.751 0 0 1-2.88-2.233 9.89 9.89 0 0 1-1.803-3.234 11.765 11.765 0 0 1-.619-3.794c0-1.462.192-2.854.58-4.177.385-1.321.959-2.478 1.722-3.472a8.446 8.446 0 0 1 2.853-2.374c1.14-.59 2.473-.886 3.997-.886 1.042 0 2.023.126 2.949.38.924.253 1.75.652 2.476 1.195a6.979 6.979 0 0 1 1.83 2.065c.494.834.83 1.842 1.009 3.024H148c-.124-.77-.355-1.431-.689-1.984a4.589 4.589 0 0 0-1.245-1.364 5.348 5.348 0 0 0-1.68-.8 7.262 7.262 0 0 0-2-.266c-1.148 0-2.131.245-2.953.73a6.082 6.082 0 0 0-2.013 1.927 8.627 8.627 0 0 0-1.151 2.726 13.251 13.251 0 0 0-.371 3.136c0 1.05.14 2.056.424 3.02a8.03 8.03 0 0 0 1.245 2.559 6.163 6.163 0 0 0 2.026 1.77c.802.442 1.733.661 2.793.661.989 0 1.862-.168 2.622-.505a5.467 5.467 0 0 0 1.918-1.393 5.926 5.926 0 0 0 1.179-2.08 7.258 7.258 0 0 0 .344-2.572h-6.409v-2.25h8.797v10.57h-1.685l-.612-2.5Zm-72.87-7.27 24.358 20.057 24.354-20.058-24.354-20.057-24.357 20.057Zm24.358 18.627L77.409 39.986l22.619-18.625 22.617 18.625-22.617 18.627ZM62.821 39.148c1.237.263 2.182.825 2.84 1.687v-.002c.655.863.984 1.913.984 3.15 0 .73-.134 1.454-.394 2.137a5.349 5.349 0 0 1-1.167 1.842 5.844 5.844 0 0 1-1.913 1.292c-.758.328-1.633.493-2.627.493h-9.146V29.675h6.726c.464 0 .928.005 1.392.014.497.01.989.038 1.477.084.458.043.914.113 1.364.21.382.08.748.222 1.082.423.673.41 1.245.968 1.673 1.63.46.694.689 1.547.689 2.559 0 1.068-.258 1.992-.773 2.769-.517.777-1.252 1.354-2.207 1.729v.056Zm-3.964-7.226h-4.788v6.382h4.786c1.52 0 2.61-.27 3.276-.801.665-.535.997-1.336.997-2.405 0-.711-.112-1.274-.336-1.686a2.385 2.385 0 0 0-.928-.956 3.652 3.652 0 0 0-1.364-.435 13.236 13.236 0 0 0-1.643-.098Zm1.35 15.576c1.18 0 2.103-.32 2.768-.958.666-.636.999-1.518.999-2.643 0-.656-.122-1.199-.366-1.63a2.821 2.821 0 0 0-.968-1.026 4.038 4.038 0 0 0-1.392-.533 8.514 8.514 0 0 0-1.631-.155h-5.548v6.944h6.137Zm39.539-16.041c1.384 0 2.524.323 3.414.97v.002c.889.645 1.41 1.69 1.56 3.136h2.531c-.039-1.107-.249-2.057-.634-2.855a5.577 5.577 0 0 0-1.575-1.982 6.519 6.519 0 0 0-2.318-1.154 10.782 10.782 0 0 0-2.868-.364c-.906-.001-1.81.117-2.685.351a7.388 7.388 0 0 0-2.334 1.069 5.41 5.41 0 0 0-1.643 1.828c-.412.74-.618 1.615-.618 2.628 0 .918.184 1.682.55 2.29a4.428 4.428 0 0 0 1.46 1.491c.644.4 1.339.713 2.066.928a32.43 32.43 0 0 0 2.348.62c.796.177 1.577.35 2.347.517.709.15 1.401.373 2.065.662.608.27 1.098.622 1.462 1.053.367.431.549.994.549 1.687 0 .73-.15 1.33-.45 1.8a3.28 3.28 0 0 1-1.18 1.11 5.342 5.342 0 0 1-1.643.576c-.609.112-1.214.168-1.813.168-.75 0-1.48-.092-2.194-.28a5.412 5.412 0 0 1-1.87-.872 4.486 4.486 0 0 1-1.291-1.504c-.328-.61-.493-1.335-.493-2.178h-2.53c0 1.218.22 2.27.66 3.161a6.046 6.046 0 0 0 1.8 2.192 7.879 7.879 0 0 0 2.642 1.28c1.948.525 3.996.559 5.961.098a7.994 7.994 0 0 0 2.516-1.04 5.902 5.902 0 0 0 1.841-1.855c.478-.76.716-1.675.716-2.741 0-.994-.184-1.819-.548-2.475a4.897 4.897 0 0 0-1.462-1.63 7.69 7.69 0 0 0-2.065-1.026 27.455 27.455 0 0 0-2.348-.661 98.327 98.327 0 0 0-2.348-.52 12.134 12.134 0 0 1-2.065-.604c-.609-.242-1.097-.558-1.461-.943-.367-.383-.549-.886-.549-1.503 0-.657.126-1.204.378-1.645.244-.43.592-.793 1.012-1.054.422-.262.902-.451 1.448-.563a8.194 8.194 0 0 1 1.659-.168Zm57.742 27.788.844.527v-39.57l-.844.527a28.67 28.67 0 0 1-15.181 4.337 28.683 28.683 0 0 1-15.181-4.337l-.844-.527v39.57l.844-.527a28.678 28.678 0 0 1 15.181-4.337 28.677 28.677 0 0 1 15.181 4.337Zm-30.101-1.445V22.174a29.788 29.788 0 0 0 14.92 3.997 29.779 29.779 0 0 0 14.921-3.997v35.627a29.784 29.784 0 0 0-14.921-3.997 29.777 29.777 0 0 0-14.92 3.997Z" fill="#fff"/></svg>