<svg width="200" height="80" viewBox="0 0 200 80" fill="none" xmlns="http://www.w3.org/2000/svg">
<path opacity="0.1" fill-rule="evenodd" clip-rule="evenodd" d="M45.3319 29.9034L28.1659 20L11 29.9034V49.7103L28.1659 59.6137L45.3319 49.7103V29.9034ZM24.8405 45.5583L31.4865 45.5561L34.8113 39.8017L31.4902 34.0493L24.8442 34.0515L21.5194 39.806L24.8405 45.5583Z" fill="white"/>
<path opacity="0.1" fill-rule="evenodd" clip-rule="evenodd" d="M45.3317 35.2165L32.7639 22.6567L15.6 27.2498L11.0039 44.4028L23.5718 56.9624L40.7356 52.3694L45.3317 35.2165ZM24.8405 45.5583L31.4865 45.556L34.8113 39.8016L31.4902 34.0493L24.8442 34.0514L21.5194 39.8059L24.8405 45.5583Z" fill="white"/>
<path opacity="0.1" fill-rule="evenodd" clip-rule="evenodd" d="M44.0961 39.8118L36.1262 26.0178L20.1954 26.0127L12.2344 39.8015L20.2042 53.5956L36.1351 53.6007L44.0961 39.8118ZM24.84 45.5583L31.486 45.5561L34.8108 39.8017L31.4897 34.0493L24.8437 34.0515L21.5189 39.806L24.84 45.5583Z" fill="white"/>
<path opacity="0.1" fill-rule="evenodd" clip-rule="evenodd" d="M41.9629 43.5075L38.2613 29.7106L24.4644 26.009L14.3691 36.1042L18.0707 49.9011L31.8676 53.6028L41.9629 43.5075ZM24.8395 45.5583L31.4855 45.556L34.8103 39.8016L31.4892 34.0493L24.8432 34.0514L21.5185 39.8059L24.8395 45.5583Z" fill="white"/>
<path opacity="0.1" fill-rule="evenodd" clip-rule="evenodd" d="M39.2593 46.215L39.2552 33.4029L28.1617 26.9933L17.0723 33.3957L17.0764 46.2079L28.17 52.6175L39.2593 46.215ZM24.8409 45.5584L31.4869 45.5561L34.8117 39.8017L31.4906 34.0494L24.8446 34.0515L21.5198 39.8061L24.8409 45.5584Z" fill="white"/>
<path opacity="0.1" fill-rule="evenodd" clip-rule="evenodd" d="M36.2827 47.9304L39.2508 36.839L31.1346 28.7175L20.0502 31.6875L17.082 42.779L25.1982 50.9005L36.2827 47.9304ZM24.8415 45.5583L31.4875 45.556L34.8123 39.8016L31.4912 34.0493L24.8452 34.0514L21.5204 39.8059L24.8415 45.5583Z" fill="white"/>
<path opacity="0.1" fill-rule="evenodd" clip-rule="evenodd" d="M33.3086 48.7208L38.4511 39.807L33.3086 30.8932H23.0234L17.8809 39.807L23.0234 48.7208H33.3086ZM24.8401 45.5584L31.4861 45.5561L34.8109 39.8017L31.4898 34.0494L24.8438 34.0515L21.519 39.8061L24.8401 45.5584Z" fill="white"/>
<path opacity="0.1" fill-rule="evenodd" clip-rule="evenodd" d="M30.5511 48.7174L37.0725 42.1917L34.6877 33.2797L25.7813 30.8931L19.2598 37.4188L21.6447 46.3309L30.5511 48.7174ZM24.8405 45.5584L31.4865 45.5561L34.8113 39.8017L31.4902 34.0494L24.8442 34.0515L21.5194 39.8061L24.8405 45.5584Z" fill="white"/>
<path opacity="0.1" fill-rule="evenodd" clip-rule="evenodd" d="M28.1638 48.0803L35.3244 43.9431L35.327 35.6733L28.1691 31.5406L21.0085 35.6778L21.0059 43.9477L28.1638 48.0803ZM24.8415 45.5582L31.4875 45.5559L34.8123 39.8015L31.4912 34.0492L24.8452 34.0513L21.5204 39.8059L24.8415 45.5582Z" fill="white"/>
<path opacity="0.1" fill-rule="evenodd" clip-rule="evenodd" d="M26.2453 46.9754L33.4057 45.0543L35.3269 37.8939L31.5031 34.07L34.8123 39.8018L31.4875 45.5562L24.8415 45.5584L21.5226 39.81L21.0059 41.736L26.2453 46.9754ZM21.5264 39.7957L24.8388 34.0626L22.927 34.5756L21.5264 39.7957ZM24.88 34.0516L30.0874 32.6544L31.4825 34.0495L24.88 34.0516Z" fill="white"/>
<path fill-rule="evenodd" clip-rule="evenodd" d="M82.6004 45.618V47.2876H81.1635V31.3113H82.6004V39.1092H82.6426C83.0653 38.4611 83.6148 37.9751 84.2911 37.651C84.9673 37.313 85.6646 37.1438 86.3832 37.1438C87.1581 37.1438 87.8554 37.2777 88.4752 37.5454C89.1093 37.8131 89.6446 38.1793 90.0814 38.6443C90.5322 39.1092 90.8774 39.6587 91.1169 40.2926C91.3705 40.9267 91.4972 41.6099 91.4972 42.3425C91.4972 43.0751 91.3705 43.7584 91.1169 44.3924C90.8774 45.0263 90.5322 45.5758 90.0814 46.0407C89.6446 46.5056 89.1093 46.8719 88.4752 47.1396C87.8554 47.4074 87.1581 47.5411 86.3832 47.5411C85.6646 47.5411 84.9673 47.3791 84.2911 47.0551C83.6148 46.731 83.0653 46.2521 82.6426 45.618H82.6004ZM89.9757 42.3425C89.9757 41.793 89.8912 41.2789 89.7221 40.7998C89.5531 40.3067 89.3065 39.8841 88.9824 39.5319C88.6725 39.1656 88.2851 38.8768 87.8202 38.6654C87.3552 38.4541 86.8269 38.3485 86.2352 38.3485C85.6858 38.3485 85.1786 38.4541 84.7137 38.6654C84.2487 38.8627 83.8473 39.1445 83.5091 39.5108C83.171 39.8629 82.9033 40.2856 82.7062 40.7787C82.523 41.2577 82.4314 41.7789 82.4314 42.3425C82.4314 42.9061 82.523 43.4344 82.7062 43.9274C82.9033 44.4065 83.171 44.822 83.5091 45.1743C83.8473 45.5265 84.2487 45.8083 84.7137 46.0196C85.1786 46.2168 85.6858 46.3155 86.2352 46.3155C86.8269 46.3155 87.3552 46.2168 87.8202 46.0196C88.2851 45.8083 88.6725 45.5265 88.9824 45.1743C89.3065 44.808 89.5531 44.3854 89.7221 43.9063C89.8912 43.4132 89.9757 42.8919 89.9757 42.3425ZM67.7826 45.955C68.1489 45.6168 68.4589 45.2576 68.7125 44.8772L67.5291 44.1165C67.0078 44.8913 66.3597 45.4548 65.5848 45.8071C64.81 46.1593 63.9929 46.3354 63.1334 46.3354C62.1754 46.3354 61.3091 46.1593 60.5342 45.8071C59.7734 45.4548 59.1253 44.9829 58.59 44.3912C58.0545 43.7853 57.639 43.088 57.3431 42.299C57.0614 41.5101 56.9205 40.6788 56.9205 39.8053C56.9205 38.9319 57.0614 38.1006 57.3431 37.3118C57.6249 36.5228 58.0334 35.8325 58.5689 35.2408C59.1042 34.635 59.7522 34.1559 60.513 33.8037C61.2879 33.4516 62.1614 33.2754 63.1334 33.2754C63.6125 33.2754 64.0563 33.3318 64.4648 33.4444C64.8875 33.5572 65.2749 33.7051 65.6271 33.8882C65.9794 34.0714 66.2822 34.2828 66.5358 34.5222C66.8035 34.7617 67.0148 35.0013 67.1698 35.2408L68.4378 34.3109C68.1842 33.9446 67.8671 33.6206 67.4868 33.3388C67.1064 33.043 66.6837 32.7964 66.2188 32.5992C65.7539 32.3878 65.2538 32.2258 64.7184 32.1132C64.1972 32.0004 63.6617 31.944 63.1123 31.944C61.9994 31.944 60.9639 32.1413 60.0059 32.5358C59.0619 32.9302 58.2377 33.4797 57.5334 34.1842C56.843 34.8745 56.3006 35.6986 55.9062 36.6566C55.5116 37.6147 55.3145 38.6642 55.3145 39.8053C55.3145 40.9466 55.5046 41.9961 55.885 42.9541C56.2794 43.9122 56.8219 44.7433 57.5122 45.4478C58.2026 46.1381 59.0267 46.6806 59.9846 47.075C60.9428 47.4695 61.9853 47.6667 63.1123 47.6667C63.7886 47.6667 64.4084 47.5893 64.972 47.4343C65.5496 47.2934 66.0709 47.0961 66.5358 46.8426C67.0148 46.5889 67.4304 46.2931 67.7826 45.955ZM74.6868 45.7454H74.6445L71.2844 37.398H69.6783L73.9048 47.2669L73.1019 49.3378C72.8905 49.9014 72.6439 50.3311 72.3621 50.627C72.0804 50.9369 71.6929 51.0919 71.1999 51.0919C70.8336 51.0919 70.4814 51.0355 70.1432 50.9229L69.9953 52.233C70.418 52.3176 70.8477 52.3598 71.2844 52.3598C72.1437 52.3598 72.7989 52.1274 73.2497 51.6625C73.7147 51.2117 74.0951 50.6058 74.3909 49.845L79.3147 37.398H77.7509L74.6868 45.7454ZM100.771 39.2808C101.335 39.8866 101.638 40.6544 101.68 41.5843H94.9388C94.967 41.1616 95.0727 40.7601 95.2558 40.3796C95.439 39.9852 95.6855 39.64 95.9954 39.3443C96.3054 39.0342 96.6646 38.7947 97.0731 38.6257C97.4818 38.4425 97.9255 38.351 98.4046 38.351C99.4331 38.351 100.222 38.6609 100.771 39.2808ZM103.138 42.3661V42.0492C103.138 41.3729 103.033 40.7389 102.821 40.1472C102.624 39.5555 102.328 39.0414 101.934 38.6045C101.539 38.1537 101.046 37.8016 100.454 37.5479C99.8627 37.2803 99.1794 37.1464 98.4046 37.1464C97.7001 37.1464 97.045 37.2803 96.4392 37.5479C95.8334 37.8016 95.3051 38.1607 94.8543 38.6257C94.4035 39.0906 94.0513 39.64 93.7976 40.274C93.5441 40.9079 93.4173 41.5983 93.4173 42.345C93.4173 43.0917 93.5441 43.7821 93.7976 44.416C94.0653 45.05 94.4246 45.5994 94.8754 46.0643C95.3262 46.5293 95.8616 46.8956 96.4815 47.1632C97.1155 47.4169 97.7987 47.5436 98.5313 47.5436C99.3484 47.5436 100.109 47.3816 100.814 47.0576C101.532 46.7335 102.187 46.1982 102.779 45.4515L101.701 44.6062C101.419 45.0571 101.004 45.4585 100.454 45.8108C99.9191 46.1488 99.278 46.318 98.5313 46.318C98.0241 46.318 97.5522 46.2264 97.1155 46.0432C96.6787 45.8461 96.2983 45.5854 95.9743 45.2614C95.6502 44.9373 95.3967 44.5569 95.2136 44.1202C95.0304 43.6834 94.9318 43.2185 94.9176 42.7254H103.117C103.131 42.5987 103.138 42.4789 103.138 42.3661ZM105.79 39.5767C105.79 39.309 105.783 38.9638 105.769 38.5412C105.755 38.1185 105.734 37.7381 105.705 37.4H107.079C107.107 37.6677 107.128 37.9636 107.142 38.2875C107.156 38.6115 107.164 38.8793 107.164 39.0906H107.206C107.488 38.513 107.91 38.0481 108.474 37.6958C109.037 37.3295 109.671 37.1464 110.376 37.1464C110.559 37.1464 110.721 37.1535 110.862 37.1675C111.017 37.1816 111.172 37.2097 111.327 37.2521L111.136 38.6045C111.052 38.5764 110.911 38.5482 110.714 38.52C110.517 38.4919 110.319 38.4778 110.122 38.4778C109.742 38.4778 109.375 38.5482 109.023 38.6891C108.671 38.8299 108.361 39.0553 108.093 39.3654C107.84 39.6612 107.629 40.0486 107.459 40.5277C107.304 40.9926 107.227 41.556 107.227 42.2182V47.2901H105.79V39.5767ZM122.013 47.2864H131.036V45.1309H127.338V45.0885C127.676 44.8491 128 44.5602 128.31 44.2221C128.634 43.8698 128.916 43.4684 129.155 43.0175C129.409 42.5527 129.613 42.0384 129.768 41.4749C129.923 40.9114 130.001 40.2914 130.001 39.6152C130.001 38.4741 129.803 37.4386 129.409 36.5087C129.014 35.5648 128.458 34.7547 127.739 34.0785C127.035 33.4022 126.197 32.881 125.225 32.5147C124.253 32.1343 123.196 31.944 122.055 31.944C120.914 31.944 119.85 32.1343 118.864 32.5147C117.892 32.881 117.046 33.4022 116.328 34.0785C115.609 34.7547 115.046 35.5648 114.637 36.5087C114.243 37.4386 114.045 38.4741 114.045 39.6152C114.045 40.8268 114.236 41.9116 114.616 42.8696C114.996 43.8136 115.532 44.6166 116.222 45.2788C116.927 45.9269 117.765 46.4269 118.737 46.7792C119.723 47.1172 120.815 47.2864 122.013 47.2864ZM120.026 34.7336C120.66 34.4659 121.336 34.332 122.055 34.332C122.816 34.332 123.506 34.4659 124.126 34.7336C124.746 35.0013 125.274 35.3675 125.711 35.8325C126.162 36.2974 126.507 36.8539 126.746 37.5019C126.986 38.15 127.105 38.8545 127.105 39.6152C127.105 40.4183 126.979 41.1509 126.725 41.813C126.472 42.461 126.119 43.0175 125.669 43.4824C125.218 43.9474 124.675 44.3136 124.041 44.5813C123.421 44.835 122.745 44.9617 122.013 44.9617C121.266 44.9617 120.583 44.835 119.963 44.5813C119.343 44.3136 118.807 43.9474 118.357 43.4824C117.92 43.0175 117.575 42.461 117.321 41.813C117.082 41.1509 116.962 40.4183 116.962 39.6152C116.962 38.8545 117.089 38.15 117.342 37.5019C117.61 36.8539 117.969 36.2974 118.42 35.8325C118.871 35.3675 119.406 35.0013 120.026 34.7336ZM142.037 47.2901H139.628V45.6629H139.586C139.36 46.17 138.966 46.6209 138.403 47.0153C137.853 47.3958 137.198 47.5859 136.437 47.5859C135.775 47.5859 135.205 47.4733 134.726 47.2479C134.261 47.0083 133.873 46.6983 133.563 46.318C133.267 45.9376 133.049 45.5009 132.908 45.0077C132.767 44.5146 132.697 44.0075 132.697 43.4861V37.1464H135.233V42.7677C135.233 43.0636 135.254 43.3735 135.296 43.6975C135.338 44.0216 135.43 44.3174 135.571 44.585C135.712 44.8387 135.902 45.05 136.141 45.2191C136.395 45.3881 136.726 45.4726 137.135 45.4726C137.529 45.4726 137.874 45.3951 138.17 45.2402C138.48 45.0711 138.727 44.8598 138.91 44.6062C139.107 44.3526 139.255 44.0638 139.354 43.7398C139.453 43.4016 139.502 43.0636 139.502 42.7254V37.1464H142.037V47.2901ZM150.873 45.997H150.937V47.2862H153.304V41.1154C153.304 40.6082 153.233 40.1011 153.093 39.5939C152.966 39.0867 152.734 38.6287 152.396 38.2202C152.056 37.8116 151.592 37.4806 151 37.2269C150.423 36.9734 149.684 36.8467 148.782 36.8467C148.007 36.8467 147.239 36.9804 146.478 37.2482C145.731 37.5159 145.069 37.9173 144.492 38.4527L145.801 39.9954C146.126 39.6714 146.534 39.3966 147.027 39.1712C147.521 38.9458 148.034 38.8331 148.57 38.8331C149.204 38.8331 149.747 38.988 150.197 39.298C150.662 39.5939 150.894 40.0588 150.894 40.6927V40.9464C150.106 40.9464 149.295 40.9887 148.465 41.0732C147.647 41.1436 146.9 41.2986 146.224 41.5381C145.548 41.7775 144.992 42.1227 144.555 42.5736C144.132 43.0244 143.921 43.6302 143.921 44.391C143.921 44.9827 144.041 45.4828 144.28 45.8914C144.534 46.2858 144.844 46.6099 145.21 46.8635C145.59 47.103 146 47.2721 146.435 47.3707C146.887 47.4833 147.316 47.5397 147.725 47.5397C148.444 47.5397 149.084 47.3988 149.648 47.117C150.212 46.8213 150.62 46.4478 150.873 45.997ZM150.324 42.6581H150.894V43.0173C150.894 43.8204 150.67 44.4543 150.218 44.9193C149.768 45.3842 149.105 45.6166 148.232 45.6166C148.021 45.6166 147.81 45.5955 147.599 45.5532C147.387 45.511 147.197 45.4406 147.027 45.3419C146.858 45.2433 146.718 45.1165 146.604 44.9615C146.507 44.7925 146.456 44.5882 146.456 44.3487C146.456 43.9683 146.583 43.6725 146.837 43.4611C147.09 43.2357 147.408 43.0667 147.789 42.9539C148.169 42.8271 148.584 42.7496 149.035 42.7215C149.486 42.6792 149.916 42.6581 150.324 42.6581ZM155.819 37.1422H158.227V38.7694H158.27C158.495 38.2622 158.882 37.8185 159.432 37.4381C159.995 37.0436 160.658 36.8464 161.419 36.8464C162.08 36.8464 162.644 36.9662 163.109 37.2056C163.588 37.4311 163.975 37.7339 164.271 38.1143C164.581 38.4947 164.807 38.9314 164.947 39.4246C165.088 39.9177 165.158 40.4249 165.158 40.9462V47.286H162.623V41.6646C162.623 41.3687 162.602 41.0588 162.56 40.7348C162.518 40.4107 162.426 40.1219 162.285 39.8684C162.144 39.6006 161.947 39.3824 161.694 39.2132C161.453 39.0442 161.13 38.9597 160.722 38.9597C160.312 38.9597 159.96 39.0442 159.664 39.2132C159.368 39.3682 159.123 39.5725 158.925 39.826C158.742 40.0797 158.601 40.3755 158.502 40.7136C158.404 41.0377 158.354 41.3687 158.354 41.7069V47.286H155.819V37.1422ZM166.661 37.1421V39.1709H168.437V43.9046C168.437 44.3976 168.479 44.8626 168.564 45.2994C168.662 45.7221 168.831 46.1024 169.071 46.4405C169.324 46.7646 169.663 47.0252 170.085 47.2224C170.508 47.4055 171.057 47.4972 171.733 47.4972C172.016 47.4972 172.311 47.469 172.62 47.4126C172.931 47.3704 173.199 47.307 173.425 47.2224L173.34 45.236C173.184 45.3064 173.009 45.3628 172.811 45.405C172.614 45.4331 172.43 45.4473 172.261 45.4473C171.699 45.4473 171.332 45.2994 171.163 45.0035C171.008 44.7077 170.93 44.3343 170.93 43.8835V39.1709H173.467V37.1421H170.93V34.2048H168.437V37.1421H166.661ZM175.343 37.1432H177.879V47.287H175.343V37.1432ZM174.984 33.6987C174.984 33.2901 175.132 32.9378 175.427 32.642C175.738 32.3321 176.126 32.1771 176.591 32.1771C177.055 32.1771 177.442 32.325 177.753 32.6209C178.076 32.9027 178.239 33.2619 178.239 33.6987C178.239 34.1353 178.076 34.5016 177.753 34.7976C177.442 35.0793 177.055 35.2202 176.591 35.2202C176.126 35.2202 175.738 35.0722 175.427 34.7764C175.132 34.4665 174.984 34.1072 174.984 33.6987ZM186.559 39.2557C186.953 39.4388 187.249 39.6714 187.447 39.9532L189.18 38.4316C188.772 37.9385 188.214 37.551 187.511 37.2693C186.82 36.9875 186.102 36.8467 185.354 36.8467C184.608 36.8467 183.903 36.9734 183.242 37.2269C182.593 37.4806 182.023 37.8399 181.53 38.3048C181.036 38.7696 180.642 39.3332 180.346 39.9954C180.065 40.6575 179.923 41.3972 179.923 42.2143C179.923 43.0597 180.065 43.8134 180.346 44.4755C180.642 45.1377 181.036 45.7012 181.53 46.166C182.037 46.631 182.621 46.9833 183.284 47.2227C183.96 47.4622 184.672 47.582 185.418 47.582C186.178 47.582 186.883 47.4622 187.532 47.2227C188.193 46.9691 188.736 46.617 189.159 46.166L187.574 44.56C187.334 44.8559 187.017 45.0813 186.622 45.2363C186.228 45.3912 185.834 45.4687 185.439 45.4687C184.96 45.4687 184.537 45.3772 184.171 45.1941C183.819 44.9968 183.523 44.7431 183.284 44.4332C183.044 44.1233 182.861 43.7781 182.735 43.3977C182.621 43.0033 182.566 42.6087 182.566 42.2143C182.566 41.8199 182.621 41.4323 182.735 41.052C182.847 40.6575 183.016 40.3053 183.242 39.9954C183.481 39.6854 183.776 39.4388 184.129 39.2557C184.482 39.0586 184.89 38.9599 185.354 38.9599C185.764 38.9599 186.165 39.0586 186.559 39.2557Z" fill="white"/>
</svg>
