<svg width="200" height="80" fill="none" xmlns="http://www.w3.org/2000/svg"><path opacity=".1" fill-rule="evenodd" clip-rule="evenodd" d="M45.332 29.903 28.166 20 11 29.903V49.71l17.166 9.904 17.166-9.904V29.903ZM24.84 45.558l6.646-.002 3.325-5.754-3.32-5.753-6.647.002-3.325 5.755 3.322 5.752Z" fill="#fff"/><path opacity=".1" fill-rule="evenodd" clip-rule="evenodd" d="m45.332 35.217-12.568-12.56L15.6 27.25l-4.596 17.153 12.568 12.56 17.164-4.594 4.596-17.152ZM24.84 45.558l6.646-.002 3.325-5.754-3.32-5.753-6.647.002-3.325 5.755 3.322 5.752Z" fill="#fff"/><path opacity=".1" fill-rule="evenodd" clip-rule="evenodd" d="m44.096 39.812-7.97-13.794-15.93-.005L12.233 39.8l7.97 13.795 15.931.005 7.961-13.79ZM24.84 45.558l6.646-.002 3.325-5.754-3.321-5.753-6.646.002-3.325 5.755 3.321 5.752Z" fill="#fff"/><path opacity=".1" fill-rule="evenodd" clip-rule="evenodd" d="M41.963 43.508 38.26 29.71l-13.797-3.702L14.37 36.104l3.702 13.797 13.797 3.702 10.095-10.096Zm-17.123 2.05 6.645-.002 3.325-5.754-3.32-5.753-6.647.002-3.325 5.755 3.322 5.752Z" fill="#fff"/><path opacity=".1" fill-rule="evenodd" clip-rule="evenodd" d="m39.26 46.215-.005-12.812-11.093-6.41-11.09 6.403.004 12.812 11.094 6.41 11.09-6.403Zm-14.42-.657 6.647-.002 3.325-5.754-3.321-5.753-6.646.002-3.325 5.755 3.32 5.752Z" fill="#fff"/><path opacity=".1" fill-rule="evenodd" clip-rule="evenodd" d="M36.283 47.93 39.25 36.84l-8.116-8.121-11.085 2.97-2.968 11.091 8.116 8.121 11.085-2.97ZM24.84 45.558l6.646-.002 3.325-5.754-3.32-5.753-6.647.002-3.325 5.755 3.322 5.752Z" fill="#fff"/><path opacity=".1" fill-rule="evenodd" clip-rule="evenodd" d="m33.309 48.72 5.142-8.913-5.142-8.914H23.023l-5.142 8.914 5.142 8.914H33.31Zm-8.469-3.162 6.646-.002 3.325-5.754-3.321-5.753-6.646.002-3.325 5.755 3.321 5.752Z" fill="#fff"/><path opacity=".1" fill-rule="evenodd" clip-rule="evenodd" d="m30.551 48.717 6.521-6.525-2.384-8.912-8.907-2.387-6.521 6.526 2.385 8.912 8.906 2.386Zm-5.71-3.159 6.645-.002 3.325-5.754-3.32-5.753-6.647.002-3.325 5.755 3.322 5.752Z" fill="#fff"/><path opacity=".1" fill-rule="evenodd" clip-rule="evenodd" d="m28.164 48.08 7.16-4.137.003-8.27-7.158-4.132-7.16 4.137-.003 8.27 7.158 4.132Zm-3.323-2.522 6.646-.002 3.325-5.755-3.32-5.752-6.647.002-3.325 5.755 3.322 5.752Z" fill="#fff"/><path opacity=".1" fill-rule="evenodd" clip-rule="evenodd" d="m26.245 46.975 7.16-1.92 1.922-7.161-3.824-3.824 3.31 5.732-3.326 5.754-6.645.002-3.32-5.748-.516 1.926 5.24 5.24Zm-4.719-7.18 3.313-5.732-1.912.513-1.4 5.22Zm3.354-5.743 5.207-1.398 1.396 1.395-6.603.003Z" fill="#fff"/><path fill-rule="evenodd" clip-rule="evenodd" d="M82.6 45.618v1.67h-1.436V31.31H82.6v7.798h.043a4.008 4.008 0 0 1 1.648-1.458 4.626 4.626 0 0 1 2.092-.507c.775 0 1.472.134 2.092.401.634.268 1.17.634 1.606 1.1.451.464.796 1.014 1.036 1.648.254.634.38 1.317.38 2.05 0 .732-.126 1.415-.38 2.05a4.748 4.748 0 0 1-1.036 1.648 4.655 4.655 0 0 1-1.606 1.099c-.62.267-1.317.401-2.092.401a4.789 4.789 0 0 1-2.092-.486 4.057 4.057 0 0 1-1.648-1.437H82.6Zm7.376-3.276c0-.549-.085-1.063-.254-1.542a3.54 3.54 0 0 0-.74-1.268 3.27 3.27 0 0 0-1.162-.867c-.465-.21-.993-.316-1.585-.316-.55 0-1.056.105-1.521.316-.465.198-.867.48-1.205.846a3.893 3.893 0 0 0-.803 1.268c-.183.479-.275 1-.275 1.563 0 .564.092 1.092.275 1.585.197.48.465.895.803 1.247.338.352.74.634 1.205.846.465.197.972.295 1.521.295.592 0 1.12-.098 1.585-.295a3.393 3.393 0 0 0 1.162-.846 3.8 3.8 0 0 0 .74-1.268c.17-.493.254-1.014.254-1.563Zm-22.193 3.613c.366-.338.676-.697.93-1.078l-1.184-.76c-.521.774-1.17 1.338-1.944 1.69a5.856 5.856 0 0 1-2.452.528c-.958 0-1.824-.176-2.599-.528a5.97 5.97 0 0 1-1.944-1.416 6.656 6.656 0 0 1-1.247-2.092 7.36 7.36 0 0 1-.423-2.494c0-.873.141-1.704.423-2.493.282-.79.69-1.48 1.226-2.071a5.827 5.827 0 0 1 1.944-1.437c.775-.352 1.648-.529 2.62-.529.48 0 .923.057 1.332.17.422.112.81.26 1.162.443.352.183.655.395.909.634.267.24.479.48.634.719l1.268-.93a4.146 4.146 0 0 0-.951-.972 5.646 5.646 0 0 0-1.268-.74 7.185 7.185 0 0 0-1.5-.486 7.572 7.572 0 0 0-1.607-.169 8.078 8.078 0 0 0-3.106.592 7.601 7.601 0 0 0-2.473 1.648 7.476 7.476 0 0 0-1.627 2.473c-.394.958-.591 2.007-.591 3.148 0 1.142.19 2.191.57 3.15a7.72 7.72 0 0 0 1.627 2.493 7.48 7.48 0 0 0 2.473 1.627c.958.394 2 .592 3.127.592a7 7 0 0 0 1.86-.233 6.44 6.44 0 0 0 1.564-.591 5.51 5.51 0 0 0 1.247-.888Zm6.904-.21h-.043l-3.36-8.347h-1.606l4.227 9.869-.803 2.07c-.212.564-.458.994-.74 1.29-.282.31-.67.465-1.162.465-.366 0-.719-.056-1.057-.17l-.148 1.311c.423.085.853.127 1.29.127.859 0 1.514-.233 1.965-.697.465-.451.845-1.057 1.14-1.818l4.925-12.447H77.75l-3.064 8.347Zm26.084-6.464c.564.606.867 1.373.909 2.303h-6.741c.028-.422.134-.824.317-1.204.183-.395.43-.74.74-1.036.31-.31.669-.55 1.077-.718a3.217 3.217 0 0 1 1.332-.275c1.028 0 1.817.31 2.366.93Zm2.367 3.085v-.317c0-.676-.105-1.31-.317-1.902a4.303 4.303 0 0 0-.887-1.542 4.06 4.06 0 0 0-1.48-1.057c-.591-.268-1.275-.402-2.05-.402a4.81 4.81 0 0 0-1.965.402 4.725 4.725 0 0 0-1.585 1.078 5.016 5.016 0 0 0-1.056 1.648 5.527 5.527 0 0 0-.38 2.071c0 .747.126 1.437.38 2.071a5.305 5.305 0 0 0 1.077 1.648c.451.465.987.832 1.606 1.1.635.253 1.318.38 2.05.38a5.4 5.4 0 0 0 2.283-.486c.718-.325 1.373-.86 1.965-1.606l-1.078-.846c-.282.451-.697.852-1.247 1.205-.535.338-1.176.507-1.923.507-.507 0-.979-.092-1.416-.275a3.818 3.818 0 0 1-1.14-.782 3.521 3.521 0 0 1-.761-1.14 3.861 3.861 0 0 1-.296-1.396h8.199a3.28 3.28 0 0 0 .021-.359Zm2.652-2.79c0-.267-.007-.612-.021-1.035a22.028 22.028 0 0 0-.064-1.141h1.374a19.505 19.505 0 0 1 .085 1.69h.042a3.355 3.355 0 0 1 1.268-1.394 3.411 3.411 0 0 1 1.902-.55c.183 0 .345.008.486.021.155.015.31.043.465.085l-.191 1.352a4.194 4.194 0 0 0-1.014-.127c-.38 0-.747.071-1.099.212a2.4 2.4 0 0 0-.93.676c-.253.296-.464.684-.634 1.163-.155.465-.232 1.028-.232 1.69v5.072h-1.437v-7.713Zm16.223 7.71h9.023v-2.155h-3.698v-.042c.338-.24.662-.529.972-.867a5.74 5.74 0 0 0 .845-1.205 7 7 0 0 0 .846-3.402c0-1.14-.198-2.176-.592-3.106a7 7 0 0 0-1.67-2.43 7.292 7.292 0 0 0-2.514-1.564c-.972-.38-2.029-.571-3.17-.571a8.79 8.79 0 0 0-3.191.57 7.523 7.523 0 0 0-2.536 1.564 7.248 7.248 0 0 0-1.691 2.43c-.394.93-.592 1.966-.592 3.107 0 1.212.191 2.297.571 3.255.38.944.916 1.747 1.606 2.409a7.385 7.385 0 0 0 2.515 1.5c.986.338 2.078.507 3.276.507Zm-1.987-12.552a5.16 5.16 0 0 1 2.029-.402c.761 0 1.451.134 2.071.402.62.267 1.148.633 1.585 1.099a4.699 4.699 0 0 1 1.035 1.669 6.04 6.04 0 0 1 .359 2.113c0 .803-.126 1.536-.38 2.198a4.968 4.968 0 0 1-1.056 1.67 4.885 4.885 0 0 1-1.628 1.098c-.62.254-1.296.38-2.028.38-.747 0-1.43-.126-2.05-.38a4.925 4.925 0 0 1-1.606-1.099 5.15 5.15 0 0 1-1.036-1.669c-.239-.662-.359-1.395-.359-2.198 0-.76.127-1.465.38-2.113a5.247 5.247 0 0 1 1.078-1.67 4.935 4.935 0 0 1 1.606-1.098Zm22.011 12.556h-2.409v-1.627h-.042c-.226.507-.62.958-1.183 1.352-.55.38-1.205.57-1.966.57-.662 0-1.232-.112-1.711-.337a3.614 3.614 0 0 1-1.163-.93 3.818 3.818 0 0 1-.655-1.31c-.141-.493-.211-1-.211-1.522v-6.34h2.536v5.622c0 .296.021.605.063.93.042.324.134.62.275.887.141.254.331.465.57.634.254.17.585.254.994.254.394 0 .739-.078 1.035-.233.31-.169.557-.38.74-.634a2.67 2.67 0 0 0 .444-.866c.099-.338.148-.676.148-1.015v-5.579h2.535V47.29Zm8.836-1.293h.064v1.29h2.367v-6.172c0-.507-.071-1.014-.211-1.521a3.44 3.44 0 0 0-.697-1.374c-.34-.408-.804-.74-1.396-.993-.577-.254-1.316-.38-2.218-.38-.775 0-1.543.133-2.304.401a5.732 5.732 0 0 0-1.986 1.205l1.309 1.542a4.17 4.17 0 0 1 1.226-.824 3.672 3.672 0 0 1 1.543-.338c.634 0 1.177.155 1.627.465.465.296.697.76.697 1.395v.253c-.788 0-1.599.043-2.429.127a9.007 9.007 0 0 0-2.241.465c-.676.24-1.232.585-1.669 1.036-.423.45-.634 1.056-.634 1.817 0 .592.12 1.092.359 1.5.254.395.564.719.93.973.38.239.79.408 1.225.507.452.112.881.169 1.29.169.719 0 1.359-.141 1.923-.423.564-.296.972-.67 1.225-1.12Zm-.549-3.339h.57v.36c0 .802-.224 1.436-.676 1.901-.45.465-1.113.698-1.986.698-.211 0-.422-.021-.633-.064a1.846 1.846 0 0 1-.572-.211 1.385 1.385 0 0 1-.423-.38 1.213 1.213 0 0 1-.148-.613c0-.38.127-.676.381-.888.253-.225.571-.394.952-.507.38-.127.795-.204 1.246-.233a13.83 13.83 0 0 1 1.289-.063Zm5.495-5.516h2.408v1.627h.043c.225-.507.612-.95 1.162-1.33.563-.395 1.226-.593 1.987-.593.661 0 1.225.12 1.69.36.479.225.866.528 1.162.908.31.38.536.817.676 1.31.141.494.211 1 .211 1.522v6.34h-2.535v-5.621a7.24 7.24 0 0 0-.063-.93 2.4 2.4 0 0 0-.275-.867 1.767 1.767 0 0 0-.591-.655c-.241-.169-.564-.253-.972-.253-.41 0-.762.084-1.058.253-.296.155-.541.36-.739.613-.183.254-.324.55-.423.888a3.414 3.414 0 0 0-.148.993v5.579h-2.535V37.142Zm10.842 0v2.029h1.776v4.734c0 .493.042.958.127 1.394.098.423.267.803.507 1.142.253.324.592.584 1.014.781.423.184.972.275 1.648.275.283 0 .578-.028.887-.084.311-.043.579-.106.805-.19l-.085-1.987c-.156.07-.331.127-.529.169a3.919 3.919 0 0 1-.55.042c-.562 0-.929-.148-1.098-.444-.155-.295-.233-.669-.233-1.12v-4.712h2.537v-2.029h-2.537v-2.937h-2.493v2.937h-1.776Zm8.682.001h2.536v10.144h-2.536V37.143Zm-.359-3.444c0-.409.148-.761.443-1.057.311-.31.699-.465 1.164-.465.464 0 .851.148 1.162.444.323.282.486.64.486 1.078 0 .436-.163.803-.486 1.099-.311.281-.698.422-1.162.422-.465 0-.853-.148-1.164-.444a1.516 1.516 0 0 1-.443-1.077Zm11.575 5.557c.394.183.69.415.888.697l1.733-1.521c-.408-.494-.966-.881-1.669-1.163a5.655 5.655 0 0 0-2.157-.422c-.746 0-1.451.126-2.112.38a5.26 5.26 0 0 0-1.712 1.078 5.206 5.206 0 0 0-1.184 1.69c-.281.663-.423 1.402-.423 2.22 0 .845.142 1.598.423 2.26.296.663.69 1.226 1.184 1.691a5.157 5.157 0 0 0 1.754 1.057c.676.24 1.388.359 2.134.359.76 0 1.465-.12 2.114-.36.661-.253 1.204-.605 1.627-1.056l-1.585-1.606c-.24.296-.557.521-.952.676a3.211 3.211 0 0 1-1.183.233c-.479 0-.902-.092-1.268-.275a2.892 2.892 0 0 1-.887-.76 3.449 3.449 0 0 1-.549-1.036 4.241 4.241 0 0 1-.169-1.184c0-.394.055-.782.169-1.162a3.31 3.31 0 0 1 .507-1.057 2.64 2.64 0 0 1 .887-.74 2.47 2.47 0 0 1 1.225-.295c.41 0 .811.099 1.205.296Z" fill="#fff"/></svg>