<svg width="200" height="80" fill="none" xmlns="http://www.w3.org/2000/svg"><path d="M161.529 48.865a3.62 3.62 0 0 1 7.238 0c0 1.96-1.658 3.619-3.619 3.619a3.62 3.62 0 0 1-3.619-3.619ZM52.81 39.141c0 4.222-1.056 7.389-3.318 9.65-2.262 2.263-5.429 3.394-9.5 3.394H32V27.078h8.444c3.996 0 7.012.98 9.123 3.091 2.187 2.036 3.242 5.052 3.242 8.972Zm-6.937.226c0-2.337-.453-3.995-1.357-5.126-.83-1.056-2.262-1.66-4.072-1.66h-1.81v14.024h1.509c2.035 0 3.468-.603 4.448-1.81.83-1.205 1.282-3.015 1.282-5.428ZM81.008 27H74.75v25.182h6.258V27ZM101.665 42.76c0 3.016-.754 5.428-2.413 7.163-1.658 1.734-3.92 2.563-6.785 2.563-2.79 0-4.977-.83-6.635-2.639-1.659-1.81-2.488-4.147-2.488-7.087 0-3.016.754-5.428 2.412-7.087 1.66-1.734 3.921-2.564 6.786-2.564 1.81 0 3.393.377 4.75 1.131 1.432.754 2.412 1.885 3.166 3.318.905 1.583 1.207 3.242 1.207 5.202Zm-11.837 0c0 1.659.226 2.79.603 3.619.377.83 1.056 1.206 2.111 1.206 1.055 0 1.659-.377 2.111-1.206.377-.83.603-2.111.603-3.619 0-1.659-.226-2.79-.603-3.619-.377-.754-1.056-1.206-2.111-1.206-.905 0-1.659.377-2.111 1.206-.377.83-.603 1.96-.603 3.619ZM110.486 33.41h-6.257v18.698h6.257V33.41ZM110.486 27h-6.257v4.222h6.257V27ZM123.228 47.354c.829 0 1.884-.226 3.015-.603v4.75c-.829.377-1.658.603-2.412.754-.754.15-1.659.226-2.714.226-2.112 0-3.619-.528-4.6-1.659-.904-1.055-1.432-2.714-1.432-4.9v-7.69h-2.187v-4.826h2.187V28.73l6.333-1.055v5.88h4.071v4.75h-4.071v7.239c.151 1.281.679 1.809 1.81 1.809ZM137.857 47.354c.829 0 1.884-.226 3.015-.603v4.75c-.829.377-1.658.603-2.412.754-.754.15-1.659.226-2.715.226-2.111 0-3.619-.528-4.599-1.659-.904-1.055-1.432-2.714-1.432-4.9v-7.69h-2.187v-4.826h2.187v-4.75l6.333-.98v5.88h4.071v4.75h-4.071v7.239c.075 1.281.679 1.809 1.81 1.809ZM157.76 35.296c-1.508-1.508-3.619-2.187-6.334-2.187-2.865 0-5.127.83-6.71 2.564-1.583 1.734-2.337 4.147-2.337 7.313 0 3.016.829 5.429 2.488 7.087 1.734 1.659 4.071 2.488 7.087 2.488 1.508 0 2.714-.075 3.77-.301.98-.226 2.111-.528 3.016-1.056l-.905-4.222c-.679.302-1.433.528-2.036.679-.904.226-1.96.301-3.016.301-1.206 0-2.186-.301-2.865-.83-.678-.602-1.055-1.432-1.055-2.487h11.234v-2.94c-.076-2.79-.905-4.901-2.337-6.41Zm-8.897 5.202c.075-.98.377-1.81.829-2.262.453-.452 1.056-.678 1.885-.678.754 0 1.508.226 1.96.754.453.527.679 1.206.754 2.186h-5.428ZM70.076 35.296c-1.583-1.508-3.619-2.187-6.333-2.187-2.865 0-5.127.83-6.71 2.564-1.584 1.734-2.338 4.147-2.338 7.313 0 3.016.83 5.429 2.488 7.087 1.734 1.659 4.072 2.488 7.087 2.488 1.508 0 2.715-.075 3.77-.301.98-.226 2.111-.528 3.016-1.056l-.905-4.297c-.678.301-1.432.528-2.035.678-.905.227-1.96.302-3.016.302-1.206 0-2.187-.302-2.865-.83-.679-.603-1.056-1.432-1.056-2.488h11.234v-2.865c-.075-2.79-.904-4.9-2.337-6.408Zm-8.972 5.202c.075-.98.377-1.81.83-2.262.452-.452 1.055-.678 1.884-.678.83 0 1.508.226 1.96.754.453.527.679 1.206.754 2.186h-5.428Z" fill="#fff"/></svg>