<svg width="200" height="80" fill="none" xmlns="http://www.w3.org/2000/svg"><path fill-rule="evenodd" clip-rule="evenodd" d="M128.39 44.794c-1.798.111-3.548.207-5.298.302-.247.013-.492.02-.737.028-.368.011-.736.023-1.109.052-.509.031-.827-.191-.859-.685a44.173 44.173 0 0 1-.016-2.911c.016-.494.302-.764.843-.796 1.193-.064 2.382-.131 3.571-.199h.003c1.189-.068 2.378-.135 3.571-.199 1.288-.08 2.577-.143 3.865-.207h.001l.243-.01a8.372 8.372 0 0 1 1.014-.005c.875.047 1.098.286 1.082 1.145-.016 1.475-.03 2.95-.044 4.425v.005c-.028 2.962-.057 5.92-.099 8.872-.016 1.225-.302 1.703-1.464 1.766-2.245.132-4.296.913-6.342 1.692-1.159.441-2.316.882-3.507 1.204-7.447 2.021-14.066.62-19.364-5.203-3.756-4.12-5.076-9.149-4.297-14.623 1.162-8.13 6.015-13.46 13.334-16.723 5.012-2.227 10.343-2.848 15.784-2.704.748.015 1.512.095 2.26.175.891.095 1.177.477 1.05 1.368-.095.748-.223 1.496-.35 2.243-.159.876-.414 1.13-1.321 1.114-.522 0-1.045-.032-1.568-.064a29.504 29.504 0 0 0-1.343-.063c-4.408-.048-8.784.334-12.746 2.466-6.316 3.405-9.61 8.752-9.34 15.991.287 7.526 6.524 13 14.05 12.586 3.119-.175 5.999-1.098 8.672-2.689.191-.111.398-.366.398-.572.048-2.482.063-4.964.079-7.445v-.002a.464.464 0 0 0-.001-.228 4.415 4.415 0 0 1-.015-.106ZM79.91 60.423h.002l.602.122c.875 0 1.75 0 2.593.032.042-.014.082-.03.121-.044.097-.037.191-.072.293-.084 2.307-.175 4.582-.573 6.73-1.448a36.564 36.564 0 0 0 4.487-2.196c1.035-.588 1.13-1.288.573-2.323-.143-.27-.286-.525-.445-.78a54.926 54.926 0 0 1-.233-.354c-.376-.577-.567-.868-.813-.927-.25-.06-.56.121-1.185.489l-.267.156c-2.8 1.623-5.76 2.594-9.038 2.657-5.267.096-9.213-2.211-11.759-6.73-2.498-4.44-2.291-9.102-.207-13.605 2.928-6.3 8.227-9.34 14.91-10.12 1.741-.206 3.498-.22 5.254-.232.811-.007 1.622-.013 2.43-.038.335 0 .685 0 1.003-.063.653-.143.86-.43.828-1.098a35.065 35.065 0 0 0-.207-2.26c-.112-.923-.223-1.066-1.178-1.13a55.774 55.774 0 0 0-3.993-.127c-4.853.016-9.547.86-13.97 2.864-7.702 3.485-12.189 9.356-12.794 17.917-.652 9.34 5.888 17.534 15.164 19.11.37.061.734.136 1.1.212ZM160.79 48.97v-.001l.046-.118v-1.56l-.024-.074-.038-.116c-.062-.191-.125-.382-.161-.573-.811-4.2-4.853-7.128-8.99-6.476-4.439.7-7.383 4.487-6.921 8.863.414 3.866 3.691 6.969 7.526 7.112 4.153.143 7.653-2.578 8.385-6.54.039-.167.109-.346.177-.517ZM44.633 41.596v-.732l.11-.008c.173-.013.32-.024.478-.024 1.838-.055 3.676-.107 5.514-.159 1.837-.052 3.675-.103 5.513-.159.27 0 .557-.016.828-.048.445-.047.684-.27.652-.748-.024-.413-.036-.83-.048-1.249a42.884 42.884 0 0 0-.048-1.249c-.047-1.018-.254-1.225-1.273-1.32a3.078 3.078 0 0 0-.54-.016l-8.704.43c-.663.038-1.325.088-2.014.14l-.468.035c-.08-3.692-.144-7.32-.207-10.98.082-.006.155-.016.221-.025.09-.012.168-.022.24-.022l2.787-.084c2.848-.087 5.7-.175 8.542-.235.982-.018 1.969-.015 2.958-.012.742.002 1.486.003 2.23-.003.747 0 .875-.128.89-.86.016-.78.016-1.543 0-2.323-.031-1.177-.206-1.384-1.368-1.352-6.73.175-13.477.382-20.208.589-1.193.031-1.448.318-1.607 1.48-.01.082-.02.163-.032.244-.04.296-.079.585-.079.885.016 11.409.048 22.833.096 34.242 0 .89.286 1.193 1.193 1.177 1.193-.016 2.37-.08 3.564-.19.827-.08.891-.176.891-1.02-.016-2.736-.036-5.469-.056-8.201-.02-2.733-.04-5.466-.055-8.203Z" fill="#fff"/></svg>