<svg width="200" height="80" viewBox="0 0 200 80" fill="none" xmlns="http://www.w3.org/2000/svg">
<path d="M71.789 57.789C67.0591 62.5188 60.7704 65.1195 54.0863 65.1195C47.4022 65.1195 41.1135 62.5112 36.3836 57.789C35.1441 56.5495 34.0491 55.1959 33.1062 53.7587C33.2127 53.8652 33.3115 53.9717 33.418 54.0781C37.1593 57.8194 42.1324 59.8801 47.4174 59.8801C49.6911 59.8801 51.9039 59.4999 53.9798 58.7699C56.1014 59.5304 58.3675 59.9334 60.6944 59.9334C65.9945 59.9334 70.9829 57.865 74.7318 54.1161C74.8307 54.0173 74.9219 53.926 75.0132 53.8272C74.0855 55.2416 73.0057 56.5647 71.789 57.789ZM77.7507 31.8737C75.2869 28.6799 71.4164 26.6116 67.082 26.6116C65.5535 26.6116 64.0327 26.8777 62.6031 27.3796C62.2304 26.931 61.835 26.4975 61.4168 26.0869C59.5918 24.2619 57.4778 22.8399 55.1737 21.8589C56.9531 21.319 58.8085 21.0453 60.6944 21.0453C65.7816 21.0453 70.5571 23.0224 74.1539 26.6192C75.4618 27.9271 76.5492 29.3871 77.4085 30.9612C77.5302 31.2578 77.6442 31.562 77.7507 31.8737ZM61.4092 54.0781C61.8274 53.6599 62.2228 53.2264 62.5955 52.7854C64.0098 53.2873 65.5231 53.5534 67.0744 53.5534C71.4164 53.5534 75.2793 51.4927 77.7431 48.2913C77.6366 48.5955 77.5226 48.8996 77.4085 49.2038C76.5492 50.7779 75.4542 52.2379 74.1539 53.5458C70.5571 57.1426 65.774 59.1197 60.6944 59.1197C58.7933 59.1197 56.9379 58.8384 55.1737 58.3061C57.4702 57.3251 59.5918 55.9031 61.4092 54.0781ZM78.8685 36.5123C77.6747 34.6037 75.5531 33.3337 73.1501 33.3337C70.4278 33.3337 68.0857 34.9534 67.0135 37.2727C66.5421 33.9117 65.2113 30.7483 63.143 28.0564C64.4053 27.6458 65.736 27.4328 67.082 27.4328C72.154 27.4328 76.5416 30.4365 78.5568 34.7557C78.6784 35.3337 78.7849 35.9192 78.8685 36.5123ZM67.2112 40.0787C67.2112 36.8089 69.8727 34.1474 73.1425 34.1474C76.4124 34.1474 79.0738 36.8089 79.0738 40.0787C79.0738 43.3485 76.4124 46.01 73.1425 46.01C69.8727 46.0176 67.2112 43.3485 67.2112 40.0787ZM67.0135 42.8923C68.0781 45.2116 70.4278 46.8313 73.1501 46.8313C75.5607 46.8313 77.6747 45.5614 78.8685 43.6527C78.7849 44.2458 78.6784 44.8314 78.5568 45.4093C76.5416 49.7285 72.154 52.7322 67.082 52.7322C65.7208 52.7322 64.3977 52.5116 63.143 52.101C65.2113 49.4091 66.5345 46.2533 67.0135 42.8923ZM46.2007 52.428C47.7292 51.7816 49.7139 50.5117 50.9686 49.0745C50.307 49.4775 49.615 49.6144 49.0827 49.7209C48.0485 50.5878 46.8927 51.2798 45.6608 51.7664C45.1513 51.1049 44.6799 50.4129 44.254 49.6829C43.7826 49.6372 43.1818 49.4471 43.1818 49.4471C43.6761 50.3672 44.2388 51.2417 44.8548 52.063C43.6229 52.4584 42.3302 52.6637 41.007 52.6637C35.9654 52.6637 31.6082 49.6829 29.6083 45.3865C29.4486 44.6336 29.3193 43.8656 29.228 43.0976C30.3763 45.1735 32.5891 46.5803 35.1289 46.5803C35.9958 46.5803 36.8475 46.4206 37.6459 46.0937C37.6459 46.0937 36.8247 45.7591 36.4597 45.6146C36.0262 45.7211 35.5776 45.7667 35.1289 45.7667C31.8591 45.7667 29.1976 43.1052 29.1976 39.8354C29.1976 38.2765 29.7984 36.8013 30.8934 35.6835C31.7374 34.8166 32.8096 34.2463 33.9731 34.0181C34.224 33.5999 34.9768 33.0904 34.9768 33.0904C33.2051 33.1284 31.5473 33.8508 30.3078 35.1131C29.92 35.5086 29.5854 35.942 29.3117 36.4135C29.3877 35.8736 29.4866 35.3413 29.6007 34.809C31.1215 31.5315 34.0339 28.9613 37.6764 27.9651L37.4634 27.1819C34.5814 27.9728 32.1405 29.6761 30.4067 31.9346C30.5132 31.6304 30.6196 31.3262 30.7337 31.0297C31.593 29.448 32.688 27.988 33.9959 26.6724C37.5775 23.0908 42.3454 21.1137 47.4174 21.1137C49.2652 21.1137 51.0674 21.3799 52.786 21.8818C51.7442 22.338 50.7328 22.8779 49.7747 23.5167C49.7747 23.5167 50.3526 23.6687 50.6796 23.9045C51.729 23.2505 52.8392 22.7106 53.9875 22.2772C56.5349 23.2125 58.8694 24.6953 60.8465 26.6724C61.1811 27.007 61.5004 27.3492 61.8046 27.7066C61.3255 27.9119 60.8617 28.14 60.413 28.3986C58.4511 29.524 56.8847 30.9612 55.706 32.8927C55.706 32.8927 55.9493 33.4934 55.9265 34.0714C56.7326 32.3072 58.9834 30.1628 60.8237 29.1058C61.3179 28.8244 61.8274 28.5811 62.3521 28.3682C64.9832 31.6988 66.4128 35.7899 66.4128 40.1015C66.4128 44.4131 64.9832 48.5042 62.3521 51.8349C59.6754 50.7551 57.4474 48.8236 55.668 45.4929C55.5996 46.0556 55.1509 46.3674 55.1509 46.3674C56.6261 49.0897 59.0519 51.3254 61.8046 52.4964C61.5004 52.8462 61.1811 53.196 60.8465 53.5306C58.8694 55.5077 56.5349 56.9905 53.9875 57.9259C50.9762 56.77 48.2995 54.8918 46.2007 52.428ZM30.3991 48.2457C32.8477 51.4242 36.6954 53.4698 41.007 53.4698C42.5203 53.4698 44.0031 53.2188 45.3947 52.7322C47.4022 55.1579 49.9344 57.0514 52.786 58.2909C51.0674 58.7927 49.2576 59.0589 47.4174 59.0589C42.3454 59.0589 37.5775 57.0818 33.9959 53.5002C32.688 52.1923 31.593 50.7246 30.7337 49.143C30.612 48.8464 30.5056 48.5498 30.3991 48.2457ZM36.376 22.376C41.1059 17.6462 47.3946 15.0455 54.0787 15.0455C60.7704 15.0455 67.0515 17.6538 71.7814 22.376C73.0057 23.6003 74.0855 24.9234 75.0132 26.3302C74.9219 26.2314 74.8231 26.1325 74.7318 26.0413C70.9829 22.2924 65.9945 20.224 60.6944 20.224C58.3827 20.224 56.1166 20.6194 53.9722 21.3875C51.8887 20.6575 49.6835 20.2773 47.4098 20.2773C42.1248 20.2773 37.1517 22.338 33.4104 26.0717C33.3039 26.1782 33.2051 26.2846 33.0986 26.3911C34.0415 24.9691 35.1365 23.6155 36.376 22.376ZM73.2262 20.9312C68.1161 15.8212 61.3103 13 54.0787 13C46.8471 13 40.0489 15.8136 34.9312 20.9312C29.8136 26.0489 27 32.8471 27 40.0787C27 47.3103 29.8136 54.1085 34.9312 59.2262C40.0489 64.3438 46.8471 67.1574 54.0787 67.1574C61.3103 67.1574 68.1085 64.3438 73.2262 59.2262C78.3438 54.1085 81.1574 47.3103 81.1574 40.0787C81.1574 32.8471 78.3438 26.0489 73.2262 20.9312ZM45.8433 25.2352L46.6265 25.6383C46.6722 25.6611 46.733 25.6611 46.7786 25.6459C47.06 25.5318 47.4934 25.471 47.6607 25.6383C47.7596 25.7371 47.8356 25.9348 47.7596 26.1705C47.752 26.1934 47.7596 26.2162 47.7824 26.2314L48.117 26.3987C48.1626 26.3454 48.2539 26.2542 48.3451 26.1553C48.8622 25.585 49.4325 24.9767 49.7747 24.7257C49.6074 24.6269 49.2956 24.5508 49.1512 24.6573L49.0979 24.6953L49.0447 24.6573C48.9687 24.6041 48.8546 24.5737 48.7329 24.5737C48.5656 24.5737 48.4211 24.6193 48.3679 24.6725C48.4972 24.8094 48.6113 24.9767 48.5732 25.1288C48.5428 25.2276 48.4516 25.2961 48.3071 25.3265C48.2691 25.3341 48.2463 25.3341 48.2234 25.3341C48.1626 25.3341 48.117 25.3189 48.0866 25.2808C48.0409 25.2276 48.0409 25.1592 48.0485 25.0983C48.0561 25.0071 48.0561 24.9463 47.9877 24.8854C47.9193 24.8246 47.8356 24.8626 47.7444 24.9082C47.6835 24.9387 47.6227 24.9691 47.5543 24.9691C47.4934 24.9691 47.4098 24.9387 47.3642 24.817C47.3337 24.7257 47.3413 24.6421 47.387 24.5661C47.4706 24.4444 47.6455 24.3912 47.7824 24.3912C47.8432 24.3912 47.9041 24.3988 47.9497 24.4216C47.9573 24.3988 47.9649 24.3607 47.9649 24.3075C47.9573 24.201 47.9193 24.0642 47.828 24.0109L47.7672 23.9729L47.79 23.9045C47.8128 23.8284 47.8356 23.5547 47.7444 23.4254C47.714 23.3874 47.6759 23.3646 47.6151 23.3646C47.5467 23.3646 47.4174 23.395 47.1969 23.5395L47.136 23.5851L47.0828 23.5319C47.0904 23.5395 47.0676 23.5319 47.0296 23.5319C46.9992 23.5319 46.733 23.5395 46.6189 23.8132C46.7786 23.8969 46.9307 24.0642 46.9307 24.2315C46.9307 24.2923 46.9003 24.4368 46.6798 24.49C46.4364 24.5508 46.3832 24.3835 46.3528 24.2847C46.33 24.2087 46.3148 24.1554 46.2615 24.125C46.2083 24.0946 46.1855 24.1022 46.1323 24.1478C46.0942 24.1782 46.041 24.2163 45.9726 24.2163C45.8813 24.2163 45.8053 24.1402 45.7597 24.087C45.6532 23.9577 45.676 23.8513 45.7064 23.798C45.7673 23.6764 45.927 23.6307 46.041 23.6307C46.0866 23.6307 46.1247 23.6383 46.1627 23.6459C46.1855 23.6079 46.2007 23.5319 46.1855 23.4558C46.1703 23.3722 46.1247 23.2353 45.9194 23.1821L45.8433 23.1593L45.8509 23.0376C45.8661 22.8551 45.8889 22.5661 45.5239 22.4369C45.5163 22.8475 45.3642 23.4102 45.2198 23.9121C45.1209 24.2619 45.0068 24.6953 45.0297 24.8094L45.8433 25.2352ZM43.3947 29.8282C44.3073 29.8282 45.0221 28.756 46.1019 29.5696L46.1171 29.41C45.6152 28.8624 44.9232 28.718 44.2312 29.0221C43.562 29.3187 43.0221 29.0373 43.0221 28.5279C43.0221 28.3225 43.1438 28.0488 43.4404 27.9271C42.8168 27.8739 42.2389 28.2921 42.2389 28.7864C42.2465 29.3871 42.7104 29.8282 43.3947 29.8282ZM42.3834 26.6496L43.1134 26.3835L43.7902 26.3454C43.7902 26.3454 43.9575 26.0109 43.9651 25.9804L43.8966 25.7675C43.8966 25.7675 43.9346 25.623 44.0183 25.4938C43.0602 25.4938 43.4708 25.4938 43.1134 25.4938L42.3682 25.2276L42.2389 25.471C42.3073 25.5318 42.4138 25.6687 42.4138 25.9196C42.4138 26.1553 42.3378 26.2618 42.2389 26.3759C42.2769 26.4519 42.3834 26.6496 42.3834 26.6496ZM48.8242 26.239C51.402 26.1782 53.7593 26.1325 53.805 26.1325C53.8886 26.1249 54.3601 25.9348 54.573 25.8208C54.3525 25.7067 53.9114 25.509 53.805 25.509C53.7289 25.509 51.805 25.509 49.5238 25.5014C49.288 25.7447 49.0295 26.0185 48.8242 26.239ZM38.2771 26.4595L38.4216 26.4215V25.5546L38.2771 25.5166C38.0109 25.4405 37.7524 25.6382 37.7524 25.912V26.0641C37.7448 26.3378 38.0109 26.5355 38.2771 26.4595ZM41.9423 27.6154L41.8511 27.4252V26.3302C41.9575 26.2466 42.0336 26.1021 42.0336 25.9424C42.0336 25.7751 41.9575 25.6306 41.8511 25.5546V24.4596L41.9423 24.2695V24.1934H41.2503V24.2695L41.3416 24.4596V27.4252L41.2503 27.6154V27.6914H41.9423V27.6154ZM39.106 30.9916C39.0907 31.1893 39.182 31.3795 39.3493 31.4859C39.5546 31.6228 39.9804 31.8737 40.2086 32.0258L41.5165 30.6114C41.3796 30.4898 41.1971 30.2464 41.1515 30.0639H39.144C39.144 30.3605 39.1288 30.7331 39.106 30.9916ZM50.7024 29.159C50.7024 30.2996 51.4248 30.9004 52.2841 31.4935C52.3982 31.3947 52.5579 31.273 52.7328 31.1589C51.8659 30.5734 51.2347 30.0943 51.2347 29.159C51.2347 27.4481 52.6795 27.3112 53.1282 27.3112C54.0483 27.3112 54.9836 27.8815 54.9836 29.159C54.9836 30.0411 54.2916 30.5962 53.805 30.908C53.3183 31.2198 52.7404 31.5543 52.3678 31.9498H52.3601C52.2689 31.927 52.1852 31.9194 52.1016 31.9194C50.8469 31.8281 50.5351 32.8927 51.037 33.2501C51.0446 33.6759 51.3336 34.0181 51.5693 34.0105C51.6834 34.117 51.8126 34.2234 51.9723 34.3223C52.1092 34.3071 52.3221 34.231 52.3221 34.231C52.2309 33.9345 51.8126 33.1969 52.5426 32.406C52.9229 31.9954 53.6377 31.5696 54.3296 31.0981C55.1205 30.5582 55.5159 29.9118 55.5159 29.1666C55.5159 27.5317 54.284 26.7865 53.1358 26.7865C52.0027 26.7789 50.7024 27.4024 50.7024 29.159ZM40.4671 26.8093H40.9462V25.1364L40.4671 24.9919V26.8093ZM38.7942 26.8093H39.2732V25.1364L38.7942 24.9919V26.8093ZM39.623 26.8093H40.1021V25.1364L39.623 24.9919V26.8093ZM39.3493 28.5659C39.3265 28.9081 39.2885 29.2883 39.2732 29.6761H40.9462C40.8473 29.2427 40.7409 28.6875 40.6648 28.2845L40.8701 27.1591L39.0451 27.1363L39.2885 28.0336C39.3417 28.2085 39.3645 28.391 39.3493 28.5659ZM41.8055 30.8852L40.6344 32.2083C41.3644 32.6874 42.0412 33.1817 42.2465 33.3109C42.6647 33.0448 43.0754 32.6189 43.3339 32.2539C43.1514 32.0714 42.9005 31.7673 42.7864 31.4859C42.4518 31.2882 42.1553 31.0905 41.8055 30.8852ZM39.9196 41.6908C39.836 41.7821 39.7675 41.8581 39.7371 41.9646C39.4101 42.0634 39.144 42.3524 39.1288 42.7402C40.0945 42.5197 40.5736 42.5273 41.4328 42.6489C41.4785 42.7174 41.4785 42.7858 41.4785 42.7858C41.4785 42.7858 40.5812 42.7934 40.0413 43.0368C40.0109 43.128 40.0033 43.2345 40.0185 43.3257C39.8055 43.6603 39.8436 43.9873 40.0869 44.2915C40.9918 42.9303 42.9917 42.8847 42.505 44.4131C42.9765 44.5044 43.2883 44.0861 43.486 43.6223C43.6837 43.1584 43.41 42.4436 44.3149 42.3067C44.6799 42.2535 45.0297 42.1775 45.4935 42.033C45.4783 41.8733 45.311 41.5159 45.1741 41.3562C45.4327 41.3562 45.7977 41.6604 45.9194 41.8657C46.0334 41.8125 46.1779 41.744 46.292 41.6832C46.2463 41.5235 45.927 41.1281 45.7597 40.976C46.0334 41.0064 46.5049 41.2954 46.6646 41.4855C46.771 41.4247 46.8699 41.3562 46.9687 41.2878C46.9231 41.1281 46.657 40.7707 46.444 40.611C46.6722 40.611 47.1512 40.8619 47.3109 41.0216C47.4174 40.9304 47.5162 40.8391 47.6075 40.7327C47.2121 39.6909 47.8889 39.151 49.0523 38.6187C49.1131 38.5883 49.3641 38.4818 49.5846 38.3754C49.4933 37.9875 49.3869 37.1054 49.4325 36.6644C48.8318 36.4895 47.8889 36.3754 47.4326 36.3754C46.695 36.672 45.2122 37.7442 44.7787 38.3754C45.7216 39.0293 45.235 41.9113 42.5279 41.5463C41.8359 41.4551 41.5621 40.8087 41.1515 40.5578C41.0602 40.573 40.9538 40.6186 40.8473 40.687C40.5051 40.5502 40.0869 40.6414 39.8436 40.9836C40.642 41.1281 41.1135 41.5311 41.4252 41.9341C41.4176 41.9646 41.4024 42.0178 41.4024 42.0178C41.4024 42.0178 40.4063 41.6908 39.9196 41.6908ZM52.5122 38.383C52.4666 38.2689 52.4362 38.1396 52.4058 38.0027C52.2461 37.9495 51.8355 37.8887 51.691 37.8735C51.7366 37.691 52.1396 37.6225 52.3601 37.6073C52.3525 37.4628 52.3525 37.326 52.3525 37.1815C52.2081 37.1359 51.8431 37.0674 51.7214 37.0522C51.767 36.8621 52.1624 36.8165 52.383 36.8013C52.3982 36.6568 52.4286 36.5275 52.459 36.4211C52.5274 36.4287 52.5959 36.4287 52.6719 36.4287C52.9761 36.4287 53.2422 36.4211 53.554 36.2994C54.4513 35.942 55.0673 35.1283 55.0673 34.1854C55.0673 33.2121 54.4057 32.4212 53.7745 31.8889L53.3411 32.2159C53.9418 32.695 54.4969 33.3261 54.4969 34.1474C54.4969 34.8014 54.0483 35.4021 53.3563 35.6758C52.8468 35.8812 52.17 35.8812 51.5997 35.4021C50.3754 34.2463 48.2158 32.2007 47.9877 31.9726C46.7862 32.9687 45.273 33.1817 43.7141 32.4136C42.718 33.7976 40.8473 34.5428 39.874 34.596C38.7866 34.6569 37.9197 34.1094 37.6155 33.1741C37.5243 33.1664 37.4026 33.1893 37.2809 33.2273C36.9768 33.0068 36.5433 32.9916 36.2239 33.2653C36.8855 33.501 37.2885 34.0561 37.5471 34.5732C37.5319 34.6037 37.5243 34.6265 37.5015 34.6493C37.0756 34.3147 36.6194 34.0942 36.1479 33.9725C36.0414 34.0409 35.9654 34.0942 35.9046 34.1854C35.5548 34.193 35.2202 34.4135 35.1061 34.7938C36.2087 34.6265 37.0832 35.0751 37.3798 35.2652C37.395 35.3108 37.395 35.3565 37.3874 35.3793C37.1441 35.3413 36.6042 35.3641 36.1251 35.5162C36.0947 35.6074 36.0795 35.7215 36.0871 35.8355C35.7905 36.1093 35.6993 36.5731 35.9502 36.9534C36.7638 35.6606 38.5508 35.7139 38.3607 36.6112C38.2771 36.8165 38.0946 36.961 37.8513 37.0598C38.2923 37.3792 39.1592 36.9838 39.7143 36.0713C40.1325 35.3869 41.8511 35.1436 42.4214 35.9572C42.5963 35.9344 42.7636 35.8812 42.9157 35.8203C42.8701 35.6454 42.6115 35.2272 42.3986 35.0447C42.794 35.0827 43.1666 35.3793 43.3339 35.5922C43.4632 35.5314 43.5468 35.4781 43.6609 35.3869C43.6153 35.212 43.3871 34.8926 43.2198 34.7101C43.448 34.7177 43.851 34.9382 43.9955 35.0827C44.0715 34.9991 44.2236 34.847 44.2844 34.7633C45.9346 36.2766 48.1018 35.6987 49.904 36.3602C49.7063 37.5085 50.0028 39.5236 50.9382 40.3372C52.5807 39.516 53.6681 41.3866 53.2727 42.8847C53.1282 43.417 52.497 43.5919 51.5161 43.2649C51.3868 43.3561 51.3108 43.5234 51.2956 43.7059C50.9914 43.8808 50.8089 44.2382 50.8925 44.626C51.364 44.2382 51.9799 44.1089 52.6339 44.185C52.6339 44.223 52.6339 44.2762 52.6339 44.2762C52.6339 44.2762 51.5693 44.512 51.2803 44.9302C51.2803 45.0139 51.3184 45.1279 51.3868 45.2344C51.2956 45.5766 51.4248 45.972 51.7746 46.1849C51.8735 45.0063 52.8924 44.7629 52.8924 44.7629C52.8924 44.7629 52.9229 44.8085 52.9533 44.839C52.7023 45.0139 52.4818 45.4321 52.4742 45.7895C52.5198 45.8351 52.5883 45.8731 52.6643 45.9188C52.6795 46.2914 52.9457 46.6488 53.3563 46.7248C53.0293 45.8047 53.3791 45.1964 53.6377 44.953C53.9038 44.7021 54.2308 44.6032 54.4817 44.8846C54.6414 45.0899 54.6414 45.356 54.5654 45.6374C54.9684 45.4321 55.1509 44.9226 54.9836 44.5956C54.611 43.8808 54.5121 43.0976 54.5578 42.3904C54.4437 42.3448 54.1776 42.2991 54.0103 42.2915C54.0863 42.1395 54.4209 42.0406 54.5882 42.0254C54.611 41.8733 54.6414 41.6756 54.6718 41.5311C54.5426 41.4475 54.2384 41.341 54.0407 41.303C54.1547 41.1357 54.5654 41.1509 54.7707 41.1661C54.8239 40.9988 54.8772 40.8239 54.938 40.687C54.8619 40.5882 54.5958 40.4361 54.4133 40.3829C54.5654 40.2536 54.9304 40.2764 55.1281 40.3372C55.1965 40.2308 55.2574 40.1395 55.3182 40.0863C54.8163 39.5236 53.2346 38.5807 52.5122 38.383ZM44.87 26.2238C44.9004 26.1553 44.9764 26.1173 45.0449 26.1401L45.6228 26.3607C45.6608 26.3759 45.6836 26.4139 45.6836 26.4519L45.676 26.5736L45.1817 26.7485C45.0981 26.7637 45.0144 26.7104 44.9916 26.6268L44.9688 26.5127C44.9536 26.4367 44.9156 26.3759 44.8624 26.3226L44.8396 26.2998L44.87 26.2238ZM44.3605 26.1401C44.2768 26.2998 43.9651 26.8397 43.8282 27.1059C43.7978 27.1667 43.813 27.2351 43.8586 27.2808L44.0563 27.4633C44.0867 27.4937 44.1248 27.5013 44.1628 27.4785C44.2768 27.4252 44.5126 27.3264 44.5658 27.3036C44.5962 27.334 44.657 27.4557 44.6647 27.5241C44.5734 27.5697 44.2844 27.7142 44.2008 27.7902C44.1628 27.9651 44.178 28.064 44.2616 28.2009C44.5734 28.2009 44.6723 28.3302 44.6723 28.6267H44.908C44.9916 28.2161 45.1589 27.9119 45.6 27.9119C46.0106 27.9119 46.444 28.3378 46.444 29.1514C46.444 30.0791 46.1931 30.5202 45.5924 30.5202C45.1285 30.5202 44.9612 30.14 44.8928 29.6837C44.8396 29.6837 44.7331 29.6761 44.7179 29.6761C44.0791 30.0183 43.7141 31.2198 43.197 31.3566C43.2427 31.4403 43.2959 31.5163 43.3567 31.5848C43.4176 31.6608 43.5164 31.6912 43.6077 31.6532C43.8282 31.5696 44.1019 31.4099 44.2616 31.2502C44.2464 31.5391 44.0867 31.7825 43.8738 32.0334C43.9727 32.0942 44.0715 32.1475 44.178 32.1931C44.2692 32.2311 44.3757 32.2083 44.4365 32.1399C44.5886 31.9802 44.7635 31.7216 44.8776 31.5163C44.9156 31.8205 44.8852 32.1019 44.7635 32.3908C44.8548 32.4136 44.946 32.4288 45.0373 32.444C45.1893 32.4669 45.3414 32.3984 45.4099 32.2615C45.5163 32.0562 45.5696 31.7977 45.6152 31.5924C45.7216 31.8737 45.7977 32.1323 45.8053 32.4516C45.9041 32.444 46.0106 32.4288 46.1019 32.4136C46.2539 32.3832 46.368 32.2615 46.3832 32.1095C46.3984 31.8661 46.406 31.5696 46.3832 31.3642C46.5809 31.6684 46.733 32.0486 46.809 32.2159C46.9231 32.1703 47.0524 32.1019 47.1664 32.0334C47.3033 31.9498 47.3566 31.7825 47.2957 31.638C47.2045 31.4251 47.1284 31.2198 47.06 30.9764C47.2197 31.1741 47.4402 31.3338 47.6455 31.4479C47.752 31.5087 47.8888 31.4783 47.9725 31.3795C48.0485 31.2958 48.1094 31.2046 48.1778 31.1133C47.9649 30.9156 47.6379 30.5278 47.5543 30.254C47.6835 30.3833 47.9649 30.5582 48.2006 30.657C48.3147 30.7027 48.444 30.6494 48.4896 30.5354C48.5352 30.4213 48.5732 30.3149 48.6037 30.2008C48.3831 30.0563 47.9649 29.7826 47.8432 29.5468C47.9573 29.6229 48.193 29.7065 48.4059 29.7597C48.5504 29.7978 48.6949 29.6913 48.6949 29.5392C48.6949 29.4556 48.6949 29.3643 48.6873 29.2807C48.3907 29.2275 48.0561 29.0373 47.9041 28.8244C48.0714 28.9081 48.4744 28.9385 48.6265 28.8777C48.6036 28.7788 48.5732 28.6799 48.5352 28.5811C48.2691 28.5203 48.079 28.3454 47.9497 28.1248C48.155 28.2009 48.3223 28.2085 48.3907 28.1781L48.2082 27.7598C47.9421 27.5469 47.7748 27.0602 47.9345 26.7333C47.9345 26.7333 47.6379 26.5812 47.4554 26.4823C47.3794 26.4367 47.3489 26.3454 47.3794 26.2694C47.501 25.988 47.5467 25.6915 46.8547 25.988C46.7558 26.0337 46.6037 26.0413 46.4897 25.9804C45.7216 25.585 44.9232 25.182 44.8167 25.1212C44.5886 25.2961 44.4137 25.4938 44.2996 25.7751C44.3377 25.9044 44.4289 26.0033 44.3605 26.1401ZM40.2922 47.3712L40.6496 46.74L40.6724 46.702L40.7637 46.5423L41.3264 45.5614L41.9347 44.4968C41.988 44.3979 42.0184 44.2762 41.9499 44.1242C41.8891 43.9949 41.7826 43.8884 41.6458 43.858C41.4024 43.8048 41.1667 43.9721 41.1211 44.2154C41.0831 44.4359 41.2123 44.6413 41.4176 44.7021L41.0526 45.3408C40.9994 45.4321 40.8853 45.4625 40.7941 45.4169C40.4063 45.2116 38.9615 44.5272 38.1706 44.2915C38.0642 44.3903 37.9577 44.7021 37.9577 44.8618C38.9082 45.2724 39.9652 45.9188 40.3607 46.2381C40.4291 46.2914 40.4519 46.3902 40.4063 46.4663L39.7751 47.5765C39.7295 47.6525 39.7067 47.7438 39.7219 47.8502C39.7599 48.086 39.9576 48.2609 40.2086 48.2304C40.3607 48.2152 40.5051 48.1088 40.5584 47.9643C40.6572 47.7058 40.5203 47.4472 40.2922 47.3712ZM50.8545 45.9568C49.8431 46.6868 48.117 47.1887 46.9307 47.1887C44.4974 47.1887 42.429 46.2686 41.6382 45.8579C41.6382 45.8579 41.5545 46.1773 41.7674 46.5195C41.372 46.5043 41.1059 46.7933 41.1059 46.7933C42.7712 47.9415 44.7331 48.7095 47.0676 48.7095C49.4097 48.7095 51.1359 47.9871 52.383 46.9757C51.5921 46.8465 51.1054 46.4739 50.8545 45.9568Z" fill="white"/>
<path d="M95.8713 32.5999V38.6225H94.6394V34.8508L93.1718 37.4058H92.3125L90.8449 34.8508V38.6225H89.613V32.5999H90.8525L92.7383 35.9001L94.6242 32.5999H95.8713ZM97.2476 33.2767C97.0955 33.1322 97.0119 32.9497 97.0119 32.7368C97.0119 32.5163 97.0879 32.3338 97.2476 32.1893C97.3997 32.0448 97.5898 31.9688 97.8103 31.9688C98.0309 31.9688 98.2134 32.0448 98.3655 32.1893C98.5175 32.3338 98.5936 32.5163 98.5936 32.7368C98.5936 32.9497 98.5175 33.1322 98.3655 33.2767C98.2134 33.4212 98.0309 33.4972 97.8103 33.4972C97.5898 33.4972 97.4073 33.4212 97.2476 33.2767ZM97.1944 34.1055H98.4263V38.6225H97.1944V34.1055ZM103.354 34.501C103.658 34.8355 103.81 35.269 103.81 35.8165V38.6225H102.586V35.9838C102.586 35.7252 102.51 35.5123 102.35 35.3526C102.198 35.1929 101.993 35.1093 101.742 35.1093C101.491 35.1093 101.285 35.1929 101.126 35.3526C100.966 35.5123 100.882 35.7252 100.882 35.9838V38.6225H99.6506V34.1055H100.784V34.5162C100.943 34.3565 101.133 34.2348 101.362 34.1436C101.59 34.0523 101.841 34.0067 102.107 34.0067C102.639 34.0067 103.05 34.1664 103.354 34.501ZM105.065 33.2767C104.913 33.1322 104.829 32.9497 104.829 32.7368C104.829 32.5163 104.905 32.3338 105.065 32.1893C105.217 32.0448 105.407 31.9688 105.628 31.9688C105.848 31.9688 106.031 32.0448 106.183 32.1893C106.335 32.3338 106.411 32.5163 106.411 32.7368C106.411 32.9497 106.335 33.1322 106.183 33.2767C106.031 33.4212 105.848 33.4972 105.628 33.4972C105.407 33.4972 105.224 33.4212 105.065 33.2767ZM105.004 34.1055H106.236V38.6225H105.004V34.1055ZM107.871 38.4932C107.551 38.3411 107.285 38.1206 107.08 37.8468L107.703 37.1016C108.099 37.5122 108.525 37.71 108.973 37.71C109.141 37.71 109.278 37.6795 109.384 37.6111C109.49 37.5503 109.551 37.4514 109.551 37.3297C109.551 37.2309 109.513 37.1548 109.445 37.1092C109.376 37.056 109.255 36.9952 109.087 36.9191L108.601 36.7214C108.19 36.5541 107.878 36.364 107.673 36.1587C107.468 35.9534 107.369 35.6796 107.369 35.345C107.369 34.9192 107.521 34.5846 107.833 34.3489C108.137 34.1055 108.54 33.9915 109.034 33.9915C109.711 33.9915 110.251 34.2196 110.662 34.6759L110.038 35.4363C109.734 35.1473 109.399 35.0104 109.027 35.0104C108.875 35.0104 108.753 35.0409 108.669 35.0941C108.586 35.1473 108.54 35.231 108.54 35.3298C108.54 35.4135 108.578 35.4895 108.646 35.5427C108.715 35.6036 108.836 35.6644 109.019 35.7328L109.452 35.9154C109.893 36.0902 110.213 36.2804 110.418 36.4857C110.623 36.691 110.722 36.9571 110.722 37.2917C110.722 37.7404 110.555 38.0978 110.228 38.3487C109.893 38.6073 109.475 38.7289 108.966 38.7289C108.555 38.7289 108.19 38.6529 107.871 38.4932ZM114.623 37.6187V38.6225C114.334 38.6985 114.045 38.7289 113.772 38.7289C113.201 38.7289 112.753 38.5844 112.441 38.3031C112.122 38.0217 111.969 37.5959 111.969 37.0332V35.1473H111.255V34.1055H111.969V33.0562H113.201V34.1055H114.479V35.1473H113.201V36.9267C113.201 37.1853 113.27 37.3602 113.399 37.4666C113.536 37.5731 113.749 37.6263 114.038 37.6263L114.623 37.6187ZM118.357 34.1055V35.1929H118.03C117.657 35.1929 117.361 35.2918 117.148 35.4895C116.927 35.6872 116.821 35.9838 116.821 36.3716V38.6225H115.589V34.1055H116.722V34.6454C116.874 34.4553 117.057 34.3109 117.27 34.2044C117.483 34.0979 117.711 34.0523 117.962 34.0523C118.106 34.0523 118.243 34.0675 118.357 34.1055ZM123.429 34.1055L122.182 38.5616C122.015 39.1548 121.779 39.5882 121.482 39.8467C121.186 40.1053 120.783 40.2422 120.281 40.2422C119.992 40.2422 119.665 40.2041 119.285 40.1357V39.1091C119.612 39.1319 119.825 39.1472 119.916 39.1472C120.235 39.1472 120.463 39.1091 120.615 39.0255C120.768 38.9494 120.874 38.8126 120.935 38.6225H120.288L118.943 34.1055H120.19L121.209 37.6187L122.197 34.1055H123.429ZM128.425 33.7025C128.357 33.7786 128.326 33.9078 128.326 34.1055H129.322V35.1473H128.326V38.6225H127.094V35.1473H126.456V34.1055H127.094V34.0067C127.094 33.52 127.231 33.1474 127.497 32.8889C127.771 32.6303 128.151 32.4934 128.653 32.4934C128.98 32.4934 129.269 32.5239 129.512 32.5847V33.5961H128.782C128.615 33.5961 128.493 33.6265 128.425 33.7025ZM130.942 38.4095C130.577 38.2042 130.28 37.9153 130.068 37.5579C129.855 37.1929 129.748 36.7974 129.748 36.3564C129.748 35.9154 129.855 35.5199 130.075 35.1625C130.288 34.8051 130.585 34.5238 130.95 34.3109C131.315 34.1055 131.725 33.9991 132.166 33.9991C132.6 33.9991 133.01 34.1055 133.375 34.3109C133.748 34.5162 134.045 34.7975 134.257 35.1625C134.478 35.5199 134.584 35.923 134.584 36.3564C134.584 36.7974 134.478 37.1929 134.257 37.5579C134.037 37.9229 133.74 38.2042 133.375 38.4095C133.003 38.6149 132.6 38.7213 132.151 38.7213C131.702 38.7213 131.307 38.6149 130.942 38.4095ZM133.003 37.2385C133.223 37.0104 133.337 36.7138 133.337 36.364C133.337 36.0142 133.223 35.7176 133.003 35.4819C132.782 35.2462 132.501 35.1245 132.166 35.1245C131.824 35.1245 131.543 35.2386 131.33 35.4743C131.109 35.71 131.003 36.0066 131.003 36.364C131.003 36.7214 131.109 37.018 131.33 37.2461C131.55 37.4742 131.832 37.5883 132.166 37.5883C132.501 37.5883 132.782 37.4742 133.003 37.2385ZM138.333 34.1055V35.1929H138.006C137.634 35.1929 137.337 35.2918 137.124 35.4895C136.904 35.6872 136.797 35.9838 136.797 36.3716V38.6225H135.565V34.1055H136.698V34.6454C136.851 34.4553 137.033 34.3109 137.246 34.2044C137.459 34.0979 137.687 34.0523 137.938 34.0523C138.082 34.0523 138.219 34.0675 138.333 34.1055ZM141.732 32.5999H145.687V33.7101H142.964V35.2158H145.2V36.326H142.964V38.6225H141.732V32.5999ZM147.284 38.4095C146.919 38.2042 146.622 37.9153 146.409 37.5579C146.196 37.1929 146.09 36.7974 146.09 36.3564C146.09 35.9154 146.196 35.5199 146.417 35.1625C146.63 34.8051 146.926 34.5238 147.291 34.3109C147.656 34.1055 148.067 33.9991 148.508 33.9991C148.949 33.9991 149.352 34.1055 149.717 34.3109C150.09 34.5162 150.386 34.7975 150.599 35.1625C150.82 35.5199 150.926 35.923 150.926 36.3564C150.926 36.7974 150.82 37.1929 150.599 37.5579C150.378 37.9229 150.082 38.2042 149.717 38.4095C149.344 38.6149 148.941 38.7213 148.493 38.7213C148.052 38.7213 147.649 38.6149 147.284 38.4095ZM149.344 37.2385C149.565 37.0104 149.679 36.7138 149.679 36.364C149.679 36.0142 149.565 35.7176 149.344 35.4819C149.124 35.2462 148.842 35.1245 148.508 35.1245C148.166 35.1245 147.884 35.2386 147.671 35.4743C147.451 35.71 147.344 36.0066 147.344 36.364C147.344 36.7214 147.451 37.018 147.671 37.2461C147.892 37.4742 148.173 37.5883 148.508 37.5883C148.842 37.5883 149.124 37.4742 149.344 37.2385ZM154.675 34.1055V35.1929H154.348C153.975 35.1929 153.679 35.2918 153.466 35.4895C153.245 35.6872 153.139 35.9838 153.139 36.3716V38.6225H151.907V34.1055H153.04V34.6454C153.192 34.4553 153.375 34.3109 153.587 34.2044C153.8 34.0979 154.029 34.0523 154.279 34.0523C154.424 34.0523 154.561 34.0675 154.675 34.1055ZM159.58 36.7746H156.416C156.492 37.0636 156.637 37.2841 156.857 37.4362C157.078 37.5883 157.352 37.6719 157.686 37.6719C158.127 37.6719 158.553 37.5198 158.941 37.2157L159.45 38.0521C158.918 38.5008 158.31 38.7289 157.648 38.7289C157.177 38.7289 156.758 38.6225 156.378 38.4171C155.998 38.2118 155.709 37.9229 155.496 37.5655C155.283 37.2081 155.177 36.805 155.177 36.364C155.177 35.923 155.283 35.5275 155.489 35.1625C155.694 34.8051 155.983 34.5162 156.34 34.3109C156.705 34.1055 157.101 33.9991 157.542 33.9991C157.952 33.9991 158.325 34.0903 158.644 34.2804C158.964 34.4629 159.215 34.7215 159.397 35.0409C159.58 35.3602 159.663 35.7176 159.663 36.1055C159.663 36.3184 159.633 36.5465 159.58 36.7746ZM156.804 35.2462C156.606 35.4135 156.477 35.634 156.409 35.9077H158.462C158.454 35.6264 158.355 35.4059 158.173 35.2462C157.983 35.0789 157.755 35.0028 157.488 35.0028C157.23 34.9952 157.002 35.0789 156.804 35.2462ZM160.697 33.2767C160.545 33.1322 160.462 32.9497 160.462 32.7368C160.462 32.5163 160.538 32.3338 160.697 32.1893C160.85 32.0448 161.04 31.9688 161.26 31.9688C161.481 31.9688 161.663 32.0448 161.815 32.1893C161.967 32.3338 162.043 32.5163 162.043 32.7368C162.043 32.9497 161.967 33.1322 161.815 33.2767C161.663 33.4212 161.481 33.4972 161.26 33.4972C161.04 33.4972 160.85 33.4212 160.697 33.2767ZM160.637 34.1055H161.868V38.6225H160.637V34.1055ZM167.617 34.1055V38.1206C167.617 38.8582 167.404 39.4133 166.979 39.8011C166.553 40.1813 165.99 40.379 165.283 40.379C164.431 40.379 163.693 40.0977 163.07 39.5426L163.716 38.6833C163.967 38.8734 164.203 39.0179 164.431 39.1167C164.659 39.2156 164.91 39.2688 165.184 39.2688C165.549 39.2688 165.838 39.1776 166.058 39.0027C166.279 38.8202 166.385 38.554 166.385 38.2042V37.9609C166.218 38.1358 166.02 38.2727 165.785 38.3639C165.549 38.4552 165.29 38.5008 165.001 38.5008C164.591 38.5008 164.218 38.4095 163.891 38.2194C163.564 38.0293 163.306 37.7632 163.123 37.4286C162.941 37.0864 162.842 36.6986 162.842 36.2575C162.842 35.8165 162.933 35.4211 163.123 35.0865C163.313 34.7519 163.572 34.4858 163.899 34.3033C164.226 34.1208 164.598 34.0219 165.001 34.0219C165.321 34.0219 165.61 34.0827 165.861 34.1968C166.112 34.3109 166.317 34.4781 166.477 34.6911V34.1284H167.617V34.1055ZM166.066 37.1244C166.294 36.9115 166.401 36.6073 166.401 36.2195C166.401 35.8317 166.287 35.5351 166.066 35.345C165.845 35.1473 165.572 35.0561 165.26 35.0561C164.925 35.0561 164.644 35.1625 164.423 35.3678C164.203 35.5808 164.089 35.8621 164.089 36.2271C164.089 36.5921 164.203 36.8887 164.423 37.1092C164.644 37.3297 164.925 37.4438 165.252 37.4438C165.572 37.4438 165.838 37.3373 166.066 37.1244ZM172.545 34.501C172.849 34.8355 173.001 35.269 173.001 35.8165V38.6225H171.784V35.9838C171.784 35.7252 171.708 35.5123 171.549 35.3526C171.397 35.1929 171.191 35.1093 170.94 35.1093C170.689 35.1093 170.484 35.1929 170.324 35.3526C170.165 35.5123 170.081 35.7252 170.081 35.9838V38.6225H168.849V34.1055H169.982V34.5162C170.142 34.3565 170.332 34.2348 170.56 34.1436C170.788 34.0523 171.039 34.0067 171.305 34.0067C171.83 34.0067 172.241 34.1664 172.545 34.501ZM93.0349 47.9377H90.8373L90.6015 48.9946H89.3164L90.784 42.9721H93.1033L94.5633 48.9946H93.2782L93.0349 47.9377ZM92.8068 46.9263L92.168 44.0899H91.7117L91.0654 46.9263H92.8068ZM97.0195 44.0823C96.9511 44.1583 96.9206 44.2876 96.9206 44.4853H97.9168V45.5271H96.9206V49.0023H95.6888V45.5271H95.05V44.4853H95.6888V44.3865C95.6888 43.8998 95.8256 43.5272 96.0918 43.2687C96.3655 43.0101 96.7458 42.8732 97.2476 42.8732C97.5746 42.8732 97.8636 42.9036 98.1069 42.9645V43.9758H97.3769C97.202 43.9758 97.0879 44.0063 97.0195 44.0823ZM100.358 44.0823C100.289 44.1583 100.259 44.2876 100.259 44.4853H101.255V45.5271H100.259V49.0023H99.027V45.5271H98.3883V44.4853H99.027V44.3865C99.027 43.8998 99.1639 43.5272 99.43 43.2687C99.7038 43.0101 100.084 42.8732 100.586 42.8732C100.913 42.8732 101.202 42.9036 101.445 42.9645V43.9758H100.715C100.54 43.9758 100.426 44.0063 100.358 44.0823ZM106.464 44.4853V49.0023H105.316V48.47C105.156 48.6753 104.958 48.835 104.707 48.9414C104.464 49.0479 104.183 49.1087 103.879 49.1087C103.46 49.1087 103.08 49.0099 102.753 48.8045C102.419 48.5992 102.16 48.3179 101.97 47.9605C101.78 47.6031 101.689 47.2 101.689 46.7514C101.689 46.3027 101.78 45.8997 101.97 45.5347C102.16 45.1773 102.419 44.896 102.753 44.6906C103.088 44.4853 103.46 44.3865 103.879 44.3865C104.19 44.3865 104.472 44.4473 104.715 44.5614C104.966 44.6754 105.171 44.8427 105.323 45.0556V44.4929H106.464V44.4853ZM104.913 47.6715C105.141 47.4586 105.247 47.1544 105.247 46.7438C105.247 46.3408 105.133 46.0366 104.913 45.8161C104.685 45.6032 104.418 45.4891 104.114 45.4891C103.787 45.4891 103.506 45.6032 103.285 45.8389C103.057 46.067 102.951 46.3712 102.951 46.7438C102.951 47.1164 103.065 47.413 103.285 47.6411C103.514 47.8692 103.787 47.9833 104.114 47.9833C104.426 47.9833 104.692 47.8768 104.913 47.6715ZM107.772 43.6565C107.62 43.512 107.536 43.3295 107.536 43.1166C107.536 42.896 107.612 42.7135 107.772 42.5691C107.924 42.4246 108.114 42.3485 108.335 42.3485C108.555 42.3485 108.738 42.4246 108.89 42.5691C109.042 42.7135 109.118 42.896 109.118 43.1166C109.118 43.3295 109.042 43.512 108.89 43.6565C108.738 43.801 108.555 43.877 108.335 43.877C108.114 43.8694 107.932 43.801 107.772 43.6565ZM107.719 44.4853H108.951V49.0023H107.719V44.4853ZM112.958 44.4853V45.5727H112.631C112.258 45.5727 111.962 45.6716 111.749 45.8693C111.528 46.067 111.422 46.3636 111.422 46.7514V49.0023H110.19V44.4853H111.323V45.0252C111.475 44.8351 111.658 44.6906 111.871 44.5842C112.084 44.4777 112.312 44.4321 112.563 44.4321C112.715 44.4321 112.844 44.4473 112.958 44.4853ZM114.137 48.873C113.817 48.7209 113.551 48.5004 113.346 48.2266L113.969 47.4814C114.365 47.892 114.783 48.0897 115.239 48.0897C115.407 48.0897 115.536 48.0593 115.65 47.9909C115.756 47.9301 115.817 47.8312 115.817 47.7095C115.817 47.6107 115.779 47.5346 115.711 47.489C115.642 47.4358 115.521 47.3749 115.353 47.2989L114.867 47.1012C114.456 46.9339 114.144 46.7438 113.939 46.5385C113.734 46.3332 113.635 46.0594 113.635 45.7248C113.635 45.299 113.787 44.9644 114.099 44.7287C114.403 44.4853 114.806 44.3713 115.3 44.3713C115.977 44.3713 116.517 44.5994 116.92 45.0556L116.296 45.8161C115.992 45.5271 115.657 45.3902 115.285 45.3902C115.133 45.3902 115.011 45.4207 114.927 45.4739C114.844 45.5271 114.798 45.6108 114.798 45.7096C114.798 45.7933 114.836 45.8693 114.905 45.9225C114.973 45.9834 115.095 46.0442 115.27 46.1126L115.711 46.2951C116.144 46.47 116.471 46.6601 116.669 46.8655C116.874 47.0708 116.973 47.3369 116.973 47.6715C116.973 48.1202 116.806 48.4776 116.479 48.7285C116.144 48.987 115.726 49.1087 115.216 49.1087C114.813 49.1087 114.456 49.0327 114.137 48.873ZM121.391 48.7893C121.026 48.584 120.73 48.2951 120.517 47.9377C120.304 47.5727 120.197 47.1772 120.197 46.7362C120.197 46.2951 120.304 45.8997 120.524 45.5423C120.737 45.1849 121.034 44.9036 121.399 44.6906C121.764 44.4853 122.174 44.3789 122.615 44.3789C123.056 44.3789 123.459 44.4853 123.832 44.6906C124.205 44.896 124.494 45.1773 124.714 45.5423C124.935 45.8997 125.041 46.3027 125.041 46.7362C125.041 47.1696 124.935 47.5727 124.714 47.9377C124.494 48.3027 124.197 48.584 123.832 48.7893C123.459 48.9946 123.056 49.1011 122.608 49.1011C122.167 49.0935 121.756 48.9946 121.391 48.7893ZM123.452 47.6183C123.672 47.3902 123.786 47.0936 123.786 46.7438C123.786 46.394 123.672 46.0974 123.452 45.8617C123.231 45.626 122.95 45.5043 122.615 45.5043C122.273 45.5043 121.992 45.6184 121.779 45.8541C121.558 46.0898 121.452 46.3864 121.452 46.7438C121.452 47.1012 121.558 47.3978 121.779 47.6259C121.999 47.854 122.273 47.9681 122.615 47.9681C122.95 47.9681 123.231 47.854 123.452 47.6183ZM127.513 44.0823C127.444 44.1583 127.414 44.2876 127.414 44.4853H128.41V45.5271H127.414V49.0023H126.182V45.5271H125.543V44.4853H126.182V44.3865C126.182 43.8998 126.319 43.5272 126.585 43.2687C126.851 43.0101 127.239 42.8732 127.741 42.8732C128.068 42.8732 128.357 42.9036 128.6 42.9645V43.9758H127.87C127.703 43.9758 127.581 44.0063 127.513 44.0823ZM131.725 42.9797H135.687V44.0899H132.957V45.5956H135.193V46.7058H132.957V48.9946H131.725V42.9797ZM136.6 43.6565C136.447 43.512 136.364 43.3295 136.364 43.1166C136.364 42.896 136.44 42.7135 136.6 42.5691C136.752 42.4246 136.942 42.3485 137.162 42.3485C137.383 42.3485 137.565 42.4246 137.717 42.5691C137.869 42.7135 137.946 42.896 137.946 43.1166C137.946 43.3295 137.869 43.512 137.717 43.6565C137.565 43.801 137.383 43.877 137.162 43.877C136.942 43.8694 136.759 43.801 136.6 43.6565ZM136.546 44.4853H137.778V49.0023H136.546V44.4853ZM142.706 44.8808C143.01 45.2153 143.162 45.6488 143.162 46.1963V48.9946H141.938V46.356C141.938 46.0974 141.862 45.8845 141.702 45.7248C141.55 45.5651 141.345 45.4815 141.094 45.4815C140.843 45.4815 140.637 45.5651 140.478 45.7248C140.318 45.8845 140.234 46.0974 140.234 46.356V48.9946H139.003V44.4777H140.136V44.8884C140.295 44.7287 140.485 44.607 140.713 44.5157C140.942 44.4245 141.193 44.3789 141.459 44.3789C141.991 44.3789 142.402 44.5462 142.706 44.8808ZM144.379 42.9797H145.611V49.0023H144.379V42.9797ZM151.382 44.4853V49.0023H150.234V48.47C150.074 48.6753 149.877 48.835 149.626 48.9414C149.382 49.0479 149.101 49.1087 148.797 49.1087C148.379 49.1087 147.998 49.0099 147.671 48.8045C147.337 48.5992 147.078 48.3179 146.888 47.9605C146.698 47.6031 146.607 47.2 146.607 46.7514C146.607 46.3027 146.698 45.8997 146.888 45.5347C147.078 45.1773 147.337 44.896 147.671 44.6906C148.006 44.4853 148.379 44.3865 148.797 44.3865C149.109 44.3865 149.39 44.4473 149.633 44.5614C149.884 44.6754 150.082 44.8427 150.242 45.0556V44.4929H151.382V44.4853ZM149.831 47.6715C150.059 47.4586 150.166 47.1544 150.166 46.7438C150.166 46.3408 150.051 46.0366 149.831 45.8161C149.603 45.6032 149.337 45.4891 149.025 45.4891C148.698 45.4891 148.417 45.6032 148.196 45.8389C147.968 46.067 147.861 46.3712 147.861 46.7438C147.861 47.1164 147.976 47.413 148.196 47.6411C148.424 47.8692 148.698 47.9833 149.025 47.9833C149.337 47.9833 149.603 47.8768 149.831 47.6715ZM156.317 44.8808C156.622 45.2153 156.774 45.6488 156.774 46.1963V48.9946H155.549V46.356C155.549 46.0974 155.473 45.8845 155.314 45.7248C155.162 45.5651 154.956 45.4815 154.705 45.4815C154.454 45.4815 154.249 45.5651 154.089 45.7248C153.93 45.8845 153.846 46.0974 153.846 46.356V48.9946H152.622V44.4777H153.755V44.8884C153.914 44.7287 154.105 44.607 154.333 44.5157C154.561 44.4245 154.812 44.3789 155.078 44.3789C155.595 44.3789 156.013 44.5462 156.317 44.8808ZM162.492 42.9797V49.0023H161.359V48.4471C161.207 48.6601 161.002 48.8274 160.751 48.9414C160.5 49.0555 160.218 49.1163 159.907 49.1163C159.488 49.1163 159.108 49.0175 158.781 48.8121C158.447 48.6068 158.188 48.3255 157.998 47.9681C157.808 47.6107 157.717 47.2077 157.717 46.759C157.717 46.3103 157.808 45.9073 157.998 45.5423C158.188 45.1849 158.447 44.9036 158.781 44.6983C159.116 44.4929 159.488 44.3941 159.907 44.3941C160.477 44.3941 160.926 44.5766 161.253 44.934V42.9873H162.492V42.9797ZM160.941 47.6715C161.169 47.4586 161.275 47.1544 161.275 46.7438C161.275 46.3408 161.161 46.0366 160.941 45.8161C160.713 45.6032 160.446 45.4891 160.142 45.4891C159.815 45.4891 159.534 45.6032 159.313 45.8313C159.085 46.0594 158.979 46.356 158.979 46.7286C158.979 47.1088 159.093 47.4054 159.313 47.6335C159.534 47.8616 159.815 47.9757 160.15 47.9757C160.446 47.9833 160.713 47.8768 160.941 47.6715Z" fill="white"/>
</svg>
