<svg width="200" height="80" fill="none" xmlns="http://www.w3.org/2000/svg"><path d="M71.789 57.789c-4.73 4.73-11.019 7.33-17.703 7.33-6.684 0-12.972-2.608-17.702-7.33a25.414 25.414 0 0 1-3.278-4.03c.107.106.206.213.312.32a19.673 19.673 0 0 0 14 5.801c2.273 0 4.486-.38 6.562-1.11a19.88 19.88 0 0 0 6.714 1.163 19.73 19.73 0 0 0 14.32-6.106 25.336 25.336 0 0 1-3.225 3.962Zm5.962-25.915c-2.464-3.194-6.335-5.262-10.669-5.262-1.528 0-3.05.266-4.479.768a17.34 17.34 0 0 0-1.186-1.293 19.768 19.768 0 0 0-6.243-4.228c1.78-.54 3.635-.814 5.52-.814a18.9 18.9 0 0 1 13.46 5.574 19.022 19.022 0 0 1 3.255 4.342c.121.297.235.601.342.913ZM61.409 54.078c.418-.418.814-.852 1.187-1.293 1.414.502 2.927.768 4.478.768 4.342 0 8.205-2.06 10.67-5.262-.107.305-.221.609-.335.913a19.245 19.245 0 0 1-3.255 4.342 18.913 18.913 0 0 1-13.46 5.574c-1.9 0-3.756-.282-5.52-.814a19.736 19.736 0 0 0 6.235-4.228Zm17.46-17.566a6.747 6.747 0 0 0-5.719-3.178c-2.722 0-5.064 1.62-6.137 3.939a19.562 19.562 0 0 0-3.87-9.217 12.742 12.742 0 0 1 3.939-.623c5.072 0 9.46 3.003 11.475 7.323.121.578.228 1.163.311 1.756ZM67.21 40.08a5.939 5.939 0 0 1 5.931-5.932 5.939 5.939 0 0 1 5.932 5.932 5.939 5.939 0 0 1-5.931 5.931c-3.27.008-5.932-2.661-5.932-5.931Zm-.198 2.813a6.758 6.758 0 0 0 6.137 3.94c2.41 0 4.525-1.27 5.718-3.18-.083.594-.19 1.18-.311 1.757-2.015 4.32-6.403 7.323-11.475 7.323a12.64 12.64 0 0 1-3.939-.631 19.611 19.611 0 0 0 3.87-9.209Zm-20.812 9.536c1.528-.646 3.513-1.916 4.768-3.353-.662.402-1.354.54-1.886.646a12.462 12.462 0 0 1-3.422 2.045c-.51-.661-.981-1.353-1.407-2.083-.471-.046-1.072-.236-1.072-.236.494.92 1.057 1.795 1.673 2.616-1.232.395-2.525.6-3.848.6-5.042 0-9.399-2.98-11.399-7.276-.16-.753-.289-1.521-.38-2.29a6.739 6.739 0 0 0 5.9 3.483c.868 0 1.72-.16 2.518-.486 0 0-.821-.335-1.186-.48a5.582 5.582 0 0 1-1.331.153 5.939 5.939 0 0 1-5.931-5.932 5.9 5.9 0 0 1 1.695-4.151 5.858 5.858 0 0 1 3.08-1.666c.251-.418 1.004-.928 1.004-.928a6.715 6.715 0 0 0-4.67 2.023 6.564 6.564 0 0 0-.995 1.3c.076-.54.175-1.072.289-1.604a12.584 12.584 0 0 1 8.075-6.844l-.213-.783a13.328 13.328 0 0 0-7.056 4.753c.106-.305.213-.609.327-.905a19.14 19.14 0 0 1 3.262-4.358 18.86 18.86 0 0 1 13.421-5.558c1.848 0 3.65.266 5.369.768a19.565 19.565 0 0 0-3.011 1.635s.578.152.905.387a18.796 18.796 0 0 1 3.307-1.627 18.891 18.891 0 0 1 7.818 5.43c-.48.205-.943.433-1.392.692-1.962 1.125-3.528 2.562-4.707 4.494 0 0 .243.6.22 1.178.807-1.764 3.057-3.908 4.898-4.965a12.823 12.823 0 0 1 1.528-.738 18.831 18.831 0 0 1 4.06 11.734c0 4.311-1.429 8.402-4.06 11.733-2.677-1.08-4.905-3.011-6.684-6.342-.068.563-.517.874-.517.874 1.475 2.723 3.9 4.958 6.654 6.13a18.893 18.893 0 0 1-7.817 5.43 19.29 19.29 0 0 1-7.787-5.499Zm-15.802-4.182a13.37 13.37 0 0 0 10.608 5.224 13.29 13.29 0 0 0 4.388-.738 19.862 19.862 0 0 0 7.391 5.559 19.17 19.17 0 0 1-5.369.768A18.86 18.86 0 0 1 33.996 53.5a18.975 18.975 0 0 1-3.262-4.357 18.132 18.132 0 0 1-.335-.897Zm5.977-25.87c4.73-4.73 11.019-7.33 17.703-7.33 6.691 0 12.973 2.608 17.702 7.33a25.251 25.251 0 0 1 3.232 3.954c-.091-.099-.19-.197-.281-.289a19.73 19.73 0 0 0-14.038-5.817 19.9 19.9 0 0 0-6.722 1.163 19.788 19.788 0 0 0-6.562-1.11 19.697 19.697 0 0 0-14 5.795c-.106.106-.205.213-.311.32a26.004 26.004 0 0 1 3.277-4.016Zm36.85-1.445C68.116 15.821 61.31 13 54.08 13c-7.232 0-14.03 2.814-19.148 7.931C29.814 26.05 27 32.847 27 40.08c0 7.231 2.814 14.03 7.931 19.147 5.118 5.118 11.916 7.931 19.148 7.931 7.231 0 14.03-2.813 19.147-7.93 5.118-5.118 7.931-11.917 7.931-19.148 0-7.232-2.813-14.03-7.93-19.148Zm-27.383 4.304.783.403a.21.21 0 0 0 .153.008c.281-.114.714-.175.882-.008.099.1.175.297.099.532-.008.023 0 .046.022.061l.335.168c.046-.054.137-.145.228-.244.517-.57 1.087-1.178 1.43-1.43-.168-.098-.48-.174-.624-.068l-.053.038-.053-.038a.559.559 0 0 0-.312-.083c-.167 0-.312.045-.365.098.13.137.243.305.205.457-.03.099-.121.167-.266.197-.038.008-.06.008-.084.008-.06 0-.106-.015-.136-.053-.046-.053-.046-.122-.039-.183.008-.09.008-.152-.06-.213-.069-.06-.152-.022-.244.023a.43.43 0 0 1-.19.061c-.06 0-.144-.03-.19-.152a.288.288 0 0 1 .023-.25c.084-.123.258-.176.395-.176.061 0 .122.008.168.03a.371.371 0 0 0 .015-.113c-.008-.107-.046-.244-.137-.297l-.06-.038.022-.069c.023-.076.046-.35-.046-.479a.152.152 0 0 0-.129-.06c-.068 0-.198.03-.418.175l-.061.045-.053-.053c.007.008-.015 0-.053 0a.451.451 0 0 0-.411.281c.16.084.312.251.312.419 0 .06-.03.205-.251.258-.244.06-.297-.106-.327-.205-.023-.076-.038-.13-.092-.16-.053-.03-.076-.023-.129.023a.259.259 0 0 1-.16.068c-.09 0-.167-.076-.212-.129-.107-.13-.084-.236-.054-.289.061-.122.221-.167.335-.167.046 0 .084.007.122.015.023-.038.038-.114.023-.19-.016-.084-.061-.22-.267-.274l-.076-.023.008-.121c.015-.183.038-.472-.327-.601-.008.41-.16.973-.304 1.475-.1.35-.213.783-.19.897l.813.426Zm-2.448 4.593c.912 0 1.627-1.072 2.707-.258l.015-.16c-.502-.548-1.194-.692-1.886-.388-.669.297-1.209.015-1.209-.494 0-.205.122-.48.418-.6-.623-.054-1.201.364-1.201.858.008.601.471 1.042 1.156 1.042Zm-1.012-3.178.73-.266.677-.039s.168-.334.175-.365l-.068-.213s.038-.144.121-.273h-.905l-.745-.266-.13.243c.07.06.176.198.176.449a.604.604 0 0 1-.175.456c.038.076.144.274.144.274Zm6.441-.411c2.578-.06 4.935-.107 4.981-.107.084-.007.555-.197.768-.311-.22-.114-.662-.312-.768-.312-.076 0-2 0-4.281-.008-.236.244-.495.517-.7.738Zm-10.547.22.145-.037v-.867l-.145-.038a.41.41 0 0 0-.525.395v.152a.407.407 0 0 0 .525.395Zm3.665 1.156-.09-.19V26.33a.5.5 0 0 0 .182-.388.477.477 0 0 0-.183-.387V24.46l.091-.19v-.077h-.692v.076l.092.19v2.966l-.092.19v.076h.692v-.076Zm-2.836 3.377a.534.534 0 0 0 .243.494c.206.137.631.388.86.54l1.307-1.415c-.136-.121-.319-.365-.364-.547h-2.008c0 .296-.015.67-.038.928Zm11.596-1.833c0 1.14.723 1.741 1.582 2.335.114-.1.274-.221.449-.335-.867-.586-1.498-1.065-1.498-2 0-1.71 1.444-1.848 1.893-1.848.92 0 1.856.57 1.856 1.848 0 .882-.692 1.437-1.179 1.749-.487.312-1.065.646-1.437 1.042h-.008a1.041 1.041 0 0 0-.258-.03c-1.255-.092-1.567.973-1.065 1.33.008.426.297.768.532.76.114.107.244.213.403.312.137-.015.35-.091.35-.091-.091-.297-.51-1.034.22-1.825.38-.41 1.096-.836 1.788-1.308.79-.54 1.186-1.186 1.186-1.931 0-1.635-1.232-2.38-2.38-2.38-1.133-.008-2.434.615-2.434 2.372Zm-10.235-2.35h.48v-1.673l-.48-.144v1.817Zm-1.673 0h.48v-1.673l-.48-.144v1.817Zm.829 0h.48v-1.673l-.48-.144v1.817Zm-.274 1.757c-.022.342-.06.722-.076 1.11h1.673a41.155 41.155 0 0 1-.281-1.391l.205-1.126-1.825-.023.243.898c.054.175.077.357.061.532Zm2.457 2.32-1.172 1.322c.73.48 1.407.974 1.612 1.103a4.239 4.239 0 0 0 1.088-1.057c-.183-.183-.434-.487-.548-.768-.334-.198-.63-.396-.98-.6ZM39.92 41.69c-.084.091-.153.167-.183.274a.843.843 0 0 0-.608.775c.965-.22 1.445-.213 2.304-.091.045.068.045.137.045.137s-.897.007-1.437.25a.624.624 0 0 0-.022.29c-.213.334-.175.661.068.965.905-1.36 2.905-1.406 2.418.122.471.091.783-.327.981-.79.198-.465-.076-1.18.829-1.316.365-.053.715-.13 1.178-.274-.015-.16-.182-.517-.319-.677.259 0 .624.304.745.51.114-.053.259-.122.373-.183-.046-.16-.365-.555-.532-.707.273.03.745.32.905.51.106-.061.205-.13.304-.198-.046-.16-.312-.517-.525-.677.228 0 .707.25.867.41.106-.09.205-.182.297-.288-.396-1.042.28-1.582 1.444-2.114.061-.03.312-.137.533-.244-.092-.388-.198-1.27-.153-1.71a8.922 8.922 0 0 0-2-.29c-.737.297-2.22 1.37-2.653 2 .943.654.456 3.536-2.251 3.171-.692-.09-.966-.737-1.377-.988a.85.85 0 0 0-.304.129.84.84 0 0 0-1.003.297c.798.144 1.27.547 1.581.95-.007.03-.023.084-.023.084s-.996-.327-1.482-.327Zm12.592-3.308a2.503 2.503 0 0 1-.106-.38c-.16-.053-.57-.114-.715-.13.046-.182.449-.25.67-.266-.008-.144-.008-.281-.008-.425a5.483 5.483 0 0 0-.632-.13c.046-.19.441-.236.662-.25.015-.145.046-.274.076-.38.068.007.137.007.213.007.304 0 .57-.008.882-.13.897-.357 1.513-1.17 1.513-2.114 0-.973-.661-1.764-1.292-2.296l-.434.327c.6.479 1.156 1.11 1.156 1.931 0 .654-.449 1.255-1.14 1.529a1.698 1.698 0 0 1-1.757-.274 601.343 601.343 0 0 1-3.612-3.43c-1.202.997-2.715 1.21-4.274.442-.996 1.384-2.867 2.129-3.84 2.182-1.087.06-1.954-.487-2.259-1.422a.95.95 0 0 0-.334.053.848.848 0 0 0-1.057.038c.662.236 1.065.791 1.323 1.308-.015.03-.023.053-.045.076a3.658 3.658 0 0 0-1.354-.677.745.745 0 0 0-.243.213.847.847 0 0 0-.799.609 3.419 3.419 0 0 1 2.274.471.204.204 0 0 1 .007.114c-.243-.038-.783-.015-1.262.137a.859.859 0 0 0-.038.32.864.864 0 0 0-.137 1.117c.814-1.292 2.6-1.24 2.41-.342-.083.206-.265.35-.509.449.441.32 1.308-.076 1.863-.989.419-.684 2.137-.927 2.707-.114.175-.023.343-.076.495-.137-.046-.175-.304-.593-.517-.775.395.038.768.334.935.547.13-.06.213-.114.327-.205-.046-.175-.274-.494-.441-.677.228.008.631.228.776.373.075-.084.228-.236.288-.32 1.65 1.514 3.818.936 5.62 1.597-.198 1.148.099 3.164 1.034 3.977 1.643-.821 2.73 1.05 2.335 2.548-.145.532-.776.707-1.757.38-.13.091-.205.258-.22.44a.845.845 0 0 0-.404.921c.472-.388 1.088-.517 1.742-.441v.091s-1.065.236-1.354.654c0 .084.038.198.107.304a.853.853 0 0 0 .388.95c.099-1.178 1.117-1.421 1.117-1.421s.03.046.061.076c-.25.175-.471.593-.479.95.046.046.114.084.19.13.015.372.282.73.692.806-.327-.92.023-1.529.282-1.772.266-.25.593-.35.844-.068.16.205.16.471.083.752.403-.205.586-.714.419-1.041-.373-.715-.472-1.498-.426-2.206a2.203 2.203 0 0 0-.548-.099c.076-.151.41-.25.578-.266.023-.152.053-.35.084-.494-.13-.084-.434-.19-.631-.228.114-.167.524-.152.73-.137.053-.167.106-.342.167-.479-.076-.099-.342-.25-.525-.304.152-.13.517-.107.715-.046.069-.106.13-.198.19-.25-.502-.563-2.083-1.506-2.806-1.704Zm-7.642-12.16c.03-.068.106-.106.175-.083l.578.22c.038.016.06.054.06.092l-.007.122-.494.174a.168.168 0 0 1-.19-.121l-.023-.114a.366.366 0 0 0-.107-.19l-.022-.023.03-.076Zm-.51-.083c-.083.16-.395.7-.532.966a.15.15 0 0 0 .03.175l.198.182c.03.03.069.038.107.015.114-.053.35-.152.403-.174a.54.54 0 0 1 .099.22c-.092.046-.38.19-.464.266-.038.175-.023.274.06.41.312 0 .411.13.411.427h.236c.084-.41.25-.715.692-.715.41 0 .844.426.844 1.24 0 .927-.25 1.368-.852 1.368-.463 0-.63-.38-.7-.836-.052 0-.159-.008-.174-.008-.639.342-1.004 1.544-1.521 1.68.046.084.099.16.16.229.06.076.16.106.25.068.221-.083.495-.243.655-.403-.016.29-.175.532-.388.783.099.061.197.114.304.16a.231.231 0 0 0 .259-.053 3.4 3.4 0 0 0 .44-.624c.039.305.008.586-.114.875.092.023.183.038.274.053a.352.352 0 0 0 .373-.183c.106-.205.16-.463.205-.669.107.282.183.54.19.86a3.51 3.51 0 0 0 .297-.038.347.347 0 0 0 .281-.305c.015-.243.023-.54 0-.745.198.304.35.685.426.852.114-.046.243-.114.357-.183a.318.318 0 0 0 .13-.395 5.188 5.188 0 0 1-.236-.662c.16.198.38.358.585.472.107.06.244.03.327-.069.076-.083.137-.174.206-.266-.213-.197-.54-.585-.624-.859.13.13.41.304.647.403a.221.221 0 0 0 .289-.122c.045-.114.083-.22.114-.334-.22-.145-.64-.418-.76-.654.113.076.349.16.562.213a.23.23 0 0 0 .289-.22c0-.084 0-.176-.008-.26-.296-.053-.63-.243-.783-.456.167.084.57.114.722.054a2.222 2.222 0 0 0-.09-.297c-.267-.06-.457-.236-.586-.456.205.076.372.084.44.053l-.182-.418c-.266-.213-.433-.7-.273-1.027 0 0-.297-.152-.48-.25-.076-.046-.106-.138-.076-.214.122-.281.168-.577-.524-.281a.438.438 0 0 1-.365-.008c-.768-.395-1.567-.798-1.673-.859a1.52 1.52 0 0 0-.517.654c.038.13.129.228.06.365Zm-4.068 21.231.358-.631.022-.038.092-.16.562-.98.609-1.065a.394.394 0 0 0 .015-.373.46.46 0 0 0-.304-.266.444.444 0 0 0-.525.357.427.427 0 0 0 .297.487l-.365.639a.197.197 0 0 1-.259.076c-.388-.205-1.832-.89-2.623-1.126-.107.1-.213.411-.213.57.95.411 2.007 1.058 2.403 1.377a.177.177 0 0 1 .045.228l-.63 1.11a.407.407 0 0 0-.054.274c.038.236.236.41.487.38a.426.426 0 0 0 .35-.266.447.447 0 0 0-.267-.593Zm10.563-1.414c-1.012.73-2.738 1.232-3.924 1.232-2.434 0-4.502-.92-5.293-1.331 0 0-.084.32.13.662-.396-.016-.662.273-.662.273 1.665 1.148 3.627 1.916 5.962 1.916 2.342 0 4.068-.722 5.315-1.733-.79-.13-1.278-.502-1.529-1.02ZM95.871 32.6v6.023H94.64V34.85l-1.467 2.555h-.86l-1.467-2.555v3.772h-1.232V32.6h1.24l1.885 3.3 1.886-3.3h1.247Zm1.377.677a.725.725 0 0 1-.236-.54c0-.22.076-.403.236-.548a.793.793 0 0 1 .562-.22c.22 0 .403.076.555.22a.723.723 0 0 1 .229.548.718.718 0 0 1-.228.54.775.775 0 0 1-.556.22.806.806 0 0 1-.562-.22Zm-.054.828h1.232v4.518h-1.232v-4.517Zm6.16.396c.304.335.456.768.456 1.316v2.806h-1.224v-2.64c0-.258-.076-.47-.236-.63a.806.806 0 0 0-.608-.244.835.835 0 0 0-.616.244.86.86 0 0 0-.244.63v2.64h-1.231v-4.517h1.133v.41c.159-.16.349-.281.578-.372.228-.092.479-.137.745-.137.532 0 .943.16 1.247.494Zm1.711-1.224a.726.726 0 0 1-.236-.54c0-.22.076-.403.236-.548a.793.793 0 0 1 .563-.22c.22 0 .403.076.555.22a.723.723 0 0 1 .228.548.718.718 0 0 1-.228.54.776.776 0 0 1-.555.22.805.805 0 0 1-.563-.22Zm-.061.828h1.232v4.518h-1.232v-4.517Zm2.867 4.388a2.114 2.114 0 0 1-.791-.646l.623-.745c.396.41.822.608 1.27.608.168 0 .305-.03.411-.099a.315.315 0 0 0 .167-.281c0-.1-.038-.175-.106-.22a2.026 2.026 0 0 0-.358-.19l-.486-.199c-.411-.167-.723-.357-.928-.562-.205-.206-.304-.48-.304-.814 0-.426.152-.76.464-.996.304-.243.707-.357 1.201-.357.677 0 1.217.228 1.628.684l-.624.76c-.304-.289-.639-.426-1.011-.426a.674.674 0 0 0-.358.084.272.272 0 0 0-.129.236c0 .084.038.16.106.213.069.06.19.121.373.19l.433.182c.441.175.761.365.966.57.205.206.304.472.304.807 0 .448-.167.806-.494 1.057-.335.258-.753.38-1.262.38-.411 0-.776-.076-1.095-.236Zm6.752-.874v1.004a3.351 3.351 0 0 1-.851.106c-.571 0-1.019-.145-1.331-.426-.319-.281-.472-.707-.472-1.27v-1.886h-.714v-1.041h.714v-1.05h1.232v1.05h1.278v1.041h-1.278v1.78c0 .258.069.433.198.54.137.106.35.16.639.16l.585-.008Zm3.734-3.514v1.088h-.327c-.373 0-.669.099-.882.297-.221.197-.327.494-.327.882v2.25h-1.232v-4.517h1.133v.54c.152-.19.335-.334.548-.44.213-.107.441-.153.692-.153.144 0 .281.016.395.053Zm5.072 0-1.247 4.457c-.167.593-.403 1.026-.7 1.285-.296.258-.699.395-1.201.395-.289 0-.616-.038-.996-.106v-1.027c.327.023.54.038.631.038.319 0 .547-.038.699-.121a.643.643 0 0 0 .32-.404h-.647l-1.345-4.517h1.247l1.019 3.514.988-3.514h1.232Zm4.996-.402c-.068.076-.099.205-.099.402h.996v1.042h-.996v3.476h-1.232v-3.476h-.638v-1.041h.638v-.1c0-.486.137-.859.403-1.117.274-.259.654-.396 1.156-.396.327 0 .616.03.859.092v1.011h-.73c-.167 0-.289.03-.357.107Zm2.517 4.706a2.341 2.341 0 0 1-.874-.851 2.328 2.328 0 0 1-.32-1.202c0-.44.107-.836.327-1.194a2.41 2.41 0 0 1 .875-.851 2.452 2.452 0 0 1 1.216-.312c.434 0 .844.106 1.209.312.373.205.67.486.882.852.221.357.327.76.327 1.193 0 .441-.106.837-.327 1.202-.22.365-.517.646-.882.852a2.48 2.48 0 0 1-1.224.311c-.449 0-.844-.106-1.209-.311Zm2.061-1.17a1.22 1.22 0 0 0 .334-.875c0-.35-.114-.646-.334-.882a1.105 1.105 0 0 0-.837-.358c-.342 0-.623.115-.836.35-.221.236-.327.533-.327.89s.106.654.327.882c.22.228.502.342.836.342.335 0 .616-.114.837-.35Zm5.33-3.133v1.087h-.327c-.372 0-.669.099-.882.297-.22.197-.327.494-.327.882v2.25h-1.232v-4.517h1.133v.54c.153-.19.335-.334.548-.44.213-.107.441-.153.692-.153.144 0 .281.016.395.053Zm3.399-1.506h3.955v1.11h-2.723v1.506h2.236v1.11h-2.236v2.297h-1.232V32.6Zm5.552 5.81a2.352 2.352 0 0 1-.875-.852 2.328 2.328 0 0 1-.319-1.202c0-.44.106-.836.327-1.194.213-.357.509-.638.874-.851a2.456 2.456 0 0 1 1.217-.312c.441 0 .844.106 1.209.312.373.205.669.486.882.852.221.357.327.76.327 1.193 0 .441-.106.837-.327 1.202a2.372 2.372 0 0 1-.882.852 2.485 2.485 0 0 1-1.224.311c-.441 0-.844-.106-1.209-.311Zm2.06-1.171c.221-.229.335-.525.335-.875s-.114-.646-.335-.882a1.102 1.102 0 0 0-.836-.358c-.342 0-.624.115-.837.35-.22.236-.327.533-.327.89s.107.654.327.882c.221.228.502.342.837.342.334 0 .616-.114.836-.35Zm5.331-3.133v1.087h-.327c-.373 0-.669.099-.882.297-.221.197-.327.494-.327.882v2.25h-1.232v-4.517h1.133v.54a1.62 1.62 0 0 1 .547-.44c.213-.107.442-.153.692-.153.145 0 .282.016.396.053Zm4.905 2.669h-3.164c.076.289.221.51.441.661.221.152.495.236.829.236.441 0 .867-.152 1.255-.456l.509.836c-.532.449-1.14.677-1.802.677-.471 0-.89-.106-1.27-.312a2.308 2.308 0 0 1-1.201-2.053c0-.441.106-.836.312-1.201.205-.358.494-.647.851-.852a2.4 2.4 0 0 1 1.202-.312c.41 0 .783.091 1.102.281a2 2 0 0 1 .753.76c.183.32.266.678.266 1.066 0 .212-.03.44-.083.669Zm-2.776-1.529a1.221 1.221 0 0 0-.395.662h2.053c-.008-.282-.107-.502-.289-.662a.995.995 0 0 0-.685-.243.985.985 0 0 0-.684.243Zm3.893-1.97a.725.725 0 0 1-.235-.54c0-.22.076-.402.235-.547a.796.796 0 0 1 .563-.22c.221 0 .403.076.555.22a.723.723 0 0 1 .228.548.718.718 0 0 1-.228.54.774.774 0 0 1-.555.22.796.796 0 0 1-.563-.22Zm-.06.83h1.231v4.517h-1.231v-4.517Zm6.98 0v4.015c0 .737-.213 1.292-.638 1.68-.426.38-.989.578-1.696.578a3.22 3.22 0 0 1-2.213-.836l.646-.86c.251.19.487.335.715.434.228.099.479.152.753.152.365 0 .654-.091.874-.266.221-.183.327-.449.327-.799v-.243a1.641 1.641 0 0 1-.6.403 2.148 2.148 0 0 1-.784.137c-.41 0-.783-.091-1.11-.282a2.024 2.024 0 0 1-.768-.79 2.452 2.452 0 0 1-.281-1.172c0-.44.091-.836.281-1.17.19-.335.449-.601.776-.784a2.24 2.24 0 0 1 1.102-.281c.32 0 .609.06.86.175.251.114.456.281.616.494v-.563h1.14v-.023Zm-1.551 3.018c.228-.213.335-.517.335-.905 0-.387-.114-.684-.335-.874a1.167 1.167 0 0 0-.806-.289c-.335 0-.616.107-.837.312-.22.213-.334.494-.334.86 0 .364.114.66.334.881.221.22.502.335.829.335.32 0 .586-.107.814-.32Zm6.479-2.623c.304.335.456.768.456 1.316v2.806h-1.217v-2.64c0-.258-.076-.47-.235-.63a.808.808 0 0 0-.609-.244.837.837 0 0 0-.616.244.862.862 0 0 0-.243.63v2.64h-1.232v-4.517h1.133v.41c.16-.16.35-.281.578-.372.228-.092.479-.137.745-.137.525 0 .936.16 1.24.494Zm-79.51 13.437h-2.198l-.236 1.057h-1.285l1.468-6.023h2.32l1.46 6.023h-1.286l-.243-1.057Zm-.228-1.012-.639-2.836h-.456l-.647 2.836h1.742Zm4.212-2.844c-.068.076-.098.206-.098.403h.996v1.042h-.996v3.475h-1.232v-3.475h-.639v-1.042h.639v-.099c0-.486.137-.859.403-1.117.273-.259.654-.396 1.156-.396.327 0 .616.03.859.092v1.01h-.73c-.175 0-.29.031-.358.107Zm3.339 0c-.069.076-.099.206-.099.403h.996v1.042h-.996v3.475h-1.232v-3.475h-.639v-1.042h.639v-.099c0-.486.137-.859.403-1.117.274-.259.654-.396 1.156-.396.327 0 .616.03.859.092v1.01h-.73c-.175 0-.289.031-.357.107Zm6.106.403v4.517h-1.148v-.532c-.16.205-.358.365-.609.471a2.062 2.062 0 0 1-.828.168 2.08 2.08 0 0 1-1.126-.305 2.153 2.153 0 0 1-.783-.843 2.534 2.534 0 0 1-.281-1.21c0-.448.091-.851.281-1.216.19-.358.449-.639.783-.844a2.1 2.1 0 0 1 1.126-.305c.311 0 .593.061.836.175.251.114.456.282.608.495v-.563h1.141v-.008Zm-1.551 3.187c.228-.213.334-.518.334-.928 0-.403-.114-.707-.334-.928a1.142 1.142 0 0 0-.799-.327c-.327 0-.608.114-.829.35-.228.228-.334.532-.334.905 0 .372.114.669.334.897.229.228.502.342.829.342.312 0 .578-.106.799-.311Zm2.859-4.015a.726.726 0 0 1-.236-.54c0-.221.076-.403.236-.548a.793.793 0 0 1 .563-.22c.22 0 .403.076.555.22a.723.723 0 0 1 .228.548.718.718 0 0 1-.228.54.776.776 0 0 1-.555.22.842.842 0 0 1-.563-.22Zm-.053.828h1.232v4.517h-1.232v-4.517Zm5.239 0v1.088h-.327c-.373 0-.669.099-.882.296-.221.198-.327.495-.327.882v2.251h-1.232v-4.517h1.133v.54c.152-.19.335-.334.548-.44.213-.107.441-.153.692-.153.152 0 .281.015.395.053Zm1.179 4.388a2.114 2.114 0 0 1-.791-.646l.623-.746c.396.411.814.609 1.27.609.168 0 .297-.03.411-.1a.315.315 0 0 0 .167-.28c0-.1-.038-.175-.106-.221a2.02 2.02 0 0 0-.358-.19l-.486-.198c-.411-.167-.723-.357-.928-.563-.205-.205-.304-.479-.304-.813 0-.426.152-.76.464-.996.304-.244.707-.358 1.201-.358.677 0 1.217.228 1.62.685l-.624.76c-.304-.289-.639-.426-1.011-.426a.674.674 0 0 0-.358.084.272.272 0 0 0-.022.449c.068.06.19.121.365.19l.441.182c.433.175.76.365.958.57.205.206.304.472.304.806 0 .45-.167.807-.494 1.057-.335.259-.753.38-1.263.38-.403 0-.76-.075-1.079-.235Zm7.254-.084a2.349 2.349 0 0 1-.874-.851 2.328 2.328 0 0 1-.32-1.202c0-.44.107-.836.327-1.194.213-.357.51-.638.875-.851a2.453 2.453 0 0 1 1.216-.312c.441 0 .844.106 1.217.312.373.205.662.486.882.851.221.358.327.76.327 1.194 0 .434-.106.837-.327 1.202-.22.365-.517.646-.882.851a2.54 2.54 0 0 1-2.441 0Zm2.061-1.17a1.22 1.22 0 0 0 .334-.875c0-.35-.114-.647-.334-.882a1.105 1.105 0 0 0-.837-.358c-.342 0-.623.114-.836.35-.221.236-.327.532-.327.89 0 .357.106.654.327.882.22.228.494.342.836.342.335 0 .616-.114.837-.35Zm4.061-3.537c-.069.076-.099.206-.099.403h.996v1.042h-.996v3.475h-1.232v-3.475h-.639v-1.042h.639v-.099c0-.486.137-.859.403-1.117.266-.259.654-.396 1.156-.396.327 0 .616.03.859.092v1.01h-.73c-.167 0-.289.031-.357.107Zm4.212-1.102h3.962v1.11h-2.73v1.506h2.236v1.11h-2.236v2.289h-1.232V42.98Zm4.875.677a.722.722 0 0 1-.236-.54c0-.221.076-.403.236-.548a.792.792 0 0 1 .562-.22c.221 0 .403.076.555.22a.724.724 0 0 1 .229.548.72.72 0 0 1-.229.54.774.774 0 0 1-.555.22.84.84 0 0 1-.562-.22Zm-.054.828h1.232v4.517h-1.232v-4.517Zm6.16.396c.304.334.456.768.456 1.315v2.799h-1.224v-2.639c0-.259-.076-.471-.236-.631a.806.806 0 0 0-.608-.244.835.835 0 0 0-.616.244.86.86 0 0 0-.244.631v2.639h-1.231v-4.517h1.133v.41c.159-.16.349-.281.577-.372.229-.091.48-.137.746-.137.532 0 .943.167 1.247.502Zm1.673-1.901h1.232v6.022h-1.232V42.98Zm7.003 1.505v4.517h-1.148v-.532c-.16.205-.357.365-.608.471a2.07 2.07 0 0 1-.829.168c-.418 0-.799-.1-1.126-.305a2.153 2.153 0 0 1-.783-.843 2.534 2.534 0 0 1-.281-1.21c0-.448.091-.851.281-1.216.19-.358.449-.639.783-.844a2.103 2.103 0 0 1 1.126-.305c.312 0 .593.061.836.175.251.114.449.282.609.495v-.563h1.14v-.008Zm-1.551 3.187c.228-.213.335-.518.335-.928 0-.403-.115-.707-.335-.928a1.145 1.145 0 0 0-.806-.327c-.327 0-.608.114-.829.35-.228.228-.335.532-.335.905 0 .372.115.669.335.897.228.228.502.342.829.342.312 0 .578-.106.806-.311Zm6.486-2.791c.305.334.457.768.457 1.315v2.799h-1.225v-2.639c0-.259-.076-.471-.235-.631a.808.808 0 0 0-.609-.244.837.837 0 0 0-.616.244.862.862 0 0 0-.243.631v2.639h-1.224v-4.517h1.133v.41c.159-.16.35-.281.578-.372.228-.091.479-.137.745-.137.517 0 .935.167 1.239.502Zm6.175-1.901v6.022h-1.133v-.555c-.152.213-.357.38-.608.494a2.02 2.02 0 0 1-.844.175 2.08 2.08 0 0 1-1.126-.304 2.153 2.153 0 0 1-.783-.844 2.533 2.533 0 0 1-.281-1.209c0-.449.091-.852.281-1.217.19-.357.449-.638.783-.844a2.1 2.1 0 0 1 1.126-.304c.57 0 1.019.183 1.346.54v-1.947h1.239v-.007Zm-1.551 4.692c.228-.213.334-.518.334-.928 0-.403-.114-.707-.334-.928a1.142 1.142 0 0 0-.799-.327c-.327 0-.608.114-.829.342-.228.228-.334.525-.334.898 0 .38.114.676.334.904.221.229.502.343.837.343.296.007.563-.1.791-.304Z" fill="#fff"/></svg>