<svg width="200" height="80" fill="none" xmlns="http://www.w3.org/2000/svg"><path d="M87.416 45.313v-26.96c-.8 0-1.58-.009-2.361.01-.095 0-.21.134-.267.229-.657 1.248-1.295 2.505-1.952 3.762-1.343 2.59-2.695 5.17-4.038 7.76-1 1.924-1.99 3.857-2.98 5.781-.181.352-.372.695-.581 1.086-.372-.696-.705-1.324-1.038-1.953-.933-1.8-1.857-3.6-2.79-5.399-.915-1.771-1.848-3.533-2.762-5.295-.99-1.914-1.971-3.828-2.971-5.742-.048-.095-.181-.219-.276-.229-.79-.019-1.59-.01-2.4-.01v26.96h2.457V23.582c.029-.01.057-.01.086-.02.057.087.114.172.161.268 1.315 2.561 2.629 5.123 3.952 7.685 1.515 2.942 3.038 5.875 4.562 8.808a.526.526 0 0 0 .371.238c.4.029.81 0 1.21.02.2.009.304-.068.38-.23.277-.552.572-1.094.848-1.637 1.143-2.238 2.286-4.476 3.438-6.704 1.257-2.448 2.523-4.885 3.78-7.323l.629-1.2c.029.01.067.019.095.028v21.817c.867-.019 1.657-.019 2.448-.019ZM110.776 39.135c-.162-.172-.247-.296-.095-.543.867-1.371 1.705-2.762 2.562-4.143.304-.495.6-.98.914-1.504-.591-.372-1.143-.715-1.686-1.076-.209-.143-.304-.115-.438.104-.676 1.124-1.371 2.238-2.066 3.362-.343.562-.686 1.114-1.057 1.705-1.876-2.048-3.714-4.048-5.562-6.066.124-.086.2-.143.277-.2 1.371-.924 2.676-1.934 3.59-3.343 1.142-1.762 1.361-3.647.495-5.561-.867-1.914-2.419-3-4.485-3.324-2.343-.362-4.333.324-5.828 2.181-1.257 1.552-1.534 3.333-.943 5.238.41 1.304 1.219 2.37 2.105 3.38.342.39.704.762 1.028 1.105-1 .695-2.01 1.323-2.943 2.047-1.361 1.048-2.447 2.324-2.818 4.066-.581 2.724.247 5 2.314 6.81 1.314 1.152 2.895 1.732 4.628 1.904 3.085.304 5.628-.686 7.57-3.124.305-.39.591-.79.905-1.21.762.81 1.495 1.6 2.228 2.382.743.79 1.486 1.58 2.238 2.39.619-.543 1.21-1.048 1.791-1.562-.029-.047-.039-.086-.058-.105a2110.65 2110.65 0 0 0-4.666-4.913ZM98.844 25.43c-.79-1.876.276-4.142 2.248-4.675 1.58-.429 3.342-.048 4.228 1.514.733 1.285.685 2.618-.01 3.904-.619 1.171-1.638 1.971-2.733 2.676-.248.162-.495.314-.8.505-.647-.753-1.323-1.467-1.914-2.238-.4-.514-.771-1.086-1.019-1.686Zm8.304 14.608c-.657.962-1.4 1.82-2.438 2.39-.809.448-1.676.648-2.6.667-2.18.048-4-.666-5.256-2.533-1.095-1.619-.943-3.914.314-5.4.981-1.152 2.228-1.933 3.514-2.675.086-.048.162-.096.248-.143.171-.105.295-.105.457.066 1.885 2.057 3.79 4.114 5.685 6.162.619.685.609.685.076 1.466ZM135.906 34.842c-.705-1.333-1.857-2.19-3.171-2.857-1.743-.886-3.647-1.352-5.504-1.905-1.324-.39-2.647-.761-3.847-1.457-1.343-.77-2.153-1.838-2.124-3.504.038-2.228 1.486-3.828 3.419-4.428a8.798 8.798 0 0 1 4.58-.2c1.857.41 3.333 1.371 4.314 3.038.257.438.457.904.686 1.371.352-.124.714-.248 1.066-.371.362-.134.724-.277 1.133-.429-.104-.267-.2-.505-.304-.743-1.095-2.714-3.152-4.304-5.933-5-2.143-.532-4.285-.475-6.399.21-1.038.334-1.991.829-2.819 1.543-1.314 1.143-2.038 2.6-2.181 4.333-.114 1.324.019 2.6.676 3.8.81 1.466 2.105 2.39 3.59 3 1.562.637 3.191 1.142 4.809 1.656 1.496.476 3.01.886 4.343 1.733.781.486 1.466 1.105 1.723 2.01.696 2.447-.38 5.228-3.209 6.18-1.342.457-2.723.6-4.114.486-1.885-.143-3.533-.848-4.923-2.153-.914-.866-1.609-1.885-2.181-3.028-.695.42-1.371.838-2.095 1.286.419.638.791 1.257 1.21 1.838.904 1.238 2 2.276 3.352 3.028 1.2.657 2.476 1.047 3.847 1.219 2.124.257 4.2.105 6.18-.752 2.343-1.02 3.905-2.733 4.438-5.267.343-1.6.209-3.17-.562-4.637ZM113.879 59.232c-.114-.096-.238-.172-.361-.257.123-.115.219-.19.314-.286.619-.6.524-1.667-.2-2.133-.648-.41-1.352-.438-2.048-.172-.771.296-1.104.953-.866 1.743.095.314.362.58.571.886 0 0-.047.057-.114.085-.943.581-.962 1.895-.029 2.514.743.496 1.953.477 2.657-.047a1.477 1.477 0 0 0 .076-2.333Zm-2.476-1.848c.115-.324.372-.428.667-.505.524-.133 1.114.039 1.314.382.172.304.229.618.029.942-.229.372-.591.476-.895.486-.915-.01-1.362-.59-1.115-1.305Zm2.181 3.362c-.209.514-.666.628-1.143.61-.847 0-1.285-.4-1.247-1.124.029-.543.467-.896 1.181-.934.933-.076 1.533.638 1.209 1.448ZM108.309 59.248c-.124-.086-.238-.171-.39-.276.104-.086.18-.143.266-.21.619-.523.619-1.618-.019-2.104-.705-.534-1.505-.572-2.285-.21-.277.134-.543.4-.686.676-.343.686-.162 1.2.543 1.848-.048.038-.076.086-.124.114-1.095.61-.886 2.095 0 2.58.705.391 1.438.4 2.2.125 1.095-.39 1.342-1.905.495-2.543Zm-2.447-1.971c.181-.362.79-.543 1.342-.4.591.143.886.657.695 1.171-.142.4-.533.629-1.057.629-.866 0-1.342-.686-.98-1.4Zm2.171 3.361c-.114.458-.553.715-1.21.715-.885 0-1.342-.505-1.19-1.305.076-.42.486-.695 1.114-.762.914-.086 1.505.533 1.286 1.352ZM81.178 59.392h2.495v-.724H81.16v-1.685h2.819v-.686h-3.552v5.59h3.685v-.667H81.17c.01-.628.01-1.219.01-1.828ZM88.52 58.915c-.447-.2-.951-.295-1.408-.476-.515-.2-.677-.79-.343-1.2.266-.323.638-.38 1.028-.362.61.029 1 .381 1.267.915.228-.086.419-.153.657-.239-.124-.218-.19-.409-.315-.561-.552-.705-1.285-.867-2.133-.743-.723.105-1.285.638-1.37 1.333-.096.743.228 1.257 1.009 1.543.485.18.99.333 1.476.505.657.228.866.818.419 1.295-.19.21-.515.342-.8.39-.838.133-1.438-.248-1.838-1.019-.21.124-.4.238-.581.343.552 1.495 2.6 1.714 3.619.866.6-.495.77-1.352.304-1.942-.247-.286-.628-.486-.99-.648ZM119.089 56.298c-.391-.067-.686-.057-.934.286a97.255 97.255 0 0 1-2.199 3.009c-.238.314-.238.619-.172.99h2.648v1.305h.666v-1.267c.219-.019.4-.047.572-.066v-.62c-.2-.018-.372-.028-.591-.037.01-1.22.01-2.4.01-3.6Zm-.705 3.59h-1.866c.618-.866 1.209-1.685 1.79-2.495.028.01.047.02.076.029v2.466ZM90.91 56.973h1.81v4.904h.742v-4.913h1.82v-.667H90.91v.676ZM101.605 56.277c-.067 0-.172.114-.191.18-.076.41-.009.467.4.486.086 0 .181.02.295.038v4.914h.715v-5.618a26.07 26.07 0 0 0-1.219 0ZM96.721 61.04c-.295 0-.428.151-.447.437-.01.286.18.495.438.495.238 0 .495-.247.466-.485-.028-.267-.161-.448-.457-.448Z" fill="#fff"/></svg>