<svg width="200" height="80" fill="none" xmlns="http://www.w3.org/2000/svg"><g clip-path="url(#a)"><path fill-rule="evenodd" clip-rule="evenodd" d="M142.297 25.11c.31.073.616.162.929.217 2.509.44 4.738 1.475 6.636 3.216.146.135.277.286.444.461-1.226 1.421-2.561 2.7-3.806 4.12-.097-.097-.172-.165-.24-.239-1.312-1.434-2.929-2.283-4.833-2.535-.664-.089-1.344-.081-2.004.097-.988.269-1.749.82-2.043 1.866-.277.986.087 1.98.9 2.595.737.557 1.569.917 2.427 1.225 1.538.554 3.093 1.06 4.608 1.67 1.544.623 2.986 1.44 4.118 2.73 1.042 1.187 1.716 2.538 1.937 4.13.317 2.27-.255 4.316-1.463 6.202-.74 1.157-1.766 2.008-2.951 2.654a11.173 11.173 0 0 1-4.775 1.373c-.76.043-1.524.104-2.284.08-2.195-.067-4.32-.494-6.306-1.482a12.013 12.013 0 0 1-3.855-3.034c-.033-.04-.053-.092-.093-.165l3.845-4.089c.165.18.31.334.45.493.832.953 1.807 1.706 2.953 2.226.785.355 1.599.56 2.454.672.83.109 1.631.032 2.426-.154.781-.184 1.462-.584 1.92-1.272.893-1.342.506-2.812-.72-3.692-.6-.43-1.289-.76-1.976-1.036-1.11-.449-2.254-.813-3.382-1.218-1.148-.413-2.276-.873-3.314-1.53-1.832-1.16-3.145-2.73-3.622-4.914-.431-1.97-.135-3.85.796-5.63 1.149-2.195 2.912-3.646 5.203-4.452a9.284 9.284 0 0 1 2.06-.489c.061-.007.118-.063.177-.097h3.384ZM85.796 46.06c.148.025.217.048.284.048 1.724-.008 3.447-.016 5.17-.026.014 0 .032-.018.044-.032.01-.013.014-.03.042-.096l-2.694-6.73h-.107l-2.74 6.835Zm3.66-20.95c.295.225.492.52.637.866.845 2.019 1.695 4.035 2.55 6.05.777 1.828 1.564 3.652 2.343 5.48.892 2.098 1.777 4.2 2.672 6.298.664 1.557 1.338 3.11 2.007 4.664l2.402 5.575c.05.116.085.238.138.39h-7.457c-.298-.733-.604-1.48-.905-2.23-.096-.238-.19-.478-.273-.72-.088-.262-.24-.38-.529-.366-.453.023-.909.007-1.363.007H84.42c-.108 0-.218.007-.327-.002-.228-.02-.357.065-.447.3-.307.807-.64 1.605-.964 2.407-.083.203-.171.402-.26.612h-6.27c.03-.146.037-.27.084-.377 1.204-2.807 2.417-5.61 3.62-8.417 1.478-3.449 2.95-6.901 4.421-10.353.894-2.098 1.783-4.197 2.672-6.297.417-.983.833-1.965 1.24-2.95.158-.383.363-.719.72-.938h.546ZM48 25.452c.524.08.897.322 1.225.657 1.374 1.402 2.752 2.803 4.128 4.203l7.062 7.185c.1.103.21.196.336.315.136-.125.259-.229.371-.343 3.705-3.768 7.412-7.537 11.113-11.31.342-.347.715-.617 1.192-.695.028.024.043.034.056.048.012.012.03.026.031.041.01.073.018.146.018.22l.001 28.592c-.394.116-4.883.156-5.88.054V40.64c-.49.371-.816.78-1.184 1.14-.392.385-.773.783-1.16 1.175l-1.119 1.14-1.119 1.138c-.387.392-.777.78-1.16 1.175-.37.382-.73.773-1.133 1.2l-6.814-6.926c-.049.033-.064.039-.073.05a.104.104 0 0 0-.024.049.778.778 0 0 0-.007.11l-.011 13.44c0 .018-.012.034-.02.05-.376.1-5.008.13-5.829.036V25.453Zm63.553 5.258c-.089.73-.067 7.3.027 7.75 1.2-.028 2.416.093 3.617-.138.975-.188 1.8-.653 2.359-1.53.342-.54.495-1.13.565-1.765.099-.892-.043-1.73-.478-2.5-.656-1.157-1.731-1.64-2.979-1.75-.865-.074-1.738-.071-2.607-.098-.159-.005-.318.02-.504.031Zm-6.771 23.686V25.605c.129-.011.267-.034.405-.034 3.056-.003 6.113-.023 9.168.007 1.521.014 3.043.115 4.518.548 1.829.537 3.381 1.512 4.553 3.057.921 1.216 1.388 2.605 1.52 4.135a9.096 9.096 0 0 1-.351 3.437c-.508 1.69-1.524 3-2.926 4.017-.159.115-.319.228-.514.367l.73.58c.877.69 1.518 1.576 2.079 2.536.729 1.243 1.214 2.592 1.678 3.95a3603.33 3603.33 0 0 1 1.865 5.478c.081.238.147.482.234.772h-6.951c-.108 0-.218-.003-.327 0-.171.006-.268-.072-.308-.243-.219-.93-.426-1.863-.666-2.788-.487-1.868-.967-3.743-1.87-5.462-.573-1.093-1.404-1.877-2.634-2.13a6.675 6.675 0 0 0-1.129-.148c-.69-.023-1.382-.008-2.073-.002-.069 0-.138.033-.18.045-.035.036-.05.047-.059.062a.224.224 0 0 0-.023.05c-.006.017-.012.035-.013.053-.003.037-.006.074-.006.11l-.01 10.33c0 .017-.014.033-.02.05-.398.094-6.102.11-6.69.014" fill="#fff"/></g><defs><clipPath id="a"><path fill="#fff" transform="translate(48 25)" d="M0 0h103.5v30H0z"/></clipPath></defs></svg>