<svg width="200" height="80" viewBox="0 0 200 80" fill="none" xmlns="http://www.w3.org/2000/svg">
<path fill-rule="evenodd" clip-rule="evenodd" d="M60.2742 26.724C62.9322 24.948 66.0572 24 69.2539 24C71.3765 24 73.4783 24.4181 75.4393 25.2303C77.4003 26.0426 79.1821 27.2332 80.683 28.7341C82.1839 30.235 83.3745 32.0168 84.1867 33.9778C84.999 35.9388 85.4171 38.0406 85.4171 40.1631C85.4171 43.3599 84.4691 46.4849 82.6931 49.1429C80.9171 51.8009 78.3927 53.8725 75.4393 55.0959C72.4859 56.3192 69.236 56.6393 66.1007 56.0157C62.9653 55.392 60.0854 53.8526 57.8249 51.5922C55.5644 49.3317 54.0251 46.4517 53.4014 43.3164C52.7777 40.1811 53.0978 36.9312 54.3212 33.9778C55.5445 31.0243 57.6162 28.5 60.2742 26.724ZM63.9948 48.0339C65.5515 49.0741 67.3817 49.6293 69.2539 49.6293C71.7645 49.6293 74.1723 48.6319 75.9475 46.8567C77.7228 45.0815 78.7201 42.6737 78.7201 40.1631C78.7201 38.2909 78.1649 36.4607 77.1248 34.904C76.0846 33.3473 74.6062 32.134 72.8765 31.4175C71.1468 30.7011 69.2435 30.5136 67.4072 30.8789C65.5709 31.2441 63.8842 32.1457 62.5604 33.4695C61.2365 34.7934 60.3349 36.4801 59.9697 38.3164C59.6044 40.1526 59.7919 42.0559 60.5084 43.7857C61.2248 45.5154 62.4381 46.9938 63.9948 48.0339ZM91.9668 43.6055H104.802V54.789H91.9668V43.6055ZM104.802 25.543H91.9668V36.7265H104.802V25.543ZM182.339 42.984C182.523 42.9871 182.706 42.9594 182.881 42.9018L182.897 41.5377C182.742 41.607 182.574 41.6433 182.404 41.6446C182.267 41.6386 182.133 41.6005 182.013 41.5335C181.894 41.4664 181.791 41.3722 181.714 41.2584L180.506 39.8286L182.774 37.043H181.213L178.912 39.8779L180.695 42.0636C180.882 42.3311 181.127 42.5529 181.411 42.7123C181.696 42.8717 182.013 42.9645 182.339 42.984ZM178.78 37.0156H177.433V42.858H178.78V37.0156ZM172.264 41.7569C172.046 41.747 171.833 41.691 171.639 41.5926L171.656 42.9238C171.879 42.9904 172.112 43.0209 172.346 43.0141C172.754 42.9995 173.148 42.8578 173.472 42.6089C173.796 42.36 174.034 42.0162 174.154 41.6254L176.307 37.0156H174.86L173.636 40.0231H173.587L172.091 37.0156H170.637L172.855 41.494C172.784 41.5813 172.694 41.6506 172.591 41.6963C172.488 41.7419 172.376 41.7627 172.264 41.7569ZM168.098 37.0312H166.652L164.302 42.8983H165.649L166.159 41.6411H168.566L169.076 42.8983H170.473L168.098 37.0312ZM166.594 40.5482L167.359 38.6665L168.123 40.5482H166.594ZM148.131 37.0312H149.372V42.8572H148.008V38.9951H147.966L145.205 42.8572H143.948V37.0312H145.304V40.8851H145.353L148.131 37.0312ZM180.211 25.3323C179.614 25.3388 179.033 25.5216 178.54 25.8578C178.047 26.194 177.664 26.6685 177.441 27.2216C177.217 27.7747 177.162 28.3816 177.282 28.966C177.402 29.5504 177.693 30.0862 178.117 30.5058C178.541 30.9254 179.08 31.2102 179.666 31.3242C180.251 31.4382 180.858 31.3765 181.408 31.1467C181.959 30.9169 182.429 30.5293 182.76 30.0327C183.091 29.5362 183.268 28.9529 183.268 28.3562C183.269 27.956 183.19 27.5596 183.036 27.1901C182.883 26.8205 182.657 26.4853 182.373 26.2038C182.088 25.9224 181.751 25.7004 181.379 25.5507C181.008 25.4011 180.611 25.3269 180.211 25.3323ZM180.211 30.1311C179.983 30.1319 179.758 30.0854 179.55 29.9947C179.341 29.904 179.154 29.7711 179 29.6043C178.845 29.4374 178.727 29.2404 178.653 29.0256C178.578 28.8108 178.549 28.5828 178.567 28.3562C178.551 28.1246 178.583 27.8921 178.66 27.6732C178.738 27.4543 178.86 27.2537 179.018 27.0838C179.176 26.914 179.368 26.7786 179.581 26.686C179.794 26.5934 180.024 26.5456 180.256 26.5456C180.488 26.5456 180.718 26.5934 180.931 26.686C181.144 26.7786 181.335 26.914 181.494 27.0838C181.652 27.2537 181.774 27.4543 181.852 27.6732C181.929 27.8921 181.961 28.1246 181.945 28.3562C181.964 28.5907 181.932 28.8265 181.853 29.0478C181.773 29.269 181.647 29.4706 181.482 29.6389C181.318 29.8071 181.119 29.9382 180.9 30.0231C180.681 30.108 180.446 30.1448 180.211 30.1311ZM175.445 27.6504C175.332 27.8397 175.173 27.9979 174.983 28.1108C175.262 28.2179 175.503 28.4042 175.676 28.6466C175.85 28.8889 175.949 29.1768 175.961 29.4748C175.961 30.5759 175.14 31.2744 173.866 31.2744H171.491V25.4648H173.546C174.811 25.4648 175.633 26.0647 175.633 27.0261C175.623 27.2465 175.558 27.4611 175.445 27.6504ZM173.447 26.5824H172.847L172.855 27.8149H173.562C173.997 27.8149 174.269 27.6013 174.269 27.1904C174.269 26.7796 173.915 26.5824 173.447 26.5824ZM172.847 30.1815H173.759V30.1568C173.856 30.1683 173.955 30.1594 174.048 30.1305C174.141 30.1016 174.227 30.0535 174.301 29.9892C174.375 29.9249 174.434 29.846 174.475 29.7573C174.516 29.6687 174.538 29.5725 174.54 29.4748C174.539 29.3783 174.518 29.283 174.479 29.195C174.439 29.107 174.381 29.0284 174.309 28.9641C174.237 28.8998 174.152 28.8514 174.061 28.8218C173.969 28.7923 173.872 28.7824 173.776 28.7928H172.847V30.1815ZM148.673 25.4375H152.264V26.6372H150.037V27.6726H152.124V28.8723H150.037V30.072H152.321V31.2717H148.673V25.4375ZM147.276 25.4375H142.444V26.6536H144.17V31.2717H145.534V26.6536H147.276V25.4375ZM130.488 28.823H127.941V31.2717H126.585V25.4375H127.941V27.6233H130.488V25.4375H131.844V31.2717H130.488V28.823ZM123.266 25.4375H124.63V31.2635H123.266V25.4375ZM119.996 31.2717V27.7794H119.946L118.549 30.3678H117.67L116.257 27.7794H116.208V31.2717H114.868V25.4375H116.224L118.114 28.7983L119.996 25.4375H121.319V31.2717H119.996ZM133.8 25.4375H135.164V31.2635H133.8V25.4375ZM156.34 25.4386H154.121V31.2728H155.485V29.3171H156.307C156.573 29.3292 156.838 29.2885 157.088 29.1974C157.338 29.1063 157.567 28.9665 157.763 28.7862C157.959 28.6059 158.117 28.3885 158.228 28.1468C158.339 27.9051 158.401 27.6437 158.41 27.3779C158.402 27.1145 158.342 26.8554 158.233 26.6154C158.124 26.3754 157.969 26.1592 157.777 25.979C157.585 25.7989 157.359 25.6585 157.112 25.5658C156.866 25.4731 156.603 25.4298 156.34 25.4386ZM156.241 28.1092H155.502V26.6137H156.241C156.347 26.6031 156.453 26.6152 156.554 26.6491C156.655 26.683 156.747 26.7379 156.825 26.8102C156.902 26.8825 156.964 26.9705 157.005 27.0684C157.046 27.1662 157.066 27.2717 157.063 27.3779C157.059 27.4804 157.034 27.5812 156.99 27.674C156.946 27.7668 156.884 27.8498 156.807 27.9181C156.731 27.9863 156.641 28.0384 156.544 28.0713C156.446 28.1041 156.343 28.117 156.241 28.1092ZM170.087 25.4375H165.255V26.6536H166.98V31.2717H168.345V26.6536H170.087V25.4375ZM118.022 36.9261C117.425 36.9326 116.844 37.1156 116.35 37.4522C115.857 37.7887 115.475 38.2637 115.251 38.8173C115.028 39.3708 114.973 39.9782 115.094 40.5628C115.215 41.1474 115.506 41.6831 115.931 42.1024C116.356 42.5217 116.896 42.8058 117.482 42.9189C118.068 43.032 118.675 42.9691 119.226 42.738C119.776 42.507 120.246 42.1181 120.576 41.6205C120.905 41.1229 121.081 40.5388 121.079 39.9418C121.079 39.5422 121 39.1467 120.846 38.7781C120.692 38.4095 120.466 38.0753 120.181 37.7947C119.897 37.5141 119.56 37.2928 119.189 37.1437C118.818 36.9946 118.422 36.9206 118.022 36.9261ZM118.022 41.7249C117.795 41.7256 117.57 41.6792 117.361 41.5885C117.153 41.4978 116.966 41.3648 116.811 41.198C116.657 41.0312 116.538 40.8341 116.464 40.6193C116.39 40.4045 116.361 40.1766 116.379 39.95C116.363 39.7183 116.394 39.4858 116.472 39.2669C116.549 39.048 116.671 38.8474 116.83 38.6776C116.988 38.5078 117.18 38.3723 117.393 38.2797C117.606 38.1872 117.835 38.1394 118.067 38.1394C118.3 38.1394 118.529 38.1872 118.742 38.2797C118.955 38.3723 119.147 38.5078 119.305 38.6776C119.464 38.8474 119.586 39.048 119.663 39.2669C119.741 39.4858 119.772 39.7183 119.756 39.95C119.775 40.1844 119.744 40.4202 119.664 40.6415C119.584 40.8628 119.458 41.0644 119.294 41.2326C119.129 41.4009 118.931 41.5319 118.711 41.6168C118.492 41.7018 118.257 41.7386 118.022 41.7249ZM132.783 39.2174C132.67 39.4068 132.511 39.5649 132.321 39.6772C132.606 39.7894 132.852 39.985 133.025 40.2385C133.198 40.4921 133.29 40.7918 133.29 41.0987C133.29 42.167 132.502 42.8983 131.195 42.8983H128.82V37.0312H130.875C132.148 37.0312 132.97 37.6311 132.97 38.5925C132.961 38.8131 132.897 39.0279 132.783 39.2174ZM130.768 38.1488H130.184L130.176 39.3814H130.883C131.318 39.3814 131.589 39.1677 131.589 38.7568C131.589 38.346 131.236 38.1488 130.768 38.1488ZM130.184 41.7479H131.105L131.096 41.7397C131.193 41.7511 131.29 41.7424 131.383 41.714C131.476 41.6856 131.562 41.6382 131.635 41.5748C131.709 41.5114 131.768 41.4334 131.81 41.3458C131.851 41.2582 131.874 41.1628 131.877 41.0659C131.876 40.9693 131.856 40.874 131.816 40.786C131.776 40.6981 131.718 40.6194 131.646 40.5551C131.574 40.4909 131.49 40.4424 131.398 40.4129C131.306 40.3834 131.209 40.3735 131.113 40.3838H130.184V41.7479ZM161.828 40.4167H159.289V42.8572H157.925V37.0312H159.289V39.217H161.828V37.0312H163.192V42.8572H161.828V40.4167ZM134.909 37.0312H136.273V42.8572H134.909V37.0312ZM137.72 37.0312H142.551V38.2392H140.809V42.8572H139.445V38.2392H137.72V37.0312ZM125.468 41.7337C126.017 41.7369 126.559 41.6042 127.045 41.3475V42.7115C126.548 42.8967 126.022 42.9913 125.492 42.9909C125.083 43.0124 124.674 42.9495 124.29 42.8062C123.906 42.6629 123.556 42.4423 123.261 42.158C122.965 41.8737 122.732 41.5318 122.574 41.1535C122.417 40.7752 122.339 40.3685 122.345 39.9588C122.346 39.5539 122.428 39.1533 122.586 38.7805C122.744 38.4077 122.974 38.0702 123.264 37.7877C123.555 37.5053 123.898 37.2836 124.275 37.1358C124.652 36.9879 125.055 36.9168 125.459 36.9267C125.981 36.9369 126.497 37.0312 126.988 37.2061V38.5783C126.512 38.3168 125.978 38.181 125.435 38.1839C125.201 38.1726 124.968 38.2113 124.751 38.2973C124.533 38.3833 124.337 38.5146 124.174 38.6826C124.012 38.8506 123.887 39.0513 123.808 39.2714C123.729 39.4915 123.698 39.7258 123.717 39.9588C123.698 40.1947 123.73 40.432 123.81 40.6545C123.891 40.8771 124.019 41.0795 124.185 41.2481C124.351 41.4166 124.552 41.5472 124.773 41.6311C124.995 41.7149 125.231 41.7499 125.468 41.7337ZM154.334 37.0312H152.97V42.8572H154.334V37.0312ZM188.476 37.0312H189.725V42.8572H188.361V38.9951H188.312L185.551 42.8572H184.294V37.0312H185.658V40.8851H185.699L188.476 37.0312ZM141.45 29.7498C140.964 30.006 140.422 30.1386 139.873 30.1361C139.637 30.1522 139.4 30.1172 139.178 30.0334C138.957 29.9496 138.756 29.8189 138.59 29.6504C138.424 29.4819 138.296 29.2794 138.215 29.0569C138.135 28.8344 138.103 28.597 138.122 28.3612C138.104 28.131 138.134 27.8996 138.211 27.6819C138.288 27.4642 138.41 27.2651 138.568 27.0977C138.727 26.9302 138.92 26.7981 139.133 26.71C139.347 26.6219 139.576 26.5797 139.807 26.5862C140.351 26.5852 140.885 26.7238 141.36 26.9889V25.6413C140.863 25.4516 140.338 25.3461 139.807 25.329C139.402 25.3192 139 25.3903 138.623 25.5381C138.246 25.686 137.902 25.9076 137.612 26.1901C137.322 26.4725 137.091 26.81 136.933 27.1829C136.775 27.5557 136.694 27.9563 136.693 28.3612C136.687 28.772 136.767 29.1795 136.926 29.5584C137.085 29.9373 137.32 30.2795 137.616 30.5638C137.913 30.8482 138.265 31.0685 138.65 31.2112C139.035 31.3538 139.446 31.4158 139.856 31.3933C140.4 31.3985 140.941 31.3038 141.45 31.1139V29.7498ZM162.642 30.1382C163.191 30.141 163.733 30.0084 164.22 29.752V31.116C163.723 31.3012 163.197 31.3958 162.667 31.3954C162.258 31.4144 161.85 31.3499 161.468 31.2056C161.086 31.0614 160.737 30.8405 160.443 30.5566C160.149 30.2726 159.916 29.9316 159.759 29.5544C159.601 29.1773 159.523 28.7719 159.528 28.3633C159.533 27.9619 159.618 27.5655 159.777 27.1971C159.936 26.8286 160.167 26.4953 160.456 26.2165C160.744 25.9377 161.086 25.7188 161.459 25.5724C161.833 25.4261 162.232 25.3553 162.634 25.364C163.155 25.3735 163.671 25.4678 164.162 25.6434V26.991C163.687 26.7259 163.153 26.5873 162.609 26.5884C162.376 26.5771 162.142 26.6157 161.925 26.7017C161.708 26.7877 161.511 26.9191 161.349 27.0871C161.186 27.2551 161.061 27.4558 160.982 27.6759C160.904 27.8959 160.873 28.1303 160.892 28.3633C160.872 28.5992 160.904 28.8365 160.985 29.059C161.065 29.2815 161.193 29.484 161.359 29.6525C161.525 29.821 161.726 29.9517 161.947 30.0355C162.169 30.1193 162.406 30.1543 162.642 30.1382ZM127.349 54.4873C127.174 54.5449 126.991 54.5727 126.807 54.5695C126.481 54.5501 126.164 54.4572 125.88 54.2978C125.595 54.1384 125.35 53.9167 125.163 53.6492L123.495 51.6212V54.4791H122.147V48.6367H123.495V51.3201L125.673 48.6367H127.234L124.966 51.4223L126.191 52.9014C126.267 53.0157 126.369 53.1103 126.489 53.1774C126.609 53.2445 126.743 53.2823 126.881 53.2876C127.051 53.2871 127.219 53.2507 127.374 53.1808L127.349 54.4873ZM116.355 53.2046C116.549 53.3033 116.762 53.3593 116.98 53.369C117.091 53.3758 117.203 53.3563 117.306 53.312C117.408 53.2678 117.499 53.2 117.571 53.1143L115.353 48.6523H116.799L118.294 51.6598H118.344L119.568 48.6523H121.014L118.861 53.2622C118.742 53.6529 118.504 53.9967 118.179 54.2456C117.855 54.4946 117.462 54.6362 117.053 54.6509C116.82 54.6579 116.587 54.6274 116.363 54.5605L116.355 53.2046ZM135.74 48.6523H137.186L139.536 54.4783H138.139L137.63 53.2211H135.247L134.737 54.4783H133.39L135.74 48.6523ZM136.463 50.2793L135.699 52.1611H137.227L136.463 50.2793ZM147.851 52.0261H145.312V54.4748H143.948V48.6406H145.312V50.8264H147.851V48.6406H149.215V54.4748H147.851V52.0261ZM140.636 48.6406H142V54.4666H140.636V48.6406ZM156.595 48.6406H155.346L152.576 52.5027H152.527V48.6406H151.163V54.4748H152.42L155.189 50.6045H155.231V54.4748H156.595V48.6406ZM128.771 48.6497H130.99L130.957 48.6332C131.227 48.6084 131.499 48.64 131.756 48.7262C132.012 48.8123 132.248 48.9511 132.448 49.1336C132.648 49.3161 132.808 49.5383 132.918 49.7861C133.027 50.0338 133.083 50.3017 133.083 50.5725C133.083 50.8433 133.027 51.1111 132.918 51.3589C132.808 51.6066 132.648 51.8288 132.448 52.0113C132.248 52.1938 132.012 52.3326 131.756 52.4187C131.499 52.5049 131.227 52.5366 130.957 52.5117H130.136V54.4756H128.771V48.6497ZM130.136 51.3531H130.875V51.3367C130.98 51.3446 131.086 51.3307 131.185 51.2959C131.285 51.261 131.376 51.206 131.453 51.1342C131.53 51.0625 131.592 50.9755 131.634 50.8788C131.676 50.7822 131.697 50.6778 131.697 50.5725C131.7 50.4663 131.68 50.3608 131.639 50.263C131.598 50.1651 131.536 50.0771 131.459 50.0048C131.381 49.9325 131.289 49.8776 131.188 49.8437C131.087 49.8098 130.981 49.7977 130.875 49.8083H130.136V51.3531ZM140.99 46.9805H139.897V47.9994H140.99V46.9805ZM141.647 46.9805H142.74V47.9994H141.647V46.9805ZM19.5894 56.2697L19.5155 56.1875C19.2774 55.8076 18.9643 55.4804 18.5951 55.2261C17.9359 54.7255 17.3544 54.1302 16.8695 53.4594C16.246 52.6043 15.7812 51.644 15.4973 50.6245C15.4437 50.4407 15.3998 50.2541 15.3658 50.0657C15.3658 49.9342 15.2918 49.8849 15.1439 49.8849H10.2136C10.1054 49.8849 10.052 49.8849 10.0257 49.8582C10 49.8322 10 49.7809 10 49.6795V26.6715C10.1978 26.7762 10.3898 26.8914 10.5752 27.0166C11.0189 27.3453 11.4709 27.6822 11.8982 28.0356C12.4981 28.5553 13.0235 29.1553 13.4594 29.8187C14.1096 30.7817 14.5827 31.853 14.8563 32.9823C15.0803 34.1313 15.2422 35.2916 15.3411 36.4581C15.4665 37.404 15.576 38.3498 15.6862 39.3011L15.6862 39.3012L15.6862 39.3013C15.735 39.7219 15.7838 40.1435 15.8342 40.5667V40.8214C15.8342 40.9036 15.8342 41.0104 15.6452 41.0351C15.3972 41.0384 15.1509 41.0771 14.9139 41.1501C14.6855 41.2442 14.4821 41.3901 14.3198 41.5763C14.1575 41.7624 14.0407 41.9838 13.9785 42.2228C13.9164 42.4619 13.9106 42.7121 13.9617 42.9537C14.0128 43.1954 14.1193 43.4218 14.2729 43.6153C14.5321 43.9251 14.8935 44.132 15.2918 44.1987L16.0478 44.3548C16.0838 44.3684 16.1237 44.3674 16.159 44.3521C16.1943 44.3367 16.2222 44.3082 16.2368 44.2726C16.3431 44.0575 16.4536 43.8432 16.5643 43.6287L16.5643 43.6286C16.796 43.1795 17.0282 42.7292 17.2229 42.2676C17.5105 41.5856 17.7488 40.8625 17.9788 40.1476C18.4232 38.9183 18.6889 37.6315 18.7677 36.3267C18.7677 35.3488 18.7677 34.3628 18.7102 33.3767C18.6679 32.5456 18.6149 31.7145 18.5619 30.8834L18.5619 30.883C18.5222 30.2598 18.4824 29.6366 18.4472 29.0134C18.4472 28.7429 18.4355 28.4724 18.4238 28.2026C18.4078 27.833 18.3919 27.4645 18.4061 27.0988C18.4387 26.1515 18.7662 25.238 19.3429 24.4858C19.5805 24.1618 19.5973 24.1847 19.747 24.3888C19.7682 24.4176 19.792 24.4501 19.8195 24.4858C20.3814 25.1895 20.709 26.0515 20.7562 26.9509C20.7562 27.7726 20.7562 28.5943 20.6987 29.416C20.6535 30.3446 20.6001 31.2711 20.5467 32.1976V32.1976C20.4933 33.124 20.4399 34.0505 20.3947 34.979C20.3244 36.6114 20.5385 38.2435 21.0274 39.8025C21.3132 40.7981 21.6674 41.7728 22.0874 42.7196C22.2625 43.0938 22.4596 43.4636 22.6562 43.8322L22.6563 43.8323C22.7273 43.9655 22.7983 44.0985 22.868 44.2315C22.8754 44.2553 22.8875 44.2772 22.9037 44.296C22.9199 44.3149 22.9398 44.3301 22.9622 44.3409C22.9845 44.3517 23.0089 44.3578 23.0337 44.3588C23.0585 44.3597 23.0832 44.3556 23.1063 44.3466C23.4781 44.2765 23.8457 44.186 24.2074 44.0754C24.4951 43.9756 24.745 43.7895 24.9229 43.5424C25.1009 43.2954 25.1982 42.9994 25.2017 42.6949C25.2315 42.3287 25.1319 41.9636 24.9202 41.6633C24.7084 41.363 24.3981 41.1465 24.0431 41.0515C23.8452 41.0146 23.6445 40.9953 23.4432 40.994H23.2707L23.2707 40.9939C23.32 40.5831 23.3693 40.1723 23.4186 39.8025C23.4619 39.4362 23.5047 39.0693 23.5475 38.7021L23.5475 38.702C23.667 37.6773 23.7868 36.6505 23.9198 35.6282C23.9968 34.6827 24.1396 33.7436 24.3471 32.8179C24.69 31.5208 25.2939 30.3073 26.122 29.2517C26.3753 28.9063 26.6497 28.577 26.9437 28.2656C27.5849 27.6243 28.309 27.0716 29.0966 26.6222H29.187V26.803V46.2119V49.622C29.187 49.7302 29.187 49.7836 29.1603 49.81C29.1343 49.8356 29.083 49.8356 28.9816 49.8356H24.002C23.8541 49.8356 23.7966 49.8356 23.7637 50.0329C23.6399 50.7425 23.4245 51.433 23.1228 52.0871C22.7824 52.7845 22.3514 53.4338 21.8409 54.0182C21.3886 54.5231 20.8907 54.9852 20.3536 55.3986C20.1265 55.6079 19.9176 55.836 19.7291 56.0807C19.6779 56.1401 19.6313 56.2033 19.5894 56.2697ZM11.6188 29.983H11.5613V30.2131V41.3802V41.6842C11.5613 41.7828 11.5613 41.7993 11.6763 41.7993H12.3337C12.3564 41.8027 12.3795 41.8017 12.4018 41.7961C12.4241 41.7905 12.445 41.7805 12.4634 41.7668C12.4817 41.753 12.4971 41.7357 12.5087 41.7159C12.5203 41.6961 12.5279 41.6741 12.5309 41.6514C12.6499 41.2593 12.8456 40.8947 13.1065 40.5787C13.3675 40.2628 13.6885 40.0017 14.0511 39.8107C14.0849 39.7919 14.1114 39.7621 14.1263 39.7264C14.1412 39.6906 14.1437 39.6508 14.1332 39.6135C14.1332 39.4832 14.1117 39.3494 14.09 39.2143C14.0788 39.1449 14.0676 39.0752 14.0593 39.0054C13.9894 38.4037 13.9169 37.8032 13.8445 37.2031L13.8445 37.2031C13.7378 36.3199 13.6312 35.4373 13.5334 34.5518C13.3828 33.0945 12.8561 31.7014 12.005 30.5089C11.9774 30.4728 11.9495 30.4366 11.9216 30.4004L11.9216 30.4004C11.816 30.2637 11.7097 30.1259 11.6188 29.983ZM27.6176 41.8075V29.9912H27.56C27.4737 30.1145 27.3854 30.2357 27.2971 30.3569C27.2087 30.4781 27.1204 30.5993 27.0341 30.7226C26.3099 31.7701 25.8477 32.9762 25.6865 34.2395C25.5556 35.2588 25.4353 36.2808 25.3151 37.3024L25.315 37.3028C25.224 38.0764 25.133 38.8498 25.0374 39.6217C25.0374 39.7532 25.0867 39.8107 25.1771 39.8682C25.3849 39.9953 25.5827 40.1382 25.7687 40.2955C26.1956 40.6816 26.5107 41.1755 26.6808 41.7253C26.689 41.7471 26.7022 41.7666 26.7193 41.7823C26.7364 41.798 26.757 41.8094 26.7794 41.8157L27.6176 41.8075ZM11.5448 45.8339V48.0854C11.5448 48.2086 11.5448 48.2497 11.7092 48.2497H14.996C15.1275 48.2497 15.1768 48.2497 15.185 48.0854C15.2097 47.3806 15.3117 46.6807 15.4891 45.9982C15.4891 45.9078 15.4891 45.875 15.3987 45.8668L14.8645 45.7435C14.3119 45.6062 13.8066 45.3223 13.4019 44.9218C12.9874 44.5548 12.6782 44.0839 12.5062 43.5577C12.4982 43.5133 12.473 43.4737 12.4362 43.4476C12.3993 43.4215 12.3536 43.4109 12.309 43.418H11.7174C11.6191 43.418 11.5759 43.418 11.5573 43.4394C11.5428 43.4562 11.5433 43.486 11.5442 43.5392C11.5445 43.5544 11.5448 43.5714 11.5448 43.5906C11.5503 44.101 11.5485 44.6004 11.5466 45.0962C11.5457 45.3427 11.5448 45.5883 11.5448 45.8339ZM25.8016 48.2497H27.445C27.6011 48.2497 27.6586 48.2004 27.6504 48.0443V47.9539V46.1133V43.566C27.6504 43.4591 27.6504 43.4345 27.5189 43.4345H26.9848C26.7301 43.4345 26.7301 43.4345 26.6479 43.6728C26.5041 44.102 26.2686 44.4948 25.9579 44.824C25.6472 45.1532 25.2686 45.4108 24.8484 45.5792C24.5185 45.6961 24.1808 45.7894 23.8377 45.8585C23.7308 45.8585 23.698 45.9325 23.7308 46.0393C23.9024 46.7141 23.9989 47.4058 24.0184 48.1018C24.0184 48.2251 24.0677 48.2662 24.191 48.2662L25.8016 48.2497ZM17.8309 44.7657L17.8346 44.7675L17.8309 44.7739V44.7657ZM17.8346 44.7675C18.5572 43.5293 19.1454 42.2174 19.5894 40.8543C20.0354 42.2193 20.6248 43.5332 21.3479 44.7739C21.28 44.8038 21.2148 44.8318 21.1517 44.859L21.1513 44.8592L21.1512 44.8592C21.0235 44.9142 20.9045 44.9655 20.7891 45.0204C20.3712 45.2147 19.9989 45.4946 19.6962 45.8421C19.5957 45.9813 19.5898 45.9749 19.4867 45.8641L19.4661 45.8421C19.2135 45.5569 18.9132 45.3178 18.5787 45.1354C18.4287 45.0527 18.2755 44.9797 18.117 44.9042C18.0248 44.8603 17.9308 44.8155 17.8346 44.7675ZM22.2189 49.8521H20.5755C20.4276 49.8521 20.3865 49.8521 20.3865 50.0329V53.0568V53.2375C21.2823 52.2915 21.9141 51.127 22.2189 49.8603V49.8521ZM16.9599 49.8521C17.0996 50.8299 18.2418 52.9417 18.7677 53.1389C18.7693 53.1198 18.7693 53.1005 18.7677 53.0814V49.9342C18.7677 49.8192 18.7102 49.8028 18.6116 49.8028H16.9681L16.9599 49.8521ZM17.7816 48.2086H18.6033C18.7923 48.2086 18.817 48.2086 18.7759 48.0114C18.7291 47.7281 18.6462 47.452 18.5294 47.1897C18.3993 46.9429 18.2161 46.7279 17.993 46.5603C17.77 46.3926 17.5126 46.2765 17.2393 46.2201C17.1243 46.2201 17.0503 46.2201 17.0174 46.3516C16.8764 46.9054 16.7965 47.473 16.7791 48.0443C16.7791 48.1511 16.7791 48.184 16.9188 48.184L17.7816 48.2086ZM21.389 48.2086H22.2518C22.3504 48.2086 22.3997 48.2086 22.3997 48.069C22.3927 47.5136 22.3154 46.9614 22.1696 46.4255C22.1121 46.2201 22.0874 46.2119 21.882 46.2694C21.479 46.375 21.1196 46.6051 20.8548 46.9268C20.5853 47.2529 20.4244 47.6551 20.3947 48.0772C20.3947 48.1758 20.3947 48.2169 20.5262 48.2086H21.389ZM41.291 25.6836H42.1127V55.027H41.291V25.6836Z" fill="white"/>
</svg>
