<svg width="200" height="80" fill="none" xmlns="http://www.w3.org/2000/svg"><path fill-rule="evenodd" clip-rule="evenodd" d="M60.274 26.724a16.163 16.163 0 1 1 17.96 26.879 16.163 16.163 0 0 1-17.96-26.879Zm3.72 21.31a9.466 9.466 0 1 0 10.52-15.741 9.466 9.466 0 0 0-10.52 15.74Zm27.973-4.428h12.835v11.183H91.967V43.605Zm12.835-18.063H91.967v11.184h12.835V25.543Zm77.537 17.441c.184.003.367-.025.542-.082l.016-1.364c-.155.069-.323.105-.493.107a.882.882 0 0 1-.69-.387l-1.208-1.43 2.268-2.785h-1.561l-2.301 2.835 1.783 2.186a2.17 2.17 0 0 0 1.644.92Zm-3.559-5.968h-1.347v5.842h1.347v-5.842Zm-6.516 4.74a1.535 1.535 0 0 1-.625-.163l.017 1.33c.223.067.456.098.69.091a1.965 1.965 0 0 0 1.808-1.389l2.153-4.61h-1.447l-1.224 3.008h-.049l-1.496-3.007h-1.454l2.218 4.478a.712.712 0 0 1-.591.263Zm-4.166-4.725h-1.446l-2.35 5.867h1.347l.51-1.257h2.407l.51 1.257h1.397l-2.375-5.867Zm-1.504 3.517.765-1.882.764 1.882h-1.529Zm-18.463-3.517h1.241v5.826h-1.364v-3.862h-.042l-2.761 3.862h-1.257v-5.826h1.356v3.854h.049l2.778-3.854Zm32.08-11.699a3.023 3.023 0 1 0 2.825 1.858 3.012 3.012 0 0 0-2.825-1.858Zm0 4.8a1.639 1.639 0 0 1-1.558-1.106 1.637 1.637 0 0 1-.086-.67 1.705 1.705 0 0 1 .451-1.272 1.689 1.689 0 0 1 1.913-.398 1.7 1.7 0 0 1 .921.987c.077.22.109.452.093.683a1.64 1.64 0 0 1-1.734 1.775Zm-4.766-2.482c-.113.19-.272.348-.462.46a1.525 1.525 0 0 1 .978 1.364c0 1.102-.821 1.8-2.095 1.8h-2.375v-5.81h2.055c1.265 0 2.087.6 2.087 1.562-.01.22-.075.435-.188.624Zm-1.998-1.068h-.6l.008 1.233h.707c.435 0 .707-.214.707-.625 0-.41-.354-.608-.822-.608Zm-.6 3.6h.912v-.025a.7.7 0 0 0 .781-.682.696.696 0 0 0-.764-.682h-.929v1.389Zm-24.174-4.744h3.591v1.2h-2.227v1.035h2.087v1.2h-2.087v1.199h2.284v1.2h-3.648v-5.834Zm-1.397 0h-4.832v1.216h1.726v4.618h1.364v-4.618h1.742v-1.216Zm-16.788 3.385h-2.547v2.449h-1.356v-5.834h1.356v2.185h2.547v-2.186h1.356v5.835h-1.356v-2.449Zm-7.222-3.386h1.364v5.826h-1.364v-5.826Zm-3.27 5.835v-3.493h-.05l-1.397 2.589h-.879l-1.413-2.589h-.049v3.493h-1.34v-5.834h1.356l1.89 3.36 1.882-3.36h1.323v5.834h-1.323Zm13.804-5.834h1.364v5.826H133.8v-5.826Zm22.54 0h-2.219v5.835h1.364v-1.956h.822a2.012 2.012 0 0 0 2.103-1.94 1.99 1.99 0 0 0-.633-1.398 1.998 1.998 0 0 0-1.437-.54Zm-.099 2.671h-.739v-1.495h.739a.747.747 0 0 1 .566 1.304.76.76 0 0 1-.566.191Zm13.846-2.672h-4.832v1.217h1.725v4.618h1.365v-4.618h1.742v-1.216Zm-52.065 11.49a3.026 3.026 0 0 0-2.771 1.89 3.029 3.029 0 0 0 .68 3.285 3.025 3.025 0 1 0 2.091-5.176Zm0 4.798a1.648 1.648 0 0 1-1.558-1.106 1.653 1.653 0 0 1-.085-.669 1.688 1.688 0 0 1 1.014-1.67 1.69 1.69 0 0 1 2.363 1.67 1.643 1.643 0 0 1-1.734 1.775Zm14.761-2.508a1.32 1.32 0 0 1-.462.46 1.533 1.533 0 0 1 .969 1.422c0 1.068-.788 1.8-2.095 1.8h-2.375V37.03h2.055c1.273 0 2.095.6 2.095 1.562-.009.22-.073.435-.187.624Zm-2.015-1.068h-.584l-.008 1.232h.707c.435 0 .706-.213.706-.624 0-.411-.353-.608-.821-.608Zm-.584 3.599h.921l-.009-.008a.7.7 0 0 0 .781-.674.692.692 0 0 0-.764-.682h-.929v1.364Zm31.644-1.331h-2.539v2.44h-1.364v-5.826h1.364v2.186h2.539v-2.186h1.364v5.826h-1.364v-2.44Zm-26.919-3.386h1.364v5.826h-1.364v-5.826Zm2.811 0h4.831v1.208h-1.742v4.618h-1.364V38.24h-1.725v-1.208Zm-12.252 4.703a3.336 3.336 0 0 0 1.577-.387v1.364a4.438 4.438 0 0 1-1.553.28 2.989 2.989 0 0 1-3.147-3.032 3.039 3.039 0 0 1 3.114-3.032c.522.01 1.038.104 1.529.28v1.371a3.189 3.189 0 0 0-1.553-.394 1.64 1.64 0 0 0-1.627 1.087 1.64 1.64 0 0 0-.091.688 1.65 1.65 0 0 0 1.056 1.672c.222.084.458.119.695.103Zm28.866-4.703h-1.364v5.826h1.364v-5.826Zm34.142 0h1.249v5.826h-1.364v-3.862h-.049l-2.761 3.862h-1.257v-5.826h1.364v3.854h.041l2.777-3.854ZM141.45 29.75a3.35 3.35 0 0 1-1.577.386 1.65 1.65 0 0 1-1.283-.486 1.65 1.65 0 0 1-.468-1.289 1.65 1.65 0 0 1 1.011-1.651c.214-.088.443-.13.674-.124a3.173 3.173 0 0 1 1.553.403V25.64a4.788 4.788 0 0 0-1.553-.312 3.04 3.04 0 0 0-3.114 3.032 3.008 3.008 0 0 0 1.957 2.85 3 3 0 0 0 1.206.182 4.441 4.441 0 0 0 1.594-.28V29.75Zm21.192.388a3.351 3.351 0 0 0 1.578-.386v1.364a4.438 4.438 0 0 1-1.553.28 2.999 2.999 0 0 1-2.89-4.199 3.032 3.032 0 0 1 1.682-1.625 3.043 3.043 0 0 1 1.175-.208c.521.01 1.037.104 1.528.28v1.347a3.171 3.171 0 0 0-1.553-.403 1.643 1.643 0 0 0-1.717 1.775 1.634 1.634 0 0 0 1.055 1.672c.222.084.459.12.695.103Zm-35.293 24.35a1.641 1.641 0 0 1-.542.081 2.156 2.156 0 0 1-1.644-.92l-1.668-2.028v2.858h-1.348v-5.842h1.348v2.683l2.178-2.683h1.561l-2.268 2.785 1.225 1.48a.864.864 0 0 0 .69.386c.17 0 .338-.037.493-.107l-.025 1.306Zm-10.994-1.283c.194.098.407.154.625.164a.716.716 0 0 0 .591-.255l-2.218-4.462h1.446l1.495 3.008h.05l1.224-3.008h1.446l-2.153 4.61a1.962 1.962 0 0 1-1.808 1.389 2.182 2.182 0 0 1-.69-.09l-.008-1.356Zm19.385-4.553h1.446l2.35 5.826h-1.397l-.509-1.257h-2.383l-.51 1.257h-1.347l2.35-5.826Zm.723 1.627-.764 1.882h1.528l-.764-1.882Zm11.388 1.747h-2.539v2.449h-1.364V48.64h1.364v2.185h2.539v-2.185h1.364v5.834h-1.364v-2.449Zm-7.215-3.385H142v5.826h-1.364V48.64Zm15.959 0h-1.249l-2.77 3.862h-.049V48.64h-1.364v5.834h1.257l2.769-3.87h.042v3.87h1.364V48.64Zm-27.824.009h2.219l-.033-.017a1.95 1.95 0 0 1 1.961 1.153 1.952 1.952 0 0 1-1.162 2.633 1.95 1.95 0 0 1-.799.093h-.821v1.964h-1.365V48.65Zm1.365 2.703h.739v-.016a.764.764 0 0 0 .822-.765.746.746 0 0 0-.822-.764h-.739v1.545Zm10.854-4.373h-1.093V48h1.093v-1.02Zm.657 0h1.093V48h-1.093v-1.02ZM19.589 56.27l-.073-.083a3.286 3.286 0 0 0-.92-.96 8.39 8.39 0 0 1-1.727-1.768 8.834 8.834 0 0 1-1.372-2.835 5.46 5.46 0 0 1-.131-.558c0-.132-.074-.181-.222-.181h-4.93c-.109 0-.162 0-.188-.027C10 49.832 10 49.781 10 49.68V26.671c.198.104.39.22.575.345.444.328.896.665 1.323 1.019.6.52 1.126 1.12 1.561 1.783a9.76 9.76 0 0 1 1.397 3.163c.224 1.15.386 2.31.485 3.476.126.946.235 1.892.345 2.843l.148 1.266v.254c0 .083 0 .19-.189.214a2.602 2.602 0 0 0-.731.115 1.593 1.593 0 0 0-.641 2.465c.26.31.62.517 1.019.584l.756.156a.148.148 0 0 0 .189-.082c.106-.216.217-.43.327-.644.232-.45.464-.9.659-1.361.288-.682.526-1.406.756-2.12.444-1.23.71-2.517.789-3.821 0-.978 0-1.964-.058-2.95-.042-.831-.095-1.663-.148-2.494-.04-.623-.08-1.246-.115-1.87 0-.27-.011-.54-.023-.81-.016-.37-.032-.738-.018-1.104.033-.948.36-1.861.937-2.613.238-.324.254-.301.404-.097l.073.097c.561.703.889 1.566.936 2.465 0 .822 0 1.643-.057 2.465-.046.929-.099 1.855-.152 2.782a311.53 311.53 0 0 0-.152 2.781c-.07 1.632.143 3.264.632 4.824.286.995.64 1.97 1.06 2.917.175.374.373.744.57 1.112l.211.4a.18.18 0 0 0 .238.115c.372-.07.74-.161 1.101-.272a1.479 1.479 0 0 0 .995-1.38 1.57 1.57 0 0 0-1.159-1.644 3.392 3.392 0 0 0-.6-.057h-.172c.049-.41.098-.822.148-1.191l.128-1.1v-.001c.12-1.025.24-2.051.373-3.074.077-.945.22-1.884.427-2.81a9.86 9.86 0 0 1 1.775-3.566c.253-.346.528-.675.822-.986a10.176 10.176 0 0 1 2.153-1.644h.09v23c0 .108 0 .162-.027.188-.026.026-.077.026-.178.026h-4.98c-.148 0-.205 0-.238.197-.124.71-.34 1.4-.641 2.054a8.808 8.808 0 0 1-1.282 1.931c-.452.505-.95.967-1.487 1.38-.227.21-.436.438-.625.683-.051.06-.098.122-.14.189Zm-7.97-26.287h-.058v11.701c0 .099 0 .115.115.115h.658a.174.174 0 0 0 .175-.083.173.173 0 0 0 .022-.065 3.098 3.098 0 0 1 1.52-1.84.173.173 0 0 0 .082-.197c0-.13-.021-.265-.043-.4a5.077 5.077 0 0 1-.03-.209c-.07-.601-.143-1.202-.216-1.802-.106-.883-.213-1.766-.31-2.651a8.456 8.456 0 0 0-1.529-4.043 35.287 35.287 0 0 0-.083-.109 5.707 5.707 0 0 1-.303-.417Zm15.999 11.824V29.991h-.058c-.086.123-.175.245-.263.366-.088.121-.177.242-.263.366a7.955 7.955 0 0 0-1.348 3.517c-.13 1.019-.25 2.04-.37 3.062h-.001c-.091.774-.182 1.548-.278 2.32 0 .131.05.189.14.246.208.127.406.27.592.427.427.387.742.88.912 1.43a.148.148 0 0 0 .098.09l.839-.008Zm-16.073 4.027v2.251c0 .124 0 .165.164.165h3.287c.131 0 .18 0 .189-.165a9.639 9.639 0 0 1 .304-2.087c0-.09 0-.123-.09-.131l-.534-.123a3.164 3.164 0 0 1-1.463-.822 3.114 3.114 0 0 1-.896-1.364.173.173 0 0 0-.197-.14h-.592c-.098 0-.141 0-.16.021-.014.017-.014.047-.013.1v.052c.006.51.005 1.01.003 1.505l-.002.738Zm14.257 2.416h1.643c.156 0 .214-.05.205-.206v-4.478c0-.107 0-.132-.131-.132h-.534c-.255 0-.255 0-.337.239a3.123 3.123 0 0 1-1.8 1.906 7.4 7.4 0 0 1-1.01.28c-.107 0-.14.073-.107.18.171.675.268 1.367.287 2.063 0 .123.05.164.173.164l1.61-.016Zm-7.971-3.484.004.002-.004.006v-.008Zm.004.002a20.137 20.137 0 0 0 1.754-3.914 20.313 20.313 0 0 0 1.759 3.92l-.196.085a10.66 10.66 0 0 0-.363.161c-.418.195-.79.475-1.093.822-.1.14-.106.133-.21.022l-.02-.022a3.288 3.288 0 0 0-.887-.707 8.677 8.677 0 0 0-.462-.23 16.845 16.845 0 0 1-.282-.138Zm4.384 5.084h-1.643c-.148 0-.19 0-.19.18v3.205a7.445 7.445 0 0 0 1.833-3.377v-.008Zm-5.26 0c.14.978 1.283 3.09 1.809 3.287a.345.345 0 0 0 0-.058v-3.147c0-.115-.058-.131-.156-.131h-1.644l-.008.05Zm.823-1.643h.821c.19 0 .214 0 .173-.198a3.37 3.37 0 0 0-.247-.821 1.889 1.889 0 0 0-1.29-.97c-.115 0-.189 0-.222.132a7.826 7.826 0 0 0-.238 1.692c0 .107 0 .14.14.14l.863.025Zm3.607 0h.863c.098 0 .148 0 .148-.14a6.576 6.576 0 0 0-.23-1.644c-.058-.205-.083-.213-.288-.156a1.98 1.98 0 0 0-1.027.658 2.03 2.03 0 0 0-.46 1.15c0 .099 0 .14.131.132h.863Zm19.902-22.525h.822v29.343h-.822V25.684Z" fill="#fff"/></svg>