<svg width="200" height="80" fill="none" xmlns="http://www.w3.org/2000/svg"><path d="M34.79 42.605a5.591 5.591 0 0 0-1.619-10.073 5.55 5.55 0 0 0-3.961.409l-1.678-2.905-3.483 6.032L16 50.008h23.064l-4.275-7.403Zm-2.013-8.596a4.06 4.06 0 0 1 1.246 7.267l-4.047-7.008a4.033 4.033 0 0 1 2.8-.259Zm-5.245-.912 8.88 15.38h-5.196l-6.283-10.879 2.599-4.5Zm-8.88 15.38 5.397-9.345 5.396 9.345H18.652Z" fill="#fff"/><path d="M34.807 42.569a5.591 5.591 0 0 0-1.618-10.074 5.55 5.55 0 0 0-3.962.41L27.55 30l-3.482 6.032-8.05 13.94h23.064l-4.274-7.403Zm-2.013-8.596a4.06 4.06 0 0 1 1.246 7.267l-4.047-7.008a4.033 4.033 0 0 1 2.801-.259Zm-5.244-.912 8.879 15.38h-5.195L24.95 37.562l2.598-4.501Zm-8.88 15.38 5.396-9.345 5.397 9.345H18.67ZM54.373 44.164h-3.25v5.814h-4.277V30.59h7.947c4.64 0 7.447 2.74 7.447 6.702v.053c0 4.488-3.5 6.814-7.862 6.814l-.005.005Zm3.526-6.786c0-1.912-1.332-2.937-3.473-2.937h-3.308v5.926h3.388c2.141 0 3.388-1.276 3.388-2.936v-.053h.005ZM64.627 49.98V30.59h14.67v3.797H68.88v3.935h9.167v3.797h-9.167v4.074h10.557v3.797H64.627v-.01ZM94.591 49.98l-4.166-6.203h-3.36v6.203h-4.278V30.59h8.89c4.587 0 7.335 2.41 7.335 6.399v.053c0 3.129-1.693 5.098-4.166 6.012l4.751 6.924H94.59l.001.002Zm.086-12.768c0-1.826-1.28-2.772-3.36-2.772h-4.25v5.567h4.335c2.083 0 3.275-1.11 3.275-2.74v-.055ZM111.276 50.501c-5.798 0-10.106-4.462-10.106-10.107v-.055c0-5.586 4.221-10.16 10.279-10.16 3.715 0 5.943 1.232 7.772 3.03l-2.758 3.169c-1.522-1.378-3.066-2.217-5.042-2.217-3.319 0-5.717 2.75-5.717 6.12v.055c0 3.369 2.338 6.172 5.717 6.172 2.251 0 3.633-.899 5.183-2.304l2.758 2.778c-2.03 2.164-4.281 3.51-8.08 3.51l-.006.01ZM130.803 50.501c-6.083 0-10.446-4.52-10.446-10.107v-.055c0-5.586 4.421-10.16 10.499-10.16 6.079 0 10.447 4.52 10.447 10.107v.055c0 5.585-4.422 10.16-10.5 10.16Zm5.971-10.16c0-3.37-2.478-6.173-5.971-6.173-3.492 0-5.91 2.75-5.91 6.12v.054c0 3.37 2.478 6.173 5.97 6.173 3.493 0 5.911-2.75 5.911-6.12v-.054ZM164.857 49.998l9.572-19.82L183.999 50H179.2l-4.771-9.864L169.674 50h-4.817v-.002ZM163.087 30.6v19.903l-14.595-11.786v11.249h-4.541V30.178l14.596 11.74V30.599h4.54Z" fill="#fff"/></svg>