<svg width="200" height="80" viewBox="0 0 200 80" fill="none" xmlns="http://www.w3.org/2000/svg">
<path d="M59.4298 38.2356L56.625 33.2312H55.489V38.2356H52.7617V25.582H57.935C58.8195 25.582 59.5832 25.728 60.2278 26.0198C60.8723 26.3117 61.3638 26.736 61.7043 27.2951C62.0451 27.8541 62.2166 28.5232 62.2166 29.3045C62.2166 30.2227 61.9674 30.9906 61.4689 31.6125C60.9706 32.2344 60.2598 32.6677 59.3384 32.9146L62.4657 38.2356H59.4344H59.4298ZM55.489 27.89V31.1095H57.6104C58.1795 31.1095 58.6138 30.9703 58.9178 30.692C59.2218 30.4135 59.3727 30.0072 59.3727 29.4728C59.3727 28.9385 59.2218 28.5119 58.9178 28.2627C58.6138 28.0135 58.1727 27.89 57.5921 27.89H55.489Z" fill="white"/>
<path d="M70.2843 28.3932H72.8789V38.2359H70.2843V37.0638C69.9552 37.5108 69.5392 37.861 69.034 38.1147C68.5287 38.3684 67.9595 38.4963 67.3287 38.4963C66.5081 38.4963 65.7742 38.2763 65.1319 37.8363C64.4873 37.3963 63.9865 36.781 63.6254 35.993C63.2642 35.205 63.0859 34.3159 63.0859 33.3236C63.0859 32.3312 63.2665 31.4219 63.6254 30.6339C63.9842 29.8458 64.4873 29.2329 65.1319 28.7929C65.7764 28.3528 66.5081 28.1328 67.3287 28.1328C67.9595 28.1328 68.5287 28.263 69.034 28.5235C69.5392 28.7839 69.9552 29.1386 70.2843 29.5854V28.3932ZM69.2603 35.8538C69.6009 35.6316 69.8706 35.3038 70.0649 34.8772C70.2615 34.4484 70.3575 33.932 70.3575 33.3236C70.3575 32.7151 70.2592 32.1987 70.0649 31.7699C69.8683 31.3434 69.6009 31.0156 69.2603 30.7933C68.9198 30.571 68.5287 30.4588 68.0852 30.4588C67.6418 30.4588 67.2487 30.571 66.9012 30.7933C66.5538 31.0156 66.2862 31.3434 66.0964 31.7699C65.9067 32.1987 65.813 32.7151 65.813 33.3236C65.813 33.932 65.9067 34.4484 66.0964 34.8772C66.2862 35.3038 66.5538 35.6316 66.9012 35.8538C67.2487 36.0783 67.6441 36.1883 68.0852 36.1883C68.5264 36.1883 68.9198 36.0761 69.2603 35.8538Z" fill="white"/>
<path d="M75.3158 26.5976C75.0323 26.3192 74.8906 25.9555 74.8906 25.5087C74.8906 25.0619 75.0323 24.6982 75.3158 24.4198C75.5992 24.1415 75.9697 24 76.4246 24C76.8794 24 77.2451 24.1392 77.524 24.4198C77.8006 24.6982 77.94 25.0619 77.94 25.5087C77.94 25.9555 77.8006 26.3192 77.524 26.5976C77.2451 26.876 76.8794 27.0175 76.4246 27.0175C75.9697 27.0175 75.5992 26.8783 75.3158 26.5976ZM77.6931 38.2364H75.0986V28.3937H77.6931V38.2364Z" fill="white"/>
<path d="M83.245 28.3932H85.9929V30.6271H83.245V38.2381H80.6505V30.6271H78.9453V28.3932H80.6505V27.7983C80.6505 26.7184 80.9659 25.8944 81.597 25.3241C82.2278 24.7539 83.0941 24.4688 84.1915 24.4688C84.5961 24.4688 84.9801 24.5047 85.3481 24.581C85.714 24.6551 86.05 24.7561 86.3517 24.8796L85.6889 26.8329C85.3481 26.6959 84.9755 26.6286 84.5709 26.6286C84.1023 26.6286 83.7663 26.7341 83.5583 26.9451C83.3501 27.1562 83.245 27.4795 83.245 27.9128V28.3955V28.3932Z" fill="white"/>
<path d="M89.8761 28.3932H92.6237V30.6271H89.8761V38.2381H87.2815V30.6271H85.5762V28.3932H87.2815V27.7983C87.2815 26.7184 87.597 25.8944 88.2278 25.3241C88.8587 24.7539 89.7252 24.4688 90.8223 24.4688C91.2269 24.4688 91.6111 24.5047 91.9791 24.581C92.3449 24.6551 92.6809 24.7561 92.9826 24.8796L92.3197 26.8329C91.9791 26.6959 91.6066 26.6286 91.2018 26.6286C90.7332 26.6286 90.3972 26.7341 90.1892 26.9451C89.9812 27.1562 89.8761 27.4795 89.8761 27.9128V28.3955V28.3932Z" fill="white"/>
<path d="M102.721 34.2148H95.9564C96.0456 34.9602 96.2902 35.499 96.6947 35.8337C97.0995 36.1682 97.6915 36.3365 98.4755 36.3365C99.0172 36.3365 99.5203 36.2602 99.982 36.1053C100.444 35.9504 100.844 35.7304 101.184 35.4451L102.302 37.1941C101.797 37.6161 101.209 37.9396 100.54 38.1619C99.87 38.3841 99.1498 38.4964 98.3795 38.4964C97.2938 38.4964 96.3587 38.2921 95.5747 37.8835C94.7907 37.4747 94.1939 36.8843 93.7848 36.1165C93.3734 35.3464 93.1699 34.4349 93.1699 33.3819C93.1699 32.329 93.3711 31.4219 93.7756 30.6271C94.1802 29.8324 94.7519 29.2195 95.4902 28.7839C96.2284 28.3506 97.0721 28.1328 98.0184 28.1328C98.9647 28.1328 99.7923 28.3439 100.501 28.7659C101.207 29.188 101.754 29.7897 102.14 30.571C102.524 31.3523 102.718 32.2706 102.718 33.3258V34.2193L102.721 34.2148ZM95.9564 32.4659H100.105C100.041 31.734 99.8335 31.1884 99.4815 30.8292C99.127 30.47 98.647 30.2904 98.0412 30.2904C96.8296 30.2904 96.1347 31.0156 95.9564 32.4681V32.4659Z" fill="white"/>
<path d="M104.529 26.5976C104.245 26.3192 104.104 25.9555 104.104 25.5087C104.104 25.0619 104.245 24.6982 104.529 24.4198C104.812 24.1415 105.182 24 105.637 24C106.092 24 106.458 24.1392 106.737 24.4198C107.013 24.6982 107.153 25.0619 107.153 25.5087C107.153 25.9555 107.013 26.3192 106.737 26.5976C106.458 26.876 106.092 27.0175 105.637 27.0175C105.182 27.0175 104.812 26.8783 104.529 26.5976ZM106.906 38.2364H104.312V28.3937H106.906V38.2364Z" fill="white"/>
<path d="M110.223 38.1709C109.514 37.9531 108.915 37.6161 108.424 37.1559L109.635 35.3329C110.381 36.0268 111.327 36.3747 112.477 36.3747C112.982 36.3747 113.364 36.2984 113.622 36.1412C113.881 35.9863 114.011 35.7529 114.011 35.4429C114.011 35.1825 113.894 34.9692 113.661 34.8008C113.428 34.6324 113 34.4753 112.383 34.3271C111.588 34.1542 110.934 33.9612 110.422 33.7501C109.91 33.5391 109.496 33.2405 109.18 32.8566C108.865 32.4726 108.707 31.9697 108.707 31.3501C108.707 30.6922 108.879 30.122 109.219 29.6393C109.56 29.1566 110.047 28.7839 110.678 28.5234C111.309 28.263 112.043 28.1328 112.875 28.1328C113.656 28.1328 114.381 28.2451 115.044 28.4673C115.707 28.6896 116.272 29.0196 116.74 29.4529L115.529 31.2019C115.188 30.8921 114.783 30.6563 114.317 30.4947C113.851 30.333 113.364 30.2522 112.859 30.2522C112.353 30.2522 112.013 30.3263 111.759 30.4767C111.505 30.6249 111.379 30.8494 111.379 31.1458C111.379 31.3186 111.432 31.4646 111.54 31.5836C111.647 31.7026 111.832 31.8148 112.1 31.9271C112.367 32.0393 112.744 32.1493 113.236 32.2616C113.917 32.4232 114.505 32.6163 114.998 32.8386C115.49 33.0609 115.894 33.3774 116.21 33.7883C116.525 34.1969 116.683 34.7178 116.683 35.3509C116.683 35.9841 116.518 36.5363 116.189 37.0078C115.86 37.4792 115.38 37.8451 114.749 38.1058C114.118 38.3662 113.359 38.4964 112.475 38.4964C111.679 38.4964 110.927 38.3886 110.221 38.1709H110.223Z" fill="white"/>
<path d="M127.293 34.2148H120.529C120.618 34.9602 120.862 35.499 121.267 35.8337C121.672 36.1682 122.264 36.3365 123.048 36.3365C123.59 36.3365 124.093 36.2602 124.554 36.1053C125.016 35.9504 125.416 35.7304 125.757 35.4451L126.875 37.1941C126.369 37.6161 125.782 37.9396 125.112 38.1619C124.442 38.3841 123.722 38.4964 122.952 38.4964C121.866 38.4964 120.931 38.2921 120.147 37.8835C119.363 37.4747 118.766 36.8843 118.357 36.1165C117.946 35.3464 117.742 34.4349 117.742 33.3819C117.742 32.329 117.943 31.4219 118.348 30.6271C118.753 29.8324 119.324 29.2195 120.062 28.7839C120.801 28.3506 121.644 28.1328 122.591 28.1328C123.537 28.1328 124.365 28.3439 125.073 28.7659C125.78 29.188 126.326 29.7897 126.712 30.571C127.096 31.3523 127.291 32.2706 127.291 33.3258V34.2193L127.293 34.2148ZM120.529 32.4659H124.678C124.614 31.734 124.406 31.1884 124.054 30.8292C123.699 30.47 123.219 30.2904 122.614 30.2904C121.402 30.2904 120.707 31.0156 120.529 32.4681V32.4659Z" fill="white"/>
<path d="M136.337 28.588C136.875 28.8911 137.288 29.3356 137.579 29.9193C137.869 30.5031 138.015 31.2036 138.015 32.023V38.2375H135.4V32.3396C135.4 31.7065 135.251 31.2327 134.954 30.9162C134.657 30.5996 134.207 30.4425 133.599 30.4425C133.144 30.4425 132.744 30.5413 132.396 30.7411C132.049 30.9409 131.743 31.2372 131.478 31.6346V38.2397H128.883V28.3972H131.478V29.5512C131.793 29.1044 132.207 28.7564 132.719 28.5094C133.231 28.2625 133.802 28.1367 134.433 28.1367C135.165 28.1367 135.8 28.2894 136.337 28.5925V28.588Z" fill="white"/>
<path d="M153.255 32.7373C153.621 33.2514 153.804 33.8823 153.804 34.6254C153.804 35.7794 153.427 36.6707 152.677 37.295C151.925 37.9213 150.862 38.2356 149.486 38.2356H144.312V25.582H149.031C150.395 25.582 151.449 25.8694 152.195 26.4464C152.94 27.0234 153.312 27.8384 153.312 28.8936C153.312 30.1464 152.764 31.0467 151.664 31.5923C152.359 31.8415 152.889 32.2231 153.255 32.7373ZM147.04 27.8519V30.8109H148.82C149.401 30.8109 149.828 30.6875 150.098 30.4382C150.37 30.1913 150.505 29.8253 150.505 29.3404C150.505 28.8083 150.359 28.4266 150.069 28.1954C149.778 27.9664 149.342 27.8519 148.761 27.8519H147.037H147.04ZM149.161 35.9635C149.755 35.9635 150.199 35.84 150.496 35.5909C150.793 35.3439 150.942 34.9465 150.942 34.4009C150.942 33.8913 150.8 33.5141 150.517 33.2649C150.233 33.0157 149.762 32.8922 149.106 32.8922H147.042V35.9635H149.163H149.161Z" fill="white"/>
<path d="M162.007 28.3932H164.602V38.2359H162.007V37.0638C161.678 37.5108 161.262 37.861 160.756 38.1147C160.251 38.3684 159.682 38.4963 159.051 38.4963C158.231 38.4963 157.497 38.2763 156.855 37.8363C156.21 37.3963 155.709 36.781 155.348 35.993C154.987 35.205 154.809 34.3159 154.809 33.3236C154.809 32.3312 154.989 31.4219 155.348 30.6339C155.707 29.8458 156.21 29.2329 156.855 28.7929C157.499 28.3528 158.231 28.1328 159.051 28.1328C159.682 28.1328 160.251 28.263 160.756 28.5235C161.262 28.7839 161.678 29.1386 162.007 29.5854V28.3932ZM160.983 35.8538C161.324 35.6316 161.593 35.3038 161.788 34.8772C161.984 34.4484 162.08 33.932 162.08 33.3236C162.08 32.7151 161.982 32.1987 161.788 31.7699C161.591 31.3434 161.324 31.0156 160.983 30.7933C160.642 30.571 160.251 30.4588 159.808 30.4588C159.364 30.4588 158.971 30.571 158.624 30.7933C158.276 31.0156 158.009 31.3434 157.819 31.7699C157.629 32.1987 157.536 32.7151 157.536 33.3236C157.536 33.932 157.629 34.4484 157.819 34.8772C158.009 35.3038 158.276 35.6316 158.624 35.8538C158.971 36.0783 159.367 36.1883 159.808 36.1883C160.249 36.1883 160.642 36.0761 160.983 35.8538Z" fill="white"/>
<path d="M174.273 28.588C174.81 28.8911 175.224 29.3356 175.514 29.9193C175.804 30.5031 175.951 31.2036 175.951 32.023V38.2375H173.336V32.3396C173.336 31.7065 173.187 31.2327 172.89 30.9162C172.593 30.5996 172.142 30.4425 171.534 30.4425C171.079 30.4425 170.679 30.5413 170.332 30.7411C169.984 30.9409 169.678 31.2372 169.413 31.6346V38.2397H166.818V28.3972H169.413V29.5512C169.728 29.1044 170.142 28.7564 170.654 28.5094C171.166 28.2625 171.738 28.1367 172.369 28.1367C173.1 28.1367 173.736 28.2894 174.273 28.5925V28.588Z" fill="white"/>
<path d="M183.071 32.9857L187.087 38.2326H183.98L180.552 33.7671V38.2326H177.957V24.8359H180.552V32.3908L183.811 28.39H186.9L183.073 32.9857H183.071Z" fill="white"/>
<path d="M53.8797 55.1067H52.7617V42.4531H53.8797V55.1067Z" fill="white"/>
<path d="M62.5181 45.7868C62.9981 46.0472 63.3684 46.4266 63.6269 46.9229C63.8852 47.4191 64.0155 48.014 64.0155 48.7101V55.1108H62.9364V48.8403C62.9364 48.0454 62.7284 47.4393 62.3124 47.0172C61.8964 46.5952 61.3087 46.3839 60.5499 46.3839C59.3247 46.3839 58.3576 46.9611 57.6513 48.115V55.1108H56.5723V45.6027H57.6513V47.0913C57.9919 46.5593 58.4308 46.1415 58.9679 45.8452C59.5053 45.5466 60.1202 45.3984 60.815 45.3984C61.4712 45.3984 62.0404 45.5286 62.5204 45.7891L62.5181 45.7868Z" fill="white"/>
<path d="M71.8379 54.9004C71.2937 55.1721 70.6628 55.309 69.9428 55.309C68.0729 55.309 67.138 54.3729 67.138 52.4982V46.562H65.3184V45.5944H67.138V43.1562H68.2192V45.5944H71.6116V46.562H68.2192V52.4039C68.2192 53.0616 68.3677 53.5445 68.6649 53.8543C68.962 54.1641 69.4262 54.319 70.0571 54.319C70.6262 54.319 71.1062 54.2135 71.4973 54.0025L71.8379 54.8959V54.9004Z" fill="white"/>
<path d="M80.7059 50.6977H73.5439C73.5942 51.9009 73.9075 52.8103 74.4812 53.4232C75.055 54.036 75.862 54.3436 76.8975 54.3436C78.1343 54.3436 79.1148 53.9283 79.8348 53.0977L80.4042 53.8609C79.988 54.3189 79.4783 54.6758 78.8794 54.9297C78.2806 55.1834 77.606 55.3114 76.8609 55.3114C75.9512 55.3114 75.1624 55.1161 74.4927 54.7252C73.823 54.3346 73.3084 53.7689 72.9496 53.0326C72.5907 52.2938 72.4102 51.4115 72.4102 50.3809C72.4102 49.3505 72.5839 48.4795 72.9313 47.7294C73.2787 46.9797 73.7681 46.4027 74.399 45.9984C75.0298 45.5966 75.7635 45.3945 76.5958 45.3945C77.4278 45.3945 78.1366 45.5921 78.756 45.9894C79.3754 46.387 79.8554 46.9594 80.196 47.7115C80.5368 48.4615 80.7082 49.346 80.7082 50.3629V50.6977H80.7059ZM74.4721 47.2737C73.9418 47.8686 73.6378 48.7242 73.5622 49.8421H79.6063C79.556 48.7376 79.2657 47.8843 78.7354 47.2827C78.2051 46.6811 77.4918 46.3803 76.5935 46.3803C75.695 46.3803 75.0024 46.6788 74.4721 47.2737Z" fill="white"/>
<path d="M87.2227 45.5225V46.5643C86.9438 46.5396 86.7358 46.5261 86.5987 46.5261C85.9541 46.5261 85.3985 46.6878 84.9322 47.0088C84.4636 47.3321 84.0545 47.8035 83.7002 48.4233V55.1025H82.6211V45.5943H83.7002V47.4174C84.0408 46.7978 84.4522 46.3241 84.9322 45.9939C85.4124 45.6661 85.9861 45.5 86.6558 45.5C86.9096 45.5 87.097 45.5067 87.225 45.518L87.2227 45.5225Z" fill="white"/>
<path d="M94.8208 45.7868C95.3008 46.0472 95.6711 46.4266 95.9294 46.9229C96.1877 47.4191 96.318 48.014 96.318 48.7101V55.1108H95.2391V48.8403C95.2391 48.0454 95.0311 47.4393 94.6151 47.0172C94.1989 46.5952 93.6115 46.3839 92.8526 46.3839C91.6272 46.3839 90.6604 46.9611 89.9541 48.115V55.1108H88.875V45.6027H89.9541V47.0913C90.2947 46.5593 90.7335 46.1415 91.2707 45.8452C91.8078 45.5466 92.4229 45.3984 93.1177 45.3984C93.7737 45.3984 94.3431 45.5286 94.8231 45.7891L94.8208 45.7868Z" fill="white"/>
<path d="M105.354 45.5982H106.433V55.1063H105.354V53.2091C105.05 53.8671 104.611 54.3812 104.037 54.7538C103.461 55.1265 102.803 55.3128 102.057 55.3128C101.273 55.3128 100.576 55.1085 99.9633 54.7C99.3508 54.2914 98.8708 53.7144 98.5233 52.9689C98.1757 52.2236 98.002 51.3568 98.002 50.3646C98.002 49.3724 98.1757 48.5011 98.5233 47.7513C98.8708 47.0015 99.3508 46.4199 99.9633 46.0113C100.576 45.6027 101.273 45.3984 102.057 45.3984C102.841 45.3984 103.463 45.5848 104.037 45.9574C104.611 46.3301 105.05 46.8509 105.354 47.5201V45.6027V45.5982ZM103.943 53.8514C104.416 53.5346 104.782 53.0767 105.043 52.475C105.301 51.8734 105.431 51.1705 105.431 50.3624C105.431 49.5542 105.301 48.8334 105.043 48.2317C104.784 47.6301 104.419 47.1721 103.943 46.8554C103.47 46.5388 102.924 46.3817 102.304 46.3817C101.685 46.3817 101.12 46.5411 100.647 46.8554C100.174 47.1721 99.8033 47.6301 99.5382 48.2317C99.273 48.8334 99.1405 49.543 99.1405 50.3624C99.1405 51.1817 99.273 51.8891 99.5382 52.484C99.8033 53.0789 100.174 53.5346 100.647 53.8514C101.12 54.1679 101.673 54.3251 102.304 54.3251C102.935 54.3251 103.47 54.1679 103.943 53.8514Z" fill="white"/>
<path d="M114.484 54.9004C113.94 55.1721 113.309 55.309 112.589 55.309C110.719 55.309 109.785 54.3729 109.785 52.4982V46.562H107.965V45.5944H109.785V43.1562H110.866V45.5944H114.258V46.562H110.866V52.4039C110.866 53.0616 111.014 53.5445 111.311 53.8543C111.608 54.1641 112.073 54.319 112.704 54.319C113.273 54.319 113.753 54.2135 114.144 54.0025L114.484 54.8959V54.9004Z" fill="white"/>
<path d="M116.021 43.2565C115.856 43.1083 115.773 42.9085 115.773 42.6616C115.773 42.4146 115.856 42.2126 116.021 42.0577C116.185 41.9028 116.386 41.8242 116.626 41.8242C116.878 41.8242 117.083 41.9028 117.241 42.0577C117.399 42.2126 117.479 42.4146 117.479 42.6616C117.479 42.9085 117.399 43.1083 117.241 43.2565C117.083 43.4046 116.878 43.4787 116.626 43.4787C116.375 43.4787 116.185 43.4046 116.021 43.2565ZM117.157 55.1086H116.078V45.6004H117.157V55.1086Z" fill="white"/>
<path d="M121.19 54.7058C120.52 54.304 119.999 53.7268 119.626 52.9748C119.254 52.225 119.066 51.3538 119.066 50.3593C119.066 49.3645 119.256 48.4935 119.636 47.7347C120.015 46.978 120.539 46.3988 121.208 45.9947C121.878 45.5929 122.635 45.3906 123.481 45.3906C124.326 45.3906 125.104 45.5929 125.773 45.9947C126.443 46.3988 126.964 46.9757 127.337 47.7258C127.71 48.4756 127.897 49.3533 127.897 50.3593C127.897 51.365 127.71 52.2228 127.337 52.9748C126.964 53.7246 126.443 54.3018 125.773 54.7058C125.104 55.1077 124.34 55.3097 123.481 55.3097C122.621 55.3097 121.857 55.1077 121.188 54.7058H121.19ZM125.216 53.8503C125.714 53.5338 126.1 53.0781 126.372 52.4832C126.644 51.888 126.779 51.1809 126.779 50.3615C126.779 49.5419 126.644 48.8325 126.372 48.2309C126.1 47.629 125.716 47.1711 125.216 46.8545C124.717 46.538 124.139 46.3809 123.483 46.3809C122.827 46.3809 122.251 46.5402 121.759 46.8545C121.265 47.1711 120.884 47.629 120.614 48.2309C120.342 48.8325 120.207 49.5419 120.207 50.3615C120.207 51.1809 120.342 51.888 120.614 52.4832C120.886 53.0781 121.268 53.5338 121.759 53.8503C122.251 54.1668 122.827 54.3242 123.483 54.3242C124.139 54.3242 124.717 54.1668 125.216 53.8503Z" fill="white"/>
<path d="M135.762 45.7868C136.242 46.0472 136.613 46.4266 136.871 46.9229C137.129 47.4191 137.26 48.014 137.26 48.7101V55.1108H136.181V48.8403C136.181 48.0454 135.973 47.4393 135.557 47.0172C135.141 46.5952 134.553 46.3839 133.794 46.3839C132.569 46.3839 131.602 46.9611 130.895 48.115V55.1108H129.816V45.6027H130.895V47.0913C131.236 46.5593 131.675 46.1415 132.212 45.8452C132.749 45.5466 133.364 45.3984 134.059 45.3984C134.715 45.3984 135.285 45.5286 135.765 45.7891L135.762 45.7868Z" fill="white"/>
<path d="M146.297 45.5982H147.376V55.1063H146.297V53.2091C145.993 53.8671 145.554 54.3812 144.98 54.7538C144.404 55.1265 143.746 55.3128 143 55.3128C142.216 55.3128 141.519 55.1085 140.906 54.7C140.294 54.2914 139.814 53.7144 139.466 52.9689C139.119 52.2236 138.945 51.3568 138.945 50.3646C138.945 49.3724 139.119 48.5011 139.466 47.7513C139.814 47.0015 140.294 46.4199 140.906 46.0113C141.519 45.6027 142.216 45.3984 143 45.3984C143.785 45.3984 144.406 45.5848 144.98 45.9574C145.554 46.3301 145.993 46.8509 146.297 47.5201V45.6027V45.5982ZM144.886 53.8514C145.359 53.5346 145.725 53.0767 145.986 52.475C146.244 51.8734 146.375 51.1705 146.375 50.3624C146.375 49.5542 146.244 48.8334 145.986 48.2317C145.728 47.6301 145.362 47.1721 144.886 46.8554C144.411 46.5388 143.867 46.3817 143.247 46.3817C142.628 46.3817 142.063 46.5411 141.59 46.8554C141.117 47.1721 140.746 47.6301 140.481 48.2317C140.216 48.8334 140.084 49.543 140.084 50.3624C140.084 51.1817 140.216 51.8891 140.481 52.484C140.746 53.0789 141.117 53.5346 141.59 53.8514C142.063 54.1679 142.616 54.3251 143.247 54.3251C143.878 54.3251 144.413 54.1679 144.886 53.8514Z" fill="white"/>
<path d="M151.126 55.1076H150.047V41.7109H151.126V55.1076Z" fill="white"/>
<path fill-rule="evenodd" clip-rule="evenodd" d="M13 25.582H43.0602V55.1078H13V25.582ZM38.5683 34.4832L34.737 38.246L33.681 37.2089V34.7301L32.5951 35.7966V38.7938L31.1002 40.2622L38.8586 47.882L35.7887 50.8974L28.0301 43.2773L20.2716 50.8974L17.2016 47.882L24.9601 40.2622L23.465 38.7938V35.7966L22.3792 34.7301V37.2089L21.3231 38.246L17.4919 34.4832L16.4678 35.4891L16.4609 35.4823C16.4609 34.8357 16.6552 32.613 18.4726 30.873C20.5093 28.9243 22.5461 30.0625 23.2479 30.7518L26.9375 34.3754L26.023 35.2735L28.0301 37.2448L30.0371 35.2735L29.1229 34.3754L32.8122 30.7518C33.5165 30.0648 35.5533 28.9243 37.5878 30.873C39.4049 32.613 39.5992 34.8357 39.5992 35.4823L39.5923 35.4891L38.5683 34.4832Z" fill="white"/>
</svg>
