<svg width="200" height="80" fill="none" xmlns="http://www.w3.org/2000/svg"><path d="m59.43 38.236-2.805-5.005h-1.136v5.005h-2.727V25.582h5.173c.884 0 1.648.146 2.293.438.644.292 1.136.716 1.476 1.275.341.56.513 1.228.513 2.01 0 .918-.25 1.686-.748 2.308-.498.621-1.21 1.055-2.13 1.302l3.127 5.32H59.43ZM55.489 27.89v3.22h2.121c.57 0 1.004-.14 1.308-.418.304-.279.455-.685.455-1.22 0-.534-.151-.96-.455-1.21-.304-.248-.745-.372-1.326-.372H55.49ZM70.284 28.393h2.595v9.843h-2.595v-1.172c-.329.447-.745.797-1.25 1.05a3.75 3.75 0 0 1-1.705.382c-.82 0-1.555-.22-2.197-.66-.645-.44-1.146-1.055-1.507-1.843-.36-.788-.54-1.677-.54-2.67 0-.992.181-1.901.54-2.69.36-.787.862-1.4 1.507-1.84.644-.44 1.376-.66 2.197-.66.63 0 1.2.13 1.705.39.505.26.921.616 1.25 1.062v-1.192Zm-1.024 7.46c.34-.221.61-.55.805-.976.197-.429.293-.945.293-1.553 0-.609-.099-1.125-.293-1.554-.197-.427-.464-.754-.805-.977a2.1 2.1 0 0 0-1.175-.334c-.443 0-.836.112-1.184.334-.347.223-.615.55-.805.977-.19.429-.283.945-.283 1.554 0 .608.094 1.124.283 1.553.19.427.458.755.805.977.348.224.743.334 1.184.334.441 0 .835-.112 1.175-.334ZM75.316 26.598c-.284-.279-.425-.642-.425-1.09 0-.446.141-.81.425-1.088.283-.279.654-.42 1.109-.42.454 0 .82.14 1.099.42.277.278.416.642.416 1.089 0 .447-.14.81-.416 1.089-.279.278-.645.42-1.1.42-.454 0-.825-.14-1.108-.42Zm2.377 11.638H75.1v-9.842h2.594v9.842ZM83.245 28.393h2.748v2.234h-2.748v7.611H80.65v-7.61h-1.705v-2.235h1.706v-.595c0-1.08.315-1.904.946-2.474.63-.57 1.497-.855 2.595-.855.404 0 .788.036 1.156.112.366.074.702.175 1.004.299l-.663 1.953a2.97 2.97 0 0 0-1.118-.204c-.469 0-.805.105-1.013.316-.208.211-.313.535-.313.968v.482-.002Z" fill="#fff"/><path d="M89.876 28.393h2.748v2.234h-2.748v7.611h-2.595v-7.61h-1.705v-2.235h1.706v-.595c0-1.08.315-1.904.946-2.474.63-.57 1.497-.855 2.594-.855.405 0 .79.036 1.157.112.366.074.702.175 1.004.299l-.663 1.953a2.968 2.968 0 0 0-1.118-.204c-.469 0-.805.105-1.013.316-.208.211-.313.535-.313.968v.482-.002ZM102.721 34.215h-6.765c.09.745.334 1.284.739 1.619.405.334.997.502 1.78.502.542 0 1.045-.076 1.507-.23a3.653 3.653 0 0 0 1.202-.66l1.118 1.748a5.35 5.35 0 0 1-1.762.968c-.67.222-1.39.334-2.16.334-1.086 0-2.021-.204-2.805-.613-.784-.408-1.381-.999-1.79-1.767-.412-.77-.615-1.681-.615-2.734s.201-1.96.606-2.755a4.412 4.412 0 0 1 1.714-1.843c.738-.433 1.582-.651 2.528-.651.947 0 1.774.21 2.483.633.706.422 1.253 1.024 1.639 1.805.384.781.578 1.7.578 2.755v.893l.003-.004Zm-6.765-1.75h4.149c-.064-.731-.272-1.277-.624-1.636-.354-.359-.834-.539-1.44-.539-1.211 0-1.906.726-2.085 2.178v-.002ZM104.529 26.598c-.284-.279-.425-.642-.425-1.09 0-.446.141-.81.425-1.088.283-.279.653-.42 1.108-.42.455 0 .821.14 1.1.42.276.278.416.642.416 1.089 0 .447-.14.81-.416 1.089-.279.278-.645.42-1.1.42-.455 0-.825-.14-1.108-.42Zm2.377 11.638h-2.594v-9.842h2.594v9.842ZM110.223 38.17c-.709-.217-1.308-.554-1.799-1.014l1.211-1.823c.746.694 1.692 1.042 2.842 1.042.505 0 .887-.077 1.145-.234a.762.762 0 0 0 .389-.698c0-.26-.117-.474-.35-.642-.233-.169-.661-.326-1.278-.474-.795-.173-1.449-.366-1.961-.577a3.108 3.108 0 0 1-1.242-.893c-.315-.384-.473-.887-.473-1.507 0-.658.172-1.228.512-1.71.341-.483.828-.856 1.459-1.117.631-.26 1.365-.39 2.197-.39.781 0 1.506.112 2.169.334a4.624 4.624 0 0 1 1.696.986l-1.211 1.749a3.471 3.471 0 0 0-1.212-.707 4.42 4.42 0 0 0-1.458-.243c-.506 0-.846.074-1.1.225a.726.726 0 0 0-.38.669c0 .173.053.319.161.438.107.119.292.23.56.343.267.112.644.222 1.136.335a9.842 9.842 0 0 1 1.762.577c.492.222.896.538 1.212.95.315.408.473.929.473 1.562s-.165 1.185-.494 1.657c-.329.471-.809.837-1.44 1.098-.631.26-1.39.39-2.274.39a7.612 7.612 0 0 1-2.254-.325h.002ZM127.293 34.215h-6.764c.089.745.333 1.284.738 1.619.405.334.997.502 1.781.502.542 0 1.045-.076 1.506-.23a3.668 3.668 0 0 0 1.203-.66l1.118 1.748a5.355 5.355 0 0 1-1.763.968 6.82 6.82 0 0 1-2.16.334c-1.086 0-2.021-.204-2.805-.613a4.16 4.16 0 0 1-1.79-1.767c-.411-.77-.615-1.681-.615-2.734s.201-1.96.606-2.755a4.415 4.415 0 0 1 1.714-1.843c.739-.433 1.582-.651 2.529-.651.946 0 1.774.21 2.482.633.707.422 1.253 1.024 1.639 1.805.384.781.579 1.7.579 2.755v.893l.002-.004Zm-6.764-1.75h4.149c-.064-.731-.272-1.277-.624-1.636-.355-.359-.835-.539-1.44-.539-1.212 0-1.907.726-2.085 2.178v-.002ZM136.337 28.588a3.04 3.04 0 0 1 1.242 1.331c.29.584.436 1.285.436 2.104v6.214H135.4V32.34c0-.634-.149-1.107-.446-1.424-.297-.316-.747-.474-1.355-.474a2.37 2.37 0 0 0-1.203.3c-.347.199-.653.495-.918.893v6.605h-2.595v-9.843h2.595v1.154a3.181 3.181 0 0 1 1.241-1.042 3.895 3.895 0 0 1 1.714-.372c.732 0 1.367.152 1.904.456v-.005ZM153.255 32.737c.366.514.549 1.145.549 1.888 0 1.154-.377 2.046-1.127 2.67-.752.626-1.815.94-3.191.94h-5.174V25.583h4.719c1.364 0 2.418.287 3.164.864.745.577 1.117 1.392 1.117 2.448 0 1.252-.548 2.153-1.648 2.698.695.25 1.225.631 1.591 1.145Zm-6.215-4.885v2.959h1.78c.581 0 1.008-.123 1.278-.373.272-.247.407-.613.407-1.098 0-.532-.146-.913-.436-1.145-.291-.229-.727-.343-1.308-.343h-1.724.003Zm2.121 8.112c.594 0 1.038-.124 1.335-.373.297-.247.446-.645.446-1.19 0-.51-.142-.887-.425-1.136-.284-.25-.755-.373-1.411-.373h-2.064v3.072h2.121-.002ZM162.007 28.393h2.595v9.843h-2.595v-1.172a3.447 3.447 0 0 1-1.251 1.05 3.747 3.747 0 0 1-1.705.382c-.82 0-1.554-.22-2.196-.66-.645-.44-1.146-1.055-1.507-1.843s-.539-1.677-.539-2.67c0-.992.18-1.901.539-2.69.359-.787.862-1.4 1.507-1.84.644-.44 1.376-.66 2.196-.66.631 0 1.2.13 1.705.39.506.26.922.616 1.251 1.062v-1.192Zm-1.024 7.46c.341-.221.61-.55.805-.976.196-.429.292-.945.292-1.553 0-.609-.098-1.125-.292-1.554-.197-.427-.464-.754-.805-.977a2.102 2.102 0 0 0-1.175-.334c-.444 0-.837.112-1.184.334-.348.223-.615.55-.805.977-.19.429-.283.945-.283 1.554 0 .608.093 1.124.283 1.553.19.427.457.755.805.977.347.224.743.334 1.184.334.441 0 .834-.112 1.175-.334ZM174.273 28.588c.537.303.951.748 1.241 1.331.29.584.437 1.285.437 2.104v6.214h-2.615V32.34c0-.634-.149-1.107-.446-1.424-.297-.316-.748-.474-1.356-.474-.455 0-.855.1-1.202.3-.348.199-.654.495-.919.893v6.605h-2.595v-9.843h2.595v1.154a3.181 3.181 0 0 1 1.241-1.042 3.9 3.9 0 0 1 1.715-.372c.731 0 1.367.152 1.904.456v-.005ZM183.071 32.986l4.016 5.247h-3.107l-3.428-4.466v4.466h-2.595V24.836h2.595v7.555l3.259-4.001h3.089l-3.827 4.596h-.002ZM53.88 55.107h-1.118V42.453h1.118v12.654ZM62.518 45.787c.48.26.85.64 1.109 1.136.258.496.389 1.091.389 1.787v6.4h-1.08v-6.27c0-.795-.208-1.4-.624-1.823-.416-.422-1.003-.633-1.762-.633-1.225 0-2.192.577-2.899 1.731v6.996h-1.079v-9.508h1.08v1.488c.34-.532.779-.95 1.316-1.246.537-.298 1.152-.447 1.847-.447.656 0 1.225.13 1.705.391l-.002-.002ZM71.838 54.9c-.544.272-1.175.409-1.895.409-1.87 0-2.805-.936-2.805-2.81v-5.937h-1.82v-.968h1.82v-2.438h1.081v2.438h3.393v.968h-3.393v5.842c0 .658.149 1.14.446 1.45.297.31.761.465 1.392.465.57 0 1.05-.105 1.44-.317l.34.894v.004ZM80.706 50.698h-7.162c.05 1.203.364 2.112.937 2.725.574.613 1.381.92 2.416.92 1.237 0 2.218-.415 2.938-1.245l.57.763a4.3 4.3 0 0 1-1.526 1.069c-.598.253-1.273.381-2.018.381-.91 0-1.699-.195-2.368-.586-.67-.39-1.185-.956-1.543-1.692-.36-.74-.54-1.622-.54-2.652s.174-1.901.521-2.652c.348-.75.837-1.326 1.468-1.73.63-.402 1.364-.605 2.197-.605.832 0 1.54.198 2.16.595.62.398 1.1.97 1.44 1.723.34.75.512 1.634.512 2.65v.336h-.002Zm-6.234-3.424c-.53.595-.834 1.45-.91 2.568h6.044c-.05-1.104-.34-1.958-.87-2.56-.53-.6-1.244-.902-2.142-.902-.899 0-1.592.299-2.122.894ZM87.223 45.523v1.041a7.911 7.911 0 0 0-.624-.038c-.645 0-1.2.162-1.667.483-.468.323-.877.794-1.232 1.414v6.68h-1.079v-9.509h1.08v1.823c.34-.62.751-1.093 1.231-1.423.48-.328 1.054-.494 1.724-.494.254 0 .441.007.569.018l-.002.005ZM94.82 45.787c.48.26.851.64 1.11 1.136.258.496.388 1.091.388 1.787v6.4h-1.079v-6.27c0-.795-.208-1.4-.624-1.823-.416-.422-1.003-.633-1.762-.633-1.226 0-2.193.577-2.899 1.731v6.996h-1.079v-9.508h1.08v1.488c.34-.532.779-.95 1.316-1.246.537-.298 1.152-.447 1.847-.447.656 0 1.225.13 1.705.391l-.002-.002ZM105.354 45.598h1.079v9.508h-1.079V53.21a3.589 3.589 0 0 1-1.317 1.545c-.576.373-1.234.559-1.98.559-.784 0-1.481-.205-2.094-.613-.612-.409-1.092-.986-1.44-1.731-.347-.745-.521-1.612-.521-2.604 0-.993.174-1.864.521-2.614.348-.75.828-1.331 1.44-1.74.613-.408 1.31-.613 2.094-.613.784 0 1.406.187 1.98.56.574.372 1.013.893 1.317 1.562v-1.922Zm-1.411 8.253c.473-.316.839-.774 1.1-1.376.258-.602.388-1.305.388-2.113s-.13-1.529-.388-2.13c-.259-.602-.624-1.06-1.1-1.377-.473-.316-1.019-.473-1.639-.473-.619 0-1.184.16-1.657.473-.473.317-.844.775-1.109 1.377-.265.601-.397 1.311-.397 2.13 0 .82.132 1.527.397 2.122s.636 1.05 1.109 1.367c.473.317 1.026.474 1.657.474s1.166-.157 1.639-.474ZM114.484 54.9c-.544.272-1.175.409-1.895.409-1.87 0-2.804-.936-2.804-2.81v-5.937h-1.82v-.968h1.82v-2.438h1.081v2.438h3.392v.968h-3.392v5.842c0 .658.148 1.14.445 1.45.297.31.762.465 1.393.465.569 0 1.049-.105 1.44-.317l.34.894v.004ZM116.021 43.257a.763.763 0 0 1-.248-.595c0-.247.083-.45.248-.604a.848.848 0 0 1 .605-.234c.252 0 .457.079.615.234a.81.81 0 0 1 .238.604.78.78 0 0 1-.238.595.863.863 0 0 1-.615.222.85.85 0 0 1-.605-.222Zm1.136 11.852h-1.079V45.6h1.079v9.509ZM121.19 54.706c-.67-.402-1.191-.98-1.564-1.731-.372-.75-.56-1.621-.56-2.616 0-.995.19-1.866.57-2.624.379-.757.903-1.336 1.572-1.74.67-.402 1.427-.604 2.273-.604.845 0 1.623.202 2.292.604.67.404 1.191.98 1.564 1.73s.56 1.628.56 2.634-.187 1.864-.56 2.616c-.373.75-.894 1.327-1.564 1.73-.669.403-1.433.605-2.292.605-.86 0-1.624-.202-2.293-.604h.002Zm4.026-.856c.498-.316.884-.772 1.156-1.367.272-.595.407-1.302.407-2.121 0-.82-.135-1.53-.407-2.131-.272-.602-.656-1.06-1.156-1.377-.499-.316-1.077-.473-1.733-.473-.656 0-1.232.16-1.724.474-.494.316-.875.774-1.145 1.376-.272.602-.407 1.31-.407 2.13 0 .82.135 1.527.407 2.122.272.595.654 1.05 1.145 1.367.492.317 1.068.474 1.724.474.656 0 1.234-.157 1.733-.474ZM135.762 45.787c.48.26.851.64 1.109 1.136.258.496.389 1.091.389 1.787v6.4h-1.079v-6.27c0-.795-.208-1.4-.624-1.823-.416-.422-1.004-.633-1.763-.633-1.225 0-2.192.577-2.899 1.731v6.996h-1.079v-9.508h1.079v1.488c.341-.532.78-.95 1.317-1.246.537-.298 1.152-.447 1.847-.447.656 0 1.226.13 1.706.391l-.003-.002ZM146.297 45.598h1.079v9.508h-1.079V53.21a3.589 3.589 0 0 1-1.317 1.545c-.576.373-1.234.559-1.98.559-.784 0-1.481-.205-2.094-.613-.612-.409-1.092-.986-1.44-1.731-.347-.745-.521-1.612-.521-2.604 0-.993.174-1.864.521-2.614.348-.75.828-1.331 1.44-1.74.613-.408 1.31-.613 2.094-.613.785 0 1.406.187 1.98.56.574.372 1.013.893 1.317 1.562v-1.922Zm-1.411 8.253c.473-.316.839-.774 1.1-1.376.258-.602.389-1.305.389-2.113s-.131-1.529-.389-2.13c-.258-.602-.624-1.06-1.1-1.377-.475-.316-1.019-.473-1.639-.473-.619 0-1.184.16-1.657.473-.473.317-.844.775-1.109 1.377-.265.601-.397 1.311-.397 2.13 0 .82.132 1.527.397 2.122s.636 1.05 1.109 1.367c.473.317 1.026.474 1.657.474s1.166-.157 1.639-.474ZM151.126 55.108h-1.079V41.71h1.079v13.397Z" fill="#fff"/><path fill-rule="evenodd" clip-rule="evenodd" d="M13 25.582h30.06v29.526H13V25.582Zm25.568 8.901-3.831 3.763-1.056-1.037V34.73l-1.086 1.067v2.997L31.1 40.262l7.759 7.62-3.07 3.015-7.759-7.62-7.758 7.62-3.07-3.015 7.758-7.62-1.495-1.468v-2.997l-1.086-1.067v2.479l-1.056 1.037-3.831-3.763-1.024 1.006-.007-.007c0-.646.194-2.869 2.012-4.609 2.036-1.949 4.073-.81 4.775-.121l3.69 3.623-.915.898 2.007 1.972 2.007-1.971-.914-.899 3.69-3.623c.703-.687 2.74-1.828 4.775.121 1.817 1.74 2.011 3.963 2.011 4.61l-.007.006-1.024-1.006Z" fill="#fff"/></svg>