<svg width="200" height="80" fill="none" xmlns="http://www.w3.org/2000/svg"><path d="M48.243 60.95A.602.602 0 0 1 48 60.9v-.001a.655.655 0 0 1-.065-.033L30.304 50.682a.608.608 0 0 1-.304-.527l.001-8.683a.607.607 0 0 1 1.053-.415l6.48 6.933a.623.623 0 0 1 .122-.046l15.027-3.78 4.58-14.597a.608.608 0 1 1 1.161.364l-4.357 13.884 11.668-2.935a.608.608 0 0 1 .756.59l-.001 8.692a.609.609 0 0 1-.304.527L48.55 60.867a.573.573 0 0 1-.083.04h-.001a.631.631 0 0 1-.224.043Zm-9.772-11.956 9.505 10.17 4.28-13.638-13.785 3.468Zm15.169-3.817-4.35 13.858 15.984-9.224.001-7.562-11.635 2.928Zm-22.424 4.628L45.01 57.77 31.217 43.014v6.79Z" fill="#fff"/><path d="M37.805 49.144a.609.609 0 0 1-.571-.815l10.441-28.912a.66.66 0 0 1 .064-.133.605.605 0 0 1 .37-.263h.001a.604.604 0 0 1 .449.067L66.19 29.27c.188.109.304.31.304.527l-.001 8.432a.61.61 0 0 1-1.05.419L48.488 20.746l-10.11 27.995a.608.608 0 0 1-.573.402ZM51.57 22.23l13.708 14.473.001-6.555-13.71-7.918Z" fill="#fff"/><path d="M48.243 60.95a.608.608 0 0 1-.58-.79l9.601-30.593a.608.608 0 1 1 1.16.364l-9.6 30.592a.609.609 0 0 1-.581.426Z" fill="#fff"/><path d="M57.802 55.43a.607.607 0 0 1-.412-.16L30.2 30.235a.608.608 0 0 1 .824-.895l27.19 25.035a.608.608 0 0 1-.412 1.055Z" fill="#fff"/><path d="M37.805 49.14a.609.609 0 0 1-.571-.815l10.445-28.923a.608.608 0 1 1 1.144.413L38.377 48.739a.608.608 0 0 1-.572.401Z" fill="#fff"/><path d="M48.244 60.947a.608.608 0 0 1-.445-.193L30.166 41.885a.608.608 0 1 1 .889-.83L48.358 59.57l8.838-5.1.04-23.893-26.441 8.37a.608.608 0 0 1-.792-.58l.001-8.58c0-.217.116-.418.304-.527l17.639-10.18a.608.608 0 0 1 .608 1.054L31.22 30.14l-.001 7.399 26.442-8.37a.608.608 0 0 1 .792.58l-.042 25.076a.61.61 0 0 1-.304.526l-9.56 5.516a.611.611 0 0 1-.303.081Z" fill="#fff"/><path d="m47.973 59.16-.312.995a.608.608 0 0 0 .34.74c.012.006.024.01.036.014l.022.009a.531.531 0 0 0 .103.021c.024.004.05.005.074.006h.015a.631.631 0 0 0 .078-.006l.03-.006a.593.593 0 0 0 .14-.046l.03-.014a.606.606 0 0 0 .293-.353l.467-1.489-1.316.13ZM56.783 54.71l.61.56a.605.605 0 0 0 .706.084l.003-.002.013-.009a.75.75 0 0 0 .051-.034l.019-.014a.754.754 0 0 0 .037-.033l.02-.019a.62.62 0 0 0 .036-.041l.01-.013a.626.626 0 0 0 .04-.06c.003-.003.004-.007.006-.011a.462.462 0 0 0 .027-.054l.007-.017a.499.499 0 0 0 .02-.057l.003-.012a.696.696 0 0 0 .02-.145.606.606 0 0 0-.195-.459l-1.018-.937-.415 1.272ZM84.748 34.892a3.433 3.433 0 0 0-.737-.622 6.63 6.63 0 0 0-1.036-.542 7.318 7.318 0 0 0-1.256-.392 6.58 6.58 0 0 0-1.417-.15c-1.275 0-2.208.24-2.799.715-.591.476-.887 1.129-.887 1.958 0 .446.084.814.254 1.106.168.291.433.541.794.748.361.208.81.388 1.348.542.537.154 1.175.315 1.912.484.845.184 1.61.395 2.293.633.683.239 1.267.534 1.75.887.484.354.853.784 1.106 1.29.254.507.38 1.13.38 1.866 0 .784-.153 1.463-.46 2.04a4.084 4.084 0 0 1-1.256 1.428c-.53.376-1.156.652-1.878.829a9.878 9.878 0 0 1-2.35.265c-1.259 0-2.453-.196-3.582-.587a9.999 9.999 0 0 1-3.075-1.717l.99-1.75c.246.26.565.522.957.782a7.79 7.79 0 0 0 1.336.703 9.838 9.838 0 0 0 1.612.507c.576.13 1.179.196 1.809.196 1.167 0 2.073-.208 2.718-.622.645-.415.968-1.037.968-1.866 0-.461-.104-.85-.312-1.164-.207-.315-.51-.588-.91-.818-.399-.23-.895-.433-1.486-.61a42.214 42.214 0 0 0-2.015-.541c-.83-.2-1.56-.416-2.189-.645-.63-.23-1.156-.507-1.578-.83a3.124 3.124 0 0 1-.956-1.175c-.215-.46-.322-1.013-.322-1.659 0-.783.145-1.474.437-2.073a4.35 4.35 0 0 1 1.221-1.52c.522-.415 1.144-.726 1.866-.933a8.468 8.468 0 0 1 2.35-.311c1.106 0 2.104.169 2.995.506.89.338 1.681.791 2.373 1.36l-.968 1.682ZM99.17 47.818l-4.147-5.875-2.304 2.166v3.709H90.69V31h2.028v11.058l6.174-6.243h2.235l-4.792 4.976 5.022 7.027H99.17ZM105.504 51.09a7.765 7.765 0 0 0 1.06.093.974.974 0 0 0 .495-.127c.146-.084.292-.25.438-.495.146-.246.311-.588.495-1.026.184-.437.415-1.01.691-1.716l-5.091-12.026h2.096l4.101 10.206 3.732-10.206h1.935l-5.852 15.182c-.215.538-.572 1.01-1.071 1.417-.499.406-1.186.61-2.062.61a4.145 4.145 0 0 1-.967-.115v-1.796ZM132.365 31.46v16.358h-2.073v-7.441h-9.008v7.44h-2.073V31.462h2.073v7.073h9.008V31.46h2.073ZM137.803 33.534V31h2.027v2.534h-2.027Zm0 14.283V35.791h2.027v12.026h-2.027ZM148.425 47.819l-4.745-12.026h2.096l3.801 10.252 3.824-10.252h1.935l-4.745 12.026h-2.166ZM163.628 48.05c-.906 0-1.735-.166-2.488-.496a5.877 5.877 0 0 1-1.935-1.348 6.143 6.143 0 0 1-1.256-1.993 6.517 6.517 0 0 1-.449-2.407c0-.845.15-1.643.449-2.396.3-.752.722-1.413 1.267-1.981a6.019 6.019 0 0 1 1.947-1.348c.753-.33 1.582-.495 2.488-.495.906 0 1.732.17 2.477.507a5.885 5.885 0 0 1 1.9 1.347 5.96 5.96 0 0 1 1.21 1.959c.284.745.426 1.517.426 2.315 0 .17-.004.322-.011.46-.008.139-.02.246-.035.323h-9.975c.045.599.184 1.144.415 1.636a4.147 4.147 0 0 0 2.154 2.096c.468.2.963.3 1.486.3.368 0 .729-.05 1.083-.15.353-.1.683-.234.99-.404.308-.169.58-.376.818-.622.238-.245.418-.522.542-.829l1.75.484a4.388 4.388 0 0 1-.818 1.22 5.423 5.423 0 0 1-1.198.957 6.435 6.435 0 0 1-3.237.864Zm4.124-7.05a4.336 4.336 0 0 0-.426-1.579 4.235 4.235 0 0 0-.898-1.232 4.05 4.05 0 0 0-2.777-1.083c-.537 0-1.044.096-1.52.288a3.92 3.92 0 0 0-1.256.806 4.07 4.07 0 0 0-.875 1.233 4.546 4.546 0 0 0-.404 1.566h8.156Z" fill="#fff"/></svg>