<svg width="200" height="80" viewBox="0 0 200 80" fill="none" xmlns="http://www.w3.org/2000/svg">
<path fill-rule="evenodd" clip-rule="evenodd" d="M17 40.3244C17 31.3217 24.3217 24 33.3244 24C42.327 24 49.6487 31.3217 49.6487 40.3244C49.6487 49.327 42.327 56.6487 33.3244 56.6487C24.3217 56.6487 17 49.327 17 40.3244ZM18.2492 40.2171C18.248 40.2528 18.2467 40.2886 18.2467 40.3244C18.2467 47.0125 22.6254 52.6941 28.6698 54.6612L26.626 46.7724C25.7421 43.344 22.4159 40.728 18.2518 40.1098C18.2518 40.1455 18.2505 40.1813 18.2492 40.2171ZM27.8369 46.4607L30.0544 55.0393C31.1069 55.2743 32.2003 55.4021 33.3244 55.4021C34.382 55.4021 35.409 55.2948 36.4053 55.0853L38.6381 46.4607C39.6753 42.4448 43.5278 39.4456 48.3305 38.8376C47.5795 31.2195 41.1366 25.2467 33.3244 25.2467C25.502 25.2467 19.0591 31.2297 18.3233 38.8631C23.0341 39.5222 26.8151 42.5214 27.8369 46.4607ZM39.8439 46.7724L37.7848 54.7276C43.9314 52.8218 48.4021 47.084 48.4021 40.3244C48.4021 40.2835 48.4008 40.2439 48.3995 40.2043C48.3982 40.1647 48.397 40.1251 48.397 40.0842C44.1409 40.6514 40.7483 43.2776 39.8439 46.7724ZM65.6945 42.2098C65.2719 41.7795 64.8357 41.3561 64.4064 40.9462C64.3179 40.8598 64.2279 40.7725 64.1375 40.6848L64.1367 40.6841L64.136 40.6835C63.9484 40.5015 63.7585 40.3175 63.5749 40.1334C62.7707 39.3411 62.2323 38.6786 61.8234 37.9888C61.5031 37.4492 61.3122 36.9779 61.2168 36.5066L61.1827 36.3205C61.16 36.1961 61.1373 36.0717 61.1146 35.9534L61.1078 35.9329C61.0055 35.3045 61.0805 34.7512 61.3395 34.2321C61.6871 33.5559 62.3004 33.1735 63.2205 33.071C63.4659 33.0437 63.7044 33.03 63.9293 33.03C64.495 33.03 65.0061 33.112 65.4764 33.2896C65.5582 33.3169 65.6399 33.3374 65.7217 33.3374C66.008 33.3374 66.2601 33.153 66.3624 32.8661C66.4782 32.5382 66.2942 32.1899 65.9194 32.0465C65.8376 32.0123 65.749 31.9918 65.6808 31.9782L65.6662 31.9753C65.6354 31.9693 65.6011 31.9626 65.5718 31.9508C64.9993 31.7869 64.3996 31.705 63.793 31.705H63.6839C63.166 31.7118 62.6617 31.7937 62.1846 31.9508C61.7893 32.0806 61.4349 32.2582 61.101 32.5041C60.3922 33.0232 59.9492 33.7472 59.806 34.6488C59.7106 35.2157 59.7311 35.8236 59.8606 36.5203C59.9628 37.094 60.1604 37.6541 60.4535 38.2415C60.9578 39.2455 61.7075 40.0788 62.3686 40.7687C62.5843 40.9903 62.8134 41.2075 63.0377 41.4202C63.0899 41.4696 63.1418 41.5188 63.1932 41.5678C63.2513 41.6237 63.3101 41.6797 63.3691 41.7358C63.4903 41.8512 63.6125 41.9675 63.7317 42.0869L63.7317 42.087C63.8067 42.1621 63.8816 42.2372 63.9566 42.3055L63.9612 42.3099C64.4434 42.7796 64.905 43.2292 65.2651 43.7603C65.4423 44.0198 65.6195 44.2999 65.6399 44.6004C65.6876 45.1878 65.6468 45.6318 65.5104 46.0348C65.3537 46.4856 65.1288 46.8339 64.8289 47.1139C64.345 47.5442 63.7385 47.7901 62.8525 47.8994C62.648 47.9267 62.4163 47.9336 62.1301 47.9336C61.9801 47.9336 61.837 47.9336 61.6871 47.9267H61.6121C61.4145 47.9199 61.2236 47.8994 61.0124 47.8721C60.9749 47.8687 60.9391 47.8636 60.9033 47.8584C60.8675 47.8533 60.8317 47.8482 60.7943 47.8448C60.7431 47.8379 60.6903 47.8311 60.6375 47.8243C60.5847 47.8174 60.5319 47.8106 60.4808 47.8038C60.2899 47.7765 60.0923 47.7491 59.8946 47.7355H59.8469C59.513 47.7355 59.2404 47.9745 59.2063 48.2956C59.1722 48.6576 59.3835 48.9513 59.7379 49.0264C59.9083 49.0605 60.0718 49.081 60.2354 49.1015L60.2354 49.1015L60.2899 49.1084C60.5205 49.1408 60.7535 49.1708 60.979 49.1999L60.9793 49.1999C61.1335 49.2198 61.2842 49.2392 61.4281 49.2586L61.8506 49.3133C61.8506 49.3133 62.1573 49.2859 62.28 49.2723C62.539 49.245 62.7571 49.2245 62.982 49.204C63.7521 49.1425 64.4677 48.9171 65.1015 48.5346C65.7762 48.1316 66.2738 47.5852 66.5805 46.9022C66.7713 46.4855 66.8667 46.0689 66.9485 45.5635C67.0439 45.0102 66.9894 44.457 66.7781 43.8559C66.6009 43.3095 66.2465 42.7836 65.6945 42.2098ZM153.149 47.7392C153.131 47.5956 153.115 47.4502 153.099 47.3038L153.099 47.3028C153.084 47.171 153.069 47.0385 153.053 46.9059C153.033 46.7489 153.012 46.5986 152.992 46.4483C152.978 46.3664 152.965 46.2776 152.958 46.1956L152.931 46.0112L152.828 45.253C152.81 45.1347 152.797 45.0107 152.784 44.8914L152.781 44.8569L152.781 44.8556C152.76 44.6853 152.74 44.5149 152.712 44.3378L152.692 44.1997C152.684 44.1461 152.676 44.0925 152.668 44.0401L152.661 43.9933L152.651 43.928L152.61 43.6616C152.595 43.5556 152.577 43.4402 152.559 43.319C152.535 43.1668 152.51 43.0055 152.488 42.842L152.467 42.6845L152.457 42.6029L152.443 42.4909L152.426 42.3638C152.415 42.2945 152.406 42.2252 152.397 42.1549L152.397 42.1533L152.387 42.0801C152.383 42.0431 152.377 42.0057 152.372 41.9677C152.344 41.7696 152.317 41.5715 152.283 41.3735L152.222 40.9432C152.195 40.7724 152.167 40.6016 152.147 40.4309C152.133 40.3284 152.12 40.226 152.106 40.1304C152.096 40.0518 152.084 39.9733 152.072 39.8947C152.06 39.8162 152.048 39.7376 152.038 39.6591C152.017 39.5259 151.995 39.391 151.973 39.2561C151.951 39.1212 151.929 38.9863 151.908 38.8531C151.874 38.6482 151.84 38.4433 151.806 38.2316C151.796 38.1735 151.787 38.1154 151.779 38.0574C151.77 37.9993 151.762 37.9413 151.752 37.8832C151.731 37.733 151.711 37.5895 151.683 37.4393C151.673 37.3744 151.661 37.3078 151.649 37.2412C151.637 37.1746 151.625 37.108 151.615 37.0431C151.588 36.9065 151.568 36.7699 151.547 36.6333C151.536 36.5715 151.527 36.5077 151.518 36.443C151.51 36.3863 151.502 36.3288 151.493 36.2713C151.472 36.121 151.452 35.9708 151.424 35.8205C151.407 35.718 151.389 35.6139 151.37 35.5097L151.369 35.5064L151.369 35.5056L151.369 35.5047C151.351 35.4022 151.332 35.2998 151.315 35.1989L151.285 35.0254L151.264 34.9052C151.247 34.8079 151.23 34.7106 151.213 34.6115C151.172 34.3588 151.131 34.1129 151.084 33.8602C151.038 33.5955 150.993 33.3248 150.947 33.054L150.879 32.6513C150.797 32.2073 150.579 32.0229 150.109 32.0229H149.25H147.315H146.442C146.102 32.0229 145.822 32.2346 145.761 32.5283C145.659 33.0406 145.584 33.4641 145.516 33.8534C145.481 34.0583 145.447 34.27 145.42 34.4749C145.393 34.6867 145.359 34.8984 145.325 35.1101C145.277 35.397 145.222 35.6907 145.168 35.9708C145.113 36.2576 145.059 36.5582 145.011 36.8519C144.958 37.1639 144.908 37.4803 144.859 37.7908L144.82 38.0403C144.793 38.2111 144.766 38.3818 144.745 38.5458L144.725 38.6824L144.705 38.819L144.694 38.894L144.694 38.8949C144.684 38.9646 144.674 39.0344 144.664 39.1058C144.65 39.2151 144.636 39.3244 144.616 39.4268C144.606 39.5088 144.594 39.5925 144.582 39.6762C144.57 39.7598 144.558 39.8435 144.548 39.9255C144.531 40.0245 144.515 40.1235 144.5 40.2226C144.485 40.3216 144.469 40.4206 144.452 40.5197C144.439 40.5994 144.426 40.679 144.412 40.7589L144.412 40.7592C144.383 40.9326 144.353 41.107 144.33 41.2847C144.305 41.4456 144.286 41.6122 144.267 41.7743L144.262 41.8243C144.255 41.8857 144.248 41.9454 144.241 42.0052L144.229 42.114L144.221 42.1863C144.199 42.3463 144.174 42.5021 144.148 42.6635L144.125 42.801C144.114 42.8885 144.097 42.9711 144.08 43.0572L144.08 43.0575L144.071 43.1015C144.063 43.1465 144.055 43.1921 144.047 43.2381L144.047 43.2382C144.026 43.3598 144.004 43.485 143.989 43.6138C143.976 43.7069 143.965 43.8001 143.954 43.8925L143.953 43.893C143.941 43.997 143.928 44.1 143.914 44.2012C143.9 44.3173 143.887 44.4334 143.873 44.5427C143.863 44.6225 143.852 44.7024 143.841 44.7829L143.841 44.7834L143.841 44.784C143.828 44.8754 143.816 44.9676 143.805 45.0618L143.75 45.4579C143.73 45.598 143.711 45.7397 143.692 45.8814C143.674 46.0231 143.655 46.1649 143.635 46.3049C143.624 46.3801 143.612 46.4552 143.6 46.5304C143.589 46.6055 143.577 46.6806 143.566 46.7557C143.542 46.89 143.523 47.0298 143.505 47.1653L143.498 47.2133L143.485 47.2953C143.477 47.3522 143.469 47.4095 143.461 47.467L143.452 47.5315C143.427 47.7153 143.401 47.9014 143.382 48.0876C143.355 48.4154 143.621 48.7023 143.982 48.7433C144.009 48.7501 144.043 48.7501 144.071 48.7501C144.377 48.7501 144.609 48.552 144.657 48.2378C144.705 47.9237 144.752 47.6026 144.793 47.2953L144.827 47.0562C144.834 46.9947 144.843 46.9332 144.851 46.8717C144.86 46.8102 144.868 46.7488 144.875 46.6874L144.891 46.5528L144.895 46.5166L144.905 46.4396L144.916 46.3459C144.928 46.2384 144.945 46.1361 144.963 46.0299L144.97 45.9839L144.976 45.9401C144.984 45.8897 144.991 45.8389 144.998 45.7879L144.999 45.7839L145 45.7772L145.001 45.7719C145.027 45.5933 145.053 45.4113 145.073 45.2257C145.075 45.2082 145.077 45.192 145.079 45.1776C145.081 45.1581 145.082 45.1418 145.086 45.1301H145.154H151.458H151.493C151.514 45.2376 151.527 45.3408 151.538 45.4299L151.538 45.4303L151.544 45.4736L151.547 45.4989C151.566 45.6304 151.579 45.7675 151.591 45.9L151.591 45.9009L151.595 45.9361L151.605 46.0294C151.622 46.1931 151.64 46.3641 151.663 46.5303L151.704 46.8392C151.731 47.0456 151.758 47.252 151.786 47.4524C151.803 47.5753 151.82 47.6965 151.837 47.8178C151.854 47.939 151.871 48.0603 151.888 48.1832C151.929 48.4974 152.201 48.7364 152.515 48.7364H152.556C152.958 48.7091 153.203 48.4564 153.196 48.0807V48.0671L153.149 47.7392ZM145.686 41.2232C145.697 41.1572 145.706 41.0912 145.715 41.0242C145.723 40.9663 145.731 40.9077 145.74 40.8475L145.802 40.4377C145.836 40.2396 145.863 40.0416 145.89 39.8367L145.897 39.7889L145.897 39.7886L145.897 39.7884C145.915 39.6623 145.933 39.5404 145.945 39.4132C145.952 39.3633 145.958 39.3134 145.965 39.2632C145.976 39.1691 145.988 39.074 146.006 38.9761L146.007 38.9689C146.034 38.8006 146.061 38.6323 146.088 38.4706L146.129 38.2247L146.156 38.0745C146.17 38.0027 146.182 37.9293 146.194 37.8559C146.206 37.7825 146.218 37.709 146.231 37.6373C146.245 37.5554 146.257 37.4719 146.269 37.3883C146.281 37.3045 146.292 37.2208 146.306 37.1387C146.327 37.0055 146.347 36.8741 146.367 36.7426C146.388 36.6111 146.408 36.4796 146.429 36.3464C146.449 36.2166 146.477 36.08 146.504 35.9503L146.521 35.8579L146.534 35.7898C146.545 35.7368 146.555 35.6839 146.565 35.6292C146.582 35.5234 146.601 35.4175 146.62 35.3116C146.638 35.2058 146.657 35.0999 146.674 34.994C146.691 34.8992 146.706 34.8045 146.721 34.7097L146.722 34.7072L146.722 34.7047C146.737 34.6099 146.753 34.5151 146.77 34.4203C146.781 34.3487 146.794 34.2772 146.807 34.2067L146.807 34.2061L146.822 34.1278L146.832 34.0719L146.838 34.0378C146.851 33.9695 146.863 33.9029 146.875 33.8363C146.887 33.7697 146.899 33.7031 146.913 33.6348C146.921 33.5885 146.927 33.5423 146.933 33.4912L146.933 33.4905C146.937 33.4589 146.942 33.4254 146.947 33.3889H148.276H149.68C149.714 33.6007 149.748 33.8124 149.789 34.0241C149.801 34.1 149.814 34.1767 149.828 34.2541L149.828 34.2544L149.828 34.2547L149.828 34.2553L149.828 34.256C149.865 34.4707 149.902 34.6898 149.932 34.9052C149.952 35.0419 149.973 35.1768 149.993 35.3117L150.01 35.4215C150.025 35.5199 150.04 35.6185 150.055 35.718C150.102 36.0322 150.15 36.3532 150.198 36.6743C150.232 36.8997 150.273 37.1182 150.314 37.3368C150.354 37.5622 150.395 37.7944 150.436 38.0267C150.473 38.2585 150.504 38.4958 150.534 38.7288L150.535 38.7311L150.545 38.8121L150.627 39.3859C150.654 39.5635 150.682 39.7342 150.709 39.905C150.719 39.9562 150.728 40.0074 150.736 40.0586C150.745 40.1099 150.753 40.1611 150.763 40.2123L150.77 40.2601C150.8 40.4299 150.825 40.6051 150.85 40.776L150.859 40.8407C150.872 40.9288 150.884 41.0186 150.896 41.1083L150.896 41.1105C150.908 41.201 150.92 41.2915 150.934 41.3803C150.968 41.6603 151.009 41.954 151.05 42.2409C151.09 42.4936 151.131 42.7463 151.172 42.9922C151.213 43.2313 151.254 43.4772 151.288 43.7162C151.288 43.7257 151.29 43.7367 151.291 43.7485C151.293 43.7621 151.295 43.7767 151.295 43.7914H145.318L145.327 43.728L145.327 43.7272C145.351 43.5493 145.376 43.3671 145.406 43.1903C145.441 42.9376 145.475 42.6849 145.516 42.4321C145.533 42.2974 145.556 42.1626 145.579 42.0235L145.591 41.954L145.598 41.9084C145.616 41.8021 145.633 41.6997 145.645 41.592C145.645 41.4759 145.665 41.3461 145.686 41.2232ZM113.816 33.1434C113.367 32.679 112.774 32.3716 112.072 32.2282C111.52 32.1189 110.94 32.0574 110.354 32.0438C109.932 32.037 109.475 32.0301 108.909 32.0301H107.894H106.94C106.34 32.0301 106.108 32.2692 106.108 32.8702V48.1016C106.108 48.1973 106.115 48.2997 106.136 48.4158C106.176 48.6822 106.361 48.8666 106.613 48.9213C106.674 48.9349 106.735 48.9418 106.79 48.9418C107.028 48.9418 107.212 48.8325 107.308 48.6276C107.369 48.4978 107.403 48.3407 107.403 48.1904V44.2904V42.7946H107.73H108.787H109.782H110.934C111.036 43.0199 111.124 43.259 111.206 43.4912L111.247 43.5937C111.317 43.7733 111.383 43.953 111.448 44.1299C111.472 44.1952 111.496 44.2601 111.52 44.3245C111.636 44.6387 111.758 44.9597 111.881 45.2739C111.939 45.4208 111.997 45.5693 112.055 45.7179C112.113 45.8664 112.171 46.015 112.228 46.1619L112.229 46.1632C112.304 46.354 112.379 46.5448 112.453 46.7288C112.473 46.7798 112.493 46.8303 112.512 46.8806L112.561 47.0088L112.562 47.0099L112.562 47.012C112.598 47.106 112.634 47.2 112.671 47.2957C112.727 47.4396 112.783 47.5852 112.84 47.7317C112.941 47.9954 113.043 48.2616 113.149 48.5251C113.251 48.7778 113.455 48.9281 113.707 48.9418H113.748C114.164 48.9418 114.294 48.6822 114.328 48.5729C114.389 48.3817 114.403 48.1699 114.355 47.9923C114.3 47.7806 114.225 47.5894 114.144 47.3981C114.133 47.3742 114.123 47.3486 114.113 47.323C114.103 47.2974 114.092 47.2718 114.082 47.2479L114.081 47.2439L114.081 47.2438C113.952 46.9104 113.823 46.5772 113.694 46.2506C113.571 45.9433 113.455 45.6428 113.339 45.3354C113.217 45.0178 113.094 44.7019 112.971 44.386C112.849 44.0701 112.726 43.7542 112.603 43.4366C112.501 43.1773 112.406 42.9179 112.31 42.6586L112.31 42.6585L112.31 42.6584L112.31 42.6583L112.31 42.6583L112.31 42.6582L112.31 42.6581L112.31 42.658L112.31 42.6579L112.269 42.5555C112.283 42.5487 112.298 42.5418 112.314 42.535C112.329 42.5282 112.344 42.5213 112.358 42.5145L112.371 42.5083C112.598 42.4013 112.812 42.3004 113.026 42.1798C113.626 41.8383 114.089 41.3056 114.437 40.5474C114.716 39.9327 114.886 39.2292 114.941 38.3959C115.023 37.2621 115.043 35.9302 114.634 34.5983C114.471 34.0245 114.191 33.5328 113.816 33.1434ZM112.637 40.8548C112.358 41.0938 112.01 41.2578 111.574 41.3602C111.029 41.4831 110.47 41.4968 109.939 41.4968H109.536H108.841H108.344H107.431V33.3962H107.512H108.432H109.352C110.068 33.3962 110.613 33.403 111.124 33.4235C111.901 33.4508 112.487 33.6762 112.903 34.1065C113.162 34.3661 113.339 34.7144 113.476 35.2062C113.673 35.9507 113.68 36.7225 113.673 37.4465C113.667 38.0134 113.619 38.5598 113.544 39.0653C113.414 39.8507 113.114 40.4381 112.637 40.8548ZM168.639 46.634V48.0615C168.639 48.0751 168.639 48.0888 168.646 48.0956C168.646 48.1366 168.646 48.1912 168.639 48.2527C168.578 48.6284 168.489 48.9426 167.944 48.9426H167.876C167.78 48.9357 167.685 48.9357 167.589 48.9357C167.501 48.9357 167.426 48.9357 167.351 48.9426H167.262C166.792 48.9426 166.635 48.683 166.492 48.362C166.37 48.0773 166.245 47.7927 166.12 47.5098L166.119 47.5059C166.05 47.3489 165.981 47.1925 165.913 47.0369C165.862 46.9174 165.809 46.7979 165.756 46.6783C165.703 46.5588 165.65 46.4393 165.599 46.3198C165.518 46.1319 165.434 45.9458 165.351 45.7597C165.267 45.5736 165.184 45.3874 165.102 45.1996L164.747 44.4005C164.603 44.0665 164.456 43.735 164.31 43.4044L164.308 43.4015C164.207 43.1718 164.105 42.9426 164.005 42.7134C163.889 42.4402 163.766 42.1602 163.643 41.8869C163.548 41.6684 163.453 41.4515 163.357 41.2347C163.262 41.0178 163.166 40.8009 163.071 40.5824C162.93 40.2611 162.787 39.9398 162.644 39.6204L162.642 39.6155C162.564 39.4408 162.487 39.2667 162.41 39.0934C162.151 38.5197 161.892 37.9391 161.64 37.3653C161.244 36.4774 160.856 35.5895 160.467 34.7016L160.372 34.483C160.318 34.3602 160.265 34.2374 160.212 34.1146C160.159 33.9915 160.106 33.8684 160.052 33.7453V48.2732C160.052 48.4235 160.052 48.806 159.684 49.0109C159.588 49.0655 159.472 49.0928 159.363 49.0928C159.104 49.0928 158.879 48.9357 158.791 48.6899C158.73 48.5328 158.702 48.3483 158.702 48.1708V33.1511V32.8711C158.695 32.7959 158.695 32.714 158.716 32.6252C158.784 32.2768 159.043 32.0651 159.425 32.0514C159.534 32.0446 159.65 32.0446 159.786 32.0446C159.857 32.0446 159.931 32.0463 160.004 32.048C160.077 32.0497 160.151 32.0514 160.222 32.0514C160.761 32.0582 160.961 32.5125 161.037 32.6877L161.04 32.6935C161.215 33.0986 161.395 33.5089 161.574 33.9165L161.578 33.9256L161.58 33.9307L161.582 33.9344L161.583 33.9377L161.585 33.9408L161.586 33.9435L161.601 33.9772L161.612 34.0024C161.713 34.2324 161.813 34.4614 161.912 34.6879L162.342 35.6646C162.526 36.0779 162.708 36.4928 162.89 36.9077C163.073 37.3227 163.255 37.7376 163.439 38.1508L163.971 39.3598C164.101 39.6541 164.229 39.9467 164.358 40.2394L164.36 40.2454L164.362 40.2488L164.363 40.2515L164.364 40.253L164.364 40.2546L164.365 40.2561L164.37 40.2685L164.374 40.2762C164.502 40.5689 164.631 40.8617 164.761 41.1561C164.891 41.4434 165.018 41.7348 165.143 42.024L165.144 42.026C165.182 42.1142 165.22 42.2023 165.259 42.2899L165.831 43.6013C165.886 43.7243 165.941 43.8464 165.995 43.968L165.997 43.9713L165.999 43.9774C166.097 44.197 166.195 44.4149 166.295 44.6327L166.744 45.6367C166.816 45.8007 166.887 45.9663 166.959 46.1319L166.964 46.1423C167.034 46.3045 167.104 46.4666 167.174 46.6271C167.21 46.7008 167.243 46.7786 167.275 46.8542L167.303 46.9208V43.9633V41.682V32.8437C167.303 32.6661 167.33 32.4408 167.535 32.2563C167.658 32.1539 167.814 32.0924 167.971 32.0924C168.244 32.0924 168.482 32.2632 168.564 32.5159C168.612 32.6593 168.639 32.8164 168.639 32.9667V46.634ZM84.089 32.0591C84.2662 32.0591 84.4229 32.0659 84.5729 32.0727C85.0499 32.1 85.268 32.3254 85.2748 32.7967V44.5447V48.3833C85.2748 48.9024 84.9477 49.0458 84.8114 49.0868C84.7569 49.1005 84.6955 49.1073 84.641 49.1073C84.4161 49.1073 84.2117 48.9912 84.0958 48.7931C84.0345 48.6907 84.014 48.5814 84.0072 48.5062C84.0004 48.4243 84.0004 48.3423 84.0004 48.2672V48.2057V33.3978H83.9527H83.8709L83.8708 33.398L83.8708 33.3981C83.8571 33.4254 83.8368 33.4662 83.83 33.4866L83.8232 33.5002C83.6078 34.0182 83.398 34.5473 83.1938 35.0625L83.1935 35.0632L83.128 35.2283L83.0053 35.5288C82.9542 35.662 82.9014 35.7952 82.8486 35.9284C82.7958 36.0616 82.743 36.1948 82.6918 36.328L82.5762 36.6201C82.4149 37.0274 82.2501 37.4437 82.0853 37.8511C81.9852 38.0993 81.881 38.3515 81.779 38.5984L81.69 38.8142C81.6321 38.9542 81.5758 39.0925 81.5196 39.2308C81.4634 39.3691 81.4072 39.5074 81.3492 39.6474L81.0221 40.4671C80.9744 40.5832 80.9284 40.6993 80.8824 40.8154L80.8823 40.8155C80.8364 40.9316 80.7904 41.0477 80.7427 41.1638C80.695 41.2831 80.6457 41.4007 80.5964 41.5184L80.5961 41.5189C80.5467 41.6367 80.4973 41.7546 80.4496 41.8741C80.3985 42.0005 80.3474 42.1251 80.2963 42.2498C80.2452 42.3744 80.194 42.4991 80.1429 42.6254C80.0816 42.7791 80.022 42.9311 79.9623 43.083C79.9027 43.235 79.8431 43.387 79.7817 43.5407C79.7408 43.6397 79.7016 43.7404 79.6624 43.8412C79.6233 43.9419 79.5841 44.0427 79.5432 44.1417C79.3728 44.5857 79.0525 44.6745 78.8208 44.6745C78.8079 44.6745 78.795 44.673 78.7814 44.6714C78.7662 44.6696 78.7501 44.6677 78.7322 44.6677H78.7117H78.6504C78.6231 44.6745 78.589 44.6745 78.5618 44.6745C78.5004 44.6745 78.405 44.6745 78.3164 44.6267C78.1938 44.5652 77.9757 44.4354 77.8871 44.2237C77.6235 43.6022 77.3678 42.9689 77.1169 42.3477L77.1169 42.3476L77.1168 42.3475C77.0369 42.1495 76.9575 41.9527 76.8784 41.758L76.8716 41.7443C76.7883 41.5258 76.7028 41.3096 76.6176 41.0943L76.6174 41.0938L76.6174 41.0937L76.6173 41.0937L76.6172 41.0933C76.5561 40.9389 76.4951 40.7849 76.4354 40.631C76.279 40.2495 76.1295 39.8679 75.9799 39.4864L75.9798 39.486L75.9797 39.4857L75.9795 39.4854L75.9794 39.4851L75.9793 39.4848L75.9792 39.4845L75.979 39.4841L75.9789 39.4838L75.9788 39.4835C75.8588 39.1855 75.7348 38.8834 75.6129 38.5865L75.6117 38.5835L75.6112 38.5825L75.5017 38.3156L75.0723 37.2705C74.9088 36.8675 74.7452 36.4646 74.5885 36.0616C74.493 35.8089 74.3908 35.5493 74.2886 35.2966C74.1915 35.0576 74.0911 34.805 73.9882 34.5462L73.9879 34.5456L73.9876 34.5448C73.8378 34.168 73.6827 33.7781 73.5253 33.3978H73.423H73.3958V37.9194V48.2262C73.3958 48.4038 73.3617 48.5814 73.3072 48.7316C73.2186 48.957 73.0073 49.1005 72.7551 49.1005H72.7006C72.2985 49.0663 72.169 48.8273 72.1281 48.6838C72.0804 48.5267 72.06 48.397 72.06 48.274V33.3295V32.8241C72.06 32.3528 72.3258 32.0796 72.7892 32.0659C72.9664 32.0591 73.1435 32.0591 73.3207 32.0591H73.3208H73.321C73.5049 32.0591 73.6889 32.0591 73.866 32.0659C74.3227 32.0796 74.5271 32.3459 74.6157 32.5713C74.7528 32.9205 74.8947 33.2697 75.0333 33.6109L75.0334 33.6112L75.034 33.6126L75.0342 33.613L75.0346 33.6141L75.0353 33.6159L75.0357 33.6166L75.0358 33.6169L75.0359 33.6172L75.1132 33.8076C75.1541 33.9066 75.1933 34.0057 75.2325 34.1047C75.2717 34.2038 75.3109 34.3028 75.3518 34.4018L75.4881 34.7433C75.6431 35.1217 75.7957 35.5024 75.9488 35.8841L75.9491 35.8848L75.9492 35.8851L75.95 35.887C76.059 36.1589 76.1683 36.4313 76.2787 36.7036C76.5055 37.268 76.7156 37.7938 76.913 38.2881L76.9141 38.2909L76.9164 38.2965C77.0499 38.6307 77.1776 38.9505 77.3009 39.2581C77.3962 39.5036 77.4932 39.7492 77.5901 39.9947L77.5902 39.9949L77.5903 39.995L77.5903 39.9952L77.5904 39.9953L77.5905 39.9955L77.5905 39.9957L77.5906 39.9958L77.5907 39.996L77.5907 39.9962C77.6878 40.2419 77.7849 40.4877 77.8802 40.7335C77.945 40.894 78.008 41.0545 78.0711 41.215C78.1341 41.3755 78.1972 41.536 78.2619 41.6965C78.3301 41.8708 78.4 42.0467 78.4699 42.2227C78.5397 42.3985 78.6095 42.5743 78.6776 42.7484C78.6991 42.6882 78.7854 42.4791 78.86 42.2984L78.8602 42.2977L78.8603 42.2975C78.9041 42.1915 78.9437 42.0953 78.9639 42.0449L79.061 41.8068C79.1671 41.5467 79.2754 41.2815 79.3796 41.0203C79.5295 40.6447 79.6795 40.2622 79.8294 39.8797C79.9146 39.6611 80.0015 39.4442 80.0884 39.2274C80.1753 39.0105 80.2622 38.7937 80.3474 38.5751C80.4312 38.3632 80.5173 38.1536 80.603 37.945C80.6637 37.7973 80.7242 37.65 80.7836 37.5028C80.8449 37.3492 80.9062 37.1973 80.9674 37.0454C81.0288 36.8934 81.0902 36.7413 81.1516 36.5875C81.1976 36.4722 81.2427 36.3578 81.2875 36.244L81.2877 36.2437L81.2881 36.2427C81.3625 36.0537 81.4363 35.8664 81.5128 35.6791L81.8808 34.757C82.0181 34.4078 82.1595 34.0627 82.3017 33.7153L82.426 33.4115C82.4669 33.309 82.5078 33.2083 82.5487 33.1075C82.5896 33.0068 82.6305 32.906 82.6714 32.8036C82.6748 32.7933 82.6799 32.7814 82.685 32.7694L82.6907 32.756L82.6959 32.743L82.6987 32.7353C82.705 32.7205 82.7113 32.7063 82.7174 32.6926C82.7311 32.6621 82.7438 32.6338 82.7532 32.6055C82.8622 32.264 83.1212 32.0864 83.5369 32.0727L83.6744 32.0684C83.8342 32.0633 83.9658 32.0591 84.089 32.0591ZM100.307 46.9208C100.31 46.9424 100.313 46.9639 100.316 46.9855C100.33 47.0709 100.341 47.158 100.353 47.2451C100.365 47.3321 100.377 47.4192 100.391 47.5046C100.418 47.7232 100.439 47.9349 100.445 48.1466C100.452 48.4882 100.186 48.7409 99.7911 48.7614H99.7639C99.4504 48.7614 99.1914 48.5291 99.1505 48.2081C99.1232 47.9827 99.0892 47.7505 99.0551 47.5251C99.0368 47.3878 99.0172 47.2465 98.9974 47.1041C98.9729 46.9276 98.9482 46.7496 98.9256 46.5757C98.9077 46.4638 98.8957 46.349 98.8838 46.235L98.8838 46.2348L98.8837 46.234L98.8836 46.2332C98.8774 46.1739 98.8712 46.1149 98.8643 46.0566C98.8506 45.8858 98.8302 45.7151 98.8097 45.5443C98.7974 45.4269 98.7739 45.3095 98.7494 45.1871L98.7493 45.1865L98.7491 45.1856L98.749 45.1854L98.7416 45.1482H95.0545H92.342V45.1687C92.3011 45.4897 92.2602 45.8107 92.2125 46.1317C92.1921 46.2786 92.1716 46.4237 92.1512 46.5689C92.1307 46.714 92.1103 46.8591 92.0898 47.006C92.0714 47.1294 92.0585 47.2528 92.0461 47.3712V47.3713V47.3714V47.3714L92.0461 47.3715L92.0421 47.409L92.0385 47.4459C92.026 47.5713 92.013 47.7019 91.9944 47.8325V47.8461C91.9903 47.873 91.9863 47.9002 91.9823 47.9277L91.9822 47.9286C91.9598 48.0821 91.9363 48.2432 91.8786 48.3994C91.8104 48.5838 91.6264 48.6999 91.4901 48.7409C91.4288 48.7614 91.3606 48.7682 91.2993 48.7682C91.1153 48.7682 90.9381 48.6931 90.8086 48.5496C90.6859 48.413 90.6314 48.2423 90.645 48.0715C90.6655 47.8598 90.6995 47.6412 90.7336 47.4363L90.7745 47.1494L90.7813 47.1221C90.8086 46.9241 90.8358 46.7192 90.8631 46.5144L90.8631 46.5142C90.8699 46.4493 90.8784 46.3827 90.8869 46.3161C90.8955 46.2496 90.904 46.183 90.9108 46.1181C90.9312 45.9268 90.9517 45.7424 90.979 45.5512C90.9935 45.4417 91.01 45.3342 91.0264 45.2275L91.0265 45.2268C91.0408 45.1341 91.0549 45.0421 91.0676 44.9501C91.0777 44.8889 91.0862 44.8295 91.0947 44.77L91.0948 44.7691C91.1033 44.7093 91.1119 44.6496 91.1221 44.5881C91.1562 44.3832 91.1834 44.1783 91.2107 43.9734L91.2516 43.6455C91.2651 43.5538 91.277 43.462 91.2889 43.3703L91.289 43.3691C91.301 43.2768 91.3129 43.1845 91.3265 43.0923C91.341 42.9668 91.3622 42.8413 91.3831 42.7182C91.3917 42.6671 91.4003 42.6164 91.4083 42.5664C91.4288 42.4639 91.4492 42.3546 91.4628 42.2522C91.4969 42.0473 91.5242 41.8628 91.5514 41.6716C91.5719 41.5486 91.5855 41.4257 91.5991 41.3028L91.6057 41.2478C91.624 41.0941 91.6429 40.9355 91.6673 40.7768C91.6946 40.5856 91.7286 40.3875 91.7627 40.2031L91.7735 40.1368L91.7885 40.0435C91.7935 40.012 91.7986 39.9807 91.8036 39.9504C91.807 39.9231 91.8121 39.894 91.8172 39.865C91.8223 39.836 91.8275 39.8069 91.8309 39.7796L91.8922 39.3903C91.9058 39.3049 91.9178 39.2213 91.9297 39.1376L91.9299 39.1363L91.9299 39.1361L91.9299 39.1359C91.9418 39.0528 91.9536 38.9697 91.9672 38.8849C92.0013 38.6321 92.0421 38.3658 92.083 38.1062C92.1053 37.9819 92.1261 37.856 92.1468 37.7308L92.1468 37.7305L92.1468 37.7304L92.1469 37.7303L92.1469 37.7302V37.7301C92.1705 37.5873 92.1939 37.4452 92.2193 37.3071L92.3216 36.6924C92.3372 36.5984 92.3514 36.5059 92.3654 36.4142L92.3655 36.414C92.3821 36.3057 92.3985 36.1985 92.417 36.0913C92.434 35.9854 92.4511 35.8813 92.4681 35.7771C92.4851 35.673 92.5022 35.5688 92.5192 35.4629C92.5328 35.381 92.5482 35.2973 92.5635 35.2136C92.5788 35.1299 92.5942 35.0463 92.6078 34.9643C92.618 34.9131 92.6266 34.8619 92.6351 34.8106C92.6436 34.7594 92.6521 34.7082 92.6623 34.657L92.6673 34.6278C92.6991 34.4434 92.7247 34.2947 92.7441 34.1583C92.7551 34.0742 92.768 33.992 92.7808 33.9108L92.7808 33.9106L92.7808 33.9104C92.7919 33.84 92.8028 33.7704 92.8123 33.7007C92.8368 33.5492 92.8613 33.3904 92.8858 33.2315L92.8859 33.231C92.9022 33.125 92.9186 33.019 92.9349 32.9152L92.9438 32.868C92.9686 32.7351 92.9968 32.5834 93.0576 32.4371C93.119 32.2937 93.2962 32.041 93.7255 32.041H95.2794H95.6747H97.4058C97.8215 32.041 98.0669 32.2459 98.135 32.6557L98.2577 33.3524C98.2952 33.5721 98.3339 33.7954 98.3728 34.0198C98.4258 34.3257 98.4792 34.6336 98.5303 34.937C98.5702 35.1546 98.6043 35.3751 98.6383 35.5948L98.6384 35.5954L98.6388 35.5979C98.6569 35.715 98.675 35.8319 98.6939 35.9479L98.8165 36.747C98.8574 37.027 98.9051 37.3002 98.9529 37.5735C99.0142 37.915 99.0755 38.2701 99.1301 38.6253C99.1709 38.8849 99.205 39.1376 99.2391 39.3903L99.2476 39.4546C99.2721 39.6393 99.2972 39.8283 99.3277 40.0118C99.3618 40.2441 99.3958 40.4695 99.4367 40.7017C99.4538 40.8178 99.4725 40.9356 99.4913 41.0535L99.4913 41.0535C99.51 41.1713 99.5287 41.2891 99.5458 41.4052C99.573 41.576 99.5935 41.7399 99.6139 41.9038L99.6175 41.9377L99.6175 41.9384C99.63 42.0577 99.643 42.1817 99.6616 42.3C99.6753 42.3819 99.6889 42.4673 99.7025 42.5527L99.7026 42.5528C99.7162 42.6382 99.7298 42.7235 99.7434 42.8054C99.7507 42.8641 99.76 42.9208 99.7692 42.9766L99.7692 42.9768L99.7693 42.9772C99.7771 43.0251 99.7848 43.0724 99.7911 43.1196L99.8036 43.1966C99.8334 43.3813 99.8626 43.562 99.8865 43.748C99.907 43.8847 99.9258 44.023 99.9445 44.1614L99.9447 44.163C99.9634 44.3007 99.9821 44.4384 100.002 44.5744L100.023 44.7247L100.056 44.9635L100.082 45.1575L100.082 45.158L100.084 45.1702L100.084 45.1722C100.105 45.3207 100.125 45.4692 100.146 45.6195C100.152 45.6912 100.161 45.7612 100.169 45.8312C100.178 45.9012 100.186 45.9712 100.193 46.0429C100.214 46.2 100.234 46.364 100.255 46.5279C100.264 46.6351 100.28 46.7392 100.295 46.8422L100.307 46.9208ZM93.1582 39.8146C93.1502 39.8793 93.1421 39.9448 93.1326 40.0118C93.1121 40.1553 93.0917 40.3055 93.0713 40.4558L93.0653 40.4995L93.0653 40.4997V40.4997C93.0468 40.6364 93.0277 40.7771 93.0031 40.9066L92.9758 41.0637L92.9622 41.1476L92.9554 41.19C92.9486 41.2327 92.9418 41.2754 92.9349 41.3164L92.8532 41.8287C92.8327 41.9585 92.8123 42.0951 92.7986 42.2317C92.785 42.3956 92.7646 42.5595 92.7373 42.7234C92.726 42.7827 92.716 42.8407 92.7061 42.8976L92.706 42.8978L92.7059 42.8982L92.7059 42.8987L92.7057 42.8994L92.7057 42.8997L92.7057 42.9C92.6917 42.9801 92.6782 43.0578 92.6623 43.1333C92.6351 43.2699 92.6146 43.3928 92.5942 43.5158C92.5806 43.6114 92.5669 43.7138 92.5601 43.8163H98.5371V43.8026C98.5291 43.736 98.5216 43.67 98.5142 43.6046C98.4966 43.4487 98.4793 43.2961 98.4553 43.1469C98.4213 42.9284 98.3872 42.7098 98.3463 42.4912C98.2986 42.2385 98.2577 41.979 98.2168 41.7194C98.1834 41.5015 98.155 41.2837 98.1271 41.069C98.1095 40.9337 98.0921 40.7996 98.0737 40.6676C98.0396 40.3602 97.9987 40.0392 97.951 39.725C97.8965 39.3357 97.8351 38.9463 97.7738 38.5638C97.7465 38.3931 97.7193 38.2292 97.692 38.0652L97.6716 37.915L97.6645 37.8676L97.6644 37.867C97.6463 37.7451 97.6275 37.619 97.6034 37.4983C97.5762 37.3207 97.5489 37.15 97.5148 36.9792C97.4664 36.7367 97.4234 36.4834 97.381 36.2336L97.3649 36.1391C97.3288 35.9279 97.298 35.7114 97.2678 35.499L97.2675 35.4974L97.2672 35.4947L97.2671 35.4943L97.2558 35.4151C97.2422 35.3263 97.2286 35.2358 97.215 35.1453C97.2013 35.0548 97.1877 34.9643 97.1741 34.8755C97.157 34.7662 97.14 34.6587 97.1229 34.5511L97.1216 34.5426L97.1214 34.5417C97.1049 34.4372 97.0884 34.3327 97.0718 34.2266C97.0514 34.09 97.0292 33.9517 97.0071 33.8134L97.0067 33.8112L97.0067 33.8108L97.0066 33.8103C96.9846 33.673 96.9626 33.5358 96.9423 33.4002V33.3934C96.7379 33.4002 96.5199 33.4002 96.261 33.4002H96.2608H95.8178H95.3748H94.7683H94.7682C94.5433 33.4002 94.3729 33.4002 94.2094 33.407C94.1685 33.6256 94.1276 33.8442 94.0935 34.0627C94.0862 34.1181 94.0768 34.1715 94.0676 34.2239L94.0676 34.2241L94.0676 34.2242C94.0598 34.2687 94.0521 34.3126 94.0458 34.3564C94.0322 34.4281 94.0203 34.4999 94.0084 34.5716L94.0082 34.5725C93.9963 34.6439 93.9844 34.7153 93.9709 34.7867C93.9606 34.8516 93.9487 34.9165 93.9368 34.9814C93.9249 35.0463 93.9129 35.1112 93.9027 35.1761L93.8891 35.2512C93.8707 35.3725 93.8504 35.4919 93.8303 35.6103L93.8301 35.611C93.8129 35.7123 93.7957 35.813 93.78 35.9137C93.7596 36.023 93.746 36.1255 93.7323 36.2347L93.671 36.6241C93.6301 36.8973 93.5824 37.1773 93.5347 37.4505L93.4325 38.0447C93.3916 38.2906 93.3507 38.5434 93.3098 38.7961L93.2962 38.8712C93.2813 38.9727 93.2651 39.0781 93.2487 39.1845C93.2276 39.3217 93.2063 39.4606 93.1871 39.5952C93.1763 39.6677 93.1674 39.7401 93.1583 39.8136L93.1583 39.814L93.1582 39.8143L93.1582 39.8146ZM181.936 47.8393C182.249 47.8666 182.447 48.0783 182.454 48.3925C182.454 48.4608 182.454 48.5155 182.461 48.5701C182.454 48.8911 182.283 49.0756 181.963 49.1097C181.827 49.1234 181.711 49.1302 181.609 49.1302H178.01H175.7C175.032 49.1302 174.821 48.9185 174.821 48.2559V32.8401C174.821 32.1776 175.25 32.041 175.604 32.041H177.915C179.148 32.041 180.232 32.041 181.227 32.0478C181.459 32.0478 181.663 32.1844 181.738 32.2391C181.949 32.403 182.024 32.6694 181.936 32.9221C181.84 33.1816 181.636 33.3456 181.316 33.3934C181.268 33.4002 181.22 33.4002 181.186 33.4002H181.132H181.091H176.177V39.725H179.394H180.75H180.852C181.261 39.7455 181.547 39.9982 181.561 40.3602C181.575 40.7359 181.316 41.0227 180.907 41.0705C180.852 41.0774 180.805 41.0774 180.764 41.0774H180.668H179.298H176.17V47.8325H180.014H181.677H181.786C181.827 47.8325 181.881 47.8325 181.936 47.8393ZM122.336 32.0301H127.407C127.659 32.0301 127.856 32.1257 128.013 32.3238C128.143 32.4946 128.17 32.7336 128.081 32.9454C127.993 33.1503 127.816 33.2937 127.597 33.321C127.529 33.3279 127.461 33.3279 127.4 33.3279H127.318H124.197V48.0402V48.0948C124.197 48.1631 124.197 48.2382 124.19 48.3134C124.163 48.6959 123.904 48.9418 123.542 48.9418H123.536C123.167 48.9418 122.895 48.689 122.861 48.3202C122.854 48.2382 122.854 48.1631 122.854 48.0948V48.0333V33.321H121.784H119.63C119.501 33.321 119.33 33.3142 119.187 33.2322C118.949 33.1025 118.833 32.8566 118.881 32.5834C118.928 32.2965 119.153 32.0711 119.44 32.037C119.487 32.0301 119.535 32.0301 119.576 32.0301H122.336ZM138.196 47.8413C138.039 47.8003 137.903 47.773 137.773 47.773H135.292H133.991V32.9924V32.9378C133.991 32.8626 133.991 32.7875 133.984 32.7055C133.95 32.3982 133.725 32.1523 133.425 32.0908L133.41 32.0882C133.375 32.0824 133.345 32.0772 133.309 32.0772C133.057 32.0772 132.825 32.2343 132.723 32.4801C132.668 32.6167 132.641 32.7807 132.641 32.9651V45.8401V47.2881V47.5886V48.3331C132.655 48.859 132.9 49.0981 133.418 49.0981H135.251H137.896H137.957C137.991 49.0981 138.032 49.0981 138.08 49.0913C138.373 49.0571 138.611 48.7976 138.645 48.4834C138.679 48.2238 138.468 47.9233 138.196 47.8413Z" fill="white"/>
</svg>
