<svg width="200" height="80" fill="none" xmlns="http://www.w3.org/2000/svg"><path fill-rule="evenodd" clip-rule="evenodd" d="M17 40.324C17 31.322 24.322 24 33.324 24c9.003 0 16.325 7.322 16.325 16.324 0 9.003-7.322 16.325-16.325 16.325C24.322 56.649 17 49.327 17 40.324Zm1.25-.107-.003.107c0 6.689 4.378 12.37 10.423 14.337l-2.044-7.889c-.884-3.428-4.21-6.044-8.374-6.662l-.003.107Zm9.587 6.244 2.217 8.578a14.987 14.987 0 0 0 6.351.046l2.233-8.624c1.037-4.016 4.89-7.015 9.693-7.623-.752-7.619-7.194-13.591-15.007-13.591-7.822 0-14.265 5.983-15 13.616 4.71.66 8.491 3.658 9.513 7.598Zm12.007.311-2.06 7.956c6.147-1.906 10.618-7.644 10.618-14.404l-.002-.12a3.625 3.625 0 0 1-.003-.12c-4.256.567-7.649 3.194-8.553 6.688Zm25.85-4.562c-.422-.43-.858-.854-1.288-1.264l-.269-.261-.001-.002c-.188-.181-.377-.365-.561-.55-.804-.792-1.343-1.454-1.752-2.144-.32-.54-.51-1.011-.606-1.482l-.034-.186-.068-.368-.007-.02c-.102-.629-.027-1.182.232-1.7.347-.677.96-1.06 1.88-1.162.246-.027.484-.041.71-.041.565 0 1.076.082 1.546.26a.782.782 0 0 0 .246.047.684.684 0 0 0 .64-.47c.116-.329-.068-.677-.443-.82a1.277 1.277 0 0 0-.238-.069l-.015-.003a.53.53 0 0 1-.094-.024 6.466 6.466 0 0 0-1.779-.246h-.11a4.995 4.995 0 0 0-1.498.246c-.396.13-.75.307-1.084.553-.709.52-1.152 1.243-1.295 2.145-.095.567-.075 1.175.055 1.871.102.574.3 1.134.593 1.721.504 1.005 1.254 1.838 1.915 2.528.215.221.444.439.669.651a58.786 58.786 0 0 1 .331.316c.121.115.243.232.363.35v.001c.075.075.15.15.225.218l.004.005c.482.47.944.92 1.304 1.45.177.26.355.54.375.84.048.588.007 1.032-.13 1.435-.156.45-.381.799-.681 1.079-.484.43-1.09.676-1.976.785a5.567 5.567 0 0 1-.723.035c-.15 0-.293 0-.443-.007h-.075a6.303 6.303 0 0 1-.709-.069 2.134 2.134 0 0 0-.109-.013l-.156-.02-.157-.021a8.068 8.068 0 0 0-.586-.069h-.048a.632.632 0 0 0-.64.56.654.654 0 0 0 .53.731c.171.034.335.055.498.075l.055.007c.23.033.464.063.689.092l.45.059.422.054s.306-.027.429-.04c.259-.028.477-.049.702-.069a4.808 4.808 0 0 0 2.12-.67c.674-.402 1.172-.949 1.478-1.632.191-.416.287-.833.368-1.339.096-.553.041-1.106-.17-1.707-.177-.547-.532-1.072-1.084-1.646Zm87.455 5.53a27.76 27.76 0 0 1-.05-.436v-.001l-.046-.397-.061-.458a3.12 3.12 0 0 1-.034-.252l-.027-.185-.103-.758c-.018-.118-.031-.242-.044-.362l-.003-.034v-.001c-.021-.17-.041-.341-.069-.518l-.02-.138a48.656 48.656 0 0 0-.024-.16l-.007-.047-.01-.065-.041-.266-.051-.343a21.281 21.281 0 0 1-.071-.477l-.021-.157-.01-.082-.014-.112-.017-.127a6.999 6.999 0 0 1-.029-.21l-.01-.074-.015-.112c-.028-.198-.055-.397-.089-.595l-.061-.43c-.027-.17-.055-.341-.075-.512-.014-.103-.027-.205-.041-.3-.01-.08-.022-.158-.034-.236a9.542 9.542 0 0 1-.034-.236 77.516 77.516 0 0 0-.13-.806 120.055 120.055 0 0 1-.129-.796l-.027-.174c-.021-.15-.041-.294-.069-.444-.01-.065-.022-.131-.034-.198-.012-.066-.024-.133-.034-.198-.027-.136-.047-.273-.068-.41a5.116 5.116 0 0 1-.029-.19l-.025-.172c-.021-.15-.041-.3-.069-.45a19.75 19.75 0 0 0-.054-.311l-.001-.004v-.001l-.054-.306-.03-.174-.021-.12-.051-.294a32.756 32.756 0 0 0-.129-.75l-.137-.807-.068-.403c-.082-.444-.3-.628-.77-.628h-3.667c-.34 0-.62.212-.681.505-.102.513-.177.936-.245 1.325-.035.205-.069.417-.096.622a19.82 19.82 0 0 1-.095.635c-.048.287-.103.58-.157.86-.055.288-.109.588-.157.882-.053.312-.103.628-.152.939l-.039.25c-.027.17-.054.34-.075.505l-.02.136-.02.137-.011.075-.03.212a5.05 5.05 0 0 1-.048.32c-.01.083-.022.166-.034.25-.012.084-.024.167-.034.25-.017.099-.033.197-.048.297l-.048.297-.04.239c-.029.174-.059.348-.082.526-.025.16-.044.327-.063.49l-.005.05-.021.18-.012.109-.008.072c-.022.16-.047.316-.073.477l-.023.138c-.011.087-.028.17-.045.256l-.009.044-.024.137c-.021.122-.043.247-.058.376-.013.093-.024.186-.035.279h-.001c-.012.104-.025.207-.039.308l-.041.342-.032.24v.001c-.013.091-.025.184-.036.278l-.055.396-.058.423c-.018.142-.037.284-.057.424l-.035.225-.034.226a9.355 9.355 0 0 0-.061.41l-.007.047-.013.082-.024.172-.009.065c-.025.183-.051.37-.07.556-.027.327.239.614.6.655.027.007.061.007.089.007a.573.573 0 0 0 .586-.512c.048-.314.095-.635.136-.943l.034-.239.024-.184c.009-.062.017-.123.024-.185l.016-.134.004-.036.01-.077.011-.094c.012-.108.029-.21.047-.316l.007-.046.006-.044a7.33 7.33 0 0 0 .022-.152l.001-.004.001-.007.001-.005a14.741 14.741 0 0 0 .078-.594c.002-.02.003-.036.007-.048h6.407c.021.108.034.21.045.3l.006.044.003.025c.019.131.032.268.044.401l.004.036.01.093c.017.164.035.335.058.501l.041.31c.027.206.054.412.082.612l.051.366.051.365a.638.638 0 0 0 .627.553h.041c.402-.027.647-.28.64-.655v-.014l-.047-.328Zm-7.463-6.517a6.35 6.35 0 0 0 .029-.199l.025-.177.062-.41c.034-.197.061-.395.088-.6l.007-.048c.018-.127.036-.249.048-.376l.02-.15c.011-.094.023-.189.041-.287l.001-.007.081-.498.041-.246.027-.15c.014-.072.026-.146.038-.22l.037-.218c.014-.082.026-.165.038-.249.012-.084.023-.167.037-.25l.061-.395.062-.397c.02-.13.048-.266.075-.396l.017-.092.013-.068.031-.16c.017-.107.036-.213.055-.318l.054-.318c.017-.095.032-.19.047-.284l.001-.003v-.002l.048-.285c.011-.071.024-.143.037-.213l.015-.08.01-.055.006-.034.037-.202c.012-.066.024-.133.038-.201a2.65 2.65 0 0 0 .02-.144l.014-.102H149.68c.034.212.068.423.109.635l.039.23v.002c.037.215.074.434.104.65l.061.406.017.11a181.627 181.627 0 0 1 .188 1.252c.034.226.075.444.116.663l.122.69c.037.231.068.469.098.702l.001.002.01.081.082.574.082.519c.01.051.019.102.027.154l.027.153.007.048c.03.17.055.345.08.516l.009.065.037.267v.003c.012.09.024.18.038.27.034.28.075.573.116.86.04.253.081.505.122.751.041.24.082.485.116.724l.003.032a.296.296 0 0 1 .004.043h-5.977l.009-.063c.024-.179.049-.36.079-.538.035-.252.069-.505.11-.758.017-.135.04-.27.063-.409l.012-.069.007-.046c.018-.106.035-.208.047-.316 0-.116.02-.246.041-.369Zm-31.87-8.08c-.449-.464-1.042-.771-1.744-.915-.552-.11-1.132-.17-1.718-.184a84.778 84.778 0 0 0-1.445-.014H106.94c-.6 0-.832.24-.832.84v15.232c0 .095.007.198.028.314.04.266.225.45.477.505.061.014.122.02.177.02.238 0 .422-.108.518-.313.061-.13.095-.287.095-.438v-5.395H110.934c.102.225.19.464.272.696l.041.103c.07.18.136.359.201.536l.072.194a52.56 52.56 0 0 0 .535 1.394l.173.444.001.001c.075.191.15.382.224.566l.059.152.049.128h.001v.003l.109.284.169.436c.101.263.203.53.309.793a.627.627 0 0 0 .558.417h.041c.416 0 .546-.26.58-.37a1.06 1.06 0 0 0 .027-.58 4.236 4.236 0 0 0-.211-.594l-.031-.075-.031-.075-.001-.004c-.129-.334-.258-.667-.387-.993a48.947 48.947 0 0 1-.355-.916l-.368-.949-.368-.95c-.102-.259-.197-.518-.293-.777v-.001l-.041-.102a1.86 1.86 0 0 0 .089-.041l.013-.007c.227-.107.441-.208.655-.328.6-.342 1.063-.874 1.411-1.633.279-.614.449-1.318.504-2.151.082-1.134.102-2.466-.307-3.798a3.424 3.424 0 0 0-.818-1.455Zm-1.179 7.712c-.279.239-.627.403-1.063.505-.545.123-1.104.137-1.635.137h-2.508v-8.1H109.352c.716 0 1.261.006 1.772.026.777.028 1.363.253 1.779.683.259.26.436.608.573 1.1.197.745.204 1.516.197 2.24a11.94 11.94 0 0 1-.129 1.62c-.13.785-.43 1.372-.907 1.789Zm56.002 5.779v1.428c0 .013 0 .027.007.034 0 .04 0 .095-.007.157-.061.375-.15.69-.695.69h-.068c-.096-.007-.191-.007-.287-.007-.088 0-.163 0-.238.007h-.089c-.47 0-.627-.26-.77-.581-.122-.285-.247-.57-.372-.852l-.001-.004-.206-.47c-.051-.119-.104-.238-.157-.358-.053-.12-.106-.239-.157-.358-.081-.188-.165-.374-.248-.56a49.735 49.735 0 0 1-.249-.56l-.355-.8c-.144-.334-.291-.665-.437-.996l-.002-.003c-.101-.23-.203-.458-.303-.688a42.592 42.592 0 0 0-.362-.826l-.286-.652-.286-.653-.427-.962-.002-.005-.232-.522c-.259-.573-.518-1.154-.77-1.728-.396-.888-.784-1.776-1.173-2.663l-.095-.219a58.626 58.626 0 0 1-.32-.738v14.528c0 .15 0 .533-.368.738a.662.662 0 0 1-.321.082.601.601 0 0 1-.572-.403 1.466 1.466 0 0 1-.089-.52V32.872a.747.747 0 0 1 .014-.246c.068-.348.327-.56.709-.574.109-.006.225-.006.361-.006l.218.003.218.003c.539.007.739.462.815.637l.003.005c.175.406.355.816.534 1.224l.004.009.002.005.002.003.001.004.002.003.001.002.015.034.011.025.3.686.43.977c.184.413.366.828.548 1.243.183.415.365.83.549 1.243l.532 1.209.387.88.002.005.002.004.001.002.001.002v.002l.001.001.005.013.004.007.387.88c.13.287.257.579.382.868l.001.002.115.264.572 1.311.164.367.002.003.002.006c.098.22.196.438.296.656l.449 1.004.215.495.005.01.21.485c.036.074.069.152.101.227l.028.067V32.844c0-.178.027-.403.232-.588a.691.691 0 0 1 .436-.164c.273 0 .511.171.593.424.048.143.075.3.075.45v13.668Zm-84.55-14.575c.177 0 .334.007.484.014.477.027.695.252.702.724V48.383c0 .52-.327.663-.464.704a.724.724 0 0 1-.17.02.626.626 0 0 1-.545-.314.683.683 0 0 1-.089-.287C84 48.424 84 48.342 84 48.267V33.398h-.129a.933.933 0 0 0-.041.089l-.007.013c-.215.518-.425 1.047-.63 1.563l-.065.165-.123.3c-.05.134-.104.267-.156.4-.053.134-.106.267-.157.4l-.116.292c-.161.407-.326.824-.49 1.231-.1.248-.205.5-.307.747l-.089.216-.17.417-.17.416-.328.82c-.048.116-.094.232-.14.348a28.09 28.09 0 0 1-.14.349c-.047.12-.096.237-.146.354-.05.119-.099.237-.146.356l-.154.376-.153.375-.18.458-.181.458c-.041.099-.08.2-.12.3-.039.1-.078.202-.119.3-.17.445-.49.534-.722.534a.338.338 0 0 1-.04-.004.406.406 0 0 0-.049-.003h-.082c-.027.007-.061.007-.088.007-.062 0-.157 0-.246-.048-.122-.062-.34-.192-.429-.403-.263-.622-.52-1.255-.77-1.876l-.239-.59-.006-.014a55.323 55.323 0 0 0-.254-.65l-.183-.463c-.156-.382-.306-.763-.455-1.145v-.001h-.001v-.001c-.12-.299-.244-.6-.366-.898l-.001-.002v-.002l-.11-.266-.43-1.046c-.163-.403-.327-.805-.484-1.208a36.08 36.08 0 0 0-.3-.765l-.3-.75v-.002c-.15-.377-.305-.767-.463-1.147h-.129v14.828c0 .178-.034.355-.089.506a.58.58 0 0 1-.552.368h-.054c-.402-.034-.532-.273-.573-.416a1.387 1.387 0 0 1-.068-.41V32.824c0-.471.266-.744.73-.758.176-.007.353-.007.53-.007h.001c.184 0 .368 0 .545.007.457.014.661.28.75.505.137.35.279.699.417 1.04l.001.002v.001l.001.002v.001l.078.19.12.298c.039.099.078.198.119.297l.136.341c.155.379.308.76.46 1.141h.001v.001l.001.002.329.817c.227.564.437 1.09.634 1.584l.001.003.002.006.385.961c.095.246.192.491.29.737v.001l.29.737.19.482.19.481.209.527.208.525c.021-.06.107-.269.182-.45l.104-.253.097-.238.319-.787c.15-.375.3-.758.45-1.14.085-.219.171-.436.258-.653.087-.216.174-.433.26-.652.083-.212.17-.421.255-.63l.18-.442.184-.458a120.875 120.875 0 0 0 .32-.801l.001-.001c.075-.19.148-.377.225-.564l.368-.922c.137-.35.278-.694.42-1.042l.125-.304c.04-.102.082-.203.123-.303l.122-.304.014-.035.006-.013.005-.013.003-.008.018-.042a.941.941 0 0 0 .036-.087c.11-.342.368-.52.784-.533l.137-.005c.16-.005.292-.009.415-.009Zm16.218 14.862.009.065c.014.085.025.172.037.26.012.086.024.173.038.259.027.218.048.43.054.642.007.341-.259.594-.654.614h-.027a.62.62 0 0 1-.614-.553 23.54 23.54 0 0 0-.095-.683 75.838 75.838 0 0 0-.058-.42 61.846 61.846 0 0 1-.113-.87v-.001l-.02-.177c-.013-.171-.034-.342-.054-.513-.013-.117-.036-.234-.06-.357v-.001h-.001l-.007-.038h-6.4v.02a46.7 46.7 0 0 1-.13.964l-.06.437-.062.437c-.019.123-.032.247-.044.365l-.004.038-.004.037c-.012.125-.025.256-.044.387v.013l-.012.082c-.022.154-.046.315-.103.471-.069.185-.253.3-.389.342a.656.656 0 0 1-.845-.67c.02-.211.055-.43.089-.635l.04-.287.007-.027c.028-.198.055-.403.082-.608l.024-.198a8.31 8.31 0 0 0 .024-.198 15.837 15.837 0 0 1 .115-.89v-.001l.042-.277.027-.18.027-.182c.034-.205.061-.41.089-.615l.04-.328c.014-.091.026-.183.038-.275l.037-.278c.015-.125.036-.25.057-.374l.025-.152a24.177 24.177 0 0 0 .143-.895c.02-.122.035-.245.048-.368l.007-.055a13.928 13.928 0 0 1 .157-1.045l.01-.066.016-.093a15.433 15.433 0 0 1 .028-.179l.014-.085.061-.39c.014-.085.026-.169.038-.252v-.002l.037-.251c.034-.253.075-.52.116-.779l.064-.375c.023-.144.047-.286.072-.424l.103-.615c.015-.094.03-.186.043-.278l.052-.323.051-.314.051-.314.044-.25.045-.249c.01-.05.019-.102.027-.153.009-.052.017-.103.027-.154l.005-.03a16.707 16.707 0 0 0 .114-.716c.01-.071.022-.14.031-.21.025-.152.05-.31.074-.47l.049-.316.009-.047c.025-.133.053-.285.114-.43.061-.144.238-.397.667-.397h3.68c.416 0 .662.205.73.615l.123.696.115.668.157.917c.04.218.074.438.108.658v.003l.056.35.123.799c.04.28.088.553.136.827a35.166 35.166 0 0 1 .286 1.817l.009.064c.024.184.05.373.08.557.034.232.068.457.109.69l.054.352a31.966 31.966 0 0 1 .123.85l.004.034a7.163 7.163 0 0 0 .085.615l.04.252c.008.06.017.116.026.172.008.048.016.095.022.143l.013.077c.03.184.059.365.082.551.021.137.04.275.059.413v.002c.018.138.037.275.057.411l.021.15.033.24.026.194.002.012v.002l.062.448c.006.071.015.141.023.211.009.07.017.14.024.212l.062.485c.009.107.025.211.04.314l.012.079Zm-7.149-7.106-.025.197-.062.444-.006.043a7.935 7.935 0 0 1-.062.408l-.027.157-.014.084-.007.042-.02.126-.082.513c-.02.13-.04.266-.054.403a6.023 6.023 0 0 1-.062.491l-.03.175h-.001v.002c-.014.08-.028.158-.044.233-.027.137-.047.26-.068.383a4.047 4.047 0 0 0-.034.3h5.977v-.013a28.904 28.904 0 0 1-.023-.198 9.856 9.856 0 0 0-.059-.458 21.69 21.69 0 0 0-.109-.656 26.013 26.013 0 0 1-.219-1.422l-.053-.401a23.889 23.889 0 0 0-.123-.943 59.362 59.362 0 0 0-.259-1.66l-.02-.15-.007-.047v-.001a7.614 7.614 0 0 0-.062-.369 11.634 11.634 0 0 0-.088-.519 26.584 26.584 0 0 1-.134-.745l-.016-.095a23.236 23.236 0 0 1-.097-.64v-.004l-.012-.08-.041-.27-.04-.27-.052-.324-.001-.008v-.001l-.05-.315c-.02-.137-.043-.275-.065-.414v-.002l-.065-.41v-.008c-.204.007-.422.007-.681.007H94.768c-.225 0-.395 0-.559.007-.04.219-.081.437-.115.656l-.026.16v.001c-.008.045-.016.089-.022.132-.014.072-.026.144-.038.216a9.997 9.997 0 0 1-.037.215c-.01.065-.022.13-.034.194-.012.065-.024.13-.034.195l-.014.075c-.018.122-.039.24-.059.36l-.05.303a5.31 5.31 0 0 0-.048.32l-.061.39c-.04.273-.089.553-.136.826l-.102.595-.123.751-.014.075c-.015.102-.03.207-.047.313-.021.138-.043.277-.062.411l-.029.219Zm88.778 8.024c.313.028.511.24.518.553 0 .069 0 .123.007.178-.007.321-.178.506-.498.54-.136.013-.252.02-.354.02H175.7c-.668 0-.879-.212-.879-.874V32.84c0-.662.429-.799.783-.799h2.311c1.233 0 2.317 0 3.312.007.232 0 .436.136.511.191.211.164.286.43.198.683-.096.26-.3.424-.62.471-.048.007-.096.007-.13.007H176.177v6.325H180.852c.409.02.695.273.709.635.014.376-.245.663-.654.71a1.094 1.094 0 0 1-.143.007h-4.594v6.756h5.616c.041 0 .095 0 .15.006Zm-59.6-15.809h5.071a.73.73 0 0 1 .606.294c.13.17.157.41.068.621a.608.608 0 0 1-.484.376c-.068.007-.136.007-.197.007h-3.203v14.767c0 .068 0 .143-.007.218-.027.383-.286.629-.648.629h-.006a.657.657 0 0 1-.675-.622c-.007-.082-.007-.157-.007-.225V33.32h-3.224c-.129 0-.3-.007-.443-.089a.596.596 0 0 1-.306-.649.65.65 0 0 1 .559-.546c.047-.007.095-.007.136-.007h2.76Zm15.86 15.811a1.693 1.693 0 0 0-.423-.068h-3.782V32.938c0-.075 0-.15-.007-.233a.703.703 0 0 0-.559-.614l-.015-.003c-.035-.006-.065-.01-.101-.01a.64.64 0 0 0-.586.402c-.055.137-.082.3-.082.485v15.368c.014.526.259.765.777.765h4.539c.034 0 .075 0 .123-.007.293-.034.531-.293.565-.608.034-.26-.177-.56-.449-.642Z" fill="#fff"/></svg>