<svg width="200" height="80" fill="none" xmlns="http://www.w3.org/2000/svg"><path fill-rule="evenodd" clip-rule="evenodd" d="M75.75 20.15H16.19v39.71h59.56V20.15Zm1.19 40.92H15V19h61.94v42.07Zm99.4-28.47c.77.37 1.62.55 2.56.55v.01c.9 0 1.74-.17 2.51-.53.77-.36 1.44-.83 1.99-1.43s.99-1.28 1.3-2.06a6.552 6.552 0 0 0 .02-4.83 6.85 6.85 0 0 0-1.27-2.09 6.329 6.329 0 0 0-1.96-1.49c-.76-.38-1.64-.57-2.54-.57-.9 0-1.74.17-2.51.53-.77.35-1.44.83-2 1.43s-1 1.29-1.32 2.07c-.32.79-.48 1.64-.48 2.46a6.759 6.759 0 0 0 1.73 4.49c.55.61 1.2 1.09 1.97 1.46Zm-.92-4.33a5.16 5.16 0 0 1-.25-1.61h-.01c0-.53.08-1.05.24-1.56.16-.51.4-.97.71-1.37.32-.4.71-.72 1.18-.97s1.03-.37 1.61-.37c.58 0 1.11.11 1.57.35.47.24.86.55 1.18.95.32.4.56.85.74 1.37.17.52.26 1.08.26 1.61s-.08 1.05-.24 1.56c-.16.51-.4.97-.72 1.38-.32.41-.72.73-1.18.98-.46.25-1.01.37-1.6.37-.59 0-1.11-.12-1.58-.36s-.86-.56-1.18-.96c-.32-.4-.56-.85-.73-1.37Zm-20.32 3.192c.37-.36.65-.79.86-1.27l.01-.01-2.04-1.17c-.16.35-.36.64-.61.89-.25.24-.52.44-.82.6-.29.15-.6.27-.92.34-.32.07-.63.11-.93.11-.52 0-.99-.09-1.42-.27-.43-.18-.8-.43-1.13-.74-.33-.31-.6-.68-.81-1.1-.22-.42-.36-.87-.43-1.34h5.21v-2h-5.14c.09-.41.22-.8.41-1.18.18-.38.43-.71.73-1 .3-.28.67-.52 1.09-.69.42-.17.91-.26 1.45-.26a4.068 4.068 0 0 1 1.8.42c.29.15.56.34.81.59.24.25.45.55.62.91l1.92-1.32c-.42-.83-1.06-1.5-1.92-2.02-.86-.52-1.92-.78-3.17-.78-1.04 0-1.95.19-2.75.56-.8.37-1.47.86-2.01 1.46-.54.6-.96 1.29-1.24 2.05-.29.77-.43 1.5-.43 2.32 0 .82.15 1.62.45 2.41.31.79.73 1.49 1.28 2.11a6.36 6.36 0 0 0 1.99 1.51c.78.39 1.65.58 2.6.58.58 0 1.14-.07 1.7-.2s1.08-.33 1.56-.58c.49-.25.91-.56 1.28-.93Zm-19.45 1.719c-.13 0-.28 0-.43-.03a8.091 8.091 0 0 1-.414-.067l-.076-.014c-.17-.04-.33-.08-.5-.15-.16-.06-.31-.13-.43-.22l.32-2.06c.13.07.32.15.55.24.24.09.48.14.73.14.35 0 .65-.1.91-.3.26-.2.49-.56.68-1.07l-4.72-9.42h2.7l3.15 6.91 2.93-6.91h2.62l-4.52 9.75c-.27.58-.52 1.07-.78 1.47-.25.4-.52.73-.79.99s-.56.45-.88.56c-.31.11-.67.17-1.07.17l.02.01ZM91.74 20.238H81.16v12.82h2.47v-10.63h5.63v10.63h2.48v-12.82Zm2.8 0v12.8h2.5v-4.29h3.04c.59 0 1.14-.12 1.63-.36.5-.24.92-.56 1.27-.96.35-.4.62-.85.81-1.36.19-.51.29-1.07.29-1.58s-.1-1.03-.31-1.54-.49-.97-.85-1.37c-.36-.4-.79-.72-1.29-.97s-1.05-.37-1.64-.37h-5.45Zm5.4 6.34h-2.9v-4.16h2.79c.22 0 .43.04.64.13.21.09.39.23.55.41.16.18.28.4.38.66.1.26.15.56.15.88 0 .64-.15 1.15-.46 1.52-.31.37-.69.56-1.15.56Zm12.6 6.484v-4.75h-2.04l-2.89 4.75h-2.75l3.15-5.05c-.74-.3-1.33-.78-1.77-1.44-.45-.66-.67-1.43-.67-2.29 0-.54.1-1.05.31-1.53s.49-.91.85-1.28.79-.67 1.29-.88c.5-.22 1.05-.33 1.64-.33h5.37v12.82h-2.48l-.01-.02Zm0-10.68h-2.62c-.24 0-.47.04-.69.13-.22.09-.41.22-.59.38s-.31.36-.42.6c-.1.24-.15.5-.15.79 0 .58.17 1.04.52 1.39.34.35.77.52 1.28.52h2.68v-3.81h-.01Zm15.74 2.196v8.48h2.5v-12.82h-2.66l-3.83 7.3-3.8-7.3h-2.68v12.82h2.5v-8.48l3.31 6.31h1.35l3.31-6.31Zm39.9 8.48v-8.48l-3.32 6.31h-1.35l-3.31-6.31v8.48h-2.5v-12.82h2.68l3.8 7.3 3.83-7.3h2.66v12.82h-2.49Zm-86.92 25.86v-21.84h9.28c1.01 0 1.94.21 2.79.63.85.42 1.59.97 2.21 1.66.62.69 1.1 1.47 1.45 2.34.35.87.53 1.75.53 2.63 0 .88-.17 1.82-.49 2.69-.33.87-.79 1.65-1.39 2.32-.6.68-1.32 1.22-2.16 1.63-.84.41-1.77.62-2.78.62h-5.18v7.32h-4.26Zm4.26-11.04h4.93c.78 0 1.43-.32 1.96-.95.52-.64.79-1.5.79-2.58 0-.55-.08-1.05-.25-1.49-.16-.44-.38-.82-.65-1.12a2.52 2.52 0 0 0-.94-.69c-.36-.15-.72-.23-1.1-.23h-4.75v7.08l.01-.02Zm24.94-10.8H106.69l-8.36 21.84h4.38l2.01-5.45h7.65l2.04 5.45h4.38l-8.33-21.84Zm-1.88 4.83 3.02 8.58h-6.17l3.15-8.58Zm11.35-2.03c.88-.98 1.9-1.73 3.05-2.23s2.53-.75 4.13-.75c2.1 0 3.76.46 4.98 1.38 1.22.92 1.84 2.28 1.84 4.06 0 1.11-.27 2.11-.82 3-.54.89-1.4 1.52-2.58 1.89 1.36.27 2.41.87 3.15 1.8.74.93 1.11 2.09 1.11 3.46 0 1.03-.2 1.94-.6 2.75-.4.81-.95 1.5-1.65 2.06-.7.57-1.54 1-2.51 1.31-.98.31-2.03.46-3.16.46-1.58 0-2.98-.26-4.19-.78-1.21-.52-2.29-1.31-3.24-2.35l2.47-2.95c.62.72 1.31 1.28 2.08 1.69.77.41 1.7.62 2.79.62s1.98-.29 2.68-.86c.7-.57 1.05-1.37 1.05-2.4 0-.94-.37-1.72-1.1-2.34-.73-.61-1.84-.92-3.32-.92h-2.28v-3.14h2.04c1.32 0 2.32-.24 3.02-.72.7-.48 1.05-1.16 1.05-2.05 0-.78-.26-1.37-.79-1.79-.52-.41-1.27-.61-2.24-.61-.97 0-1.82.18-2.57.54-.75.36-1.41.87-1.99 1.52l-2.41-2.65h.01Zm23.21 18.262c1.3.63 2.76.94 4.36.94l.01.01c1.55 0 2.97-.31 4.29-.91 1.31-.6 2.44-1.41 3.39-2.43.95-1.02 1.69-2.19 2.22-3.51.53-1.32.8-2.71.8-4.17 0-1.37-.26-2.73-.77-4.06-.51-1.33-1.23-2.52-2.16-3.57-.93-1.05-2.04-1.89-3.35-2.54-1.3-.65-2.79-.97-4.33-.97s-2.97.31-4.29.91c-1.32.61-2.45 1.42-3.41 2.45-.96 1.03-1.71 2.21-2.25 3.54-.55 1.33-.82 2.79-.82 4.18 0 1.39.26 2.76.77 4.09.52 1.33 1.24 2.51 2.18 3.55.93 1.03 2.05 1.87 3.36 2.49Zm-1.55-7.39c-.29-.88-.43-1.8-.43-2.74h-.01c0-.9.14-1.79.42-2.66.28-.87.69-1.65 1.22-2.34s1.2-1.24 2-1.66c.81-.42 1.76-.63 2.75-.63s1.88.2 2.67.6c.79.4 1.46.94 2 1.62.54.68.96 1.46 1.26 2.34.3.88.45 1.84.45 2.74 0 .9-.14 1.79-.42 2.66-.27.87-.69 1.65-1.23 2.35-.54.7-1.21 1.26-2 1.68-.79.42-1.72.63-2.73.63s-1.91-.21-2.7-.62c-.79-.41-1.46-.95-2-1.63a7.31 7.31 0 0 1-1.25-2.34Zm37.8 8.168v-14.46l-5.64 10.77h-2.32l-5.64-10.77v14.46h-4.26v-21.84h4.57l6.47 12.43 6.54-12.43h4.54v21.84h-4.26ZM44.7 28.798l1.26-.91 1.26.91-.48-1.48 1.27-.92h-1.57l-.48-1.5-.48 1.51-1.58-.01 1.28.92-.48 1.48Zm-5.24.83-1.26.92.48-1.48-1.28-.92h1.57l.48-1.5.49 1.5h1.57l-1.28.92.48 1.48-1.25-.92Zm-4.76 1.794-.49 1.5h-1.57l1.28.92-.48 1.48 1.26-.92 1.25.92-.47-1.48 1.27-.92h-1.57l-.48-1.5Zm-.49 10.398-1.26-.92-1.26.92.48-1.49-1.27-.91h1.57l.48-1.51.48 1.51H35l-1.27.91.48 1.49Zm.97 4.11-.48-1.5-.49 1.5h-1.57l1.28.92-.48 1.48 1.26-.92 1.25.92-.48-1.48 1.28-.92h-1.57Zm4.28 3.27.49 1.5h1.57l-1.28.92.48 1.48-1.26-.92-1.25.92.48-1.48-1.28-.92h1.57l.48-1.5Zm6.98 3.232-.48-1.51-.48 1.51h-1.57l1.27.92-.48 1.48 1.26-.92 1.26.92-.48-1.48 1.27-.92h-1.57Zm6.02-3.233.48 1.5h1.57l-1.28.92.48 1.48-1.25-.92-1.26.92.48-1.48-1.28-.92h1.57l.49-1.5Zm5.25-3.27-.49-1.5-.48 1.5h-1.57l1.28.92-.48 1.48 1.25-.92 1.26.92-.48-1.48 1.28-.92h-1.57Zm1.72-6.53h1.58l-1.28.92.48 1.48-1.26-.92-1.26.92.48-1.48-1.27-.92h1.57l.48-1.5.48 1.5Zm-3.46-4.1 1.25-.92 1.26.92-.48-1.48 1.28-.92h-1.57l-.49-1.5-.48 1.5h-1.57l1.28.92-.48 1.48Zm-3.98-7.15.48-1.5.49 1.5h1.57l-1.28.92.48 1.48-1.25-.92-1.26.92.48-1.48-1.28-.92h1.57Z" fill="#fff"/></svg>