<svg width="200" height="80" fill="none" xmlns="http://www.w3.org/2000/svg"><path fill-rule="evenodd" clip-rule="evenodd" d="M58.996 40c0 11.045-8.95 20-19.996 20-11.045 0-20-8.955-20-20s8.955-20 20-20 19.996 8.955 19.996 20ZM39.157 51.154c-5.493.019-11.21-4.67-11.236-12.203-.018-4.979 2.671-9.774 6.103-12.618 3.351-2.77 7.94-4.553 12.1-4.567.536 0 1.099.044 1.44.161-3.637.754-6.533 4.141-6.522 7.981 0 .129.011.265.026.327 6.088 1.485 8.852 5.16 8.87 10.24.015 5.086-3.998 10.657-10.78 10.679Zm26.64-17.47 6.114 14.592h3.27l5.935-14.592h-3.814l-3.697 9.69-3.814-9.69h-3.994Zm25.747 5.49c.143.547.213 1.124.213 1.73 0 .63-.07 1.213-.213 1.75a4.343 4.343 0 0 1-.636 1.41 3.234 3.234 0 0 1-1.029.96c-.404.231-.878.349-1.422.349-.544 0-1.025-.118-1.437-.35a3.032 3.032 0 0 1-1.032-.958 4.568 4.568 0 0 1-.617-1.411 6.77 6.77 0 0 1-.213-1.75c0-.606.07-1.182.213-1.73.14-.547.352-1.018.635-1.41.28-.398.625-.71 1.03-.942.4-.235.877-.352 1.421-.352s1.018.117 1.422.352c.404.232.746.544 1.03.941.282.393.495.864.635 1.411Zm3.468 4.55a9.25 9.25 0 0 0 .438-2.803c0-.948-.147-1.874-.438-2.785a7.385 7.385 0 0 0-1.319-2.437 6.548 6.548 0 0 0-2.179-1.723c-.867-.433-1.888-.654-3.057-.654-1.172 0-2.197.22-3.072.654a6.382 6.382 0 0 0-2.182 1.723 7.622 7.622 0 0 0-1.301 2.437 9.114 9.114 0 0 0-.437 2.785c0 .951.147 1.885.437 2.803a7.769 7.769 0 0 0 1.3 2.466 6.466 6.466 0 0 0 2.183 1.756c.875.445 1.9.665 3.072.665 1.169 0 2.194-.22 3.072-.665a6.416 6.416 0 0 0 2.179-1.756 7.704 7.704 0 0 0 1.304-2.466Zm9.693-7.254c.625 0 1.298.143 2.022.426v7.231c-.203.342-.544.643-1.026.897-.481.25-.951.378-1.414.378-.563 0-1.051-.128-1.463-.378a3.21 3.21 0 0 1-1.021-1.003 4.507 4.507 0 0 1-.603-1.46 7.557 7.557 0 0 1-.198-1.745 5.627 5.627 0 0 1 .228-1.594 4.47 4.47 0 0 1 .676-1.4 3.26 3.26 0 0 1 1.146-.985c.459-.242 1.014-.367 1.653-.367Zm2.172 10.689.151 1.117h3.45V28.085h-3.751v5.658c-.886-.279-1.713-.422-2.477-.422-1.165 0-2.183.22-3.046.654a6.405 6.405 0 0 0-2.16 1.723 7.37 7.37 0 0 0-1.283 2.436 9.425 9.425 0 0 0-.419 2.785c0 1.011.136 1.98.404 2.907.272.93.673 1.749 1.194 2.455a5.94 5.94 0 0 0 1.933 1.693c.761.423 1.65.636 2.653.636.764 0 1.429-.147 1.992-.44.565-.291 1.017-.63 1.359-1.011Zm12.919-5.618c.427-.048.846-.086 1.25-.107v2.969a4.23 4.23 0 0 1-1.172.757c-.447.2-.93.302-1.419.301-.65 0-1.15-.147-1.506-.437-.357-.294-.533-.684-.533-1.165 0-.467.158-.893.47-1.29.316-.393.878-.669 1.694-.83.403-.084.808-.15 1.216-.198Zm1.404 5.632.147 1.092h3.425v-9.377c0-.989-.136-1.83-.408-2.525-.276-.698-.654-1.271-1.136-1.723a4.479 4.479 0 0 0-1.727-1c-.665-.213-1.403-.32-2.212-.32-.683 0-1.326.067-1.921.2-.596.131-1.128.293-1.602.484a8.29 8.29 0 0 0-1.213.592 5.312 5.312 0 0 0-.742.514l1.242 2.631c.143-.121.33-.257.562-.408.235-.15.503-.301.808-.455a5.3 5.3 0 0 1 1.033-.375 4.715 4.715 0 0 1 1.22-.155c.727 0 1.301.173 1.716.515.419.345.624.918.624 1.727v.213c-.385.04-.867.084-1.444.136a14.35 14.35 0 0 0-1.594.224 10.52 10.52 0 0 0-1.974.548 6.409 6.409 0 0 0-1.671.937 4.192 4.192 0 0 0-1.154 1.407c-.287.555-.426 1.198-.426 1.922 0 .727.135 1.378.411 1.954a4.43 4.43 0 0 0 1.077 1.452c.444.393.955.698 1.536.907.573.213 1.179.32 1.807.32a5.47 5.47 0 0 0 2.066-.382 4.163 4.163 0 0 0 1.55-1.055Zm14.459-16.017c.353.11.588.199.709.258l.423-3.116c-.1-.063-.449-.176-1.044-.35-.595-.172-1.345-.257-2.252-.257a6.14 6.14 0 0 0-1.911.287 3.972 3.972 0 0 0-1.529.911c-.433.412-.771.948-1.014 1.602-.242.658-.363 1.46-.363 2.407v.786h-1.937v3.028h1.937v11.564h3.755V36.712h3.119v-3.028h-3.149v-.694c0-.706.177-1.216.53-1.529.352-.312.793-.47 1.315-.47.588 0 1.055.055 1.411.165Zm10.729 8.018c.14.547.214 1.124.214 1.73 0 .63-.074 1.213-.214 1.75a4.332 4.332 0 0 1-.635 1.41 3.238 3.238 0 0 1-1.029.96c-.404.231-.878.349-1.422.349-.544 0-1.025-.118-1.441-.35a3.048 3.048 0 0 1-1.028-.958 4.65 4.65 0 0 1-.621-1.411 6.919 6.919 0 0 1-.21-1.75c0-.606.07-1.182.21-1.73a4.29 4.29 0 0 1 .635-1.41c.283-.398.629-.71 1.033-.942.4-.235.878-.352 1.422-.352.544 0 1.018.117 1.422.352.404.232.746.544 1.029.941.283.393.496.864.635 1.411Zm3.465 4.55a9.139 9.139 0 0 0 .441-2.803c0-.948-.147-1.874-.441-2.785a7.303 7.303 0 0 0-1.315-2.437 6.546 6.546 0 0 0-2.179-1.723c-.867-.433-1.889-.654-3.057-.654-1.172 0-2.197.22-3.072.654a6.386 6.386 0 0 0-2.183 1.723 7.625 7.625 0 0 0-1.3 2.437 9.137 9.137 0 0 0 0 5.589 7.771 7.771 0 0 0 1.3 2.465 6.47 6.47 0 0 0 2.183 1.756c.874.445 1.9.665 3.072.665 1.168 0 2.194-.22 3.072-.665a6.426 6.426 0 0 0 2.179-1.756 7.614 7.614 0 0 0 1.3-2.466Zm12.093-3.771v8.323h3.755v-8.628c0-1.128-.128-2.098-.378-2.906-.254-.805-.61-1.463-1.077-1.966a4.16 4.16 0 0 0-1.664-1.106 6.246 6.246 0 0 0-2.12-.346c-.746 0-1.489.129-2.224.394a6.552 6.552 0 0 0-1.984 1.117l-.18-1.15h-3.421v14.59h3.752v-10.35a6.829 6.829 0 0 1 1.29-1 3.009 3.009 0 0 1 1.616-.455c.831 0 1.474.305 1.94.907.463.607.695 1.466.695 2.576Zm15.113-2.043c.173.371.279.812.32 1.316h-5.571c.103-.97.448-1.694 1.036-2.18.588-.484 1.206-.727 1.856-.727.305 0 .602.055.9.165.294.114.566.283.82.519.253.231.466.532.639.907Zm-4.185 6.673c-.691-.544-1.073-1.433-1.154-2.664h9.473v-.665c0-1.393-.166-2.594-.5-3.601-.331-1.01-.786-1.834-1.36-2.47a5.272 5.272 0 0 0-2.043-1.407 7.159 7.159 0 0 0-2.575-.455c-.93 0-1.801.172-2.62.514a6.422 6.422 0 0 0-2.15 1.485c-.613.646-1.098 1.444-1.451 2.392s-.529 2.039-.529 3.27c0 1.312.191 2.443.577 3.391.382.948.896 1.738 1.543 2.374a6.059 6.059 0 0 0 2.252 1.411c.86.301 1.76.452 2.712.452a11.9 11.9 0 0 0 2.058-.165 12.813 12.813 0 0 0 1.635-.394 7.074 7.074 0 0 0 1.165-.485c.312-.172.54-.308.683-.407l-.999-3.061a2.937 2.937 0 0 1-.548.397c-.242.14-.536.283-.882.422a6.572 6.572 0 0 1-1.187.35 7.336 7.336 0 0 1-1.429.135c-1.091 0-1.984-.275-2.671-.82Z" fill="#fff"/></svg>