<svg width="200" height="80" fill="none" xmlns="http://www.w3.org/2000/svg"><path d="M160.774 45.466c-.282 0-.848 0-1.602-.283-1.319-.565-2.356-1.602-3.487-2.639-.659-.66-3.392-3.392-5.183-5.371 2.074-.943 3.487-2.922 3.487-5.466 0-.472-.094-.849-.188-1.32a3.816 3.816 0 0 0-.943-1.602l-.094-.094c-.377-.377-1.508-1.414-4.618-1.414h-.377c-.848 0-2.639.095-3.298.095-.566 0-1.791 0-2.922-.095H140.89c-.377 0-.566.095-.566.189 0 .188.189.282.471.282.377 0 .849 0 1.037.095.848.188 1.037.471 1.131 1.32v9.518c0 2.261 0 4.24-.094 5.277-.095.754-.189 1.225-.754 1.32-.189.094-.566.094-.943.094-.282 0-.377.188-.377.282 0 .189.189.283.472.283h.094c.942 0 2.544-.094 3.11-.094.659 0 2.167.094 3.864.094.282 0 .471-.094.471-.283 0-.094-.094-.188-.377-.188-.377 0-.942-.094-1.225-.094-.754-.095-.848-.66-.943-1.32-.094-1.036-.094-3.016-.094-5.277v-9.801c0-.283.094-.377.189-.471.094 0 .188 0 .282-.095h.66c.565 0 1.602.189 2.45.943.566.565.943 1.13 1.131 1.79.283.66.283 1.32.283 1.79v.095c0 1.414-.566 2.45-1.319 3.204-.66.566-1.32.848-1.98.848-.471 0-.659.095-.659.283v.094c1.319 1.602 5.183 6.032 6.125 6.88 1.131.942 1.98 1.508 3.299 1.602.565.094 1.037.094 1.79.094h2.262c.471 0 .566-.094.566-.282a.52.52 0 0 0-.472-.283ZM20.827 25.11c-.377-1.13-.754-1.885-1.13-2.168-.378-.282-.943-.282-1.226-.282-.282 0-.471 0-.471-.283 0-.188.283-.283.66-.283 1.602 0 3.298.095 3.58.095.284 0 1.603-.095 3.488-.095.471 0 .66.095.66.283 0 .283-.283.283-.566.283s-.566 0-.754.094c-.377.094-.471.377-.471.66 0 .377.283 1.413.66 2.827.565 2.073 3.392 11.403 3.958 13.194h.094l6.126-16.116c.282-.848.565-1.13.753-1.13.377 0 .472.47.943 1.413l6.408 15.644h.094c.566-2.073 3.016-10.272 4.147-13.948.189-.753.283-1.413.283-1.79 0-.471-.283-.943-1.508-.943-.283 0-.566-.094-.566-.282 0-.189.283-.283.755-.283 1.602 0 2.92.094 3.204.094.188 0 1.508-.094 2.544-.094.377 0 .566.094.566.283 0 .188-.189.282-.472.282-.282 0-.753 0-1.13.189-.566.283-.943 1.602-1.603 3.298-1.413 3.864-4.712 13.76-6.22 18.472-.377 1.13-.47 1.413-.942 1.413-.283 0-.471-.377-.942-1.508L35.34 28.88h-.094c-.565 1.603-4.712 12.535-6.031 15.456-.566 1.225-.754 1.602-1.131 1.602-.283 0-.471-.377-.754-1.13L20.827 25.11ZM58.24 34.439v-5.183c-.094-.848-.283-1.131-.848-1.32-.283-.094-.566-.094-.943-.094-.282 0-.377-.094-.377-.282 0-.189.189-.189.566-.189.942 0 2.733.094 3.392.094.66 0 2.262-.094 3.299-.094.282 0 .565.094.565.189 0 .188-.188.282-.377.282-.282 0-.47 0-.754.094-.66.095-.942.472-.942 1.32-.094.754-.094 1.508-.094 5.183v4.335c0 2.356 0 4.335.094 5.372.094.66.283 1.036 1.037 1.13.377.095.942.095 1.319.095.283 0 .377.188.377.283 0 .188-.189.282-.471.282-1.697 0-3.393-.094-4.147-.094-.565 0-2.356.094-3.298.094-.283 0-.471-.094-.471-.282 0-.095.094-.283.377-.283.376 0 .66 0 .942-.094.565-.095.66-.471.754-1.225.094-1.037.094-3.016.094-5.372v-4.241h-.094ZM76.523 35.57c.848-.942 4.618-4.618 5.372-5.466.754-.848 1.32-1.413 1.32-1.79 0-.283-.095-.472-.378-.472-.188-.094-.377-.094-.377-.282 0-.189.189-.189.377-.189.566 0 1.98.094 2.639.094.754 0 2.168-.094 3.016-.094.282 0 .47.094.47.189 0 .188-.188.282-.376.282-.377 0-1.037.095-1.508.283-.848.283-1.602.848-2.733 1.79-.848.755-4.618 4.336-5.372 5.278.943 1.131 5.938 6.409 6.88 7.35 1.13 1.038 2.073 2.074 3.487 2.64.754.282 1.32.282 1.602.282.188 0 .377.095.377.283 0 .189-.189.283-.566.283h-2.261c-.754 0-1.225 0-1.79-.094-1.32-.095-2.168-.66-3.3-1.603-1.13-.942-6.03-6.596-6.596-7.35l-.283-.377h-.094v2.261c0 2.262 0 4.241.094 5.278.094.66.283 1.13.943 1.32.377.094.942.094 1.225.094.188 0 .377.188.377.282 0 .189-.189.283-.472.283-1.413 0-3.204-.094-3.864-.094-.565 0-2.167.094-3.204.094-.282 0-.47-.094-.47-.283 0-.094.093-.282.376-.282.377 0 .66 0 .942-.095.566-.094.66-.565.754-1.319.095-1.037.095-3.016.095-5.278V29.35c-.095-.848-.283-1.13-1.131-1.32-.189-.094-.66-.094-1.037-.094-.283 0-.471-.094-.471-.282 0-.189.188-.189.565-.189 1.32 0 2.922.095 3.582.095.565 0 2.45-.095 3.298-.095.377 0 .565.095.565.189 0 .188-.188.282-.377.282-.282 0-.376 0-.753.095-.66.094-.943.471-.943 1.32v6.219ZM99.613 34.44v-5.184c-.094-.848-.283-1.131-.848-1.32-.283-.094-.566-.094-.943-.094-.282 0-.377-.094-.377-.282 0-.189.189-.189.566-.189.942 0 2.733.094 3.392.094.66 0 2.262-.094 3.299-.094.283 0 .565.094.565.189 0 .188-.188.282-.377.282-.282 0-.471 0-.754.095-.659.094-.942.47-.942 1.319-.094.754-.094 1.508-.094 5.183v4.335c0 2.356 0 4.335.094 5.372.094.66.283 1.037 1.037 1.13.377.095.942.095 1.319.095.283 0 .377.189.377.283 0 .188-.188.282-.471.282-1.697 0-3.393-.094-4.147-.094-.565 0-2.356.095-3.298.095-.283 0-.471-.095-.471-.283 0-.094.094-.283.376-.283.377 0 .66 0 .943-.094.565-.094.66-.471.754-1.225.094-1.037.094-3.016.094-5.372v-4.24h-.094ZM117.896 38.307c-.189 0-.189 0-.283.189l-1.696 4.146c-.283.754-.472 1.508-.472 1.885 0 .565.283.848 1.226.848h.471c.377 0 .471.189.471.283 0 .283-.188.283-.471.283-1.037 0-2.545-.095-3.487-.095-.283 0-1.979.095-3.675.095-.377 0-.566-.095-.566-.283 0-.189.094-.283.377-.283h.942c1.414-.188 1.979-1.13 2.639-2.733l8.293-19.32c.377-.847.566-1.224.943-1.224.471 0 .659.282.942.942.754 1.696 6.032 14.23 8.105 18.848 1.225 2.733 2.167 3.204 2.733 3.299.471.094.848.094 1.225.094.283 0 .471.094.471.283 0 .282-.188.282-1.413.282-1.131 0-3.393 0-6.126-.094-.565 0-.942 0-.942-.283 0-.188.094-.282.377-.282.188 0 .471-.283.282-.66l-2.45-6.126c-.094-.188-.189-.188-.283-.188h-7.633v.094Zm6.691-1.696c.188 0 .188-.094.188-.189L121.76 28.6c0-.094-.095-.282-.189-.282s-.188.188-.188.282l-3.11 7.728c-.095.188 0 .188.094.188h6.22v.095ZM170.858 28.88l-3.77.095c-1.508 0-2.073.189-2.45.754-.283.377-.377.66-.471.848-.095.189-.095.283-.283.283-.189 0-.189-.188-.189-.377 0-.377.472-2.827.566-3.016.094-.282.188-.47.282-.47.189 0 .472.188 1.131.282.754.094 1.697.094 2.545.094h10.366c.849 0 1.32-.094 1.697-.094.377-.094.565-.094.659-.094.189 0 .189.188.189.565 0 .566-.094 2.356-.094 3.016 0 .282-.095.377-.189.377-.188 0-.283-.095-.283-.471v-.283c-.094-.66-.754-1.414-3.015-1.414l-3.204-.094v9.99c0 2.261 0 4.24.188 5.277.094.66.188 1.13.942 1.32.377.093.943.093 1.32.093.283 0 .377.189.377.283 0 .189-.189.283-.471.283-1.697 0-3.393-.094-4.147-.094-.565 0-2.356.094-3.298.094-.283 0-.472-.094-.472-.283 0-.094.095-.282.377-.282.377 0 .66 0 .943-.095.565-.094.659-.565.754-1.32.094-1.036.094-3.015.094-5.277v-9.99h-.094ZM25.35 50.46l1.98 4.901 1.978-4.9h1.131L27.235 58l-3.11-7.54h1.225ZM33.642 50.46v7.069h-1.037v-7.068h1.037ZM40.523 51.5l-.848.47c-.189-.282-.283-.47-.471-.565-.189-.094-.377-.189-.566-.189-.282 0-.565.095-.754.283-.188.188-.282.377-.282.66 0 .377.282.66.754.848l.66.283c.565.188 1.036.47 1.224.848.283.377.377.754.377 1.225 0 .66-.188 1.225-.66 1.602-.47.471-.942.66-1.602.66-.565 0-1.13-.189-1.507-.566a2.56 2.56 0 0 1-.754-1.508l1.036-.282c.095.377.095.66.283.848.189.283.566.471.943.471s.565-.094.848-.377c.188-.188.282-.471.282-.848 0-.094 0-.283-.094-.377 0-.094-.094-.188-.188-.283l-.283-.283c-.094-.094-.283-.188-.471-.282l-.66-.283c-.942-.377-1.413-1.037-1.413-1.79 0-.566.188-.943.565-1.32.377-.377.942-.565 1.508-.565.942.094 1.602.47 2.073 1.32ZM44.199 50.46v4.242c0 .565.094 1.036.282 1.32.283.376.754.565 1.226.565.565 0 .942-.189 1.225-.566.188-.283.282-.754.282-1.32v-4.24h1.037v4.523c0 .754-.188 1.32-.66 1.791-.565.566-1.13.848-1.884.848s-1.414-.282-1.885-.848c-.471-.471-.66-1.13-.66-1.79V50.46H44.2ZM55.131 55.737h-3.016l-.754 1.697h-1.13l3.486-7.54 3.393 7.54h-1.13l-.849-1.697Zm-.377-.942-1.037-2.356-1.13 2.356h2.167ZM60.22 50.46v6.032h2.074v1.037h-3.11v-7.068h1.036ZM72.754 55.737h-3.016l-.754 1.697h-1.13l3.486-7.54 3.393 7.54h-1.13l-.849-1.697Zm-.471-.942-1.037-2.45-1.13 2.356h2.167v.094ZM79.16 54.513l2.168 3.016h-1.32l-1.978-2.922h-.189v2.922h-1.036v-7.068h1.225c.942 0 1.602.188 1.979.565.471.377.66.943.66 1.508 0 .471-.189.943-.472 1.32-.188.282-.565.565-1.036.66Zm-1.319-.848h.377c1.037 0 1.508-.377 1.508-1.13 0-.755-.471-1.037-1.508-1.037h-.377v2.167ZM85.475 51.404v6.031h-1.037v-6.031h-1.602v-1.037h4.335v1.037h-1.696ZM97.254 51.403h-2.827V53.1h2.733v1.036h-2.733v2.356h2.827v1.037h-3.863v-7.068h3.863v.942ZM99.8 57.434v-7.54l5.184 5.372v-4.9h1.037v7.445l-5.184-5.372v4.9h-1.036v.095ZM114.22 50.835v1.225c-.66-.471-1.225-.754-1.885-.754-.754 0-1.319.283-1.791.754-.471.471-.753 1.131-.753 1.885s.282 1.32.753 1.885a2.577 2.577 0 0 0 1.791.754c.377 0 .66-.095.942-.189.189-.094.283-.188.472-.283.188-.094.282-.188.471-.377v1.32c-.566.377-1.225.471-1.885.471-1.037 0-1.885-.377-2.544-1.037-.754-.753-1.037-1.602-1.037-2.544 0-.943.283-1.696.848-2.356.754-.848 1.696-1.32 2.827-1.32.566 0 1.225.189 1.791.566ZM118.176 54.419l-2.262-3.958h1.225l1.602 2.827 1.602-2.827h1.226l-2.357 3.958v3.016h-1.036v-3.016ZM128.45 50.835v1.225c-.659-.471-1.225-.754-1.884-.754-.754 0-1.32.283-1.791.754-.471.471-.754 1.131-.754 1.885s.283 1.32.754 1.885a2.575 2.575 0 0 0 1.791.754c.376 0 .659-.095.942-.189.188-.094.283-.188.471-.283.189-.094.283-.188.471-.377v1.32c-.565.377-1.225.471-1.884.471-1.037 0-1.885-.377-2.545-1.037-.754-.753-1.037-1.602-1.037-2.544 0-.943.283-1.696.849-2.356.753-.848 1.696-1.32 2.827-1.32.565 0 1.225.189 1.79.566ZM132.031 50.46v6.032h2.073v1.037h-3.11v-7.068h1.037ZM135.707 53.948c0-1.036.377-1.885 1.131-2.544.754-.754 1.602-1.037 2.639-1.037 1.036 0 1.884.377 2.544 1.037.754.754 1.037 1.602 1.037 2.544 0 1.037-.377 1.885-1.131 2.545-.754.754-1.602 1.036-2.639 1.036-.942 0-1.696-.282-2.45-.942-.754-.66-1.131-1.508-1.131-2.639Zm1.131 0c0 .754.283 1.414.754 1.885.565.471 1.131.754 1.79.754.754 0 1.32-.283 1.885-.754.471-.471.754-1.13.754-1.885 0-.754-.283-1.413-.754-1.885-.471-.47-1.131-.753-1.885-.753s-1.319.282-1.884.753c-.472.472-.66 1.131-.66 1.885ZM146.732 54.608v2.827h-1.037v-7.068h1.225c.566 0 1.037 0 1.32.094.283.095.565.283.848.472.377.377.565.942.565 1.508 0 .66-.188 1.13-.659 1.507-.471.377-1.037.566-1.791.566h-.471v.094Zm0-.942h.377c.942 0 1.508-.377 1.508-1.131s-.471-1.131-1.508-1.131h-.377v2.262ZM155.78 51.403h-2.827V53.1h2.733v1.036h-2.733v2.356h2.827v1.037h-3.864v-7.068h3.864v.942ZM158.418 57.435v-7.068h1.508c.754 0 1.225.094 1.696.189.471.094.848.377 1.225.66.754.659 1.131 1.507 1.131 2.638s-.377 1.98-1.131 2.639a2.252 2.252 0 0 1-1.225.66 7.013 7.013 0 0 1-1.696.188h-1.508v.094Zm1.037-.942h.471c.471 0 .848-.094 1.225-.189.283-.094.565-.282.848-.47.566-.472.754-1.132.754-1.886s-.283-1.413-.754-1.885c-.471-.47-1.131-.66-2.073-.66h-.471v5.09ZM167.466 50.46v7.069h-1.036v-7.068h1.036ZM174.533 55.737h-3.015l-.754 1.697h-1.131l3.487-7.54 3.392 7.54h-1.13l-.849-1.697Zm-.471-.942-1.037-2.356-1.13 2.356h2.167Z" fill="#fff"/></svg>