<svg width="200" height="80" viewBox="0 0 200 80" fill="none" xmlns="http://www.w3.org/2000/svg">
<path d="M160.774 45.4658C160.492 45.4658 159.926 45.4658 159.172 45.1831C157.853 44.6177 156.816 43.581 155.685 42.5444C155.026 41.8847 152.293 39.1517 150.502 37.1726C152.576 36.2302 153.989 34.2512 153.989 31.7067C153.989 31.2355 153.895 30.8585 153.801 30.3873C153.612 29.7276 153.235 29.1622 152.858 28.7852L152.764 28.691C152.387 28.314 151.256 27.2773 148.146 27.2773C148.052 27.2773 147.958 27.2773 147.863 27.2773C147.863 27.2773 147.863 27.2773 147.769 27.2773C146.921 27.2773 145.13 27.3716 144.471 27.3716C143.905 27.3716 142.68 27.3716 141.549 27.2773C141.549 27.2773 141.549 27.2773 141.455 27.2773C141.361 27.2773 141.267 27.2773 141.267 27.2773C141.172 27.2773 141.078 27.2773 140.984 27.2773C140.984 27.2773 140.984 27.2773 140.89 27.2773C140.513 27.2773 140.324 27.3716 140.324 27.4658C140.324 27.6543 140.513 27.7485 140.795 27.7485C141.172 27.7485 141.644 27.7485 141.832 27.8428C142.68 28.0313 142.869 28.314 142.963 29.1622C142.963 29.9161 142.963 30.67 142.963 34.3454V38.6805C142.963 40.9423 142.963 42.9213 142.869 43.958C142.774 44.7119 142.68 45.1831 142.115 45.2773C141.926 45.3716 141.549 45.3716 141.172 45.3716C140.89 45.3716 140.795 45.5601 140.795 45.6543C140.795 45.8428 140.984 45.937 141.267 45.937H141.361C142.303 45.937 143.905 45.8428 144.471 45.8428C145.13 45.8428 146.638 45.937 148.335 45.937C148.617 45.937 148.806 45.8428 148.806 45.6543C148.806 45.5601 148.712 45.4658 148.429 45.4658C148.052 45.4658 147.487 45.3716 147.204 45.3716C146.45 45.2773 146.356 44.7119 146.261 44.0522C146.167 43.0156 146.167 41.0365 146.167 38.7747V28.9737C146.167 28.691 146.261 28.5967 146.356 28.5025C146.45 28.5025 146.544 28.5025 146.638 28.4082C146.827 28.4082 147.11 28.4082 147.298 28.4082C147.863 28.4082 148.9 28.5967 149.748 29.3506C150.314 29.9161 150.691 30.4815 150.879 31.1412C151.162 31.8009 151.162 32.4606 151.162 32.9318V33.026C151.162 34.4396 150.596 35.4763 149.843 36.2302C149.183 36.7957 148.523 37.0784 147.863 37.0784C147.392 37.0784 147.204 37.1726 147.204 37.3611C147.204 37.3611 147.204 37.3611 147.204 37.4554C148.523 39.0574 152.387 43.4868 153.329 44.3349C154.46 45.2773 155.309 45.8428 156.628 45.937C157.193 46.0313 157.665 46.0313 158.418 46.0313H160.68C161.151 46.0313 161.246 45.937 161.246 45.7485C161.151 45.5601 160.963 45.4658 160.774 45.4658Z" fill="white"/>
<path d="M20.8272 25.1099C20.4503 23.9791 20.0733 23.2251 19.6963 22.9424C19.3194 22.6597 18.7539 22.6597 18.4712 22.6597C18.1885 22.6597 18 22.6597 18 22.377C18 22.1885 18.2827 22.0942 18.6597 22.0942C20.2618 22.0942 21.9581 22.1885 22.2408 22.1885C22.5236 22.1885 23.8429 22.0942 25.7277 22.0942C26.199 22.0942 26.3874 22.1885 26.3874 22.377C26.3874 22.6597 26.1047 22.6597 25.822 22.6597C25.5393 22.6597 25.2565 22.6597 25.0681 22.7539C24.6911 22.8482 24.5969 23.1309 24.5969 23.4136C24.5969 23.7906 24.8796 24.8272 25.2565 26.2408C25.822 28.3141 28.6492 37.644 29.2147 39.4346H29.3089L35.4346 23.3194C35.7173 22.4712 36 22.1885 36.1885 22.1885C36.5654 22.1885 36.6597 22.6597 37.1309 23.6021L43.5393 39.2461H43.6335C44.199 37.1728 46.6492 28.9738 47.7801 25.2984C47.9686 24.5445 48.0628 23.8848 48.0628 23.5079C48.0628 23.0366 47.7801 22.5654 46.555 22.5654C46.2722 22.5654 45.9895 22.4712 45.9895 22.2827C45.9895 22.0942 46.2722 22 46.7435 22C48.3455 22 49.6649 22.0942 49.9476 22.0942C50.1361 22.0942 51.4555 22 52.4921 22C52.8691 22 53.0576 22.0942 53.0576 22.2827C53.0576 22.4712 52.8691 22.5654 52.5864 22.5654C52.3037 22.5654 51.8325 22.5654 51.4555 22.7539C50.89 23.0366 50.5131 24.356 49.8534 26.0524C48.4398 29.9162 45.1414 39.8115 43.6335 44.5236C43.2565 45.6544 43.1623 45.9372 42.6911 45.9372C42.4084 45.9372 42.2199 45.5602 41.7487 44.4293L35.3403 28.8796H35.2461C34.6806 30.4817 30.534 41.4136 29.2147 44.3351C28.6492 45.5602 28.4607 45.9372 28.0838 45.9372C27.801 45.9372 27.6126 45.5602 27.3298 44.8063L20.8272 25.1099Z" fill="white"/>
<path d="M58.2398 34.439C58.2398 30.6694 58.2398 30.0097 58.2398 29.2558C58.1456 28.4076 57.9571 28.1249 57.3916 27.9364C57.1089 27.8422 56.8262 27.8422 56.4492 27.8422C56.1665 27.8422 56.0723 27.7479 56.0723 27.5595C56.0723 27.371 56.2607 27.371 56.6377 27.371C57.5801 27.371 59.3707 27.4652 60.0304 27.4652C60.6901 27.4652 62.2922 27.371 63.3288 27.371C63.6115 27.371 63.8943 27.4652 63.8943 27.5595C63.8943 27.7479 63.7058 27.8422 63.5173 27.8422C63.2346 27.8422 63.0461 27.8422 62.7634 27.9364C62.1037 28.0307 61.821 28.4076 61.821 29.2558C61.7267 30.0097 61.7267 30.7636 61.7267 34.439V38.7741C61.7267 41.1301 61.7267 43.1092 61.821 44.1458C61.9152 44.8055 62.1037 45.1825 62.8576 45.2767C63.2346 45.371 63.8 45.371 64.177 45.371C64.4597 45.371 64.5539 45.5595 64.5539 45.6537C64.5539 45.8422 64.3655 45.9364 64.0827 45.9364C62.3864 45.9364 60.6901 45.8422 59.9361 45.8422C59.3707 45.8422 57.5801 45.9364 56.6377 45.9364C56.355 45.9364 56.1665 45.8422 56.1665 45.6537C56.1665 45.5595 56.2607 45.371 56.5435 45.371C56.9204 45.371 57.2032 45.371 57.4859 45.2767C58.0513 45.1825 58.1456 44.8055 58.2398 44.0516C58.334 43.015 58.334 41.0359 58.334 38.6799V34.439H58.2398Z" fill="white"/>
<path d="M76.5231 35.57C77.3713 34.6276 81.1409 30.9522 81.8948 30.1041C82.6488 29.2559 83.2142 28.6905 83.2142 28.3135C83.2142 28.0308 83.12 27.8423 82.8372 27.8423C82.6488 27.7481 82.4603 27.7481 82.4603 27.5596C82.4603 27.3711 82.6488 27.3711 82.8372 27.3711C83.4027 27.3711 84.8163 27.4653 85.476 27.4653C86.2299 27.4653 87.6435 27.3711 88.4917 27.3711C88.7744 27.3711 88.9629 27.4653 88.9629 27.5596C88.9629 27.7481 88.7744 27.8423 88.5859 27.8423C88.209 27.8423 87.5493 27.9365 87.0781 28.125C86.2299 28.4077 85.476 28.9732 84.3451 29.9156C83.4969 30.6695 79.7273 34.2507 78.9734 35.1931C79.9158 36.324 84.9105 41.6015 85.853 42.5439C86.9838 43.5805 87.9263 44.6172 89.3399 45.1826C90.0938 45.4653 90.6592 45.4653 90.942 45.4653C91.1304 45.4653 91.3189 45.5596 91.3189 45.7481C91.3189 45.9365 91.1304 46.0308 90.7535 46.0308H88.4917C87.7378 46.0308 87.2666 46.0308 86.7011 45.9365C85.3818 45.8423 84.5336 45.2769 83.4027 44.3344C82.2718 43.392 77.3713 37.7376 76.8058 36.9837L76.5231 36.6067H76.4289V38.8685C76.4289 41.1303 76.4289 43.1093 76.5231 44.146C76.6174 44.8056 76.8058 45.2769 77.4655 45.4653C77.8425 45.5596 78.4079 45.5596 78.6907 45.5596C78.8791 45.5596 79.0676 45.7481 79.0676 45.8423C79.0676 46.0308 78.8791 46.125 78.5964 46.125C77.1828 46.125 75.3922 46.0308 74.7325 46.0308C74.1671 46.0308 72.565 46.125 71.5283 46.125C71.2456 46.125 71.0571 46.0308 71.0571 45.8423C71.0571 45.7481 71.1514 45.5596 71.4341 45.5596C71.8111 45.5596 72.0938 45.5596 72.3765 45.4653C72.942 45.3711 73.0362 44.8999 73.1304 44.146C73.2247 43.1093 73.2247 41.1303 73.2247 38.8685V34.5334C73.2247 30.7638 73.2247 30.1041 73.2247 29.3502C73.1304 28.502 72.942 28.2193 72.0938 28.0308C71.9053 27.9365 71.4341 27.9365 71.0571 27.9365C70.7744 27.9365 70.5859 27.8423 70.5859 27.6538C70.5859 27.4653 70.7744 27.4653 71.1514 27.4653C72.4708 27.4653 74.0728 27.5596 74.7325 27.5596C75.298 27.5596 77.1828 27.4653 78.031 27.4653C78.4079 27.4653 78.5964 27.5596 78.5964 27.6538C78.5964 27.8423 78.4079 27.9365 78.2194 27.9365C77.9367 27.9365 77.8425 27.9365 77.4655 28.0308C76.8058 28.125 76.5231 28.502 76.5231 29.3502C76.5231 30.1041 76.5231 30.858 76.5231 34.5334V35.57Z" fill="white"/>
<path d="M99.6128 34.4392C99.6128 30.6695 99.6128 30.0098 99.6128 29.2559C99.5186 28.4077 99.3301 28.125 98.7647 27.9365C98.482 27.8423 98.1992 27.8423 97.8223 27.8423C97.5395 27.8423 97.4453 27.7481 97.4453 27.5596C97.4453 27.3711 97.6338 27.3711 98.0108 27.3711C98.9532 27.3711 100.744 27.4653 101.403 27.4653C102.063 27.4653 103.665 27.3711 104.702 27.3711C104.985 27.3711 105.267 27.4653 105.267 27.5596C105.267 27.7481 105.079 27.8423 104.89 27.8423C104.608 27.8423 104.419 27.8423 104.136 27.9365C103.477 28.0308 103.194 28.4077 103.194 29.2559C103.1 30.0098 103.1 30.7638 103.1 34.4392V38.7742C103.1 41.1303 103.1 43.1093 103.194 44.146C103.288 44.8056 103.477 45.1826 104.231 45.2769C104.608 45.3711 105.173 45.3711 105.55 45.3711C105.833 45.3711 105.927 45.5596 105.927 45.6538C105.927 45.8423 105.739 45.9365 105.456 45.9365C103.759 45.9365 102.063 45.8423 101.309 45.8423C100.744 45.8423 98.9532 45.9365 98.0108 45.9365C97.728 45.9365 97.5396 45.8423 97.5396 45.6538C97.5396 45.5596 97.6338 45.3711 97.9165 45.3711C98.2935 45.3711 98.5762 45.3711 98.8589 45.2769C99.4244 45.1826 99.5186 44.8056 99.6128 44.0517C99.7071 43.0151 99.7071 41.036 99.7071 38.68V34.4392H99.6128Z" fill="white"/>
<path d="M117.896 38.3071C117.707 38.3071 117.707 38.3071 117.613 38.4956L115.917 42.6422C115.634 43.3961 115.445 44.15 115.445 44.527C115.445 45.0924 115.728 45.3751 116.671 45.3751H117.142C117.519 45.3751 117.613 45.5636 117.613 45.6579C117.613 45.9406 117.425 45.9406 117.142 45.9406C116.105 45.9406 114.597 45.8463 113.655 45.8463C113.372 45.8463 111.676 45.9406 109.98 45.9406C109.603 45.9406 109.414 45.8463 109.414 45.6579C109.414 45.4694 109.508 45.3751 109.791 45.3751C110.074 45.3751 110.451 45.3751 110.733 45.3751C112.147 45.1867 112.712 44.2443 113.372 42.6422L121.665 23.3228C122.042 22.4746 122.231 22.0977 122.608 22.0977C123.079 22.0977 123.267 22.3804 123.55 23.0401C124.304 24.7364 129.582 37.2704 131.655 41.8882C132.88 44.6212 133.822 45.0924 134.388 45.1867C134.859 45.2809 135.236 45.2809 135.613 45.2809C135.896 45.2809 136.084 45.3751 136.084 45.5636C136.084 45.8463 135.896 45.8463 134.671 45.8463C133.54 45.8463 131.278 45.8463 128.545 45.7521C127.98 45.7521 127.603 45.7521 127.603 45.4694C127.603 45.2809 127.697 45.1867 127.98 45.1867C128.168 45.1867 128.451 44.9039 128.262 44.527L125.812 38.4013C125.718 38.2128 125.623 38.2128 125.529 38.2128H117.896V38.3071ZM124.587 36.6107C124.775 36.6107 124.775 36.5165 124.775 36.4223L121.76 28.6003C121.76 28.506 121.665 28.3176 121.571 28.3176C121.477 28.3176 121.383 28.506 121.383 28.6003L118.273 36.328C118.178 36.5165 118.273 36.5165 118.367 36.5165H124.587V36.6107Z" fill="white"/>
<path d="M170.858 28.8809L167.088 28.9752C165.58 28.9752 165.015 29.1636 164.638 29.7291C164.355 30.106 164.261 30.3888 164.167 30.5772C164.072 30.7657 164.072 30.86 163.884 30.86C163.695 30.86 163.695 30.6715 163.695 30.483C163.695 30.106 164.167 27.6558 164.261 27.4673C164.355 27.1846 164.449 26.9961 164.543 26.9961C164.732 26.9961 165.015 27.1846 165.674 27.2788C166.428 27.3731 167.371 27.3731 168.219 27.3731H178.585C179.434 27.3731 179.905 27.2788 180.282 27.2788C180.659 27.1846 180.847 27.1846 180.941 27.1846C181.13 27.1846 181.13 27.3731 181.13 27.75C181.13 28.3155 181.036 30.106 181.036 30.7657C181.036 31.0484 180.941 31.1427 180.847 31.1427C180.659 31.1427 180.564 31.0484 180.564 30.6715V30.3888C180.47 29.7291 179.81 28.9752 177.549 28.9752L174.345 28.8809V38.8704C174.345 41.1322 174.345 43.1113 174.533 44.1479C174.627 44.8076 174.721 45.2788 175.475 45.4673C175.852 45.5615 176.418 45.5615 176.795 45.5615C177.078 45.5615 177.172 45.75 177.172 45.8443C177.172 46.0327 176.983 46.127 176.701 46.127C175.004 46.127 173.308 46.0327 172.554 46.0327C171.989 46.0327 170.198 46.127 169.256 46.127C168.973 46.127 168.784 46.0327 168.784 45.8443C168.784 45.75 168.879 45.5615 169.161 45.5615C169.538 45.5615 169.821 45.5615 170.104 45.4673C170.669 45.3731 170.763 44.9019 170.858 44.1479C170.952 43.1113 170.952 41.1322 170.952 38.8704V28.8809H170.858Z" fill="white"/>
<path d="M25.3501 50.4609L27.3292 55.3615L29.3082 50.4609H30.4391L27.2349 58.0002L24.125 50.4609H25.3501Z" fill="white"/>
<path d="M33.6421 50.4609V57.529H32.6055V50.4609H33.6421Z" fill="white"/>
<path d="M40.5231 51.4991L39.6749 51.9703C39.4864 51.6875 39.3922 51.4991 39.2037 51.4048C39.0152 51.3106 38.8267 51.2163 38.6383 51.2163C38.3555 51.2163 38.0728 51.3106 37.8843 51.4991C37.6958 51.6875 37.6016 51.876 37.6016 52.1587C37.6016 52.5357 37.8843 52.8184 38.3555 53.0069L39.0152 53.2896C39.5807 53.4781 40.0519 53.7608 40.2403 54.1378C40.5231 54.5148 40.6173 54.8917 40.6173 55.3629C40.6173 56.0226 40.4288 56.5881 39.9576 56.965C39.4864 57.4362 39.0152 57.6247 38.3555 57.6247C37.7901 57.6247 37.2246 57.4362 36.8477 57.0593C36.4707 56.6823 36.188 56.2111 36.0938 55.5514L37.1304 55.2687C37.2246 55.6457 37.2246 55.9284 37.4131 56.1169C37.6016 56.3996 37.9786 56.5881 38.3555 56.5881C38.7325 56.5881 38.921 56.4938 39.2037 56.2111C39.3922 56.0226 39.4864 55.7399 39.4864 55.3629C39.4864 55.2687 39.4864 55.0802 39.3922 54.986C39.3922 54.8917 39.2979 54.7975 39.2037 54.7033C39.1095 54.609 39.0152 54.5148 38.921 54.4205C38.8267 54.3263 38.6383 54.232 38.4498 54.1378L37.7901 53.8551C36.8477 53.4781 36.3765 52.8184 36.3765 52.0645C36.3765 51.4991 36.565 51.1221 36.9419 50.7451C37.3189 50.3682 37.8843 50.1797 38.4498 50.1797C39.3922 50.2739 40.0519 50.6509 40.5231 51.4991Z" fill="white"/>
<path d="M44.1988 50.4609V54.7018C44.1988 55.2672 44.293 55.7384 44.4815 56.0211C44.7642 56.3981 45.2354 56.5866 45.7066 56.5866C46.2721 56.5866 46.649 56.3981 46.9317 56.0211C47.1202 55.7384 47.2145 55.2672 47.2145 54.7018V50.4609H48.2511V54.9845C48.2511 55.7384 48.0626 56.3039 47.5914 56.7751C47.026 57.3405 46.4605 57.6232 45.7066 57.6232C44.9527 57.6232 44.293 57.3405 43.8218 56.7751C43.3506 56.3039 43.1621 55.6442 43.1621 54.9845V50.4609H44.1988Z" fill="white"/>
<path d="M55.131 55.7375H52.1153L51.3614 57.4338H50.2305L53.7174 49.8945L57.11 57.4338H55.9792L55.131 55.7375ZM54.754 54.7951L53.7174 52.439L52.5865 54.7951H54.754Z" fill="white"/>
<path d="M60.2202 50.4609V56.4923H62.2935V57.529H59.1836V50.4609H60.2202Z" fill="white"/>
<path d="M72.754 55.7375H69.7383L68.9844 57.4338H67.8535L71.3404 49.8945L74.7331 57.4338H73.6022L72.754 55.7375ZM72.2828 54.7951L71.2462 52.3448L70.1153 54.7008H72.2828V54.7951Z" fill="white"/>
<path d="M79.1607 54.5133L81.3282 57.529H80.0089L78.0298 54.6075H77.8413V57.529H76.8047V50.4609H78.0298C78.9722 50.4609 79.6319 50.6494 80.0089 51.0264C80.4801 51.4033 80.6686 51.9688 80.6686 52.5342C80.6686 53.0054 80.4801 53.4766 80.1974 53.8536C80.0089 54.1363 79.6319 54.4191 79.1607 54.5133ZM77.8413 53.6651H78.2183C79.2549 53.6651 79.7262 53.2882 79.7262 52.5342C79.7262 51.7803 79.2549 51.4976 78.2183 51.4976H77.8413V53.6651Z" fill="white"/>
<path d="M85.4747 51.4038V57.4353H84.438V51.4038H82.8359V50.3672H87.171V51.4038H85.4747Z" fill="white"/>
<path d="M97.2545 51.4033H94.4273V53.0997H97.1603V54.1363H94.4273V56.4923H97.2545V57.529H93.3906V50.4609H97.2545V51.4033Z" fill="white"/>
<path d="M99.8008 57.4338V49.8945L104.984 55.2663V50.3657H106.021V57.8108L100.837 52.439V57.3396H99.8008V57.4338Z" fill="white"/>
<path d="M114.22 50.835V52.0601C113.56 51.5889 112.995 51.3062 112.335 51.3062C111.581 51.3062 111.016 51.5889 110.544 52.0601C110.073 52.5313 109.791 53.191 109.791 53.9449C109.791 54.6988 110.073 55.2643 110.544 55.8297C111.016 56.3009 111.675 56.5837 112.335 56.5837C112.712 56.5837 112.995 56.4894 113.277 56.3952C113.466 56.3009 113.56 56.2067 113.749 56.1125C113.937 56.0182 114.031 55.924 114.22 55.7355V57.0549C113.654 57.4318 112.995 57.5261 112.335 57.5261C111.298 57.5261 110.45 57.1491 109.791 56.4894C109.037 55.7355 108.754 54.8873 108.754 53.9449C108.754 53.0025 109.037 52.2486 109.602 51.5889C110.356 50.7407 111.298 50.2695 112.429 50.2695C112.995 50.2695 113.654 50.458 114.22 50.835Z" fill="white"/>
<path d="M118.176 54.419L115.914 50.4609H117.139L118.741 53.2882L120.343 50.4609H121.569L119.212 54.419V57.4348H118.176V54.419Z" fill="white"/>
<path d="M128.45 50.835V52.0601C127.791 51.5889 127.225 51.3062 126.566 51.3062C125.812 51.3062 125.246 51.5889 124.775 52.0601C124.304 52.5313 124.021 53.191 124.021 53.9449C124.021 54.6988 124.304 55.2643 124.775 55.8297C125.246 56.3009 125.906 56.5837 126.566 56.5837C126.942 56.5837 127.225 56.4894 127.508 56.3952C127.696 56.3009 127.791 56.2067 127.979 56.1125C128.168 56.0182 128.262 55.924 128.45 55.7355V57.0549C127.885 57.4318 127.225 57.5261 126.566 57.5261C125.529 57.5261 124.681 57.1491 124.021 56.4894C123.267 55.7355 122.984 54.8873 122.984 53.9449C122.984 53.0025 123.267 52.2486 123.833 51.5889C124.586 50.7407 125.529 50.2695 126.66 50.2695C127.225 50.2695 127.885 50.458 128.45 50.835Z" fill="white"/>
<path d="M132.031 50.4609V56.4923H134.104V57.529H130.994V50.4609H132.031Z" fill="white"/>
<path d="M135.707 53.9483C135.707 52.9117 136.084 52.0635 136.838 51.4038C137.592 50.6499 138.44 50.3672 139.477 50.3672C140.513 50.3672 141.361 50.7442 142.021 51.4038C142.775 52.1578 143.058 53.0059 143.058 53.9483C143.058 54.985 142.681 55.8332 141.927 56.4928C141.173 57.2468 140.325 57.5295 139.288 57.5295C138.346 57.5295 137.592 57.2468 136.838 56.5871C136.084 55.9274 135.707 55.0792 135.707 53.9483ZM136.838 53.9483C136.838 54.7023 137.121 55.362 137.592 55.8332C138.157 56.3044 138.723 56.5871 139.382 56.5871C140.136 56.5871 140.702 56.3044 141.267 55.8332C141.738 55.362 142.021 54.7023 142.021 53.9483C142.021 53.1944 141.738 52.5347 141.267 52.0635C140.796 51.5923 140.136 51.3096 139.382 51.3096C138.628 51.3096 138.063 51.5923 137.498 52.0635C137.026 52.5347 136.838 53.1944 136.838 53.9483Z" fill="white"/>
<path d="M146.732 54.608V57.4353H145.695V50.3672H146.92C147.486 50.3672 147.957 50.3672 148.24 50.4614C148.523 50.5557 148.805 50.7442 149.088 50.9326C149.465 51.3096 149.653 51.875 149.653 52.4405C149.653 53.1002 149.465 53.5714 148.994 53.9483C148.523 54.3253 147.957 54.5138 147.203 54.5138H146.732V54.608ZM146.732 53.6656H147.109C148.051 53.6656 148.617 53.2887 148.617 52.5347C148.617 51.7808 148.146 51.4038 147.109 51.4038H146.732V53.6656Z" fill="white"/>
<path d="M155.78 51.4033H152.953V53.0997H155.686V54.1363H152.953V56.4923H155.78V57.529H151.916V50.4609H155.78V51.4033Z" fill="white"/>
<path d="M158.418 57.4353V50.3672H159.926C160.68 50.3672 161.151 50.4614 161.622 50.5557C162.093 50.6499 162.47 50.9326 162.847 51.2154C163.601 51.875 163.978 52.7232 163.978 53.8541C163.978 54.985 163.601 55.8332 162.847 56.4928C162.47 56.8698 162.093 57.0583 161.622 57.1525C161.245 57.2468 160.68 57.341 159.926 57.341H158.418V57.4353ZM159.455 56.4928H159.926C160.397 56.4928 160.774 56.3986 161.151 56.3044C161.434 56.2101 161.716 56.0216 161.999 55.8332C162.565 55.362 162.753 54.7023 162.753 53.9483C162.753 53.1944 162.47 52.5347 161.999 52.0635C161.528 51.5923 160.868 51.4038 159.926 51.4038H159.455V56.4928Z" fill="white"/>
<path d="M167.466 50.4609V57.529H166.43V50.4609H167.466Z" fill="white"/>
<path d="M174.533 55.7375H171.518L170.764 57.4338H169.633L173.12 49.8945L176.512 57.4338H175.382L174.533 55.7375ZM174.062 54.7951L173.025 52.439L171.895 54.7951H174.062Z" fill="white"/>
</svg>
