<svg width="200" height="80" fill="none" xmlns="http://www.w3.org/2000/svg"><path fill-rule="evenodd" clip-rule="evenodd" d="M85.617 18.043c0-1.126.924-2.043 2.059-2.043 1.135 0 2.058.917 2.058 2.043 0 5.316 4.883 10.16 10.241 10.16s10.241-4.844 10.241-10.16c0-1.126.924-2.043 2.058-2.043 1.135 0 2.059.917 2.059 2.043 0 7.568-6.704 14.22-14.331 14.22-7.628 0-14.385-6.652-14.385-14.22Z" fill="#fff"/><path d="m73.554 21.786 1.795 1.78a3.285 3.285 0 0 1 0 4.662l-5.913 5.866c-.58.576-.052 1.519.74 1.362l12.536-2.54c1.082-.21 2.217.105 3.01.89l2.612 2.593a3.285 3.285 0 0 1 0 4.66L73.448 55.83a3.348 3.348 0 0 1-4.698 0l-1.794-1.78a3.285 3.285 0 0 1 0-4.661l2.216-2.2c1.663-1.65.159-4.452-2.164-3.98l-7.39 1.492c-1.082.21-2.217-.105-3.009-.89l-2.639-2.62a3.285 3.285 0 0 1 0-4.66l14.886-14.77a3.324 3.324 0 0 1 4.698.026ZM111.693 36.425l1.794-1.78a3.348 3.348 0 0 1 4.698 0l5.939 5.892c.581.576 1.531.052 1.372-.733l-2.56-12.44a3.3 3.3 0 0 1 .898-2.985l2.613-2.592a3.348 3.348 0 0 1 4.698 0l14.885 14.77a3.286 3.286 0 0 1 0 4.66l-1.794 1.781a3.35 3.35 0 0 1-4.699 0l-2.19-2.173c-1.663-1.65-4.514-.157-4.038 2.147l1.504 7.28a3.3 3.3 0 0 1-.897 2.986l-2.64 2.618a3.348 3.348 0 0 1-4.698 0l-14.885-14.77a3.284 3.284 0 0 1 0-4.66Z" fill="#fff"/><path d="M113.594 43.263c-1.347-2.2-3.221-3.902-5.596-5.133-2.375-1.23-5.041-1.833-8.05-1.833-2.982 0-5.648.628-8.023 1.833-2.376 1.23-4.25 2.933-5.596 5.133-1.346 2.173-2.032 4.661-2.032 7.41 0 2.75.686 5.212 2.032 7.412 1.346 2.173 3.22 3.902 5.596 5.132 2.375 1.231 5.067 1.834 8.023 1.834 2.983 0 5.675-.629 8.05-1.834 2.375-1.23 4.223-2.933 5.596-5.132 1.346-2.2 2.005-4.662 2.005-7.411 0-2.75-.659-5.238-2.005-7.411Zm-6.731 8.563-8.155 7.647c-1.03.969-2.719.235-2.719-1.153V43.053c0-1.388 1.69-2.12 2.719-1.152l8.155 7.647c.686.576.686 1.65 0 2.278Z" fill="#fff"/></svg>