<svg width="196" height="80" viewBox="0 0 196 80" fill="none" xmlns="http://www.w3.org/2000/svg">
<path d="M33.723 26.4336V53.1728H30.4425V26.4336H33.723ZM27.1619 26.4336V53.1728H23.8814V26.4336H27.1619ZM40.3227 37.294V42.3125H37.0421V37.294H40.3227ZM20.5623 26.4336V53.1728H17.2818V26.4336H20.5623ZM14.0012 26.4336V53.1728H10.7207V26.4336H14.0012Z" fill="white"/>
<path d="M167.183 35.4521C168.032 35.4521 168.881 35.5305 169.692 35.6873C170.271 35.805 170.85 36.001 171.39 36.2362L170.811 38.2358C170.348 38.0006 169.885 37.8045 169.383 37.6477C168.688 37.4124 167.955 37.2948 167.26 37.334C166.488 37.2948 165.755 37.4517 165.06 37.7653C164.482 38.079 164.173 38.6671 164.25 39.3336C164.25 39.6473 164.327 39.9609 164.52 40.1962C164.713 40.4314 164.945 40.6666 165.215 40.8235C165.524 41.0195 165.871 41.1763 166.218 41.294L167.415 41.6468L169.036 42.1957C169.537 42.3917 170.039 42.6662 170.502 42.9799C171.467 43.6856 172.007 44.8226 171.93 45.9988C171.969 46.7045 171.814 47.4103 171.467 47.9984C171.158 48.5473 170.734 48.9785 170.232 49.3314C169.692 49.6843 169.113 49.9587 168.495 50.1155C167.801 50.194 167.106 50.2332 166.411 50.1548C165.794 50.194 165.215 50.194 164.597 50.1548C164.134 50.0763 163.71 49.9979 163.247 49.8803C162.899 49.8019 162.552 49.6843 162.204 49.5274C161.934 49.4098 161.664 49.253 161.394 49.0962L162.166 47.0966C162.359 47.2534 162.513 47.371 162.745 47.4887C163.054 47.6455 163.324 47.8023 163.671 47.92C164.057 48.0768 164.482 48.1944 164.906 48.2728C165.408 48.3512 165.91 48.4296 166.411 48.4296C167.222 48.4688 168.032 48.2728 168.727 47.8415C169.229 47.4495 169.537 46.8222 169.499 46.1556C169.537 45.6067 169.267 45.0578 168.843 44.705C168.148 44.2345 167.415 43.8816 166.604 43.6856L164.867 43.0975C164.327 42.9014 163.864 42.6662 163.401 42.3133C162.976 41.9997 162.629 41.6076 162.359 41.1371C162.089 40.5882 161.934 39.9609 161.973 39.3728C161.896 38.1966 162.436 37.0988 163.362 36.3931C164.52 35.7265 165.832 35.3737 167.183 35.4521ZM149.43 35.6481V45.2147C149.43 45.6851 149.468 46.1556 149.623 46.6261C149.738 46.979 149.931 47.2926 150.202 47.5279C150.433 47.7631 150.742 47.9199 151.051 47.9984C151.398 48.0768 151.745 48.1552 152.093 48.1552C153.019 48.1944 153.907 47.9199 154.64 47.371C155.335 46.8221 155.914 46.1556 156.3 45.3715V35.6481H158.692V49.7627H156.57L156.338 47.2142C155.952 48.0768 155.296 48.7825 154.486 49.3314C153.559 49.9195 152.479 50.194 151.359 50.1548C150.163 50.194 149.044 49.7627 148.156 48.9393C147.268 47.9199 146.844 46.5869 146.96 45.2147V35.6481H149.43ZM65.8727 30.316C66.7217 30.5512 67.5322 30.8649 68.3041 31.2569L67.5708 33.5309C66.8761 33.0605 66.1428 32.7076 65.3709 32.3939C64.4447 32.0803 63.4798 31.9235 62.4764 31.9627C60.6624 31.9627 58.9257 32.7076 57.7292 34.1191C57.0731 34.864 56.61 35.7265 56.2626 36.6675C55.8767 37.8045 55.6837 38.9807 55.7223 40.1569C55.7223 41.294 55.8767 42.4702 56.224 43.568C56.5328 44.5089 56.9959 45.3323 57.6135 46.0772C58.1924 46.7437 58.9257 47.2926 59.7361 47.6455C60.6238 47.9984 61.5501 48.1944 62.5149 48.1944C63.4026 48.1944 64.2517 48.0768 65.0622 47.8023C65.8341 47.5279 66.606 47.175 67.3393 46.7437L68.034 48.4688C67.3393 48.9785 66.606 49.3706 65.7569 49.6451C64.6762 50.0371 63.5184 50.194 62.3606 50.194C61.0484 50.194 59.7747 49.9979 58.5783 49.5274C57.4591 49.057 56.417 48.3904 55.6065 47.5279C54.7189 46.6261 54.0242 45.5675 53.5996 44.3913C52.6348 41.6468 52.6348 38.6279 53.5996 35.8834C54.4873 33.4917 56.417 31.6098 58.8099 30.708C60.0449 30.2376 61.3571 30.0023 62.7079 30.0415C63.7886 29.9239 64.8306 30.0415 65.8727 30.316ZM90.3802 35.3737C91.1521 35.3737 91.9239 35.4521 92.6572 35.6481C93.2747 35.7658 93.8151 36.0402 94.3554 36.3539L93.5835 38.471C93.0818 38.079 92.5414 37.7653 92.0011 37.5301C91.4222 37.2948 90.7661 37.1772 90.1486 37.2164C89.5311 37.2164 88.9522 37.334 88.3732 37.5693C87.7943 37.8045 87.2926 38.1574 86.9067 38.6279C86.4821 39.1376 86.1348 39.7257 85.9032 40.353C85.633 41.1371 85.5173 41.9605 85.5173 42.7838C85.4015 44.2345 85.9032 45.6851 86.8295 46.8222C87.7943 47.7631 89.1065 48.2336 90.4573 48.1552C91.6152 48.116 92.773 47.7631 93.7379 47.0966L94.2782 48.8609C93.7379 49.253 93.1204 49.5666 92.5029 49.7627C91.731 50.0371 90.9591 50.1547 90.1486 50.194C89.2223 50.194 88.2575 50.0371 87.3698 49.6843C86.5207 49.3706 85.7488 48.8609 85.1313 48.2336C84.4752 47.5671 83.9735 46.7829 83.6261 45.9204C82.8928 43.9208 82.8928 41.7252 83.6261 39.7257C83.9735 38.8631 84.4752 38.079 85.1699 37.4125C85.826 36.7459 86.6365 36.2362 87.5242 35.9226C88.4504 35.5305 89.4153 35.3737 90.3802 35.3737ZM137.041 35.3737C137.929 35.3737 138.855 35.5305 139.665 35.8834C140.476 36.197 141.248 36.7067 141.865 37.334C142.521 38.0006 143.023 38.7847 143.37 39.6473C144.104 41.686 144.104 43.9208 143.37 45.9596C143.062 46.8222 142.56 47.6063 141.942 48.2728C141.325 48.9001 140.553 49.3706 139.742 49.7235C138.855 50.0763 137.929 50.2332 137.002 50.2332C136.115 50.2332 135.227 50.0763 134.378 49.7235C133.567 49.4098 132.834 48.9001 132.217 48.2728C131.56 47.6063 131.059 46.8222 130.75 45.9596C130.017 43.9208 130.017 41.686 130.75 39.6473C131.097 38.7847 131.599 38.0006 132.217 37.334C132.834 36.7067 133.567 36.2362 134.378 35.8834C135.266 35.5305 136.153 35.3737 137.041 35.3737ZM180.575 35.2953C181.463 35.2953 182.351 35.4521 183.161 35.805C183.895 36.1186 184.551 36.6283 185.052 37.2948C185.593 38.0006 185.94 38.8239 186.056 39.7257C186.249 40.8235 186.249 41.9605 186.056 43.0583H176.446C176.562 46.4301 178.144 48.116 181.232 48.116C181.965 48.116 182.698 47.9984 183.393 47.7631C184.01 47.5279 184.628 47.2534 185.168 46.8614L185.863 48.6257C185.284 49.0962 184.589 49.4882 183.856 49.6843C182.968 49.9979 182.042 50.1155 181.077 50.1155C179.147 50.2332 177.256 49.4882 175.867 48.116C174.593 46.5869 173.937 44.6266 174.053 42.6662C174.053 41.6076 174.207 40.5882 174.555 39.5688C174.863 38.7063 175.327 37.9221 175.944 37.2556C176.523 36.6283 177.179 36.1186 177.951 35.805C178.8 35.4521 179.688 35.2953 180.575 35.2953ZM73.5916 29.375V49.8411H71.1987V29.375H73.5916ZM99.6428 29.375V49.8411H97.2114V29.375H99.6428ZM108.327 35.6481L102.537 41.9997L108.713 49.8803H105.895L99.9516 42.3133L105.818 35.6873H108.327V35.6481ZM114.116 30.2376V39.1768H124.189V30.2376H126.775V49.8803H124.189V41.1763H114.116V49.8411H111.53V30.2376H114.116ZM79.9596 35.6481V49.7627H77.5668V35.6481H79.9596ZM137.041 37.2164C136.501 37.2164 135.96 37.334 135.42 37.5301C134.88 37.7261 134.416 38.079 134.03 38.5103C133.606 39.0199 133.259 39.608 133.027 40.2354C132.757 41.0587 132.641 41.9213 132.68 42.7838C132.641 43.6464 132.795 44.5089 133.027 45.3323C133.22 45.9596 133.567 46.5477 134.03 47.0574C134.416 47.4887 134.88 47.8023 135.42 48.0376C135.922 48.2336 136.501 48.3512 137.041 48.3512C137.62 48.3512 138.16 48.2336 138.7 48.0376C139.241 47.8415 139.742 47.4887 140.128 47.0574C140.592 46.5477 140.939 45.9596 141.132 45.3323C141.402 44.5089 141.518 43.6464 141.518 42.7838C141.556 41.9213 141.402 41.0587 141.132 40.2354C140.9 39.608 140.553 39.0199 140.128 38.5103C139.742 38.079 139.241 37.7261 138.7 37.5301C138.16 37.2948 137.62 37.2164 137.041 37.2164ZM180.653 37.0596C179.688 37.0596 178.723 37.4517 178.067 38.1574C177.256 39.0591 176.793 40.1962 176.677 41.4116H183.895C184.088 40.2746 183.817 39.0591 183.161 38.1182C182.505 37.4125 181.579 37.0204 180.653 37.0596ZM79.8439 30.9041C80.114 31.2177 80.2684 31.6098 80.2684 32.0019C80.2684 32.3939 80.114 32.786 79.8439 33.0605C79.5351 33.3349 79.1492 33.4917 78.7632 33.4917C78.3387 33.531 77.9527 33.3741 77.644 33.0997C77.3352 32.8252 77.1808 32.4332 77.2194 32.0019C77.2194 31.6098 77.3352 31.1785 77.6054 30.9041C78.2615 30.316 79.2264 30.316 79.8439 30.9041Z" fill="white"/>
</svg>
