<svg width="196" height="80" viewBox="0 0 196 80" fill="none" xmlns="http://www.w3.org/2000/svg">
<path fill-rule="evenodd" clip-rule="evenodd" d="M110.874 31.6952C109.185 32.1315 107.794 32.507 106.378 32.8894C105.248 33.1943 104.103 33.5036 102.777 33.8514L102.697 33.8731C102.05 34.0501 101.982 34.0685 101.379 33.3614C100.656 32.5283 100.126 31.9893 99.1142 31.4992C96.0779 29.9801 93.138 30.4211 90.3908 32.2343C87.1135 34.3905 85.4267 37.5758 85.4749 41.5452C85.5231 45.4656 88.1738 48.6999 91.9813 49.2389C95.2586 49.68 98.0057 48.5039 100.175 46.0046C100.496 45.6048 100.791 45.178 101.119 44.7043C101.233 44.5393 101.351 44.3687 101.476 44.1914H92.1741C91.1619 44.1914 90.921 43.5544 91.2583 42.7213C91.8849 41.2022 93.0416 38.6539 93.7163 37.3798C93.8609 37.0858 94.1983 36.5957 94.9212 36.5957H110.432C111.129 34.3515 112.259 32.2309 113.767 30.2244C117.285 25.52 121.526 23.0698 127.261 22.0407C132.177 21.1586 136.804 21.6486 140.997 24.5399C144.805 27.1862 147.166 30.7635 147.793 35.468C148.612 42.0836 146.732 47.4741 142.25 52.0806C139.069 55.3639 135.166 57.4221 130.683 58.3532C129.828 58.5142 128.973 58.5905 128.132 58.6657C127.693 58.7049 127.257 58.7438 126.828 58.7942C122.442 58.6962 118.442 57.4221 115.068 54.4818C112.695 52.3961 111.06 49.8326 110.248 46.8483C109.684 48.0062 109.01 49.1151 108.223 50.17C104.753 54.8255 100.223 57.7167 94.4874 58.5008C89.7643 59.1379 85.3785 58.2068 81.5228 55.2665C77.9563 52.5222 75.9321 48.8959 75.402 44.3875C74.7754 39.0459 76.3177 34.2435 79.4986 30.0291C82.9205 25.4716 87.4509 22.5804 92.9934 21.5513C97.5238 20.7182 101.861 21.2572 105.765 23.9525C108.32 25.6677 110.151 28.0199 111.356 30.8622C111.645 31.3032 111.452 31.5482 110.874 31.6952ZM56.4613 32.5788C56.2685 32.5788 56.2203 32.4808 56.3167 32.3338L57.3288 31.0106C57.4252 30.8636 57.6662 30.7656 57.8589 30.7656H75.0648C75.2575 30.7656 75.3057 30.9126 75.2094 31.0597L74.39 32.3338C74.2936 32.4808 74.0527 32.6278 73.9081 32.6278L56.4613 32.5788ZM49.184 37.0827C48.9912 37.0827 48.943 36.9847 49.0394 36.8377L50.0515 35.5146C50.1479 35.3675 50.3889 35.2695 50.5817 35.2695H72.5589C72.7516 35.2695 72.848 35.4165 72.7998 35.5636L72.4143 36.7397C72.3661 36.9357 72.1733 37.0337 71.9805 37.0337L49.184 37.0827ZM60.7027 41.3004C60.6064 41.4474 60.6546 41.5944 60.8473 41.5944L71.354 41.6434C71.4986 41.6434 71.6913 41.4964 71.6913 41.3004L71.7877 40.1243C71.7877 39.9283 71.6913 39.7812 71.4986 39.7812H61.8594C61.6667 39.7812 61.4739 39.9283 61.3775 40.0753L60.7027 41.3004ZM138.265 38.4722C138.274 38.6368 138.284 38.8103 138.298 38.9963C138.057 43.2107 135.985 46.347 132.177 48.3562C129.623 49.6793 126.972 49.8263 124.321 48.6502C120.851 47.0821 119.02 43.2107 119.888 39.3883C120.948 34.7819 123.84 31.8906 128.322 30.8615C132.9 29.7834 137.286 32.5277 138.154 37.3791C138.222 37.7261 138.242 38.0731 138.265 38.4722Z" fill="white"/>
</svg>
