<svg width="196" height="80" viewBox="0 0 196 80" fill="none" xmlns="http://www.w3.org/2000/svg">
<path fill-rule="evenodd" clip-rule="evenodd" d="M100.183 40.3095C100.011 44.8251 96.5206 48.3425 92.1828 48.3425C87.6045 48.3425 84.2012 44.5604 84.2012 40.0002C84.2012 35.3954 87.8857 31.6133 92.3766 31.6133C94.4048 31.6133 96.3893 32.503 98.0675 34.1039L96.7581 35.7493C95.4705 34.6141 93.9236 33.836 92.3766 33.836C89.0827 33.836 86.3794 36.5944 86.3794 40.0002C86.3794 43.4475 88.9295 46.1198 92.1797 46.1198C95.1017 46.1198 97.3925 43.9386 97.8488 41.1355H91.2234V39.1551H100.186V40.3095H100.183ZM107.792 39.2218H106.57C105.22 39.2218 104.13 40.3379 104.13 41.7124V48.2083H101.948V37.082H103.736V38.0164C104.323 37.4169 105.261 37.082 106.308 37.082H108.661L107.792 39.2218ZM117.821 48.2103H119.671V37.0777H117.796V38.4809C116.837 37.5019 115.527 36.9023 114.068 36.9023C110.602 36.9023 107.889 40.0945 108.54 43.6916C108.877 45.554 110.14 47.1325 111.837 47.8946C114.127 48.9215 116.387 48.2359 117.821 46.8072V48.2103ZM114.093 39.1314C116.281 39.1314 117.959 41.1851 117.443 43.4461C117.137 44.795 116.04 45.8537 114.705 46.0865C112.537 46.4628 110.671 44.7886 110.671 42.6233C110.671 40.7099 112.196 39.1314 114.093 39.1314ZM124.069 36.4595V37.0814H127.534V39.0394H124.069V48.2076H121.909V36.5265C121.909 34.0774 123.631 32.6328 125.791 32.6328H128.406L127.534 34.7248H125.794C124.834 34.7248 124.069 35.5029 124.069 36.4595ZM137.238 48.2103H139.088V37.0777H137.213V38.4809C136.253 37.5019 134.944 36.9023 133.484 36.9023C130.018 36.9023 127.306 40.0945 127.956 43.6916C128.293 45.554 129.556 47.1325 131.253 47.8946C133.544 48.9215 135.803 48.2359 137.238 46.8072V48.2103ZM133.512 39.1314C135.7 39.1314 137.378 41.1851 136.862 43.4461C136.556 44.795 135.456 45.8537 134.125 46.0865C131.956 46.4628 130.09 44.7886 130.09 42.6233C130.09 40.7099 131.615 39.1314 133.512 39.1314ZM150.738 41.622V48.2072H148.557V41.622C148.557 40.2412 147.444 39.1314 146.116 39.1314C144.741 39.1314 143.653 40.2444 143.653 41.622V48.2072H141.472V37.0809H143.281V38.0376C144.066 37.3265 145.113 36.9023 146.203 36.9023C148.732 36.9055 150.738 39.0198 150.738 41.622ZM161.708 48.2103H163.558V37.0777H161.683V38.4809C160.723 37.5019 159.414 36.9023 157.955 36.9023C154.489 36.9023 151.776 40.0945 152.426 43.6916C152.764 45.554 154.026 47.1325 155.723 47.8946C158.014 48.9215 160.273 48.2359 161.708 46.8072V48.2103ZM157.98 39.1314C160.167 39.1314 161.845 41.1851 161.33 43.4461C161.023 44.795 159.923 45.8537 158.592 46.0865C156.423 46.4628 154.557 44.7886 154.557 42.6233C154.557 40.7099 156.083 39.1314 157.98 39.1314Z" fill="white"/>
<path d="M51.6303 21.4795C51.6303 21.4795 51.6138 21.5493 51.5925 21.6674C51.3965 21.7252 51.2005 21.7807 51.0045 21.8457C50.733 21.9301 50.4661 22.0313 50.1946 22.1301C49.9277 22.2361 49.6562 22.3421 49.3917 22.4626C48.858 22.6963 48.329 22.959 47.8119 23.2554C47.3113 23.5421 46.8177 23.8578 46.3384 24.1999C46.2699 24.1662 46.2156 24.1421 46.2156 24.1421C41.3203 22.2337 36.973 24.53 36.973 24.53C36.5762 29.8432 38.9282 33.1926 39.3934 33.7998C39.2777 34.1275 39.1691 34.4601 39.0699 34.795C38.7086 35.9998 38.437 37.2359 38.2694 38.513C38.2458 38.6962 38.2245 38.8817 38.2033 39.0673C33.6811 41.3468 32.3398 46.019 32.3398 46.019C36.1158 50.4503 40.5175 50.725 40.5175 50.725C40.5222 50.7226 40.5245 50.7177 40.5293 50.7153C41.0889 51.7346 41.7359 52.7057 42.4656 53.6093C42.7703 53.9876 43.0914 54.3539 43.4244 54.7081C42.0477 58.7249 43.618 62.067 43.618 62.067C47.8213 62.2285 50.5818 60.1899 51.1628 59.7201C51.5807 59.8647 52.0058 59.9924 52.4332 60.1056C53.7249 60.4454 55.0473 60.6454 56.3697 60.7032C56.7003 60.7177 57.0309 60.7249 57.3591 60.7225H57.5197L57.6236 60.7201L57.8314 60.7128L58.0369 60.7032L58.0416 60.7104C60.0205 63.5923 63.5036 63.9995 63.5036 63.9995C65.9807 61.3345 66.1224 58.6912 66.1224 58.1201C66.1224 58.1201 66.1224 58.1008 66.1224 58.0815C66.1224 58.0333 66.12 58.002 66.12 58.002C66.1177 57.9611 66.1176 57.9225 66.1129 57.8791C66.6324 57.508 67.1283 57.1081 67.5983 56.6791C68.5901 55.7635 69.4567 54.7225 70.1746 53.5972C70.2431 53.4912 70.3092 53.3852 70.3729 53.2768C73.1759 53.4406 75.1525 51.5057 75.1525 51.5057C74.6873 48.525 73.0225 47.072 72.6753 46.7973C72.6753 46.7973 72.6612 46.7853 72.6399 46.7708C72.621 46.7563 72.6068 46.7467 72.6068 46.7467C72.5903 46.7347 72.5691 46.7202 72.5454 46.7057C72.562 46.525 72.5785 46.3467 72.588 46.1684C72.6092 45.8479 72.6163 45.525 72.6186 45.207L72.6163 44.9684L72.6139 44.8479V44.7877C72.6139 44.7058 72.6116 44.7371 72.6116 44.7058L72.6021 44.5058L72.588 44.2359C72.5832 44.1419 72.5761 44.0624 72.5691 43.9781C72.562 43.8961 72.5549 43.8118 72.5454 43.7299L72.5171 43.4817L72.4841 43.2359C72.4368 42.9082 72.3754 42.5829 72.3022 42.2624C72.0094 40.9781 71.5182 39.7588 70.8688 38.6624C70.2194 37.5661 69.4118 36.595 68.5027 35.7781C67.5935 34.9589 66.5734 34.301 65.5037 33.8095C64.434 33.3179 63.3099 33.0022 62.1906 32.8577C61.6309 32.783 61.0736 32.7541 60.5211 32.7613L60.3156 32.7661L60.2637 32.7685C60.2495 32.7685 60.1858 32.7709 60.1928 32.7709L60.1078 32.7757L59.9024 32.7902C59.8245 32.795 59.7442 32.8023 59.6757 32.8095C59.3923 32.8384 59.1113 32.8769 58.8327 32.93C57.7228 33.142 56.6743 33.5516 55.751 34.1155C54.8277 34.6793 54.0248 35.3854 53.3707 36.1854C52.7189 36.9829 52.2112 37.8673 51.8617 38.7829C51.5122 39.6986 51.3162 40.6431 51.2619 41.5612C51.2478 41.7901 51.243 42.019 51.2478 42.2455C51.2478 42.301 51.2501 42.3588 51.2525 42.4142L51.2596 42.5973C51.2667 42.7082 51.2761 42.8166 51.2855 42.925C51.3304 43.3901 51.4131 43.8359 51.5359 44.2672C51.7791 45.1274 52.1711 45.9057 52.6528 46.566C53.1345 47.2286 53.7107 47.7756 54.3223 48.2021C54.9339 48.6286 55.5881 48.9346 56.2351 49.1298C56.8845 49.325 57.5292 49.4093 58.136 49.4069C58.2116 49.4069 58.2872 49.4045 58.3627 49.4021C58.4029 49.4021 58.443 49.3973 58.4832 49.3973C58.5233 49.3949 58.5635 49.3925 58.6036 49.39C58.6674 49.3828 58.7335 49.378 58.7972 49.3708C58.8114 49.3708 58.8327 49.366 58.8515 49.3635L58.9106 49.3563C58.9507 49.3515 58.9885 49.3443 59.0287 49.3394C59.1089 49.3298 59.1774 49.3129 59.2483 49.3009C59.3191 49.2864 59.39 49.272 59.4608 49.2527C59.6001 49.2214 59.7347 49.178 59.8693 49.137C60.1338 49.0479 60.3818 48.9394 60.6132 48.819C60.8446 48.6985 61.0571 48.5611 61.2555 48.419C61.3122 48.378 61.3665 48.3346 61.4208 48.2913C61.6333 48.1226 61.6664 47.8045 61.4963 47.5925C61.3476 47.4069 61.0925 47.3587 60.8895 47.4744C60.8399 47.5033 60.7879 47.5298 60.736 47.5563C60.5589 47.6431 60.3747 47.725 60.1787 47.7901C59.9827 47.8527 59.7796 47.9057 59.5671 47.9443C59.4608 47.9587 59.3545 47.9756 59.2459 47.9852C59.1916 47.9925 59.1373 47.9949 59.0806 47.9949C59.0263 47.9973 58.9673 48.0021 58.9177 47.9997C58.8657 47.9997 58.8138 47.9973 58.7595 47.9973C58.6933 47.9949 58.6272 47.9901 58.5611 47.9877C58.5611 47.9877 58.528 47.9877 58.554 47.9852L58.5328 47.9828L58.4879 47.978C58.4572 47.9756 58.4289 47.9732 58.3982 47.9684C58.3391 47.9611 58.2801 47.9539 58.2211 47.9443C57.7464 47.8768 57.2647 47.7346 56.8018 47.5202C56.3366 47.3057 55.8927 47.0118 55.4912 46.6431C55.0898 46.2768 54.7403 45.8335 54.4664 45.3323C54.1925 44.8335 54.0012 44.2768 53.9114 43.6937C53.8666 43.4022 53.8477 43.101 53.8548 42.807C53.8595 42.725 53.8619 42.6455 53.8666 42.5636C53.8666 42.5853 53.8689 42.5516 53.8689 42.5491L53.8713 42.5202L53.876 42.46C53.8784 42.419 53.8831 42.3805 53.8878 42.3395C53.9044 42.1805 53.928 42.019 53.9563 41.8624C54.1759 40.5925 54.7993 39.354 55.7628 38.4118C56.0037 38.1781 56.2634 37.9588 56.5397 37.7661C56.816 37.5733 57.1112 37.3998 57.4182 37.2552C57.7252 37.1106 58.0463 36.9926 58.3745 36.901C58.7028 36.8119 59.0405 36.7516 59.3829 36.7203C59.5529 36.7058 59.7253 36.6986 59.8977 36.6986C59.9425 36.6986 59.9779 36.701 60.0134 36.701L60.1527 36.7058L60.2401 36.7082C60.2755 36.7082 60.2401 36.7082 60.2566 36.7106L60.292 36.7131L60.4313 36.7227C60.8021 36.754 61.1728 36.807 61.5365 36.8914C62.2662 37.0576 62.9746 37.3299 63.6358 37.7034C64.9582 38.4504 66.0846 39.6191 66.7765 41.0287C67.126 41.7299 67.3668 42.4865 67.4896 43.2672C67.518 43.4624 67.5416 43.66 67.5581 43.8576L67.5699 44.007L67.577 44.1564C67.5794 44.207 67.5794 44.2552 67.5817 44.3058C67.5817 44.354 67.5841 44.4094 67.5841 44.4455V44.5732L67.5817 44.7178C67.577 44.8142 67.5699 44.9708 67.5652 45.0672C67.5487 45.2817 67.5321 45.4985 67.5038 45.713C67.4778 45.925 67.4424 46.1371 67.4046 46.3491C67.3621 46.5587 67.3196 46.7684 67.2653 46.9756C67.1638 47.3925 67.0315 47.7997 66.878 48.1997C66.5687 48.9997 66.1554 49.7587 65.6572 50.4599C64.6583 51.8599 63.2958 53.0045 61.7467 53.7225C60.9721 54.0792 60.1551 54.3418 59.3144 54.484C58.8941 54.5563 58.469 54.5996 58.0439 54.6141L57.966 54.6165H57.8975L57.7606 54.6189H57.5504H57.4465C57.5055 54.6189 57.4371 54.6189 57.4394 54.6165L57.3969 54.6141C57.1679 54.6093 56.9412 54.5972 56.7145 54.5804C55.8053 54.5105 54.9056 54.3466 54.0342 54.0864C53.1629 53.8286 52.3175 53.484 51.517 53.0503C49.9183 52.178 48.4896 50.9828 47.3703 49.5419C46.8083 48.8238 46.3171 48.0527 45.9109 47.2407C45.5048 46.4286 45.186 45.578 44.9498 44.7082C44.7161 43.8383 44.5697 42.9467 44.513 42.0504L44.5035 41.8817L44.5012 41.8407V41.8046L44.4988 41.7299L44.4941 41.5829L44.4917 41.5467V41.4961V41.3925L44.4894 41.1829V41.1419C44.4894 41.1492 44.4894 41.1492 44.4894 41.1275V41.0455C44.4894 40.9371 44.4941 40.8263 44.4965 40.7178C44.513 40.2745 44.5484 39.8191 44.6051 39.3636C44.6618 38.9082 44.735 38.4504 44.8271 37.995C44.9191 37.542 45.0278 37.0914 45.1506 36.6504C45.3985 35.7661 45.7079 34.9083 46.0739 34.0986C46.8083 32.477 47.7717 31.0481 48.9288 29.8963C49.2169 29.6071 49.5168 29.3348 49.8286 29.0794C50.1403 28.824 50.4638 28.5878 50.7967 28.3661C51.1273 28.1421 51.4697 27.9396 51.8216 27.7517C51.9963 27.6553 52.1758 27.571 52.3553 27.4818C52.445 27.4409 52.5371 27.3999 52.6268 27.3589C52.7166 27.318 52.8087 27.277 52.9008 27.2409C53.2668 27.0818 53.6446 26.9493 54.0224 26.824C54.1193 26.7951 54.2137 26.7638 54.3082 26.7348C54.4026 26.7035 54.5018 26.6818 54.5963 26.6529C54.7875 26.5975 54.9835 26.5517 55.1772 26.5011C55.274 26.4746 55.3732 26.4577 55.47 26.436C55.5692 26.4144 55.666 26.3927 55.7652 26.3734C55.8643 26.3541 55.9635 26.3373 56.0603 26.318L56.2091 26.2915L56.3579 26.2674C56.4571 26.2529 56.5562 26.236 56.6554 26.2216C56.7664 26.2023 56.8798 26.1927 56.9907 26.1758C57.0828 26.1638 57.2316 26.1469 57.3237 26.1348C57.3946 26.1276 57.463 26.1204 57.5339 26.1132L57.6732 26.0987L57.744 26.0915L57.8267 26.0867C57.94 26.0794 58.051 26.0722 58.1644 26.065L58.332 26.0529C58.332 26.0529 58.3934 26.0505 58.3391 26.0505L58.3745 26.0481L58.4454 26.0457C58.5422 26.0409 58.6367 26.036 58.7335 26.0312C59.116 26.0192 59.4962 26.0192 59.8717 26.0312C60.625 26.0626 61.3641 26.1469 62.082 26.2818C63.5201 26.5541 64.8732 27.0264 66.0964 27.6433C67.322 28.2553 68.42 29.0071 69.3741 29.824C69.4331 29.8746 69.4921 29.9276 69.5512 29.9782C69.6102 30.0312 69.6669 30.0818 69.7235 30.1348C69.8393 30.2384 69.9502 30.3469 70.0612 30.4505C70.1722 30.5565 70.2785 30.6649 70.3871 30.7709C70.491 30.8794 70.5973 30.9854 70.6988 31.0962C71.1026 31.5324 71.4781 31.9758 71.8158 32.4215C72.4935 33.3107 73.0343 34.2071 73.4664 35.0552C73.4947 35.1083 73.5207 35.1613 73.5467 35.2143C73.5727 35.2673 73.5986 35.3203 73.6223 35.3733C73.6718 35.4769 73.7238 35.5805 73.7687 35.6842C73.8159 35.7878 73.8631 35.889 73.908 35.9902C73.9505 36.0914 73.993 36.1926 74.0355 36.289C74.1961 36.6866 74.3425 37.0625 74.4629 37.4215C74.6613 37.9974 74.8053 38.5179 74.9187 38.9685C74.9635 39.1492 75.1312 39.2697 75.313 39.2528C75.5019 39.2359 75.646 39.0769 75.6507 38.8841C75.6602 38.3998 75.6484 37.8287 75.594 37.1781C75.5232 36.3733 75.3886 35.4408 75.1218 34.4167C74.8596 33.3926 74.47 32.2721 73.9033 31.1083C73.3342 29.9469 72.5927 28.7372 71.6292 27.5686C71.2537 27.1107 70.8429 26.6577 70.3989 26.2168C71.0601 23.5325 69.5937 21.2048 69.5937 21.2048C67.0622 21.0433 65.4517 22.0072 64.8543 22.4481C64.7551 22.4048 64.6536 22.3614 64.552 22.318C64.1199 22.1397 63.6783 21.9734 63.2225 21.8265C62.7668 21.6795 62.3016 21.5445 61.8269 21.4313C61.3499 21.318 60.8658 21.2216 60.3723 21.1445C60.2849 21.1325 60.1999 21.1204 60.1126 21.106C59.0121 17.506 55.8407 16 55.8407 16C52.3033 18.2771 51.6303 21.4795 51.6303 21.4795Z" fill="white"/>
</svg>
