<svg width="196" height="80" viewBox="0 0 196 80" fill="none" xmlns="http://www.w3.org/2000/svg">
<path fill-rule="evenodd" clip-rule="evenodd" d="M38.7028 31.6204C38.5278 31.049 38.1079 30.5847 37.583 30.299L26.9106 25.0848C26.6306 24.942 26.3157 24.9062 26.0358 24.9062C25.7558 24.9062 25.4409 24.9062 25.161 24.9777L14.4885 30.2276C13.9636 30.4775 13.5787 30.9418 13.4387 31.549L10.8144 43.2987C10.7094 43.9058 10.8494 44.5129 11.1993 45.0129L18.5825 54.3341C19.0024 54.7627 19.5973 55.0484 20.1921 55.0841H31.9494C32.5792 55.1555 33.1741 54.8698 33.559 54.3341L40.9422 45.0129C41.2921 44.5129 41.4321 43.9058 41.3621 43.2987L38.7028 31.6204ZM37.0584 42.8324C37.0234 42.8324 36.9884 42.8324 36.9884 42.7967C36.9884 42.761 36.9185 42.761 36.8485 42.761C36.7085 42.7253 36.5686 42.7253 36.4286 42.7253H36.4286C36.3586 42.7253 36.2886 42.7253 36.2186 42.6895H36.1836C35.7987 42.6538 35.3788 42.5824 34.9939 42.4753C34.8889 42.4396 34.784 42.3324 34.749 42.2253L34.469 42.1538C34.609 41.1182 34.539 40.0468 34.3291 39.0111C34.0841 37.9754 33.6642 36.9754 33.1044 36.0826L33.3143 35.8683V35.8326C33.3143 35.7254 33.3493 35.5826 33.4193 35.5111C33.7342 35.2254 34.0491 35.0112 34.3991 34.7969L34.609 34.6897C34.679 34.654 34.7402 34.6183 34.8015 34.5826L34.8015 34.5826C34.8627 34.5469 34.9239 34.5112 34.9939 34.4755C35.0114 34.4576 35.0289 34.4487 35.0464 34.4397C35.0639 34.4308 35.0814 34.4219 35.0989 34.404C35.1205 34.382 35.1154 34.3735 35.1084 34.3619C35.104 34.3547 35.0989 34.3462 35.0989 34.3326C35.4138 34.0826 35.4838 33.654 35.2389 33.3326C35.1339 33.1898 34.9239 33.0826 34.749 33.0826C34.574 33.0826 34.3991 33.1541 34.2591 33.2612L34.2241 33.2969C34.1891 33.3326 34.1541 33.3683 34.1191 33.3683C34.0141 33.4755 33.9092 33.5826 33.8392 33.6898C33.8148 33.7396 33.7734 33.772 33.7387 33.7992C33.7236 33.811 33.7098 33.8218 33.6992 33.8326C33.4543 34.1183 33.1394 34.404 32.8244 34.6183C32.7544 34.654 32.6845 34.6897 32.6145 34.6897C32.5795 34.6897 32.5095 34.6897 32.4745 34.654H32.4395L32.1596 34.8326C32.0196 34.6897 31.8709 34.5469 31.7222 34.404C31.5735 34.2612 31.4248 34.1183 31.2848 33.9755C29.9901 32.9398 28.3805 32.2969 26.7359 32.1184L26.7009 31.8327V31.8684C26.5959 31.7969 26.5609 31.6898 26.5259 31.5827C26.5259 31.1898 26.5259 30.797 26.5959 30.3684V30.3327C26.5959 30.297 26.6047 30.2613 26.6134 30.2256C26.6222 30.1898 26.6309 30.1541 26.6309 30.1184C26.6484 30.047 26.6571 29.9756 26.6659 29.9041L26.6659 29.9041C26.6746 29.8327 26.6834 29.7613 26.7009 29.6899V29.4756C26.7359 29.1184 26.4559 28.7613 26.106 28.7256C25.8961 28.6899 25.6861 28.797 25.5112 28.9756C25.3712 29.1184 25.3012 29.297 25.3012 29.4756V29.6541C25.3012 29.797 25.3362 29.9398 25.3712 30.0827C25.4062 30.1541 25.4062 30.2256 25.4062 30.297V30.3327C25.4762 30.7255 25.4762 31.1184 25.4762 31.547C25.4412 31.6541 25.4062 31.7612 25.3012 31.8327V31.9041L25.2662 32.1898C24.9369 32.2204 24.6075 32.2771 24.2563 32.3375L24.2563 32.3375L24.0765 32.3684C22.4319 32.7255 20.9273 33.6183 19.7725 34.8683L19.5626 34.7255H19.5276C19.5131 34.7255 19.4986 34.7316 19.4816 34.7388C19.4576 34.7489 19.4286 34.7612 19.3876 34.7612C19.3176 34.7612 19.2477 34.7255 19.1777 34.6897C18.8627 34.4397 18.5478 34.154 18.3029 33.8683C18.2785 33.8185 18.2371 33.7861 18.2024 33.7589L18.2024 33.7589C18.1873 33.7471 18.1735 33.7363 18.1629 33.7255C18.1104 33.6719 18.0667 33.6183 18.0229 33.5648C17.9792 33.5112 17.9355 33.4576 17.883 33.4041C17.8655 33.3862 17.848 33.3773 17.8305 33.3683C17.813 33.3594 17.7955 33.3505 17.778 33.3326L17.743 33.2969C17.603 33.1898 17.4281 33.1183 17.2531 33.1183C17.0432 33.1183 16.8682 33.1898 16.7632 33.3683C16.5533 33.6898 16.6233 34.1183 16.9032 34.3683C16.9382 34.3683 16.9382 34.404 16.9382 34.404C16.9382 34.404 17.0082 34.4755 17.0432 34.4755C17.1482 34.5469 17.2881 34.6183 17.4281 34.6897L17.638 34.7969C17.988 35.0112 18.3379 35.2254 18.6178 35.5111C18.6817 35.5764 18.7456 35.7011 18.7296 35.8038L18.7228 35.7969V35.8326C18.7258 35.8232 18.7281 35.8136 18.7296 35.8038L18.9327 36.0111C18.9152 36.0468 18.8977 36.0736 18.8802 36.1004L18.8802 36.1004C18.8627 36.1272 18.8452 36.154 18.8278 36.1897C17.743 37.9397 17.2881 40.011 17.603 42.0467L17.3231 42.1181C17.3231 42.1538 17.2881 42.1538 17.2881 42.1538C17.2531 42.261 17.1482 42.3324 17.0432 42.4038C16.6583 42.511 16.2734 42.5824 15.8535 42.6181C15.7835 42.6181 15.7135 42.6181 15.6435 42.6538C15.5735 42.6538 15.5035 42.6628 15.4336 42.6717C15.3636 42.6806 15.2936 42.6895 15.2236 42.6895C15.2091 42.6895 15.1946 42.6957 15.1776 42.7029C15.1536 42.713 15.1246 42.7253 15.0836 42.7253C15.0487 42.7253 15.0487 42.7253 15.0137 42.761C14.6287 42.8324 14.3838 43.1895 14.4538 43.5824C14.5238 43.9038 14.8387 44.1181 15.1536 44.0824C15.2236 44.0824 15.2586 44.0824 15.3286 44.0467C15.346 44.0467 15.3547 44.0467 15.3591 44.0423C15.3636 44.0379 15.3636 44.0289 15.3636 44.0109C15.3636 43.986 15.4146 43.9959 15.4574 44.0041C15.4759 44.0077 15.4929 44.0109 15.5035 44.0109C15.5914 43.9885 15.6793 43.952 15.7585 43.9191C15.8054 43.8996 15.8494 43.8814 15.8885 43.8681C15.9584 43.8324 16.0284 43.7967 16.0984 43.7967H16.1334C16.5183 43.6538 16.8682 43.5467 17.2881 43.4752H17.3231C17.4281 43.4752 17.5331 43.511 17.603 43.5824C17.638 43.5824 17.638 43.6181 17.638 43.6181L17.953 43.5824C18.4778 45.2252 19.4576 46.6895 20.8223 47.7609C21.1372 48.0109 21.4171 48.2251 21.7671 48.4037L21.5921 48.6537C21.5921 48.6894 21.6271 48.6894 21.6271 48.6894C21.6971 48.7965 21.6971 48.9394 21.6621 49.0465C21.5221 49.4037 21.3122 49.7608 21.1022 50.0822V50.1179C21.0672 50.1894 21.0322 50.2251 20.9622 50.2965C20.9229 50.3366 20.8836 50.3993 20.8382 50.4718C20.8026 50.5284 20.7633 50.591 20.7173 50.6536C20.6998 50.6715 20.6911 50.6894 20.6823 50.7072C20.6736 50.7251 20.6648 50.7429 20.6473 50.7608C20.6473 50.7608 20.6473 50.7965 20.6123 50.7965C20.4374 51.1536 20.5773 51.5822 20.8923 51.7608C20.9622 51.7965 21.0672 51.8322 21.1372 51.8322C21.4171 51.8322 21.6621 51.6536 21.802 51.4036C21.802 51.4036 21.802 51.3679 21.837 51.3679C21.837 51.3322 21.872 51.2965 21.907 51.2608C21.9245 51.1894 21.9508 51.1269 21.977 51.0644C22.0032 51.0019 22.0295 50.9394 22.047 50.8679L22.117 50.6536C22.2219 50.2608 22.3969 49.9037 22.5719 49.5465C22.6418 49.4394 22.7468 49.368 22.8518 49.3323C22.8692 49.3323 22.8779 49.3323 22.8823 49.3279C22.8868 49.3234 22.8868 49.3145 22.8868 49.2965L23.0268 49.0108C24.0065 49.4037 25.0213 49.5822 26.071 49.5822C26.7009 49.5822 27.3307 49.5108 27.9606 49.3323C28.2476 49.279 28.5345 49.186 28.807 49.0978C28.9 49.0677 28.9913 49.0381 29.0803 49.0108L29.2203 49.2608C29.2553 49.2608 29.2553 49.2608 29.2553 49.2965C29.3603 49.3323 29.4652 49.4037 29.5352 49.5108C29.7102 49.868 29.8851 50.2251 29.9901 50.6179V50.6536L30.0601 50.8679C30.0951 51.0108 30.1301 51.1536 30.2001 51.2608C30.2176 51.2786 30.2263 51.2965 30.235 51.3143C30.2438 51.3322 30.2525 51.3501 30.27 51.3679C30.27 51.3679 30.27 51.4036 30.305 51.4036C30.445 51.6536 30.6899 51.8322 30.9699 51.8322C31.0529 51.8322 31.1141 51.8098 31.188 51.7828C31.2075 51.7757 31.2279 51.7682 31.2498 51.7608C31.3898 51.6893 31.5297 51.5465 31.5647 51.3679C31.5997 51.1893 31.5997 51.0108 31.5297 50.8322C31.5297 50.7965 31.4947 50.7965 31.4947 50.7965C31.4947 50.7608 31.4598 50.7251 31.4248 50.6894C31.3548 50.5465 31.2848 50.4394 31.1798 50.3322C31.1448 50.2608 31.1098 50.2251 31.0399 50.1537V50.0822C30.7949 49.7608 30.62 49.4037 30.48 49.0465C30.445 48.9394 30.445 48.7965 30.515 48.6894C30.515 48.6537 30.55 48.6537 30.55 48.6537L30.445 48.368C32.2296 47.2609 33.5942 45.5466 34.2241 43.511L34.504 43.5467C34.539 43.5467 34.539 43.511 34.539 43.511C34.609 43.4395 34.714 43.4038 34.819 43.4038H34.854C35.2389 43.4752 35.6238 43.5824 35.9737 43.7252H36.0087L36.0087 43.7253C36.0787 43.761 36.1486 43.7967 36.2186 43.7967C36.2548 43.8151 36.2886 43.8336 36.3213 43.8514C36.4152 43.9026 36.4997 43.9487 36.6035 43.9752C36.618 43.9752 36.6325 43.9814 36.6495 43.9885C36.6735 43.9987 36.7025 44.0109 36.7435 44.0109C36.7785 44.0109 36.7785 44.0109 36.8135 44.0467C36.8835 44.0824 36.9185 44.0824 36.9884 44.0824C37.3034 44.0824 37.5833 43.8681 37.6883 43.5824C37.6533 43.1895 37.3734 42.9038 37.0584 42.8324ZM26.9458 41.7253L26.001 42.1896L25.0563 41.7253L24.8113 40.6896L25.4762 39.8325H26.5259L27.1908 40.6896L26.9458 41.7253ZM32.6495 39.4039C32.8244 40.1539 32.8594 40.9039 32.7894 41.6539L29.4652 40.6896C29.1503 40.6182 28.9753 40.2967 29.0453 39.9753C29.0803 39.8682 29.1153 39.7968 29.1853 39.7253L31.8097 37.2968C32.1946 37.9397 32.4745 38.6539 32.6495 39.4039ZM30.7599 35.9754L27.8906 38.0468C27.6457 38.1897 27.2957 38.1539 27.1208 37.9039C27.0508 37.8325 27.0158 37.7611 27.0158 37.654L26.8059 34.0469C28.3455 34.2255 29.7102 34.904 30.7599 35.9754ZM24.4264 34.154L25.1263 34.0112L24.9513 37.5825C24.9513 37.9039 24.6714 38.1539 24.3564 38.1539C24.2734 38.1539 24.2122 38.1316 24.1383 38.1046C24.1188 38.0974 24.0984 38.09 24.0765 38.0825L21.1722 35.9754C22.082 35.0826 23.2017 34.4397 24.4264 34.154ZM20.1574 37.2968L22.7468 39.6539C22.9918 39.8682 23.0268 40.2253 22.8168 40.4753C22.7468 40.5825 22.6768 40.6182 22.5369 40.6539L19.1427 41.6539C19.0377 40.1539 19.3876 38.6182 20.1574 37.2968ZM19.5626 43.3324L23.0268 42.7253C23.3067 42.7253 23.5866 42.9038 23.6216 43.1895C23.6566 43.2967 23.6566 43.4395 23.5866 43.5467L22.2569 46.8323C21.0322 46.0109 20.0525 44.7609 19.5626 43.3324ZM27.5057 47.7609C27.0158 47.868 26.5259 47.9394 26.001 47.9394C25.2662 47.9394 24.4964 47.7966 23.7966 47.5823L25.5112 44.4038C25.6861 44.1895 25.9661 44.1181 26.211 44.2609C26.316 44.3324 26.3859 44.4038 26.4909 44.5109L26.4909 44.5109L26.4909 44.5109L28.1705 47.618C27.9606 47.6537 27.7506 47.6894 27.5057 47.7609ZM31.7747 44.6538C31.2498 45.5109 30.515 46.2609 29.6752 46.7966L28.3105 43.4395C28.2405 43.1538 28.3805 42.8681 28.6254 42.761C28.7304 42.7253 28.8354 42.6895 28.9404 42.6895L32.4395 43.2967C32.2646 43.7967 32.0546 44.2609 31.7747 44.6538ZM181.784 47.013C181.329 47.1916 180.804 47.263 180.314 47.2273C179.853 47.2273 179.406 47.1962 178.955 47.1648C178.722 47.1486 178.488 47.1323 178.25 47.1201C177.585 46.9773 176.92 46.763 176.29 46.513L175.66 49.6558C176.185 49.8344 176.71 50.0129 177.27 50.1558C178.25 50.4058 179.229 50.5129 180.244 50.4772C182.064 50.4772 183.463 50.1201 184.443 49.4415C185.458 48.7629 186.018 47.5844 185.948 46.3701C185.948 45.8702 185.878 45.3702 185.738 44.8702C185.598 44.4059 185.388 44.0131 185.073 43.6916C184.723 43.2631 184.303 42.9417 183.813 42.6917C183.183 42.3345 182.484 42.0131 181.784 41.7631C181.364 41.6203 181.014 41.4774 180.769 41.3346C180.698 41.2934 180.631 41.2553 180.567 41.2193C180.409 41.13 180.274 41.0537 180.174 40.9774C180.034 40.8703 179.929 40.7631 179.859 40.6203L179.859 40.6201C179.824 40.4773 179.789 40.3345 179.789 40.1917C179.789 39.5132 180.384 39.1917 181.574 39.1917C182.134 39.1917 182.728 39.2275 183.288 39.3703C183.434 39.4127 183.576 39.4519 183.717 39.4908C184.051 39.583 184.378 39.6733 184.723 39.7989L185.388 36.7632C184.793 36.549 184.198 36.4061 183.603 36.299C182.833 36.1204 182.029 36.049 181.259 36.049C179.649 36.049 178.389 36.4061 177.445 37.1561C176.535 37.8703 176.01 39.0132 176.045 40.1917C176.045 40.7631 176.115 41.3346 176.325 41.8703C176.5 42.3345 176.745 42.7274 177.095 43.0845C177.48 43.4416 177.865 43.7274 178.32 43.9416C178.809 44.1916 179.334 44.4416 179.929 44.6559C180.524 44.8345 181.119 45.1202 181.644 45.4416C181.959 45.5487 182.169 45.8702 182.204 46.2273C182.239 46.5487 182.064 46.8701 181.784 47.013ZM161.558 40.156C161.209 41.156 160.999 42.2274 161.034 43.2988C161.034 44.2273 161.174 45.1916 161.419 46.1559C161.698 46.9773 162.118 47.763 162.713 48.4058C163.343 49.0487 164.078 49.5486 164.918 49.8701C165.932 50.2629 166.982 50.4415 168.067 50.4058C168.557 50.4058 169.047 50.3701 169.502 50.3343C169.991 50.2629 170.411 50.1915 170.831 50.1201C171.216 50.0843 171.601 49.9772 171.986 49.8701C172.07 49.838 172.154 49.8091 172.237 49.7805C172.431 49.7137 172.619 49.6487 172.791 49.5486L172.266 46.4059C171.741 46.6559 171.181 46.8344 170.621 46.9416C169.956 47.0487 169.257 47.1201 168.592 47.1201C167.682 47.1558 166.772 46.9058 166.002 46.4059C165.373 45.9773 164.988 45.263 164.918 44.513H173.456C173.456 44.4136 173.463 44.3141 173.471 44.2076C173.481 44.0845 173.491 43.9519 173.491 43.7988C173.526 43.5132 173.526 43.2633 173.526 43.0491V43.0488C173.526 40.7631 172.966 39.0132 171.881 37.8346C170.796 36.6561 169.292 36.049 167.402 36.049C166.597 36.049 165.792 36.1918 165.023 36.5132C164.253 36.7989 163.588 37.2632 162.993 37.8703C162.363 38.5489 161.873 39.2989 161.558 40.156ZM169.712 40.8703C169.817 41.1917 169.887 41.5131 169.887 41.8345H164.918C164.953 41.5131 165.023 41.1917 165.128 40.8703C165.233 40.5489 165.408 40.2631 165.618 40.0132C165.827 39.7632 166.107 39.5846 166.387 39.4417C166.737 39.2632 167.087 39.1917 167.472 39.1917C167.857 39.1917 168.207 39.2632 168.557 39.4417C168.837 39.5846 169.082 39.7989 169.292 40.0489C169.467 40.2989 169.642 40.5489 169.712 40.8703ZM154.56 32.3705L150.781 32.9776V44.4416C150.746 45.2273 150.816 46.0487 150.991 46.8344C151.166 47.513 151.446 48.1558 151.866 48.6915C152.286 49.1915 152.846 49.6201 153.475 49.8701C154.28 50.1915 155.155 50.3343 156.03 50.2986C156.73 50.2986 157.429 50.2272 158.094 50.0843C158.619 49.9415 159.144 49.7986 159.634 49.5844L159.109 46.5844C158.724 46.7273 158.339 46.8344 157.919 46.9058C157.534 46.9773 157.115 47.013 156.695 47.013C155.82 47.013 155.26 46.763 154.98 46.2987C154.665 45.7273 154.525 45.0487 154.56 44.3702V39.5846H159.109V36.3704H154.56V32.3705ZM136.015 40.156C135.665 41.156 135.455 42.2274 135.49 43.2988C135.455 44.2273 135.595 45.1916 135.875 46.1559C136.155 46.9773 136.574 47.763 137.169 48.4058C137.799 49.0487 138.534 49.5486 139.374 49.8701C140.389 50.2629 141.438 50.4415 142.523 50.4058C143.013 50.4058 143.503 50.3701 143.958 50.3343C144.447 50.2629 144.867 50.1915 145.287 50.1201L145.287 50.1201C145.672 50.0843 146.057 49.9772 146.442 49.8701C146.526 49.838 146.61 49.8091 146.693 49.7805C146.887 49.7137 147.075 49.6487 147.247 49.5486L146.722 46.4059C146.162 46.6559 145.602 46.8344 145.042 46.9416C144.378 47.0487 143.678 47.1201 143.013 47.1201C142.103 47.1558 141.193 46.9058 140.424 46.4059C139.794 45.9773 139.409 45.263 139.339 44.513H147.912C147.912 44.2988 147.912 44.0845 147.947 43.7988C147.982 43.5131 147.982 43.2631 147.982 43.0488C147.982 40.7631 147.422 39.0132 146.337 37.8346C145.252 36.6561 143.748 36.049 141.858 36.049C141.053 36.049 140.249 36.1918 139.479 36.5132C138.709 36.7989 138.044 37.2632 137.449 37.8703C136.819 38.5489 136.329 39.2989 136.015 40.156ZM144.168 40.8703C144.273 41.1917 144.343 41.5131 144.343 41.8345H139.409C139.444 41.5131 139.514 41.1917 139.619 40.8703C139.724 40.5489 139.899 40.2631 140.109 40.0132C140.319 39.7632 140.563 39.5846 140.843 39.4417C141.193 39.2632 141.543 39.1917 141.928 39.1917C142.313 39.1917 142.663 39.2632 143.013 39.4417C143.293 39.5846 143.538 39.7989 143.748 40.0489C143.923 40.2989 144.098 40.5489 144.168 40.8703ZM123.627 36.299C122.788 36.4418 121.948 36.6204 121.143 36.8347V49.9415H124.922V39.4417C125.167 39.406 125.412 39.3703 125.727 39.3703C126.042 39.3346 126.322 39.3346 126.602 39.3346C127.477 39.3346 128.071 39.6203 128.386 40.1203C128.701 40.656 128.876 41.5131 128.876 42.7631V49.9415H132.62V42.2631C132.62 41.406 132.55 40.5489 132.34 39.7274C132.165 39.0132 131.851 38.3346 131.396 37.7632C130.941 37.1918 130.311 36.7632 129.611 36.5132C128.701 36.1918 127.757 36.0132 126.812 36.049C125.762 36.049 124.677 36.1204 123.627 36.299ZM118.105 39.7145C118.237 39.745 118.362 39.7741 118.484 39.7989L119.114 36.5847C118.869 36.4775 118.624 36.4061 118.379 36.3704C118.064 36.299 117.784 36.2632 117.504 36.2275C117.189 36.1561 116.909 36.1204 116.629 36.1204C116.507 36.1204 116.384 36.1115 116.262 36.1025C116.139 36.0936 116.017 36.0847 115.894 36.0847C114.88 36.049 113.83 36.1561 112.815 36.4061C112.01 36.5847 111.205 36.7989 110.436 37.0847V50.0129H114.215V39.6203C114.46 39.5489 114.705 39.5132 114.95 39.4775C114.981 39.4738 115.013 39.4702 115.044 39.4667C115.321 39.4349 115.573 39.406 115.824 39.406C116.314 39.406 116.804 39.4417 117.294 39.5489C117.591 39.5955 117.858 39.6574 118.105 39.7145ZM95.5292 40.156C95.1792 41.156 94.9693 42.2274 95.0043 43.2988C95.0043 44.2631 95.1442 45.1916 95.3542 46.1559C95.6341 46.9773 96.054 47.763 96.6489 48.4058C97.2787 49.0487 98.0136 49.5486 98.8534 49.8701C99.8681 50.2629 100.918 50.4415 102.003 50.4058C102.493 50.4058 102.982 50.3701 103.437 50.3343C103.927 50.2629 104.347 50.1915 104.767 50.1201L104.767 50.1201C105.152 50.0843 105.537 49.9772 105.922 49.8701C106.006 49.838 106.089 49.8091 106.172 49.7805C106.366 49.7137 106.555 49.6487 106.727 49.5486L106.202 46.4059C105.677 46.6201 105.117 46.7987 104.557 46.9058C103.892 47.013 103.192 47.0844 102.528 47.0844C101.618 47.1201 100.708 46.8701 99.9381 46.3701C99.3083 45.9416 98.9234 45.2273 98.8534 44.4773H107.426C107.426 44.2631 107.426 44.0488 107.461 43.7631C107.496 43.4774 107.496 43.2275 107.496 43.0132V43.0131C107.496 40.7631 106.936 39.0132 105.852 37.8346C104.767 36.6561 103.262 36.049 101.373 36.049C100.568 36.049 99.7632 36.1918 98.9933 36.5132C98.2235 36.7989 97.5587 37.2632 96.9638 37.8703C96.334 38.5489 95.8441 39.2989 95.5292 40.156ZM103.717 40.8703C103.822 41.1917 103.892 41.5131 103.892 41.8345H98.9234C98.9584 41.5131 99.0283 41.1917 99.1333 40.8703C99.2383 40.5489 99.4132 40.2631 99.6232 40.0132C99.8331 39.7632 100.113 39.5846 100.393 39.4417C100.743 39.2632 101.093 39.1917 101.478 39.1917C101.863 39.1917 102.213 39.2632 102.562 39.4417C102.842 39.5846 103.087 39.7989 103.297 40.0489C103.472 40.2989 103.647 40.5489 103.717 40.8703ZM86.1864 39.3703C87.971 39.3703 88.8807 40.5846 88.8807 43.0845C88.9157 44.1202 88.6358 45.1202 88.1109 45.9773C87.5511 46.7273 86.6763 47.1201 85.7665 47.0487C85.4166 47.0487 85.1016 47.0487 84.8217 47.013C84.5418 46.9773 84.2968 46.9416 84.1219 46.9058V39.906C84.4018 39.7274 84.7167 39.5846 85.0317 39.5132C85.4166 39.406 85.8015 39.3703 86.1864 39.3703ZM92.2399 46.1916C92.5899 45.2273 92.7298 44.2273 92.7298 43.2274C92.7298 42.2274 92.6249 41.2274 92.4149 40.3346C92.2049 39.5132 91.82 38.7632 91.2952 38.0846C90.8053 37.4775 90.1754 36.9775 89.4756 36.6561C88.6708 36.2632 87.831 36.1204 86.9562 36.1204C86.4663 36.1204 85.9764 36.1561 85.4865 36.2632C85.0317 36.3704 84.5768 36.5132 84.1569 36.6918V29.9062L80.3778 30.5134V49.6201C80.6927 49.7629 81.0776 49.8701 81.5325 49.9415C81.9874 50.0486 82.4423 50.1201 82.8972 50.1915C83.1421 50.2093 83.387 50.2361 83.632 50.2629C83.8769 50.2897 84.1219 50.3165 84.3668 50.3343L84.3669 50.3343C84.8568 50.3701 85.3466 50.4058 85.8015 50.4058C86.8162 50.4058 87.796 50.2629 88.7408 49.9058C89.5456 49.5844 90.2804 49.0844 90.9103 48.4415C91.5051 47.7987 91.96 47.0487 92.2399 46.1916ZM74.2892 50.0129C75.129 49.9058 75.9688 49.7272 76.7736 49.5129V36.3704H72.9945V46.8344C72.8215 46.8849 72.6486 46.8997 72.4509 46.9166C72.3687 46.9237 72.2822 46.9311 72.1897 46.9416C71.8748 46.9773 71.5948 46.9773 71.3149 46.9773C70.4401 46.9773 69.8453 46.6916 69.5303 46.1559C69.2154 45.6202 69.0405 44.7273 69.0405 43.4774V36.3704H65.2613V43.9059C65.2613 44.763 65.3313 45.6559 65.5413 46.4773C65.7162 47.2273 66.0312 47.9058 66.4861 48.513C66.9759 49.0844 67.5708 49.5129 68.2706 49.7986C69.1804 50.1201 70.1252 50.2986 71.105 50.2629C72.1547 50.2629 73.2395 50.1915 74.2892 50.0129ZM55.106 40.8703C54.9816 41.0131 54.8572 41.156 54.7289 41.2988V29.9062L50.9497 30.5134V50.0843H54.7289V44.1202C55.1837 44.4773 55.6036 44.9059 55.9886 45.3702C56.4434 45.8702 56.8633 46.4059 57.2483 46.9416C57.4682 47.3007 57.7019 47.6456 57.932 47.9854C58.0681 48.1863 58.203 48.3853 58.333 48.5844C58.4228 48.7218 58.5102 48.8545 58.5954 48.9838C58.8422 49.3583 59.0697 49.7035 59.2778 50.0486H63.6167C63.3368 49.4772 62.9869 48.8344 62.567 48.1558C62.1471 47.4773 61.6572 46.763 61.1673 46.0844C60.6425 45.3702 60.1176 44.7274 59.5928 44.0846L59.5927 44.0845C59.1028 43.4774 58.5779 42.9417 58.0181 42.406C59.0328 41.406 59.9426 40.406 60.8174 39.4417C61.1783 39.0273 61.5457 38.5997 61.9196 38.1646C62.4156 37.5872 62.923 36.9967 63.4418 36.4061H58.9628C58.9109 36.4667 58.8557 36.5306 58.7981 36.5973C58.5842 36.845 58.3361 37.1323 58.0881 37.4418C57.9071 37.6675 57.7147 37.8931 57.5107 38.1324C57.3595 38.3096 57.2021 38.4942 57.0383 38.6918C56.6534 39.1203 56.2685 39.5489 55.8836 40.0132C55.6037 40.2989 55.3548 40.5846 55.106 40.8703Z" fill="white"/>
</svg>
