<svg width="196" height="80" viewBox="0 0 196 80" fill="none" xmlns="http://www.w3.org/2000/svg">
<path fill-rule="evenodd" clip-rule="evenodd" d="M176.773 19.2969C178.19 19.2969 179.34 20.4695 179.34 21.9159V58.2552C179.34 59.7016 178.19 60.8742 176.773 60.8742H20.2063C18.7888 60.8742 17.6396 59.7016 17.6396 58.2552V21.9159C17.6396 20.4695 18.7888 19.2969 20.2063 19.2969H176.773ZM176.773 19.9516H20.2063C19.1432 19.9516 18.2813 20.8311 18.2813 21.9159V58.2552C18.2813 59.34 19.1432 60.2195 20.2063 60.2195H176.773C177.836 60.2195 178.698 59.34 178.698 58.2552V21.9159C178.698 20.8311 177.836 19.9516 176.773 19.9516ZM75.1357 37.6302L78.3974 47.7386L78.4678 48.0163C78.51 48.1908 78.5668 48.4334 78.638 48.744H78.7049L78.7547 48.5246C78.8007 48.3293 78.8644 48.0764 78.9456 47.7657L82.3677 37.6302H85.4958L79.3198 53.771C78.0365 56.6513 76.2363 58.0915 73.9191 58.0915C73.2686 58.0915 72.7249 58.0326 72.2883 57.9149V55.2927C72.7783 55.4557 73.224 55.5373 73.625 55.5373C74.7836 55.5373 75.648 54.9575 76.2185 53.7982L77.1409 51.5156L71.7 37.6302H75.1357ZM95.22 37.3028C96.956 37.3028 98.3093 37.9229 99.2798 39.163C100.25 40.4031 100.735 42.0687 100.735 44.1596C100.735 46.477 100.188 48.3326 99.0928 49.7267C97.9977 51.1207 96.502 51.8177 94.6056 51.8177C92.8606 51.8177 91.5163 51.0392 90.5725 49.4824H90.5191V57.9278H87.4208V37.6287H90.5191V40.0728H90.5725C91.6319 38.226 93.1811 37.3028 95.22 37.3028ZM158.436 37.3028C160.164 37.3028 161.514 37.9111 162.484 39.1278C163.454 40.3445 163.94 41.9978 163.94 44.0873C163.94 46.4122 163.383 48.2915 162.271 49.7253C161.159 51.159 159.69 51.876 157.865 51.876C155.826 51.876 154.32 50.9397 153.345 49.0672H153.292V57.9278H152.069V37.642H153.292V40.5051H153.345C153.832 39.4828 154.53 38.6937 155.439 38.1373C156.347 37.5809 157.346 37.3028 158.436 37.3028ZM122.191 31.7373C123.332 31.7373 124.473 31.9319 125.613 32.3211V33.7331C124.49 33.2172 123.292 32.9592 122.017 32.9592C120.716 32.9592 119.685 33.2941 118.923 33.9639C118.161 34.6337 117.78 35.4844 117.78 36.5163C117.78 37.5118 118.04 38.3038 118.562 38.8921C119.083 39.4804 120.208 40.2815 121.937 41.2952C123.728 42.327 124.92 43.2435 125.513 44.0444C126.106 44.8455 126.402 45.7664 126.402 46.8072C126.402 48.3007 125.892 49.518 124.871 50.4593C123.851 51.4006 122.409 51.8713 120.547 51.8713C119.887 51.8713 119.128 51.7671 118.268 51.5589C117.408 51.3509 116.75 51.1109 116.296 50.8395V49.3052C117.668 50.1923 119.059 50.6357 120.467 50.6357C121.964 50.6357 123.1 50.3213 123.876 49.6922C124.651 49.0631 125.039 48.183 125.039 47.0516C125.039 46.056 124.778 45.2618 124.256 44.6689C123.754 44.0973 122.686 43.3258 121.052 42.3543L120.868 42.2456C118.925 41.096 117.695 40.1343 117.178 39.3606C116.661 38.5866 116.403 37.6929 116.403 36.6792C116.403 35.3034 116.929 34.1359 117.98 33.1764C119.032 32.217 120.436 31.7373 122.191 31.7373ZM108.866 37.3028C110.72 37.3028 112.154 37.9144 113.169 39.1375C114.184 40.3605 114.692 42.0593 114.692 44.2336V45.4431H105.451C105.486 46.7297 105.872 47.7217 106.609 48.4194C107.346 49.117 108.359 49.4658 109.648 49.4658C111.095 49.4658 112.423 49.0219 113.633 48.134V50.6753C112.397 51.4727 110.764 51.8713 108.734 51.8713C106.739 51.8713 105.175 51.2392 104.041 49.9754C102.907 48.7115 102.34 46.9335 102.34 44.6414C102.34 42.4761 102.964 40.7117 104.213 39.3481C105.462 37.9846 107.013 37.3028 108.866 37.3028ZM134.905 37.3028C135.952 37.3028 136.968 37.5199 137.952 37.954V39.3647C136.968 38.7497 135.89 38.4423 134.717 38.4423C133.107 38.4423 131.8 39.0278 130.798 40.1988C129.796 41.37 129.295 42.8869 129.295 44.7497C129.295 46.5494 129.753 47.9962 130.671 49.0905C131.588 50.1848 132.798 50.7318 134.301 50.7318C135.679 50.7318 136.878 50.361 137.898 49.6195V50.9217C136.878 51.5547 135.661 51.8713 134.248 51.8713C132.377 51.8713 130.87 51.2224 129.724 49.9247C128.579 48.6271 128.006 46.9293 128.006 44.8313C128.006 42.6247 128.65 40.8184 129.939 39.4121C131.228 38.0059 132.883 37.3028 134.905 37.3028ZM168.07 33.7016V37.7258H171.64V38.8639H168.07V48.0232C168.07 48.9808 168.218 49.674 168.513 50.1031C168.808 50.5321 169.308 50.7467 170.013 50.7467C170.516 50.7467 171.058 50.5796 171.64 50.2453V51.4106C171.005 51.7177 170.41 51.8713 169.855 51.8713C167.854 51.8713 166.854 50.6428 166.854 48.1858V38.8639H164.421V37.7258H166.854V34.1217C167.047 34.0494 167.25 33.9771 167.462 33.9049C167.673 33.8416 167.876 33.7739 168.07 33.7016ZM74.2667 32.0647V34.8086H68.7849V51.5439H65.6185V34.8086H60.15V32.0647H74.2667ZM144.618 37.3028C145.123 37.3028 145.574 37.3847 145.973 37.5483V38.8852C145.565 38.585 145.087 38.4351 144.538 38.4351C143.466 38.4351 142.568 39.0034 141.841 40.1401C141.115 41.2769 140.752 42.891 140.752 44.9827V51.5439H139.556V37.5757H140.752V40.6721H140.805C141.115 39.6081 141.607 38.7806 142.28 38.1895C142.953 37.5984 143.732 37.3028 144.618 37.3028ZM149.181 37.6302V51.5439H147.898V37.6302H149.181ZM158.386 38.4486C156.784 38.4486 155.545 38.9906 154.668 40.0747C153.791 41.1587 153.352 42.4325 153.352 43.8959V45.644C153.352 47.0352 153.786 48.2298 154.654 49.2281C155.522 50.2263 156.664 50.7254 158.078 50.7254C159.483 50.7254 160.624 50.118 161.501 48.9029C162.378 47.6878 162.817 46.0912 162.817 44.1128C162.817 42.3784 162.414 41.0007 161.608 39.9798C160.803 38.959 159.729 38.4486 158.386 38.4486ZM94.138 39.9219C93.0349 39.9219 92.1477 40.318 91.4762 41.1103C90.8045 41.9027 90.4688 42.893 90.4688 44.0814V45.7965C90.4688 46.8049 90.7867 47.6603 91.4228 48.3626C92.0588 49.0648 92.866 49.4159 93.8444 49.4159C94.992 49.4159 95.8926 48.9635 96.5465 48.0586C97.2002 47.1539 97.5271 45.8912 97.5271 44.2705C97.5271 42.911 97.2225 41.8464 96.613 41.0765C96.0038 40.3067 95.1787 39.9219 94.138 39.9219ZM108.914 39.5945C108.034 39.5945 107.288 39.9264 106.676 40.5902C106.065 41.2541 105.689 42.1225 105.548 43.1957H111.804C111.795 42.059 111.536 41.1746 111.025 40.5426C110.515 39.9106 109.811 39.5945 108.914 39.5945ZM148.606 32.0647C148.886 32.0647 149.132 32.1581 149.344 32.3447C149.556 32.5314 149.662 32.7834 149.662 33.1007C149.662 33.3994 149.559 33.656 149.351 33.8707C149.143 34.0854 148.895 34.1927 148.606 34.1927C148.335 34.1927 148.096 34.09 147.889 33.8847C147.681 33.6794 147.577 33.418 147.577 33.1007C147.577 32.7927 147.683 32.5431 147.895 32.3517C148.107 32.1604 148.344 32.0647 148.606 32.0647Z" fill="white"/>
</svg>
