<?xml version="1.0" standalone="no"?>
<!DOCTYPE svg PUBLIC "-//W3C//DTD SVG 20010904//EN"
 "http://www.w3.org/TR/2001/REC-SVG-20010904/DTD/svg10.dtd">
<svg version="1.0" xmlns="http://www.w3.org/2000/svg"
 width="1050.000000pt" height="906.000000pt" viewBox="0 0 1050.000000 906.000000"
 preserveAspectRatio="xMidYMid meet">

<g transform="translate(0.000000,906.000000) scale(0.100000,-0.100000)"
fill="#000000" stroke="none">
<path d="M10120 8877 c0 -26 4 -37 15 -37 12 0 14 7 9 28 -11 44 -24 50 -24 9z"/>
<path d="M4719 8364 c-27 -13 -47 -44 -29 -44 13 0 66 47 60 53 -3 3 -17 -1
-31 -9z"/>
<path d="M9810 8035 c-18 -19 -31 -37 -28 -40 4 -5 45 36 61 63 14 21 2 13
-33 -23z"/>
<path d="M9720 7940 c0 -5 5 -10 10 -10 6 0 10 5 10 10 0 6 -4 10 -10 10 -5 0
-10 -4 -10 -10z"/>
<path d="M8147 7790 c-3 -11 -1 -23 4 -26 5 -3 9 2 9 10 0 16 12 21 23 9 4 -3
2 -12 -5 -20 -17 -20 -5 -25 20 -7 l23 16 -25 19 c-31 24 -42 24 -49 -1z"/>
<path d="M8480 7724 c0 -14 4 -23 10 -19 6 3 10 15 10 26 0 10 -4 19 -10 19
-5 0 -10 -12 -10 -26z"/>
<path d="M8093 7733 c-17 -6 -16 -23 1 -23 8 0 16 7 20 15 6 15 1 17 -21 8z"/>
<path d="M8139 7704 c-7 -9 -22 -14 -36 -11 -27 5 -28 4 -37 -45 -6 -31 -4
-37 9 -32 8 3 13 10 10 14 -6 9 78 50 101 50 8 0 14 6 14 13 0 8 3 8 9 -2 8
-12 11 -12 25 1 14 14 13 16 -7 22 -39 10 -74 6 -88 -10z"/>
<path d="M6030 5052 c0 -10 134 -72 155 -72 9 0 28 -6 43 -14 27 -13 100 -21
88 -9 -4 4 -21 12 -39 19 -17 6 -72 28 -121 48 -87 35 -126 44 -126 28z"/>
<path d="M6360 4960 c0 -13 30 -13 50 0 11 7 7 10 -17 10 -18 0 -33 -4 -33
-10z"/>
<path d="M1107 3835 c-9 -18 -8 -18 6 -7 9 8 28 11 49 8 18 -3 58 0 88 8 l55
14 -93 -2 c-83 -1 -95 -3 -105 -21z"/>
<path d="M2355 3679 c-102 -52 -122 -70 -29 -27 64 30 126 67 114 67 -3 0 -41
-18 -85 -40z"/>
<path d="M9575 3650 c-3 -6 1 -7 9 -4 18 7 21 14 7 14 -6 0 -13 -4 -16 -10z"/>
<path d="M1470 3500 c-13 -9 -13 -10 0 -9 8 0 24 4 35 9 l20 9 -20 0 c-11 0
-27 -4 -35 -9z"/>
<path d="M1563 3504 c2 -2 12 -5 23 -7 10 -1 24 -6 30 -9 21 -14 191 -11 211
3 17 12 2 14 -124 15 -79 1 -142 0 -140 -2z"/>
<path d="M1148 3403 c6 -2 18 -2 25 0 6 3 1 5 -13 5 -14 0 -19 -2 -12 -5z"/>
<path d="M4766 1865 c-3 -8 -1 -15 4 -15 6 0 10 7 10 15 0 8 -2 15 -4 15 -2 0
-6 -7 -10 -15z"/>
<path d="M4197 1745 c-26 -7 -54 -18 -62 -25 -10 -8 -35 -10 -83 -5 -54 5 -85
2 -152 -16 -109 -28 -164 -34 -209 -21 -20 6 -58 15 -85 20 l-48 10 -44 -47
c-24 -25 -44 -53 -44 -61 0 -8 -3 -26 -7 -40 -6 -23 -4 -23 22 8 15 18 46 42
68 54 37 19 47 19 107 9 77 -13 180 -13 180 -1 0 5 16 9 36 8 20 -1 39 4 44
12 6 9 40 16 103 20 72 5 100 11 119 26 14 11 44 26 67 34 22 7 41 17 41 22 0
4 -1 8 -2 7 -2 0 -25 -7 -51 -14z"/>
<path d="M10103 1180 c-34 -27 -65 -54 -69 -61 -10 -17 107 64 130 90 33 36 4
22 -61 -29z"/>
<path d="M4135 510 c-3 -5 -1 -10 4 -10 6 0 11 5 11 10 0 6 -2 10 -4 10 -3 0
-8 -4 -11 -10z"/>
<path d="M4100 488 c0 -12 3 -18 6 -15 4 3 15 2 25 -3 31 -17 29 5 -2 22 -28
17 -29 16 -29 -4z"/>
<path d="M3915 439 c-46 -24 -71 -46 -63 -54 8 -8 54 17 93 50 37 30 23 32
-30 4z"/>
<path d="M3600 280 c-11 -8 -7 -9 15 -4 37 8 45 14 19 14 -10 0 -26 -5 -34
-10z"/>
<path d="M10065 100 c-11 -17 3 -27 46 -34 22 -4 57 -18 77 -31 20 -14 45 -25
55 -25 14 0 10 7 -15 29 -63 55 -147 86 -163 61z"/>
<path d="M10290 24 l-25 -14 28 0 c17 0 27 5 27 15 0 8 -1 15 -2 14 -2 -1 -14
-7 -28 -15z"/>
</g>
</svg>
