<svg width="136" height="136" viewBox="0 0 136 136" fill="none" xmlns="http://www.w3.org/2000/svg">
<path d="M120.152 72.0785L121.498 68.5004L122.129 66.8217L124 61.8487L124.837 59.6234L125.864 56.8959L126 56.8525L125.915 56.7616L125.98 56.5872L125.804 56.6436L121.446 52.0109L117.189 47.484L117.101 47.3912L113.035 43.0672L112.802 42.8194L112.714 42.7257L108.338 38.0732L106.06 35.651L103.975 33.4336L99.7162 28.9022L99.6587 28.841L99.4259 28.5933L95.2194 24.1208L95.1791 24.0779L95.0867 23.9797L93.9292 22.7488L90.8519 19.4762L86.5377 14.8875L86.4435 14.7874L84.3604 12.5724L82.3407 10.4247L82.3922 10.2689L82.2348 10.312L82.1396 10.2109L82.0934 10.3507L78.0118 11.4696L76.9248 11.7676L76.6685 11.8378L76.6267 11.8493L71.1136 13.361L71.0711 13.3727L70.3054 13.5825L65.4169 14.922L60.0944 16.3806L54.5944 17.8878L54.4864 17.9174L54.4423 17.9295L48.4648 19.5684L42.8547 21.1058L40.4563 21.7631L36.923 22.7312L32.5224 23.937L31.5079 24.215L31.4089 24.2421L31.0796 24.3323L25.4645 25.8714L25.363 25.7611L25.3193 25.9112L25.1844 25.9482L25.2786 26.0508L23.7875 31.1696L23.7482 31.3044L23.6585 31.6124L23.6444 31.6612L22.1778 36.7037L21.368 39.4814L20.6754 41.8568L20.6311 42.0085L20.6061 42.0945L20.5908 42.1471L20.5457 42.3018L19.0784 47.3441L17.5288 52.6629L17.4832 52.8194L16.101 57.5666L15.9804 57.981L15.9705 58.015L14.5169 63.0092L13.1135 67.8287L11.6364 72.9L11.6198 72.9569L11.5912 73.0548L10.127 78.0858L10 78.125L10.0874 78.222L10.0405 78.3831L10.1906 78.3367L12.0442 80.3957L14.2618 82.8589L18.5169 87.5857L22.6645 92.1937L22.7494 92.2881L22.8034 92.3481L22.9508 92.5118L23.037 92.6073L27.0393 97.0509L29.9246 100.257L31.1662 101.637L31.263 101.745L31.4499 101.953L32.6751 103.313L35.5578 106.514L39.7163 111.135L39.8718 111.308L39.9046 111.344L44.197 116.112L44.2888 116.214L48.4999 120.891L52.7107 125.568L52.65 125.747L52.8189 125.688L52.9087 125.788L52.9591 125.638L55.3899 124.781L58.4452 123.703L64.027 121.734L64.0454 121.728L64.2909 121.641L67.2383 120.601L69.7013 119.732L71.0402 119.26L75.1897 117.795L79.5122 116.27L80.322 115.984L80.4493 115.94L80.4971 115.923L80.6865 115.856L80.7615 115.829L83.8388 114.743L86.0347 113.967L91.3913 112.077L91.5182 112.033L96.389 110.314L97.7692 109.827L101.737 108.427L101.839 108.391L102.431 108.182L107.07 106.545L107.154 106.637L107.206 106.497L107.335 106.452L107.256 106.366L109.125 101.395L110.77 97.0241L110.865 96.7708L110.94 96.5708L112.425 92.6224L112.65 92.0229L114.611 86.8098L115.581 84.231L116.351 82.1838L118.173 77.3444L118.197 77.28L118.341 76.8959L119.56 73.6521L120.152 72.0785ZM91.5062 111.763L92.6813 108.544L93.1526 107.254L96.7457 105.998L98.1637 105.502L96.5052 109.999L91.5062 111.763ZM80.7476 115.56L81.7864 112.652L82.3671 111.026L87.4672 109.242L85.8339 113.764L80.7476 115.56ZM64.2742 121.373L65.8534 116.8L71.0919 114.967L69.4989 119.529L64.2742 121.373ZM44.3816 115.931L45.9072 111.279L50.0316 115.852L48.4884 120.492L44.3816 115.931ZM35.8098 106.408L37.2985 101.733L38.1568 102.685L41.3977 106.279L41.2374 106.775L39.8897 110.942L35.8098 106.408ZM23.0387 92.2234L24.4726 87.5162L28.5351 92.0194L27.3264 95.929L27.0836 96.7143L23.0387 92.2234ZM10.3752 78.1558L11.7546 73.4166L15.7802 77.8788L14.3816 82.606L10.3752 78.1558ZM20.7945 42.3703L22.1459 43.8499L24.9365 46.9053L23.4651 51.8831L19.3424 47.3602L20.7945 42.3703ZM22.3459 37.0485L25.3361 40.3161L26.5066 41.5953L26.0523 43.1318L25.0221 46.616L20.8791 42.0799L22.3459 37.0485ZM31.2769 24.5465L35.4746 29.1045L33.5169 29.6496L29.8697 30.6651L26.6641 27.1769L25.6613 26.0857L31.2769 24.5465ZM43.1967 21.2802L48.663 19.7822L52.828 24.2735L47.3724 25.7911L45.0852 23.3204L43.1967 21.2802ZM71.4554 13.5354L76.6868 12.101L80.7999 16.4848L75.5789 17.9386L71.4554 13.5354ZM82.1533 10.6025L86.2568 14.9657L81.0807 16.4066L80.7116 16.0132L76.9685 12.0238L82.1533 10.6025ZM94.8999 24.158L89.7424 25.6379L86.4823 22.163L85.6053 21.2282L90.7714 19.7677L94.8999 24.158ZM99.2392 28.7718L94.9917 30.0108L94.092 30.2732L91.4506 27.4583L89.9414 25.8499L95.0991 24.3699L99.2392 28.7718ZM119.912 71.983L114.904 73.6336L116.678 68.8744L121.698 67.2344L119.912 71.983ZM110.623 96.6806L105.683 98.3923L107.381 93.8326L109.921 92.9602L112.334 92.1316L110.623 96.6806ZM108.808 101.506L103.883 103.228L104.252 102.236L105.566 98.7064L107.103 98.174L110.505 96.9952L108.808 101.506ZM69.8105 119.419L71.4032 114.858L76.5961 113.044L74.9879 117.592L69.8105 119.419ZM63.9634 121.483L58.6915 123.342L60.2591 118.755L60.4467 118.69L65.543 116.909L63.9634 121.483ZM40.0892 111.163L41.5972 106.5L43.3668 108.462L45.7081 111.058L44.8941 113.541L44.1825 115.71L40.0892 111.163ZM14.5839 82.8308L15.9827 78.1034L18.9393 81.3812L20.0201 82.5793L19.7147 83.5964L18.6038 87.2962L14.5839 82.8308ZM19.2578 47.6507L20.7658 49.3051L23.3795 52.1726L22.8501 53.9641L21.9212 57.1073L17.817 52.596L19.2578 47.6507ZM54.36 18.2202L58.5172 22.6894L53.1081 24.1956L48.9439 19.7053L54.36 18.2202ZM86.4568 15.1785L90.5718 19.5554L85.4059 21.0157L81.2804 16.6194L86.4568 15.1785ZM121.815 66.9243L116.794 68.5647L117.056 67.8593L118.583 63.762L123.616 62.1356L121.815 66.9243ZM112.602 79.081L110.857 83.7614L105.833 85.4528L107.563 80.7599L107.841 80.6674L112.602 79.081ZM37.3892 101.448L38.889 96.7343L42.8226 101.086L43.0086 101.292L42.8774 101.698L41.4894 105.995L37.3892 101.448ZM60.3653 118.444L61.9442 113.818L65.5687 112.562L67.2453 111.982L65.6506 116.597L60.3653 118.444ZM33.1006 96.6954L34.5828 91.9692L36.0314 93.5721L38.6889 96.5128L37.1891 101.227L33.1006 96.6954ZM28.8249 91.9552L30.2895 87.2189L32.2893 89.4315L34.3821 91.7471L32.8999 96.4729L28.8249 91.9552ZM20.3089 82.5141L21.7365 77.7557L25.8058 82.2567L25.3907 83.6189L24.3588 87.0047L20.3089 82.5141ZM22.0385 57.6202L26.1515 62.144L24.6867 67.0256L20.5912 62.5122L22.0385 57.6202ZM26.7099 41.8175L27.8655 43.081L30.8821 46.3796L29.38 51.3884L25.2253 46.8386L26.7099 41.8175ZM41.7854 27.6168L47.2901 26.0824L51.4801 30.6095L50.6824 30.8353L45.9842 32.1652L41.7854 27.6168ZM64.3567 21.3314L68.5139 25.7935L63.8753 27.105L63.1635 27.3063L58.9957 22.8246L64.3567 21.3314ZM69.9496 19.7749L74.0972 24.2148L73.6419 24.3435L68.7934 25.7144L64.637 21.2533L69.9496 19.7749ZM75.4978 18.2297L79.634 22.6492L74.3768 24.1358L70.23 19.6968L75.4978 18.2297ZM116.48 68.667L111.413 70.3208L113.189 65.5028L118.27 63.863L116.48 68.667ZM110.741 84.0735L109.012 88.714L104.003 90.4171L105.718 85.7642L107.386 85.2028L110.741 84.0735ZM107.065 93.941L105.367 98.5018L100.384 100.228L102.071 95.6554L105.559 94.4582L107.065 93.941ZM45.9999 110.996L47.5387 106.304L50.5885 109.677L51.6834 110.888L51.1815 112.396L50.1253 115.57L45.9999 110.996ZM17.4786 73.0428L21.5343 77.532L20.64 80.5132L20.1069 82.2901L16.0686 77.8132L17.4786 73.0428ZM47.5699 26.0046L53.026 24.4869L57.2063 28.9917L51.759 30.5307L50.1393 28.7807L47.5699 26.0046ZM53.306 24.409L58.7155 22.9026L62.8843 27.3852L58.6335 28.588L57.4854 28.9129L54.7533 25.9687L53.306 24.409ZM98.1755 35.0034L92.9918 36.5391L90.8993 34.3036L88.8182 32.0802L94.0123 30.5657L98.1755 35.0034ZM120.169 58.4435L115.035 60.0843L110.798 55.5577L115.941 53.9383L120.169 58.4435ZM32.6884 41.2589L34.6387 43.385L36.8964 45.8463L35.3599 50.8899L31.1713 46.3131L32.6884 41.2589ZM110.987 70.732L109.224 75.5077L104.127 77.1887L105.434 73.605L105.874 72.399L110.164 71.0003L110.987 70.732ZM103.689 90.5239L98.6323 92.2422L99.9098 88.7422L100.336 87.5757L102.483 86.8529L105.404 85.8699L103.689 90.5239ZM30.3782 86.9319L31.8542 82.1544L35.967 86.696L34.4718 91.4611L30.3782 86.9319ZM26.354 62.3667L27.7801 63.9354L30.4806 66.906L30.3262 67.4136L28.9982 71.7774L24.8891 67.2487L26.354 62.3667ZM29.4961 51.8986L31.3979 53.9825L33.6615 56.4628L32.153 61.4184L28.0051 56.8665L29.4961 51.8986ZM51.6772 30.8226L55.8806 35.365L50.395 36.9403L48.9838 35.4126L46.181 32.3783L51.6772 30.8226ZM57.6829 29.1257L63.0822 27.5981L67.2626 32.0959L61.8739 33.6431L57.6829 29.1257ZM114.762 60.1713L109.581 61.8251L105.333 57.2764L110.524 55.6437L114.762 60.1713ZM56.3913 115.469L57.6027 111.878L57.933 110.899L57.9701 110.789L63.3354 108.948L61.7411 113.615L56.3913 115.469ZM51.777 110.606L47.6314 106.021L49.1831 101.288L50.3678 102.596L53.3464 105.885L53.2514 106.171L51.777 110.606ZM40.5851 91.4095L42.1129 86.6129L44.786 89.5596L46.2695 91.195L44.7241 95.9811L40.5851 91.4095ZM29.5826 51.6104L31.085 46.6012L32.5061 48.1541L35.2724 51.1769L33.749 56.1756L29.5826 51.6104ZM100.136 87.3701L95.0205 89.0917L96.0969 86.1109L96.7255 84.3701L98.7537 83.6942L101.855 82.6608L100.136 87.3701ZM91.4297 99.0336L92.0508 97.3143L93.1061 94.3936L98.205 92.6605L96.5163 97.2882L91.4297 99.0336ZM30.6826 67.1282L33.3083 70.0156L34.8227 71.681L33.3936 76.3048L33.3208 76.5405L29.2001 71.9999L30.6826 67.1282ZM67.7384 32.2283L73.0808 30.6942L77.2631 35.1814L76.7795 35.3225L71.9312 36.7369L70.2013 34.8768L67.7384 32.2283ZM58.0745 110.48L59.6184 105.906L59.6683 105.759L65.0507 103.929L63.4412 108.638L58.0745 110.48ZM38.9129 40.5062L44.4995 38.9028L48.7376 43.5033L43.1615 45.1298L43.064 45.0237L41.0412 42.8224L38.9129 40.5062ZM50.5914 37.1529L56.0774 35.5775L60.2923 40.1318L54.8169 41.7303L53.0761 39.8446L50.5914 37.1529ZM104.255 63.526L104.092 63.5782L104.083 63.5809L99.8234 59.0099L105.06 57.3624L109.309 61.912L104.255 63.526ZM105.675 72.1918L100.518 73.876L101.693 70.6223L102.268 69.031L107.439 67.361L105.675 72.1918ZM98.2478 79.4013L96.5256 84.1642L91.3513 85.889L93.0579 81.1121L98.2478 79.4013ZM35.0242 71.9026L39.1759 76.4691L38.5373 78.5039L37.6545 81.3165L33.5222 76.7624L35.0242 71.9026ZM56.3553 35.4977L61.7928 33.9354L65.9982 38.469L62.5519 39.4733L60.5695 40.051L58.7194 38.0521L56.3553 35.4977ZM77.4605 35.3932L81.6562 39.8959L76.3346 41.4728L72.1283 36.9489L77.4605 35.3932ZM102.068 68.8236L96.8465 70.5093L97.4629 68.7856L98.6002 65.6054L98.6122 65.6015L98.7336 65.5628L103.834 63.932L102.068 68.8236ZM46.5609 91.1318L48.1212 86.3061L52.3116 90.9152L51.9605 91.9868L50.7338 95.7305L46.5609 91.1318ZM41.5202 50.8899L42.7426 52.2236L45.7533 55.5081L44.1778 60.5277L39.9642 55.922L41.5202 50.8899ZM86.0623 44.6234L80.751 46.2217L76.6481 41.81L76.5312 41.6843L81.8532 40.1072L86.0623 44.6234ZM98.5389 65.3533L94.2674 60.7582L99.5504 59.0958L103.811 63.6678L98.5389 65.3533ZM37.8554 81.5379L39.3768 76.6901L43.542 81.2702L42.0031 86.1076L37.8554 81.5379ZM47.6169 49.9794L43.3568 45.3423L48.9331 43.7157L53.1827 48.3297L48.6994 49.6585L47.6169 49.9794ZM61.4852 100.378L62.4152 97.6234L63.0579 95.7197L63.082 95.6483L63.1074 95.5732L64.2596 95.1892L68.5204 93.7692L66.8844 98.5614L61.4852 100.378ZM52.6036 90.8526L54.1964 85.9956L57.4446 89.559L58.4225 90.6318L58.3778 90.766L56.8103 95.4764L52.6036 90.8526ZM39.4664 76.4047L41.0008 71.5139L45.1864 76.1072L43.6326 80.9859L39.4664 76.4047ZM42.6397 66.2946L46.8438 70.8997L46.5318 71.88L45.2768 75.8232L41.0903 71.2287L42.6397 66.2946ZM47.8117 50.1915L53.3779 48.5415L57.6427 53.1708L52.0871 54.842L52.0447 54.796L51.9916 54.7381L48.486 50.9249L47.8117 50.1915ZM54.736 42.0233L58.9758 46.6149L53.4585 48.2479L50.1595 44.666L49.2098 43.6349L54.736 42.0233ZM60.4886 40.3439L64.7171 44.9133L59.2519 46.5331L55.0129 41.9424L60.4886 40.3439ZM71.8508 37.0298L76.0581 41.5547L75.3935 41.7515L70.6881 43.1446L67.5834 39.7982L66.472 38.6003L71.8508 37.0298ZM85.0996 51.2782L89.3451 55.8453L84.004 57.4995L79.7496 52.9128L85.0996 51.2782ZM92.7474 81.2146L91.0403 85.9926L85.8169 87.7328L87.51 82.9424L87.8979 82.8144L92.7474 81.2146ZM61.2277 100.334L57.0093 95.6951L58.6216 90.8503L62.8592 95.5017L61.2277 100.334ZM44.2898 61.0327L44.5362 61.3019L48.5159 65.651L47.5673 68.6286L46.9342 70.6157L42.7292 66.0096L44.2898 61.0327ZM78.1541 94.7682L72.8514 96.5525L73.8012 93.8037L74.5023 91.775L78.5579 90.4233L79.819 90.0029L78.1541 94.7682ZM54.2889 85.7137L55.8966 80.8138L59.3079 84.5505L60.1411 85.4632L58.6796 89.8586L58.5159 90.3509L54.2889 85.7137ZM53.5198 63.9778L54.6622 65.224L53.0478 70.2215L48.8072 65.5866L50.4022 60.5769L53.5198 63.9778ZM82.0232 84.4796L83.7178 79.6304L89.0178 77.901L87.3092 82.7363L82.0232 84.4796ZM48.7168 65.8705L52.9565 70.5042L51.3553 75.4572L47.1348 70.8355L48.7168 65.8705ZM76.3811 86.3403L77.3186 83.6282L78.0622 81.4774L80.0826 80.8176L83.4093 79.7312L81.7143 84.5816L76.3811 86.3403ZM55.7893 80.3132L51.5554 75.6763L53.1568 70.7232L57.4081 75.3706L56.279 78.818L55.7893 80.3132ZM55.9934 66.6759L59.1361 70.1035L57.5005 75.0891L53.2481 70.4406L54.8626 65.4426L55.9934 66.6759ZM56.7625 59.9306L62.3082 58.238L66.5998 62.896L64.1017 63.6702L61.063 64.6119L57.8349 61.098L56.7625 59.9306ZM61.0772 65.009L65.3863 69.697L63.7164 74.7155L59.4283 70.04L61.0772 65.009ZM87.0593 69.2895L85.334 74.2254L79.9683 75.9585L81.6796 71.0085L81.8116 70.9663L83.0294 70.5771L87.0593 69.2895ZM72.4609 83.0332L74.1419 78.1114L79.5554 76.3635L77.8605 81.2713L72.4609 83.0332ZM59.336 70.3216L62.8929 74.1997L63.623 74.9959L61.968 79.9713L57.7003 75.3075L59.336 70.3216ZM65.5859 69.9141L69.9068 74.6172L68.2173 79.6239L63.9158 74.933L65.5859 69.9141ZM79.661 76.0577L74.2462 77.8059L75.9423 72.8405L81.3728 71.1064L79.661 76.0577ZM68.4739 79.6702L69.0692 77.906L70.1547 74.6895L75.6362 72.9382L73.9398 77.905L68.4739 79.6702ZM75.6091 72.6755L70.0926 74.4377L66.3559 70.3705L65.7654 69.7278L71.2906 67.9886L75.6091 72.6755ZM62.1674 80.1892L63.8226 75.2135L66.3952 78.019L68.1231 79.9032L68.0869 80.0103L68.0655 80.0739L66.4485 84.8667L62.1674 80.1892ZM67.8462 81.5308L68.3365 80.0775L68.371 79.9752L73.8355 78.2104L72.1541 83.1333L66.7054 84.9123L67.8462 81.5308ZM76.0463 72.5359L75.8804 72.5889L71.9814 68.3572L71.5628 67.9029L77.0396 66.1805L81.3465 70.8433L76.0463 72.5359ZM76.8456 65.9703L71.3692 67.6928L67.067 63.0221L72.5539 61.3211L76.8456 65.9703ZM71.097 67.7784L70.6064 67.9329L65.5721 69.5174L65.4796 69.4167L61.2566 64.8226L66.7939 63.1067L71.097 67.7784ZM72.3596 61.1106L66.8729 62.8114L64.1795 59.8879L62.5823 58.1543L68.0795 56.4747L72.3596 61.1106ZM55.989 80.532L57.608 75.5891L61.8747 80.2519L60.5597 84.205L60.2345 85.1825L55.989 80.532ZM60.4338 85.4008L62.074 80.4697L66.3542 85.1462L64.6928 90.0649L60.4338 85.4008ZM83.5167 79.424L78.1681 81.1708L79.8626 76.2644L81.1611 75.845L85.2269 74.5318L83.5167 79.424ZM85.642 74.126L87.2737 69.4579L87.3669 69.1913L92.6993 67.4893L90.9604 72.4098L85.642 74.126ZM81.7589 70.7116L81.6179 70.7567L80.91 69.9903L77.3119 66.0947L82.7402 64.3857L87.0338 69.0262L81.7589 70.7116ZM82.5458 64.1757L77.118 65.8847L74.8121 63.3867L72.8273 61.2364L78.2639 59.5503L82.5458 64.1757ZM70.6905 88.2175L71.6293 85.4683L72.3563 83.3394L77.7545 81.5778L76.073 86.442L70.6905 88.2175ZM78.0692 59.34L72.6329 61.0258L69.3843 57.5073L68.3536 56.391L73.8005 54.7282L78.0692 59.34ZM68.1589 56.18L64.8794 52.6286L63.8931 51.5605L69.352 49.9192L73.6054 54.5174L68.1589 56.18ZM67.8847 56.2639L62.3879 57.9432L58.1124 53.2996L63.618 51.6432L67.8847 56.2639ZM64.9499 90.1097L66.5531 85.3635L66.6022 85.2181L72.0496 83.4395L70.3833 88.3189L64.9499 90.1097ZM89.1265 77.5935L83.8251 79.3234L83.996 78.8346L85.5349 74.4323L90.8519 72.7166L89.1265 77.5935ZM92.6746 67.2257L87.4737 68.8857L87.3139 68.9367L87.3054 68.9394L86.4202 67.9828L83.0127 64.2999L88.3907 62.6073L92.6746 67.2257ZM88.1959 62.3975L82.8184 64.0899L82.5474 63.7971L78.5373 59.4656L83.9255 57.7946L88.1959 62.3975ZM69.1565 49.7079L63.6979 51.3492L59.4475 46.745L64.913 45.125L69.1565 49.7079ZM57.8375 53.3823L62.1138 58.0269L57.996 59.2838L56.5685 59.7195L56.5173 59.6637L56.474 59.6165L52.2815 55.0536L57.8375 53.3823ZM56.5833 60.1172L60.79 64.6965L60.8534 64.7656L60.8771 64.7914L59.2284 69.8219L54.9539 65.1601L56.5833 60.1172ZM58.7151 90.5694L60.3404 85.6815L64.5984 90.3444L64.5965 90.35L64.54 90.5172L62.9537 95.2219L58.7151 90.5694ZM74.6088 91.4668L76.2748 86.6477L80.0442 85.4047L81.6067 84.8894L79.9268 89.6945L74.6088 91.4668ZM79.4751 52.9967L83.7304 57.5843L80.7345 58.5135L78.3426 59.2552L74.6135 55.2264L74.0749 54.6445L79.4751 52.9967ZM59.1714 46.8267L63.4229 51.4319L62.9614 51.5707L57.9177 53.088L53.6537 48.4599L59.1714 46.8267ZM64.0336 92.8266L64.8464 90.4162L68.8198 89.1065L70.2784 88.6258L68.6255 93.4615L63.2109 95.2662L64.0336 92.8266ZM70.5857 88.5245L75.9667 86.7493L74.3003 91.5696L68.9332 93.359L70.5857 88.5245ZM89.4359 77.4926L90.6606 74.0308L91.1608 72.6169L96.427 70.9165L94.6897 75.7781L89.4359 77.4926ZM96.5368 70.6093L91.2693 72.3101L93.0077 67.3909L98.2908 65.7041L96.5368 70.6093ZM93.7996 60.6344L88.4687 62.3117L86.1922 59.8581L84.1991 57.7098L89.5406 56.0556L93.7996 60.6344ZM74.8383 47.9988L69.4317 49.6251L67.7596 47.8192L65.1892 45.0431L70.608 43.4381L74.8383 47.9988ZM52.1023 55.2403L56.3827 59.8989L55.5239 62.557L54.7535 64.9414L50.4925 60.2933L52.1023 55.2403ZM80.2361 89.5914L81.9156 84.7876L84.4398 83.955L87.2002 83.0446L85.5068 87.8361L80.2361 89.5914ZM92.8577 80.9059L87.6189 82.6341L89.327 77.8001L94.5797 76.086L92.8577 80.9059ZM92.9463 67.1389L88.6633 62.5216L93.9946 60.8441L98.2671 65.4402L92.9463 67.1389ZM73.8798 54.4337L69.6273 49.8364L75.0341 48.21L79.2797 52.7859L73.8798 54.4337ZM66.1948 38.6811L70.4117 43.2265L64.9932 44.8314L60.7657 40.2631L66.1948 38.6811ZM45.9547 55.7278L50.2012 60.3578L48.6063 65.3672L44.3791 60.7477L45.9547 55.7278ZM47.0444 71.1194L47.4299 71.5415L51.2638 75.7399L49.689 80.6157L49.6775 80.6514L45.4775 76.0434L47.0444 71.1194ZM49.8776 80.871L51.4641 75.9593L55.6969 80.5951L54.0893 85.4947L49.8776 80.871ZM67.1924 98.4577L68.8281 93.6666L71.9785 92.6164L74.1939 91.8778L72.5425 96.6564L67.1924 98.4577ZM80.4753 46.3045L75.1137 47.916L74.0944 46.8171L70.8844 43.3563L76.2547 41.7661L80.4753 46.3045ZM78.4638 94.664L80.1282 89.8999L83.578 88.751L85.3976 88.1451L83.7174 92.8949L78.4638 94.664ZM94.0725 60.5485L89.8144 55.9707L95.1075 54.3296L99.355 58.8861L94.0725 60.5485ZM84.9037 51.0676L80.3444 52.4607L79.5542 52.7022L77.6487 50.6483L75.3096 48.1271L80.6716 46.5156L84.9037 51.0676ZM47.6326 50.3781L51.9013 55.0215L50.2916 60.0741L46.044 55.443L47.6326 50.3781ZM43.9177 60.626L44.0884 60.8126L42.528 65.7892L38.3346 61.1969L39.8757 56.208L43.9177 60.626ZM40.685 64.1539L42.4385 66.0743L41.9301 67.6935L40.8893 71.0079L36.7162 66.4271L38.2461 61.483L40.685 64.1539ZM45.387 76.3274L45.9705 76.9675L49.586 80.9345L48.4216 84.5375L48.0127 85.8029L43.833 81.2063L45.387 76.3274ZM49.7862 81.1541L50.7181 82.1771L53.9968 85.7766L52.4041 90.6332L48.2127 86.0229L49.7862 81.1541ZM56.9158 95.9762L61.1332 100.614L61.0742 100.789L59.5146 105.408L55.3166 100.78L56.9158 95.9762ZM59.7724 105.45L61.3709 100.716L61.3812 100.686L64.5829 99.6086L66.7792 98.8697L65.1564 103.62L59.7724 105.45ZM71.1088 101.597L72.1274 98.6482L72.7446 96.8613L78.0459 95.0775L76.3945 99.7991L71.1088 101.597ZM84.028 92.7904L85.7077 88.0418L90.9297 86.3021L89.2362 91.0383L84.028 92.7904ZM94.9998 75.6768L96.7366 70.8165L101.957 69.1312L100.207 73.9775L94.9998 75.6768ZM90.0565 55.6249L89.6189 55.7605L85.3742 51.1943L90.6776 49.5746L94.9117 54.1195L90.0565 55.6249ZM36.6277 66.7134L39.5207 69.8891L40.7998 71.2931L39.2654 76.1837L35.1127 71.6161L36.6277 66.7134ZM50.9332 95.9503L52.5112 91.1346L56.7167 95.7573L55.9172 98.159L55.1176 100.561L50.9332 95.9503ZM65.4648 103.515L67.0871 98.766L72.4358 96.9653L70.7995 101.702L65.4648 103.515ZM76.7046 99.6937L76.8719 99.2153L78.3557 94.9733L82.0895 93.7159L83.608 93.2046L81.9448 97.9144L76.7046 99.6937ZM87.7585 95.9371L88.8289 92.9436L89.4367 91.2437L94.5961 89.5074L92.9059 94.1884L87.7585 95.9371ZM94.7083 89.1967L89.5476 90.9335L91.2407 86.1985L96.4137 84.474L94.7083 89.1967ZM90.4814 49.364L85.1784 50.9836L84.7005 50.4697L80.9472 46.4327L86.2589 44.8343L90.4814 49.364ZM47.3413 50.0611L47.4311 50.1589L46.3454 53.6204L45.8426 55.2234L41.6086 50.6042L43.1777 45.5291L47.3413 50.0611ZM33.4335 77.049L36.6734 80.6195L37.5649 81.6021L37.5469 81.6594L36.0566 86.4102L31.9428 81.8677L33.4335 77.049ZM93.1682 80.8034L94.8898 75.9848L100.095 74.2859L98.3596 79.0922L93.1682 80.8034ZM99.6279 58.8002L95.3813 54.2446L100.628 52.6184L104.864 57.1528L99.6279 58.8002ZM86.338 44.5405L82.7927 40.7367L82.1298 40.0254L87.407 38.4634L91.6046 42.9571L86.338 44.5405ZM81.9328 39.8139L79.2389 36.923L77.738 35.3123L83.0236 33.7717L87.2095 38.252L81.9328 39.8139ZM71.6538 36.818L66.2754 38.3882L62.071 33.8556L67.46 32.3082L71.6538 36.818ZM38.9456 55.1913L39.6739 55.9874L38.1329 60.9759L33.9512 56.3971L35.4747 51.398L38.9456 55.1913ZM33.8637 56.6843L37.2307 60.371L38.0444 61.262L36.9338 64.8514L36.5147 66.2058L32.3551 61.6402L33.8637 56.6843ZM36.2575 86.6319L37.7658 81.8235L41.9125 86.3921L41.4935 87.7077L40.3848 91.1883L36.2575 86.6319ZM42.2035 86.3284L43.7425 81.4908L45.3334 83.2403L47.9212 86.0861L46.361 90.9115L42.2035 86.3284ZM55.223 101.061L59.42 105.688L57.8164 110.438L53.6387 105.824L55.223 101.061ZM70.8817 102.254L71.0019 101.907L76.2861 100.109L74.6496 104.791L69.3793 106.601L70.8817 102.254ZM82.2557 97.8087L83.9185 93.1001L89.1252 91.3485L87.4467 96.0431L82.2557 97.8087ZM87.6474 96.248L89.7038 95.5494L92.7935 94.4998L91.1166 99.1411L85.9844 100.902L87.6474 96.248ZM100.432 52.4085L95.1856 54.0346L90.9524 49.4906L96.2092 47.8858L100.432 52.4085ZM91.8805 42.8742L89.828 40.6769L87.6838 38.3814L92.9125 36.8324L97.0986 41.3041L91.8805 42.8742ZM50.3135 37.2327L54.54 41.811L49.0143 43.4226L44.7773 38.8231L50.3135 37.2327ZM41.3183 50.6697L39.7624 55.7014L35.5622 51.111L37.0987 46.067L41.3183 50.6697ZM32.2675 61.9276L36.0172 66.0432L36.4261 66.4921L34.9112 71.3945L30.7702 66.8406L32.2675 61.9276ZM46.4694 91.4153L49.3231 94.5602L50.6412 96.0129L50.237 97.2458L49.0764 100.785L44.9239 96.2017L46.4694 91.4153ZM49.2757 101.005L50.8406 96.2327L55.0241 100.842L53.4399 105.604L49.2757 101.005ZM63.9958 107.813L65.3593 103.824L70.6925 102.012L69.0696 106.707L63.7501 108.532L63.9958 107.813ZM74.9602 104.684L76.5962 100.004L80.5532 98.6601L81.835 98.2249L80.1851 102.891L74.9602 104.684ZM98.3187 92.3488L93.2186 94.0822L94.9084 89.4023L98.5363 88.1812L100.022 87.6811L98.3187 92.3488ZM98.671 78.9894L99.4639 76.7937L100.406 74.1844L105.562 72.5007L103.815 77.2916L98.671 78.9894ZM105.987 72.0901L107.751 67.2604L110.038 66.5211L112.877 65.6037L111.101 70.4229L105.987 72.0901ZM107.552 67.0528L102.379 68.7233L103.964 64.3329L104.144 63.8329L105.834 63.2934L109.331 62.1764L107.552 67.0528ZM105.905 50.7106L100.706 52.3235L96.4841 47.8019L101.692 46.2119L105.905 50.7106ZM90.982 49.2112L90.7563 49.2801L87.5741 45.8665L86.5347 44.7515L91.8016 43.168L96.0126 47.6753L90.982 49.2112ZM78.6532 29.0931L82.8258 33.5599L77.5406 35.1005L73.3593 30.6141L78.6532 29.0931ZM61.5958 33.723L56.1586 35.2851L51.9561 30.7437L57.4038 29.2046L61.5958 33.723ZM38.734 40.6933L42.9757 45.3093L41.4066 50.384L37.1861 45.7801L38.734 40.6933ZM29.1124 72.2875L32.9374 76.5022L33.2322 76.827L31.7415 81.6454L27.6411 77.1164L29.1124 72.2875ZM80.4965 102.784L82.146 98.1193L86.4523 96.6545L87.3356 96.354L85.6722 101.009L80.4965 102.784ZM96.8375 84.0602L98.5592 79.2987L103.702 77.6013L101.968 82.3504L96.8375 84.0602ZM110.328 55.4343L105.137 57.0668L100.902 52.5335L106.102 50.9204L110.328 55.4343ZM92.7148 36.6211L87.4864 38.17L86.3569 36.9612L83.3013 33.6906L88.5403 32.1613L92.7148 36.6211ZM88.3422 31.9496L83.1035 33.4789L80.852 31.0687L78.9319 29.013L84.181 27.5049L88.3422 31.9496ZM83.9824 27.293L78.7337 28.8008L77.1367 27.091L74.5754 24.3484L79.8329 22.8617L83.9824 27.293ZM44.3035 38.6899L38.7173 40.2934L38.6186 40.186L37.2964 38.7467L34.4839 35.6851L40.079 34.103L44.3035 38.6899ZM36.1678 86.9177L40.2941 91.4729L38.7796 96.228L34.6725 91.6832L36.1678 86.9177ZM73.2306 109.636L74.5343 105.903L74.8516 104.995L79.7258 103.322L80.0751 103.202L78.4384 107.831L73.2306 109.636ZM89.6555 103.946L91.3169 99.3458L95.5821 97.8822L96.4022 97.6008L94.727 102.189L89.6555 103.946ZM96.2876 47.5914L94.8304 46.0317L92.0775 43.085L97.2959 41.5148L101.496 46.0016L96.2876 47.5914ZM74.2958 24.4275L78.4551 28.8809L77.6066 29.1247L73.1615 30.4019L70.2959 27.3268L68.9916 25.9271L74.2958 24.4275ZM68.7122 26.0062L72.8829 30.4818L67.5409 32.0159L63.3613 27.5191L68.7122 26.0062ZM45.9022 32.4572L50.1171 37.0201L44.5812 38.6102L40.3575 34.0242L45.9022 32.4572ZM38.4399 40.373L38.5314 40.4728L37.5631 43.6552L36.9836 45.5595L32.7749 40.971L34.305 35.8722L38.4399 40.373ZM27.9186 57.1549L30.3171 59.7871L32.0655 61.7059L30.5682 66.6185L26.4406 62.0781L27.9186 57.1549ZM28.9106 72.0651L28.615 73.0352L27.4394 76.8935L23.3506 72.3781L24.8024 67.5374L28.9106 72.0651ZM23.2639 72.6671L26.8476 76.6248L27.3516 77.1815L27.3394 77.2217L25.8935 81.9687L21.8233 77.4666L23.2639 72.6671ZM26.0952 82.1918L27.5534 77.4043L31.6528 81.9322L30.8053 84.6756L30.177 86.7092L26.0952 82.1918ZM43.3 101.229L44.8323 96.4852L48.9838 101.068L48.3998 102.849L47.4321 105.801L43.3 101.229ZM53.5451 106.105L57.7218 110.718L57.6621 110.895L56.1331 115.427L51.9757 110.826L53.5451 106.105ZM62.0503 113.508L63.6442 108.842L68.9623 107.017L67.3527 111.671L62.0503 113.508ZM68.4581 109.264L69.2721 106.911L74.5411 105.101L72.9197 109.743L67.6628 111.563L68.4581 109.264ZM78.7503 107.723L79.9408 104.356L80.3864 103.096L83.5043 102.026L85.5609 101.32L83.9125 105.935L78.7503 107.723ZM84.2251 105.827L84.3989 105.341L85.8731 101.213L91.0038 99.4531L89.342 104.055L84.2251 105.827ZM95.0414 102.08L96.7161 97.4931L97.2954 97.2943L101.756 95.7634L100.069 100.338L95.0414 102.08ZM101.871 95.4505L96.8302 97.1805L98.5184 92.554L103.574 90.8361L101.871 95.4505ZM105.519 85.5583L100.449 87.2647L100.885 86.0701L102.167 82.5565L105.092 81.5827L107.25 80.8642L105.519 85.5583ZM112.991 65.2951L107.863 66.9522L109.642 62.0772L114.784 60.4359L112.991 65.2951ZM115.744 53.729L112.112 54.8726L110.602 55.3484L107.825 52.3827L106.376 50.8354L111.531 49.2373L115.744 53.729ZM111.334 49.0275L106.18 50.6256L104.23 48.5435L101.968 46.1279L107.133 44.5513L111.334 49.0275ZM102.55 39.6658L97.3747 41.221L93.1895 36.7502L98.3734 35.2144L102.55 39.6658ZM93.8138 30.3543L93.7277 30.3794L88.6201 31.8686L84.4598 27.4249L89.6623 25.9299L93.8138 30.3543ZM38.9797 96.4494L40.4944 91.694L44.6325 96.2646L43.1003 101.008L38.9797 96.4494ZM56.2367 115.927L56.2867 115.779L61.635 113.925L60.0557 118.552L54.7212 120.418L56.2367 115.927ZM102.281 82.2463L104.014 77.4983L109.11 75.8178L107.364 80.5535L102.281 82.2463ZM106.936 44.341L101.771 45.9177L100.841 44.9246L97.572 41.4318L102.748 39.8763L106.936 44.341ZM89.4635 25.718L86.0187 26.7079L84.2613 27.2129L80.7485 23.4617L80.1126 22.7826L85.3254 21.3072L89.4635 25.718ZM85.1261 21.0949L84.3023 21.3281L79.9137 22.5701L76.7321 19.1707L75.7784 18.1516L80.9996 16.6976L85.1261 21.0949ZM41.5058 27.6947L45.7054 32.244L43.1767 32.9587L40.1612 33.811L35.9509 29.2404L41.5058 27.6947ZM29.8873 31.0659L34.102 35.6512L33.5871 37.3672L32.5719 40.7498L28.3766 36.1751L29.8873 31.0659ZM25.1397 47.1278L26.5655 48.6891L29.2934 51.6766L27.8026 56.6442L23.6682 52.1059L25.1397 47.1278ZM27.716 56.9326L26.2804 61.7147L26.2382 61.8554L22.1241 57.3305L23.5826 52.3955L27.716 56.9326ZM20.5055 62.802L24.6001 67.3144L24.2562 68.461L23.1483 72.1548L19.0712 67.6528L20.5055 62.802ZM26.0074 82.4799L29.4136 86.2495L30.0883 86.9963L28.6238 91.7323L24.5604 87.2281L26.0074 82.4799ZM41.6889 106.217L43.2083 101.512L45.9144 104.507L47.3395 106.083L45.8008 110.775L41.6889 106.217ZM50.3239 115.79L51.8821 111.108L52.5561 111.854L56.0384 115.708L54.4627 120.378L50.3239 115.79ZM67.5553 111.874L68.315 111.611L72.8108 110.055L71.2009 114.655L65.961 116.488L67.5553 111.874ZM71.5123 114.546L72.1238 112.798L73.1217 109.947L78.3282 108.143L76.7066 112.731L71.5123 114.546ZM84.1135 106.139L88.1788 104.731L89.229 104.367L87.5805 108.929L82.479 110.713L84.1135 106.139ZM89.5425 104.259L94.6126 102.502L92.9524 107.05L87.8945 108.819L89.5425 104.259ZM109.537 75.4045L109.914 74.3846L111.299 70.6301L116.365 68.9766L114.59 73.737L109.537 75.4045ZM118.385 63.5541L113.303 65.1943L113.331 65.1181L115.095 60.3364L115.189 60.3063L115.23 60.2933L120.189 58.7084L118.385 63.5541ZM35.6715 29.3182L39.8826 33.8898L34.2879 35.4718L34.1884 35.3635L30.0661 30.8788L35.6715 29.3182ZM28.2912 36.4641L29.961 38.2848L32.4855 41.0377L30.9686 46.0915L26.7954 41.5283L28.2912 36.4641ZM18.9856 67.943L23.0616 72.4437L21.6211 77.2429L17.5644 72.7526L18.9856 67.943ZM77.0188 112.622L78.64 108.035L82.7149 106.624L83.8009 106.248L82.1659 110.823L77.0188 112.622ZM93.2672 106.94L94.927 102.393L99.429 100.833L99.9534 100.651L98.2797 105.188L93.2672 106.94ZM98.5954 105.077L98.6926 104.814L100.269 100.542L100.554 100.443L105.25 98.8159L103.566 103.339L98.5954 105.077ZM107.182 93.6275L102.186 95.3424L102.461 94.5988L103.888 90.7293L108.896 89.0268L107.182 93.6275ZM112.717 78.7698L107.678 80.449L109.423 75.7146L114.475 74.0475L112.717 78.7698ZM123.733 61.8262L118.698 63.4531L120.37 58.9631L120.502 58.6086L125.551 56.996L123.733 61.8262ZM120.617 58.3005L120.441 58.3565L116.951 54.6376L116.214 53.8523L121.314 52.2477L125.531 56.7307L120.617 58.3005ZM121.117 52.0385L116.018 53.643L111.805 49.1524L116.914 47.5691L121.117 52.0385ZM111.609 48.9425L108.157 45.2653L107.408 44.4672L112.527 42.9036L116.717 47.3594L111.609 48.9425ZM107.956 44.0294L107.211 44.257L103.86 40.6849L103.024 39.7934L108.151 38.2511L112.329 42.6935L107.956 44.0294ZM107.953 38.0406L106.751 38.4023L102.826 39.5827L98.6506 35.1324L103.788 33.6115L107.953 38.0406ZM98.4525 34.9213L97.6858 34.1041L94.2904 30.4846L99.438 28.9832L103.59 33.4005L98.4525 34.9213ZM71.1739 13.6126L75.2984 18.0167L70.031 19.4838L66.7017 15.9193L65.8976 15.0584L71.1739 13.6126ZM65.6162 15.1355L69.7505 19.562L69.3766 19.666L64.4383 21.0401L60.2935 16.5941L65.6162 15.1355ZM60.0122 16.6713L64.158 21.1182L64.088 21.1377L58.7973 22.6113L54.641 18.1432L60.0122 16.6713ZM42.9159 21.3572L47.0925 25.8691L41.5882 27.4033L37.4011 22.8684L42.9159 21.3572ZM37.1206 22.9452L41.3086 27.4812L35.7541 29.0267L34.8222 28.0149L31.5572 24.4697L37.1206 22.9452ZM29.5905 30.7429L29.6838 30.8446L28.1732 35.9533L23.9913 31.392L25.4826 26.2728L29.5905 30.7429ZM28.0878 36.2423L27.3478 38.7476L26.5921 41.3061L22.4305 36.7584L23.9069 31.6821L28.0878 36.2423ZM17.7323 52.8867L21.8355 57.397L20.3884 62.2886L16.3044 57.7907L17.7323 52.8867ZM16.2197 58.0817L20.3026 62.5785L18.8685 67.429L14.805 62.9426L16.2197 58.0817ZM14.7202 63.2337L18.6276 67.5477L18.7828 67.719L17.9239 70.6257L17.3617 72.5283L13.3166 68.0535L14.7202 63.2337ZM13.2318 68.3448L15.2588 70.5871L17.2759 72.8186L15.866 77.5885L11.8394 73.1252L13.2318 68.3448ZM18.8058 87.5205L20.2221 82.8034L24.271 87.2928L22.8372 91.9995L18.8058 87.5205ZM27.2845 96.9375L28.7362 92.2423L32.8102 96.759L31.3393 101.444L27.2845 96.9375ZM31.5398 101.666L33.0108 96.9814L35.0912 99.2871L37.0984 101.512L36.0183 104.904L35.6098 106.186L31.5398 101.666ZM48.6869 120.713L50.2302 116.072L54.3681 120.658L52.8054 125.287L48.6869 120.713ZM53.0641 125.327L54.5662 120.878L54.6129 120.739L54.6164 120.729L59.9493 118.864L58.3815 123.451L53.0641 125.327ZM75.3005 117.482L76.5758 113.875L76.9083 112.935L78.3526 112.43L82.054 111.136L80.4341 115.671L75.3005 117.482ZM86.1482 113.653L87.7812 109.133L92.8378 107.364L91.1909 111.874L86.1482 113.653ZM96.8213 109.887L97.1812 108.911L98.4794 105.392L100.499 104.686L103.449 103.654L101.777 108.138L96.8213 109.887ZM102.094 108.026L103.765 103.543L108.689 101.822L107.007 106.293L102.094 108.026ZM112.452 91.8176L107.498 93.5191L108.666 90.3817L109.211 88.9196L114.177 87.2304L112.452 91.8176ZM114.295 86.9173L109.328 88.6067L111.056 83.9676L112.674 83.4225L116.036 82.2902L114.295 86.9173ZM116.153 81.9777L111.172 83.6554L112.716 79.5139L112.916 78.9762L117.909 77.3126L116.153 81.9777ZM118.026 77.0009L113.032 78.6651L113.285 77.9851L114.789 73.9439L119.795 72.2939L118.026 77.0009Z" fill="#F3F3EF"/>
</svg>
