<svg width="136" height="136" viewBox="0 0 136 136" fill="none" xmlns="http://www.w3.org/2000/svg">
<g clip-path="url(#clip0_12176_85754)">
<path d="M124.737 82.5752L124.732 82.5137L124.744 82.2039L124.706 82.2361L124.274 77.4776L124.281 77.4709L124.267 77.3987L124.243 77.1378L124.238 77.1424L123.144 67.4435L123.17 67.4548L123.117 67.1982L123.11 67.1252L123.101 67.1211L122.268 63.0809L122.297 63.0904L122.218 62.8385L122.204 62.7675L122.195 62.7647L120.888 58.5642L120.914 58.5697L120.816 58.332L120.794 58.2602L120.455 57.1708L120.481 57.517L119.016 53.9496L119.038 53.9515L118.928 53.7344L118.898 53.6613L118.897 53.6612L118.642 53.0388L118.646 53.1781L116.685 49.305L116.703 49.3039L116.587 49.1121L116.548 49.0357L116.547 49.0357L116.355 48.6547L116.352 48.7221L113.925 44.6962L113.939 44.6929L113.855 44.5727L113.824 44.5282L113.775 44.447L113.639 44.2216L113.633 44.2556L110.78 40.1852L110.791 40.1804L110.682 40.0446L110.539 39.8401L110.531 39.8577L109.808 38.9593L107.292 35.8339L107.3 35.8281L107.275 35.801L107.198 35.7178L107.092 35.5859L107.085 35.5947L105.194 33.5377L103.537 31.734L103.546 31.7278L103.517 31.6997L103.424 31.6112L103.323 31.5012L103.316 31.5086L99.5813 27.9414L99.5992 27.9357L99.4091 27.7769L99.2826 27.6561L99.2769 27.6665L98.5678 27.0742L95.4628 24.4804L95.4968 24.4769L95.285 24.3234L95.2075 24.2671L95.0542 24.1391L95.0498 24.1529L91.8294 21.8196L91.2436 21.3952L91.3104 21.3971L90.9491 21.174L90.8763 21.1291L90.846 21.1071L90.6954 20.998L90.6928 21.0158L86.9998 18.7357L87.1375 18.7511L86.4727 18.4103L86.2657 18.2825L86.2657 18.3043L82.8356 16.5464L83.1739 16.6005L82.0543 16.1461L81.8268 16.0295L81.8302 16.0551L78.048 14.5197L77.7562 14.4013L77.7541 14.3927L77.6843 14.3721L77.4406 14.2731L77.4477 14.3023L74.3889 13.4001L73.4983 13.1374L73.4949 13.1278L73.4219 13.1149L73.1721 13.0412L73.1814 13.0677L63.6388 11.1898L63.6433 11.1853L63.3855 11.1399L63.3156 11.1193L63.3086 11.1262L58.6109 10.2992L58.6459 10.2647L58.3379 10.2512L58.2766 10.2404L58.2688 10.2481L53.8842 10.0552L53.94 10L53.5671 10.0399L53.5579 10.0409L53.5078 10.0387L53.4992 10.0472L52.4063 10.1641L49.5201 10.4729L49.6243 10.3694L49.1349 10.5108L49.1164 10.5161L49.0804 10.52L48.1162 10.6231L48.5168 10.6893L45.6098 11.5291L45.8634 11.2768L45.0791 11.6824L44.4688 11.8587L44.6807 11.8884L41.5588 13.5028L41.5423 13.501L41.5084 13.5289L41.1142 13.7328L41.2438 13.747L38.5201 15.9908L38.5019 15.9894L38.4658 16.0354L38.2108 16.2455L38.2533 16.2487L35.6359 18.8621L31.3729 23.1172L28.6065 25.8786L24.3699 30.106L21.5703 32.9002L17.6733 36.7885L17.6693 36.7348L17.4584 37.0019L17.4148 37.038L17.4161 37.0554L15.1844 39.8821L15.17 39.7545L14.9678 40.1563L14.9412 40.1901L14.943 40.2058L13.2936 43.4837L13.2646 43.2869L13.098 43.8632L13.0917 43.8851L13.0776 43.913L13.0779 43.915L12.7141 44.6356L12.9396 44.4112L12.0294 47.5587L11.97 47.2234L11.8613 48.1401L11.8555 48.1602L11.7164 48.6412L11.8133 48.5451L11.6117 50.245L11.3086 52.7996L11.3005 52.8076L11.3017 52.8575L11.2563 53.2401L11.3099 53.1872L11.4258 57.9027L11.4183 57.9102L11.4275 57.972L11.4352 58.2816L11.4689 58.2483L12.23 63.3306L12.223 63.3375L12.2417 63.4083L12.2805 63.6679L12.2971 63.6517L14.0201 71.2424L14.3021 72.4853L14.2928 72.4823L14.3546 72.7174L14.3663 72.7955L14.3759 72.7985L15.4941 77.054L15.4688 77.0491L15.5517 77.2735L15.5722 77.3513L15.5811 77.353L16.5637 80.0119L17.2032 81.7425L17.1815 81.7411L17.2793 81.9484L17.3083 82.0267L17.3165 82.0273L19.4187 86.4812L19.4003 86.4827L19.5064 86.667L19.5449 86.7486L19.5455 86.7485L19.8933 87.4868L19.8656 87.2911L22.1119 91.1941L22.0972 91.1979L22.2059 91.3574L22.2553 91.4433L22.2561 91.4431L22.478 91.8302L22.4756 91.7533L23.578 93.3717L25.2384 95.8093L25.227 95.8147L25.3327 95.9478L25.5193 96.2217L25.5251 96.19L25.7138 96.4276L28.7508 100.251L28.7422 100.258L28.8429 100.367L28.96 100.515L28.9675 100.503L32.5572 104.409L32.5451 104.416L32.5875 104.456L32.681 104.544L32.7817 104.653L32.7887 104.646L36.5614 108.205L36.5298 108.208L36.6978 108.344L36.7851 108.416L36.8273 108.455L36.9087 108.532L36.915 108.521L40.7224 111.618L40.6465 111.61L41.0926 111.92L41.2414 112.041L41.2464 112.026L44.9479 114.596L44.7577 114.553L45.5359 115.004L45.7103 115.125L45.7133 115.107L47.6401 116.224L49.9706 117.575L49.9704 117.584L50.0462 117.619L50.2437 117.734L50.2442 117.712L50.2716 117.725L54.4776 119.696L54.4786 119.705L54.5547 119.732L54.7702 119.833L54.7675 119.807L58.9091 121.278L58.9113 121.288L58.9871 121.306L59.2163 121.388L59.2141 121.378L67.8207 124.096L67.8036 124.111L68.058 124.171L68.1271 124.196L68.1345 124.189L73.1305 125.372L73.0949 125.403L73.4013 125.436L73.4621 125.45L73.4701 125.443L74.0198 125.503L78.155 125.951L78.0985 126L78.4692 125.987L78.4813 125.987L78.5311 125.992L78.5398 125.985L80.6543 125.91L82.8163 125.834L82.7135 125.923L83.2014 125.824L83.2218 125.82L83.2587 125.819L84.1467 125.788L83.816 125.7L87.0238 125.053L86.7843 125.258L87.528 124.957L87.5569 124.946L88.1685 124.822L87.974 124.777L89.3441 124.223L91.3723 123.402L91.3877 123.405L91.4235 123.381L91.8411 123.212L91.7149 123.187L94.7108 121.195L94.728 121.197L94.7673 121.157L95.0515 120.968L94.9972 120.96L102.19 114.811L109.708 108.383L117.098 102.067L117.097 102.109L117.327 101.873L117.376 101.84L117.376 101.822L119.837 99.2878L119.84 99.4175L120.075 99.0427L120.105 99.0111L120.105 98.9944L121.971 96.0119L121.984 96.2251L122.201 95.653L122.209 95.6327L122.225 95.6069L122.225 95.6049L122.681 94.8773L122.406 95.113L123.483 92.2805L123.516 92.6823L123.697 91.7341L123.704 91.6985L123.893 91.2015L123.781 91.2978L123.881 90.7734L124.535 87.3606L124.544 87.3528L124.546 87.303L124.548 87.2933L124.619 86.9233L124.559 86.975L124.729 82.5824L124.737 82.5752ZM123.626 90.6384L123.333 87.048L122.657 78.7545L122.682 78.6876L122.668 78.6766L123.135 76.2697L123.157 76.1572L124.269 87.2809L123.626 90.6384ZM120.091 98.4951L119.717 84.6493L119.772 84.5943L119.753 84.5753L121.052 82.5352L121.191 82.3161L121.944 95.5344L120.091 98.4951ZM107.817 109.636L102.024 114.59L100.599 115.536L105.919 110.983L106.389 110.581L107.817 109.636ZM100.28 116.08L94.6028 120.934L93.1871 121.876L98.4788 117.349L98.8643 117.02L100.28 116.08ZM78.8744 125.696L79.156 125.453L85.9478 119.592L85.9566 119.584L86.4724 119.569L90.2432 119.453L83.1524 125.546L78.8744 125.696ZM29.1213 100.262L30.4994 98.101L32.7947 100.6L35.0581 103.065L32.8085 104.274L29.1213 100.262ZM22.1672 90.7365L19.7618 86.5569L19.0379 81.4393L22.0013 86.5853L21.9949 86.5914L22.0387 86.6555L22.1672 90.7365ZM11.5795 52.9206L18.2255 46.3493L18.2784 46.2971L18.4147 51.0281L11.6955 57.6375L11.5795 52.9206ZM17.6551 37.1973L22.9244 31.9391L22.1469 32.926L21.901 33.2381L16.6348 38.4902L17.6551 37.1973ZM29.9405 24.9373L29.2501 25.8156L28.9119 26.2456L28.7047 26.4523L23.5404 31.6029L24.5647 30.3023L29.9405 24.9373ZM38.9191 16.0203L41.6278 13.789L55.4875 15.3075L54.2235 16.371L53.4235 17.0439L53.4017 17.0217L53.3505 17.0885L46.0838 16.5506L38.9191 16.0203ZM45.1547 11.9548L58.2226 13.7864L56.4479 14.7204L55.8569 15.0314L55.8396 15.0113L55.7804 15.0611L42.0558 13.5573L45.1547 11.9548ZM50.1701 10.6818L53.5567 10.3195L64.5103 12.3318L61.9656 12.6122L61.9558 12.5973L61.8873 12.6174L56.572 11.7394L50.1701 10.6818ZM77.8373 14.7328L81.8715 16.3705L83.0519 25.3888L81.3288 24.695L80.2096 24.2444L80.2139 24.2315L80.1534 24.2139L79.1493 20.1037L77.8373 14.7328ZM99.1406 27.9129L95.8529 33.8532L93.9874 32.2979L93.0095 31.4825L93.0149 31.4749L92.9852 31.4534L95.1912 24.614L99.1406 27.9129ZM113.478 44.5163L111.081 45.0768L106.49 46.1506L106.471 46.1192L106.463 46.124L106.427 46.0727L104.338 43.088L110.524 40.3008L113.478 44.5163ZM12.5311 63.4229L19.3177 56.7872L19.4175 57.1611L20.7537 62.1643L16.5146 66.2807L13.9405 68.7802L12.5311 63.4229ZM38.628 16.2763L53.1493 17.3513L52.6305 18.0288L51.4536 19.5657L51.4275 19.5425L51.3875 19.6264L36.4978 19.1235L36.3987 19.1202L38.628 16.2763ZM68.0674 123.881L62.8545 122.029L69.9873 115.759L71.3946 116.265L75.2199 117.639L68.0674 123.881ZM26.2762 92.3624L33.234 85.8384L33.2422 85.8307L37.0592 90.6272L37.4937 91.1733L37.4868 91.1796L30.4949 97.6721L26.2762 92.3624ZM20.8354 62.4703L20.8526 62.4536L22.9294 68.0159L20.7119 70.1521L16.0741 74.6196L14.028 69.0808L20.8354 62.4703ZM98.6296 36.8703L87.6834 47.8687L85.8998 46.1702L92.0013 38.9111L95.9037 34.2683L98.6296 36.8703ZM109.944 52.9589L95.3308 58.7657L94.3158 56.7318L108.373 49.8425L109.944 52.9589ZM117.151 86.8018L114.711 88.372L113.596 86.882L107.175 78.3029L108.915 77.2128L117.151 86.8018ZM75.4587 117.431L70.2249 115.55L72.4831 113.565L77.4527 109.198L77.4597 109.191L82.7113 111.1L82.6872 111.121L75.4587 117.431ZM28.5182 27.0287L27.0636 29.9604L23.8598 33.1496L20.6537 36.3409L22.1176 33.4126L28.5182 27.0287ZM53.4276 17.4427L62.2814 26.4578L61.0536 28.1033L52.4745 20.4736L51.6607 19.7499L53.4276 17.4427ZM74.9426 39.5115L73.1168 38.9974L77.0391 23.5977L79.8627 24.4178L74.9426 39.5115ZM106.238 110.348L103.192 111.561L110.16 105.589L110.226 105.577L110.227 105.558L113.217 104.378L106.238 110.348ZM47.6825 101.14L42.717 96.4518L49.8462 89.8962L50.7304 90.7324L54.8428 94.6211L54.8346 94.6286L47.6825 101.14ZM21.069 62.2434L27.9745 55.5407L27.9916 55.5242L29.2125 58.7634L30.0974 61.1112L30.0911 61.1173L23.1462 67.807L21.069 62.2434ZM35.6294 19.9358L34.5439 22.1377L34.2092 22.8166L34.1902 22.8168L34.1722 22.8816L27.6732 29.3534L29.1287 26.4198L35.6294 19.9358ZM60.9058 28.342L60.0012 30.2922L50.2093 22.7331L51.5183 19.9933L60.9058 28.342ZM64.0638 25.2491L64.2619 40.1575L63.3637 40.9484L62.6044 26.5062L63.461 25.7683L64.0638 25.2491ZM83.4236 44.4769L76.3323 51.0878L74.4407 49.7356L75.9175 48.354L81.522 43.1113L83.4236 44.4769ZM113.259 65.993L113.141 68.507L105.024 68.9103L97.4322 69.2874L97.5257 67.6771L113.259 65.993ZM114.457 88.494L111.619 89.5739L104.91 79.1717L106.925 78.4308L114.457 88.494ZM69.9345 115.437L64.5718 112.902L68.3179 109.583L71.795 106.502L77.1811 109.068L77.1634 109.084L69.9345 115.437ZM23.258 68.0832L30.2036 61.3928L30.2169 61.38L32.4911 66.1295L32.9358 67.0582L32.9295 67.0641L28.2333 71.5498L25.9463 73.7341L23.258 68.0832ZM26.6551 49.6146L33.6356 42.7884L35.1139 48.1619L35.1011 48.166L35.1208 48.2176L28.1183 55.0156L26.6551 49.6146ZM68.8836 23.2318L71.0129 22.9789L68.9511 38.6036L67.4884 38.7951L68.7154 23.2517L68.8836 23.2318ZM96.7898 71.0717L90.8891 76.3675L89.8983 76.5297L89.9737 76.1882L97.0601 69.8214L96.7898 71.0717ZM58.9069 109.614L66.1062 103.178L66.1126 103.173L68.3914 104.512L71.5376 106.361L71.5238 106.373L64.3064 112.768L58.9069 109.614ZM66.8056 39.2694L61.7589 44.069L61.7662 44.0401L62.2367 43.0109L65.8456 39.5756L66.8056 39.2694ZM92.138 69.9511L89.9147 71.957L89.5749 70.1543L96.7407 63.6712L97.0912 65.4824L92.138 69.9511ZM45.176 84.418L52.3744 77.7351L56.9166 82.6783L57.087 82.8638L49.8557 89.5118L45.176 84.418ZM28.2077 55.3144L35.2279 48.4991L37.347 54.0689L37.3356 54.0735L37.3565 54.1168L34.2184 57.1405L30.314 60.9025L28.2077 55.3144ZM25.608 39.0504L32.4981 32.2371L32.6747 36.9379L32.6591 36.9407L32.6695 37.0047L25.7647 43.7963L25.608 39.0504ZM59.8974 30.5615L59.3291 32.7965L49.2881 26.1552L50.1168 23.0112L59.8974 30.5615ZM47.8751 72.1103L48.4678 72.8533L52.1904 77.5205L52.183 77.5268L52.1873 77.5314L48.8866 80.5958L44.9963 84.2075L40.7103 78.8277L47.8751 72.1103ZM33.2467 27.3266L48.9767 26.3641L48.6954 29.3517L48.6515 29.8173L48.6194 29.7995L48.6251 29.9179L32.7797 31.7604L33.2467 27.3266ZM65.383 54.525L64.3537 52.7805L69.9302 47.5326L71.8268 48.4782L65.383 54.525ZM82.1917 57.0444L83.7152 58.9428L76.6695 65.4166L75.1595 63.5303L82.1917 57.0444ZM88.7024 68.1531L89.2677 70.0592L84.7594 74.136L83.4008 73.3215L83.1787 73.1636L88.7024 68.1531ZM103.021 79.2431L102.152 79.3892L90.4291 76.7234L91.4237 76.5606L103.939 79.0888L103.021 79.2431ZM107.835 90.2276L104.318 90.2641L99.5696 79.6761L102.066 79.6689L107.835 90.2276ZM90.4866 104.244L85.1862 102.295L91.0503 87.959L91.345 87.2387L91.4433 87.2867L91.4399 87.2601L95.5964 88.8223L90.4866 104.244ZM57.4803 82.869L61.6772 78.6539L68.9038 71.3961L72.9351 75.2217L62.5013 87.6247L57.4803 82.869ZM49.9283 38.8358L59.7899 42.1412L60.6669 45.1983L55.0742 43.9838L51.1434 43.1302L50.6837 41.5055L49.9283 38.8358ZM71.7769 87.2164L77.5762 79.0446L81.9053 82.1091L73.5798 96.078L68.181 92.2834L71.7769 87.2164ZM48.0888 71.9351L61.2769 62.5313L64.748 66.8728L52.4013 77.3417L48.0888 71.9351ZM86.5117 75.5091L86.552 84.5711L84.9511 83.616L82.2393 81.9982L83.225 75.11L83.4322 73.6629L86.5117 75.5091ZM96.3935 78.9893L94.2847 78.4333L96.7393 79.0371L96.3935 78.9893ZM89.8368 77.1501L91.1028 86.8126L89.5033 86.0327L86.8289 84.7285L86.8166 81.9732L86.7885 75.6528L89.8368 77.1501ZM76.8934 68.6862L79.884 71.1521L77.4746 78.616L73.3013 75.1773L76.8934 68.6862ZM82.1373 82.2597L86.5104 84.8686L79.2666 99.4519L73.8119 96.2284L82.1373 82.2597ZM79.5834 70.5458L79.3447 70.349L79.4425 70.2597L79.5834 70.5458ZM65.9025 55.9351L68.108 59.1226L61.3513 62.1692L60.5987 61.0797L58.2774 57.719L65.9025 55.9351ZM70.9264 62.6495L73.6196 65.5791L68.8983 70.9956L66.3319 68.2023L65.1459 66.9113L70.9264 62.6495ZM69.6376 63.256L64.9648 66.7012L61.5223 62.3956L68.2753 59.3508L70.7464 62.4385L69.6376 63.256ZM66.8007 56.5013L66.6973 56.5981L66.5194 56.341L66.5086 56.3254L66.6754 56.4258L66.8007 56.5013ZM73.8145 65.7764L76.6804 68.5003L73.0904 74.9878L69.0923 71.1938L73.8145 65.7764ZM100.93 79.3953L99.3734 79.3999L91.2689 77.4063L90.0192 76.9314L89.9535 76.8991L100.93 79.3953ZM88.1845 76.0303L89.8086 74.5687L89.7144 76.0494L89.1876 76.523L88.1845 76.0303ZM83.1763 73.5015L81.9849 81.8265L80.9057 81.0626L77.7061 78.7976L78.5904 76.0584L80.1178 71.3271L83.1763 73.5015ZM76.4655 65.6041L75.2296 66.7398L73.9031 65.479L73.5099 65.0512L74.9557 63.718L75.8917 64.8873L76.4655 65.6041ZM73.3228 64.8477L71.6813 63.062L73.1308 61.7204L74.7757 63.5079L73.3228 64.8477ZM69.7795 60.7879L69.543 60.4924L68.4267 59.0976L68.3162 58.9378L69.1472 58.1634L70.9772 59.6754L69.7795 60.7879ZM68.1572 58.708L66.8563 56.828L67.0408 56.6554L68.9235 57.994L68.1572 58.708ZM35.4634 48.3412L50.9514 43.4192L52.6954 47.9304L37.6034 53.9663L35.4634 48.3412ZM49.1019 34.1045L48.919 30.2816L59.0426 35.8885L59.1875 38.6044L54.2733 36.4118L49.1019 34.1045ZM51.2547 43.4376L60.7618 45.5023L61.9967 48.6688L52.9712 47.8777L51.2547 43.4376ZM59.9272 41.3768L59.8297 40.8231L59.4749 38.8069L59.454 38.4165L59.9272 41.3768ZM52.8058 48.1843L55.0405 52.7629L40.4671 59.9326L37.7133 54.2206L52.8058 48.1843ZM61.7592 47.2995L61.3508 46.2524L61.8781 45.7517L63.3606 45.7816L61.7592 47.2995ZM61.3333 45.8877L61.3392 45.8177L61.4184 45.8069L61.3333 45.8877ZM61.0387 45.4521L60.9943 45.3381L60.6446 44.1192L59.6698 38.018L59.3153 35.7992L59.4489 34.2411L61.0387 45.4521ZM59.057 35.5801L48.9151 29.9632L49.2451 26.4584L59.2704 33.0894L59.057 35.5801ZM58.008 57.8154L61.1119 62.3091L51.6767 69.0369L47.9239 71.7128L44.0725 66.1129L58.008 57.8154ZM64.928 67.0829L68.7097 71.1991L57.2862 82.672L52.5813 77.5516L64.928 67.0829ZM79.5101 99.5826L81.3156 95.9478L86.7539 84.9997L91.0962 87.1174L84.9319 102.188L79.5101 99.5826ZM94.182 87.9951L91.3992 86.9492L90.1309 77.2699L93.1021 78.399L95.5732 88.5179L94.182 87.9951ZM98.7414 85.5159L96.5711 79.2934L99.2619 79.665L104.001 90.2338L100.213 89.7346L98.7414 85.5159ZM85.0073 74.2846L89.3348 70.3714L89.6746 72.1736L86.4057 75.1229L85.0073 74.2846ZM81.0695 71.6642L80.1276 70.9946L80.1019 70.9733L79.655 70.0659L86.7166 63.6218L87.7108 65.6245L85.6107 67.5343L81.0695 71.6642ZM79.309 70.0072L79.1292 70.1713L77.3684 68.7193L78.134 68.0182L78.7734 69.1006L79.309 70.0072ZM77.9839 67.7807L77.1529 68.5416L76.9449 68.3701L75.4305 66.9307L76.6309 65.8278L77.9083 67.6715L77.9839 67.7807ZM73.9951 49.7736L67.0108 56.3049L66.1256 55.7718L66.0787 55.7041L65.527 54.7691L72.0843 48.6158L73.9951 49.7736ZM65.7478 55.687L62.0198 56.5592L58.1157 57.4725L56.2389 54.2789L55.4587 52.9511L63.8394 52.4527L65.7478 55.687ZM63.6997 52.1837L55.3087 52.6826L54.1198 50.2466L53.105 48.1674L62.1168 48.9573L63.6997 52.1837ZM62.5194 49.1507L63.5355 48.1895L65.7301 46.1135L67.4975 46.6019L63.2402 50.6199L62.5194 49.1507ZM62.3919 48.8907L62.3326 48.7699L61.8677 47.5778L63.7462 45.7972L65.3919 46.0528L62.3919 48.8907ZM59.2142 38.9194L59.7262 41.8278L53.2629 39.6615L49.8463 38.5164L49.1478 34.4281L59.2142 38.9194ZM49.6276 38.7874L50.8376 43.0639L50.8118 43.0583L50.8513 43.1605L35.3772 48.0782L33.8775 42.6266L49.6276 38.7874ZM40.5974 60.1769L55.1711 53.007L57.8594 57.5819L48.7954 62.9787L43.9239 65.8793L40.5974 60.1769ZM62.7086 87.8077L73.1424 75.4047L77.3564 78.877L67.9609 92.1159L62.7086 87.8077ZM95.8838 88.6261L94.3193 82.2196L93.4081 78.4884L96.2601 79.2405L99.895 89.6622L98.3832 89.2717L95.8838 88.6261ZM87.9171 75.8989L86.7155 75.3087L86.6537 75.2716L89.7071 72.5167L89.8254 74.1816L87.9171 75.8989ZM72.9366 61.5234L71.4942 62.8585L71.049 62.3742L69.9528 61.0044L71.1859 59.859L72.0613 60.6912L72.9366 61.5234ZM61.4953 43.985L61.249 44.9691L59.8445 35.0645L59.5555 33.0269L59.9202 31.5926L60.0035 31.265L61.4953 43.985ZM32.7671 32.0406L48.6384 30.1951L48.8195 33.9785L48.7885 33.9646L48.8089 34.0839L32.9492 36.8893L32.7671 32.0406ZM30.4265 61.1781L37.4829 54.379L38.0688 55.5942L40.2193 60.0545L40.2091 60.0595L40.229 60.0934L36.5076 63.6472L33.146 66.8574L30.4265 61.1781ZM66.3293 102.979L73.6324 96.4532L73.6645 96.4758L73.6703 96.466L79.0902 99.6691L71.7554 106.168L66.3293 102.979ZM91.9389 76.3822L92.9767 76.008L106.44 78.3144L104.689 78.9579L91.9389 76.3822ZM95.3084 73.8823L93.9557 75.0939L93.4259 75.4193L95.5607 73.5055L95.3647 73.7982L95.3084 73.8823ZM89.6082 76.5629L89.5569 76.563L89.6209 76.5054L89.6082 76.5629ZM88.6085 67.8649L82.948 72.9996L81.3002 71.8282L87.8263 65.8932L88.1351 66.6718L88.6085 67.8649ZM86.4492 63.1447L86.5826 63.3698L79.5176 69.817L78.3422 67.8276L85.3958 61.3686L86.4492 63.1447ZM78.1896 67.5923L76.8364 65.639L83.8809 59.1661L85.2454 61.1313L78.1896 67.5923ZM71.1817 59.4856L69.3513 57.9733L76.1308 51.6538L76.3492 51.4502L78.1913 52.9758L71.1817 59.4856ZM69.1301 57.8015L67.247 56.4626L69.8851 53.9956L74.2347 49.9283L76.1258 51.2803L69.1301 57.8015ZM63.6466 45.5105L62.1637 45.4804L69.1277 38.867L70.6139 38.9032L63.6466 45.5105ZM68.6706 38.9196L61.7618 45.481L61.3932 45.531L61.6337 44.5697L67.3997 39.086L68.6706 38.9196ZM62.7636 42.1275L63.1448 41.6063L64.4833 40.3318L64.8864 40.1068L62.7636 42.1275ZM62.1751 42.4814L61.715 43.4877L60.9527 36.988L60.1954 30.5302L60.9818 28.8345L62.1751 42.4814ZM40.3722 60.3391L41.9494 63.0428L43.6865 66.0207L43.6774 66.0261L43.6941 66.0503L42.2102 67.4552L36.5754 72.79L33.2779 67.1139L40.3722 60.3391ZM59.3275 90.9124L62.5109 88.0145L62.5241 88.027L62.5306 88.0193L64.6115 89.7262L67.7758 92.3218L60.4869 98.8958L55.2576 94.6175L59.3275 90.9124ZM60.7129 99.0643L67.9922 92.4991L68.0148 92.5177L68.0209 92.5091L73.4001 96.2899L66.0854 102.826L60.7129 99.0643ZM72.0199 106.303L79.3404 99.817L79.3816 99.8413L79.387 99.8304L84.7558 102.41L77.4073 108.869L72.0199 106.303ZM90.7508 104.325L91.8787 100.92L95.8552 88.9196L95.9656 88.9611L95.9583 88.9312L99.9417 89.9602L95.8456 105.598L90.7508 104.325ZM108.14 90.21L102.362 79.6346L104.634 79.253L111.335 89.643L108.14 90.21ZM96.173 72.5852L95.5998 73.0991L92.4859 75.8907L91.3969 76.2833L96.5571 71.6523L96.173 72.5852ZM90.0078 75.7858L90.1021 74.3047L97.2374 67.8796L97.1509 69.3683L93.9132 72.2771L90.0078 75.7858ZM82.0117 56.8343L80.1848 58.5192L74.979 63.3204L73.3337 61.5326L80.3566 55.0331L81.3782 56.1448L82.0117 56.8343ZM80.1624 54.836L73.1399 61.3352L71.3889 59.6706L73.7536 57.4744L78.3998 53.1596L78.7686 53.5104L80.1624 54.836ZM69.6515 47.4152L64.2096 52.5364L64.0365 52.243L63.3677 50.8797L66.904 47.5423L67.8021 46.6946L69.0334 47.1743L69.6515 47.4152ZM67.7329 46.3797L65.9653 45.8912L69.2889 42.7473L72.9875 39.2487L74.7601 39.7478L67.7329 46.3797ZM65.6463 45.8121L64 45.5564L70.9976 38.9205L72.651 39.1864L65.6463 45.8121ZM63.1003 41.1988L62.4213 42.1273L61.2165 28.3474L62.3452 26.8344L63.1003 41.1988ZM49.0449 25.9944L49.0135 25.9736L49.003 26.0851L45.8267 26.2794L33.3064 27.0456L34.4007 23.0913L49.8566 22.915L49.0449 25.9944ZM26.1172 34.344L32.9437 27.567L32.4986 31.7932L32.4816 31.7952L32.4841 31.8621L25.6477 38.6222L26.1172 34.344ZM32.9754 37.1659L48.8555 34.3568L49.5491 38.4168L49.5199 38.407L49.5521 38.5209L33.8189 42.3558L32.9754 37.1659ZM36.7243 73.0298L43.8527 66.2809L47.6988 71.8733L47.6907 71.8791L47.7022 71.8935L46.3032 73.2051L40.5455 78.6031L36.7243 73.0298ZM50.0502 89.7087L57.2741 83.0674L57.2783 83.0719L57.2851 83.0651L57.8825 83.631L62.3095 87.8238L55.0478 94.4344L50.0502 89.7087ZM77.7501 108.936L85.0267 102.54L85.0763 102.564L85.0814 102.552L90.3059 104.472L82.9495 110.892L77.6967 108.983L77.7501 108.936ZM96.1182 105.647L100.209 90.0292L100.326 90.0594L100.315 90.0274L104.064 90.5215L100.927 106.233L96.1182 105.647ZM101.207 106.244L104.339 90.5575L104.456 90.573L104.441 90.5397L107.907 90.5037L105.659 106.144L101.207 106.244ZM93.3496 75.791L94.3293 75.1892L108.545 77.1182L106.946 78.1201L93.3496 75.791ZM97.2519 67.4945L90.0856 73.9473L89.9672 72.282L97.1252 65.8241L97.1786 66.5281L97.2519 67.4945ZM89.4948 69.8538L88.9294 67.9472L96.0979 61.447L96.6723 63.36L89.4948 69.8538ZM88.827 67.6666L88.0446 65.6946L95.2098 59.1774L96.0034 61.1596L95.1756 61.9101L88.827 67.6666ZM95.0937 58.9092L87.9233 65.4312L86.9289 63.4281L94.0881 56.8942L95.0937 58.9092ZM83.9192 58.7553L82.3954 56.8566L89.5251 50.2811L91.0604 52.1934L83.9192 58.7553ZM81.2831 42.9562L74.2051 49.5773L72.2938 48.4192L74.6687 46.1907L79.3618 41.7868L80.5984 42.5395L81.2831 42.9562ZM79.1049 41.6487L72.042 48.2764L70.1449 47.3305L70.3061 47.1788L77.1997 40.6918L78.6427 41.4166L79.1049 41.6487ZM70.8385 38.6317L69.2311 38.5925L71.2934 22.9633L73.8045 23.0527L70.8385 38.6317ZM34.0231 23.4203L33.015 27.0635L32.9966 27.0646L32.9895 27.1321L29.9486 30.1508L26.2604 33.8121L27.3001 30.1152L34.0231 23.4203ZM26.0778 73.991L33.0615 67.3205L33.0724 67.3101L33.5888 68.1989L36.3692 72.9851L36.3629 72.9911L29.3417 79.6349L26.0778 73.991ZM53.3163 105.734L60.4957 99.2602L60.5022 99.2544L62.9269 100.952L65.8736 103.016L65.8623 103.026L58.6624 109.462L53.3163 105.734ZM90.6019 104.581L90.6589 104.602L90.6635 104.588L93.7512 105.36L95.653 105.835L88.3001 112.214L83.2704 110.979L90.6019 104.581ZM109.97 105.343L105.943 106.108L108.186 90.5008L108.298 90.4996L108.28 90.4662L108.335 90.4565L111.41 89.911L109.97 105.343ZM96.2304 73.9132L95.657 73.8582L96.3596 72.8095L111.601 73.5972L110.503 75.2806L96.2304 73.9132ZM111.757 73.3279L96.4907 72.5391L97.0075 71.2837L112.549 71.3347L111.879 73.0193L111.757 73.3279ZM86.791 63.1796L85.604 61.178L92.7534 54.6309L93.9535 56.6427L86.791 63.1796ZM85.4511 60.943L84.0862 58.9774L91.2262 52.4166L92.6025 54.3939L85.4511 60.943ZM89.3449 50.071L84.973 54.1031L82.2149 56.6469L80.5596 54.8453L83.5742 52.0555L87.6781 48.2577L88.856 49.539L89.3449 50.071ZM87.4839 48.0605L80.3658 54.6478L78.6028 52.9711L85.7093 46.3706L87.3239 47.908L87.4839 48.0605ZM78.3957 52.786L76.5532 51.26L83.6466 44.6471L85.501 46.1866L78.3957 52.786ZM76.9218 40.5735L69.8746 47.2051L68.025 46.4843L75.0637 39.8416L76.718 40.4933L76.9218 40.5735ZM65.6379 39.3706L64.5357 39.9857L64.337 25.0332L66.1036 24.076L65.6379 39.3706ZM25.7846 44.1646L32.7238 37.3391L33.4964 42.0933L33.5497 42.4214L33.5356 42.4249L33.5518 42.4837L31.2361 44.7482L26.5952 49.2864L25.7846 44.1646ZM29.4904 79.8748L36.5212 73.222L37.5308 74.6945L40.3416 78.7944L40.3367 78.7989L40.3351 78.8004L38.6477 80.3828L33.28 85.4161L29.4904 79.8748ZM33.4445 85.6409L40.508 79.0174L44.7931 84.3961L37.6969 90.9846L33.4445 85.6409ZM44.9659 84.613L44.9734 84.6062L49.3651 89.3864L49.6521 89.6989L49.6447 89.7057L42.5224 96.2551L37.8764 91.1953L44.9659 84.613ZM50.0466 99.3617L55.0509 94.8057L60.2792 99.0831L60.2697 99.0917L53.09 105.565L47.8926 101.323L50.0466 99.3617ZM88.664 112.264L95.9807 105.917L96.0434 105.933L96.0474 105.917L98.9016 106.265L100.71 106.486L93.3756 112.815L88.664 112.264ZM108.893 76.8862L101.257 75.8499L94.6012 74.9466L95.4631 74.1178L110.265 75.5359L109.935 75.8606L108.893 76.8862ZM102.166 66.902L97.5217 67.3991L97.3888 65.6483L113.023 62.9931L113.255 65.7149L102.166 66.902ZM72.847 38.9375L71.1145 38.6589L71.1543 38.4499L74.0806 23.0792L76.7697 23.5363L72.847 38.9375ZM68.433 23.3191L67.207 38.8508L65.9175 39.2621L66.384 23.9434L66.658 23.8599L68.433 23.3191ZM51.2571 19.8992L49.9856 22.5605L49.9561 22.5378L49.9299 22.6372L34.519 22.813L36.2062 19.3907L51.2571 19.8992ZM25.8055 34.6535L25.3362 38.9303L18.5889 45.6012L19.0761 41.3349L25.8055 34.6535ZM18.547 46.0315L25.2883 39.3666L25.3405 39.3151L25.4971 44.0595L18.6833 50.7638L18.547 46.0315ZM61.0216 116.048L64.3465 113.102L69.708 115.636L62.5631 121.917L57.2231 119.414L61.0216 116.048ZM93.8037 112.811L94.0566 112.593L101.081 106.531L101.148 106.539L101.151 106.522L105.395 106.427L98.1001 112.697L93.8037 112.811ZM98.6384 112.599L105.831 106.417L105.899 106.416L105.901 106.398L109.614 105.693L102.408 111.869L98.6384 112.599ZM113.802 103.85L110.256 105.249L111.493 91.9857L111.692 89.861L111.793 89.8431L111.773 89.8117L114.53 88.7625L113.802 103.85ZM112.029 73.447L112.096 73.3454L112.048 73.343L112.812 71.4184L122.35 78.7808L121.248 81.6446L112.029 73.447ZM112.639 71.0581L97.0864 71.0071L97.3979 69.5663L113.102 68.7862L113.054 69.0216L112.639 71.0581ZM97.3516 65.3738L96.9905 63.5081L112.402 59.8332L112.984 62.7189L97.3516 65.3738ZM112.334 59.565L96.9244 63.2392L96.3388 61.2889L111.409 56.5573L112.334 59.565ZM111.316 56.2964L96.2478 61.0272L95.4438 59.0186L110.059 53.2109L111.316 56.2964ZM103.93 43.0028L101.44 44.7768L91.2751 52.0194L89.7323 50.0976L101.568 40.0674L103.93 43.0028ZM94.9563 45.3079L89.552 49.8878L87.8772 48.0658L98.8232 37.0676L101.387 39.8578L94.9563 45.3079ZM81.4632 42.7419L79.5239 41.5616L82.2262 36.0901L86.4973 27.4427L89.4692 29.2693L81.4632 42.7419ZM86.2562 27.3068L79.2818 41.4279L77.3514 40.4582L80.5933 32.4558L83.2909 25.7971L86.2562 27.3068ZM73.7534 22.7738L71.3298 22.6875L71.3332 22.662L71.2494 22.672L65.7019 12.5151L69.2219 12.6665L73.7534 22.7738ZM70.9537 22.7072L68.7376 22.9703L68.7403 22.9362L68.6461 22.9649L65.9803 18.8338L62.1334 12.8724L65.3864 12.514L70.9537 22.7072ZM20.2749 37.1081L26.6812 30.7311L26.6809 30.7318L26.9016 30.5121L26.8272 30.7763L25.8623 34.2073L19.2222 40.8002L20.2749 37.1081ZM18.7016 51.1336L25.5428 44.4027L26.353 49.5232L23.6629 52.1529L19.4856 56.2362L18.7016 51.1336ZM19.5443 56.5657L26.406 49.858L26.4289 49.8357L27.3927 53.3933L27.8918 55.2355L27.8852 55.2419L24.8206 58.2167L20.9807 61.9438L19.5443 56.5657ZM16.1852 74.8967L23.0349 68.2983L23.0483 68.2854L23.715 69.6868L25.736 73.935L25.7297 73.941L18.8441 80.519L16.1852 74.8967ZM18.975 80.7765L25.8722 74.1873L29.1355 79.8301L22.2076 86.3899L18.975 80.7765ZM46.0209 112.313L53.1053 105.924L58.4504 109.651L51.3369 116.006L46.0209 112.313ZM51.582 116.158L58.69 109.808L64.0885 112.961L56.957 119.28L51.582 116.158ZM83.0155 111.202L88.0439 112.436L80.7935 118.724L75.7809 117.516L83.0155 111.202ZM85.0469 115.401L88.3808 112.51L91.1767 112.837L93.0911 113.061L93.0357 113.108L85.8589 119.303L81.159 118.773L85.0469 115.401ZM102.542 112.118L102.954 111.954L105.586 110.905L98.7131 116.786L95.671 118.007L102.542 112.118ZM116.573 70.6566L113.427 68.5751L113.444 68.492L113.418 68.4933L113.532 66.0669L123.215 71.4304L123.073 74.9563L116.573 70.6566ZM108.239 49.6L94.1833 56.4886L92.9747 54.4626L106.376 46.4975L108.239 49.6ZM106.225 46.2655L92.8249 54.2296L91.4408 52.2411L104.096 43.2239L106.225 46.2655ZM85.693 45.9866L83.8282 44.4384L85.3028 42.3574L92.8491 31.7089L95.6976 34.0839L85.693 45.9866ZM92.6308 31.5389L83.609 44.2695L81.6941 42.8943L86.0241 35.6076L89.6992 29.4231L92.6308 31.5389ZM83.0395 25.6821L77.0989 40.3458L75.2043 39.5996L76.097 36.861L80.1237 24.5082L83.0395 25.6821ZM61.836 12.9212L68.3712 23.0485L66.3929 23.6513L66.3943 23.6038L66.288 23.6614L58.897 13.7856L61.836 12.9212ZM66.0423 23.7944L64.2299 24.7763L56.3256 15.5768L56.042 15.2468L58.6271 13.8863L66.0423 23.7944ZM55.8083 15.399L64.003 24.9364L62.4709 26.2562L56.3807 20.055L53.618 17.2419L55.8083 15.399ZM29.2777 80.0761L29.2871 80.0673L31.8851 83.8661L33.0759 85.6074L26.1119 92.1373L22.3559 86.6303L29.2777 80.0761ZM30.6745 97.8827L37.6739 91.3834L42.3188 96.4422L42.3113 96.4491L35.2885 102.907L30.6745 97.8827ZM35.4832 103.103L37.9562 100.829L42.5129 96.6395L47.4775 101.327L40.4168 107.756L35.4832 103.103ZM40.627 107.938L42.7098 106.042L47.6858 101.511L52.8821 105.753L52.8725 105.761L45.7942 112.145L40.627 107.938ZM88.9533 116.998L93.4725 113.097L97.7675 112.983L97.6672 113.069L97.6676 113.069L90.5776 119.165L86.2893 119.297L88.9533 116.998ZM98.2054 112.971L98.2149 112.963L100.644 112.493L101.983 112.233L94.8815 118.319L91.1191 119.064L98.2054 112.971ZM114.087 103.68L114.758 89.7539L114.811 88.6553L114.898 88.6221L114.877 88.5941L117.219 87.087L117.101 101.69L114.087 103.68ZM117.367 86.6285L109.131 77.0404L110.572 75.622L119.384 84.5934L117.367 86.6285ZM119.555 84.3729L110.75 75.4088L111.877 73.6813L121.125 81.9056L119.555 84.3729ZM122.424 78.4878L112.919 71.151L112.955 71.0592L112.921 71.059L113.367 68.8675L123.048 75.2714L122.424 78.4878ZM122.85 67.3121L123.195 71.103L113.546 65.7586L113.55 65.6834L113.53 65.6855L113.305 63.0534L122.85 67.3121ZM76.7331 23.2492L74.1324 22.8073L74.1361 22.7875L74.061 22.7848L69.5457 12.7134L73.2877 13.3725L76.7331 23.2492ZM122.79 66.9825L114.573 63.3157L113.278 62.7382L113.273 62.67L113.257 62.6727L112.692 59.8725L121.966 62.9795L122.79 66.9825ZM121.872 62.6565L118.429 61.5029L112.629 59.5595L112.616 59.4976L112.603 59.5008L111.746 56.712L111.702 56.5689L120.578 58.4968L121.872 62.6565ZM118.105 57.6762L111.608 56.2653L111.591 56.2098L111.58 56.2133L110.349 53.1894L118.706 53.9224L120.458 58.1873L118.105 57.6762ZM115.805 53.3901L110.232 52.9013L110.212 52.8526L110.202 52.8565L108.653 49.7838L116.384 49.3228L118.566 53.6322L115.805 53.3901ZM116.23 49.0546L112.274 49.2905L108.517 49.5145L108.496 49.4737L108.488 49.478L107.143 47.2395L106.639 46.4L113.642 44.7623L116.23 49.0546ZM110.351 40.0749L104.177 42.8573L104.163 42.837L104.155 42.8422L101.785 39.8959L107.069 35.9982L110.351 40.0749ZM103.738 38.1118L101.611 39.6803L101.605 39.6731L101.599 39.6789L99.9669 37.9035L99.0184 36.8715L99.0248 36.8651L99.0183 36.8589L103.328 31.9157L106.888 35.7884L103.738 38.1118ZM103.134 31.7173L98.8181 36.6678L96.6292 34.5784L96.0821 34.0561L96.0878 34.0492L96.0689 34.0335L99.3508 28.1037L103.134 31.7173ZM94.9605 24.4298L92.7498 31.2836L92.3054 30.9629L89.8411 29.1844L89.8461 29.176L89.8072 29.1521L90.9038 21.4907L94.9605 24.4298ZM90.6501 21.3147L89.5507 28.9945L86.6202 27.1935L86.625 27.184L86.5783 27.1603L86.5438 18.7795L90.6501 21.3147ZM86.267 18.6159L86.3015 27.0194L83.3953 25.5396L83.3996 25.5288L83.3459 25.5072L82.1691 16.5156L86.267 18.6159ZM77.5237 14.6133L79.8474 24.125L77.1075 23.3292L77.1115 23.3135L77.044 23.3021L75.8839 19.9762L73.6105 13.459L77.5237 14.6133ZM58.2964 10.525L67.4724 12.3141L65.5468 12.2312L65.5398 12.2184L65.4679 12.2264L55.5562 10.4053L58.2964 10.525ZM49.1515 10.7942L61.2762 12.7972L59.1879 13.4114L58.7199 13.5491L58.7069 13.5316L58.6421 13.5657L45.792 11.7646L49.1515 10.7942ZM37.0526 17.8381L36.0566 19.1085L36.0375 19.1078L36.0082 19.1673L35.1907 19.9828L30.5386 24.623L31.5677 23.3135L37.0526 17.8381ZM15.1979 40.3137L21.5016 34.027L20.0387 36.953L13.7271 43.2369L15.1979 40.3137ZM13.3432 44.0092L19.8739 37.5073L18.8216 41.198L17.282 42.7264L12.2777 47.6943L13.3432 44.0092ZM12.1285 48.2321L18.6667 41.7414L18.7626 41.6462L18.2756 45.911L18.2675 45.919L12.8362 51.2892L11.6236 52.4881L12.1285 48.2321ZM11.7123 58.0089L18.459 51.3724L18.4836 51.5323L19.2427 56.4736L19.2357 56.4805L12.4736 63.0924L11.7123 58.0089ZM15.8184 77.2019L14.4426 71.0002L14.6079 71.4479L15.8569 74.8288L15.8505 74.835L15.8857 74.9093L16.3627 77.3235L16.9354 80.2224L15.8184 77.2019ZM17.5387 81.8506L16.3692 75.9319L18.4557 80.344L18.6336 80.7201L18.6273 80.7262L18.6682 80.7972L19.3643 85.7188L17.5387 81.8506ZM22.4593 91.2386L22.3283 87.0802L24.3208 90.0016L25.9078 92.3287L25.9012 92.3349L25.9415 92.3856L25.6776 93.8261L25.369 95.51L22.4593 91.2386ZM25.5913 95.829L26.1697 92.6727L30.2918 97.8608L30.2848 97.8673L30.306 97.8903L29.7981 98.6866L28.9354 100.039L25.5913 95.829ZM34.5993 103.625L35.2513 103.275L35.2721 103.297L35.2791 103.291L38.7392 106.554L40.1007 107.838L36.9245 108.167L33.0139 104.478L34.5993 103.625ZM40.3667 108.088L40.4136 108.133L40.4203 108.127L43.0811 110.293L45.3463 112.137L41.2307 111.676L37.222 108.414L40.3667 108.088ZM41.7039 112.007L45.7432 112.46L45.8034 112.509L45.81 112.503L50.0807 115.47L50.6859 115.891L45.6664 114.758L41.7039 112.007ZM46.462 115.221L51.2912 116.311L51.3583 116.358L51.3648 116.352L55.9482 119.014L50.1643 117.368L46.462 115.221ZM51.7203 118.098L55.482 119.168L56.9173 119.577L56.9908 119.619L56.9975 119.614L60.708 121.353L54.6648 119.478L51.7203 118.098ZM68.3909 123.966L72.1916 120.649L75.5252 117.74L77.0042 118.096L80.5366 118.947L80.5012 118.977L73.3882 125.148L68.3909 123.966ZM73.7554 125.196L76.7299 122.615L80.8748 119.019L81.1597 119.052L85.5733 119.55L78.4417 125.704L73.7554 125.196ZM83.6977 125.442L86.0064 123.458L90.6927 119.431L93.6161 118.852L94.4532 118.686L87.4545 124.684L83.6977 125.442ZM93.591 119.789L95.0058 118.577L95.0162 118.568L98.056 117.348L91.2861 123.138L88.2494 124.367L93.591 119.789ZM109.542 108.162L108.109 109.111L113.461 104.532L114.006 104.067L114.069 104.042L114.07 104.023L115.45 103.112L109.542 108.162ZM117.379 101.422L117.497 86.9083L117.568 86.8627L117.548 86.839L117.948 86.4348L119.449 84.9208L119.826 98.9016L117.379 101.422ZM121.847 88.975L121.445 81.9172L121.484 81.8553L121.468 81.8407L122.428 79.3482L123.431 91.6404L122.186 94.9161L121.847 88.975ZM123.34 75.2134L123.354 75.1425L123.342 75.1345L123.342 75.1216L123.42 73.1831L124.455 82.5116L124.348 85.2913L123.34 75.2134Z" fill="#F3F3EF"/>
</g>
<defs>
<clipPath id="clip0_12176_85754">
<rect width="113.487" height="116" fill="white" transform="translate(11.2563 10)"/>
</clipPath>
</defs>
</svg>
