<svg width="136" height="136" viewBox="0 0 136 136" fill="none" xmlns="http://www.w3.org/2000/svg">
<g clip-path="url(#clip0_12176_85755)">
<path d="M125.982 62.8124L125.968 62.3884L126 62.0982L125.959 62.1294L125.892 60.0726L125.779 56.6633L125.871 56.7977L125.776 56.2792L125.765 56.2189L125.764 56.1915L125.756 55.9478L125.721 55.9802L124.786 50.8829L124.986 51.1768L124.698 50.3446L124.676 50.2821L124.631 50.0358L124.602 50.0682L122.755 44.7442L122.763 44.7336L122.729 44.6701L122.654 44.4529L122.631 44.484L120.007 39.5409L120.015 39.5293L119.968 39.467L119.869 39.2802L119.855 39.3019L119.278 38.452L119.277 38.4512L118.588 37.436L118.026 36.6106L118.039 36.6102L117.898 36.4219L117.865 36.3595L117.852 36.36L114.73 32.1781L114.513 31.8867L114.558 31.8821L114.371 31.6974L114.334 31.6473L114.322 31.6485L110.335 27.7092L110.387 27.7005L110.151 27.5269L110.111 27.4876L110.1 27.4895L105.541 24.1341L105.598 24.1204L105.331 23.976L105.312 23.9655L105.271 23.9355L105.27 23.9357L104.711 23.5233L104.838 23.7089L100.209 21.2022L100.271 21.1827L99.9353 21.0542L99.4715 20.8031L99.5407 20.9031L94.4269 18.944L94.4933 18.9177L94.151 18.833L94.1123 18.8235L94.0729 18.8084L93.7303 18.6772L93.774 18.7398L90.5413 17.9403L88.2832 17.3818L88.3523 17.3484L87.9322 17.295L87.8944 17.2856L87.606 17.2143L87.6364 17.2574L81.8699 16.5251L81.9393 16.4844L81.4912 16.4771L81.4543 16.4724L81.2071 16.441L81.2298 16.4728L78.0062 16.4201L75.2751 16.3754L75.3412 16.3281L74.88 16.369L74.6312 16.3649L74.6489 16.3895L68.5871 16.9264L68.6453 16.8749L68.266 16.9474L68.1932 16.9613L67.9731 16.9808L67.9876 17.0006L65.0076 17.5699L61.8953 18.1645L61.9405 18.113L61.6026 18.2123L61.523 18.2356L61.4862 18.2427L61.3286 18.2728L61.3408 18.2892L55.282 20.0686L55.3104 20.0226L55.0411 20.1303L54.9557 20.1645L54.7842 20.2149L54.7948 20.2289L52.9707 20.9588L48.8345 22.6139L48.8455 22.5794L48.6666 22.6712L48.5772 22.7169L48.5266 22.7372L48.4256 22.7777L48.435 22.7899L42.6444 25.7598L42.6429 25.739L42.5604 25.7916L42.4684 25.8501L42.3348 25.9187L42.3434 25.9297L36.8087 29.4544L36.8018 29.4449L36.7018 29.5225L36.5868 29.5957L36.5947 29.6057L34.4197 31.295L31.4542 33.5982L31.4464 33.5884L31.3508 33.6785L31.2521 33.7552L31.1836 33.8085L31.2037 33.8171L26.5834 38.1704L26.5745 38.1596L26.4797 38.2681L26.3967 38.3464L26.2603 38.4748L26.2981 38.4761L22.2508 43.1116L22.2405 43.0992L22.1736 43.1933L22.1484 43.2289L22.0804 43.3068L21.9027 43.5105L21.9566 43.4994L18.5097 48.3595L18.4974 48.3449L18.4299 48.465L18.4106 48.4993L18.1688 48.8401L18.233 48.8154L15.4064 53.8484L15.3913 53.8307L15.3136 54.0138L15.1009 54.3924L15.1682 54.3562L13.318 58.7135L12.9803 59.5087L12.9612 59.4867L12.8975 59.7038L12.7298 60.0986L12.7944 60.0545L11.369 64.9071L11.2633 65.2669L11.2383 65.2386L11.2023 65.457L11.1958 65.4969L11.0803 65.89L11.1391 65.8414L10.6655 68.7203L10.2824 71.0495L10.2483 71.0113L10.2376 71.3218L10.229 71.374L10.1756 71.6986L10.2263 71.6491L10.1179 74.7978L10.0497 76.7774L10 76.7224L10.0384 77.1024L10.0264 77.4527L10.069 77.404L10.5711 82.3663L10.4925 82.2797L10.5987 82.7113L10.6111 82.7617L10.6433 83.0791L10.6779 83.0328L11.8354 87.7318L11.6921 87.574L11.9572 88.2264L12.0264 88.5073L12.0538 88.4643L13.07 90.9657L13.798 92.7577L13.4581 92.3876L14.0351 93.3659L14.067 93.42L14.1658 93.6631L14.1871 93.6235L15.6564 96.1145L16.887 98.2009L16.882 98.2122L16.9255 98.266L17.0466 98.4713L17.0625 98.4356L18.3234 99.9966L20.4505 102.63L20.4463 102.642L20.5015 102.693L20.6387 102.863L20.6443 102.847L20.8532 103.073L21.315 103.574L21.6584 103.946L22.1257 104.453L22.476 104.833L22.7784 105.16L22.7559 105.165L22.9338 105.329L22.9768 105.383L22.9887 105.38L24.5211 106.798L27.0123 109.104L26.9705 109.115L27.1876 109.266L27.2334 109.308L27.2443 109.305L31.858 112.507L31.8136 112.523L32.0686 112.653L32.1156 112.686L32.1161 112.685L33.0069 113.304L32.7088 112.979L37.2751 115.307L37.2296 115.328L37.5174 115.431L37.5657 115.455L37.5666 115.455L38.1387 115.748L38.0094 115.606L43.1942 117.452L43.149 117.478L43.4636 117.548L43.5117 117.565L43.9366 117.717L43.8647 117.637L45.9852 118.109L49.5404 118.899L49.4977 118.929L49.7869 118.959L49.8283 118.963L50.2113 119.048L50.1655 118.997L56.2226 119.611L56.1847 119.645L56.5187 119.641L56.8377 119.674L56.806 119.638L63.1476 119.563L63.1172 119.598L63.4377 119.56L63.4891 119.559L63.7092 119.556L63.6859 119.53L68.883 118.903L70.2096 118.743L70.1885 118.777L70.4117 118.726L70.4802 118.71L70.7121 118.682L70.694 118.661L77.2988 117.147L77.2877 117.177L77.5349 117.093L77.734 117.047L77.7194 117.03L84.2969 114.789L84.2948 114.813L84.4062 114.762L84.4895 114.724L84.5618 114.699L84.6591 114.666L84.6471 114.651L91.0836 111.701L91.0878 111.717L91.1399 111.687L91.229 111.634L91.3736 111.568L91.3633 111.555L96.3699 108.613L97.5339 107.928L97.5413 107.938L97.5446 107.936L97.639 107.867L97.7559 107.798L97.7601 107.795L97.7511 107.784L101.48 105.045L103.505 103.557L103.513 103.568L103.544 103.54L103.61 103.48L103.758 103.371L103.741 103.361L108.933 98.641L108.942 98.6535L109.04 98.5431L109.212 98.3866L109.185 98.3797L111.537 95.7287L113.73 93.2573L113.742 93.2725L113.804 93.1838L113.839 93.1351L114.021 92.9299L113.984 92.9295L117.815 87.4966L117.829 87.5156L117.922 87.3462L118.097 87.0981L118.052 87.1059L119.962 83.5895L121.12 81.4586L121.138 81.4833L121.202 81.3217L121.221 81.2733L121.372 80.9948L121.324 81.0108L123.595 75.2468L123.619 75.2804L123.684 75.0198L123.8 74.7243L123.752 74.7473L125.204 68.9694L125.238 69.0177L125.268 68.7433L125.274 68.6906L125.286 68.6416L125.349 68.3912L125.304 68.4194L125.93 62.737L125.982 62.8124ZM123.505 74.6806L123.046 74.0357L123.009 73.9835L123.003 73.975L123.79 70.8433L124.51 67.9832L125.009 68.6931L123.505 74.6806ZM97.5911 107.584L97.012 106.859L102.774 102.623L103.347 103.355L97.5911 107.584ZM97.3757 107.724L91.1995 111.355L90.6158 110.638L96.7981 107.001L96.8056 107.01L97.3757 107.724ZM84.2247 114.543L77.5419 116.82L76.9569 116.128L83.6457 113.846L84.2247 114.543ZM43.0616 117.133L37.6413 115.203L37.2082 114.729L42.6304 116.658L43.0616 117.133ZM36.9981 114.879L32.2127 112.439L31.9043 112.103L36.6885 114.54L36.6945 114.546L36.9981 114.879ZM31.2613 111.781L27.3523 109.069L27.3433 109.059L31.2457 111.764L31.2613 111.781ZM26.8829 38.2401L31.4602 33.9271L31.8142 34.0789L33.3615 34.7425L30.71 37.2387L29.5856 38.2972L29.5768 38.2909L29.5406 38.3324L26.8829 38.2401ZM42.6649 26.0373L48.4149 23.088L47.6028 25.6374L47.5424 25.6615L47.5463 25.672L43.4963 27.7439L42.8168 28.0915L42.6649 26.0373ZM54.6856 20.5485L54.1476 21.4216L52.8382 23.5462L52.7714 23.5658L52.7737 23.5765L47.9104 25.5148L48.7337 22.9303L54.6856 20.5485ZM61.1661 18.6075L58.214 21.9717L58.1461 21.9846L58.1468 21.9951L56.9725 22.3383L53.205 23.4391L55.081 20.3946L61.1661 18.6075ZM109.749 27.5491L97.6119 29.613L97.5758 29.5765L97.5634 29.5869L95.672 28.169L93.9973 26.9136L105.215 24.2125L109.749 27.5491ZM125.404 55.6688L125.29 55.5042L125.07 55.1846L124.099 49.8802L124.431 50.3651L125.404 55.6688ZM125.698 61.9542L125.283 61.3565L125.277 61.3482L125.27 61.1252L125.091 55.6665L125.51 56.2751L125.698 61.9542ZM14.3289 93.3602L19.5287 83.7065L19.5956 83.8177L21.7005 87.3165L21.6845 87.3275L21.723 87.3742L17.015 97.9143L14.3289 93.3602ZM81.5085 16.7376L87.4646 17.4939L79.7122 21.2507L79.6562 21.2366L79.651 21.2473L75.7928 20.7402L74.8998 20.6228L81.5085 16.7376ZM62.3729 118.418L55.7966 118.499L55.2341 117.866L61.8145 117.78L61.8202 117.787L61.929 117.911L62.3729 118.418ZM17.1797 98.1733L21.9049 87.5946L24.6243 90.8898L24.609 90.9026L24.6543 90.9436L22.5054 96.9175L20.5519 102.348L17.1797 98.1733ZM120.252 80.2591L117.088 86.0788L116.551 85.3497L116.544 85.3408L119.712 79.5152L119.73 79.5399L120.252 80.2591ZM113.02 91.8848L112.463 91.1441L116.395 85.5701L116.947 86.3183L113.02 91.8848ZM96.6368 106.799L90.4522 110.437L89.867 109.719L90.1595 109.546L96.0576 106.073L96.27 106.339L96.6368 106.799ZM42.267 116.257L36.8401 114.326L36.4052 113.85L41.832 115.777L41.8378 115.783L42.267 116.257ZM97.3621 29.7561L97.2751 29.8292L88.3669 37.3176L85.6931 35.265L93.7161 27.0227L97.3621 29.7561ZM30.4546 110.904L26.5456 108.194L26.5311 108.178L30.439 110.887L30.4535 110.903L30.4546 110.904ZM33.7876 34.7117L37.9568 31.4768L43.0209 37.9922L43.3018 38.3536L43.3012 38.354L43.3091 38.3641L40.1676 40.7898L40.1596 40.7813L40.1546 40.786L33.7876 34.7117ZM63.8364 21.1815L68.9921 20.7387L68.6052 22.594L67.0029 30.2767L66.96 30.2755L66.962 30.2906L63.1424 30.5915L63.8364 21.1815ZM61.5928 117.527L55.0093 117.612L54.445 116.976L55.4564 116.962L60.9869 116.886L60.9895 116.898L61.0371 116.892L61.1501 117.021L61.5928 117.527ZM31.3981 80.9744L33.4241 83.3753L33.3825 83.3831L33.4673 83.4581L30.0601 86.3215L24.8203 90.725L22.06 87.3803L31.3981 80.9744ZM43.6778 38.4191L47.0419 36.2958L52.3854 44.5079L55.1102 48.6956L55.0976 48.7019L55.1065 48.7132L52.8615 50.114L43.6778 38.4191ZM47.8702 25.8066L52.8277 23.8306L54.6838 32.5508L54.66 32.5576L54.6651 32.5698L52.0603 33.5937L50.9518 34.0294L47.8702 25.8066ZM55.0078 32.7245L58.8092 31.6369L63.2291 45.5374L63.1639 45.5486L63.1774 45.566L60.6886 46.2532L55.0078 32.7245ZM59.0594 31.5795L62.9058 30.879L64.8741 39.7467L66.0485 45.0375L65.9583 45.0436L65.9749 45.0651L63.4837 45.4936L59.0594 31.5795ZM122.107 72.721L121.606 72.0182L121.627 71.9667L121.613 71.9608L123.116 66.0011L123.619 66.7167L122.107 72.721ZM116.235 85.353L112.301 90.929L111.743 90.1856L115.681 84.603L116.235 85.353ZM68.6618 116.693L61.9234 117.516L61.3442 116.854L64.4448 116.473L68.0497 116.031L68.0533 116.042L68.0927 116.033L68.6618 116.693ZM63.1607 30.847L66.9952 30.545L67.6966 35.9185L68.8619 44.8476L66.3068 45.0201L63.1607 30.847ZM87.0826 40.3796L83.3619 49.752L81.6335 48.3916L85.5694 35.4928L88.216 37.5246L87.0826 40.3796ZM124.025 53.6676L123.693 53.1847L123.691 53.1185L123.676 53.1159L123.038 49.6196L122.717 47.8595L123.055 48.3527L124.025 53.6676ZM115.995 84.5977L115.836 84.3826L115.861 84.3479L115.848 84.34L119.005 78.5388L119.546 79.2854L116.376 85.1136L115.995 84.5977ZM107.509 96.3622L106.939 95.6201L109.683 92.5255L111.576 90.3901L112.139 91.1397L107.509 96.3622ZM107.328 96.5476L102.08 101.323L101.504 100.584L103.408 98.851L106.757 95.8027L107.111 96.2636L107.328 96.5476ZM40.3436 40.9775L43.4672 38.5655L49.7277 46.5378L52.6429 50.2503L52.6421 50.2507L52.6503 50.261L50.5554 51.864L40.3436 40.9775ZM74.9255 31.1814L74.2972 45.3345L71.8808 44.9645L71.278 30.6692L74.9255 31.1814ZM78.1903 46.8408L79.2393 47.2793L79.5717 47.7223L79.5698 47.7212L79.668 47.8517L77.7706 47.0572L77.3389 46.4849L78.1903 46.8408ZM75.2761 114.095L69.3109 99.9286L74.6882 98.0353L81.9875 111.797L75.2761 114.095ZM29.6514 110.03L29.6016 109.995L29.6357 110.013L29.6436 110.021L29.6514 110.03ZM31.6731 80.9034L44.6656 79.4189L46.0314 81.0029L43.0003 81.5733L33.713 83.3208L31.6731 80.9034ZM42.1652 73.3855L42.5531 73.8455L43.0158 75.5377L42.6278 75.0781L42.1652 73.3855ZM42.1459 65.5435L42.7563 63.3792L43.3331 64.0762L42.7248 66.2375L42.6247 66.1175L42.1459 65.5435ZM45.0376 58.5635L45.6341 59.2924L44.4617 61.399L44.1217 60.9868L43.8631 60.6732L44.079 60.2854L45.0376 58.5635ZM118.923 78.12L104.562 70.6348L106.485 65.8187L121.297 72.1051L118.923 78.12ZM42.3924 73.2579L42.0109 72.8055L41.7749 70.8943L42.2517 71.4623L42.4889 73.3723L42.4044 73.2722L42.3923 73.2576L42.3924 73.2579ZM58.0636 47.8595L58.4598 48.3645L56.09 49.5438L55.4941 48.7906L57.8671 47.6091L58.0636 47.8595ZM62.4117 47.2156L64.0958 46.7517L64.6732 47.4967L62.1643 48.1857L61.5859 47.4431L62.4117 47.2156ZM76.8758 46.2961L77.3596 46.9373L75.2336 46.3459L74.7495 45.7073L76.8758 46.2961ZM82.4709 49.3766L83.3251 50.0491L83.4634 50.2339L82.3114 49.3258L82.1746 49.1434L82.4709 49.3766ZM123.407 53.068L108.336 50.3802L107.556 45.8432L122.375 47.4092L123.407 53.068ZM115.631 84.2034L101.89 75.5536L104.453 70.8664L118.815 78.3526L115.631 84.2034ZM46.8958 101.539L50.3365 91.5152L54.166 91.8166L52.7616 98.55L52.0443 101.989L46.8958 101.539ZM72.4754 46.2307L72.9701 46.8807L70.5566 46.7823L70.0171 46.0774L72.4325 46.1745L72.4754 46.2307ZM107.3 45.8651L107.613 47.6848L108.079 50.391L96.3284 52.9093L96.2853 52.9185L95.7401 49.5762L107.3 45.8651ZM74.584 97.8005L69.235 99.6837L67.1719 89.9946L71.1275 88.5789L74.222 96.8347L74.584 97.8005ZM42.8664 66.8069L43.422 67.4734L43.1044 69.5978L42.5477 68.9331L42.8664 66.8069ZM63.6726 48.0371L64.8429 47.7157L65.418 48.4591L62.9117 49.1456L62.3348 48.4046L63.6726 48.0371ZM84.0574 51.0284L84.1914 51.2074L83.0423 50.3008L82.9088 50.1228L84.0574 51.0284ZM82.8463 81.5149L85.9235 78.6873L94.3379 84.6718L90.1622 88.4948L82.8463 81.5149ZM63.3119 86.6346L65.8556 86.2696L64.1155 88.7929L62.7004 90.8449L58.8587 91.3847L63.3119 86.6346ZM66.205 86.2137L68.7742 85.5704L66.9314 89.8025L63.0709 90.7585L66.205 86.2137ZM74.437 83.2594L75.0973 86.4251L73.5105 87.1785L71.3653 88.197L71.9274 84.4557L74.437 83.2594ZM71.6526 84.5624L71.0879 88.3211L69.2261 88.9874L67.2589 89.6914L69.0906 85.4848L71.6526 84.5624ZM52.4981 85.2381L54.6636 85.9355L50.2814 88.3254L46.3436 90.4729L43.062 89.393L52.4981 85.2381ZM46.7284 90.5547L55.0079 86.0396L57.3089 86.4806L50.2204 91.2438L47.109 90.6298L46.7284 90.5547ZM50.6244 91.2809L57.6731 86.5443L60.0812 86.7222L57.3619 88.9934L54.279 91.5684L52.0551 91.3934L50.6244 91.2809ZM95.5871 68.5341L93.4307 68.0376L94.8498 64.5128L106.234 65.7586L104.322 70.5454L95.5871 68.5341ZM89.9621 88.6578L85.3721 92.0683L79.2647 84.2101L82.6491 81.6805L84.178 83.1392L89.9621 88.6578ZM77.2875 81.5421L79.519 79.8718L82.4257 81.5276L79.1099 84.0061L77.2875 81.5421ZM81.7329 77.8475L85.6395 78.6007L82.6414 81.3556L79.7253 79.6945L81.7329 77.8475ZM91.1706 71.6646L90.1293 71.9089L85.5311 72.9877L86.7173 70.8303L92.9739 68.377L91.8043 70.5094L91.1706 71.6646ZM87.7479 68.2943L94.5166 64.6552L93.8886 66.2151L93.158 68.0296L90.2068 69.1869L86.8574 70.5003L87.7479 68.2943ZM88.4364 65.7246L95.5563 60.8727L94.6578 64.2883L87.846 67.9507L88.4364 65.7246ZM85.3568 73.2917L90.956 71.9781L88.7253 75.1346L83.8847 75.3766L85.3568 73.2917ZM83.6886 75.643L88.4968 75.4026L85.8658 78.3833L81.9382 77.6262L83.6886 75.643ZM99.5246 64.7667L94.9288 64.2637L95.8657 60.702L107.568 60.6749L106.319 65.5103L99.5246 64.7667ZM95.6473 60.5008L88.488 65.3795L88.7723 63.1568L96.0717 57.0922L95.9309 58.2232L95.6473 60.5008ZM96.1097 56.7277L93.4035 58.9761L88.7768 62.8203L88.7528 60.6338L96.0575 53.3748L96.078 54.6877L96.1097 56.7277ZM94.5216 84.4882L86.1034 78.5011L88.8235 75.4194L98.2103 80.3163L98.0272 80.5233L94.5216 84.4882ZM98.3746 80.1131L88.983 75.2137L91.3033 71.9302L101.519 75.6608L100.782 76.7035L98.3746 80.1131ZM101.66 75.4398L91.4391 71.7071L93.3216 68.2753L104.207 70.7818L102.954 73.0743L101.66 75.4398ZM108.208 55.3506L100.656 56.1756L96.3642 56.6445L96.3103 53.1751L108.101 50.6482L108.194 54.741L108.208 55.3506ZM96.0438 53.0274L88.7117 60.3136L88.3778 58.1925L95.5144 49.7819L96.0438 53.0274ZM88.1174 58.1838L88.4964 60.5917L88.5191 62.6516L88.5239 63.0828L88.2998 64.8342L88.1992 65.6208L87.9492 66.5634L87.5251 68.1626L86.5625 70.5475L86.5118 70.6731L85.1716 73.1103L84.4724 74.1006L83.5281 75.4379L83.0297 76.0026L81.602 77.6201L79.8838 79.2009L79.428 79.6202L77.0373 81.4094L74.8989 82.7007L74.4678 82.961L74.2179 83.0801L71.7614 84.251L70.1496 84.8313L68.9587 85.2601L67.0053 85.7492L66.1025 85.9753L63.2378 86.3863L60.4079 86.4894L57.656 86.2861L55.0183 85.7807L53.8996 85.4203L52.538 84.9817L50.2493 83.9063L48.1798 82.5702L46.7656 81.3448L45.9093 79.9896L45.6976 79.5104L44.9686 77.8596L44.4543 75.9864L44.3489 75.6021L44.0547 73.249L44.0806 71.554L44.0917 70.8339L44.4546 68.3895L45.1397 65.9505L45.5243 65.0254L46.138 63.5495L47.4327 61.221L49.0077 58.9964L50.8417 56.9066L52.9068 54.9809L54.5565 53.721L55.1792 53.2454L56.5419 52.3978L57.6255 51.7237L60.2123 50.4408L62.9026 49.4138L65.6642 48.6573L66.9957 48.4308L68.4517 48.1831L71.2325 48.0017L73.9608 48.117L74.5398 48.2068L76.602 48.5264L77.7935 48.8599L79.113 49.2293L80.6081 49.8566L81.4616 50.2147L83.6071 51.4708L85.5208 52.9803L86.4467 53.9592L87.3963 55.8926L88.1174 58.1838ZM51.2917 53.1752L51.4909 53.4236L51.8922 53.9239L50.0002 55.6881L49.3976 54.9419L51.2917 53.1752ZM62.0732 48.4854L62.4134 48.9223L62.6559 49.2338L60.203 50.1702L59.6183 49.4253L62.0198 48.5058L62.0732 48.4854ZM57.3734 51.5789L55.1359 52.9707L54.5397 52.2235L56.7804 50.8296L57.1922 51.3499L57.3734 51.5789ZM54.9253 53.1172L52.8463 54.7048L52.2482 53.9586L54.328 52.3686L54.9253 53.1172ZM53.5696 51.4158L54.1684 52.1683L52.0879 53.7588L51.4869 53.0097L53.5696 51.4158ZM50.7626 56.6302L50.1616 55.8878L50.5071 55.5655L52.0528 54.1242L52.6506 54.8698L50.7626 56.6302ZM57.5987 51.4512L57.0082 50.7049L57.1735 50.6227L59.3742 49.5288L59.9628 50.2786L57.5987 51.4512ZM56.8458 50.4996L56.2524 49.7491L58.6214 48.5702L59.2126 49.323L56.8458 50.4996ZM49.983 56.0741L50.5821 56.8142L48.9111 58.7184L48.3108 57.9807L49.5149 56.6079L49.983 56.0741ZM48.7467 58.9221L47.317 60.9417L46.7184 60.2107L48.1503 58.189L48.3753 58.4655L48.7467 58.9221ZM45.8749 63.5157L44.9821 65.6631L44.7018 65.3252L44.3957 64.9561L45.2896 62.8068L45.8749 63.5157ZM44.1944 68.4003L43.8792 70.5228L43.6083 70.1995L43.3239 69.8598L43.5829 68.1277L43.6414 67.7366L44.1944 68.4003ZM43.8352 70.8691L43.804 72.911L43.2803 72.2884L43.3115 70.2437L43.8352 70.8691ZM44.0427 75.2146L43.569 74.6534L43.561 74.5889L43.3319 72.7475L43.8045 73.3091L44.0427 75.2146ZM44.5708 77.3769L44.1873 76.9233L43.7239 75.2338L44.1071 75.688L44.5708 77.3769ZM44.7382 77.9715L45.322 79.293L45.1283 79.0646L44.7937 78.3057L44.5463 77.7445L44.7382 77.9715ZM76.2922 47.6753L78.347 48.2477L78.7053 48.7234L78.8253 48.8828L76.7048 48.2891L76.2254 47.6567L76.2922 47.6753ZM79.2366 49.0033L78.8101 48.437L80.7066 49.2322L81.1324 49.7988L79.2366 49.0033ZM81.6054 50.0022L81.2722 49.5588L82.8632 50.4887L83.1965 50.9337L81.6054 50.0022ZM84.9183 52.1789L83.7717 51.2744L83.6397 51.0983L84.7868 52.0034L84.9183 52.1789ZM82.1324 49.5137L82.4674 49.9608L80.8745 49.0297L80.5388 48.5834L82.1324 49.5137ZM73.7066 47.8498L71.2956 47.7479L70.7592 47.0471L73.1716 47.1454L73.7066 47.8498ZM74.0438 47.8706L73.5306 47.195L74.9645 47.417L75.8235 47.5501L76.3356 48.2257L74.0438 47.8706ZM70.4317 47.0403L70.5348 47.1751L70.9835 47.7611L68.4967 47.9234L67.9439 47.2038L69.0743 47.1295L70.4317 47.0403ZM67.642 47.2309L67.7725 47.4008L68.2058 47.965L65.6905 48.393L65.1235 47.6599L66.2297 47.4715L67.642 47.2309ZM46.5778 60.4432L47.1702 61.1666L46.0019 63.2676L45.4074 62.5473L46.3133 60.9186L46.5778 60.4432ZM44.305 65.2478L44.8775 65.938L44.272 68.0935L43.6985 67.4052L43.8225 66.9639L44.305 65.2478ZM42.5542 71.8224L43.0294 72.3877L43.2666 74.2947L42.7913 73.7309L42.5542 71.8224ZM78.0934 47.911L75.97 47.3195L75.4883 46.6827L77.6134 47.2739L78.0934 47.911ZM75.0871 46.5765L75.3364 46.9061L75.5633 47.2062L75.5627 47.2061L75.6008 47.2563L73.3074 46.9011L72.7916 46.2237L74.3875 46.4689L75.0871 46.5765ZM69.6897 46.0708L70.2238 46.7688L70.2445 46.7959L67.756 46.9593L67.1995 46.2367L69.6897 46.0708ZM56.0248 49.8739L56.3512 50.2868L56.6205 50.6274L54.379 52.0218L53.7811 51.2706L53.985 51.1436L56.0248 49.8739ZM49.2191 55.1283L49.4842 55.4567L49.8197 55.8722L48.1469 57.7793L47.5442 57.0388L49.2191 55.1283ZM43.0602 69.9438L43.029 71.9894L42.5027 71.363L42.5238 70.0235L42.535 69.3168L43.0602 69.9438ZM43.3309 74.7681L43.7946 76.4591L43.6495 76.2874L43.5966 76.2246L43.597 76.2253L43.4083 76.0022L42.9458 74.3114L43.3309 74.7681ZM39.6773 87.8173L50.1798 84.1566L52.1818 85.0975L45.8832 87.8708L42.7071 89.2693L41.8959 88.8806L39.6773 87.8173ZM42.7598 89.5632L46.1775 90.688L44.7645 93.6197L41.4861 100.422L36.9081 98.8641L42.7598 89.5632ZM54.6887 91.56L60.4544 86.7442L62.9432 86.6535L60.2516 89.5246L58.4599 91.4358L56.801 91.4904L54.6887 91.56ZM75.3316 86.2949L74.6727 83.1366L77.0752 81.6858L78.6035 83.7518L78.8969 84.1485L77.9066 84.7447L75.3316 86.2949ZM107.62 60.4186L95.912 60.4457L96.353 56.9035L108.192 55.6102L107.707 59.6848L107.62 60.4186ZM95.4524 49.4594L90.4486 55.3564L88.2948 57.8947L87.6569 55.8676L94.4534 46.3684L95.4524 49.4594ZM81.399 48.5359L81.4631 48.6215L81.7367 48.9863L80.141 48.0546L79.8034 47.6046L81.399 48.5359ZM80.2335 48.6035L80.4012 48.8264L78.5044 48.031L78.0764 47.4629L79.973 48.2572L80.2335 48.6035ZM67.4651 47.001L64.9458 47.4304L64.3764 46.6957L66.8975 46.2641L67.4651 47.001ZM61.8972 48.2592L61.9087 48.2741L59.4529 49.2143L58.8655 48.4666L61.3245 47.5241L61.8549 48.2049L61.8972 48.2592ZM45.8085 59.5052L46.4034 60.2302L45.2326 62.3352L44.8034 61.8138L44.6366 61.6111L45.3474 60.3338L45.8085 59.5052ZM44.5187 61.8707L45.1055 62.5835L44.2112 64.7336L43.8159 64.2574L43.6222 64.0239L44.0717 62.9441L44.5187 61.8707ZM43.5315 64.3154L44.1065 65.0086L43.4997 67.1668L42.9236 66.4757L42.9304 66.4515L43.5315 64.3154ZM42.2516 71.064L41.7235 70.435L41.7559 68.3871L42.284 69.017L42.2516 71.064ZM43.7659 76.8214L43.9619 77.0532L44.546 78.3784L44.3493 78.1464L44.1116 77.6066L43.7659 76.8214ZM46.4284 90.7567L50.0789 91.4771L46.6379 101.503L46.6374 101.504L41.7386 100.487L46.4284 90.7567ZM57.8881 101.839L58.6369 91.6746L62.655 91.11L63.307 101.116L60.5793 101.48L57.8881 101.839ZM63.5602 101.067L62.9083 91.0626L66.9259 90.0678L68.989 99.7576L63.5602 101.067ZM71.3642 88.4812L75.19 86.6646L76.0336 88.1731L80.0037 95.2722L74.8206 97.7031L71.3642 88.4812ZM85.5298 92.2702L90.1452 88.8408L91.0022 89.7539L101.137 100.552L95.369 104.799L85.5298 92.2702ZM106.763 95.4331L94.7213 84.6487L98.4321 80.4518L106.479 86.5068L111.397 90.2068L106.763 95.4331ZM98.5909 80.2507L101.754 75.7709L115.496 84.4209L111.556 90.0063L98.5909 80.2507ZM72.0509 45.2498L74.3481 45.6015L74.8647 46.2831L72.5682 45.9302L72.0509 45.2498ZM52.8099 50.4614L53.4101 51.2154L51.3267 52.8099L50.7231 52.0581L51.4315 51.5161L52.8099 50.4614ZM50.5278 52.2238L50.6863 52.4212L51.1309 52.9751L49.2363 54.7421L48.6322 53.9943L50.5278 52.2238ZM49.0558 54.9261L47.3803 56.8374L46.7749 56.0941L48.4538 54.1807L49.0558 54.9261ZM47.3838 57.2471L47.9827 57.9829L46.55 60.0054L45.9491 59.2729L46.6664 58.26L47.3838 57.2471ZM46.2366 81.2251L47.8366 82.6116L36.3483 85.6629L33.9443 83.538L46.2366 81.2251ZM36.6243 85.8547L48.0815 82.8117L49.8972 83.9838L45.4138 85.5466L39.3593 87.6569L37.7053 86.567L36.6243 85.8547ZM39.3786 87.9584L42.52 89.4637L38.4032 96.0073L36.6666 98.7674L32.4692 96.7005L39.3786 87.9584ZM32.3643 96.9343L36.5295 98.9853L36.5189 99.0022L36.5747 99.0212L35.053 112.479L29.8582 109.838L32.3643 96.9343ZM35.298 112.59L36.8227 99.1056L41.3741 100.654L41.3657 100.671L41.4209 100.683L41.0821 111.423L40.9817 114.604L35.298 112.59ZM52.3046 101.994L54.4256 91.825L58.379 91.6949L57.6299 101.861L55.8282 101.906L52.3046 101.994ZM80.2299 95.1524L75.4155 86.5434L79.0523 84.3539L85.1581 92.21L83.0116 93.4916L80.2299 95.1524ZM101.337 100.39L90.3424 88.677L94.5421 84.8319L106.583 95.615L101.337 100.39ZM121.374 71.8596L116.466 69.7763L106.567 65.5748L107.823 60.7117L122.907 65.783L121.374 71.8596ZM122.95 65.5273L115.494 63.0204L107.872 60.4581L108.448 55.6254L123.622 59.4913L122.95 65.5273ZM123.629 59.2284L119.417 58.1556L108.464 55.3651L108.357 50.6441L123.442 53.3345L123.629 59.2284ZM122.297 47.1433L112.253 46.082L107.511 45.5809L107.502 45.5311L107.482 45.5375L106.067 41.2985L120.451 41.8108L122.297 47.1433ZM69.4822 45.7995L69.5027 45.8265L67.0114 45.9925L66.4532 45.267L68.9466 45.0986L69.0518 45.2363L69.4822 45.7995ZM60.5718 46.5601L60.6881 46.709L61.1598 47.3129L58.7 48.2558L58.111 47.5055L59.732 46.8827L60.5718 46.5601ZM43.7452 60.9326L44.3346 61.6471L43.4378 63.8012L42.8472 63.0877L43.7452 60.9326ZM42.9858 75.8986L43.1827 76.1318L43.7662 77.4574L43.7295 77.4139L43.5687 77.2238L43.5399 77.1584L42.9858 75.8986ZM41.6752 100.736L43.0969 101.031L46.5535 101.749L46.5476 101.766L46.5997 101.77L46.6803 103.338L47.3327 116.025L41.2352 114.681L41.6752 100.736ZM61.1879 116.615L57.9046 102.095L63.3237 101.372L63.3247 101.387L63.3569 101.379L67.9701 115.782L61.1879 116.615ZM105.81 41.3368L107.239 45.6157L95.6785 49.3269L94.6546 46.159L105.81 41.3368ZM94.348 46.076L87.5361 55.5965L86.6021 53.6954L92.8973 43.1887L93.3953 44.1799L94.348 46.076ZM71.6921 45.2008L71.9777 45.5765L72.2041 45.8741L72.2312 45.91L69.8147 45.8128L69.2736 45.1049L71.0557 45.1756L71.6921 45.2008ZM64.7685 45.5325L66.1514 45.2947L66.7042 46.013L66.7206 46.0344L64.1985 46.4662L63.6273 45.7288L64.7685 45.5325ZM63.347 45.785L63.9125 46.5151L63.9261 46.5328L61.4154 47.2244L60.8332 46.479L62.0198 46.1514L63.347 45.785ZM55.2664 48.9155L55.8648 49.6717L53.6206 51.0689L53.0213 50.316L54.2453 49.5524L55.2664 48.9155ZM46.6144 56.3024L47.216 57.0411L45.7808 59.0675L45.2871 58.4642L45.1782 58.3311L46.3988 56.6068L46.6144 56.3024ZM42.0886 65.8744L42.6471 66.5439L42.3282 68.6713L41.7685 68.0036L41.9012 67.1206L42.0886 65.8744ZM43.3907 77.4236L44.5009 79.1798L31.4873 80.6667L29.8386 77.9942L43.3907 77.4236ZM36.3329 85.9694L39.1548 87.8288L35.529 92.4163L32.2439 96.5729L28.4828 94.0332L36.3329 85.9694ZM29.5726 109.967L29.5712 109.974L25.7362 107.316L25.721 107.299L26.7037 107.98L29.5726 109.967ZM30.602 110.686L30.2876 110.344L30.8115 110.61L35.0224 112.751L35.021 112.763L35.0866 112.787L35.3953 113.124L30.602 110.686ZM37.2589 113.556L40.9732 114.872L40.9729 114.885L41.0366 114.899L41.4687 115.376L36.0375 113.448L35.5995 112.968L37.2589 113.556ZM47.5911 116.069L46.857 101.793L51.9917 102.241L51.9881 102.258L52.0352 102.257L53.302 111.504L54.0149 116.708L47.5911 116.069ZM54.275 116.722L52.2925 102.251L57.611 102.118L57.6098 102.134L57.65 102.129L60.929 116.63L54.275 116.722ZM63.6063 101.319L69.0424 100.008L69.0453 100.022L69.069 100.014L70.0892 102.437L75.0276 114.165L68.2249 115.739L63.6063 101.319ZM88.9626 108.589L80.3624 95.3715L85.3169 92.4134L91.6882 100.526L95.154 104.939L88.9626 108.589ZM96.1116 105.73L95.5282 105L101.305 100.747L101.883 101.485L96.1116 105.73ZM119.14 78.2895L119.164 78.2459L119.151 78.2389L121.494 72.3021L122.019 73.0385L119.663 79.0114L119.14 78.2895ZM123.894 59.3608L123.901 59.2978L123.887 59.2941L123.708 53.658L124.132 54.2737L124.315 59.9664L123.894 59.3608ZM81.4106 48.246L79.4655 47.1107L82.3804 33.6586L85.3486 35.3398L81.4106 48.246ZM76.8439 46.0215L74.5509 45.3864L75.1792 31.2349L78.6511 32.1493L76.8439 46.0215ZM57.9027 40.2796L60.4399 46.3218L60.3954 46.3341L60.407 46.349L57.9632 47.2878L51.058 34.263L54.7643 32.806L57.9027 40.2796ZM49.2392 50.835L50.3602 52.0301L48.4561 53.8085L37.3055 43.8093L40.1481 41.1431L49.2392 50.835ZM48.278 53.9927L46.5895 55.9171L34.6045 46.8775L37.1271 43.9932L48.278 53.9927ZM42.5456 63.1835L41.9472 65.3054L41.9202 65.2731L41.9006 65.4035L41.0562 65.1188L27.8095 60.6519L28.771 57.3152L42.5456 63.1835ZM41.5039 68.1409L41.4723 70.1358L41.4149 70.0673L41.4467 70.3245L27.1282 67.7938L27.2098 64.5L41.5039 68.1409ZM41.4796 70.5905L41.7092 72.4492L41.6121 72.3326L41.716 72.7127L35.132 72.0396L27.5075 71.2601L27.1441 68.0568L41.4796 70.5905ZM42.4274 75.2649L43.2665 77.1724L29.6978 77.7436L28.4639 74.852L42.4274 75.2649ZM28.3601 94.2594L32.0847 96.7743L32.072 96.7903L32.1263 96.8171L29.6259 109.692L24.9872 106.48L28.3601 94.2594ZM46.0282 115.999L47.3464 116.29L47.3471 116.303L47.4071 116.308L47.9034 116.862L41.9724 115.55L41.4685 114.994L46.0282 115.999ZM79.2492 113.006L82.109 112.027L82.1145 112.037L82.1352 112.027L82.2445 112.159L82.7135 112.723L76.0138 115.013L75.4235 114.316L79.2492 113.006ZM82.2272 111.703L74.9257 97.9368L80.1361 95.493L82.1263 98.5516L88.734 108.707L82.2272 111.703ZM123.668 66.341L123.355 65.8967L123.198 65.6736L123.213 65.6156L123.199 65.6108L123.851 59.7473L124.324 60.4281L123.668 66.341ZM122.605 47.2421L122.592 47.1745L122.578 47.173L120.978 42.5504L121.12 42.7593L122.743 47.4444L122.605 47.2421ZM120.327 41.55L105.98 41.039L105.964 40.991L105.946 40.9989L103.921 37.077L117.714 36.621L120.327 41.55ZM105.71 41.1007L101.451 42.9421L94.5572 45.922L93.0768 42.9761L103.66 37.1313L105.71 41.1007ZM92.7544 42.9296L86.4485 53.4538L85.2314 51.7073L90.8726 40.2895L90.9683 40.4238L92.7544 42.9296ZM90.6979 40.0654L85.0498 51.497L83.5665 49.93L88.4164 37.713L88.6666 37.971L90.6979 40.0654ZM79.2282 46.9971L77.0912 46.1037L78.8979 32.2346L82.1443 33.54L79.2282 46.9971ZM71.0209 30.6457L71.3016 37.3019L71.6236 44.9418L69.1192 44.8424L67.2526 30.54L68.0591 30.5626L71.0209 30.6457ZM50.8236 34.3672L57.7225 47.3802L57.6956 47.3906L57.7056 47.4033L55.3407 48.5807L47.2654 36.1699L50.8236 34.3672ZM34.4456 47.0786L39.3029 50.7421L46.431 56.1184L45.0101 58.1257L44.9971 58.1099L44.9714 58.1562L32.2766 50.1395L34.4456 47.0786ZM44.8467 58.3804L43.6882 60.4613L43.6724 60.4422L43.6445 60.5091L30.3507 53.5538L32.1399 50.356L44.8467 58.3804ZM27.7554 60.904L41.862 65.6609L41.5492 67.7419L41.511 67.6964L41.5082 67.8776L27.2304 64.2409L27.7554 60.904ZM27.5626 71.5234L41.7885 72.9775L42.2362 74.6157L42.038 74.3799L42.3131 75.0053L38.6473 74.8969L28.3671 74.5928L27.5626 71.5234ZM24.9986 90.9096L33.6613 83.6295L36.051 85.7419L36.0058 85.7539L36.1152 85.826L34.708 87.2715L28.2785 93.8759L24.9986 90.9096ZM48.3267 116.95L47.7847 116.346L50.451 116.611L54.0507 116.969L54.0523 116.981L54.1068 116.981L54.6394 117.581L48.3267 116.95ZM68.9618 116.649L68.3744 115.967L69.3111 115.751L75.1286 114.404L75.1332 114.415L75.1634 114.405L75.243 114.499L75.7393 115.085L68.9618 116.649ZM89.7034 109.518L89.1155 108.796L90.5642 107.942L95.3136 105.143L95.321 105.152L95.3218 105.152L95.8962 105.871L89.7034 109.518ZM79.534 21.4903L74.9891 30.9199L74.9377 30.9064L74.9369 30.9242L71.3151 30.4157L74.6007 20.8419L79.534 21.4903ZM36.9266 43.8338L34.3996 46.723L34.3895 46.7153L34.3778 46.7317L26.2482 42.4916L29.6171 38.634L36.9266 43.8338ZM43.5456 60.7465L42.6628 62.8649L42.6424 62.8403L42.6157 62.9349L29.2957 57.2602L28.8556 57.0727L30.2386 53.7843L43.5456 60.7465ZM31.0988 111.226L35.886 113.661L36.1974 114.002L31.4087 111.563L31.0988 111.226ZM82.9664 112.627L82.376 111.917L84.8638 110.771L88.8752 108.924L88.8817 108.934L88.8924 108.927L89.4189 109.574L89.4701 109.636L82.9664 112.627ZM96.2714 105.931L102.04 101.687L102.049 101.698L102.616 102.422L96.8521 106.658L96.2714 105.931ZM107.675 96.5787L107.667 96.569L110.274 93.6288L112.296 91.3487L112.308 91.3639L112.468 91.5776L112.858 92.0953L108.234 97.3082L107.675 96.5787ZM124.895 60.7997L124.584 60.3523L124.4 54.6634L124.822 55.2765L125.008 60.9625L124.895 60.7997ZM124.716 54.6705L124.661 54.5903L124.379 54.1818L123.786 50.935L123.41 48.8715L123.744 49.361L124.716 54.6705ZM123.291 48.2448L122.588 46.2149L121.671 43.5659L121.81 43.7702L123.431 48.4501L123.291 48.2448ZM103.525 36.9137L103.234 37.0741L92.9452 42.7561L91.0325 40.073L100.894 33.31L103.274 36.5707L103.525 36.9137ZM100.725 33.1153L92.5743 38.7051L90.8692 39.8745L88.5582 37.4913L97.5601 29.9242L100.725 33.1153ZM93.494 26.8838L85.4781 35.1188L82.4852 33.4237L89.4267 24.6404L93.494 26.8838ZM84.5087 22.7283L78.7412 31.8953L78.6871 31.8736L78.6846 31.8932L75.2412 30.9863L79.7959 21.5361L84.5087 22.7283ZM74.3358 20.8259L71.057 30.3794L71.0094 30.3727L71.0101 30.3891L67.2628 30.284L69.2561 20.7264L74.3358 20.8259ZM26.0845 42.695L34.2283 46.9427L32.0885 49.9623L32.0599 50.0027L32.0484 49.9954L32.0358 50.018L23.9567 47.0684L23.1823 46.7857L26.0845 42.695ZM18.5672 56.1622L28.5232 57.2515L27.996 59.0811L27.5668 60.5702L27.5499 60.5645L27.5433 60.6064L17.2623 60.6306L18.5672 56.1622ZM26.8865 68.0557L27.247 71.2335L27.2215 71.2309L27.2376 71.2922L16.7719 74.6516L16.3138 70.3209L26.8865 68.0557ZM16.8147 74.907L27.3026 71.5404L27.7909 73.4037L28.1005 74.5849L28.0715 74.5841L28.1 74.651L17.8667 79.0737L16.8147 74.907ZM17.9461 79.3185L28.2005 74.8866L29.4244 77.7551L29.3913 77.7565L29.4355 77.8281L26.0314 79.7077L19.5858 83.2668L17.9461 79.3185ZM19.7007 83.4959L29.57 78.0463L31.2064 80.6988L31.1692 80.7031L31.2322 80.7776L21.9118 87.1715L19.7007 83.4959ZM24.8595 91.1292L25.8425 92.0181L28.0998 94.0595L28.0856 94.074L28.1364 94.1083L24.7723 106.297L20.7444 102.569L24.8595 91.1292ZM49.1195 117.833L48.5808 117.233L50.1129 117.386L54.8899 117.864L54.8956 117.87L55.3675 118.401L55.4263 118.467L49.1195 117.833ZM62.1276 117.749L68.863 116.926L69.4342 117.59L62.7039 118.407L62.1276 117.749ZM76.7793 115.918L76.1915 115.223L82.8888 112.934L83.4705 113.635L76.7793 115.918ZM102.814 102.259L102.239 101.525L107.485 96.7516L108.054 97.4936L102.814 102.259ZM120.369 79.9852L119.889 79.323L119.842 79.2574L122.196 73.2866L122.72 74.0191L120.369 79.9852ZM123.89 66.657L124.546 60.7469L125.018 61.4241L124.364 67.3309L123.89 66.657ZM89.1859 24.5323L87.8062 26.2781L82.2512 33.3069L78.9825 31.9924L84.7628 22.8051L89.1859 24.5323ZM63.577 21.2199L63.038 28.5298L62.8845 30.6119L62.8472 30.6148L62.8502 30.6286L59.0117 31.3277L58.4162 22.1942L63.577 21.2199ZM58.1639 22.2571L58.7583 31.3739L58.7274 31.3796L58.7316 31.3925L54.9304 32.4802L53.0712 23.7452L58.1639 22.2571ZM47.6368 25.9134L48.0666 27.0601L50.7137 34.123L50.6975 34.1294L50.7036 34.1409L47.9686 35.5265L47.132 35.9503L42.88 28.3469L47.6368 25.9134ZM42.6579 28.474L46.9034 36.0661L46.8952 36.0703L46.9021 36.081L43.5192 38.2163L38.1667 31.3298L42.6579 28.474ZM33.591 34.8781L39.9676 40.9614L37.1142 43.6378L37.1052 43.6297L37.0961 43.6401L29.7984 38.4486L33.591 34.8781ZM23.0391 47.0062L31.909 50.2445L30.9135 52.0238L30.1238 53.4351L30.1107 53.4283L30.0985 53.4573L20.6416 51.2797L23.0391 47.0062ZM20.5223 51.515L29.9977 53.697L29.5191 54.8351L28.6202 56.9724L28.6054 56.9661L28.5952 57.0016L27.2185 56.851L18.6595 55.9146L20.5223 51.515ZM27.503 60.8627L27.2205 62.6578L26.9814 64.1774L26.962 64.1725L26.9608 64.221L16.4739 65.3659L17.2004 60.887L27.503 60.8627ZM16.4451 65.6269L26.9544 64.4795L26.8735 67.7488L26.8513 67.7449L26.8575 67.7998L16.3074 70.0602L16.4451 65.6269ZM42.7708 116.432L42.2697 115.878L48.197 117.189L48.2028 117.195L48.4837 117.508L48.6956 117.744L42.7708 116.432ZM69.7342 117.547L69.1505 116.868L75.9254 115.305L75.9314 115.312L76.4294 115.901L76.5046 115.989L69.7342 117.547ZM83.7235 113.538L83.1358 112.831L87.6028 110.777L89.637 109.841L90.2187 110.556L83.7235 113.538ZM122.808 73.7018L122.433 73.1775L122.302 72.9944L123.814 66.993L124.316 67.7069L122.808 73.7018ZM114.216 31.9167L117.541 36.3703L103.79 36.8249L103.767 36.78L103.751 36.789L101.159 33.239L114.216 31.9167ZM124.118 49.4536L123.981 49.2532L122.871 46.0503L122.362 44.5815L122.497 44.7796L124.118 49.4536ZM113.992 31.6819L100.984 32.9992L100.954 32.9582L100.94 32.9681L97.8325 29.8353L110.025 27.762L113.992 31.6819ZM102.564 24.5874L93.7313 26.7142L93.6896 26.6829L93.6792 26.6936L89.7173 24.5082L99.8685 21.3094L104.888 24.0275L102.564 24.5874ZM99.4928 21.1591L93.7202 22.9782L89.4074 24.3372L89.3605 24.3114L89.3521 24.3221L88.2431 23.8891L85.0611 22.6466L94.0744 19.0833L99.4928 21.1591ZM89.3586 20.6721L84.7104 22.5097L84.6589 22.4896L84.6522 22.5003L80.0981 21.3483L87.9227 17.5566L93.654 18.974L89.3586 20.6721ZM81.0235 16.7256L77.6426 18.7133L74.4869 20.5686L74.4269 20.5607L74.4232 20.5714L69.5412 20.4758L74.9249 16.6259L81.0235 16.7256ZM73.2299 17.5231L69.1125 20.4674L69.049 20.4662L69.0468 20.4768L64.0919 20.9024L68.264 17.2122L74.4282 16.6662L73.2299 17.5231ZM67.0758 17.9214L63.6638 20.9391L63.5973 20.9448L63.5965 20.9555L62.9364 21.0801L58.6224 21.8946L61.6204 18.4779L67.7762 17.3018L67.0758 17.9214ZM42.5687 28.2043L42.5697 28.2179L42.527 28.2398L42.5328 28.2501L38.7067 30.6831L38.0126 31.1245L36.9587 29.6625L42.4194 26.1849L42.5687 28.2043ZM36.7493 29.8099L37.2771 30.542L37.7962 31.2621L37.792 31.2647L37.7997 31.2746L33.6002 34.5329L33.5922 34.5253L33.5649 34.551L31.6837 33.7442L36.7493 29.8099ZM26.6278 38.4876L29.3233 38.5812L26.0147 42.3697L26.0051 42.3647L25.9698 42.4144L22.5947 43.1069L26.6278 38.4876ZM22.3237 43.4241L23.8074 43.1196L25.7526 42.7206L22.933 46.6947L22.9226 46.6909L22.8919 46.7455L18.8686 48.2959L22.3237 43.4241ZM18.6077 48.671L22.6955 47.0957L21.6131 49.0251L20.3818 51.2199L20.3706 51.2173L20.3463 51.2747L15.7562 53.7484L18.6077 48.671ZM15.5287 54.1619L20.1867 51.6516L19.7125 52.7713L18.3939 55.8856L18.3819 55.8842L18.3647 55.9432L13.3066 59.395L15.5287 54.1619ZM13.128 59.8269L18.2516 56.3303L17.9323 57.4238L16.9956 60.6313L16.9827 60.6313L16.973 60.691L11.5614 65.1605L13.128 59.8269ZM11.4391 65.5936L16.9108 61.0744L16.6396 62.7461L16.2101 65.3947L16.1963 65.3962L16.1944 65.456L15.964 65.6814L10.5547 70.97L11.4391 65.5936ZM10.4912 71.3901L16.183 65.8252L16.0667 69.5723L16.0498 70.1153L16.0352 70.1185L16.0414 70.1775L13.7634 72.7855L10.3068 76.7427L10.4912 71.3901ZM10.2994 77.1401L16.0781 70.5246L16.5232 74.7314L16.5078 74.7363L16.5224 74.7937L10.8316 82.4001L10.2994 77.1401ZM10.8762 82.7679L16.603 75.1132L17.6289 79.1765L17.6131 79.1834L17.6359 79.2383L13.5883 85.583L12.1319 87.866L10.8762 82.7679ZM12.2225 88.1998L17.7555 79.5265L18.9274 82.3485L19.3604 83.3912L19.3444 83.4001L19.3753 83.4515L14.1983 93.0631L12.2225 88.1998ZM43.5664 117.309L43.0687 116.76L45.7793 117.36L48.9899 118.071L49.2497 118.361L49.4867 118.624L43.5664 117.309ZM49.9112 118.714L49.3738 118.116L55.6772 118.75L56.1032 119.231L56.2112 119.353L49.9112 118.714ZM56.5813 119.384L56.0214 118.752L58.8506 118.717L62.595 118.671L63.1509 119.307L56.5813 119.384ZM63.4818 119.296L62.9081 118.64L69.6353 117.824L69.641 117.831L69.7867 118L70.2046 118.485L63.4818 119.296ZM70.505 118.441L69.9231 117.766L73.4163 116.963L76.6907 116.21L77.1364 116.737L77.2671 116.891L70.505 118.441ZM83.8929 113.743L86.4798 112.555L90.3857 110.761L90.3925 110.77L90.9659 111.473L84.4778 114.447L83.8929 113.743ZM102.972 102.461L108.21 97.6975L108.305 97.8212L108.776 98.4369L103.545 103.193L102.972 102.461ZM108.957 98.2515L108.4 97.5247L108.393 97.5151L113.015 92.3043L113.15 92.485L113.573 93.0483L108.957 98.2515ZM113.735 92.8376L113.188 92.1088L113.181 92.0997L117.107 86.5354L117.655 87.2795L113.735 92.8376ZM117.797 87.04L117.585 86.7525L117.256 86.3063L120.418 80.489L120.954 81.2288L117.797 87.04ZM120.554 80.2396L120.548 80.231L122.897 74.2674L123.417 74.9983L121.071 80.9547L120.554 80.2396ZM125.058 68.3169L124.903 68.0972L124.586 67.6471L125.24 61.7437L125.707 62.417L125.058 68.3169Z" fill="#F3F3EF"/>
</g>
<defs>
<clipPath id="clip0_12176_85755">
<rect width="116" height="103.345" fill="white" transform="translate(10 16.3281)"/>
</clipPath>
</defs>
</svg>
