<svg width="136" height="136" viewBox="0 0 136 136" fill="none" xmlns="http://www.w3.org/2000/svg">
<path d="M112.586 61.3823C112.587 61.3762 112.587 61.3701 112.588 61.3641C112.675 60.2408 112.229 59.1244 111.252 58.0333L68.3507 10.1205L68.3036 10.0677L68.2629 10.0352C68.1925 9.99518 68.0806 9.99651 68.025 10.0045C68.0042 10.0074 67.9887 10.0134 67.972 10.0185L67.9511 10.0068L67.9315 10.034C67.9142 10.0433 67.8978 10.0531 67.8852 10.0667L67.8798 10.0726L24.7713 57.8676C24.7095 57.9363 24.6503 58.005 24.5926 58.0738C24.578 58.0914 24.5636 58.109 24.5492 58.1266C24.4706 58.2222 24.3968 58.3181 24.3263 58.4143C24.3165 58.4277 24.3049 58.4409 24.2952 58.4544C24.2887 58.4635 24.2835 58.4726 24.2771 58.4817C24.1955 58.5958 24.1197 58.7103 24.0494 58.8248C24.0391 58.8418 24.0294 58.8588 24.0192 58.8759C23.8728 59.1213 23.752 59.368 23.6576 59.6155C23.6541 59.6247 23.65 59.6341 23.6465 59.6435C23.6014 59.7645 23.5632 59.8857 23.5306 60.0071C23.5263 60.0227 23.5222 60.0385 23.5181 60.0541C23.4873 60.1747 23.4619 60.2953 23.4435 60.4162C23.4417 60.428 23.4404 60.44 23.4387 60.452C23.4211 60.5756 23.4087 60.6993 23.4039 60.8232C23.4038 60.8247 23.4037 60.8263 23.4035 60.8278C23.399 60.9487 23.4023 61.0699 23.4101 61.1909C23.4113 61.2101 23.4122 61.2293 23.4138 61.2485C23.4215 61.3432 23.4316 61.438 23.4468 61.5328C23.4498 61.5508 23.4548 61.5686 23.4579 61.5866C23.4601 61.5992 23.4605 61.6117 23.4628 61.6242L30.36 98.597C30.4567 99.2619 30.7758 99.9177 31.3122 100.561C31.3187 100.569 31.3255 100.577 31.3321 100.585C31.396 100.661 31.4623 100.737 31.5322 100.812C31.552 100.834 31.5727 100.855 31.5928 100.876C31.6541 100.941 31.7161 101.005 31.7818 101.069C31.8203 101.107 31.8615 101.145 31.9016 101.182C31.9543 101.232 32.0059 101.281 32.0611 101.331C32.1533 101.413 32.2494 101.495 32.3489 101.576C32.3563 101.583 32.363 101.589 32.3704 101.595C32.485 101.688 32.605 101.782 32.7291 101.874C32.7436 101.885 32.7592 101.896 32.7738 101.907C32.8806 101.986 32.9904 102.064 33.104 102.143C33.1134 102.149 33.1218 102.156 33.1312 102.162L67.7949 125.967L67.797 125.969L67.8085 125.976L67.8639 126L67.94 125.984L67.9431 125.983L67.9755 125.961L68.0212 125.933L68.021 125.93L68.1864 125.816L102.695 102.305C104.313 101.203 105.242 100.045 105.474 98.8533C105.475 98.8463 105.478 98.8393 105.479 98.8322L112.534 61.773C112.537 61.7608 112.537 61.7484 112.539 61.7362C112.561 61.6182 112.576 61.5002 112.586 61.3823ZM24.5267 58.857C24.5876 58.7645 24.6504 58.6721 24.719 58.5799C24.7505 58.5378 24.784 58.4957 24.8169 58.4537C24.8947 58.3548 24.9758 58.256 25.0626 58.1575C25.0899 58.1264 25.1171 58.0951 25.1453 58.064C25.2278 57.9735 25.3129 57.8833 25.4025 57.7935C25.4117 57.7842 25.4208 57.775 25.43 57.7657C25.7029 57.495 26.0114 57.2284 26.3479 56.9655L24.2503 59.3264C24.3086 59.2125 24.3714 59.0986 24.4418 58.9849C24.4682 58.9421 24.4986 58.8996 24.5267 58.857ZM104.865 99.4097C104.823 99.506 104.774 99.6019 104.721 99.6976C104.712 99.7153 104.703 99.7331 104.693 99.7508C104.635 99.8517 104.572 99.9523 104.504 100.052C104.48 100.088 104.452 100.124 104.426 100.159C104.386 100.215 104.344 100.27 104.301 100.326C104.252 100.388 104.201 100.449 104.148 100.511C104.133 100.529 104.117 100.546 104.102 100.564C103.681 101.04 103.135 101.509 102.463 101.971C101.58 102.577 100.498 103.153 99.2385 103.694L99.2898 103.38L104.884 99.368C104.882 99.3718 104.881 99.3754 104.879 99.379C104.875 99.3892 104.87 99.3995 104.865 99.4097ZM33.0262 101.586C33.0075 101.572 32.9886 101.558 32.9701 101.544C32.8668 101.466 32.7671 101.388 32.6711 101.31C32.6603 101.301 32.6492 101.292 32.6385 101.284C32.4223 101.106 32.2236 100.928 32.0437 100.749C32.0403 100.745 32.0372 100.742 32.0337 100.738C31.9547 100.659 31.8799 100.58 31.808 100.501C31.7678 100.456 31.7303 100.412 31.6922 100.367C31.6604 100.33 31.6283 100.292 31.5979 100.255C31.5521 100.198 31.5086 100.141 31.4663 100.085C31.4486 100.061 31.4308 100.037 31.4138 100.013C31.367 99.948 31.3223 99.8825 31.2801 99.8168C31.2718 99.804 31.2639 99.7911 31.2557 99.7783C31.007 99.3814 30.8436 98.9805 30.7682 98.5763C30.7113 98.2711 30.7063 97.965 30.7516 97.6589C30.7556 97.6317 30.7622 97.6045 30.767 97.5773C30.7669 97.5777 30.7671 97.5771 30.767 97.5773L33.6564 99.7823L34.0854 102.292C34.0383 102.263 33.9882 102.235 33.942 102.206C33.925 102.196 33.9071 102.185 33.8903 102.175C33.7199 102.068 33.5572 101.961 33.4015 101.854C33.3741 101.835 33.3471 101.816 33.32 101.797C33.2193 101.727 33.1212 101.657 33.0262 101.586ZM23.847 60.5998C23.85 60.5762 23.8554 60.5527 23.8588 60.5291L24.2618 62.707C24.2483 62.681 24.2349 62.6551 24.2219 62.6291C24.1995 62.5839 24.1765 62.5386 24.156 62.4933C24.1425 62.4632 24.131 62.4329 24.1182 62.4028L23.8289 60.8395C23.8304 60.8126 23.8298 60.7857 23.8317 60.759C23.8357 60.7058 23.8406 60.6528 23.847 60.5998ZM70.5636 12.9883L105.636 54.3666C105.577 54.3407 105.517 54.3153 105.458 54.2896C105.251 54.1993 105.04 54.1098 104.825 54.0214C104.76 53.995 104.697 53.9682 104.632 53.942C104.366 53.8341 104.094 53.7275 103.817 53.6225C103.755 53.5992 103.692 53.5762 103.629 53.5529C103.401 53.4678 103.169 53.3835 102.934 53.3002C102.853 53.2715 102.772 53.2426 102.69 53.2141C102.399 53.113 102.105 53.0131 101.804 52.915C101.764 52.9018 101.722 52.889 101.681 52.8759C101.414 52.7894 101.142 52.7043 100.868 52.6201C100.775 52.5917 100.681 52.5633 100.587 52.5351C100.312 52.4526 100.034 52.371 99.7524 52.2908C99.7063 52.2777 99.6615 52.2643 99.6153 52.2513C99.2953 52.161 98.9696 52.0727 98.6409 51.9856C98.5417 51.9594 98.4415 51.9334 98.3415 51.9073C98.0778 51.8387 97.8114 51.771 97.5423 51.7042C97.4579 51.6833 97.3744 51.662 97.2894 51.6413C96.9525 51.5589 96.6113 51.4782 96.2664 51.3989C96.169 51.3766 96.0704 51.3547 95.9725 51.3326C95.7004 51.2711 95.4259 51.2107 95.1493 51.1511C95.0435 51.1282 94.9382 51.1054 94.8318 51.0829C94.6415 51.0427 94.4495 51.0031 94.2571 50.9639L68.6584 10.8504L70.5636 12.9883ZM23.8266 61.1784L23.9887 62.054C23.9863 62.0465 23.9838 62.0391 23.9814 62.0317C23.9661 61.9825 23.9503 61.9331 23.9371 61.8837C23.9236 61.8331 23.9128 61.7824 23.9016 61.7318C23.8904 61.6806 23.8786 61.6297 23.8697 61.5785C23.8617 61.5319 23.8578 61.4852 23.8516 61.4385C23.8402 61.3518 23.8312 61.2651 23.8266 61.1784ZM23.9215 60.1923C23.9429 60.1053 23.9706 60.0183 23.9988 59.9315L27.1134 56.4099C28.1677 55.6981 29.4554 55.0197 30.9561 54.3823L31.9188 60.7775L28.0746 66.1942C28.0518 66.1809 28.0292 66.1676 28.0066 66.1544C27.9239 66.1056 27.8405 66.0568 27.7603 66.0078C27.6852 65.962 27.6131 65.916 27.5401 65.8699C27.4633 65.8214 27.3859 65.7731 27.3115 65.7245C27.2387 65.6771 27.1689 65.6294 27.0984 65.5817C27.0284 65.5345 26.9578 65.4873 26.8902 65.4399C26.8193 65.3905 26.7517 65.3407 26.6834 65.291C26.6204 65.2452 26.5564 65.1994 26.4954 65.1533C26.4275 65.1021 26.3629 65.0509 26.2976 64.9995C26.2405 64.9546 26.1824 64.9097 26.1273 64.8648C26.0627 64.812 26.0012 64.7589 25.9391 64.706C25.888 64.6623 25.8358 64.6185 25.7864 64.5747C25.7252 64.5203 25.6673 64.4657 25.6089 64.4112C25.5631 64.3684 25.5164 64.3256 25.4724 64.2827C25.4153 64.2271 25.3614 64.1713 25.3073 64.1156C25.2663 64.0733 25.2244 64.0312 25.1851 63.9888C25.1328 63.9325 25.0837 63.8761 25.0345 63.8195C24.9976 63.7774 24.9598 63.7353 24.9247 63.6931C24.8775 63.6362 24.8336 63.5795 24.7894 63.5226C24.7565 63.4804 24.7228 63.4381 24.6916 63.3957C24.6498 63.3389 24.6111 63.282 24.5724 63.2251C24.5432 63.1822 24.5132 63.1396 24.4857 63.0967C24.4496 63.0403 24.4166 62.9837 24.3834 62.9273C24.3755 62.9139 24.3679 62.9005 24.3602 62.8873L23.8896 60.3442C23.8999 60.2937 23.9089 60.2429 23.9215 60.1923ZM67.7374 10.8257L52.2352 49.305C51.7771 49.3527 51.3205 49.4026 50.8655 49.4547C50.802 49.462 50.7383 49.4689 50.6749 49.4764C49.9961 49.5552 49.3211 49.6391 48.6502 49.7282L53.8745 39.0803L67.7374 10.8257ZM39.8909 104.797C39.8159 104.773 39.74 104.75 39.6657 104.725C39.5407 104.685 39.4182 104.643 39.2953 104.602C39.2216 104.577 39.1468 104.553 39.0739 104.528C38.9537 104.487 38.8362 104.445 38.718 104.403C38.6445 104.377 38.5699 104.352 38.4971 104.326C38.3836 104.285 38.2725 104.243 38.1611 104.202C38.0862 104.174 38.0103 104.146 37.9363 104.118C37.8281 104.077 37.7224 104.035 37.6161 103.994C37.5419 103.965 37.4665 103.936 37.3933 103.907C37.2884 103.865 37.1863 103.822 37.0835 103.78C37.0115 103.75 36.9385 103.721 36.8675 103.691C36.7667 103.648 36.6686 103.605 36.5698 103.562C36.4995 103.531 36.428 103.501 36.3588 103.47C36.2634 103.427 36.1708 103.384 36.0775 103.341C36.0075 103.309 35.9365 103.277 35.8676 103.244C35.7764 103.201 35.6878 103.157 35.5987 103.114C35.531 103.081 35.4622 103.048 35.3956 103.015C35.3085 102.971 35.2239 102.927 35.1388 102.882C35.073 102.848 35.0062 102.815 34.9416 102.78C34.8591 102.736 34.7795 102.692 34.6991 102.647C34.6425 102.616 34.5851 102.585 34.5295 102.554L34.1156 100.133L40.456 104.974C40.3955 104.955 40.3339 104.937 40.2738 104.918C40.1447 104.879 40.0179 104.838 39.8909 104.797ZM46.5957 50.3714C46.864 50.3306 47.1329 50.29 47.405 50.2508C47.7372 50.2028 48.0727 50.1561 48.4105 50.1103L48.9742 57.3993L43.4323 71.1555C43.3874 71.1471 43.3418 71.139 43.2971 71.1306C43.1853 71.1096 43.0749 71.0878 42.9637 71.0666C42.7813 71.0315 42.5988 70.9966 42.4181 70.9607C42.3063 70.9386 42.1958 70.9157 42.0846 70.8932C41.9072 70.8574 41.7296 70.8217 41.5539 70.7851C41.4409 70.7614 41.3293 70.7373 41.2169 70.7134C41.0456 70.6769 40.874 70.6406 40.7044 70.6035C40.5909 70.5786 40.4791 70.5532 40.3665 70.5279C40.1995 70.4906 40.0325 70.4535 39.8674 70.4154C39.7558 70.3897 39.6457 70.3633 39.5349 70.3373C39.3718 70.2991 39.2083 70.2609 39.047 70.2218C38.9353 70.1948 38.8253 70.1671 38.7145 70.1398C38.5563 70.1008 38.398 70.0619 38.2417 70.0222C38.1311 69.9941 38.0221 69.9653 37.9125 69.9369C37.7588 69.8971 37.6047 69.8574 37.4529 69.8168C37.3419 69.7872 37.2328 69.7571 37.1229 69.7271C36.9752 69.6868 36.8271 69.6468 36.6811 69.6058C36.5704 69.5748 36.4616 69.5433 36.3521 69.5119C36.2091 69.471 36.066 69.4303 35.9249 69.3888C35.8166 69.3569 35.71 69.3243 35.6027 69.2921C35.4634 69.2502 35.3238 69.2084 35.1864 69.1659C35.0795 69.133 34.9745 69.0993 34.8688 69.0659C34.7341 69.0233 34.5988 68.9809 34.4661 68.9376C34.3606 68.9033 34.2571 68.8686 34.153 68.8339C34.0229 68.7907 33.8925 68.7476 33.7643 68.7038C33.6606 68.6684 33.5589 68.6324 33.4565 68.5966C33.3957 68.5752 33.3352 68.5538 33.2749 68.5324L32.1549 61.092L38.6386 51.9191C40.983 51.3456 43.5594 50.8387 46.3378 50.4101C46.4232 50.3969 46.51 50.3844 46.5957 50.3714ZM63.6362 87.6658C63.5763 87.6676 63.5164 87.6695 63.4566 87.6714C62.8332 87.6911 62.2102 87.7151 61.588 87.7437C61.5418 87.7459 61.4956 87.7478 61.4496 87.75C60.1276 87.8123 58.8101 87.8951 57.5022 87.9988C57.451 88.0028 57.4 88.0071 57.3488 88.0113C56.7411 88.0603 56.1357 88.1139 55.5328 88.1719C55.4667 88.1783 55.4008 88.1847 55.3349 88.1912C54.7338 88.2501 54.1356 88.3137 53.5407 88.3819C53.4884 88.3879 53.4358 88.3936 53.3837 88.3997C52.7579 88.4724 52.1357 88.5499 51.518 88.6328L50.268 72.4664C50.3603 72.4778 50.4535 72.4886 50.5461 72.4998C50.9136 72.544 51.2825 72.587 51.6539 72.6284C51.7068 72.6342 51.7592 72.6406 51.8122 72.6465C52.2278 72.6924 52.6464 72.7359 53.0664 72.7784C53.1885 72.7906 53.3107 72.8026 53.433 72.8147C53.7802 72.8487 54.129 72.8816 54.4791 72.9134C54.5705 72.9217 54.6613 72.9304 54.753 72.9385C55.1771 72.976 55.6033 73.0117 56.0311 73.0458C56.1466 73.0551 56.2625 73.0638 56.3782 73.0727C56.7251 73.0995 57.0732 73.1251 57.4222 73.1496C57.5331 73.1574 57.6435 73.1655 57.7544 73.173C58.1889 73.2025 58.625 73.2303 59.0625 73.2562C59.159 73.2619 59.256 73.267 59.3527 73.2725C59.7156 73.2933 60.0796 73.3128 60.4445 73.3312C60.5644 73.3372 60.6843 73.3432 60.8045 73.349C61.2496 73.3702 61.6959 73.3902 62.1435 73.4076C62.2044 73.4101 62.2656 73.4119 62.3265 73.4142C62.7239 73.4294 63.1222 73.4428 63.5212 73.4549C63.6445 73.4587 63.7677 73.4624 63.891 73.4658C64.168 73.4736 64.4453 73.4804 64.7229 73.4868L64.9003 87.6332C64.479 87.6418 64.0576 87.6531 63.6362 87.6658ZM51.5337 88.9287L53.7672 93.9876L51.5232 88.93C51.5266 88.9295 51.5301 88.9291 51.5337 88.9287ZM60.0818 108.131L51.7504 89.2614L51.5998 88.9205C52.1835 88.8427 52.7704 88.7689 53.3612 88.7002C53.415 88.694 53.4688 88.6881 53.5226 88.6819C54.1159 88.614 54.7123 88.5507 55.3116 88.4919C55.3829 88.4849 55.4544 88.4779 55.5259 88.4711C56.1213 88.4137 56.7195 88.3608 57.3197 88.3124C57.3814 88.3074 57.4431 88.3021 57.5048 88.2973C58.1437 88.2467 58.7847 88.2008 59.4277 88.1601C59.4559 88.1584 59.4841 88.1566 59.5123 88.1548C60.1453 88.1152 60.78 88.0807 61.4156 88.0505C61.491 88.047 61.5665 88.0438 61.6419 88.0404C62.2326 88.0134 62.8242 87.9905 63.416 87.9716C63.5059 87.9688 63.596 87.966 63.6858 87.9633C64.0919 87.9512 64.498 87.9435 64.9041 87.9352L65.1599 108.345C63.4483 108.306 61.7515 108.234 60.0818 108.131ZM70.2663 87.6313C70.2228 87.6304 70.1791 87.6298 70.1355 87.6291C69.7844 87.6225 69.4327 87.6175 69.0806 87.6137C68.9928 87.6127 68.9051 87.6117 68.8172 87.611C67.762 87.6016 66.7031 87.6046 65.6431 87.6204C65.5983 87.6211 65.5536 87.622 65.5089 87.6227C65.3313 87.6255 65.1536 87.6282 64.9761 87.6317L64.7987 73.4885C64.9385 73.4917 65.0783 73.4952 65.2182 73.498C65.2333 73.4983 65.2484 73.4988 65.2635 73.499C65.7217 73.5079 66.181 73.5141 66.6406 73.519C66.7598 73.5204 66.8789 73.5213 66.998 73.5224C67.3995 73.5259 67.8012 73.5278 68.2034 73.5282C68.2536 73.5283 68.3036 73.5289 68.3539 73.5289C68.3651 73.5289 68.3763 73.5287 68.3875 73.5287C69.1745 73.5286 69.9625 73.5224 70.7512 73.5106C70.7794 73.5101 70.8077 73.5096 70.8358 73.5091L70.6265 87.6392C70.5064 87.6365 70.3865 87.6337 70.2663 87.6313ZM50.1178 72.1856C50.0092 72.172 49.8998 72.1589 49.7916 72.1452C49.6838 72.1316 49.5769 72.1171 49.4692 72.1032C49.256 72.0755 49.0428 72.048 48.831 72.0193C48.722 72.0045 48.6139 71.9893 48.5052 71.9742C48.2957 71.9454 48.0861 71.9164 47.8781 71.8866C47.7692 71.8711 47.6614 71.8549 47.553 71.839C47.3481 71.8089 47.1431 71.779 46.9398 71.7482C46.8281 71.7313 46.7175 71.7137 46.6063 71.6963C46.4072 71.6655 46.2079 71.6348 46.0105 71.603C45.8987 71.585 45.7882 71.5665 45.6771 71.5483C45.4819 71.5164 45.2868 71.4845 45.0934 71.4516C44.9809 71.4327 44.8697 71.4129 44.7577 71.3936C44.5681 71.3609 44.3783 71.3281 44.1903 71.2946C44.0759 71.274 43.963 71.253 43.8492 71.2323C43.7597 71.2159 43.6704 71.1994 43.5813 71.1829L48.9968 57.6906L50.1178 72.1856ZM32.7793 68.3536C32.6581 68.3089 32.5366 68.2644 32.4174 68.2192C32.3168 68.1812 32.2184 68.1426 32.1193 68.104C32.0036 68.0592 31.8874 68.0144 31.7736 67.9689C31.6745 67.9294 31.5776 67.8892 31.4799 67.8492C31.3696 67.804 31.2587 67.759 31.1504 67.7133C31.0533 67.6725 30.9586 67.6311 30.8631 67.5898C30.757 67.5438 30.6505 67.4981 30.5464 67.4517C30.4523 67.4098 30.3604 67.3673 30.268 67.325C30.1665 67.2786 30.0643 67.2322 29.9647 67.1852C29.8727 67.1418 29.7831 67.0979 29.6927 67.0542C29.5962 67.0074 29.4991 66.9606 29.4044 66.9134C29.3154 66.8689 29.2289 66.824 29.1416 66.779C29.049 66.7315 28.956 66.6839 28.8654 66.6358C28.7798 66.5904 28.6964 66.5444 28.6126 66.4985C28.5453 66.4617 28.4778 66.4249 28.4116 66.3877L31.9993 61.312L33.0757 68.4623C32.9759 68.4264 32.878 68.3899 32.7793 68.3536ZM43.7795 71.4879C44.0799 71.5424 44.3823 71.5959 44.6868 71.6484C44.7917 71.6665 44.8959 71.6849 45.0012 71.7027C45.3825 71.7671 45.7665 71.8301 46.154 71.8914C46.2395 71.905 46.3262 71.9179 46.4122 71.9312C46.732 71.9811 47.0537 72.0297 47.3775 72.0772C47.4948 72.0945 47.6121 72.1118 47.73 72.1288C48.1271 72.1858 48.5261 72.2418 48.9288 72.2955C48.9806 72.3023 49.033 72.3088 49.0848 72.3156C49.434 72.3618 49.7852 72.4065 50.1383 72.4501L51.391 88.6501C51.0576 88.6955 50.7272 88.7419 50.4001 88.7896C50.3499 88.797 50.3005 88.8047 50.2504 88.8121C48.575 89.059 46.9862 89.3384 45.4905 89.6469L43.5461 71.446C43.6233 71.4603 43.7021 71.4739 43.7795 71.4879ZM48.9857 57.5463L43.5169 71.171C43.5102 71.1698 43.5034 71.1686 43.4967 71.1672L48.9854 57.5432L48.9857 57.5463ZM33.1443 68.4865L32.0528 61.2364L32.1014 61.1676L33.2063 68.5084C33.1857 68.501 33.1647 68.4938 33.1443 68.4865ZM43.4805 71.4336L45.4277 89.6598L45.4043 89.6646L43.4557 71.4292L43.4805 71.4336ZM49.0933 57.2752L49.4035 56.5052L49.0934 57.2776L49.0933 57.2752ZM33.34 68.8551C33.5834 68.9395 33.8303 69.0228 34.0806 69.1051C34.1559 69.1299 34.2308 69.1548 34.3067 69.1794C34.6109 69.278 34.9193 69.3752 35.2332 69.4706C35.2842 69.486 35.3364 69.5012 35.3875 69.5165C35.6599 69.5984 35.9362 69.6791 36.2156 69.7588C36.3025 69.7836 36.3895 69.8084 36.4772 69.8329C36.8046 69.9247 37.1352 70.0154 37.4718 70.1041C37.4884 70.1085 37.5053 70.1127 37.5219 70.1171C37.8441 70.2016 38.1716 70.2844 38.5019 70.366C38.5979 70.3899 38.6942 70.4134 38.7909 70.4369C39.095 70.5108 39.4017 70.5836 39.7121 70.6551C39.7615 70.6664 39.81 70.678 39.8595 70.6894C40.2115 70.7696 40.5683 70.8479 40.9281 70.9252C41.0287 70.9467 41.1301 70.9678 41.2313 70.9892C41.5254 71.0511 41.822 71.1119 42.121 71.1716C42.2055 71.1886 42.289 71.2059 42.3739 71.2226C42.7098 71.2887 43.0483 71.3538 43.3902 71.4172L45.3415 89.6776C42.0008 90.3737 39.1342 91.2162 36.8329 92.1723L33.3224 68.8491C33.3283 68.851 33.3342 68.8531 33.34 68.8551ZM45.3728 89.9705L46.7668 103.016L36.959 92.4213C39.2424 91.4876 42.0804 90.6576 45.3728 89.9705ZM45.4356 89.9577L45.459 89.9529L46.8661 103.123L46.8394 103.095L45.4356 89.9577ZM45.5218 89.9401C46.6987 89.697 47.9305 89.4716 49.2179 89.2668C49.2396 89.2634 49.2609 89.2598 49.2827 89.2564C49.5873 89.2082 49.896 89.1615 50.2064 89.1156C50.2656 89.1069 50.3237 89.0979 50.3832 89.0892C50.7362 89.0376 51.0924 88.9873 51.4527 88.9388C51.4541 88.9387 51.4555 88.9386 51.4567 88.9383L59.9698 108.124C58.0259 108.002 56.1186 107.837 54.2685 107.632C54.2647 107.631 54.2608 107.631 54.2571 107.631C53.7076 107.569 53.1633 107.505 52.6244 107.436C52.6199 107.436 52.6153 107.435 52.6108 107.435C52.3604 107.403 52.1116 107.37 51.8637 107.337C51.8413 107.334 51.8186 107.331 51.7961 107.328C51.5562 107.296 51.3177 107.262 51.0802 107.229C51.0512 107.224 51.0218 107.221 50.9931 107.216C50.8618 107.198 50.732 107.178 50.6014 107.159L46.9386 103.202L45.5218 89.9401ZM50.5005 107.144C50.4976 107.143 50.4947 107.143 50.4919 107.142L46.9536 103.341L46.9501 103.308L50.5005 107.144ZM50.3904 107.128C50.3595 107.123 50.3284 107.119 50.2975 107.114C50.265 107.109 50.2319 107.104 50.1995 107.099C49.9788 107.066 49.7598 107.031 49.5414 106.997C49.499 106.99 49.456 106.984 49.4137 106.977C49.2 106.942 48.9881 106.907 48.7766 106.872C48.7312 106.864 48.6853 106.857 48.6401 106.849C48.4292 106.813 48.2203 106.777 48.0117 106.74C47.9672 106.732 47.9219 106.724 47.8775 106.716C47.6846 106.682 47.4937 106.647 47.303 106.611L46.9648 103.447L50.3904 107.128ZM60.2518 108.516C60.2527 108.516 60.2534 108.516 60.2541 108.516C60.362 108.522 60.4696 108.529 60.5776 108.535C60.9275 108.556 61.2784 108.574 61.6304 108.592C61.7379 108.597 61.8456 108.602 61.9531 108.607C62.2436 108.621 62.5348 108.634 62.8265 108.645C62.9234 108.649 63.0201 108.654 63.1172 108.657C63.475 108.671 63.8337 108.683 64.193 108.694C64.3028 108.697 64.4129 108.7 64.523 108.703C64.7423 108.709 64.9619 108.715 65.1818 108.72L67.8107 125.635L60.2518 108.516ZM65.2356 108.347L64.9797 87.9334C65.1396 87.9302 65.2994 87.9249 65.4593 87.9223C65.5363 87.9211 65.6134 87.9195 65.6905 87.9184C66.3255 87.909 66.96 87.904 67.5937 87.9038C67.6869 87.9038 67.7799 87.9043 67.8731 87.9044C68.1641 87.905 68.4549 87.9063 68.7454 87.9087C68.8922 87.9099 69.039 87.9115 69.1858 87.9132C69.4509 87.9161 69.7157 87.92 69.9802 87.9247C70.0967 87.9267 70.2135 87.9282 70.3298 87.9305C70.424 87.9324 70.5177 87.9353 70.6118 87.9374L69.1223 108.377C67.8219 108.386 66.5248 108.375 65.2356 108.347ZM85.1927 88.8162C85.1438 88.809 85.0955 88.8015 85.0466 88.7944C84.705 88.7451 84.3604 88.6973 84.0139 88.6508C83.9314 88.6398 83.8485 88.629 83.7656 88.6182C83.4769 88.58 83.1866 88.543 82.8948 88.5071C82.8206 88.4979 82.7468 88.4885 82.6726 88.4796C82.3192 88.4369 81.9637 88.3956 81.6061 88.3558C81.5408 88.3485 81.4751 88.3416 81.4098 88.3345C81.1057 88.3013 80.8003 88.2692 80.4935 88.2381C80.407 88.2293 80.3205 88.2205 80.2337 88.212C79.8679 88.1758 79.5007 88.1407 79.131 88.1078C79.1054 88.1056 79.0797 88.1035 79.0541 88.1012C78.7082 88.0705 78.3603 88.0416 78.0114 88.0136C77.9232 88.0066 77.835 87.9997 77.7466 87.9927C77.3845 87.9646 77.0213 87.9375 76.6562 87.9125C76.6443 87.9115 76.6325 87.9106 76.6204 87.9098C76.2391 87.8836 75.8558 87.8596 75.4714 87.8367C75.3877 87.8317 75.3038 87.8269 75.2198 87.8222C74.886 87.803 74.5512 87.7849 74.2155 87.7682C74.1599 87.7655 74.1045 87.7625 74.0488 87.7598C73.6623 87.7411 73.2746 87.7241 72.8858 87.7088C72.815 87.706 72.7439 87.7036 72.673 87.7009C72.3411 87.6883 72.0084 87.6769 71.6749 87.6669C71.598 87.6646 71.5212 87.6621 71.4441 87.6598C71.1967 87.6527 70.949 87.6466 70.701 87.641L70.9105 73.5076C71.6507 73.4958 72.391 73.4786 73.1311 73.4561C73.1957 73.4542 73.2603 73.4521 73.3248 73.45C74.0683 73.4266 74.8111 73.3978 75.553 73.3636C75.6109 73.3611 75.6687 73.3585 75.7265 73.3558C76.5067 73.3189 77.2855 73.2767 78.0622 73.2278C78.0701 73.2273 78.0781 73.2268 78.0859 73.2263C78.8726 73.1767 79.6571 73.1207 80.4387 73.0586C80.4849 73.055 80.5308 73.051 80.5769 73.0472C81.3125 72.9881 82.0453 72.9233 82.7747 72.8529C82.8484 72.8458 82.9218 72.8386 82.9953 72.8314C83.7136 72.7609 84.4287 72.6851 85.1397 72.6036C85.2009 72.5965 85.2624 72.5897 85.3235 72.5827C86.0394 72.4995 86.7514 72.4109 87.4585 72.3165L85.9817 88.9349C85.7202 88.8945 85.4572 88.8549 85.1927 88.8162ZM70.8398 73.2506C70.7335 73.2524 70.6271 73.2547 70.5208 73.2562C70.4273 73.2574 70.3339 73.258 70.2404 73.2592C69.9756 73.2622 69.7107 73.2654 69.4459 73.2673C69.354 73.268 69.2621 73.2679 69.1703 73.2684C68.9045 73.2698 68.6387 73.2712 68.3732 73.2712C68.2771 73.2712 68.1813 73.2706 68.0852 73.2704C67.8243 73.2701 67.5634 73.2696 67.3028 73.2679C67.2037 73.2673 67.1048 73.2658 67.0056 73.2651C66.7479 73.2629 66.4901 73.2607 66.2327 73.2572C66.1354 73.256 66.0383 73.2541 65.9412 73.2525C65.6826 73.2487 65.424 73.2447 65.1658 73.2395C65.0677 73.2377 64.9699 73.235 64.8718 73.2328C64.8493 73.2323 64.8267 73.2317 64.8042 73.2312L66.084 48.8803C67.796 48.8633 69.5041 48.8739 71.2004 48.9117L70.8398 73.2506ZM64.7286 73.2294C64.5197 73.2248 64.3109 73.2204 64.1025 73.2147C64.0039 73.2122 63.9055 73.2089 63.807 73.2059C63.5513 73.1986 63.2957 73.1913 63.0408 73.1827C62.9466 73.1795 62.8528 73.1759 62.7587 73.1725C62.5 73.1633 62.2414 73.1541 61.9836 73.1438C61.89 73.14 61.7969 73.1356 61.7035 73.1317C61.4464 73.1208 61.1894 73.1099 60.9332 73.0979C60.8334 73.0932 60.7341 73.0878 60.6345 73.0829C60.3856 73.0708 60.1365 73.0585 59.8883 73.0452C59.7832 73.0395 59.6786 73.0331 59.5737 73.0272C59.331 73.0137 59.0882 73.0001 58.8464 72.9853C58.7421 72.9791 58.6384 72.972 58.5343 72.9654C58.2926 72.9503 58.0508 72.9351 57.8103 72.9187C57.7072 72.9118 57.6048 72.9041 57.5019 72.8969C57.2611 72.8801 57.0205 72.8633 56.7808 72.8453C56.6753 72.8375 56.5705 72.8289 56.4653 72.8209C56.2297 72.8027 55.9943 72.7846 55.76 72.7655C55.6515 72.7565 55.5438 72.747 55.4357 72.7378C55.2048 72.7184 54.9737 72.699 54.7439 72.6785C54.6368 72.6689 54.5307 72.6588 54.4239 72.649C54.1941 72.628 53.9643 72.607 53.7357 72.585C53.6287 72.5746 53.5224 72.5636 53.4156 72.553C53.1891 72.5306 52.9626 72.5083 52.7375 72.485C52.6291 72.4737 52.5217 72.4618 52.4138 72.4503C52.1905 72.4266 51.9672 72.4029 51.7452 72.3781C51.6391 72.3664 51.534 72.3538 51.4282 72.3418C51.2063 72.3165 50.9844 72.2912 50.7639 72.265C50.6571 72.2523 50.5514 72.2388 50.4449 72.2259C50.379 72.2179 50.3132 72.2096 50.2475 72.2016L49.1047 57.4219L52.2226 49.6539C56.7329 49.1816 61.3852 48.9294 66.0129 48.8811L64.7286 73.2294ZM52.089 49.6679L49.0822 57.1313L48.538 50.0927C49.7092 49.9351 50.8943 49.7942 52.089 49.6679ZM33.2541 68.826L36.7719 92.1978C36.7536 92.2055 36.7355 92.2132 36.7173 92.2208L33.1922 68.8047C33.2125 68.8119 33.2336 68.8189 33.2541 68.826ZM36.8953 92.4467L46.7782 103.123L46.7819 103.157L36.8366 92.4717C36.8566 92.4634 36.8752 92.455 36.8953 92.4467ZM46.8508 103.201L46.8776 103.23L46.8811 103.263L46.8544 103.235L46.8508 103.201ZM46.8924 103.369L47.2375 106.599C47.2296 106.598 47.2214 106.596 47.2133 106.595L46.8657 103.341L46.8924 103.369ZM87.4967 72.0454L86.3614 68.4101L87.5007 72.045C87.4994 72.0451 87.4981 72.0453 87.4967 72.0454ZM87.4324 72.054C87.1082 72.0975 86.7832 72.14 86.4571 72.1812C86.4008 72.1883 86.3439 72.1947 86.2875 72.2018C85.9993 72.2377 85.7109 72.2733 85.4215 72.3072C85.358 72.3148 85.2941 72.3217 85.2306 72.329C84.9473 72.3618 84.6637 72.3945 84.3791 72.4256C84.3213 72.432 84.2632 72.4376 84.2053 72.4438C83.915 72.4753 83.6245 72.5062 83.3331 72.5358C83.2512 72.5441 83.1687 72.5516 83.0866 72.5597C82.8187 72.5864 82.5508 72.6129 82.282 72.638C82.1913 72.6465 82.1001 72.6541 82.0092 72.6624C81.7482 72.6863 81.4872 72.7102 81.2255 72.7326C81.1313 72.7406 81.0368 72.7479 80.9425 72.7557C80.684 72.7773 80.4256 72.799 80.1665 72.8191C80.0665 72.827 79.9659 72.834 79.8657 72.8415C79.611 72.8608 79.3565 72.8803 79.1013 72.8982C79.0135 72.9045 78.9257 72.9098 78.8379 72.9158C78.5702 72.9342 78.3025 72.9526 78.0342 72.9694C77.945 72.9751 77.8554 72.9799 77.7662 72.9854C77.4996 73.0018 77.2329 73.0181 76.9658 73.033C76.8691 73.0383 76.7722 73.043 76.6753 73.0482C76.4151 73.0623 76.155 73.0763 75.8945 73.089C75.7986 73.0937 75.7025 73.0976 75.6066 73.1021C75.3447 73.1142 75.0825 73.1266 74.8204 73.1374C74.729 73.1412 74.6377 73.1442 74.5462 73.1479C74.2796 73.1584 74.0129 73.169 73.7462 73.1782C73.6554 73.1814 73.5649 73.1838 73.4743 73.1867C73.2063 73.1955 72.9383 73.2042 72.6702 73.2117C72.5793 73.2141 72.4883 73.216 72.3975 73.2183C72.1307 73.2252 71.864 73.2319 71.5972 73.2376C71.4981 73.2395 71.399 73.2409 71.2999 73.2428C71.1714 73.2451 71.0428 73.2472 70.9143 73.2494L71.2747 48.9135C74.3584 48.9837 77.4018 49.1428 80.3535 49.387L87.4324 72.054ZM28.7633 66.9258C28.7658 66.9271 28.7679 66.9283 28.7704 66.9296C29.002 67.0502 29.242 67.1688 29.4861 67.2865C29.5482 67.3164 29.611 67.3462 29.6739 67.3759C29.889 67.4776 30.1082 67.5783 30.3324 67.678C30.3685 67.694 30.4036 67.7103 30.4401 67.7263C30.6968 67.8392 30.9606 67.9504 31.2288 68.0603C31.2943 68.0871 31.361 68.1137 31.4272 68.1403C31.6526 68.2312 31.8818 68.321 32.1149 68.4098C32.1731 68.432 32.2303 68.4544 32.2889 68.4765C32.5623 68.5791 32.8404 68.6805 33.1236 68.7803L36.6563 92.2465C35.9799 92.5329 35.3519 92.8289 34.7786 93.1344C34.1543 93.4616 33.5923 93.7995 33.0923 94.1466L28.4061 66.7343C28.5241 66.7984 28.6419 66.8626 28.7633 66.9258ZM33.1437 94.4476C33.6949 94.0487 34.3376 93.6607 35.0613 93.2853C35.5893 93.0158 36.1618 92.7535 36.774 92.4984L46.7932 103.263L47.148 106.583C47.1399 106.581 47.1318 106.58 47.1237 106.578C46.931 106.542 46.7403 106.505 46.5498 106.467C46.4938 106.457 46.4371 106.446 46.3812 106.435C46.1968 106.398 46.0144 106.361 45.8321 106.323C45.7719 106.311 45.7108 106.299 45.6508 106.286C45.47 106.249 45.2914 106.21 45.1129 106.171C45.0533 106.159 44.9929 106.146 44.9337 106.133C44.7625 106.096 44.5936 106.057 44.4246 106.019C44.3586 106.004 44.2918 105.989 44.2261 105.974C44.0635 105.937 43.9033 105.898 43.7428 105.86C43.6731 105.843 43.6023 105.827 43.533 105.81C43.377 105.773 43.2234 105.734 43.0695 105.696C42.9975 105.678 42.9245 105.66 42.8529 105.642C42.7028 105.604 42.555 105.565 42.407 105.526C42.3337 105.507 42.2595 105.488 42.1868 105.468C42.0426 105.43 41.9007 105.39 41.7586 105.351C41.684 105.331 41.6084 105.31 41.5344 105.29C41.3942 105.25 41.2564 105.21 41.1183 105.17C41.0514 105.151 40.9837 105.132 40.9174 105.112L34.0671 99.8487L33.1437 94.4476ZM65.2752 108.722C65.3281 108.723 65.381 108.724 65.4339 108.725C65.5185 108.727 65.6028 108.729 65.6876 108.731C66.0522 108.738 66.4175 108.743 66.7831 108.747C66.894 108.748 67.0047 108.749 67.1154 108.75C67.4315 108.752 67.7479 108.754 68.0646 108.754C68.1202 108.754 68.1756 108.755 68.2312 108.755C68.2435 108.755 68.2559 108.755 68.2682 108.755C68.5436 108.755 68.8192 108.754 69.0949 108.752L67.8682 125.586L65.2752 108.722ZM34.0829 99.9419L40.7445 105.061C40.7065 105.049 40.6688 105.038 40.6309 105.026L34.0997 100.04L34.0829 99.9419ZM78.1351 108.003L85.4189 95.2674L84.3453 107.35C82.315 107.623 80.2373 107.84 78.1351 108.003ZM82.5539 100.148L85.4352 95.0848L85.4326 95.1147L82.5539 100.148ZM78.0051 108.013C75.093 108.236 72.1354 108.355 69.1926 108.377L70.689 87.9392C70.9199 87.9444 71.151 87.9496 71.3813 87.9561C71.5236 87.96 71.6656 87.9645 71.8077 87.9689C72.058 87.9767 72.3078 87.9851 72.5573 87.9944C72.69 87.9993 72.823 88.0039 72.9555 88.0092C73.304 88.023 73.6517 88.0383 73.9984 88.0548C74.1257 88.0609 74.2524 88.0676 74.3794 88.0741C74.6318 88.0869 74.8838 88.1003 75.1351 88.1145C75.2719 88.1223 75.4088 88.13 75.5452 88.1382C75.8925 88.159 76.2389 88.1806 76.5838 88.204C76.6778 88.2105 76.7714 88.2176 76.8653 88.2242C77.141 88.2436 77.4161 88.2639 77.6901 88.2849C77.8219 88.2951 77.9535 88.3054 78.0847 88.3159C78.37 88.3389 78.6542 88.3627 78.9374 88.3875C79.0193 88.3946 79.1017 88.4013 79.1834 88.4087C79.5237 88.4391 79.8618 88.4713 80.1988 88.5044C80.3203 88.5164 80.4413 88.5286 80.5623 88.541C80.8244 88.5676 81.0855 88.5949 81.3455 88.6232C81.445 88.6339 81.5451 88.6444 81.6443 88.6554C81.9819 88.6929 82.3177 88.732 82.6515 88.7722C82.7561 88.7848 82.8599 88.798 82.964 88.8108C83.2217 88.8427 83.4782 88.8752 83.7333 88.9086C83.8372 88.9223 83.9413 88.9358 84.0448 88.9496C84.3769 88.9942 84.707 89.0398 85.0345 89.0871C85.112 89.0983 85.1887 89.11 85.2659 89.1213C85.4974 89.1554 85.7269 89.1902 85.9559 89.2256L85.4488 94.932L78.0051 108.013ZM86.045 88.9448L87.5233 72.308C87.5256 72.3077 87.5278 72.3073 87.5301 72.3071L86.0512 88.9458C86.0492 88.9455 86.0471 88.9452 86.045 88.9448ZM90.4247 71.6108L92.5187 50.9786C92.5243 50.9795 92.53 50.9805 92.5356 50.9816L90.4418 71.608C90.436 71.609 90.4304 71.6098 90.4247 71.6108ZM90.3595 71.6216C89.8801 71.6988 89.3957 71.7741 88.9037 71.8467C88.8717 71.8513 88.8406 71.8564 88.8085 71.8611C88.3985 71.9211 87.9835 71.9792 87.5649 72.0359L82.1571 54.7834L80.4688 49.3969C84.7055 49.7509 88.751 50.2792 92.4558 50.967L90.3595 71.6216ZM50.9073 107.583L51.872 108.625L50.9012 107.582C50.9032 107.583 50.9053 107.583 50.9073 107.583ZM51.008 107.598C51.2812 107.637 51.5557 107.675 51.832 107.712C51.9093 107.722 51.9874 107.732 52.065 107.742C52.3319 107.777 52.6002 107.811 52.8698 107.845C52.9857 107.859 53.1016 107.873 53.2179 107.887C53.5415 107.926 53.8666 107.964 54.1938 108C54.2849 108.011 54.3767 108.02 54.468 108.03C54.7349 108.059 55.0027 108.087 55.2719 108.115C55.3869 108.126 55.5016 108.138 55.617 108.149C55.9507 108.182 56.2857 108.214 56.6224 108.244C56.7205 108.253 56.8192 108.261 56.9176 108.27C57.1891 108.294 57.4615 108.316 57.7348 108.339C57.8484 108.348 57.9616 108.357 58.0754 108.366C58.4166 108.392 58.759 108.418 59.1029 108.442C59.2081 108.449 59.3137 108.456 59.4191 108.463C59.6592 108.479 59.8997 108.494 60.1409 108.509L60.4855 109.286L67.7289 125.61L67.5976 125.519L51.008 107.598ZM90.507 71.5973L92.5985 50.9932C93.1783 51.1017 93.7494 51.2142 94.3117 51.3306L104.816 67.8563C101.176 69.368 96.3103 70.654 90.507 71.5973ZM48.2919 107.172C48.4006 107.19 48.5096 107.209 48.6188 107.227C48.8958 107.274 49.1745 107.32 49.4555 107.364C49.5433 107.378 49.6315 107.392 49.7196 107.406C49.9913 107.448 50.2648 107.489 50.5397 107.53C50.6268 107.543 50.7133 107.556 50.8006 107.568L67.256 125.248L47.6782 107.064C47.8817 107.1 48.0861 107.136 48.2919 107.172ZM67.9254 125.683L69.1652 108.752C69.5111 108.749 69.8573 108.745 70.2037 108.74C70.2654 108.739 70.3271 108.738 70.3888 108.737C71.001 108.727 71.6136 108.713 72.226 108.695C72.2875 108.693 72.3491 108.691 72.4107 108.689C73.0616 108.669 73.7123 108.644 74.3619 108.613C74.3838 108.612 74.4058 108.611 74.4277 108.61C75.0657 108.58 75.7024 108.545 76.3377 108.505C76.3989 108.502 76.4599 108.498 76.521 108.494C76.9415 108.467 77.3615 108.439 77.7803 108.408L67.9648 125.656L67.9254 125.683ZM104.877 67.8319L94.399 51.3485C94.4095 51.3505 94.4201 51.3526 94.4306 51.3548L104.931 67.8084C104.912 67.8162 104.895 67.8242 104.877 67.8319ZM47.5616 107.043L58.0466 116.781L47.4362 107.02C47.4777 107.028 47.5199 107.035 47.5616 107.043ZM84.4102 107.341L85.4949 95.1346L85.5024 95.1216L84.4164 107.34C84.4143 107.34 84.4123 107.34 84.4102 107.341ZM85.5085 94.9819L85.5112 94.9512L85.5187 94.9381L85.5159 94.969L85.5085 94.9819ZM85.5248 94.7985L86.0192 89.2352C86.0212 89.2354 86.0234 89.2358 86.0253 89.2361L85.5322 94.7854L85.5248 94.7985ZM88.3184 89.3281C87.9957 89.2693 87.6712 89.2113 87.3426 89.1554C87.3387 89.1547 87.3346 89.1541 87.3306 89.1535C87.0045 89.0979 86.6747 89.0442 86.3431 88.9916C86.267 88.9795 86.1909 88.9675 86.1145 88.9555L87.5949 72.2987C88.0097 72.2427 88.4203 72.1851 88.8269 72.1258C89.1661 72.0765 89.5002 72.0253 89.8334 71.9737C89.8897 71.9651 89.9473 71.9568 90.0035 71.9481C90.1133 71.9309 90.2224 71.9134 90.3316 71.8961L88.558 89.3721C88.4783 89.3573 88.3984 89.3427 88.3184 89.3281ZM104.99 67.7828L94.518 51.3728C99.1474 52.342 103.153 53.5751 106.206 55.0397L107.584 56.6646L105.786 67.4341C105.527 67.5515 105.262 67.6678 104.99 67.7828ZM41.5749 105.699L51.4258 113.268L41.476 105.672C41.5088 105.681 41.542 105.69 41.5749 105.699ZM42.115 105.845C42.1944 105.866 42.2748 105.887 42.3549 105.908C42.5802 105.966 42.8078 106.024 43.0378 106.081C43.104 106.098 43.1693 106.114 43.2358 106.131C43.5112 106.198 43.7903 106.264 44.0721 106.329C44.1623 106.349 44.2533 106.37 44.3443 106.39C44.5818 106.444 44.8214 106.497 45.0631 106.549C45.1297 106.563 45.1952 106.578 45.262 106.592C45.5494 106.653 45.8403 106.712 46.1331 106.771C46.2338 106.791 46.335 106.811 46.4364 106.831C46.6913 106.881 46.948 106.93 47.207 106.978C47.2444 106.985 47.2809 106.992 47.3185 106.999L66.9965 125.102L66.3218 124.633L41.7386 105.743C41.8635 105.777 41.9886 105.811 42.115 105.845ZM86.0887 89.2458C86.181 89.2602 86.2733 89.2745 86.3653 89.289C86.6894 89.3406 87.012 89.3929 87.3308 89.447C87.3545 89.451 87.3781 89.4553 87.4018 89.4593C87.7097 89.5119 88.0144 89.566 88.317 89.621C88.3637 89.6295 88.4099 89.6381 88.4564 89.6467L85.6082 94.6518L86.0887 89.2458ZM88.6209 89.3838L90.3968 71.8854C90.4025 71.8845 90.4081 71.8835 90.4139 71.8826L88.637 89.3867C88.6317 89.3858 88.6262 89.3849 88.6209 89.3838ZM107.597 56.5818L106.35 55.1098C106.398 55.1331 106.446 55.1565 106.493 55.1799L107.612 56.4938L107.597 56.5818ZM36.9672 104.158C37.0044 104.173 37.0425 104.188 37.0799 104.203C37.2784 104.283 37.4804 104.362 37.6859 104.441C37.7384 104.46 37.7906 104.481 37.8436 104.501C38.0767 104.588 38.3137 104.674 38.5554 104.759C38.6065 104.777 38.6585 104.795 38.7099 104.813C38.9179 104.885 39.129 104.956 39.343 105.027C39.4011 105.046 39.4584 105.065 39.5168 105.084C39.7653 105.164 40.0178 105.244 40.274 105.322C40.3397 105.342 40.4065 105.362 40.4726 105.381C40.6889 105.446 40.9077 105.51 41.1292 105.574C41.1894 105.591 41.2489 105.608 41.3095 105.625L65.0435 123.746L36.6223 104.014C36.7365 104.062 36.8506 104.11 36.9672 104.158ZM68.0869 125.573L77.9094 108.398C78.07 108.386 78.2303 108.373 78.3907 108.361C78.4258 108.358 78.461 108.355 78.4961 108.352C79.1414 108.301 79.7842 108.244 80.4239 108.182C80.468 108.178 80.5116 108.173 80.5556 108.169C81.1668 108.109 81.7752 108.044 82.3801 107.975C82.4352 107.969 82.4904 107.962 82.5455 107.956C83.0531 107.897 83.5582 107.834 84.0607 107.769L68.1305 125.543L68.0869 125.573ZM85.5946 94.8046L88.5227 89.6589C88.5319 89.6606 88.5409 89.6624 88.55 89.664L85.5918 94.8362L85.5946 94.8046ZM100.852 93.4263L100.715 94.2649L100.636 94.3403L100.791 93.3947C100.811 93.4052 100.832 93.4158 100.852 93.4263ZM100.911 93.4578C101.051 93.5318 101.189 93.6059 101.322 93.6812L100.792 94.1912L100.911 93.4578ZM100.284 92.852C100.25 92.8356 100.217 92.8189 100.182 92.8025C99.9792 92.7056 99.7704 92.6103 99.5576 92.516C99.5025 92.4915 99.4465 92.4674 99.3909 92.4433C99.2164 92.3673 99.0389 92.2921 98.8583 92.2178C98.8045 92.1956 98.7515 92.1733 98.6973 92.1513C98.4732 92.0606 98.2448 91.971 98.0116 91.8827C97.9607 91.8634 97.9084 91.8445 97.857 91.8253C97.6636 91.7531 97.4672 91.6817 97.268 91.6113C97.2013 91.5877 97.1349 91.5638 97.0675 91.5404C96.8222 91.4552 96.5737 91.3709 96.32 91.288C96.2891 91.278 96.2574 91.2682 96.2264 91.2582C95.998 91.1843 95.7658 91.1115 95.5309 91.0397C95.4557 91.0167 95.3802 90.9937 95.3044 90.9709C95.0657 90.8993 94.8243 90.8285 94.5792 90.7588C94.5486 90.7501 94.5187 90.7411 94.488 90.7325C94.2155 90.6556 93.9382 90.5805 93.658 90.5061C93.5805 90.4856 93.502 90.4653 93.4239 90.4449C93.1926 90.3847 92.9589 90.3252 92.7228 90.2667C92.6608 90.2514 92.5997 90.2358 92.5374 90.2206C92.2489 90.15 91.9567 90.081 91.6614 90.0131C91.5887 89.9965 91.5153 89.9802 91.4423 89.9636C91.2014 89.9093 90.9583 89.8556 90.713 89.8028C90.6345 89.7858 90.5565 89.7689 90.4775 89.7521C90.1721 89.6876 89.864 89.6241 89.5522 89.5623C89.4986 89.5517 89.444 89.5414 89.3901 89.5309C89.1616 89.486 88.9317 89.4417 88.6999 89.3984L90.4791 71.8719C96.294 70.9374 101.168 69.6674 104.849 68.1633L100.775 93.0967C100.615 93.0144 100.451 92.9327 100.284 92.852ZM107.723 55.8301L107.626 56.4115L106.637 55.2499C107.011 55.4376 107.37 55.6287 107.712 55.8236C107.716 55.8258 107.719 55.8279 107.723 55.8301ZM70.8146 48.5617C70.7183 48.5597 70.6218 48.5585 70.5253 48.5568C70.1581 48.5502 69.7904 48.5448 69.4222 48.5407C69.286 48.5392 69.1498 48.5378 69.0134 48.5365C68.5718 48.5328 68.1297 48.5302 67.687 48.5301C67.6733 48.5301 67.6595 48.5299 67.6457 48.5299C67.6359 48.5299 67.626 48.5302 67.6161 48.5302C67.1119 48.5302 66.6071 48.5335 66.102 48.5384L68.1011 10.5054L71.1851 48.57C71.0616 48.5673 70.9383 48.5641 70.8146 48.5617ZM48.574 49.7382C48.5598 49.74 48.5456 49.7417 48.5316 49.7437L55.4998 35.6223L48.574 49.7382ZM84.1583 107.756C84.1871 107.752 84.2158 107.748 84.2445 107.745L76.5652 116.228L84.1583 107.756ZM87.6222 106.85C87.5957 106.854 87.5694 106.859 87.5428 106.863C87.2264 106.917 86.9073 106.97 86.5841 107.021C86.5553 107.026 86.5261 107.03 86.4973 107.035C86.2018 107.081 85.9028 107.127 85.6017 107.172C85.5176 107.184 85.4332 107.196 85.3486 107.209C85.062 107.25 84.7729 107.291 84.4814 107.331L85.5783 94.9889L88.6166 89.6763C88.8773 89.7248 89.1363 89.774 89.3928 89.8242C89.4486 89.8352 89.5052 89.8458 89.561 89.8568C89.8709 89.9183 90.1772 89.9813 90.4809 90.0454C90.5615 90.0624 90.6413 90.0799 90.7216 90.0971C90.9674 90.1499 91.2111 90.2035 91.4525 90.2581C91.523 90.274 91.5942 90.2897 91.6644 90.3059C91.9608 90.3738 92.2537 90.4431 92.5431 90.5137C92.6045 90.5287 92.6647 90.5441 92.7258 90.5592C92.9645 90.6182 93.2007 90.6782 93.4344 90.7391C93.5086 90.7585 93.5831 90.7776 93.6569 90.7972C93.9391 90.8719 94.2186 90.9477 94.4931 91.025C94.5219 91.0331 94.5498 91.0415 94.5785 91.0496C94.827 91.1202 95.0717 91.1919 95.3135 91.2645C95.3852 91.2861 95.4565 91.3077 95.5275 91.3294C95.7706 91.4036 96.0109 91.4788 96.2471 91.5553C96.2706 91.5629 96.2947 91.5703 96.3183 91.578C96.5743 91.6615 96.8248 91.7465 97.0723 91.8325C97.1367 91.8548 97.2002 91.8774 97.2638 91.8999C97.4681 91.9721 97.6691 92.0452 97.867 92.1191C97.914 92.1367 97.962 92.1539 98.0086 92.1716C98.2436 92.2605 98.4738 92.3508 98.6997 92.4422C98.7513 92.4632 98.8017 92.4843 98.8528 92.5054C99.0363 92.5808 99.2164 92.657 99.3934 92.7341C99.4469 92.7576 99.5011 92.7807 99.5541 92.8042C99.768 92.8989 99.9776 92.9947 100.182 93.0919C100.214 93.1076 100.246 93.1236 100.278 93.1392C100.433 93.2136 100.583 93.2891 100.731 93.3648L100.56 94.4139L95.4942 99.2831L87.6222 106.85ZM101.381 93.7133C101.382 93.7141 101.384 93.7148 101.385 93.7155C101.405 93.7265 101.422 93.7376 101.441 93.7486L100.757 94.4028L100.774 94.2965L101.381 93.7133ZM100.835 93.1267L104.918 68.1346C104.942 68.1247 104.966 68.1148 104.99 68.1049L100.896 93.1579C100.876 93.1474 100.855 93.1371 100.835 93.1267ZM105.931 67.3665C105.906 67.3781 105.881 67.3898 105.856 67.4014L107.638 56.7285L107.696 56.7973L105.931 67.3665ZM107.652 56.6456L107.666 56.5575L107.725 56.626L107.71 56.7143L107.652 56.6456ZM107.68 56.4753L107.782 55.8651C107.804 55.8776 107.824 55.8901 107.845 55.9027L107.738 56.5437L107.68 56.4753ZM100.698 94.3703L100.68 94.476L100.602 94.5507L100.619 94.4455L100.698 94.3703ZM101.123 93.2787C101.085 93.258 101.046 93.2377 101.007 93.2171C101.001 93.214 100.995 93.2108 100.989 93.2076C100.978 93.2017 100.966 93.196 100.955 93.19L105.059 68.0762C105.286 67.9818 105.509 67.8864 105.726 67.7901L101.441 93.4518C101.337 93.3938 101.231 93.336 101.123 93.2787ZM112.027 62.1403C112.017 62.1727 112.006 62.2051 111.995 62.2373C111.972 62.3081 111.944 62.3785 111.916 62.4489C111.885 62.5267 111.853 62.6044 111.817 62.6817C111.791 62.736 111.763 62.7901 111.735 62.8442C111.696 62.9199 111.656 62.9955 111.612 63.0708C111.574 63.1366 111.532 63.2022 111.489 63.2677C111.451 63.3269 111.413 63.3861 111.372 63.4451C111.304 63.5411 111.232 63.6368 111.157 63.7322C111.136 63.7578 111.117 63.7836 111.096 63.8091C110.071 65.06 108.338 66.2476 106.001 67.3337L106.749 62.8567L107.75 56.8612L112.072 61.9606C112.058 62.0206 112.045 62.0806 112.027 62.1403ZM66.0309 48.5392C65.7877 48.5415 65.5446 48.5442 65.3013 48.5479C65.2272 48.5488 65.1532 48.5505 65.0791 48.5516C64.3565 48.5633 63.6337 48.5799 62.9111 48.6016C62.8236 48.6042 62.7363 48.6069 62.6489 48.6097C61.9229 48.6326 61.1972 48.6609 60.4725 48.6941C60.4041 48.6972 60.3357 48.7 60.2673 48.7033C59.4863 48.7401 58.7064 48.7826 57.9288 48.8314C57.9208 48.8319 57.913 48.8325 57.9051 48.833C57.1306 48.8818 56.3583 48.9372 55.5885 48.9982C55.5216 49.0034 55.455 49.0092 55.3881 49.0145C54.6689 49.0726 53.9526 49.1359 53.2391 49.2046C53.1584 49.2124 53.0779 49.2203 52.9973 49.2281C52.7874 49.2487 52.5775 49.2695 52.3681 49.2911L67.968 10.4259L68.0436 10.3189C68.0447 10.319 68.0456 10.3189 68.0467 10.319L66.0309 48.5392ZM48.4552 49.7536C48.4396 49.7558 48.4239 49.7576 48.4084 49.7597C48.0531 49.8076 47.7015 49.8569 47.3521 49.9074C47.2132 49.9273 47.0762 49.9478 46.9384 49.9682C46.7397 49.9975 46.5412 50.0271 46.3445 50.0571C46.1587 50.0856 45.9742 50.1144 45.7901 50.1435C45.6646 50.1634 45.5395 50.1836 45.4147 50.2037C45.1795 50.2418 44.9452 50.2801 44.7132 50.3192C44.712 50.3194 44.7109 50.3196 44.7098 50.3198C42.6666 50.664 40.7435 51.0503 38.953 51.4743L47.5939 39.2496L67.6152 10.925L48.4552 49.7536ZM38.1123 52.0508L32.0746 60.5583L31.1338 54.308C33.1159 53.4795 35.458 52.7216 38.1123 52.0508ZM84.3424 107.732C84.3759 107.727 84.4096 107.723 84.443 107.719C84.838 107.666 85.2281 107.61 85.6144 107.554C85.7998 107.526 85.9814 107.497 86.1649 107.469C86.3583 107.44 86.553 107.411 86.7439 107.38C86.8761 107.359 87.0063 107.337 87.1374 107.316L68.5199 125.211L84.3424 107.732ZM87.7589 106.826C87.7509 106.827 87.7429 106.829 87.7347 106.83L100.543 94.5192L100.526 94.624L89.0557 105.587L87.7589 106.826ZM112.115 61.7916C112.109 61.8225 112.099 61.8532 112.092 61.8841L107.764 56.7782L107.779 56.6897L112.116 61.7846C112.116 61.7869 112.116 61.7893 112.115 61.7916ZM93.759 50.8628C93.6752 50.846 93.5899 50.83 93.5057 50.8135C93.2104 50.7557 92.9131 50.6991 92.6134 50.6434C92.5918 50.6394 92.5708 50.6351 92.5492 50.6312L69.4466 12.2124L94.052 50.922C93.9542 50.9023 93.8573 50.8822 93.759 50.8628ZM80.0487 49.0199C79.914 49.0092 79.7791 48.9984 79.6439 48.9879C79.2666 48.9587 78.8884 48.9309 78.5085 48.9042C78.4454 48.8999 78.383 48.895 78.32 48.8908C77.8887 48.8612 77.4554 48.8341 77.0212 48.8082C76.8879 48.8003 76.7545 48.7927 76.621 48.785C76.2731 48.7652 75.9242 48.7464 75.5746 48.7288C75.4665 48.7234 75.3589 48.7176 75.2508 48.7124C74.8144 48.6914 74.3768 48.6722 73.938 48.6549C73.8163 48.65 73.6943 48.6457 73.5725 48.6412C73.2246 48.6283 72.8761 48.6164 72.5269 48.6057C72.3996 48.6017 72.2725 48.5976 72.1449 48.5941C71.8532 48.5858 71.5609 48.5787 71.2684 48.572L68.1503 10.3182C68.1508 10.318 68.1517 10.318 68.1522 10.318L80.2436 49.0353C80.1789 49.03 80.1136 49.0252 80.0487 49.0199ZM31.0727 54.3335L32.021 60.6336L31.9724 60.7022L31.0172 54.3567C31.0356 54.3489 31.0543 54.3412 31.0727 54.3335ZM30.8657 97.1854C30.8812 97.1368 30.8945 97.0883 30.9125 97.0397C30.9329 96.9848 30.9585 96.9302 30.982 96.8755C31.0948 96.6147 31.2402 96.3546 31.4269 96.0961C31.4848 96.0159 31.5482 95.9361 31.6127 95.8566C31.6312 95.8336 31.6484 95.8105 31.6674 95.7877C31.7211 95.7234 31.7792 95.6598 31.837 95.5959C31.8778 95.5512 31.9179 95.5063 31.9609 95.4619C32.0035 95.4173 32.0485 95.373 32.0932 95.3288C32.1678 95.2553 32.2434 95.1822 32.3237 95.1095C32.342 95.0927 32.3607 95.076 32.3792 95.0594C32.5087 94.9442 32.6465 94.8301 32.7902 94.7165L33.6074 99.4955L30.8159 97.3506C30.8303 97.2954 30.8482 97.2404 30.8657 97.1854ZM98.3365 104.064L99.0689 103.539L99.029 103.783C98.8033 103.878 98.573 103.972 98.3365 104.064ZM98.0997 104.155C98.0567 104.171 98.0144 104.188 97.9711 104.204C97.9469 104.214 97.9225 104.223 97.8981 104.232L99.0972 103.366L99.0835 103.449L98.0997 104.155ZM97.6748 104.314C97.5883 104.346 97.5028 104.378 97.4151 104.409C97.3511 104.432 97.2854 104.454 97.2207 104.477C97.0062 104.553 96.7878 104.627 96.5658 104.701C96.4473 104.74 96.3284 104.78 96.2077 104.818C96.1035 104.852 95.9986 104.885 95.8928 104.919C95.7171 104.974 95.5392 105.028 95.359 105.082C95.2823 105.105 95.2057 105.129 95.1281 105.151C94.9157 105.214 94.7003 105.276 94.482 105.337C94.4039 105.359 94.325 105.381 94.2461 105.402C94.0315 105.461 93.8145 105.52 93.5946 105.578C93.552 105.589 93.5104 105.6 93.4677 105.611C93.2024 105.68 92.9327 105.748 92.6598 105.814C92.6 105.829 92.5394 105.843 92.4791 105.858C92.2394 105.916 91.9971 105.973 91.7515 106.029C91.7052 106.04 91.6594 106.051 91.6128 106.061C91.3256 106.126 91.0343 106.19 90.7393 106.253C90.6895 106.264 90.6389 106.274 90.5888 106.285C90.3327 106.339 90.0733 106.392 89.8114 106.444C89.7525 106.456 89.694 106.468 89.6348 106.48C89.3313 106.54 89.0246 106.598 88.7137 106.656C88.6731 106.663 88.6317 106.671 88.5908 106.678C88.354 106.721 88.1138 106.764 87.8728 106.806L91.6322 103.213L100.508 94.7289L99.1118 103.276L97.6748 104.314ZM100.585 94.6558L100.663 94.5809L99.2595 103.17L99.1851 103.223L100.585 94.6558ZM100.74 94.5077L101.498 93.7826C101.624 93.8553 101.749 93.9281 101.868 94.0015C101.891 94.0155 101.912 94.0296 101.934 94.0437C102.073 94.1303 102.21 94.2172 102.34 94.3047C102.346 94.309 102.352 94.3132 102.358 94.3175C104.274 95.6101 105.223 96.991 105.134 98.3624C105.132 98.3821 105.13 98.4017 105.128 98.4214C105.121 98.5037 105.11 98.5862 105.096 98.6685C105.092 98.6868 105.089 98.7053 105.086 98.7236C105.066 98.8211 105.042 98.9183 105.012 99.0152L99.3329 103.117L100.74 94.5077ZM112.177 61.0083C112.182 61.128 112.18 61.2477 112.172 61.3675C112.171 61.386 112.168 61.4046 112.167 61.423C112.159 61.5162 112.146 61.6093 112.13 61.7024L107.793 56.6073L107.904 55.9377C108.027 56.0091 108.15 56.0807 108.267 56.1528C108.316 56.1829 108.363 56.2131 108.411 56.2433C108.543 56.3265 108.674 56.41 108.8 56.4938C108.844 56.5238 108.888 56.5537 108.932 56.5836C109.064 56.6738 109.193 56.7643 109.317 56.8552C109.345 56.8755 109.373 56.8957 109.4 56.916C111.169 58.2301 112.112 59.6135 112.177 60.9966C112.177 61.0005 112.177 61.0044 112.177 61.0083ZM94.1392 50.9398L87.4333 40.3901L94.1698 50.9461C94.1596 50.944 94.1495 50.9419 94.1392 50.9398ZM92.4648 50.615C92.4416 50.6107 92.4188 50.6063 92.3956 50.6022L81.4818 32.3509L92.4648 50.615ZM30.8 97.4193L33.6233 99.5887L33.6404 99.6894L30.7817 97.5068C30.7877 97.4776 30.7932 97.4485 30.8 97.4193ZM99.0985 103.754L99.1421 103.486L99.2166 103.433L99.1691 103.724C99.1456 103.734 99.122 103.744 99.0985 103.754ZM99.1568 103.397L99.1704 103.313L99.245 103.259L99.2313 103.343L99.1568 103.397ZM99.3183 103.206L104.977 99.1199C104.961 99.1667 104.942 99.2134 104.924 99.26L99.3044 103.291L99.3183 103.206ZM101.563 93.519C101.543 93.5075 101.522 93.4961 101.501 93.4845L105.796 67.7591C105.821 67.748 105.846 67.737 105.871 67.726L104.343 76.8764L101.563 93.519ZM92.3122 50.5873C92.2928 50.5839 92.2731 50.5806 92.2537 50.577C91.8992 50.5125 91.5423 50.449 91.1818 50.3875C91.129 50.3783 91.076 50.3694 91.0231 50.3604C90.6684 50.3003 90.3104 50.2419 89.9503 50.1848C89.8249 50.1647 89.6992 50.1451 89.573 50.1255C89.2589 50.0767 88.9428 50.0288 88.6247 49.9821C88.5357 49.9689 88.4474 49.9555 88.358 49.9426C87.9678 49.8863 87.5742 49.8316 87.1786 49.7785C87.0547 49.7619 86.9302 49.7458 86.8059 49.7295C86.4984 49.6891 86.1893 49.6496 85.8788 49.6113C85.7606 49.5967 85.6428 49.5817 85.5242 49.5674C85.1223 49.5188 84.7181 49.4719 84.3115 49.4267C84.2019 49.4144 84.0915 49.4029 83.9816 49.3909C83.6578 49.3556 83.3326 49.3214 83.0059 49.2883C82.8762 49.2751 82.7467 49.2619 82.6165 49.2491C82.2003 49.208 81.7824 49.1683 81.3621 49.1306C81.2893 49.1241 81.2159 49.1181 81.143 49.1118C80.8818 49.0888 80.6208 49.0659 80.3582 49.0443L68.2387 10.3795L68.33 10.482L92.3122 50.5873ZM26.8969 56.558L24.0491 59.7779C24.0802 59.695 24.1185 59.6122 24.1556 59.5294L26.6155 56.7608C26.7072 56.6928 26.8009 56.6253 26.8969 56.558ZM24.5735 63.8255C24.6341 63.8983 24.6971 63.971 24.7624 64.0434C24.7802 64.0632 24.7967 64.083 24.8149 64.1026C24.8963 64.1913 24.9825 64.2797 25.071 64.3678C25.1015 64.3981 25.133 64.4283 25.1642 64.4586C25.2326 64.5247 25.3029 64.5907 25.3752 64.6565C25.4054 64.6841 25.4352 64.7117 25.4661 64.7392C25.5657 64.8278 25.6685 64.9161 25.7753 65.0041C25.8007 65.0249 25.8274 65.0457 25.8532 65.0666C25.9413 65.138 26.0318 65.2091 26.1245 65.2801C26.1606 65.3077 26.1968 65.3352 26.2336 65.3628C26.3397 65.4422 26.4483 65.5214 26.5604 65.6003C26.5756 65.6111 26.59 65.6219 26.6054 65.6327C26.7329 65.7217 26.8652 65.8105 27.0002 65.899C27.0364 65.9228 27.0736 65.9465 27.1104 65.9702C27.2203 66.0412 27.3327 66.1118 27.4475 66.1823C27.4814 66.203 27.5145 66.2238 27.5487 66.2445C27.6615 66.3127 27.7767 66.3808 27.894 66.4486L27.9638 66.4895L31.5624 87.5346L32.7367 94.4033C32.0436 94.9233 31.4877 95.463 31.0858 96.0199C30.9004 96.2768 30.7519 96.5357 30.6343 96.7957L24.5227 63.7655C24.5391 63.7855 24.5568 63.8054 24.5735 63.8255ZM84.2328 110.196L87.2493 107.297C87.2562 107.296 87.2631 107.295 87.2701 107.293L86.8215 107.722L84.2328 110.196ZM102.784 94.2798C102.778 94.276 102.773 94.2723 102.767 94.2685C102.661 94.1949 102.552 94.1213 102.439 94.0482C102.395 94.0191 102.348 93.9904 102.303 93.9614C102.221 93.9099 102.141 93.8582 102.057 93.807C101.919 93.7236 101.779 93.6404 101.634 93.5579C101.63 93.5559 101.627 93.5539 101.623 93.5518L101.827 92.3321L105.941 67.6948C108.769 66.4179 110.767 64.9896 111.798 63.4666L105.367 97.2536C105.026 96.2285 104.16 95.2335 102.784 94.2798ZM105.77 54.4256L87.3023 32.6373L105.904 54.4872C105.859 54.4668 105.815 54.4459 105.77 54.4256ZM24.3377 63.5251C24.3708 63.5699 24.4032 63.6146 24.438 63.6594L30.5894 96.9047C30.5738 96.9425 30.5571 96.9801 30.5428 97.0179C30.5389 97.0282 30.5338 97.0383 30.53 97.0486L24.3223 63.5051C24.3272 63.5118 24.3328 63.5184 24.3377 63.5251ZM68.6226 125.205L74.892 119.213L87.3823 107.275C87.4128 107.269 87.4431 107.264 87.4735 107.259C87.5931 107.239 87.714 107.22 87.8325 107.199C88.1225 107.149 88.4082 107.097 88.6926 107.045C88.7533 107.034 88.8148 107.023 88.875 107.012C89.2077 106.95 89.5358 106.887 89.8607 106.823C89.8625 106.822 89.8646 106.822 89.8666 106.821C92.3563 106.326 94.6092 105.749 96.5817 105.103L71.1402 123.476L68.6226 125.205ZM96.783 105.037C96.8363 105.019 96.8909 105.002 96.9438 104.984L84.0388 114.241L96.783 105.037ZM107.224 55.1266C107.192 55.11 107.157 55.0941 107.125 55.0774C106.928 54.9762 106.727 54.8758 106.522 54.7764C106.481 54.7569 106.441 54.7369 106.4 54.7173C106.283 54.6614 106.162 54.6062 106.042 54.5508L72.6784 15.3613L72.9925 15.7138L107.224 55.1266ZM24.2345 63.3823L28.1121 84.3348L24.193 63.321C24.2069 63.3414 24.2203 63.3619 24.2345 63.3823ZM97.1513 104.914C97.4424 104.814 97.7265 104.712 98.0042 104.609L74.3776 121.254L74.2304 121.355L97.1513 104.914ZM107.381 55.2103L85.1557 29.6205L107.592 55.3237C107.522 55.2858 107.452 55.248 107.381 55.2103ZM45.4531 41.7073L38.4322 51.6001C35.8096 52.2413 33.4821 52.965 31.4875 53.7574L66.3073 12.2077L66.6973 11.7732L45.4531 41.7073ZM98.2483 104.516C98.3532 104.476 98.4588 104.436 98.5617 104.396L81.2922 116.461L98.2483 104.516ZM31.3629 53.8065C31.3109 53.8274 31.2567 53.8479 31.2053 53.8688L51.7565 29.4714L31.3629 53.8065ZM98.8186 104.294C99.0407 104.205 99.2604 104.115 99.4727 104.024L84.0054 114.643L98.8186 104.294ZM31.0756 53.923C29.9379 54.3914 28.9128 54.8822 28.012 55.3938L59.5064 19.7838L64.8056 13.8805L31.0756 53.923ZM109.094 56.2239C108.954 56.1304 108.809 56.0376 108.661 55.9452C108.62 55.9197 108.58 55.8942 108.538 55.8687C108.358 55.7582 108.174 55.6483 107.983 55.5393C107.909 55.4972 107.831 55.4559 107.756 55.414L78.3147 21.686L96.2205 41.7784L109.094 56.2239ZM27.8336 55.4989C27.765 55.5388 27.6969 55.5789 27.6297 55.6191L49.1399 31.4082L27.8336 55.4989ZM27.4483 55.7267C27.2825 55.8285 27.1214 55.931 26.9651 56.0342L47.4014 33.2684L27.4483 55.7267Z" fill="#F3F3EF"/>
</svg>
