<svg width="126" height="126" viewBox="0 0 126 126" fill="none" xmlns="http://www.w3.org/2000/svg">
<path d="M115.826 49.6174C115.844 49.5588 115.861 49.5001 115.876 49.4405C115.888 49.3944 115.899 49.3484 115.909 49.3023C115.917 49.2668 115.924 49.2309 115.93 49.1949C115.968 49.0003 115.99 48.8059 115.997 48.6116C115.998 48.597 115.999 48.5824 115.999 48.5676C116.001 48.5007 116 48.4339 115.998 48.3671C115.998 48.3493 115.997 48.3315 115.996 48.3136C115.993 48.2452 115.989 48.1766 115.982 48.108C115.982 48.0991 115.98 48.0901 115.979 48.0811C115.957 47.8732 115.918 47.6657 115.861 47.4585C115.849 47.4129 115.836 47.3675 115.822 47.3215C115.81 47.2821 115.796 47.2426 115.783 47.2032C115.762 47.1433 115.741 47.0832 115.717 47.0226C115.706 46.994 115.694 46.9655 115.682 46.9369C115.651 46.8612 115.617 46.785 115.581 46.7083C115.574 46.6941 115.567 46.6799 115.56 46.6656C115.314 46.1593 114.951 45.6334 114.444 45.0926L91.7027 19.9247C91.417 19.6088 91.0531 19.2969 90.6203 18.9916C90.6049 18.9807 90.5894 18.9698 90.5738 18.9589C90.4847 18.8968 90.3922 18.8351 90.2972 18.7736C90.2701 18.756 90.2436 18.7385 90.216 18.721C90.1259 18.6639 90.0327 18.6072 89.9376 18.5507C89.9066 18.5324 89.8769 18.5138 89.8453 18.4955C89.7201 18.4225 89.5915 18.35 89.4579 18.2782C89.3254 18.2069 89.1882 18.1366 89.0487 18.0669C89.0042 18.0447 88.9586 18.0226 88.9133 18.0007C88.8142 17.9523 88.7133 17.9042 88.6107 17.8564C88.5581 17.832 88.5056 17.8076 88.4521 17.7832C88.3398 17.7324 88.2252 17.682 88.109 17.6319C88.0308 17.5983 87.9514 17.5648 87.8714 17.5315C87.7676 17.4882 87.6631 17.4451 87.5565 17.4026C87.4663 17.3665 87.374 17.3309 87.2817 17.2954C87.22 17.2717 87.1581 17.248 87.0956 17.2246C86.9844 17.1827 86.8724 17.141 86.7581 17.0998C86.7525 17.0978 86.7467 17.0957 86.741 17.0937C86.2052 16.9006 85.6389 16.7137 85.0387 16.5347C85.0355 16.5338 85.0321 16.5325 85.0289 16.5316L75.0189 13.546L63.1881 10.0172L63.1773 10.014L63.1745 10.0132C63.1743 10.0131 63.1748 10.0134 63.1745 10.0132L63.1724 10.0126C63.1638 10.0101 63.152 10.0093 63.1423 10.0076C63.1288 10.0052 63.1164 10.0019 63.1017 10.0009C63.0758 9.99924 63.0491 9.9998 63.0243 10.0032C63.0059 10.0053 62.9899 10.0086 62.978 10.0123L62.9254 10.0278L41.0831 16.4582C40.2042 16.7169 39.3967 16.9907 38.6632 17.2773C38.6289 17.2906 38.5961 17.3041 38.5622 17.3174C38.4683 17.3546 38.3749 17.392 38.2834 17.4296C38.2128 17.4585 38.1436 17.4877 38.0745 17.5169C38.0265 17.5372 37.979 17.5575 37.9319 17.5779C37.8445 17.6156 37.7581 17.6534 37.6731 17.6916C37.6622 17.6965 37.6515 17.7014 37.6405 17.7063C36.1978 18.3569 35.1038 19.0679 34.4172 19.8222L11.4842 45.0171C11.4835 45.0179 11.483 45.0184 11.4823 45.0194C11.3719 45.1407 11.2696 45.2625 11.1714 45.3846C11.1575 45.4017 11.1434 45.4191 11.1298 45.4364C11.0303 45.5621 10.9372 45.6883 10.8509 45.8147C10.8387 45.8326 10.8272 45.8507 10.8152 45.8686C10.6173 46.1651 10.4537 46.4631 10.3279 46.7621C10.3271 46.7644 10.3263 46.7665 10.3254 46.7687C10.2917 46.8492 10.2604 46.9297 10.232 47.0104C10.224 47.0329 10.2177 47.0553 10.2101 47.0778C10.19 47.1378 10.1698 47.1979 10.1526 47.2581C10.1376 47.3105 10.1255 47.3629 10.1128 47.4153C10.1054 47.4455 10.0965 47.4755 10.09 47.5058C9.95508 48.1181 9.97229 48.7318 10.1387 49.3433C10.1456 49.3684 10.1529 49.3933 10.1602 49.4184C10.1857 49.5054 10.2141 49.5924 10.2455 49.6794C10.2548 49.7049 10.263 49.7305 10.2728 49.7561C10.3102 49.8536 10.3517 49.951 10.3968 50.0484C10.4175 50.0933 10.4403 50.1381 10.4627 50.1829C10.4774 50.2122 10.4905 50.2416 10.5059 50.271C10.5163 59.6013 15.8714 66.5232 21.0505 73.2177C23.6213 76.5408 26.2783 79.9767 28.2438 83.661C28.3754 83.9184 28.5483 84.1744 28.761 84.4286C28.7702 84.4396 28.7796 84.4505 28.7888 84.4615C28.8847 84.5741 28.9873 84.6865 29.0992 84.7985C29.1048 84.8042 29.1111 84.8098 29.1168 84.8155C29.1736 84.8718 29.2307 84.9282 29.2915 84.9842L62.7812 115.919L62.7899 115.927L62.8668 116L62.8677 115.999L62.9335 115.939L62.9413 115.946L62.9376 115.935L62.9484 115.925L96.5521 85.109C96.5818 85.0819 96.606 85.0545 96.6348 85.0272C96.7007 84.9647 96.7637 84.9019 96.8249 84.8389C96.8671 84.7953 96.9104 84.7518 96.9503 84.7081C97.0406 84.6092 97.1259 84.5097 97.2042 84.4096C97.2276 84.3795 97.248 84.3495 97.2704 84.3194C97.3323 84.2361 97.3911 84.1524 97.4446 84.0684C97.4724 84.0246 97.4973 83.9806 97.5229 83.9368C97.5437 83.9008 97.5678 83.8651 97.5871 83.829L115.47 50.47C115.474 50.4635 115.477 50.4567 115.48 50.4502C115.487 50.4366 115.494 50.4229 115.501 50.4091C115.568 50.2806 115.63 50.1477 115.686 50.0107C115.69 50.0018 115.695 49.993 115.698 49.9841C115.704 49.9711 115.707 49.9581 115.712 49.9451C115.741 49.8729 115.767 49.7999 115.792 49.7256C115.804 49.6895 115.815 49.6534 115.826 49.6174ZM97.1115 83.8691C97.0556 83.9566 96.9952 84.0442 96.9292 84.1316C96.9189 84.1453 96.9101 84.1592 96.8995 84.1727C96.726 84.3969 96.5196 84.6198 96.2796 84.8413L96.2701 84.85C95.8836 85.2054 95.4134 85.5518 94.8698 85.8886L97.214 83.6921C97.2032 83.7113 97.194 83.7305 97.1828 83.7496C97.1596 83.7894 97.1367 83.8293 97.1115 83.8691ZM10.7938 49.9695C10.7542 49.8839 10.7177 49.7981 10.6843 49.7122C10.6691 49.6731 10.656 49.6339 10.6421 49.5947C10.619 49.5295 10.5973 49.4642 10.5779 49.3989C10.5671 49.3631 10.5562 49.3274 10.5465 49.2916C10.521 49.1966 10.4985 49.1014 10.4806 49.0061C10.4675 48.9365 10.4569 48.8669 10.448 48.7971C10.447 48.7892 10.4454 48.7812 10.4445 48.7732C10.4357 48.7008 10.4296 48.6285 10.4253 48.5561C10.425 48.5491 10.424 48.5422 10.4237 48.5351C10.4199 48.4644 10.4188 48.3937 10.4193 48.3228C10.4194 48.3139 10.4188 48.305 10.4189 48.2962C10.4199 48.2287 10.4237 48.1613 10.4285 48.094C10.4294 48.0815 10.4295 48.0691 10.4304 48.0566C10.4355 47.9947 10.4434 47.9327 10.4517 47.8707C10.4542 47.8527 10.4556 47.8345 10.4584 47.8165C10.4614 47.7965 10.466 47.7767 10.4693 47.7567L12.9431 52.5199C12.126 51.8576 11.5029 51.1822 11.0802 50.4978C11.0724 50.4852 11.0642 50.4725 11.0565 50.4597C11.0122 50.3868 10.9709 50.3136 10.9312 50.2404C10.9121 50.205 10.8937 50.1695 10.8755 50.1342C10.8475 50.0793 10.8192 50.0245 10.7938 49.9695ZM10.9647 46.3872C11.0333 46.2645 11.1099 46.1423 11.191 46.0206C11.2074 45.9961 11.2232 45.9714 11.24 45.9469C11.3173 45.8344 11.4007 45.7222 11.4884 45.6105C11.5167 45.5747 11.5455 45.5388 11.5749 45.5031C11.6588 45.4002 11.7467 45.2977 11.8394 45.1957C11.9309 45.0953 12.0292 44.9955 12.129 44.8959C12.1564 44.8684 12.182 44.8409 12.2102 44.8135C12.3077 44.7185 12.4111 44.6241 12.516 44.53C12.553 44.4968 12.5888 44.4634 12.6266 44.4303C12.7268 44.3428 12.832 44.2559 12.9384 44.1692C12.9892 44.1278 13.0396 44.0865 13.0918 44.0452C13.1568 43.994 13.2253 43.9432 13.2924 43.8922L10.8422 46.6199C10.8574 46.589 10.8746 46.558 10.8907 46.5271C10.9149 46.4805 10.9385 46.4338 10.9647 46.3872ZM85.3955 17.0354C85.5767 17.0924 85.755 17.1501 85.9305 17.2085C86.0235 17.2395 86.1168 17.2706 86.208 17.302C86.2853 17.3285 86.3613 17.3554 86.4374 17.3823C86.5385 17.4182 86.6386 17.4542 86.7375 17.4904C86.802 17.514 86.8665 17.5377 86.9301 17.5615C86.9903 17.5842 87.0484 17.6073 87.1077 17.63L83.4879 16.4922C83.5478 16.5077 83.6078 16.5231 83.6672 16.5387C83.7878 16.5705 83.9074 16.6027 84.0262 16.6352C84.1815 16.6775 84.335 16.7203 84.4868 16.7636C84.6408 16.8077 84.7935 16.8521 84.9442 16.8971C85.0363 16.9247 85.1288 16.952 85.2195 16.9801C85.2789 16.9983 85.3368 17.0169 85.3955 17.0354ZM90.3303 19.249C90.3499 19.2626 90.3688 19.276 90.3881 19.2894C90.4781 19.3529 90.5656 19.4164 90.6491 19.4803C90.6578 19.487 90.6665 19.4936 90.6751 19.5003C91.0499 19.7896 91.356 20.0835 91.594 20.3801C91.6039 20.3924 91.6145 20.4046 91.6241 20.4169C91.6759 20.4832 91.7235 20.5496 91.7685 20.6161C91.7812 20.6351 91.7934 20.654 91.8055 20.673C91.8485 20.7396 91.8898 20.8064 91.9259 20.8734C91.9263 20.8741 91.9265 20.8748 91.927 20.8756C91.9959 21.0038 92.0488 21.1323 92.0918 21.2608C92.1034 21.2957 92.1162 21.3305 92.1259 21.3654C92.1354 21.3993 92.1417 21.4334 92.1495 21.4675L90.4914 19.5805L90.0192 19.0431C90.038 19.0551 90.0562 19.0671 90.0749 19.0791C90.1624 19.1356 90.2482 19.1922 90.3303 19.249ZM114.398 45.6233C114.449 45.685 114.497 45.7467 114.545 45.8085C114.564 45.8328 114.584 45.8571 114.602 45.8814C114.649 45.9434 114.693 46.0055 114.736 46.0677C114.753 46.0909 114.769 46.1141 114.785 46.1374C114.828 46.2014 114.87 46.2656 114.91 46.3299C114.922 46.3498 114.934 46.3697 114.946 46.3897C114.987 46.4574 115.027 46.5252 115.064 46.5931C115.071 46.6067 115.078 46.6204 115.085 46.634C115.342 47.1146 115.499 47.5983 115.556 48.0834C115.557 48.0962 115.559 48.1089 115.561 48.1217C115.568 48.1905 115.573 48.2594 115.576 48.3282C115.577 48.3483 115.578 48.3682 115.579 48.3883C115.581 48.4529 115.581 48.5177 115.579 48.5824C115.579 48.6068 115.578 48.6313 115.577 48.6556C115.574 48.7174 115.57 48.7792 115.564 48.841C115.561 48.8689 115.557 48.8968 115.554 48.9247C115.547 48.9838 115.539 49.0428 115.529 49.1019C115.524 49.1338 115.516 49.1657 115.51 49.1976C115.51 49.1987 115.51 49.1996 115.509 49.2008L110.196 43.0363L110.4 42.581C110.54 42.6575 110.678 42.7339 110.813 42.8109C110.855 42.8353 110.898 42.8598 110.94 42.8843C111.304 43.0964 111.648 43.3106 111.971 43.5266C112.002 43.5471 112.032 43.5678 112.063 43.5883C112.383 43.8053 112.681 44.0242 112.959 44.2444C112.989 44.2684 113.019 44.2924 113.049 44.3165C113.182 44.4243 113.312 44.5324 113.435 44.6409C113.447 44.6516 113.458 44.6622 113.47 44.6729C113.577 44.7685 113.679 44.8645 113.779 44.9606C113.815 44.9954 113.85 45.0302 113.885 45.0649C113.981 45.1609 114.074 45.2569 114.162 45.3532C114.226 45.4234 114.287 45.4938 114.347 45.5643C114.364 45.5841 114.381 45.6037 114.398 45.6233ZM115.475 49.3647C115.475 49.3661 115.474 49.3673 115.474 49.3686L110.135 43.172L110.168 43.0973L115.494 49.2753C115.487 49.3051 115.482 49.335 115.475 49.3647ZM29.3136 84.4685C29.2289 84.3803 29.1498 84.2919 29.0757 84.2031C29.0637 84.1888 29.051 84.1744 29.0393 84.16C28.9608 84.0638 28.8886 83.9673 28.8224 83.8704C28.8127 83.8564 28.8037 83.8424 28.7944 83.8284C28.728 83.7287 28.6665 83.6286 28.6133 83.5283C28.5625 83.4327 28.5191 83.3368 28.4804 83.2409C28.4751 83.2279 28.4699 83.215 28.4648 83.202C28.3901 83.0081 28.3401 82.8135 28.3149 82.619C28.3137 82.6092 28.3122 82.5994 28.311 82.5896C28.2995 82.4913 28.2938 82.3928 28.295 82.2944C28.295 82.2916 28.2953 82.2888 28.2953 82.286C28.2969 82.1917 28.305 82.0976 28.3182 82.0034C28.3197 81.9921 28.3208 81.9809 28.3226 81.9697C28.324 81.9613 28.3267 81.9528 28.328 81.9444L30.0972 83.6825L31.2227 85.9207C31.1458 85.875 31.0674 85.8295 30.9936 85.7836C30.9602 85.7628 30.9264 85.7421 30.8935 85.7211C30.7582 85.6353 30.6278 85.5489 30.5029 85.4623C30.471 85.4402 30.4405 85.418 30.4092 85.3958C30.2988 85.3174 30.1921 85.2387 30.0901 85.1597C30.0711 85.1449 30.0508 85.1302 30.0321 85.1154C29.9182 85.0257 29.8111 84.9354 29.7083 84.845C29.6839 84.8236 29.6598 84.8022 29.636 84.7806C29.5345 84.689 29.4375 84.5969 29.3473 84.5045C29.3357 84.4925 29.3251 84.4805 29.3136 84.4685ZM10.7331 46.8584C10.7405 46.8407 10.7494 46.823 10.7571 46.8054L13.5386 43.7089C13.5626 43.6915 13.5859 43.674 13.6101 43.6566C13.6796 43.6068 13.7516 43.5571 13.8233 43.5076L10.67 47.0195C10.6744 47.0077 10.6791 46.9959 10.6836 46.9843C10.6999 46.9422 10.7152 46.9003 10.7331 46.8584ZM35.1863 19.6075C35.2543 19.5501 35.3235 19.4929 35.3966 19.4359C35.4405 19.4016 35.4854 19.3676 35.531 19.3335C35.6447 19.249 35.7609 19.1647 35.886 19.0813C35.8898 19.0787 35.894 19.0762 35.898 19.0736C36.0389 18.9799 36.1876 18.887 36.3427 18.7948C36.3553 18.7873 36.3678 18.7798 36.3803 18.7724C36.9017 18.4653 37.5042 18.1672 38.1797 17.8794L36.2416 20.1686L34.0868 20.9791C34.0976 20.954 34.107 20.9291 34.1188 20.904C34.146 20.8467 34.178 20.7895 34.2102 20.7324C34.2336 20.6909 34.2541 20.6494 34.2803 20.6081C34.335 20.521 34.3962 20.4345 34.4626 20.348C34.5066 20.291 34.5568 20.2342 34.6059 20.1772C34.6384 20.1397 34.6698 20.102 34.7043 20.0646C34.7473 20.0183 34.792 19.9721 34.838 19.9262C34.8841 19.8802 34.9327 19.8345 34.9821 19.7888C35.0474 19.728 35.1155 19.6676 35.1863 19.6075ZM10.5396 47.4285C10.5476 47.3977 10.5544 47.3671 10.5632 47.3364C10.5755 47.2935 10.5903 47.2507 10.6041 47.2079C10.6082 47.1953 10.6121 47.1828 10.6163 47.1702L14.0321 43.3659C14.0841 43.3312 14.1353 43.2963 14.1884 43.2618C14.2692 43.2089 14.3505 43.1561 14.4337 43.1037C14.5671 43.0197 14.704 42.9362 14.8435 42.853C14.8995 42.8196 14.9544 42.7861 15.0114 42.7529C15.2078 42.6384 15.409 42.5244 15.6172 42.4115C15.6211 42.4093 15.6248 42.4072 15.6286 42.4052C16.6218 41.867 17.7509 41.3483 18.9985 40.8505L21.232 46.3411L15.5425 54.2302C15.4177 54.1616 15.2948 54.0928 15.1745 54.0237C15.1131 53.9885 15.0524 53.9532 14.9921 53.9179C14.8892 53.8576 14.7889 53.7972 14.6894 53.7367C14.6237 53.6966 14.5571 53.6567 14.4928 53.6164C14.405 53.5616 14.3206 53.5066 14.2356 53.4515C14.084 53.3533 13.9364 53.2546 13.7937 53.1557C13.7557 53.1293 13.7167 53.103 13.6793 53.0767C13.5811 53.0074 13.4859 52.9379 13.3922 52.8682C13.37 52.8518 13.3481 52.8355 13.3261 52.8191L10.5354 47.4456C10.5368 47.4399 10.5381 47.4342 10.5396 47.4285ZM87.869 17.9367C87.9063 17.9526 87.9425 17.9688 87.9793 17.9847C88.0933 18.0342 88.2054 18.0839 88.3153 18.134C88.3457 18.1479 88.3755 18.1617 88.4056 18.1757L82.2194 16.1974L82.0602 16.1467C82.2292 16.1849 82.3966 16.2236 82.5625 16.263L87.8105 17.9126C87.8296 17.9206 87.8498 17.9286 87.869 17.9367ZM88.8748 18.4008C89.0098 18.4683 89.142 18.5362 89.2696 18.6048C89.3446 18.6451 89.4148 18.6859 89.487 18.7266L92.1959 21.811C92.1988 21.8811 92.2011 21.9511 92.1964 22.021C92.1959 22.0287 92.1965 22.0363 92.196 22.0439C92.1904 22.1122 92.1761 22.1803 92.1634 22.2485L80.5551 17.3903L79.4946 15.6277C80.1613 15.7478 80.81 15.8754 81.44 16.0102L88.7983 18.3632C88.8236 18.3758 88.8497 18.3882 88.8748 18.4008ZM103.808 57.1056L103.792 57.1408C103.765 57.1495 103.739 57.1583 103.711 57.1671L105.274 53.6888L105.315 53.7512L103.808 57.1056ZM33.2656 86.9563C33.2019 86.9285 33.137 86.9011 33.0743 86.8731C32.9881 86.8345 32.9047 86.7954 32.8205 86.7564C32.7586 86.7278 32.6955 86.6994 32.6345 86.6705C32.553 86.6318 32.474 86.5926 32.3942 86.5534C32.3338 86.5238 32.2719 86.4943 32.2124 86.4644C32.1347 86.4252 32.0596 86.3854 31.9836 86.3458C31.9298 86.3177 31.875 86.2899 31.8222 86.2617L30.9432 84.5135L33.5582 87.0825C33.5491 87.0787 33.5395 87.075 33.5304 87.0712C33.4406 87.0332 33.3535 86.9946 33.2656 86.9563ZM33.7066 87.1437L30.8591 84.3462L30.7673 84.1635L33.8385 87.1979C33.8013 87.1827 33.7642 87.1675 33.7273 87.1522C33.7203 87.1493 33.7134 87.1465 33.7066 87.1437ZM42.8535 89.681C42.7026 89.6526 42.5535 89.6236 42.4041 89.5946C42.3275 89.5798 42.25 89.5652 42.1738 89.5502C42.0283 89.5215 41.8848 89.492 41.7409 89.4626C41.6626 89.4467 41.5833 89.4311 41.5054 89.415C41.3578 89.3844 41.2122 89.3529 41.0663 89.3216C40.9947 89.3063 40.922 89.2914 40.8508 89.2758C40.7034 89.2436 40.5581 89.2108 40.4126 89.1779C40.3438 89.1625 40.2742 89.1475 40.2061 89.1318C40.065 89.0995 39.9262 89.0664 39.787 89.0336C39.7159 89.0167 39.6437 89.0002 39.573 88.9833C39.4356 88.9502 39.3004 88.9164 39.1649 88.8827C39.0946 88.8654 39.0234 88.8482 38.9537 88.8306C38.8191 88.7967 38.6868 88.7619 38.5543 88.7274C38.4853 88.7093 38.4153 88.6917 38.3469 88.6736C38.2172 88.6392 38.0898 88.6041 37.9621 88.5691C37.8927 88.5501 37.8221 88.5314 37.7532 88.5122C37.6284 88.4773 37.5057 88.4418 37.3828 88.4065C37.3132 88.3865 37.2425 88.3668 37.1735 88.3466C37.0532 88.3114 36.9353 88.2755 36.817 88.2397C36.7474 88.2187 36.6767 88.1979 36.6078 88.1767C36.4907 88.1408 36.3761 88.104 36.2611 88.0675C36.1933 88.0459 36.1243 88.0247 36.057 88.0029C35.9427 87.9659 35.8309 87.9282 35.7184 87.8906C35.6527 87.8687 35.586 87.847 35.521 87.8248C35.4122 87.7878 35.3059 87.7501 35.1992 87.7125C35.1328 87.6891 35.0651 87.666 34.9993 87.6425C34.8955 87.6053 34.7942 87.5673 34.6924 87.5295C34.6264 87.5051 34.5591 87.4808 34.4939 87.4561C34.3945 87.4185 34.2978 87.3803 34.2002 87.3422C34.135 87.3166 34.0686 87.2915 34.0043 87.2658C33.9979 87.2632 33.9918 87.2606 33.9854 87.258L30.6823 83.9947L28.9655 80.5803C29.014 80.5174 29.063 80.4545 29.1166 80.3921C29.1269 80.3799 29.1375 80.3678 29.148 80.3557C29.6355 79.7991 30.3241 79.2584 31.197 78.7406C31.971 78.2907 32.884 77.8585 33.9229 77.4481L43.1798 89.7406C43.1469 89.7347 43.1139 89.7286 43.081 89.7226C43.0054 89.7086 42.9288 89.6951 42.8535 89.681ZM16.4096 55.0308C16.4518 55.0515 16.4953 55.0719 16.5378 55.0925C16.6895 55.166 16.8434 55.2389 16.9994 55.3114C17.0598 55.3394 17.1201 55.3673 17.1811 55.3951C17.3487 55.4718 17.5186 55.5479 17.6909 55.6233C17.7247 55.6382 17.7577 55.6531 17.7917 55.6679C17.9955 55.7564 18.2031 55.844 18.4133 55.9309C18.4723 55.9553 18.5323 55.9795 18.592 56.0037C18.7551 56.0703 18.92 56.1363 19.0868 56.2019C19.1492 56.2264 19.2112 56.251 19.274 56.2754C19.4939 56.3606 19.7161 56.4453 19.9422 56.5289C19.9661 56.5378 19.9909 56.5465 20.0149 56.5554C20.2201 56.6309 20.4285 56.7057 20.6388 56.7799C20.7078 56.8043 20.7774 56.8285 20.8468 56.8527C21.0322 56.9173 21.2193 56.9813 21.4083 57.0448C21.4648 57.0638 21.5206 57.0828 21.5772 57.1018C21.8168 57.1813 22.0593 57.2601 22.3047 57.3382C22.3618 57.3563 22.4198 57.3742 22.4772 57.3923C22.6742 57.4542 22.8729 57.5156 23.0736 57.5765C23.148 57.5993 23.2225 57.6218 23.2976 57.6443C23.5282 57.7135 23.761 57.7821 23.9963 57.8499C24.0222 57.8574 24.0475 57.865 24.0734 57.8724C24.3343 57.9473 24.5987 58.021 24.8652 58.0942C24.9378 58.1142 25.0112 58.1339 25.0842 58.1537C25.292 58.2101 25.5015 58.266 25.7127 58.3214C25.7851 58.3403 25.8571 58.3595 25.9298 58.3783C26.0037 58.3975 26.0777 58.4167 26.152 58.4357L33.7887 77.2084C32.8764 77.5741 32.0629 77.9575 31.3564 78.3566C30.2531 78.9678 29.4005 79.6158 28.8202 80.2913L16.0209 54.8363C16.1491 54.9014 16.2781 54.9663 16.4096 55.0308ZM47.6564 74.2966L48.624 76.945L47.652 74.2971C47.6534 74.2969 47.6548 74.2968 47.6564 74.2966ZM60.0933 91.3592C60.0208 91.3575 59.9482 91.3562 59.8758 91.3544C59.673 91.3493 59.4707 91.3432 59.2684 91.3372C59.1938 91.3349 59.1188 91.3331 59.0441 91.3308C58.8409 91.3244 58.6382 91.317 58.4354 91.3096C58.3622 91.3069 58.2887 91.3046 58.2155 91.3018C58.0134 91.2942 57.8118 91.2856 57.6104 91.277C57.537 91.2738 57.4634 91.271 57.3901 91.2678C57.1921 91.259 56.9947 91.2493 56.7974 91.2395C56.7211 91.2358 56.6445 91.2325 56.5683 91.2287C56.3769 91.2189 56.1861 91.2082 55.9955 91.1976C55.9138 91.1931 55.8318 91.189 55.7504 91.1843C55.567 91.1737 55.3845 91.1623 55.2019 91.151C55.1136 91.1455 55.025 91.1405 54.9368 91.1348C54.7522 91.123 54.5683 91.1102 54.3845 91.0976C54.2997 91.0918 54.2144 91.0864 54.1298 91.0804C54.0354 91.0738 53.9418 91.0664 53.8476 91.0595L52.3104 86.8532L47.7193 74.2892C48.2678 74.22 48.8195 74.1544 49.3747 74.0936C49.422 74.0884 49.4695 74.0835 49.5168 74.0784C50.0743 74.0179 50.6347 73.9617 51.1979 73.9095C51.2569 73.904 51.316 73.8986 51.3751 73.8932C51.9427 73.8415 52.5127 73.7938 53.085 73.7503C53.1267 73.747 53.1683 73.7438 53.21 73.7405C54.435 73.6487 55.6692 73.5755 56.9072 73.5204L57.0194 73.5157C57.6075 73.49 58.1965 73.4685 58.7858 73.451C58.8332 73.4496 58.8805 73.4482 58.9278 73.4469C59.1464 73.4406 59.3651 73.4377 59.5838 73.4326L60.346 91.3647C60.2618 91.3631 60.1776 91.3612 60.0933 91.3592ZM43.9216 35.2893L46.7773 28.3362C46.7818 28.337 46.7862 28.3377 46.7906 28.3385L43.9375 35.2877C43.9321 35.2883 43.9269 35.2887 43.9216 35.2893ZM44.4915 27.889C44.4983 27.8906 44.5056 27.892 44.5124 27.8935C44.7436 27.9434 44.9781 27.9919 45.2143 28.0398C45.2735 28.0518 45.333 28.0638 45.3925 28.0757C45.6205 28.1212 45.8504 28.1659 46.0827 28.2095C46.1005 28.2128 46.1177 28.2163 46.1354 28.2196C46.3274 28.2554 46.5207 28.2907 46.7155 28.3253L43.8524 35.2962C43.4416 35.3375 43.032 35.3804 42.6234 35.4247C42.5519 35.4324 42.4803 35.4398 42.4089 35.4477C41.579 35.5387 40.7537 35.6358 39.9339 35.7391L43.8723 27.7513C44.0767 27.7979 44.2828 27.844 44.4915 27.889ZM43.8493 56.1491L44.9021 61.284C44.8874 61.2826 44.8726 61.2813 44.8579 61.2798C44.6374 61.2582 44.4182 61.2354 44.1988 61.213C44.0255 61.1953 43.8514 61.1782 43.6788 61.1599C43.4611 61.137 43.2449 61.1131 43.0282 61.0893C42.8555 61.0705 42.6821 61.0521 42.5101 61.0327C42.2944 61.0084 42.0804 60.9831 41.8659 60.9581C41.6952 60.9381 41.5238 60.9187 41.3539 60.8983C41.139 60.8724 40.9258 60.8456 40.7122 60.8191C40.5445 60.7982 40.376 60.7778 40.2092 60.7565C39.9941 60.7291 39.7808 60.7006 39.5671 60.6724C39.4041 60.6508 39.2402 60.6298 39.0781 60.6078C38.8588 60.5781 38.6415 60.5474 38.4237 60.5169C38.2696 60.4954 38.1147 60.4742 37.9614 60.4522C37.7415 60.4207 37.5236 60.3881 37.3053 60.3557C37.1553 60.3334 37.0044 60.3117 36.8551 60.289C36.6397 60.2564 36.4263 60.2227 36.2127 60.1892C36.0626 60.1658 35.9118 60.1427 35.7627 60.1188C35.5485 60.0845 35.3365 60.0492 35.124 60.0141C34.9783 59.99 34.8318 59.9664 34.6871 59.9419C34.4751 59.9062 34.2655 59.8694 34.0553 59.8328C34.0153 59.8258 33.975 59.8189 33.935 59.8118L41.0483 42.4863L43.8493 56.1491ZM34.799 60.2326C34.8543 60.2418 34.9101 60.2506 34.9653 60.2598C35.2325 60.304 35.5011 60.3476 35.7711 60.3905C35.8687 60.4061 35.9668 60.4214 36.0648 60.4368C36.33 60.4783 36.5965 60.5194 36.8644 60.5597C36.9272 60.5691 36.9896 60.5789 37.0526 60.5883C37.3784 60.6368 37.706 60.6845 38.0352 60.7312C38.1218 60.7434 38.2086 60.7554 38.2952 60.7676C38.5495 60.8033 38.8047 60.8383 39.061 60.8729C39.1617 60.8864 39.2622 60.9 39.3632 60.9134C39.6931 60.9572 40.0243 61.0004 40.3576 61.0423C40.3805 61.0453 40.4034 61.0481 40.4262 61.0509C40.7444 61.0908 41.0641 61.1297 41.385 61.1679C41.492 61.1806 41.5995 61.1932 41.7068 61.2057C41.9627 61.2358 42.2195 61.2651 42.4769 61.294C42.5736 61.3049 42.6699 61.3159 42.7667 61.3267C43.1044 61.3639 43.4433 61.4003 43.7836 61.4359C43.8701 61.4448 43.9572 61.4534 44.0439 61.4623C44.3095 61.4895 44.5759 61.5163 44.843 61.5423C44.8812 61.5461 44.919 61.5502 44.9573 61.5539L47.5162 74.0367C47.2208 74.0747 46.9272 74.1133 46.6371 74.1533C46.39 74.1873 46.1469 74.2227 45.9038 74.258C45.8373 74.2677 45.7697 74.2769 45.7034 74.2868C43.2575 74.6484 41.0221 75.081 39.0233 75.5727L33.9421 60.0866C34.2262 60.136 34.5119 60.1846 34.799 60.2326ZM58.9558 73.1678L58.7463 73.1739C58.1789 73.1909 57.6117 73.2116 57.0453 73.2362C56.9927 73.2385 56.94 73.2405 56.8874 73.2429C56.2755 73.2702 55.6644 73.3015 55.0551 73.3378C55.0512 73.3381 55.0473 73.3383 55.0434 73.3386C54.4352 73.3748 53.8287 73.416 53.2243 73.4613C53.1757 73.4648 53.1273 73.4687 53.0788 73.4724C52.5129 73.5155 51.9492 73.5627 51.3879 73.6138C51.3274 73.6193 51.2671 73.6248 51.2066 73.6304C50.6458 73.6824 50.0877 73.7385 49.5326 73.7986C49.485 73.8038 49.4371 73.8087 49.3896 73.814C48.8025 73.8784 48.2187 73.947 47.6392 74.0206L45.086 61.5663C45.1229 61.5698 45.16 61.5731 45.197 61.5766C45.4731 61.6031 45.7501 61.6289 46.0279 61.6541C46.1069 61.6612 46.1856 61.6687 46.2647 61.6758C46.6066 61.7063 46.9497 61.7359 47.2937 61.7646C47.4111 61.7744 47.5289 61.7839 47.6466 61.7935C47.8951 61.8137 48.1441 61.8335 48.3936 61.8529C48.5177 61.8624 48.6418 61.8722 48.7663 61.8815C49.1078 61.9071 49.4498 61.9324 49.7932 61.9562C49.871 61.9617 49.9495 61.9667 50.0277 61.972C50.3129 61.9915 50.5986 62.0105 50.8851 62.0287C51.0194 62.0374 51.1538 62.0457 51.2884 62.054C51.5363 62.0692 51.7849 62.084 52.0337 62.0983C52.1549 62.1054 52.2758 62.1126 52.3973 62.1194C52.7426 62.1387 53.0888 62.1571 53.4356 62.1746C53.5569 62.1806 53.6785 62.1862 53.8 62.1921C54.048 62.2041 54.2965 62.2158 54.5454 62.2269C54.6879 62.2333 54.8302 62.2395 54.973 62.2456C55.2382 62.2568 55.5039 62.2675 55.77 62.2777C55.8757 62.2818 55.9812 62.2862 56.0871 62.29C56.4316 62.3028 56.7767 62.3142 57.1221 62.3252C57.2683 62.3298 57.4147 62.3339 57.5613 62.3382C57.7914 62.3449 58.0217 62.3513 58.2522 62.3572C58.4022 62.3612 58.5522 62.3651 58.7022 62.3687C58.8394 62.3718 58.9767 62.3747 59.1139 62.3777L59.5718 73.1518C59.3664 73.1566 59.1611 73.162 58.9558 73.1678ZM59.7512 34.4053C59.699 34.406 59.6469 34.4071 59.5948 34.4078C58.6994 34.4212 57.8037 34.4408 56.9083 34.4664C56.833 34.4685 56.758 34.4707 56.6828 34.4729C55.7898 34.4995 54.8974 34.5321 54.0061 34.571C53.9498 34.5734 53.8936 34.5756 53.8372 34.5781C51.9592 34.6616 50.0877 34.7727 48.2297 34.912C48.164 34.917 48.0987 34.9222 48.033 34.9273C47.166 34.9932 46.3024 35.0655 45.4424 35.1438C45.3534 35.1519 45.2646 35.1601 45.1757 35.1682C44.7851 35.2046 44.3955 35.242 44.0067 35.2808L46.8526 28.3492C46.867 28.3517 46.8817 28.3542 46.8963 28.3568C46.9549 28.3671 47.0138 28.377 47.0726 28.3872C47.293 28.4251 47.5151 28.4623 47.7389 28.4986C47.7811 28.5055 47.823 28.5125 47.8654 28.5194C48.1265 28.5613 48.3901 28.602 48.6557 28.6417C48.7074 28.6494 48.7597 28.657 48.8116 28.6646C49.0391 28.6981 49.2679 28.7309 49.4984 28.7628C49.5523 28.7703 49.606 28.7778 49.6602 28.7852C49.9332 28.8226 50.2079 28.8587 50.4849 28.8937C50.5188 28.898 50.5533 28.9021 50.5874 28.9064C50.8341 28.9372 51.0826 28.967 51.3325 28.9961C51.3929 29.0031 51.4534 29.0102 51.5141 29.0171C52.0782 29.0816 52.6495 29.1413 53.2272 29.1963C53.2911 29.2024 53.355 29.2084 53.4189 29.2144C53.6974 29.2403 53.9769 29.2655 54.2582 29.2894C54.2679 29.2902 54.2775 29.291 54.2871 29.2918C54.5827 29.3167 54.88 29.3401 55.1782 29.3625C55.2382 29.367 55.2982 29.3714 55.3582 29.3759C55.6211 29.3952 55.8849 29.4137 56.1497 29.431C56.1884 29.4335 56.2269 29.4362 56.2656 29.4388C56.5666 29.4582 56.8687 29.4763 57.172 29.4932C57.222 29.496 57.2723 29.4986 57.3225 29.5014C57.586 29.5158 57.8502 29.5291 58.1151 29.5415C58.1693 29.5441 58.2235 29.5468 58.2777 29.5493C58.5834 29.5632 58.8899 29.576 59.1974 29.5874C59.2306 29.5886 59.2638 29.5896 59.297 29.5909C59.5737 29.6008 59.8511 29.6097 60.129 29.6176C60.1901 29.6193 60.2511 29.6211 60.3122 29.6227C60.4972 29.6277 60.6825 29.6321 60.8678 29.6361L60.6113 34.3953C60.3246 34.3981 60.0379 34.4013 59.7512 34.4053ZM41.0262 42.3785L33.8731 59.8011C33.8672 59.8 33.8612 59.799 33.8554 59.798L41.0208 42.3522L41.0262 42.3785ZM33.8502 60.0704C33.8579 60.0717 33.8657 60.0732 33.8734 60.0744L38.9633 75.5877C38.9524 75.5904 38.9417 75.5932 38.9308 75.5959L33.8357 60.0679C33.8406 60.0688 33.8454 60.0696 33.8502 60.0704ZM39.8553 36.0513C41.1323 35.889 42.423 35.7422 43.7238 35.6095L41.0829 42.0395L39.8553 36.0513ZM60.5191 29.3002C60.4144 29.2976 60.3099 29.2946 60.2054 29.2917C60.076 29.2881 59.9465 29.2846 59.8174 29.2806C59.7141 29.2775 59.6111 29.2737 59.5079 29.2702C59.3788 29.2658 59.2495 29.2616 59.1205 29.2566C59.0168 29.2527 58.9133 29.2485 58.8097 29.2442C58.6818 29.239 58.5537 29.234 58.4261 29.2284C58.324 29.2238 58.2222 29.219 58.1203 29.2142C57.9907 29.2081 57.8611 29.202 57.7318 29.1955C57.6335 29.1906 57.5355 29.1852 57.4372 29.18C57.3056 29.173 57.1739 29.166 57.0425 29.1586C56.9468 29.1531 56.8512 29.1472 56.7557 29.1415C56.6226 29.1336 56.4893 29.1256 56.3566 29.1172C56.2627 29.1113 56.1693 29.1049 56.0757 29.0987C55.9424 29.0899 55.809 29.081 55.6762 29.0717C55.5844 29.0652 55.4932 29.0585 55.4017 29.0519C55.2668 29.0419 55.1316 29.0321 54.9972 29.0217C54.9088 29.015 54.8207 29.0078 54.7325 29.0008C54.5969 28.99 54.4612 28.9791 54.3261 28.9678C54.2387 28.9605 54.1519 28.9529 54.0646 28.9454C53.9292 28.9336 53.7938 28.922 53.659 28.9098C53.5738 28.902 53.489 28.8939 53.4041 28.886C53.2678 28.8733 53.1315 28.8605 52.9958 28.8473C52.9138 28.8392 52.8324 28.831 52.7507 28.8228C52.6136 28.809 52.4764 28.7952 52.3401 28.7809C52.2585 28.7723 52.1774 28.7635 52.0961 28.7547C51.9613 28.7403 51.8266 28.7257 51.6925 28.7107C51.6109 28.7015 51.5299 28.6922 51.4487 28.6828C51.3148 28.6674 51.1811 28.6521 51.048 28.6361C50.9689 28.6266 50.8901 28.6169 50.8113 28.6072C50.6772 28.5909 50.5433 28.5744 50.4102 28.5575C50.3329 28.5476 50.256 28.5375 50.1789 28.5276C50.0465 28.5103 49.914 28.4929 49.7825 28.4752C49.7042 28.4647 49.6264 28.4539 49.5486 28.4432C49.4186 28.4252 49.2889 28.4072 49.16 28.3888C49.0833 28.3778 49.0069 28.3666 48.9303 28.3555C48.8014 28.3367 48.6726 28.3177 48.5446 28.2985C48.4695 28.287 48.3947 28.2754 48.3199 28.264C48.192 28.2442 48.0643 28.2244 47.9375 28.2041C47.8636 28.1923 47.7902 28.1803 47.7167 28.1685C47.5895 28.1477 47.4626 28.1269 47.3366 28.1057C47.2651 28.0936 47.1939 28.0814 47.1228 28.0692C47.1035 28.0659 47.0846 28.0624 47.0654 28.0592L59.3444 14.325C60.143 14.2996 60.9432 14.2828 61.7433 14.2746C61.7862 14.2743 61.8292 14.2738 61.8721 14.2734C62.1074 14.2712 62.3424 14.2711 62.5776 14.2705L60.8925 29.3086C60.768 29.306 60.6434 29.3034 60.5191 29.3002ZM46.9947 28.047C46.9816 28.0446 46.9685 28.0424 46.9552 28.04L52.746 21.6142L46.9947 28.047ZM32.8227 37.1298C32.8666 37.1219 32.9105 37.1139 32.9545 37.106C33.3222 37.0395 33.694 36.9743 34.0688 36.9102C34.1536 36.8957 34.2383 36.8811 34.3235 36.8667C34.6606 36.8097 35.0014 36.754 35.3442 36.699C35.4584 36.6806 35.5716 36.6621 35.6864 36.6441C36.0071 36.5934 36.3315 36.5441 36.657 36.4952C36.7895 36.4753 36.9209 36.455 37.0543 36.4354C37.3784 36.3877 37.7065 36.3414 38.0352 36.2954C38.1676 36.2768 38.2982 36.2578 38.4313 36.2395C38.8611 36.1805 39.295 36.1233 39.7323 36.0673L40.9987 42.2443L33.7935 59.7873C33.7373 59.7773 33.6804 59.7678 33.6243 59.7578C33.417 59.7209 33.2119 59.683 33.0064 59.6453C32.8637 59.6191 32.7198 59.5934 32.5779 59.5668C32.3724 59.5284 32.1695 59.4889 31.966 59.4496C31.8271 59.4228 31.687 59.3965 31.5489 59.3692C31.3451 59.3291 31.1439 59.288 30.9421 59.2471C30.8069 59.2196 30.6708 59.1926 30.5366 59.1648C30.3364 59.1234 30.1388 59.081 29.9407 59.0388C29.8073 59.0104 29.6727 58.9822 29.5401 58.9534C29.3447 58.9108 29.1519 58.8673 28.9585 58.8241C28.8265 58.7946 28.6937 58.7653 28.5626 58.7354C28.371 58.6917 28.1821 58.647 27.9927 58.6024C27.8629 58.5719 27.7321 58.5417 27.6034 58.5108C27.416 58.4658 27.2312 58.4199 27.046 58.3742C26.9184 58.3426 26.7898 58.3114 26.6632 58.2796C26.5188 58.2432 26.3769 58.2059 26.2338 58.1689L21.5156 46.5699L27.5225 38.2372C29.1897 37.8403 30.9571 37.4697 32.8227 37.1298ZM26.1599 58.15C26.1473 58.1468 26.1347 58.1435 26.1223 58.1403C26.1132 58.138 26.1043 58.1357 26.0954 58.1333L21.4362 46.68L21.4732 46.6288L26.1599 58.15ZM26.0212 58.1142C25.9283 58.0898 25.8341 58.0661 25.7419 58.0416C25.5655 57.995 25.3922 57.9474 25.2182 57.9C25.0925 57.8658 24.9657 57.8319 24.8412 57.7972C24.6687 57.7493 24.4993 57.7005 24.3293 57.6518C24.207 57.6169 24.0836 57.5821 23.9624 57.5468C23.7952 57.498 23.6309 57.4483 23.466 57.3986C23.345 57.3623 23.2228 57.3262 23.103 57.2894C22.9417 57.2399 22.7836 57.1895 22.6247 57.1393C22.5052 57.1015 22.3845 57.0641 22.2664 57.026C22.1109 56.9758 21.9585 56.9247 21.8055 56.8738C21.6873 56.8346 21.5683 56.7956 21.4517 56.756C21.3021 56.7051 21.1555 56.6534 21.0083 56.6019C20.8923 56.5613 20.7752 56.521 20.6606 56.4799C20.5158 56.4282 20.3742 56.3755 20.2318 56.323C20.1187 56.2813 20.0046 56.24 19.8931 56.1978C19.7538 56.1453 19.6177 56.0919 19.4809 56.0387C19.3702 55.9956 19.2584 55.9528 19.1494 55.9094C19.016 55.8563 18.8858 55.8023 18.7549 55.7486C18.6464 55.704 18.5369 55.6597 18.4301 55.6148C18.3032 55.5614 18.1797 55.5072 18.0552 55.4532C17.9485 55.4069 17.8407 55.3608 17.7357 55.314C17.6154 55.2604 17.4984 55.206 17.3806 55.1519C17.2759 55.1038 17.17 55.0559 17.0673 55.0073C16.953 54.9533 16.842 54.8985 16.7299 54.8439C16.6282 54.7943 16.5256 54.745 16.426 54.695C16.3173 54.6404 16.2119 54.5851 16.1056 54.53C16.0258 54.4886 15.9454 54.4473 15.867 54.4056L21.3938 46.7388L26.0212 58.1142ZM26.7566 58.5885C26.7931 58.5975 26.8303 58.6063 26.867 58.6154C27.1123 58.6759 27.3596 58.7357 27.6088 58.7949C27.6904 58.8143 27.7725 58.8337 27.8546 58.853C28.0874 58.9076 28.3219 58.9616 28.558 59.0152C28.6161 59.0283 28.6738 59.0417 28.7321 59.0547C29.0222 59.12 29.3146 59.1841 29.6095 59.2475C29.6779 59.2622 29.747 59.2766 29.8158 59.2912C30.051 59.3413 30.2875 59.3908 30.5257 59.4396C30.6105 59.4571 30.6952 59.4746 30.7803 59.4918C31.0677 59.5501 31.3568 59.6078 31.6484 59.6645C31.6637 59.6675 31.6786 59.6705 31.6939 59.6735C31.9991 59.7327 32.3071 59.7908 32.6167 59.8483C32.7046 59.8645 32.7927 59.8805 32.8808 59.8967C33.1222 59.9408 33.3649 59.9845 33.6087 60.0277C33.6617 60.037 33.7139 60.0468 33.767 60.0561L38.8708 75.6108C37.0147 76.0731 35.3674 76.587 33.9524 77.1436L26.3641 58.4893C26.4946 58.5225 26.6248 58.5558 26.7566 58.5885ZM46.4942 74.451C46.5311 74.446 46.5671 74.4405 46.6041 74.4354C46.9291 74.3905 47.2574 74.3469 47.5889 74.3046L53.7367 91.0514C53.6778 91.047 53.6186 91.0426 53.5597 91.0382C53.4826 91.0324 53.4052 91.0269 53.3282 91.021C53.1357 91.0062 52.9443 90.9903 52.7528 90.9746C52.6791 90.9685 52.605 90.9628 52.5315 90.9566C52.3412 90.9405 52.1519 90.9236 51.9626 90.9068C51.8886 90.9002 51.8143 90.894 51.7405 90.8873C51.556 90.8703 51.3724 90.8527 51.1888 90.835C51.1112 90.8275 51.033 90.8205 50.9554 90.8129C50.7676 90.7944 50.581 90.7751 50.3943 90.7558C50.3227 90.7484 50.2505 90.7414 50.1791 90.7338C49.9964 90.7146 49.8151 90.6945 49.6335 90.6744C49.5584 90.6661 49.4825 90.6582 49.4075 90.6497C49.2273 90.6294 49.0486 90.6083 48.8698 90.5871C48.795 90.5783 48.7194 90.5698 48.6448 90.5609C48.4679 90.5397 48.2924 90.5176 48.1169 90.4955C48.0412 90.486 47.9648 90.4769 47.8893 90.4673C47.7173 90.4453 47.5467 90.4225 47.3759 90.3997C47.2981 90.3894 47.2196 90.3794 47.142 90.3689C46.9694 90.3455 46.7984 90.3213 46.6272 90.2971C46.553 90.2865 46.4782 90.2766 46.4044 90.2659C46.2304 90.2409 46.0581 90.2151 45.8856 90.1894C45.8158 90.1789 45.7451 90.1688 45.6755 90.1583C45.5032 90.1321 45.3325 90.1051 45.1619 90.0782C45.0932 90.0673 45.0238 90.0568 44.9554 90.0459C44.7887 90.0192 44.6239 89.9917 44.4588 89.9642C44.3875 89.9523 44.3154 89.9408 44.2443 89.9288C44.0865 89.9021 43.9302 89.8745 43.7738 89.8472C43.7502 89.843 43.7264 89.839 43.7028 89.8348L39.1105 75.8381C41.3088 75.2972 43.7851 74.8286 46.4942 74.451ZM64.2749 91.3914C64.2064 91.3919 64.1376 91.3928 64.0691 91.3933C63.8496 91.3948 63.6304 91.3953 63.4112 91.3957C63.3502 91.3958 63.2892 91.3962 63.2282 91.3963C63.0186 91.3963 62.8091 91.3954 62.5996 91.3944C62.5286 91.3942 62.4575 91.3942 62.3865 91.3939C62.1947 91.3926 62.0035 91.3905 61.8121 91.3885C61.7234 91.3875 61.6347 91.387 61.546 91.3859C61.3333 91.3833 61.1211 91.3797 60.9089 91.3759C60.8433 91.3748 60.7775 91.374 60.7119 91.3729C60.6151 91.371 60.5186 91.3685 60.4218 91.3665L59.6594 73.4309C60.0116 73.4228 60.3638 73.4132 60.7158 73.4079C60.7428 73.4074 60.7697 73.407 60.7966 73.4066C61.4222 73.3977 62.0476 73.393 62.6718 73.393C63.0449 73.393 63.4176 73.395 63.7897 73.3981C63.8568 73.3988 63.9241 73.3994 63.9911 73.4C64.3518 73.4036 64.7122 73.4084 65.0718 73.4149C65.0809 73.4152 65.0901 73.4152 65.0994 73.4154C65.2099 73.4173 65.3198 73.4207 65.4302 73.423L64.3316 91.3907C64.3128 91.391 64.2938 91.3912 64.2749 91.3914ZM41.1049 42.1473L43.7929 35.6025C43.7982 35.6021 43.8036 35.6014 43.8088 35.601L41.1104 42.1736L41.1049 42.1473ZM59.2295 14.3293L46.8849 28.0278C46.8396 28.02 46.7938 28.0121 46.7485 28.0042C46.6759 27.9913 46.6037 27.9782 46.5315 27.9652C46.4095 27.9432 46.288 27.921 46.1673 27.8985C46.0955 27.885 46.0241 27.8715 45.9527 27.8579C45.8331 27.8351 45.7138 27.8123 45.5954 27.789C45.5244 27.7751 45.4538 27.7609 45.3833 27.7469C45.2655 27.7233 45.1482 27.6996 45.0318 27.6756C44.9617 27.6612 44.8922 27.6466 44.8226 27.6319C44.7079 27.6078 44.5935 27.5835 44.48 27.559C44.41 27.5438 44.3405 27.5285 44.2711 27.5131C44.1862 27.4944 44.1019 27.4755 44.0178 27.4564L45.0202 25.4234L48.3355 18.6998L55.641 14.5087C56.8282 14.4288 58.0265 14.369 59.2295 14.3293ZM44.9472 25.4326L43.9561 27.4426C43.9497 27.4412 43.9432 27.4397 43.9368 27.4384C43.9337 27.4377 43.9308 27.4369 43.9277 27.4362L48.1995 18.7779L48.2401 18.7546L44.9472 25.4326ZM43.7827 27.7305C43.7836 27.7306 43.7845 27.7308 43.7853 27.731C43.7938 27.733 43.8024 27.735 43.811 27.7371L39.861 35.748C39.849 35.7495 39.8369 35.7509 39.8248 35.7524L43.4438 28.4174L43.7827 27.7305ZM26.2903 58.4706L33.8954 77.1662C33.8788 77.1729 33.8622 77.1792 33.8458 77.1858L26.2259 58.4544C26.2473 58.4598 26.2688 58.4652 26.2903 58.4706ZM39.0504 75.853L43.634 89.8229C43.6217 89.8206 43.609 89.8185 43.5966 89.8164L39.0178 75.8612C39.0287 75.8585 39.0395 75.8558 39.0504 75.853ZM65.1405 73.1386C65.0557 73.1369 64.9706 73.1359 64.8856 73.1344C64.6092 73.1297 64.3324 73.126 64.0554 73.123C63.9422 73.1217 63.8291 73.1206 63.716 73.1197C63.3826 73.117 63.0489 73.1153 62.7149 73.1151C62.6948 73.115 62.6748 73.1148 62.6547 73.1148C62.6426 73.1148 62.6304 73.115 62.6184 73.115C62.0218 73.1153 61.4241 73.1197 60.8263 73.128C60.7649 73.1289 60.7034 73.1302 60.6421 73.1311C60.3106 73.1361 59.9791 73.1425 59.6474 73.1501L59.1896 62.3792C59.3566 62.3828 59.5235 62.3864 59.6906 62.3896C59.8309 62.3922 59.9715 62.3942 60.112 62.3966C60.3566 62.4006 60.6015 62.4043 60.8465 62.4074C61.0074 62.4096 61.1682 62.4114 61.3293 62.4131C61.5579 62.4154 61.7865 62.4173 62.0153 62.4189C62.1617 62.4199 62.3079 62.4212 62.4543 62.4219C62.7758 62.4235 63.0974 62.4243 63.4194 62.4243C63.4288 62.4243 63.4384 62.424 63.4479 62.424C64.2399 62.4239 65.0331 62.4189 65.8267 62.4093L65.4444 73.1451C65.3432 73.1429 65.242 73.1405 65.1405 73.1386ZM59.1011 62.1154C58.8569 62.1102 58.6125 62.1053 58.3687 62.0992C58.1858 62.0945 58.0036 62.0888 57.821 62.0837C57.5834 62.0771 57.3458 62.0709 57.1087 62.0634C56.9186 62.0573 56.729 62.0502 56.5391 62.0437C56.3106 62.0357 56.0818 62.0283 55.8537 62.0196C55.6612 62.0122 55.4692 62.004 55.277 61.996C55.0519 61.9868 54.8263 61.978 54.6018 61.968C54.4077 61.9594 54.2144 61.9496 54.0208 61.9404C53.7998 61.93 53.5784 61.9199 53.358 61.9087C53.157 61.8985 52.957 61.8871 52.7565 61.8763C52.5445 61.8649 52.3322 61.8538 52.1208 61.8417C51.917 61.8299 51.7144 61.8171 51.5112 61.8048C51.3035 61.7923 51.0952 61.78 50.8881 61.7668C50.6837 61.7537 50.4805 61.7396 50.2768 61.7259C50.0728 61.7121 49.8684 61.6988 49.6652 61.6844C49.4558 61.6697 49.2477 61.6538 49.0391 61.6384C48.8426 61.6238 48.6456 61.6097 48.4497 61.5946C48.2376 61.5782 48.0268 61.5606 47.8155 61.5434C47.6245 61.5281 47.4331 61.5131 47.2427 61.497C47.0285 61.479 46.8157 61.4599 46.6024 61.4411C46.4165 61.4249 46.2301 61.4089 46.0447 61.392C45.8261 61.3722 45.6087 61.3511 45.3911 61.3305C45.2709 61.319 45.1505 61.3079 45.0306 61.2962L41.1325 42.2813L43.878 35.594C49.3405 35.0418 54.983 34.7472 60.5955 34.6907L59.1173 62.1157C59.1119 62.1156 59.1065 62.1156 59.1011 62.1154ZM66.7824 34.4294C66.6218 34.426 66.4613 34.4224 66.3007 34.4194C65.9656 34.4132 65.6303 34.4079 65.2948 34.4033C65.1333 34.4012 64.9719 34.3995 64.8103 34.3978C64.5949 34.3953 64.3795 34.3932 64.164 34.3915C63.9948 34.3902 63.8254 34.389 63.656 34.3881C63.4057 34.3867 63.1552 34.386 62.9046 34.3856C62.1653 34.3844 61.4249 34.3876 60.684 34.3946L60.9403 29.6377C61.3499 29.6464 61.7604 29.6528 62.1718 29.657C62.2364 29.6575 62.3009 29.6582 62.3655 29.6588C62.6669 29.6612 62.9686 29.6629 63.2706 29.6629C63.2765 29.6629 63.2825 29.663 63.2885 29.663H63.2918C63.8146 29.6629 64.3383 29.6591 64.8622 29.6516C64.8875 29.6513 64.9128 29.6507 64.9381 29.6504C65.4294 29.643 65.9207 29.6323 66.412 29.6183L66.8026 34.4298L66.7824 34.4294ZM38.9577 75.8761L43.5278 89.8043C43.4784 89.7954 43.43 89.7862 43.3807 89.7773L34.0925 77.3818C35.499 76.8366 37.1301 76.3313 38.9577 75.8761ZM66.1836 29.2961C66.0585 29.2995 65.9332 29.302 65.808 29.3049C65.6962 29.3075 65.5845 29.3103 65.4728 29.3126C65.3507 29.3149 65.2286 29.3168 65.1066 29.3188C64.9919 29.3207 64.8772 29.3229 64.7625 29.3243C64.6426 29.326 64.5227 29.327 64.4028 29.3283C64.2864 29.3294 64.1698 29.3308 64.0533 29.3316C63.9356 29.3325 63.818 29.3327 63.7004 29.3332C63.5813 29.3336 63.4622 29.3343 63.3433 29.3344C63.2274 29.3345 63.1116 29.334 62.9959 29.3336C62.8761 29.3334 62.7562 29.3333 62.6366 29.3326C62.522 29.3319 62.4073 29.3307 62.2928 29.3297C62.1716 29.3287 62.0501 29.3278 61.929 29.3262C61.8178 29.325 61.7067 29.3231 61.5956 29.3214C61.4714 29.3195 61.3472 29.3178 61.2231 29.3155C61.1387 29.3139 61.0545 29.3119 60.9702 29.3102L62.6432 14.2702C62.7368 14.27 62.8304 14.269 62.9239 14.269C62.9984 14.2691 63.0728 14.2696 63.1474 14.2697C63.421 14.2703 63.6946 14.2723 63.9679 14.275C64.1086 14.2765 64.2492 14.2781 64.3897 14.2801C64.6198 14.2832 64.8495 14.2873 65.0791 14.2917C65.1087 14.2924 65.1384 14.2932 65.1681 14.2938L66.3855 29.2902C66.3182 29.2921 66.251 29.2943 66.1836 29.2961ZM46.4176 22.251L43.8663 27.4221C43.8207 27.4117 43.7753 27.4012 43.7298 27.3906C43.621 27.3654 43.5124 27.34 43.4047 27.3142C43.3359 27.2978 43.2675 27.2811 43.1992 27.2645C43.0932 27.2386 42.9876 27.2128 42.8828 27.1864C42.8144 27.1693 42.7465 27.1519 42.6787 27.1346C42.5761 27.1083 42.4739 27.082 42.3726 27.0552C42.3045 27.0372 42.2368 27.0192 42.1693 27.001C42.0701 26.9744 41.9715 26.9476 41.8736 26.9205C41.8058 26.9017 41.7385 26.8828 41.6712 26.8639C41.5751 26.8367 41.4796 26.8094 41.3849 26.7818C41.3181 26.7624 41.2517 26.7429 41.1857 26.7233C41.0928 26.6957 41.0005 26.668 40.909 26.64C40.843 26.6199 40.7773 26.5996 40.712 26.5792C40.6222 26.5512 40.5331 26.523 40.4448 26.4947C40.3792 26.4736 40.314 26.4524 40.2492 26.4311C40.1636 26.403 40.0788 26.3747 39.9946 26.3464C39.929 26.3242 39.8639 26.3019 39.7992 26.2796C39.7175 26.2513 39.6363 26.2229 39.5558 26.1942C39.491 26.1712 39.4267 26.148 39.3628 26.1248C39.2847 26.0963 39.2072 26.0678 39.1305 26.039C39.0663 26.0149 39.0025 25.9907 38.939 25.9663C38.8649 25.9379 38.7915 25.9092 38.7188 25.8805C38.655 25.8553 38.5918 25.8299 38.5292 25.8046C38.4589 25.776 38.3894 25.7475 38.3204 25.7186C38.2575 25.6924 38.1951 25.666 38.1333 25.6395C38.0664 25.6108 38.0003 25.582 37.9348 25.553C37.8736 25.526 37.8128 25.4987 37.7526 25.4715C37.6892 25.4427 37.6266 25.4137 37.5645 25.3846C37.5039 25.3563 37.4439 25.3279 37.3846 25.2993C37.3255 25.2709 37.2671 25.2422 37.2093 25.2134C37.1685 25.1931 37.1283 25.1728 37.0882 25.1524L48.1041 18.8326L46.4176 22.251ZM37.1931 25.5444C37.2143 25.5548 37.2363 25.5651 37.2577 25.5755C37.3928 25.6414 37.5315 25.7067 37.6729 25.7711C37.7109 25.7885 37.7488 25.8058 37.7872 25.8231C37.9511 25.8965 38.1179 25.9694 38.2897 26.0409C38.2942 26.0428 38.2989 26.0446 38.3033 26.0465C38.4701 26.1157 38.6418 26.1839 38.8159 26.2515C38.8593 26.2684 38.9032 26.2851 38.9471 26.3019C39.1143 26.3657 39.2839 26.4288 39.4574 26.491C39.4721 26.4961 39.4861 26.5015 39.5008 26.5068C39.6888 26.5738 39.8813 26.6395 40.0767 26.7046C40.1229 26.72 40.1695 26.7352 40.2162 26.7506C40.3836 26.8055 40.5533 26.8596 40.7257 26.9131C40.7605 26.9239 40.7946 26.9349 40.8296 26.9456C41.0325 27.0079 41.2391 27.0692 41.4487 27.1295C41.4924 27.142 41.5369 27.1544 41.5808 27.1669C41.7578 27.2171 41.9372 27.2668 42.1189 27.3158C42.1661 27.3284 42.213 27.3413 42.2606 27.354C42.4783 27.4118 42.6989 27.4689 42.9229 27.5247C42.9566 27.5331 42.9912 27.5413 43.0251 27.5496C43.2204 27.5979 43.4181 27.6453 43.6177 27.692C43.6525 27.7001 43.6862 27.7086 43.7211 27.7166L39.752 35.7614C39.738 35.7631 39.7238 35.7648 39.7098 35.7666C39.259 35.824 38.8135 35.8834 38.3708 35.9439C38.2479 35.9606 38.1262 35.978 38.0039 35.9951C37.6681 36.0418 37.3345 36.0894 37.0034 36.1379C36.8914 36.1544 36.7794 36.1709 36.6677 36.1876C36.2731 36.2464 35.8819 36.3065 35.4943 36.3677C35.4633 36.3726 35.432 36.3773 35.4011 36.3823C32.6868 36.8138 30.1462 37.3056 27.8012 37.8506L36.8123 25.3506C36.936 25.4159 37.0634 25.4804 37.1931 25.5444ZM34.0338 77.4047L43.2927 89.7613C43.2844 89.7598 43.2762 89.7583 43.2679 89.7567L33.9816 77.4251C33.999 77.4183 34.0164 77.4115 34.0338 77.4047ZM74.3457 90.9073C74.276 90.9137 74.2066 90.9205 74.1368 90.9266C73.9001 90.9475 73.6629 90.9674 73.4255 90.9868C73.3865 90.9899 73.3479 90.9935 73.3089 90.9967C73.1108 91.0127 72.9121 91.0277 72.7132 91.0427C72.6342 91.0486 72.5552 91.0552 72.4759 91.0611C72.265 91.0766 72.0535 91.091 71.8421 91.1055C71.7755 91.1101 71.7092 91.1151 71.6426 91.1195C71.3996 91.1357 71.1561 91.1509 70.9125 91.1657C70.8772 91.1678 70.8421 91.1701 70.8068 91.1723C70.5842 91.1856 70.3613 91.1978 70.1383 91.2099C70.0812 91.213 70.0243 91.2165 69.967 91.2196C69.7679 91.23 69.5685 91.2395 69.3691 91.2491C69.2879 91.253 69.2068 91.2574 69.1255 91.2611C68.9457 91.2694 68.7657 91.2766 68.5858 91.2841C68.4847 91.2884 68.3838 91.2931 68.2827 91.297C68.0908 91.3045 67.8988 91.3111 67.7068 91.3178C67.6183 91.3208 67.5299 91.3244 67.4415 91.3273C67.252 91.3334 67.0623 91.3387 66.8729 91.344C66.781 91.3465 66.689 91.3496 66.5972 91.352C66.3979 91.3572 66.1987 91.3615 65.9995 91.3657C65.9179 91.3675 65.8364 91.3698 65.7549 91.3712C65.5333 91.3756 65.3117 91.379 65.0901 91.3822C65.0311 91.383 64.9719 91.3842 64.9128 91.385C64.7419 91.3873 64.5712 91.3885 64.4004 91.39L65.5038 73.4247C65.7458 73.4298 65.9879 73.4348 66.2292 73.4413C66.2884 73.4428 66.3473 73.4447 66.4064 73.4463C66.7395 73.4559 67.0718 73.4664 67.4033 73.4784C67.4477 73.48 67.4924 73.4813 67.5367 73.483C67.9102 73.4969 68.2826 73.5122 68.6538 73.5291C68.6904 73.5308 68.7268 73.5327 68.7632 73.5344C69.0971 73.55 69.4298 73.5669 69.7616 73.585C69.8212 73.5882 69.8809 73.5914 69.9405 73.5946C70.6678 73.6353 71.3895 73.6821 72.105 73.7347C72.1707 73.7396 72.2363 73.7445 72.3019 73.7494C73.0151 73.803 73.7219 73.8625 74.4208 73.9278C74.4807 73.9334 74.5404 73.9391 74.6003 73.9449C74.9197 73.9752 75.2377 74.0067 75.5538 74.0395C75.5854 74.0427 75.6171 74.0458 75.6487 74.0491C75.9964 74.0855 76.3421 74.1235 76.6854 74.1627C76.7336 74.1682 76.7814 74.174 76.8295 74.1796C77.1303 74.2144 77.4293 74.2504 77.7265 74.2875C77.78 74.2941 77.8336 74.3006 77.8868 74.3073C78.2233 74.3499 78.5575 74.3936 78.8889 74.4389C78.9142 74.4424 78.9394 74.4461 78.9647 74.4495C79.2669 74.4911 79.5665 74.5341 79.8643 74.578C79.9268 74.5872 79.9893 74.5964 80.0517 74.6057C80.6932 74.7016 81.3239 74.803 81.9428 74.9097C81.9803 74.9161 82.0176 74.9227 82.0552 74.9292L74.5563 90.888C74.4861 90.8944 74.4159 90.9011 74.3457 90.9073ZM53.9759 91.4109C54.2368 91.4297 54.4984 91.4476 54.7609 91.4647C54.8247 91.4689 54.8888 91.4726 54.9527 91.4767C55.2434 91.4953 55.535 91.5127 55.8273 91.5293C55.9202 91.5345 56.0131 91.5399 56.1061 91.545C56.4513 91.5638 56.7971 91.5816 57.1444 91.5976C57.1901 91.5998 57.2359 91.6015 57.2816 91.6035C57.5938 91.6177 57.907 91.6306 58.2207 91.6425C58.312 91.6459 58.4032 91.6494 58.4945 91.6527C58.8482 91.6653 59.2024 91.677 59.5577 91.6868C59.5843 91.6876 59.6111 91.6881 59.6376 91.6889C59.8806 91.6955 60.1237 91.7015 60.3674 91.7068L62.812 115.591L53.9759 91.4109ZM82.1179 74.9401C82.1224 74.941 82.1268 74.9417 82.1312 74.9425C82.1334 74.9428 82.1355 74.9433 82.1377 74.9436L77.5183 84.7289L82.1179 74.9401ZM81.8985 74.6281C81.6232 74.5807 81.3464 74.5342 81.0666 74.4889C81.0203 74.4815 80.9737 74.4741 80.9273 74.4666C80.6536 74.4227 80.3775 74.3803 80.0997 74.3385C80.0005 74.3236 79.9009 74.3089 79.8012 74.2942C79.5573 74.2584 79.312 74.2233 79.0654 74.1891C78.9939 74.1791 78.9232 74.1688 78.8515 74.159C78.5479 74.1176 78.2417 74.0775 77.9337 74.0383C77.8343 74.0257 77.7342 74.0135 77.6343 74.001C77.397 73.9717 77.1585 73.943 76.9189 73.9149C76.824 73.9038 76.7295 73.8925 76.6341 73.8815C76.3222 73.846 76.0084 73.8115 75.6928 73.7783C75.6017 73.7687 75.5099 73.7596 75.4185 73.7502C75.1717 73.7248 74.924 73.7002 74.6752 73.6763C74.5694 73.6661 74.4637 73.6559 74.3576 73.6461C74.035 73.616 73.7113 73.5869 73.3856 73.5593C73.3219 73.5539 73.2576 73.549 73.1939 73.5437C72.9178 73.5209 72.6408 73.4988 72.3627 73.4777C72.2516 73.4693 72.1405 73.461 72.0291 73.4528C71.7466 73.4322 71.4632 73.4124 71.1788 73.3937C71.1175 73.3896 71.0567 73.3851 70.9954 73.3812C70.6635 73.3597 70.33 73.34 69.9957 73.321C69.8847 73.3149 69.7736 73.3088 69.6623 73.3029C69.4002 73.2887 69.1374 73.2754 68.8741 73.2629C68.7811 73.2584 68.6884 73.2537 68.5952 73.2494C68.2586 73.2341 67.9208 73.2203 67.5823 73.2075C67.4805 73.2037 67.3785 73.2003 67.2765 73.1967C67.0135 73.1874 66.75 73.179 66.4859 73.1713C66.3794 73.1682 66.273 73.1649 66.1662 73.1621C65.95 73.1563 65.7334 73.1514 65.5168 73.1466L65.8991 62.4086C66.0299 62.4069 66.1605 62.4054 66.2913 62.4035L66.3509 62.4025C67.2712 62.3891 68.192 62.3688 69.1124 62.3423C69.1817 62.3403 69.2508 62.3382 69.3199 62.3361C70.2069 62.3097 71.0931 62.2773 71.9783 62.2388C72.0485 62.2358 72.1186 62.2328 72.1888 62.2297C73.1111 62.1886 74.0321 62.1413 74.9507 62.0867C74.9655 62.0858 74.9804 62.0851 74.9952 62.0842C75.9298 62.0285 76.8619 61.9655 77.7906 61.8958C77.8429 61.8919 77.8951 61.8876 77.9474 61.8837C78.8244 61.817 79.6981 61.7439 80.5679 61.6646C80.6536 61.6568 80.7392 61.6488 80.8248 61.6408C81.6798 61.5616 82.5306 61.4762 83.377 61.3845C83.4496 61.3767 83.5224 61.369 83.595 61.3611C84.3109 61.2825 85.0228 61.1991 85.7314 61.1115L82.1544 74.6726C82.0694 74.6576 81.9841 74.6428 81.8985 74.6281ZM65.5598 62.15C65.2804 62.153 65.001 62.1563 64.7219 62.1582C64.5689 62.1592 64.4161 62.1592 64.2632 62.1599C63.9908 62.161 63.7186 62.1625 63.4465 62.1625C63.2831 62.1627 63.1198 62.1617 62.9564 62.1612C62.6955 62.1607 62.4344 62.1604 62.1738 62.1589C62.0023 62.1577 61.8311 62.1556 61.6599 62.1542C61.4071 62.1519 61.1542 62.1501 60.9018 62.1469C60.7282 62.1448 60.5551 62.1415 60.3816 62.1389C60.1321 62.1352 59.8824 62.1318 59.6333 62.127C59.4854 62.1242 59.3381 62.1204 59.1904 62.1174L60.668 34.69C62.724 34.67 64.7756 34.6819 66.8126 34.725L65.836 62.1473C65.7438 62.1484 65.6518 62.149 65.5598 62.15ZM77.885 34.9778C77.8767 34.9771 77.8683 34.9765 77.8601 34.9759C77.7079 34.9639 77.5554 34.9524 77.4027 34.9407C77.1918 34.9246 76.9804 34.9089 76.7686 34.8935C76.6134 34.8822 76.4582 34.8708 76.3026 34.8599C76.0071 34.8392 75.7109 34.8191 75.4142 34.7996C75.2466 34.7886 75.0786 34.7782 74.9105 34.7677C74.6853 34.7535 74.4598 34.7397 74.2339 34.7263C74.0709 34.7167 73.9077 34.7073 73.7445 34.6981C73.5275 34.6857 73.3103 34.674 73.0928 34.6624C72.9437 34.6545 72.7948 34.6463 72.6453 34.6387C72.3159 34.622 71.9859 34.6062 71.6552 34.591C71.4945 34.5838 71.3335 34.5769 71.1726 34.57C70.962 34.5609 70.7513 34.552 70.5403 34.5436C70.3734 34.537 70.2065 34.5303 70.0393 34.524C69.7827 34.5145 69.5256 34.5056 69.2683 34.4969C69.0565 34.4898 68.8446 34.4831 68.6325 34.4767C68.3997 34.4697 68.1669 34.4629 67.9337 34.4567C67.7628 34.4521 67.5917 34.4478 67.4206 34.4437C67.2414 34.4394 67.062 34.4352 66.8825 34.4314L66.4914 29.6165C66.5149 29.6159 66.5386 29.6147 66.562 29.6139C67.0504 29.5994 67.5382 29.5815 68.0255 29.5604C68.0645 29.5587 68.1034 29.5571 68.1423 29.5553C68.6586 29.5323 69.1739 29.5059 69.688 29.4753C69.6896 29.4752 69.6912 29.4751 69.6928 29.4751C70.2098 29.4443 70.7254 29.4094 71.2392 29.3708C71.274 29.3683 71.3086 29.3653 71.3434 29.3628C71.8244 29.3261 72.3034 29.2861 72.7806 29.2426C72.83 29.2381 72.8795 29.2335 72.9289 29.2289C73.4017 29.1851 73.8723 29.1378 74.3403 29.0872C74.3804 29.0828 74.4205 29.0786 74.4605 29.0743C74.9577 29.0197 75.4522 28.9615 75.9429 28.8991L76.3673 30.2271L77.885 34.9778ZM78.2191 90.4883C77.2128 90.6165 76.1937 90.73 75.1657 90.8304C75.0974 90.8371 75.0296 90.8442 74.9613 90.8507C74.8692 90.8596 74.7765 90.8677 74.6843 90.8762L82.2003 74.9549C82.2642 74.9661 82.327 74.9778 82.3905 74.9892L78.2353 90.4861C78.2299 90.4869 78.2245 90.4876 78.2191 90.4883ZM82.2155 74.6833L85.7973 61.1034C85.8027 61.1026 85.8081 61.1021 85.8135 61.1014L82.2303 74.6859C82.2253 74.685 82.2203 74.6841 82.2155 74.6833ZM75.2765 28.6517C75.1485 28.6671 75.0199 28.6814 74.8915 28.6961C74.7921 28.7076 74.6931 28.7194 74.5934 28.7304C74.4496 28.7465 74.3051 28.7616 74.1609 28.7769C74.0766 28.7859 73.9926 28.7952 73.9084 28.8041C73.7641 28.819 73.6191 28.833 73.4745 28.8473C73.3888 28.8557 73.3035 28.8646 73.2175 28.8729C73.0814 28.8859 72.9448 28.8981 72.8082 28.9106C72.7132 28.9193 72.6184 28.9284 72.5233 28.9368C72.3951 28.9481 72.2664 28.9587 72.138 28.9695C72.0337 28.9783 71.9298 28.9875 71.8254 28.9959C71.6995 29.0061 71.5732 29.0155 71.4472 29.0253C71.3403 29.0336 71.2336 29.0421 71.1266 29.0501C70.9998 29.0595 70.8725 29.068 70.7455 29.077C70.6386 29.0845 70.5319 29.0922 70.4248 29.0994C70.2902 29.1085 70.1553 29.1168 70.0204 29.1252C69.9216 29.1314 69.8232 29.1379 69.7245 29.1439C69.5879 29.152 69.4511 29.1594 69.3144 29.1671C69.2154 29.1726 69.1164 29.1785 69.0174 29.1838C68.8866 29.1907 68.7555 29.1969 68.6247 29.2034C68.5198 29.2086 68.415 29.214 68.3099 29.2189C68.18 29.2249 68.0498 29.2302 67.9198 29.2358C67.814 29.2403 67.7082 29.2451 67.6023 29.2492C67.4735 29.2544 67.3447 29.2588 67.2159 29.2635C67.1082 29.2673 67.0006 29.2714 66.8929 29.275C66.7654 29.2792 66.6379 29.2828 66.5103 29.2866C66.495 29.287 66.4799 29.2875 66.4648 29.2878L65.2467 14.2956C65.3679 14.2981 65.4894 14.3005 65.6103 14.3036C65.6922 14.3056 65.7739 14.3082 65.8558 14.3104C65.8823 14.3111 65.9087 14.3119 65.9352 14.3127L75.7697 28.591C75.6056 28.6116 75.4413 28.6321 75.2765 28.6517ZM60.4494 91.7082C60.513 91.7096 60.5767 91.7106 60.6402 91.7118C60.7312 91.7136 60.8225 91.7153 60.9136 91.7169C61.6336 91.7294 62.3559 91.7361 63.0798 91.7368C63.1242 91.7368 63.1684 91.7374 63.2128 91.7374C63.2418 91.7374 63.2711 91.7368 63.3001 91.7368C63.6367 91.7366 63.9736 91.7353 64.3106 91.7325L62.8601 115.453L60.4494 91.7082ZM82.2913 74.6966L85.8795 61.0933C85.961 61.083 86.043 61.0733 86.1246 61.0631L82.4609 74.7264C82.4047 74.7163 82.3478 74.7065 82.2913 74.6966ZM85.9529 60.8145L86.0371 60.4955L86.132 60.7925C86.0725 60.8 86.0125 60.8071 85.9529 60.8145ZM86.0022 60.386L85.8869 60.8227C85.8816 60.8233 85.8763 60.824 85.8708 60.8247L85.9936 60.3592L86.0022 60.386ZM85.8049 60.8327C85.5228 60.8679 85.2409 60.9035 84.9576 60.9372C84.9469 60.9384 84.9363 60.9395 84.9256 60.9409C84.5268 60.9883 84.1269 61.0344 83.7258 61.079C83.6573 61.0866 83.5884 61.0936 83.5199 61.1011C83.1761 61.1388 82.8319 61.1762 82.4865 61.2119C82.3964 61.2212 82.3059 61.2296 82.2157 61.2388C81.8916 61.2718 81.5674 61.3046 81.2422 61.3357C81.1374 61.3457 81.0322 61.3549 80.9273 61.3647C80.6145 61.394 80.3016 61.4234 79.9876 61.4511C79.9187 61.4571 79.8495 61.4626 79.7806 61.4686C79.4318 61.4989 79.0826 61.5289 78.7326 61.5571C78.6317 61.5654 78.5304 61.5727 78.4294 61.5806C78.1101 61.606 77.7908 61.6311 77.4706 61.6547C77.37 61.6621 77.269 61.6688 77.1684 61.6759C76.8478 61.699 76.5271 61.722 76.2056 61.7434C76.0952 61.7508 75.9845 61.7573 75.874 61.7645C75.5615 61.7846 75.249 61.8049 74.936 61.8235C74.8244 61.8301 74.7125 61.836 74.6009 61.8425C74.2888 61.8605 73.9768 61.8785 73.6642 61.895C73.5448 61.9013 73.425 61.9067 73.3055 61.9127C73.0002 61.9282 72.695 61.9439 72.3894 61.9579C72.2664 61.9635 72.1433 61.9682 72.0203 61.9737C71.718 61.9869 71.4159 62.0004 71.1133 62.0123C70.9852 62.0172 70.8569 62.0214 70.7287 62.0262C70.4308 62.0373 70.1328 62.0485 69.8348 62.0582C69.706 62.0624 69.5771 62.0657 69.4483 62.0695C69.151 62.0787 68.8537 62.0879 68.5563 62.0956C68.4199 62.0992 68.2835 62.1018 68.1472 62.1051C67.8575 62.112 67.568 62.1192 67.2783 62.1248C67.1339 62.1276 66.9897 62.1295 66.8454 62.132C66.5635 62.1368 66.2813 62.142 65.9993 62.1457C65.969 62.146 65.9388 62.1462 65.9085 62.1465L66.8848 34.7265C70.6568 34.8076 74.3777 34.9949 77.9823 35.2825L85.9587 60.2497L85.8049 60.8327ZM75.838 28.5827L72.7122 24.0445L75.8604 28.5799C75.8529 28.5808 75.8454 28.5817 75.838 28.5827ZM65.1681 13.9268L63.368 10.5853L65.6774 13.9384C65.5079 13.934 65.338 13.9304 65.1681 13.9268ZM44.6244 90.3396C44.7069 90.3531 44.7888 90.3669 44.8717 90.3801C45.1608 90.4264 45.4524 90.4714 45.7461 90.5155C45.839 90.5294 45.9326 90.543 46.0259 90.5566C46.2589 90.5908 46.4933 90.6243 46.729 90.6572C46.8179 90.6695 46.9064 90.6821 46.9956 90.6943C47.2962 90.7353 47.599 90.775 47.9037 90.8136C47.9946 90.8252 48.0862 90.8363 48.1774 90.8477C48.4204 90.8777 48.6645 90.9072 48.9099 90.9358C49.0036 90.9468 49.0969 90.958 49.1909 90.9686C49.5025 91.0042 49.8157 91.0386 50.1309 91.0717C50.2169 91.0808 50.3036 91.0895 50.3899 91.0983C50.6459 91.1247 50.9028 91.1502 51.161 91.175C51.2561 91.1842 51.3511 91.1934 51.4467 91.2023C51.7694 91.2324 52.0935 91.2615 52.4194 91.2892C52.4969 91.2957 52.5748 91.3018 52.6523 91.3082C52.9243 91.3308 53.1973 91.3524 53.4712 91.3733C53.5654 91.3804 53.6595 91.3876 53.7539 91.3945C53.7913 91.3973 53.8285 91.4003 53.8659 91.4029L62.7239 115.532L62.5831 115.399L43.947 90.2263C44.1713 90.2649 44.3971 90.3026 44.6244 90.3396ZM78.3019 90.4774L82.4517 75.0002C82.457 75.0011 82.4623 75.0021 82.4677 75.0031L78.3188 90.4752C78.313 90.4758 78.3075 90.4766 78.3019 90.4774ZM65.0977 13.9253C65.0968 13.9253 65.0958 13.9251 65.095 13.9251L65.02 13.7811L65.0977 13.9253ZM62.6189 13.9021C61.6417 13.9038 60.662 13.9188 59.6828 13.9465L62.9071 10.3402L63.022 10.2743C63.0233 10.2744 63.0242 10.2743 63.0255 10.2744L62.6189 13.9021ZM43.8606 90.2119L52.6406 102.072L43.7858 90.1994C43.8106 90.2037 43.8359 90.2076 43.8606 90.2119ZM62.9117 115.631L64.3794 91.7321C64.6025 91.7301 64.8256 91.7273 65.0488 91.724C65.0869 91.7236 65.1249 91.7233 65.163 91.7227C65.7788 91.7136 66.395 91.7003 67.011 91.6824C67.0312 91.6818 67.0513 91.6811 67.0714 91.6804C67.6702 91.6628 68.2686 91.6408 68.8661 91.6148C68.9182 91.6124 68.97 91.6102 69.0221 91.6078C69.6049 91.5817 70.1868 91.5516 70.7673 91.5174C70.8084 91.515 70.8493 91.5127 70.8904 91.5103C71.5041 91.4734 72.1163 91.4325 72.7261 91.3866C72.7347 91.3859 72.7434 91.3851 72.7522 91.3846C73.299 91.3432 73.8439 91.2982 74.3865 91.2493L62.9441 115.601L62.9117 115.631ZM82.5221 74.7377L86.1908 61.0549C86.1966 61.0541 86.2026 61.0534 86.2083 61.0528L82.538 74.7406C82.5327 74.7396 82.5275 74.7386 82.5221 74.7377ZM86.1945 60.7846L86.0664 60.3841L86.0675 60.3805L86.1965 60.7844C86.1958 60.7846 86.1952 60.7845 86.1945 60.7846ZM86.0315 60.2747L86.023 60.2479L86.0239 60.2443L86.0325 60.271L86.0315 60.2747ZM85.988 60.1384L85.7703 59.4568L80.2354 42.1324L85.9889 60.1348L85.988 60.1384ZM91.7543 36.6705C91.6418 36.6514 91.5294 36.6321 91.4165 36.613C91.1467 36.5675 90.8757 36.5227 90.603 36.4786C90.5217 36.4653 90.4403 36.4522 90.3587 36.4391C90.0833 36.3952 89.8065 36.3518 89.5285 36.3091C89.408 36.2906 89.287 36.2723 89.1662 36.2541C88.945 36.2208 88.7228 36.1878 88.4999 36.1553C88.3877 36.139 88.276 36.1224 88.1633 36.1062C87.8522 36.0616 87.5399 36.0178 87.2258 35.9748C87.1141 35.9595 87.0015 35.9447 86.8893 35.9296C86.664 35.8993 86.4379 35.8694 86.2109 35.8399C86.0797 35.8229 85.9486 35.806 85.817 35.7893C85.5723 35.7581 85.3267 35.7276 85.0803 35.6975C84.9612 35.6829 84.8424 35.6683 84.7228 35.654C84.4296 35.6188 84.1349 35.5844 83.8392 35.5507C83.7025 35.5351 83.5652 35.5197 83.428 35.5045C83.2114 35.4803 82.9944 35.4565 82.7766 35.4331C82.6409 35.4185 82.5052 35.4037 82.3688 35.3895C82.0488 35.3559 81.7279 35.3229 81.4054 35.2908C81.2796 35.2784 81.1529 35.2664 81.0268 35.2542C80.8013 35.2323 80.5756 35.2107 80.3491 35.1896C80.2002 35.1759 80.0512 35.1622 79.9017 35.1486C79.6746 35.1281 79.4467 35.1082 79.2183 35.0884C79.0889 35.0772 78.9599 35.0657 78.8302 35.0547C78.56 35.0321 78.2888 35.0099 78.0172 34.9882L76.066 28.883C76.3243 28.8497 76.5809 28.8158 76.8343 28.7806C76.8579 28.7775 76.8807 28.7739 76.9042 28.7707C80.4833 28.2723 83.5636 27.5952 86.0156 26.7873L91.9825 36.7094C91.9067 36.6963 91.8301 36.6835 91.7543 36.6705ZM68.8149 14.0647C68.7651 14.0619 68.7155 14.0591 68.6656 14.0565C67.7107 14.0056 66.7458 13.9669 65.7738 13.9411L63.2306 10.2772L63.3239 10.3057L69.0541 14.0778C68.9745 14.0732 68.8947 14.0689 68.8149 14.0647ZM65.0248 13.9237C64.2477 13.9082 63.4668 13.901 62.6842 13.902L63.0874 10.2773C63.0872 10.2774 63.0878 10.2773 63.0874 10.2773C63.1063 10.2767 63.1214 10.2752 63.1277 10.2745C63.1276 10.2745 63.1278 10.2745 63.1277 10.2745L65.0248 13.9237ZM59.5716 13.9498C58.5009 13.9813 57.4313 14.0283 56.3677 14.0919L62.7357 10.4386L59.5716 13.9498ZM50.2517 15.0245C50.5669 14.9847 50.884 14.9466 51.2025 14.9101C51.2608 14.9034 51.319 14.8965 51.3774 14.8899C51.7151 14.8517 52.0543 14.8153 52.3952 14.7806C52.4351 14.7766 52.4751 14.7728 52.5149 14.7688C53.2465 14.6956 53.9847 14.6302 54.7284 14.5733C54.7381 14.5725 54.7477 14.5717 54.7571 14.571C54.8409 14.5647 54.9255 14.5594 55.0093 14.5533L49.4149 17.7322L48.5782 18.2078L50.1237 15.0734L50.2517 15.0245ZM43.6978 90.1837L46.44 93.8602L43.6832 90.181C43.6882 90.1819 43.6929 90.1829 43.6978 90.1837ZM78.1146 35.2932C83.048 35.6905 87.76 36.2757 92.0822 37.0335L86.0183 60.0235L78.1146 35.2932ZM92.062 36.7232L86.0749 26.7676C86.0895 26.7628 86.1031 26.7578 86.1176 26.753L92.1233 36.7341C92.1029 36.7305 92.0825 36.7268 92.062 36.7232ZM86.0098 26.4554L84.7975 24.4411L87.2112 26.0298C86.83 26.1752 86.4293 26.3173 86.0098 26.4554ZM85.9504 26.4752C85.936 26.4799 85.922 26.4846 85.9075 26.4893L84.596 24.3082L84.6796 24.3634L85.9504 26.4752ZM85.8482 26.509C83.431 27.2915 80.4086 27.9526 76.9102 28.4404C76.8815 28.4444 76.8536 28.4487 76.825 28.4526C76.5376 28.4924 76.2472 28.5309 75.9537 28.5684C75.9454 28.5694 75.9371 28.5704 75.9289 28.5715L66.0336 14.3155C66.3669 14.3251 66.6994 14.3358 67.0308 14.3483C67.0374 14.3486 67.044 14.3489 67.0505 14.3491C67.931 14.3827 68.8041 14.4273 69.6677 14.4816L84.4781 24.2307L85.8482 26.509ZM43.596 90.1659L47.5927 95.4998L43.5732 90.162C43.5807 90.1633 43.5884 90.1646 43.596 90.1659ZM82.1796 89.8957C82.1768 89.8962 82.1741 89.8966 82.1713 89.8972C81.9633 89.9332 81.7526 89.9685 81.5413 90.0034C81.4631 90.0163 81.3848 90.0293 81.3061 90.0421C81.1318 90.0704 80.956 90.0982 80.7796 90.1258C80.6559 90.1451 80.5315 90.1641 80.4067 90.183C80.2595 90.2053 80.1121 90.2276 79.9635 90.2493C79.7934 90.2742 79.6218 90.2984 79.4497 90.3226C79.3349 90.3388 79.2209 90.3552 79.1054 90.371C78.8675 90.4035 78.6268 90.4351 78.3854 90.4663L82.5288 75.0141C82.679 75.0411 82.8305 75.0675 82.9792 75.0951C83.0014 75.0994 83.0242 75.1033 83.0464 75.1074C83.349 75.164 83.6477 75.2221 83.9437 75.2814C84.0008 75.2927 84.0572 75.3043 84.1139 75.3158C84.3656 75.3667 84.6148 75.4187 84.8615 75.4715C84.9108 75.4821 84.9606 75.4924 85.0096 75.503C85.295 75.5648 85.5772 75.6278 85.8556 75.6922C85.8981 75.7019 85.9397 75.7121 85.9821 75.722C86.2203 75.7775 86.4558 75.834 86.6887 75.8914C86.749 75.9063 86.8094 75.9211 86.8692 75.9361C87.1376 76.0031 87.4032 76.0712 87.6641 76.1407C87.6804 76.1451 87.6962 76.1496 87.7126 76.1539C87.9545 76.2186 88.1924 76.2847 88.4276 76.3515C88.4901 76.3692 88.5524 76.3869 88.6143 76.4049C88.8476 76.4722 89.0781 76.5403 89.3044 76.6096C89.3205 76.6146 89.3371 76.6194 89.3531 76.6243C89.5938 76.6985 89.8292 76.774 90.0617 76.8504C90.1191 76.8692 90.1758 76.8883 90.2326 76.9073C90.4253 76.9716 90.6151 77.0368 90.8018 77.1027C90.8438 77.1175 90.8866 77.1321 90.9281 77.147C91.1476 77.2255 91.3624 77.3051 91.5731 77.3857C91.6209 77.4041 91.6678 77.4227 91.7151 77.4412C91.886 77.5075 92.0539 77.5746 92.2188 77.6426C92.2686 77.663 92.3189 77.6835 92.3682 77.704C92.5669 77.7874 92.762 77.8714 92.9517 77.957C92.9827 77.9709 93.0125 77.9852 93.0433 77.9992C93.2049 78.0728 93.3628 78.1473 93.5175 78.2226C93.5661 78.2462 93.6148 78.2699 93.6627 78.2937C93.7881 78.356 93.9095 78.4193 94.0303 78.4826L84.943 89.3612C84.0583 89.5507 83.1371 89.7294 82.1796 89.8957ZM86.0534 60.133L92.1433 37.0442C92.1483 37.045 92.1534 37.0459 92.1584 37.0468L86.0617 60.1597L86.0534 60.133ZM94.5485 37.1834C94.3254 37.1397 94.1011 37.0964 93.8756 37.0536C93.7869 37.0367 93.6989 37.0197 93.6099 37.003C93.3133 36.9474 93.0148 36.8926 92.7144 36.8387C92.6171 36.8212 92.519 36.804 92.4213 36.7868C92.3485 36.7739 92.276 36.7609 92.203 36.7482L86.1767 26.7328C86.6337 26.5794 87.0677 26.4214 87.4791 26.2591L94.5687 37.1874C94.562 37.186 94.5551 37.1848 94.5485 37.1834ZM87.2801 26.0037L84.7265 24.3227L84.6713 24.2311L87.3486 25.9777C87.3261 25.9864 87.3027 25.9949 87.2801 26.0037ZM84.6086 24.245L84.5248 24.1899L84.4709 24.1003L84.5541 24.1547L84.6086 24.245ZM84.4069 24.1123L75.2759 18.1018L84.3538 24.0239L84.4069 24.1123ZM34.7792 87.9419C34.8374 87.9628 34.8957 87.9837 34.9544 88.0045C35.1747 88.0824 35.3977 88.1595 35.6261 88.2352C35.6365 88.2386 35.6474 88.2421 35.6578 88.2455C35.8776 88.318 36.1022 88.3892 36.3293 88.4597C36.3958 88.4804 36.4628 88.501 36.5299 88.5215C36.7483 88.5881 36.9691 88.654 37.1937 88.7187C37.2172 88.7254 37.2399 88.7323 37.2634 88.739C37.5054 88.8083 37.7521 88.876 38.0012 88.943C38.076 88.9632 38.1513 88.9832 38.2267 89.0031C38.4428 89.0603 38.6611 89.1166 38.882 89.172C38.9263 89.1832 38.9696 89.1945 39.014 89.2055C39.2682 89.2686 39.5265 89.3302 39.787 89.3911C39.8694 89.4104 39.9523 89.4295 40.0353 89.4485C40.2514 89.498 40.4696 89.5469 40.6898 89.595C40.7508 89.6083 40.8109 89.622 40.8722 89.6351C41.1379 89.6923 41.4072 89.7482 41.6786 89.8031C41.7669 89.8211 41.8558 89.8388 41.9447 89.8565C42.165 89.9002 42.3871 89.9433 42.611 89.9857C42.6828 89.9993 42.754 90.0132 42.8263 90.0266C43.0443 90.0672 43.2641 90.1071 43.4853 90.1463L62.2993 115.13L59.8503 112.811L34.62 87.8851C34.6725 87.9042 34.7265 87.9229 34.7792 87.9419ZM63.1425 115.325L74.5138 91.2375C74.5235 91.2366 74.5333 91.2357 74.543 91.2347C74.5938 91.2301 74.6444 91.2253 74.6951 91.2206C75.2604 91.1683 75.823 91.1118 76.3825 91.0511C76.432 91.0457 76.4816 91.0405 76.5312 91.0351C77.0388 90.9794 77.5437 90.9201 78.0457 90.8575L66.7457 109.41L63.1425 115.325ZM94.1616 78.2757C94.0044 78.1917 93.8421 78.1088 93.6766 78.0267C93.6285 78.0028 93.5798 77.979 93.5311 77.9553C93.3763 77.88 93.2185 77.8055 93.0568 77.7319C93.0257 77.7177 92.9955 77.7032 92.9641 77.689C92.7746 77.6037 92.5797 77.5195 92.3811 77.4363C92.3307 77.4152 92.2792 77.3943 92.2282 77.3733C92.0647 77.306 91.8981 77.2393 91.7288 77.1734C91.6796 77.1543 91.6312 77.1351 91.5817 77.1161C91.3726 77.0361 91.1595 76.9571 90.942 76.8792C90.8949 76.8624 90.8466 76.8458 90.7992 76.8291C90.6189 76.7654 90.4358 76.7026 90.2499 76.6404C90.1878 76.6196 90.1259 76.5988 90.0632 76.5781C89.835 76.5032 89.6039 76.429 89.3677 76.3562C89.338 76.347 89.3073 76.3381 89.2775 76.329C89.0661 76.2643 88.8513 76.2008 88.6339 76.1378C88.5628 76.1173 88.4914 76.0968 88.4196 76.0765C88.2011 76.0144 87.9802 75.9531 87.7559 75.8929C87.7234 75.8842 87.6915 75.8752 87.6588 75.8665C87.4074 75.7994 87.1516 75.7339 86.8932 75.6691C86.817 75.65 86.74 75.6312 86.6631 75.6123C86.4548 75.5609 86.2443 75.5104 86.0317 75.4606C85.9674 75.4455 85.9039 75.4303 85.8393 75.4153C85.575 75.3543 85.3073 75.2944 85.0367 75.2357C84.9615 75.2193 84.8853 75.2033 84.8095 75.1871C84.596 75.1415 84.3806 75.0967 84.1635 75.0526C84.081 75.0357 83.999 75.0188 83.916 75.0022C83.6388 74.9468 83.3593 74.8924 83.0764 74.8394C83.0111 74.8271 82.9447 74.8153 82.879 74.8032C82.786 74.7859 82.6928 74.7688 82.5992 74.7518L86.2746 61.0446C86.28 61.0439 86.2854 61.0432 86.2909 61.0425C86.7675 60.9818 87.2389 60.9191 87.7066 60.8548C87.9042 60.8278 88.0984 60.7996 88.2943 60.7719C88.552 60.7354 88.8098 60.699 89.0645 60.6615C89.3264 60.623 89.5851 60.5835 89.8439 60.5439C90.0136 60.5179 90.1833 60.492 90.3515 60.4656C90.6695 60.4157 90.9846 60.3649 91.2977 60.3135C91.3766 60.3005 91.4552 60.2874 91.5338 60.2744C96.0639 59.521 100.077 58.6014 103.473 57.5487L96.2869 73.5444L94.1616 78.2757ZM89.067 60.3896C89.031 60.3949 88.9939 60.3999 88.9578 60.4052C88.5267 60.4686 88.0922 60.5309 87.6528 60.5914C87.1928 60.6546 86.728 60.7162 86.2588 60.7761L86.0968 60.2692L92.2194 37.0573C93.0962 37.2122 93.9564 37.3741 94.7994 37.543L105.234 53.6274L103.633 57.1923C99.6116 58.4682 94.6954 59.5562 89.067 60.3896ZM110.237 42.4907L110.062 42.8811L109.323 42.0243C109.636 42.1779 109.943 42.3329 110.237 42.4907ZM94.6519 37.2035L87.5371 26.2364C87.5515 26.2307 87.5667 26.2251 87.5811 26.2193L94.7182 37.2163C94.6963 37.2119 94.6738 37.2077 94.6519 37.2035ZM92.0608 22.618C92.0494 22.6483 92.0372 22.6787 92.0243 22.7091C92.002 22.7611 91.9782 22.8129 91.952 22.8644C91.938 22.8924 91.9228 22.9201 91.9075 22.9479C91.8816 22.9949 91.854 23.0417 91.825 23.0885C91.824 23.0898 91.823 23.0913 91.8221 23.0926C91.791 23.1383 91.7589 23.1838 91.7247 23.2291C91.6911 23.2735 91.6553 23.3178 91.6187 23.362C91.5927 23.3934 91.5669 23.425 91.5395 23.4562C91.4808 23.5229 91.4191 23.5893 91.3535 23.6553C91.346 23.663 91.3388 23.6708 91.3311 23.6785C90.5132 24.4918 89.1838 25.2592 87.4176 25.9514L84.6006 24.1138L80.6761 17.5912L92.1192 22.4366C92.1019 22.497 92.0839 22.5576 92.0608 22.618ZM84.4834 24.0372L84.4004 23.9831L80.5157 17.5234L80.5805 17.5508L84.4834 24.0372ZM84.2832 23.9067L69.8541 14.4934C71.3616 14.5909 72.8379 14.7199 74.269 14.8784L80.4202 17.483L84.2832 23.9067ZM76.2523 15.6538L80.352 17.3695L80.3682 17.3966L76.2523 15.6538ZM74.6583 14.9224C76.2668 15.1077 77.8153 15.3307 79.2817 15.5898L80.3005 17.2837L74.6583 14.9224ZM70.6947 14.184C70.5143 14.1709 70.3333 14.1585 70.152 14.1463C70.0096 14.1367 69.8674 14.1271 69.7245 14.118C69.5608 14.1077 69.397 14.0975 69.2326 14.0879L63.5323 10.3692L63.8439 10.4641L73.1097 14.3875C72.3154 14.3105 71.5094 14.2429 70.6947 14.184ZM50.0394 15.1054L48.4831 18.2618L48.443 18.2846L50.005 15.1187L50.0394 15.1054ZM34.4819 87.8334L47.5126 100.707L34.3634 87.7888C34.4029 87.8037 34.442 87.8187 34.4819 87.8334ZM78.1232 90.8479C78.1391 90.8459 78.1549 90.844 78.1707 90.842L72.3506 100.325L78.1232 90.8479ZM85.0387 89.341L85.4088 88.8982L94.0857 78.5112C94.104 78.5208 94.1235 78.5302 94.1417 78.54L85.0803 89.3323C85.0666 89.3352 85.0525 89.3381 85.0387 89.341ZM105.264 53.5611L94.8832 37.5599C94.9056 37.5644 94.9277 37.569 94.9501 37.5735L105.289 53.5045L105.264 53.5611ZM109.185 41.9564L110.034 42.942L110.001 43.0168L109.016 41.8737C109.073 41.901 109.128 41.929 109.185 41.9564ZM108 41.0522C107.939 41.0259 107.877 40.9996 107.815 40.9736C107.624 40.893 107.43 40.8129 107.233 40.7336C107.211 40.7249 107.19 40.7159 107.168 40.7072C106.951 40.6203 106.73 40.5345 106.506 40.4491C106.443 40.4249 106.379 40.4008 106.314 40.3767C106.139 40.3108 105.962 40.2452 105.783 40.1801C105.722 40.1581 105.662 40.136 105.601 40.1142C105.371 40.0314 105.137 39.9494 104.901 39.8684C104.853 39.8521 104.805 39.8362 104.757 39.82C104.561 39.7534 104.363 39.6874 104.163 39.6219C104.089 39.5978 104.015 39.5738 103.941 39.5499C103.732 39.4824 103.52 39.4154 103.307 39.3491C103.266 39.3363 103.225 39.3232 103.184 39.3106C102.934 39.2336 102.681 39.1575 102.425 39.0821C102.352 39.0604 102.277 39.0389 102.203 39.0174C102.007 38.9601 101.808 38.9032 101.608 38.8468C101.532 38.8253 101.455 38.8035 101.378 38.7821C101.117 38.7093 100.853 38.6371 100.586 38.5659C100.539 38.5536 100.492 38.5414 100.445 38.529C100.218 38.469 99.9893 38.4097 99.7589 38.3508C99.6707 38.3284 99.5821 38.306 99.4932 38.2836C99.2752 38.2288 99.0554 38.1745 98.8342 38.1206C98.7697 38.1051 98.7059 38.089 98.641 38.0735C98.3647 38.007 98.0856 37.9413 97.8045 37.8765C97.7197 37.8569 97.6342 37.8377 97.549 37.8184C97.3368 37.77 97.1232 37.7221 96.9083 37.6748C96.815 37.6541 96.7219 37.6335 96.6281 37.6131C96.3414 37.5507 96.0529 37.4889 95.7616 37.4283C95.7146 37.4184 95.6668 37.4089 95.6196 37.3992C95.3664 37.3468 95.1115 37.2952 94.855 37.2439C94.8373 37.2405 94.8199 37.2368 94.802 37.2333L87.6391 26.1967C89.8539 25.304 91.3688 24.2845 92.0475 23.1915C92.0859 23.1347 92.1212 23.0775 92.155 23.0202C92.1625 23.0077 92.1697 22.9952 92.1769 22.9827C92.2146 22.917 92.2493 22.851 92.2809 22.7849C92.2941 22.7572 92.3072 22.7296 92.3192 22.7018C92.3298 22.6779 92.3428 22.6542 92.3525 22.6302C92.3527 22.6296 92.3528 22.6291 92.3531 22.6284L108.364 41.2096C108.244 41.1568 108.122 41.1044 108 41.0522ZM92.1516 22.3215C92.1473 22.3408 92.1409 22.3601 92.136 22.3794L80.624 17.5049L80.6068 17.4761L92.1537 22.3088C92.1528 22.313 92.1527 22.3173 92.1516 22.3215ZM80.5285 17.4645L80.4639 17.437L80.4472 17.4093L80.5115 17.4363L80.5285 17.4645ZM80.3956 17.3235L79.3613 15.6036C79.379 15.6069 79.3969 15.6099 79.4145 15.613L80.46 17.3505L80.3956 17.3235ZM32.7632 87.1314C32.7835 87.1406 32.8047 87.1494 32.825 87.1586C32.9995 87.237 33.1785 87.3142 33.3605 87.3907C33.4099 87.4115 33.4591 87.4321 33.5089 87.4527C33.7111 87.5362 33.9162 87.6188 34.1272 87.7001C34.1444 87.7068 34.1622 87.7132 34.1795 87.7199C34.1941 87.7254 34.2091 87.7309 34.2236 87.7364L56.9906 110.103L32.7026 87.1037C32.7228 87.1129 32.7429 87.1222 32.7632 87.1314ZM94.2704 78.3349C94.252 78.3248 94.2347 78.3146 94.216 78.3046L103.551 57.5236C103.578 57.5151 103.604 57.5066 103.631 57.4982L96.991 72.2789L94.2704 78.3349ZM105.319 53.4381L95.0339 37.5905C100.552 38.7088 105.303 40.1278 108.882 41.8116L109.973 43.0778L105.402 53.2537L105.319 53.4381ZM108.631 41.3282C108.587 41.3083 108.542 41.2887 108.497 41.2688C108.496 41.2681 108.494 41.2675 108.493 41.2669L92.3766 22.5627C92.3832 22.5447 92.3896 22.5266 92.3959 22.5086C92.3981 22.5022 92.4013 22.4959 92.4035 22.4895L108.65 41.3364C108.644 41.3337 108.638 41.331 108.631 41.3282ZM62.1002 10.5239L55.7531 14.1306C54.3844 14.2208 53.0272 14.3385 51.6912 14.484C51.6818 14.485 51.6724 14.4858 51.6631 14.4868L61.9249 10.5766L62.1002 10.5239ZM26.9827 38.3671L21.3538 46.1722L19.1626 40.7858C21.3992 39.9046 24.0207 39.0925 26.9827 38.3671ZM63.1831 115.38L76.932 92.9775L78.2485 90.8325C78.2671 90.8301 78.286 90.8279 78.3047 90.8255C78.5927 90.7889 78.8775 90.7508 79.1607 90.7121C79.2484 90.7002 79.3357 90.688 79.4228 90.6759C79.6299 90.647 79.8356 90.6175 80.04 90.5877C80.1255 90.5751 80.2114 90.5629 80.2963 90.5502C80.5486 90.5126 80.799 90.4741 81.0473 90.4348C81.1694 90.4155 81.29 90.3957 81.4111 90.376C81.5468 90.3539 81.6821 90.3317 81.8167 90.309C81.9591 90.2853 82.1012 90.2613 82.2421 90.2369C82.3326 90.2212 82.4218 90.2052 82.5115 90.1894C82.8326 90.1326 83.1497 90.0746 83.4625 90.0153C83.4976 90.0086 83.5332 90.0021 83.5683 89.9954C83.7579 89.9592 83.9456 89.9223 84.1321 89.885C84.1529 89.8809 84.1736 89.8768 84.1942 89.8725C84.3233 89.8467 84.4532 89.821 84.5808 89.7948L63.2937 115.278L63.1831 115.38ZM85.1778 89.3107L90.0665 83.4879L94.1967 78.5688C94.3436 78.6479 94.4828 78.7277 94.6206 78.8076C94.6385 78.8183 94.6561 78.8287 94.6738 78.8392C94.8238 78.9289 94.9698 79.0189 95.1083 79.1094C95.1115 79.1115 95.1149 79.1136 95.1183 79.1157C95.3192 79.2473 95.5034 79.38 95.68 79.5133L91.933 87.3283C90.0681 88.0717 87.7926 88.7404 85.1778 89.3107ZM103.871 57.1149L105.354 53.8125L106.817 56.0672C105.899 56.4284 104.916 56.7782 103.871 57.1149ZM105.344 53.6848L105.304 53.6225L105.329 53.5658L105.37 53.6281L105.344 53.6848ZM105.359 53.4995L108.267 47.0263L110.018 43.1293L110.063 43.1815L105.4 53.5618L105.359 53.4995ZM110.045 43.0682L110.079 42.9936L110.124 43.0458L110.09 43.1205L110.045 43.0682ZM110.106 42.9325L110.291 42.5204C110.31 42.5306 110.327 42.5408 110.346 42.5509L110.151 42.9847L110.106 42.9325ZM109.838 41.9017C109.831 41.898 109.824 41.8944 109.816 41.8907C109.667 41.8163 109.517 41.7422 109.363 41.6688C109.317 41.6465 109.271 41.6241 109.224 41.6019C109.079 41.5331 108.931 41.4647 108.782 41.3967L92.4256 22.4224C92.4466 22.3538 92.464 22.2851 92.4782 22.2165C92.4785 22.2153 92.479 22.2139 92.4793 22.2127C92.4801 22.2084 92.4802 22.2043 92.481 22.2001C92.4847 22.1822 92.4872 22.1645 92.4902 22.1466L108.596 40.4871L109.838 41.9017ZM73.4643 14.4226L64.4392 10.6456L66.5692 11.2948L77.5442 14.93C76.2307 14.733 74.8656 14.564 73.4643 14.4226ZM41.0051 16.8709L41.0192 16.8666C41.9729 16.5802 43.0005 16.3147 44.0971 16.0709C44.1023 16.0699 44.1072 16.0686 44.1124 16.0675C44.4401 15.9948 44.7762 15.9246 45.1161 15.8558C45.1776 15.8434 45.238 15.8308 45.2998 15.8185C45.6185 15.755 45.9434 15.6937 46.2724 15.6339C46.3535 15.6191 46.4344 15.6042 46.5162 15.5896C46.846 15.5309 47.1807 15.4738 47.5205 15.4185C47.5964 15.4061 47.6729 15.394 47.7493 15.3818C48.1052 15.325 48.4651 15.2697 48.8315 15.2168C48.8811 15.2097 48.9316 15.2028 48.9814 15.1957C49.2285 15.1605 49.4813 15.1273 49.7333 15.0938L36.6036 20.0324L38.5572 17.7238C39.2939 17.4265 40.1082 17.1408 41.0051 16.8709ZM49.9595 15.0719L36.4424 20.223L36.5253 20.1251L49.9595 15.0719ZM49.9207 15.1507L48.3478 18.3386L36.7078 24.953C36.6803 24.938 36.6538 24.9231 36.6269 24.9081C36.5427 24.8615 36.4594 24.8148 36.3791 24.7679C36.3504 24.7513 36.3227 24.7346 36.2947 24.7179C36.1993 24.6611 36.1056 24.6041 36.0156 24.5469C36.0077 24.5418 35.9997 24.5369 35.9919 24.5318C35.2307 24.0445 34.6647 23.5399 34.3033 23.0285C34.2826 22.9966 34.26 22.9646 34.2408 22.9325C34.2384 22.9287 34.236 22.9248 34.2335 22.921C34.2229 22.9031 34.2149 22.8853 34.2049 22.8674L36.3631 20.3167L49.9207 15.1507ZM34.1742 22.8096C34.1628 22.7881 34.1505 22.7667 34.1398 22.7452L36.1161 20.4108L36.2457 20.3615L34.1742 22.8096ZM34.1101 22.6862C34.0444 22.5453 33.9936 22.4042 33.9592 22.263C33.9583 22.2598 33.9576 22.2565 33.9569 22.2533C33.9436 22.1976 33.9346 22.1419 33.9262 22.0862C33.9204 22.0472 33.916 22.008 33.9127 21.9689C33.9094 21.9318 33.9065 21.8945 33.9053 21.8573C33.904 21.805 33.9058 21.7526 33.9088 21.7003C33.9102 21.6738 33.9101 21.6473 33.9127 21.6208C33.9158 21.59 33.9227 21.5593 33.9272 21.5283C33.9372 21.4593 33.95 21.3902 33.9676 21.3212C33.9764 21.2868 33.9871 21.2524 33.9978 21.2181L35.9987 20.4555L34.1101 22.6862ZM19.1056 40.8083L21.3114 46.2311L21.2743 46.2823L19.0556 40.828C19.0722 40.8214 19.0889 40.8149 19.1056 40.8083ZM28.3839 81.6859C28.3878 81.6722 28.3924 81.6587 28.3964 81.6451C28.4172 81.5748 28.4433 81.5047 28.4707 81.4345C28.488 81.3899 28.5062 81.3454 28.5261 81.301C28.5503 81.2467 28.5774 81.1924 28.6056 81.1381C28.6311 81.0893 28.6566 81.0406 28.6852 80.9919C28.6954 80.9742 28.707 80.9567 28.7178 80.939L29.8317 83.1544L28.3771 81.7173C28.38 81.7069 28.3811 81.6964 28.3839 81.6859ZM80.7072 94.5265L84.6759 89.7756C84.6891 89.7728 84.7019 89.7699 84.7152 89.7671L78.38 97.3124L80.7072 94.5265ZM92.0175 87.2944L95.7298 79.5519C95.7487 79.5663 95.7671 79.5806 95.7855 79.5951L92.112 87.2568C92.081 87.2693 92.0489 87.2819 92.0175 87.2944ZM95.7652 79.2564C95.7262 79.2285 95.6839 79.2003 95.6437 79.1723C95.5555 79.1109 95.4657 79.0496 95.3724 78.9888C95.3235 78.9567 95.2728 78.9246 95.2223 78.8926C95.1261 78.8315 95.0272 78.7709 94.926 78.7103C94.8781 78.6816 94.831 78.6529 94.7815 78.6241C94.7421 78.6012 94.7028 78.5782 94.6627 78.5553C94.5531 78.4915 94.4397 78.4282 94.3246 78.3649L103.71 57.4731C104.79 57.1334 105.805 56.7803 106.755 56.4149L95.7935 79.2766C95.7841 79.2699 95.7746 79.2631 95.7652 79.2564ZM106.875 56.0442L105.384 53.7462L105.41 53.6895L106.925 56.0243C106.908 56.031 106.892 56.0376 106.875 56.0442ZM92.1834 21.657C92.1856 21.6752 92.1874 21.6933 92.1891 21.7116L89.6466 18.8162C89.6738 18.832 89.6995 18.848 89.7263 18.8639C89.7666 18.8876 89.8049 18.9118 89.8442 18.9356L92.1714 21.5843C92.1752 21.6086 92.1803 21.6327 92.1834 21.657ZM77.9002 14.9856L70.1318 12.4125L78.3183 15.0516C78.1796 15.0292 78.0401 15.0074 77.9002 14.9856ZM38.4351 17.7743L36.4869 20.0764L36.3584 20.1247L38.302 17.8291C38.3457 17.8107 38.3905 17.7924 38.4351 17.7743ZM36.4085 20.1691L36.325 20.2678L36.1955 20.3171L36.2798 20.2175L36.4085 20.1691ZM36.0781 20.3618L34.0235 21.1447C34.034 21.1143 34.0447 21.0841 34.0566 21.0537L36.1631 20.2614L36.0781 20.3618ZM28.362 81.7874L29.9165 83.3232L30.0131 83.5152L28.3432 81.8746C28.3489 81.8455 28.3553 81.8165 28.362 81.7874ZM92.1966 87.223L95.8354 79.6338C96.8069 80.4015 97.3784 81.1929 97.5298 81.9904C97.5307 81.9958 97.5318 82.0014 97.5327 82.0069C97.5476 82.0882 97.5547 82.1697 97.5608 82.251C97.5639 82.2914 97.5672 82.3316 97.5681 82.3718C97.5697 82.4402 97.5668 82.5086 97.5623 82.5768C97.5593 82.6219 97.556 82.6671 97.5503 82.712C97.5422 82.7759 97.5307 82.8398 97.5173 82.9035C97.5069 82.9534 97.4952 83.0033 97.4815 83.0532C97.4665 83.1081 97.4486 83.1629 97.4296 83.2178L94.1604 86.2991C93.5731 86.6175 92.9186 86.9262 92.1966 87.223ZM95.8438 79.3143L106.839 56.3822C106.87 56.37 106.902 56.3578 106.933 56.3455L95.8999 79.3565C95.8811 79.3424 95.8629 79.3283 95.8438 79.3143ZM115.428 49.5312C115.409 49.5944 115.389 49.6576 115.367 49.7208C115.347 49.7771 115.328 49.8334 115.306 49.8896C115.298 49.9101 115.288 49.9305 115.28 49.9509C115.246 50.0317 115.206 50.1121 115.168 50.1925L114.981 50.5418C113.824 52.5226 111.059 54.3778 106.983 56.0014L105.439 53.6233L107.652 48.6984L110.107 43.2331L115.454 49.4386C115.446 49.4695 115.437 49.5003 115.428 49.5312ZM109.984 41.9749L92.5036 22.0695C92.5081 22.0377 92.5109 22.0059 92.5139 21.9742L110.171 42.0711C110.109 42.0389 110.046 42.007 109.984 41.9749ZM10.489 47.6488C10.4937 47.6247 10.4974 47.6006 10.5026 47.5765C10.5056 47.5628 10.5098 47.5492 10.5129 47.5354L13.2111 52.7305C13.161 52.6921 13.1105 52.6537 13.0617 52.615L10.4873 47.6583C10.4878 47.655 10.4883 47.6519 10.489 47.6488ZM13.7329 53.5111C13.8599 53.5957 13.9919 53.6801 14.1253 53.7643C14.1759 53.7962 14.2245 53.8284 14.276 53.8602C14.4025 53.9384 14.5342 54.0163 14.6663 54.0941C14.7282 54.1307 14.7878 54.1674 14.8508 54.2037C14.9881 54.2828 15.1309 54.3613 15.2739 54.4399C15.3022 54.4555 15.3291 54.4711 15.3577 54.4867L15.3568 54.4878L15.4398 54.5327L21.3527 66.2917L28.558 80.6214C28.5367 80.6511 28.5195 80.6811 28.4993 80.7109C28.4832 80.7344 28.4685 80.7579 28.4531 80.7813C28.4094 80.8484 28.3671 80.9155 28.3289 80.983C28.3224 80.9942 28.3145 81.0054 28.3081 81.0166C28.2734 81.079 28.2412 81.1416 28.2111 81.2041C28.2034 81.2202 28.1966 81.2364 28.1893 81.2525C28.1739 81.2858 28.1595 81.3193 28.1455 81.3527L13.6597 53.4614C13.6842 53.478 13.7081 53.4945 13.7329 53.5111ZM82.1498 92.9169L84.8118 89.7464C87.1712 89.2508 89.2639 88.6776 91.048 88.0431C91.0486 88.0429 91.0491 88.0427 91.0497 88.0426C91.1691 88.0001 91.2872 87.9575 91.4038 87.9145L65.1155 113.597L63.6557 114.944L82.1498 92.9169ZM94.368 86.1862L97.3799 83.3474C97.3739 83.3624 97.3687 83.3775 97.3623 83.3926C97.343 83.4383 97.3213 83.4839 97.2993 83.5295L94.6212 86.0391C94.5377 86.0882 94.4548 86.1375 94.368 86.1862ZM97.9363 82.356C97.9089 81.8478 97.7244 81.2939 97.2974 80.709C97.2915 80.701 97.2863 80.6929 97.2804 80.6849C97.238 80.6277 97.191 80.57 97.1439 80.5121C97.1203 80.4833 97.0975 80.4543 97.0729 80.4255C97.0301 80.3752 96.9838 80.3246 96.937 80.2739C96.9032 80.237 96.8689 80.2002 96.8332 80.1633C96.7881 80.1168 96.7414 80.0702 96.693 80.0235C96.6492 79.9811 96.6039 79.9388 96.5577 79.8966C96.5107 79.8536 96.4639 79.8106 96.4142 79.7674C96.355 79.7159 96.2926 79.6648 96.2301 79.6137C96.1873 79.5786 96.1466 79.5437 96.1017 79.5084C96.0531 79.4702 96.0008 79.4322 95.9502 79.3942L107.017 56.3128C110.15 55.0838 112.538 53.7189 114.061 52.2607L110.362 59.1771L106.203 66.9358L97.9363 82.356ZM34.0829 23.1538C34.3326 23.5404 34.6918 23.9207 35.1598 24.2935C35.1782 24.3081 35.1962 24.3228 35.2148 24.3374C35.2744 24.3839 35.3359 24.4305 35.3988 24.4768C35.4325 24.5016 35.467 24.5262 35.5016 24.5509C35.5578 24.5911 35.6142 24.6311 35.673 24.671C35.7263 24.7074 35.782 24.7434 35.8373 24.7794C35.8834 24.8093 35.9278 24.8394 35.9752 24.8692C36.0796 24.9349 36.1881 25.0003 36.2995 25.0654C36.3338 25.0854 36.3699 25.1053 36.4048 25.1253C36.4349 25.1424 36.4649 25.1596 36.4953 25.1767L30.7984 33.0763L27.2638 37.9774C24.3169 38.6816 21.6897 39.471 19.4275 40.331L34.0303 23.0737C34.0479 23.1004 34.0641 23.1272 34.0829 23.1538ZM13.5521 53.3871L28.1146 81.4265C28.1066 81.4473 28.0999 81.4683 28.0923 81.4892C28.0879 81.501 28.082 81.5125 28.0778 81.5243C28.0777 81.5248 28.0776 81.5252 28.0775 81.5255L13.4134 53.2921C13.4587 53.3238 13.5058 53.3554 13.5521 53.3871ZM91.5437 87.8621C91.5517 87.8592 91.5592 87.8562 91.5672 87.8533C91.6176 87.8343 91.6686 87.8155 91.7186 87.7966L75.7072 103.334L91.5437 87.8621ZM78.9797 15.1615L74.4903 13.7257L79.1526 15.1913C79.095 15.1813 79.0376 15.1713 78.9797 15.1615ZM57.3864 12.1947L51.0486 14.5564C50.9536 14.5675 50.8584 14.5782 50.7636 14.5895L56.6684 12.4543L57.3864 12.1947ZM33.9962 23.0199L19.3093 40.3767C19.2612 40.395 19.2135 40.4136 19.1658 40.432L33.9581 22.9599C33.9702 22.9799 33.9834 22.9999 33.9962 23.0199ZM11.918 52.0787C12.0304 52.1861 12.1477 52.2931 12.2697 52.3999C12.2847 52.413 12.2993 52.4263 12.3144 52.4394C12.4351 52.5438 12.5609 52.6478 12.6909 52.7515C12.7108 52.7674 12.73 52.7835 12.7501 52.7993C12.8757 52.8983 13.0065 52.9971 13.1406 53.0955C13.1685 53.116 13.1954 53.1365 13.2236 53.157C13.2516 53.1772 13.2774 53.1977 13.3057 53.2179L28.0504 81.6066C28.0416 81.6341 28.0351 81.6618 28.0273 81.6894C28.0197 81.7161 28.0118 81.7427 28.005 81.7694C27.9942 81.8122 27.9855 81.855 27.9768 81.8977C27.9712 81.9262 27.9647 81.9546 27.9599 81.983C27.9541 82.0176 27.9505 82.0522 27.9462 82.0868C27.9396 82.1391 27.934 82.1913 27.9307 82.2435L11.8944 52.0563C11.9021 52.0637 11.9103 52.0712 11.918 52.0787ZM91.86 87.7433C91.9716 87.7002 92.0786 87.6562 92.1875 87.6124C92.2424 87.5904 92.2985 87.5685 92.3527 87.5463C92.4358 87.5122 92.5171 87.4778 92.5985 87.4435C92.6892 87.4053 92.7789 87.367 92.8675 87.3284C92.9339 87.2995 93.0005 87.2706 93.0657 87.2414C93.1272 87.2139 93.188 87.1863 93.2485 87.1586L69.0565 109.961L67.193 111.68L91.86 87.7433ZM112.337 43.3451C112.18 43.2394 112.017 43.1332 111.848 43.027C111.81 43.003 111.772 42.9791 111.733 42.9553C111.585 42.8637 111.432 42.7719 111.275 42.6799C111.229 42.6529 111.184 42.6257 111.137 42.5988C110.941 42.4855 110.738 42.372 110.527 42.2581C110.459 42.2218 110.389 42.1859 110.321 42.1499L92.5207 21.89C92.5307 21.7076 92.5165 21.5254 92.4796 21.3437L112.37 43.3668C112.359 43.3595 112.348 43.3524 112.337 43.3451ZM33.5868 21.5913C33.5839 21.6486 33.5827 21.7058 33.5844 21.7629C33.5853 21.7898 33.5869 21.8166 33.5888 21.8435C33.5937 21.916 33.6022 21.9884 33.6142 22.0606C33.6155 22.0678 33.6155 22.0749 33.6168 22.0821C33.6179 22.0879 33.6198 22.0938 33.6209 22.0997C33.632 22.1595 33.6459 22.219 33.6618 22.2785C33.6624 22.2806 33.6631 22.2829 33.6637 22.285C33.7209 22.4937 33.8055 22.7009 33.924 22.9061L19.0476 40.4776C17.4575 41.0992 16.0566 41.7565 14.8601 42.4438L33.5869 21.5871C33.5868 21.5884 33.5869 21.5899 33.5868 21.5913ZM93.4209 87.079C93.4529 87.0641 93.4857 87.0493 93.5173 87.0343C93.521 87.0327 93.5246 87.0309 93.5283 87.0291C93.5539 87.017 93.5783 87.0045 93.6037 86.9924L77.9631 101.649L93.4209 87.079ZM79.5892 15.2668L79.1925 15.1421L79.618 15.2718C79.6087 15.2701 79.5988 15.2684 79.5892 15.2668ZM60.5187 10.9997L50.4995 14.622C50.3725 14.6377 50.2451 14.6529 50.1185 14.669C49.7626 14.7144 49.4129 14.762 49.066 14.8108C48.9809 14.8228 48.8957 14.8347 48.8111 14.8468C48.4942 14.8924 48.1808 14.9393 47.8718 14.9879C47.7596 15.0053 47.6491 15.0235 47.538 15.0414C47.3215 15.0764 47.1073 15.1122 46.895 15.1485C46.7658 15.1705 46.6359 15.1923 46.5083 15.2149L47.265 14.9873L60.5187 10.9997ZM33.5951 21.45C33.5937 21.4621 33.5941 21.4742 33.5929 21.4864C33.5928 21.4875 33.5925 21.4887 33.5925 21.4898L14.691 42.5411C14.6161 42.5851 14.542 42.6292 14.4688 42.6734L33.6079 21.3674C33.6036 21.3949 33.5982 21.4224 33.5951 21.45ZM31.5236 86.5189L31.524 86.52L31.5436 86.5304L33.8157 88.668L31.4719 86.4896C31.4896 86.4994 31.5057 86.5092 31.5236 86.5189ZM93.7871 86.9033C93.854 86.8703 93.9198 86.8373 93.9851 86.8041C94.0097 86.7917 94.0339 86.7791 94.0583 86.7666C94.1647 86.7121 94.2691 86.6572 94.3715 86.6019L77.1965 102.45L93.7871 86.9033ZM33.6279 21.246C33.6272 21.2494 33.6271 21.2526 33.6264 21.2559L14.287 42.785C14.0757 42.9155 13.8703 43.0468 13.6735 43.1794L21.1814 34.927L33.6279 21.246ZM26.1785 79.7722C24.6408 77.4669 22.9289 75.2481 21.2507 73.0788C16.1862 66.5322 10.9559 59.7651 10.7634 50.7554L26.1785 79.7722Z" fill="#F3F3EF"/>
</svg>
